  0
SECTION
  2
HEADER
  9
$ACADVER
  1
AC1014
  9
$HANDSEED
  5
FFFF
  9
$MEASUREMENT
 70
     1
  0
ENDSEC
  0
SECTION
  2
TABLES
  0
TABLE
  2
VPORT
  5
8
330
0
100
AcDbSymbolTable
 70
     4
  0
VPORT
  5
2E
330
8
100
AcDbSymbolTableRecord
100
AcDbViewportTableRecord
  2
*ACTIVE
 70
     0
 10
0.0
 20
0.0
 11
1.0
 21
1.0
 12
210.0
 22
148.5
 13
0.0
 23
0.0
 14
10.0
 24
10.0
 15
10.0
 25
10.0
 16
0.0
 26
0.0
 36
1.0
 17
0.0
 27
0.0
 37
0.0
 40
341.0
 41
1.24
 42
50.0
 43
0.0
 44
0.0
 50
0.0
 51
0.0
 71
     0
 72
   100
 73
     1
 74
     3
 75
     0
 76
     0
 77
     0
 78
     0
  0
ENDTAB
  0
TABLE
  2
LTYPE
  5
5
330
0
100
AcDbSymbolTable
 70
     1
  0
LTYPE
  5
14
330
5
100
AcDbSymbolTableRecord
100
AcDbLinetypeTableRecord
  2
BYBLOCK
 70
     0
  3

 72
    65
 73
     0
 40
0.0
  0
LTYPE
  5
15
330
5
100
AcDbSymbolTableRecord
100
AcDbLinetypeTableRecord
  2
BYLAYER
 70
     0
  3

 72
    65
 73
     0
 40
0.0
  0
LTYPE
  5
16
330
5
100
AcDbSymbolTableRecord
100
AcDbLinetypeTableRecord
  2
CONTINUOUS
 70
     0
  3
Solid line
 72
    65
 73
     0
 40
0.0
  0
ENDTAB
  0
TABLE
  2
LAYER
  5
2
100
AcDbSymbolTable
 70
1
  0
LAYER
  5
50
100
AcDbSymbolTableRecord
100
AcDbLayerTableRecord
  2
0
 70
0
  6
CONTINUOUS
  0
ENDTAB
  0
TABLE
  2
STYLE
  5
3
330
0
100
AcDbSymbolTable
 70
     1
  0
STYLE
  5
11
330
3
100
AcDbSymbolTableRecord
100
AcDbTextStyleTableRecord
  2
STANDARD
 70
     0
 40
0.0
 41
1.0
 50
0.0
 71
     0
 42
2.5
  3
txt
  4

  0
ENDTAB
  0
TABLE
  2
VIEW
  5
6
330
0
100
AcDbSymbolTable
 70
     0
  0
ENDTAB
  0
TABLE
  2
UCS
  5
7
330
0
100
AcDbSymbolTable
 70
     0
  0
ENDTAB
  0
TABLE
  2
APPID
  5
9
330
0
100
AcDbSymbolTable
 70
     2
  0
APPID
  5
12
330
9
100
AcDbSymbolTableRecord
100
AcDbRegAppTableRecord
  2
ACAD
 70
     0
  0
ENDTAB
  0
TABLE
  2
DIMSTYLE
  5
A
330
0
100
AcDbSymbolTable
 70
     1
  0
DIMSTYLE
105
27
330
A
100
AcDbSymbolTableRecord
100
AcDbDimStyleTableRecord
  2
ISO-25
 70
     0
  3

  4

  5

  6

  7

 40
1.0
 41
2.5
 42
0.625
 43
3.75
 44
1.25
 45
0.0
 46
0.0
 47
0.0
 48
0.0
140
2.5
141
2.5
142
0.0
143
0.03937007874016
144
1.0
145
0.0
146
1.0
147
0.625
 71
     0
 72
     0
 73
     0
 74
     0
 75
     0
 76
     0
 77
     1
 78
     8
170
     0
171
     3
172
     1
173
     0
174
     0
175
     0
176
     0
177
     0
178
     0
270
     2
271
     2
272
     2
273
     2
274
     3
340
11
275
     0
280
     0
281
     0
282
     0
283
     0
284
     8
285
     0
286
     0
287
     3
288
     0
  0
ENDTAB
  0
TABLE
  2
BLOCK_RECORD
  5
1
330
0
100
AcDbSymbolTable
 70
     1
  0
BLOCK_RECORD
  5
1F
330
1
100
AcDbSymbolTableRecord
100
AcDbBlockTableRecord
  2
*MODEL_SPACE
  0
BLOCK_RECORD
  5
1B
330
1
100
AcDbSymbolTableRecord
100
AcDbBlockTableRecord
  2
*PAPER_SPACE
  0
ENDTAB
  0
ENDSEC
  0
SECTION
  2
BLOCKS
  0
BLOCK
  5
20
330
1F
100
AcDbEntity
  8
0
100
AcDbBlockBegin
  2
*MODEL_SPACE
 70
     0
 10
0.0
 20
0.0
 30
0.0
  3
*MODEL_SPACE
  1

  0
ENDBLK
  5
21
330
1F
100
AcDbEntity
  8
0
100
AcDbBlockEnd
  0
BLOCK
  5
1C
330
1B
100
AcDbEntity
 67
     1
  8
0
100
AcDbBlockBegin
  2
*PAPER_SPACE
  1

  0
ENDBLK
  5
1D
330
1B
100
AcDbEntity
 67
     1
  8
0
100
AcDbBlockEnd
  0
ENDSEC
  0
SECTION
  2
ENTITIES
  0
LWPOLYLINE
  5
100
100
AcDbEntity
  8
0
 62
7
100
AcDbPolyline
 90
33
 70
0
 10
38.070000
 20
202.630000
 30
0.0
 10
44.070000
 20
202.630000
 30
0.0
 10
44.070000
 20
197.560000
 30
0.0
 10
50.070000
 20
197.560000
 30
0.0
 10
50.070000
 20
202.630000
 30
0.0
 10
56.070000
 20
202.630000
 30
0.0
 10
56.070000
 20
197.560000
 30
0.0
 10
62.070000
 20
197.560000
 30
0.0
 10
62.070000
 20
202.630000
 30
0.0
 10
68.070000
 20
202.630000
 30
0.0
 10
68.070000
 20
197.560000
 30
0.0
 10
74.070000
 20
197.560000
 30
0.0
 10
74.070000
 20
202.630000
 30
0.0
 10
80.070000
 20
202.630000
 30
0.0
 10
80.070000
 20
197.560000
 30
0.0
 10
86.070000
 20
197.560000
 30
0.0
 10
86.070000
 20
202.630000
 30
0.0
 10
92.070000
 20
202.630000
 30
0.0
 10
92.070000
 20
197.560000
 30
0.0
 10
130.140000
 20
197.560000
 30
0.0
 10
130.140000
 20
205.095000
 30
0.0
 10
125.070000
 20
205.095000
 30
0.0
 10
125.070000
 20
211.095000
 30
0.0
 10
130.140000
 20
211.095000
 30
0.0
 10
130.140000
 20
218.630000
 30
0.0
 10
0.000000
 20
218.630000
 30
0.0
 10
0.000000
 20
211.095000
 30
0.0
 10
5.069990
 20
211.095000
 30
0.0
 10
5.069990
 20
205.095000
 30
0.0
 10
0.000000
 20
205.095000
 30
0.0
 10
0.000000
 20
197.560000
 30
0.0
 10
38.070000
 20
197.560000
 30
0.0
 10
38.070000
 20
202.630000
 30
0.0
  0
LWPOLYLINE
  5
101
100
AcDbEntity
  8
0
 62
7
100
AcDbPolyline
 90
5
 70
0
 10
20.280000
 20
213.560000
 30
0.0
 10
20.280000
 20
216.200000
 30
0.0
 10
105.070000
 20
216.200000
 30
0.0
 10
105.070000
 20
213.560000
 30
0.0
 10
20.280000
 20
213.560000
 30
0.0
  0
LWPOLYLINE
  5
102
100
AcDbEntity
  8
0
 62
7
100
AcDbPolyline
 90
33
 70
0
 10
170.745000
 20
202.630000
 30
0.0
 10
176.745000
 20
202.630000
 30
0.0
 10
176.745000
 20
197.560000
 30
0.0
 10
182.745000
 20
197.560000
 30
0.0
 10
182.745000
 20
202.630000
 30
0.0
 10
188.745000
 20
202.630000
 30
0.0
 10
188.745000
 20
197.560000
 30
0.0
 10
194.745000
 20
197.560000
 30
0.0
 10
194.745000
 20
202.630000
 30
0.0
 10
200.745000
 20
202.630000
 30
0.0
 10
200.745000
 20
197.560000
 30
0.0
 10
206.745000
 20
197.560000
 30
0.0
 10
206.745000
 20
202.630000
 30
0.0
 10
212.745000
 20
202.630000
 30
0.0
 10
212.745000
 20
197.560000
 30
0.0
 10
218.745000
 20
197.560000
 30
0.0
 10
218.745000
 20
202.630000
 30
0.0
 10
224.745000
 20
202.630000
 30
0.0
 10
224.745000
 20
197.560000
 30
0.0
 10
262.815000
 20
197.560000
 30
0.0
 10
262.815000
 20
205.095000
 30
0.0
 10
257.745000
 20
205.095000
 30
0.0
 10
257.745000
 20
211.095000
 30
0.0
 10
262.815000
 20
211.095000
 30
0.0
 10
262.815000
 20
218.630000
 30
0.0
 10
132.675000
 20
218.630000
 30
0.0
 10
132.675000
 20
211.095000
 30
0.0
 10
137.745000
 20
211.095000
 30
0.0
 10
137.745000
 20
205.095000
 30
0.0
 10
132.675000
 20
205.095000
 30
0.0
 10
132.675000
 20
197.560000
 30
0.0
 10
170.745000
 20
197.560000
 30
0.0
 10
170.745000
 20
202.630000
 30
0.0
  0
LWPOLYLINE
  5
103
100
AcDbEntity
  8
0
 62
7
100
AcDbPolyline
 90
5
 70
0
 10
152.955000
 20
213.560000
 30
0.0
 10
152.955000
 20
216.200000
 30
0.0
 10
237.745000
 20
216.200000
 30
0.0
 10
237.745000
 20
213.560000
 30
0.0
 10
152.955000
 20
213.560000
 30
0.0
  0
LWPOLYLINE
  5
104
100
AcDbEntity
  8
0
 62
7
100
AcDbPolyline
 90
69
 70
0
 10
46.200000
 20
176.420000
 30
0.0
 10
52.200000
 20
176.420000
 30
0.0
 10
52.200000
 20
171.350000
 30
0.0
 10
58.200000
 20
171.350000
 30
0.0
 10
58.200000
 20
176.420000
 30
0.0
 10
64.200000
 20
176.420000
 30
0.0
 10
64.200000
 20
171.350000
 30
0.0
 10
70.200000
 20
171.350000
 30
0.0
 10
70.200000
 20
176.420000
 30
0.0
 10
76.200000
 20
176.420000
 30
0.0
 10
76.200000
 20
171.350000
 30
0.0
 10
82.200000
 20
171.350000
 30
0.0
 10
82.200000
 20
176.420000
 30
0.0
 10
88.200000
 20
176.420000
 30
0.0
 10
88.200000
 20
171.350000
 30
0.0
 10
94.200000
 20
171.350000
 30
0.0
 10
94.200000
 20
176.420000
 30
0.0
 10
100.200000
 20
176.420000
 30
0.0
 10
100.200000
 20
171.350000
 30
0.0
 10
106.200000
 20
171.350000
 30
0.0
 10
106.200000
 20
176.420000
 30
0.0
 10
112.200000
 20
176.420000
 30
0.0
 10
112.200000
 20
171.350000
 30
0.0
 10
118.200000
 20
171.350000
 30
0.0
 10
118.200000
 20
176.420000
 30
0.0
 10
124.200000
 20
176.420000
 30
0.0
 10
124.200000
 20
171.350000
 30
0.0
 10
130.200000
 20
171.350000
 30
0.0
 10
130.200000
 20
176.420000
 30
0.0
 10
136.200000
 20
176.420000
 30
0.0
 10
136.200000
 20
171.350000
 30
0.0
 10
142.200000
 20
171.350000
 30
0.0
 10
142.200000
 20
176.420000
 30
0.0
 10
148.200000
 20
176.420000
 30
0.0
 10
148.200000
 20
171.350000
 30
0.0
 10
154.200000
 20
171.350000
 30
0.0
 10
154.200000
 20
176.420000
 30
0.0
 10
160.200000
 20
176.420000
 30
0.0
 10
160.200000
 20
171.350000
 30
0.0
 10
166.200000
 20
171.350000
 30
0.0
 10
166.200000
 20
176.420000
 30
0.0
 10
172.200000
 20
176.420000
 30
0.0
 10
172.200000
 20
171.350000
 30
0.0
 10
178.200000
 20
171.350000
 30
0.0
 10
178.200000
 20
176.420000
 30
0.0
 10
184.200000
 20
176.420000
 30
0.0
 10
184.200000
 20
171.350000
 30
0.0
 10
190.200000
 20
171.350000
 30
0.0
 10
190.200000
 20
176.420000
 30
0.0
 10
196.200000
 20
176.420000
 30
0.0
 10
196.200000
 20
171.350000
 30
0.0
 10
202.200000
 20
171.350000
 30
0.0
 10
202.200000
 20
176.420000
 30
0.0
 10
208.200000
 20
176.420000
 30
0.0
 10
208.200000
 20
171.350000
 30
0.0
 10
254.400000
 20
171.350000
 30
0.0
 10
254.400000
 20
178.885000
 30
0.0
 10
259.470000
 20
178.885000
 30
0.0
 10
259.470000
 20
184.885000
 30
0.0
 10
254.400000
 20
184.885000
 30
0.0
 10
254.400000
 20
186.336000
 30
0.0
 10
0.000000
 20
186.336000
 30
0.0
 10
0.000000
 20
184.885000
 30
0.0
 10
-5.069990
 20
184.885000
 30
0.0
 10
-5.069990
 20
178.885000
 30
0.0
 10
0.000000
 20
178.885000
 30
0.0
 10
0.000000
 20
171.350000
 30
0.0
 10
46.200000
 20
171.350000
 30
0.0
 10
46.200000
 20
176.420000
 30
0.0
  0
LWPOLYLINE
  5
105
100
AcDbEntity
  8
0
 62
7
100
AcDbPolyline
 90
69
 70
0
 10
46.200000
 20
140.210000
 30
0.0
 10
52.200000
 20
140.210000
 30
0.0
 10
52.200000
 20
135.140000
 30
0.0
 10
58.200000
 20
135.140000
 30
0.0
 10
58.200000
 20
140.210000
 30
0.0
 10
64.200000
 20
140.210000
 30
0.0
 10
64.200000
 20
135.140000
 30
0.0
 10
70.200000
 20
135.140000
 30
0.0
 10
70.200000
 20
140.210000
 30
0.0
 10
76.200000
 20
140.210000
 30
0.0
 10
76.200000
 20
135.140000
 30
0.0
 10
82.200000
 20
135.140000
 30
0.0
 10
82.200000
 20
140.210000
 30
0.0
 10
88.200000
 20
140.210000
 30
0.0
 10
88.200000
 20
135.140000
 30
0.0
 10
94.200000
 20
135.140000
 30
0.0
 10
94.200000
 20
140.210000
 30
0.0
 10
100.200000
 20
140.210000
 30
0.0
 10
100.200000
 20
135.140000
 30
0.0
 10
106.200000
 20
135.140000
 30
0.0
 10
106.200000
 20
140.210000
 30
0.0
 10
112.200000
 20
140.210000
 30
0.0
 10
112.200000
 20
135.140000
 30
0.0
 10
118.200000
 20
135.140000
 30
0.0
 10
118.200000
 20
140.210000
 30
0.0
 10
124.200000
 20
140.210000
 30
0.0
 10
124.200000
 20
135.140000
 30
0.0
 10
130.200000
 20
135.140000
 30
0.0
 10
130.200000
 20
140.210000
 30
0.0
 10
136.200000
 20
140.210000
 30
0.0
 10
136.200000
 20
135.140000
 30
0.0
 10
142.200000
 20
135.140000
 30
0.0
 10
142.200000
 20
140.210000
 30
0.0
 10
148.200000
 20
140.210000
 30
0.0
 10
148.200000
 20
135.140000
 30
0.0
 10
154.200000
 20
135.140000
 30
0.0
 10
154.200000
 20
140.210000
 30
0.0
 10
160.200000
 20
140.210000
 30
0.0
 10
160.200000
 20
135.140000
 30
0.0
 10
166.200000
 20
135.140000
 30
0.0
 10
166.200000
 20
140.210000
 30
0.0
 10
172.200000
 20
140.210000
 30
0.0
 10
172.200000
 20
135.140000
 30
0.0
 10
178.200000
 20
135.140000
 30
0.0
 10
178.200000
 20
140.210000
 30
0.0
 10
184.200000
 20
140.210000
 30
0.0
 10
184.200000
 20
135.140000
 30
0.0
 10
190.200000
 20
135.140000
 30
0.0
 10
190.200000
 20
140.210000
 30
0.0
 10
196.200000
 20
140.210000
 30
0.0
 10
196.200000
 20
135.140000
 30
0.0
 10
202.200000
 20
135.140000
 30
0.0
 10
202.200000
 20
140.210000
 30
0.0
 10
208.200000
 20
140.210000
 30
0.0
 10
208.200000
 20
135.140000
 30
0.0
 10
254.400000
 20
135.140000
 30
0.0
 10
254.400000
 20
142.675000
 30
0.0
 10
259.470000
 20
142.675000
 30
0.0
 10
259.470000
 20
148.675000
 30
0.0
 10
254.400000
 20
148.675000
 30
0.0
 10
254.400000
 20
156.210000
 30
0.0
 10
0.000000
 20
156.210000
 30
0.0
 10
0.000000
 20
148.675000
 30
0.0
 10
-5.069990
 20
148.675000
 30
0.0
 10
-5.069990
 20
142.675000
 30
0.0
 10
0.000000
 20
142.675000
 30
0.0
 10
0.000000
 20
135.140000
 30
0.0
 10
46.200000
 20
135.140000
 30
0.0
 10
46.200000
 20
140.210000
 30
0.0
  0
LWPOLYLINE
  5
106
100
AcDbEntity
  8
0
 62
7
100
AcDbPolyline
 90
151
 70
0
 10
64.200000
 20
-5.069990
 30
0.0
 10
64.200000
 20
-0.000000
 30
0.0
 10
70.200000
 20
-0.000000
 30
0.0
 10
70.200000
 20
-5.069990
 30
0.0
 10
76.200000
 20
-5.069990
 30
0.0
 10
76.200000
 20
-0.000000
 30
0.0
 10
82.200000
 20
-0.000000
 30
0.0
 10
82.200000
 20
-5.069990
 30
0.0
 10
88.200000
 20
-5.069990
 30
0.0
 10
88.200000
 20
-0.000000
 30
0.0
 10
94.200000
 20
-0.000000
 30
0.0
 10
94.200000
 20
-5.069990
 30
0.0
 10
100.200000
 20
-5.069990
 30
0.0
 10
100.200000
 20
-0.000000
 30
0.0
 10
106.200000
 20
-0.000000
 30
0.0
 10
106.200000
 20
-5.069990
 30
0.0
 10
112.200000
 20
-5.069990
 30
0.0
 10
112.200000
 20
-0.000000
 30
0.0
 10
118.200000
 20
-0.000000
 30
0.0
 10
118.200000
 20
-5.069990
 30
0.0
 10
124.200000
 20
-5.069990
 30
0.0
 10
124.200000
 20
-0.000000
 30
0.0
 10
130.200000
 20
-0.000000
 30
0.0
 10
130.200000
 20
-5.069990
 30
0.0
 10
136.200000
 20
-5.069990
 30
0.0
 10
136.200000
 20
-0.000000
 30
0.0
 10
142.200000
 20
-0.000000
 30
0.0
 10
142.200000
 20
-5.069990
 30
0.0
 10
148.200000
 20
-5.069990
 30
0.0
 10
148.200000
 20
-0.000000
 30
0.0
 10
154.200000
 20
-0.000000
 30
0.0
 10
154.200000
 20
-5.069990
 30
0.0
 10
160.200000
 20
-5.069990
 30
0.0
 10
160.200000
 20
-0.000000
 30
0.0
 10
166.200000
 20
-0.000000
 30
0.0
 10
166.200000
 20
-5.069990
 30
0.0
 10
172.200000
 20
-5.069990
 30
0.0
 10
172.200000
 20
-0.000000
 30
0.0
 10
178.200000
 20
-0.000000
 30
0.0
 10
178.200000
 20
-5.069990
 30
0.0
 10
184.200000
 20
-5.069990
 30
0.0
 10
184.200000
 20
-0.000000
 30
0.0
 10
190.200000
 20
-0.000000
 30
0.0
 10
190.200000
 20
-5.069990
 30
0.0
 10
196.200000
 20
-5.069990
 30
0.0
 10
196.200000
 20
-0.000000
 30
0.0
 10
202.200000
 20
-0.000000
 30
0.0
 10
202.200000
 20
-5.069990
 30
0.0
 10
208.200000
 20
-5.069990
 30
0.0
 10
208.200000
 20
-0.000000
 30
0.0
 10
254.400000
 20
-0.000000
 30
0.0
 10
254.400000
 20
33.000000
 30
0.0
 10
259.470000
 20
33.000000
 30
0.0
 10
259.470000
 20
39.000000
 30
0.0
 10
254.400000
 20
39.000000
 30
0.0
 10
254.400000
 20
45.000000
 30
0.0
 10
259.470000
 20
45.000000
 30
0.0
 10
259.470000
 20
51.000000
 30
0.0
 10
254.400000
 20
51.000000
 30
0.0
 10
254.400000
 20
57.000000
 30
0.0
 10
259.470000
 20
57.000000
 30
0.0
 10
259.470000
 20
63.000000
 30
0.0
 10
254.400000
 20
63.000000
 30
0.0
 10
254.400000
 20
69.000000
 30
0.0
 10
259.470000
 20
69.000000
 30
0.0
 10
259.470000
 20
75.000000
 30
0.0
 10
254.400000
 20
75.000000
 30
0.0
 10
254.400000
 20
81.000000
 30
0.0
 10
259.470000
 20
81.000000
 30
0.0
 10
259.470000
 20
87.000000
 30
0.0
 10
254.400000
 20
87.000000
 30
0.0
 10
254.400000
 20
120.000000
 30
0.0
 10
208.200000
 20
120.000000
 30
0.0
 10
208.200000
 20
125.070000
 30
0.0
 10
202.200000
 20
125.070000
 30
0.0
 10
202.200000
 20
120.000000
 30
0.0
 10
196.200000
 20
120.000000
 30
0.0
 10
196.200000
 20
125.070000
 30
0.0
 10
190.200000
 20
125.070000
 30
0.0
 10
190.200000
 20
120.000000
 30
0.0
 10
184.200000
 20
120.000000
 30
0.0
 10
184.200000
 20
125.070000
 30
0.0
 10
178.200000
 20
125.070000
 30
0.0
 10
178.200000
 20
120.000000
 30
0.0
 10
172.200000
 20
120.000000
 30
0.0
 10
172.200000
 20
125.070000
 30
0.0
 10
166.200000
 20
125.070000
 30
0.0
 10
166.200000
 20
120.000000
 30
0.0
 10
160.200000
 20
120.000000
 30
0.0
 10
160.200000
 20
125.070000
 30
0.0
 10
154.200000
 20
125.070000
 30
0.0
 10
154.200000
 20
120.000000
 30
0.0
 10
148.200000
 20
120.000000
 30
0.0
 10
148.200000
 20
125.070000
 30
0.0
 10
142.200000
 20
125.070000
 30
0.0
 10
142.200000
 20
120.000000
 30
0.0
 10
136.200000
 20
120.000000
 30
0.0
 10
136.200000
 20
125.070000
 30
0.0
 10
130.200000
 20
125.070000
 30
0.0
 10
130.200000
 20
120.000000
 30
0.0
 10
124.200000
 20
120.000000
 30
0.0
 10
124.200000
 20
125.070000
 30
0.0
 10
118.200000
 20
125.070000
 30
0.0
 10
118.200000
 20
120.000000
 30
0.0
 10
112.200000
 20
120.000000
 30
0.0
 10
112.200000
 20
125.070000
 30
0.0
 10
106.200000
 20
125.070000
 30
0.0
 10
106.200000
 20
120.000000
 30
0.0
 10
100.200000
 20
120.000000
 30
0.0
 10
100.200000
 20
125.070000
 30
0.0
 10
94.200000
 20
125.070000
 30
0.0
 10
94.200000
 20
120.000000
 30
0.0
 10
88.200000
 20
120.000000
 30
0.0
 10
88.200000
 20
125.070000
 30
0.0
 10
82.200000
 20
125.070000
 30
0.0
 10
82.200000
 20
120.000000
 30
0.0
 10
76.200000
 20
120.000000
 30
0.0
 10
76.200000
 20
125.070000
 30
0.0
 10
70.200000
 20
125.070000
 30
0.0
 10
70.200000
 20
120.000000
 30
0.0
 10
64.200000
 20
120.000000
 30
0.0
 10
64.200000
 20
125.070000
 30
0.0
 10
58.200000
 20
125.070000
 30
0.0
 10
58.200000
 20
120.000000
 30
0.0
 10
52.200000
 20
120.000000
 30
0.0
 10
52.200000
 20
125.070000
 30
0.0
 10
46.200000
 20
125.070000
 30
0.0
 10
46.200000
 20
120.000000
 30
0.0
 10
0.000000
 20
120.000000
 30
0.0
 10
0.000000
 20
87.000000
 30
0.0
 10
-5.069990
 20
87.000000
 30
0.0
 10
-5.069990
 20
81.000000
 30
0.0
 10
0.000000
 20
81.000000
 30
0.0
 10
0.000000
 20
75.000000
 30
0.0
 10
-5.069990
 20
75.000000
 30
0.0
 10
-5.069990
 20
69.000000
 30
0.0
 10
0.000000
 20
69.000000
 30
0.0
 10
0.000000
 20
63.000000
 30
0.0
 10
-5.069990
 20
63.000000
 30
0.0
 10
-5.069990
 20
57.000000
 30
0.0
 10
0.000000
 20
57.000000
 30
0.0
 10
0.000000
 20
51.000000
 30
0.0
 10
-5.069990
 20
51.000000
 30
0.0
 10
-5.069990
 20
45.000000
 30
0.0
 10
0.000000
 20
45.000000
 30
0.0
 10
0.000000
 20
39.000000
 30
0.0
 10
-5.069990
 20
39.000000
 30
0.0
 10
-5.069990
 20
33.000000
 30
0.0
 10
0.000000
 20
33.000000
 30
0.0
 10
0.000000
 20
-0.000000
 30
0.0
 10
45.936385
 20
0.000001
 30
0.0
  0
LWPOLYLINE
  5
107
100
AcDbEntity
  8
0
 62
7
100
AcDbPolyline
 90
3
 70
0
 10
58.200000
 20
-0.000000
 30
0.0
 10
58.200000
 20
-5.069990
 30
0.0
 10
64.200000
 20
-5.069990
 30
0.0
  0
LWPOLYLINE
  5
108
100
AcDbEntity
  8
0
 62
7
100
AcDbPolyline
 90
2
 70
0
 10
58.095969
 20
0.000001
 30
0.0
 10
52.095967
 20
0.000001
 30
0.0
  0
LWPOLYLINE
  5
109
100
AcDbEntity
  8
0
 62
7
100
AcDbPolyline
 90
4
 70
0
 10
46.200000
 20
-0.000000
 30
0.0
 10
46.200000
 20
-5.069990
 30
0.0
 10
52.200000
 20
-5.069990
 30
0.0
 10
52.200000
 20
-0.000000
 30
0.0
  0
ENDSEC
  0
SECTION
  2
OBJECTS
  0
DICTIONARY
  5
C
330
0
100
AcDbDictionary
  3
ACAD_GROUP
350
D
  3
ACAD_MLINESTYLE
350
17
  0
DICTIONARY
  5
D
330
C
100
AcDbDictionary
  0
DICTIONARY
  5
1A
330
C
100
AcDbDictionary
  0
DICTIONARY
  5
17
330
C
100
AcDbDictionary
  3
STANDARD
350
18
  0
DICTIONARY
  5
19
330
C
100
AcDbDictionary
  0
ENDSEC
  0
EOF
