  0
SECTION
  2
BLOCKS
  0
ENDSEC
  0
SECTION
  2
ENTITIES
  0
LINE
  8
0
 10
38.07
 20
202.63
 11
44.07
 21
202.63
  0
LINE
  8
0
 10
44.07
 20
202.63
 11
44.07
 21
197.56
  0
LINE
  8
0
 10
44.07
 20
197.56
 11
50.07
 21
197.56
  0
LINE
  8
0
 10
50.07
 20
197.56
 11
50.07
 21
202.63
  0
LINE
  8
0
 10
50.07
 20
202.63
 11
56.07
 21
202.63
  0
LINE
  8
0
 10
56.07
 20
202.63
 11
56.07
 21
197.56
  0
LINE
  8
0
 10
56.07
 20
197.56
 11
62.07
 21
197.56
  0
LINE
  8
0
 10
62.07
 20
197.56
 11
62.07
 21
202.63
  0
LINE
  8
0
 10
62.07
 20
202.63
 11
68.07
 21
202.63
  0
LINE
  8
0
 10
68.07
 20
202.63
 11
68.07
 21
197.56
  0
LINE
  8
0
 10
68.07
 20
197.56
 11
74.07
 21
197.56
  0
LINE
  8
0
 10
74.07
 20
197.56
 11
74.07
 21
202.63
  0
LINE
  8
0
 10
74.07
 20
202.63
 11
80.07
 21
202.63
  0
LINE
  8
0
 10
80.07
 20
202.63
 11
80.07
 21
197.56
  0
LINE
  8
0
 10
80.07
 20
197.56
 11
86.07
 21
197.56
  0
LINE
  8
0
 10
86.07
 20
197.56
 11
86.07
 21
202.63
  0
LINE
  8
0
 10
86.07
 20
202.63
 11
92.07
 21
202.63
  0
LINE
  8
0
 10
92.07
 20
202.63
 11
92.07
 21
197.56
  0
LINE
  8
0
 10
92.07
 20
197.56
 11
130.14
 21
197.56
  0
LINE
  8
0
 10
130.14
 20
197.56
 11
130.14
 21
205.095
  0
LINE
  8
0
 10
130.14
 20
205.095
 11
125.07
 21
205.095
  0
LINE
  8
0
 10
125.07
 20
205.095
 11
125.07
 21
211.095
  0
LINE
  8
0
 10
125.07
 20
211.095
 11
130.14
 21
211.095
  0
LINE
  8
0
 10
130.14
 20
211.095
 11
130.14
 21
218.63
  0
LINE
  8
0
 10
130.14
 20
218.63
 11
0
 21
218.63
  0
LINE
  8
0
 10
0
 20
218.63
 11
0
 21
211.095
  0
LINE
  8
0
 10
0
 20
211.095
 11
5.06999
 21
211.095
  0
LINE
  8
0
 10
5.06999
 20
211.095
 11
5.06999
 21
205.095
  0
LINE
  8
0
 10
5.06999
 20
205.095
 11
0
 21
205.095
  0
LINE
  8
0
 10
0
 20
205.095
 11
0
 21
197.56
  0
LINE
  8
0
 10
0
 20
197.56
 11
38.07
 21
197.56
  0
LINE
  8
0
 10
38.07
 20
197.56
 11
38.07
 21
202.63
  0
LINE
  8
0
 10
20.28
 20
213.56
 11
20.28
 21
216.2
  0
LINE
  8
0
 10
20.28
 20
216.2
 11
105.07
 21
216.2
  0
LINE
  8
0
 10
105.07
 20
216.2
 11
105.07
 21
213.56
  0
LINE
  8
0
 10
105.07
 20
213.56
 11
20.28
 21
213.56
  0
LINE
  8
0
 10
170.745
 20
202.63
 11
176.745
 21
202.63
  0
LINE
  8
0
 10
176.745
 20
202.63
 11
176.745
 21
197.56
  0
LINE
  8
0
 10
176.745
 20
197.56
 11
182.745
 21
197.56
  0
LINE
  8
0
 10
182.745
 20
197.56
 11
182.745
 21
202.63
  0
LINE
  8
0
 10
182.745
 20
202.63
 11
188.745
 21
202.63
  0
LINE
  8
0
 10
188.745
 20
202.63
 11
188.745
 21
197.56
  0
LINE
  8
0
 10
188.745
 20
197.56
 11
194.745
 21
197.56
  0
LINE
  8
0
 10
194.745
 20
197.56
 11
194.745
 21
202.63
  0
LINE
  8
0
 10
194.745
 20
202.63
 11
200.745
 21
202.63
  0
LINE
  8
0
 10
200.745
 20
202.63
 11
200.745
 21
197.56
  0
LINE
  8
0
 10
200.745
 20
197.56
 11
206.745
 21
197.56
  0
LINE
  8
0
 10
206.745
 20
197.56
 11
206.745
 21
202.63
  0
LINE
  8
0
 10
206.745
 20
202.63
 11
212.745
 21
202.63
  0
LINE
  8
0
 10
212.745
 20
202.63
 11
212.745
 21
197.56
  0
LINE
  8
0
 10
212.745
 20
197.56
 11
218.745
 21
197.56
  0
LINE
  8
0
 10
218.745
 20
197.56
 11
218.745
 21
202.63
  0
LINE
  8
0
 10
218.745
 20
202.63
 11
224.745
 21
202.63
  0
LINE
  8
0
 10
224.745
 20
202.63
 11
224.745
 21
197.56
  0
LINE
  8
0
 10
224.745
 20
197.56
 11
262.815
 21
197.56
  0
LINE
  8
0
 10
262.815
 20
197.56
 11
262.815
 21
205.095
  0
LINE
  8
0
 10
262.815
 20
205.095
 11
257.745
 21
205.095
  0
LINE
  8
0
 10
257.745
 20
205.095
 11
257.745
 21
211.095
  0
LINE
  8
0
 10
257.745
 20
211.095
 11
262.815
 21
211.095
  0
LINE
  8
0
 10
262.815
 20
211.095
 11
262.815
 21
218.63
  0
LINE
  8
0
 10
262.815
 20
218.63
 11
132.675
 21
218.63
  0
LINE
  8
0
 10
132.675
 20
218.63
 11
132.675
 21
211.095
  0
LINE
  8
0
 10
132.675
 20
211.095
 11
137.745
 21
211.095
  0
LINE
  8
0
 10
137.745
 20
211.095
 11
137.745
 21
205.095
  0
LINE
  8
0
 10
137.745
 20
205.095
 11
132.675
 21
205.095
  0
LINE
  8
0
 10
132.675
 20
205.095
 11
132.675
 21
197.56
  0
LINE
  8
0
 10
132.675
 20
197.56
 11
170.745
 21
197.56
  0
LINE
  8
0
 10
170.745
 20
197.56
 11
170.745
 21
202.63
  0
LINE
  8
0
 10
152.955
 20
213.56
 11
152.955
 21
216.2
  0
LINE
  8
0
 10
152.955
 20
216.2
 11
237.745
 21
216.2
  0
LINE
  8
0
 10
237.745
 20
216.2
 11
237.745
 21
213.56
  0
LINE
  8
0
 10
237.745
 20
213.56
 11
152.955
 21
213.56
  0
LINE
  8
0
 10
43.93
 20
176.42
 11
49.93
 21
176.42
  0
LINE
  8
0
 10
49.93
 20
176.42
 11
49.93
 21
171.35
  0
LINE
  8
0
 10
49.93
 20
171.35
 11
55.93
 21
171.35
  0
LINE
  8
0
 10
55.93
 20
171.35
 11
55.93
 21
176.42
  0
LINE
  8
0
 10
55.93
 20
176.42
 11
61.93
 21
176.42
  0
LINE
  8
0
 10
61.93
 20
176.42
 11
61.93
 21
171.35
  0
LINE
  8
0
 10
61.93
 20
171.35
 11
67.93
 21
171.35
  0
LINE
  8
0
 10
67.93
 20
171.35
 11
67.93
 21
176.42
  0
LINE
  8
0
 10
67.93
 20
176.42
 11
73.93
 21
176.42
  0
LINE
  8
0
 10
73.93
 20
176.42
 11
73.93
 21
171.35
  0
LINE
  8
0
 10
73.93
 20
171.35
 11
79.93
 21
171.35
  0
LINE
  8
0
 10
79.93
 20
171.35
 11
79.93
 21
176.42
  0
LINE
  8
0
 10
79.93
 20
176.42
 11
85.93
 21
176.42
  0
LINE
  8
0
 10
85.93
 20
176.42
 11
85.93
 21
171.35
  0
LINE
  8
0
 10
85.93
 20
171.35
 11
91.93
 21
171.35
  0
LINE
  8
0
 10
91.93
 20
171.35
 11
91.93
 21
176.42
  0
LINE
  8
0
 10
91.93
 20
176.42
 11
97.93
 21
176.42
  0
LINE
  8
0
 10
97.93
 20
176.42
 11
97.93
 21
171.35
  0
LINE
  8
0
 10
97.93
 20
171.35
 11
103.93
 21
171.35
  0
LINE
  8
0
 10
103.93
 20
171.35
 11
103.93
 21
176.42
  0
LINE
  8
0
 10
103.93
 20
176.42
 11
109.93
 21
176.42
  0
LINE
  8
0
 10
109.93
 20
176.42
 11
109.93
 21
171.35
  0
LINE
  8
0
 10
109.93
 20
171.35
 11
115.93
 21
171.35
  0
LINE
  8
0
 10
115.93
 20
171.35
 11
115.93
 21
176.42
  0
LINE
  8
0
 10
115.93
 20
176.42
 11
121.93
 21
176.42
  0
LINE
  8
0
 10
121.93
 20
176.42
 11
121.93
 21
171.35
  0
LINE
  8
0
 10
121.93
 20
171.35
 11
127.93
 21
171.35
  0
LINE
  8
0
 10
127.93
 20
171.35
 11
127.93
 21
176.42
  0
LINE
  8
0
 10
127.93
 20
176.42
 11
133.93
 21
176.42
  0
LINE
  8
0
 10
133.93
 20
176.42
 11
133.93
 21
171.35
  0
LINE
  8
0
 10
133.93
 20
171.35
 11
139.93
 21
171.35
  0
LINE
  8
0
 10
139.93
 20
171.35
 11
139.93
 21
176.42
  0
LINE
  8
0
 10
139.93
 20
176.42
 11
145.93
 21
176.42
  0
LINE
  8
0
 10
145.93
 20
176.42
 11
145.93
 21
171.35
  0
LINE
  8
0
 10
145.93
 20
171.35
 11
151.93
 21
171.35
  0
LINE
  8
0
 10
151.93
 20
171.35
 11
151.93
 21
176.42
  0
LINE
  8
0
 10
151.93
 20
176.42
 11
157.93
 21
176.42
  0
LINE
  8
0
 10
157.93
 20
176.42
 11
157.93
 21
171.35
  0
LINE
  8
0
 10
157.93
 20
171.35
 11
163.93
 21
171.35
  0
LINE
  8
0
 10
163.93
 20
171.35
 11
163.93
 21
176.42
  0
LINE
  8
0
 10
163.93
 20
176.42
 11
169.93
 21
176.42
  0
LINE
  8
0
 10
169.93
 20
176.42
 11
169.93
 21
171.35
  0
LINE
  8
0
 10
169.93
 20
171.35
 11
175.93
 21
171.35
  0
LINE
  8
0
 10
175.93
 20
171.35
 11
175.93
 21
176.42
  0
LINE
  8
0
 10
175.93
 20
176.42
 11
181.93
 21
176.42
  0
LINE
  8
0
 10
181.93
 20
176.42
 11
181.93
 21
171.35
  0
LINE
  8
0
 10
181.93
 20
171.35
 11
187.93
 21
171.35
  0
LINE
  8
0
 10
187.93
 20
171.35
 11
187.93
 21
176.42
  0
LINE
  8
0
 10
187.93
 20
176.42
 11
193.93
 21
176.42
  0
LINE
  8
0
 10
193.93
 20
176.42
 11
193.93
 21
171.35
  0
LINE
  8
0
 10
193.93
 20
171.35
 11
199.93
 21
171.35
  0
LINE
  8
0
 10
199.93
 20
171.35
 11
199.93
 21
176.42
  0
LINE
  8
0
 10
199.93
 20
176.42
 11
205.93
 21
176.42
  0
LINE
  8
0
 10
205.93
 20
176.42
 11
205.93
 21
171.35
  0
LINE
  8
0
 10
205.93
 20
171.35
 11
249.86
 21
171.35
  0
LINE
  8
0
 10
249.86
 20
171.35
 11
249.86
 21
178.885
  0
LINE
  8
0
 10
249.86
 20
178.885
 11
254.93
 21
178.885
  0
LINE
  8
0
 10
254.93
 20
178.885
 11
254.93
 21
184.885
  0
LINE
  8
0
 10
254.93
 20
184.885
 11
249.86
 21
184.885
  0
LINE
  8
0
 10
249.86
 20
184.885
 11
249.86
 21
186.336
  0
LINE
  8
0
 10
249.86
 20
186.336
 11
0
 21
186.336
  0
LINE
  8
0
 10
0
 20
186.336
 11
0
 21
184.885
  0
LINE
  8
0
 10
0
 20
184.885
 11
-5.06999
 21
184.885
  0
LINE
  8
0
 10
-5.06999
 20
184.885
 11
-5.06999
 21
178.885
  0
LINE
  8
0
 10
-5.06999
 20
178.885
 11
0
 21
178.885
  0
LINE
  8
0
 10
0
 20
178.885
 11
0
 21
171.35
  0
LINE
  8
0
 10
0
 20
171.35
 11
43.93
 21
171.35
  0
LINE
  8
0
 10
43.93
 20
171.35
 11
43.93
 21
176.42
  0
LINE
  8
0
 10
43.93
 20
140.21
 11
49.93
 21
140.21
  0
LINE
  8
0
 10
49.93
 20
140.21
 11
49.93
 21
135.14
  0
LINE
  8
0
 10
49.93
 20
135.14
 11
55.93
 21
135.14
  0
LINE
  8
0
 10
55.93
 20
135.14
 11
55.93
 21
140.21
  0
LINE
  8
0
 10
55.93
 20
140.21
 11
61.93
 21
140.21
  0
LINE
  8
0
 10
61.93
 20
140.21
 11
61.93
 21
135.14
  0
LINE
  8
0
 10
61.93
 20
135.14
 11
67.93
 21
135.14
  0
LINE
  8
0
 10
67.93
 20
135.14
 11
67.93
 21
140.21
  0
LINE
  8
0
 10
67.93
 20
140.21
 11
73.93
 21
140.21
  0
LINE
  8
0
 10
73.93
 20
140.21
 11
73.93
 21
135.14
  0
LINE
  8
0
 10
73.93
 20
135.14
 11
79.93
 21
135.14
  0
LINE
  8
0
 10
79.93
 20
135.14
 11
79.93
 21
140.21
  0
LINE
  8
0
 10
79.93
 20
140.21
 11
85.93
 21
140.21
  0
LINE
  8
0
 10
85.93
 20
140.21
 11
85.93
 21
135.14
  0
LINE
  8
0
 10
85.93
 20
135.14
 11
91.93
 21
135.14
  0
LINE
  8
0
 10
91.93
 20
135.14
 11
91.93
 21
140.21
  0
LINE
  8
0
 10
91.93
 20
140.21
 11
97.93
 21
140.21
  0
LINE
  8
0
 10
97.93
 20
140.21
 11
97.93
 21
135.14
  0
LINE
  8
0
 10
97.93
 20
135.14
 11
103.93
 21
135.14
  0
LINE
  8
0
 10
103.93
 20
135.14
 11
103.93
 21
140.21
  0
LINE
  8
0
 10
103.93
 20
140.21
 11
109.93
 21
140.21
  0
LINE
  8
0
 10
109.93
 20
140.21
 11
109.93
 21
135.14
  0
LINE
  8
0
 10
109.93
 20
135.14
 11
115.93
 21
135.14
  0
LINE
  8
0
 10
115.93
 20
135.14
 11
115.93
 21
140.21
  0
LINE
  8
0
 10
115.93
 20
140.21
 11
121.93
 21
140.21
  0
LINE
  8
0
 10
121.93
 20
140.21
 11
121.93
 21
135.14
  0
LINE
  8
0
 10
121.93
 20
135.14
 11
127.93
 21
135.14
  0
LINE
  8
0
 10
127.93
 20
135.14
 11
127.93
 21
140.21
  0
LINE
  8
0
 10
127.93
 20
140.21
 11
133.93
 21
140.21
  0
LINE
  8
0
 10
133.93
 20
140.21
 11
133.93
 21
135.14
  0
LINE
  8
0
 10
133.93
 20
135.14
 11
139.93
 21
135.14
  0
LINE
  8
0
 10
139.93
 20
135.14
 11
139.93
 21
140.21
  0
LINE
  8
0
 10
139.93
 20
140.21
 11
145.93
 21
140.21
  0
LINE
  8
0
 10
145.93
 20
140.21
 11
145.93
 21
135.14
  0
LINE
  8
0
 10
145.93
 20
135.14
 11
151.93
 21
135.14
  0
LINE
  8
0
 10
151.93
 20
135.14
 11
151.93
 21
140.21
  0
LINE
  8
0
 10
151.93
 20
140.21
 11
157.93
 21
140.21
  0
LINE
  8
0
 10
157.93
 20
140.21
 11
157.93
 21
135.14
  0
LINE
  8
0
 10
157.93
 20
135.14
 11
163.93
 21
135.14
  0
LINE
  8
0
 10
163.93
 20
135.14
 11
163.93
 21
140.21
  0
LINE
  8
0
 10
163.93
 20
140.21
 11
169.93
 21
140.21
  0
LINE
  8
0
 10
169.93
 20
140.21
 11
169.93
 21
135.14
  0
LINE
  8
0
 10
169.93
 20
135.14
 11
175.93
 21
135.14
  0
LINE
  8
0
 10
175.93
 20
135.14
 11
175.93
 21
140.21
  0
LINE
  8
0
 10
175.93
 20
140.21
 11
181.93
 21
140.21
  0
LINE
  8
0
 10
181.93
 20
140.21
 11
181.93
 21
135.14
  0
LINE
  8
0
 10
181.93
 20
135.14
 11
187.93
 21
135.14
  0
LINE
  8
0
 10
187.93
 20
135.14
 11
187.93
 21
140.21
  0
LINE
  8
0
 10
187.93
 20
140.21
 11
193.93
 21
140.21
  0
LINE
  8
0
 10
193.93
 20
140.21
 11
193.93
 21
135.14
  0
LINE
  8
0
 10
193.93
 20
135.14
 11
199.93
 21
135.14
  0
LINE
  8
0
 10
199.93
 20
135.14
 11
199.93
 21
140.21
  0
LINE
  8
0
 10
199.93
 20
140.21
 11
205.93
 21
140.21
  0
LINE
  8
0
 10
205.93
 20
140.21
 11
205.93
 21
135.14
  0
LINE
  8
0
 10
205.93
 20
135.14
 11
249.86
 21
135.14
  0
LINE
  8
0
 10
249.86
 20
135.14
 11
249.86
 21
142.675
  0
LINE
  8
0
 10
249.86
 20
142.675
 11
254.93
 21
142.675
  0
LINE
  8
0
 10
254.93
 20
142.675
 11
254.93
 21
148.675
  0
LINE
  8
0
 10
254.93
 20
148.675
 11
249.86
 21
148.675
  0
LINE
  8
0
 10
249.86
 20
148.675
 11
249.86
 21
156.21
  0
LINE
  8
0
 10
249.86
 20
156.21
 11
0
 21
156.21
  0
LINE
  8
0
 10
0
 20
156.21
 11
0
 21
148.675
  0
LINE
  8
0
 10
0
 20
148.675
 11
-5.06999
 21
148.675
  0
LINE
  8
0
 10
-5.06999
 20
148.675
 11
-5.06999
 21
142.675
  0
LINE
  8
0
 10
-5.06999
 20
142.675
 11
0
 21
142.675
  0
LINE
  8
0
 10
0
 20
142.675
 11
0
 21
135.14
  0
LINE
  8
0
 10
0
 20
135.14
 11
43.93
 21
135.14
  0
LINE
  8
0
 10
43.93
 20
135.14
 11
43.93
 21
140.21
  0
LINE
  8
0
 10
49.93
 20
-5.06999
 11
49.93
 21
0
  0
LINE
  8
0
 10
49.93
 20
0
 11
55.93
 21
0
  0
LINE
  8
0
 10
55.93
 20
0
 11
55.93
 21
-5.06999
  0
LINE
  8
0
 10
55.93
 20
-5.06999
 11
61.93
 21
-5.06999
  0
LINE
  8
0
 10
61.93
 20
-5.06999
 11
61.93
 21
0
  0
LINE
  8
0
 10
61.93
 20
0
 11
67.93
 21
0
  0
LINE
  8
0
 10
67.93
 20
0
 11
67.93
 21
-5.06999
  0
LINE
  8
0
 10
67.93
 20
-5.06999
 11
73.93
 21
-5.06999
  0
LINE
  8
0
 10
73.93
 20
-5.06999
 11
73.93
 21
0
  0
LINE
  8
0
 10
73.93
 20
0
 11
79.93
 21
0
  0
LINE
  8
0
 10
79.93
 20
0
 11
79.93
 21
-5.06999
  0
LINE
  8
0
 10
79.93
 20
-5.06999
 11
85.93
 21
-5.06999
  0
LINE
  8
0
 10
85.93
 20
-5.06999
 11
85.93
 21
0
  0
LINE
  8
0
 10
85.93
 20
0
 11
91.93
 21
0
  0
LINE
  8
0
 10
91.93
 20
0
 11
91.93
 21
-5.06999
  0
LINE
  8
0
 10
91.93
 20
-5.06999
 11
97.93
 21
-5.06999
  0
LINE
  8
0
 10
97.93
 20
-5.06999
 11
97.93
 21
0
  0
LINE
  8
0
 10
97.93
 20
0
 11
103.93
 21
0
  0
LINE
  8
0
 10
103.93
 20
0
 11
103.93
 21
-5.06999
  0
LINE
  8
0
 10
103.93
 20
-5.06999
 11
109.93
 21
-5.06999
  0
LINE
  8
0
 10
109.93
 20
-5.06999
 11
109.93
 21
0
  0
LINE
  8
0
 10
109.93
 20
0
 11
115.93
 21
0
  0
LINE
  8
0
 10
115.93
 20
0
 11
115.93
 21
-5.06999
  0
LINE
  8
0
 10
115.93
 20
-5.06999
 11
121.93
 21
-5.06999
  0
LINE
  8
0
 10
121.93
 20
-5.06999
 11
121.93
 21
0
  0
LINE
  8
0
 10
121.93
 20
0
 11
127.93
 21
0
  0
LINE
  8
0
 10
127.93
 20
0
 11
127.93
 21
-5.06999
  0
LINE
  8
0
 10
127.93
 20
-5.06999
 11
133.93
 21
-5.06999
  0
LINE
  8
0
 10
133.93
 20
-5.06999
 11
133.93
 21
0
  0
LINE
  8
0
 10
133.93
 20
0
 11
139.93
 21
0
  0
LINE
  8
0
 10
139.93
 20
0
 11
139.93
 21
-5.06999
  0
LINE
  8
0
 10
139.93
 20
-5.06999
 11
145.93
 21
-5.06999
  0
LINE
  8
0
 10
145.93
 20
-5.06999
 11
145.93
 21
0
  0
LINE
  8
0
 10
145.93
 20
0
 11
151.93
 21
0
  0
LINE
  8
0
 10
151.93
 20
0
 11
151.93
 21
-5.06999
  0
LINE
  8
0
 10
151.93
 20
-5.06999
 11
157.93
 21
-5.06999
  0
LINE
  8
0
 10
157.93
 20
-5.06999
 11
157.93
 21
0
  0
LINE
  8
0
 10
157.93
 20
0
 11
163.93
 21
0
  0
LINE
  8
0
 10
163.93
 20
0
 11
163.93
 21
-5.06999
  0
LINE
  8
0
 10
163.93
 20
-5.06999
 11
169.93
 21
-5.06999
  0
LINE
  8
0
 10
169.93
 20
-5.06999
 11
169.93
 21
0
  0
LINE
  8
0
 10
169.93
 20
0
 11
175.93
 21
0
  0
LINE
  8
0
 10
175.93
 20
0
 11
175.93
 21
-5.06999
  0
LINE
  8
0
 10
175.93
 20
-5.06999
 11
181.93
 21
-5.06999
  0
LINE
  8
0
 10
181.93
 20
-5.06999
 11
181.93
 21
0
  0
LINE
  8
0
 10
181.93
 20
0
 11
187.93
 21
0
  0
LINE
  8
0
 10
187.93
 20
0
 11
187.93
 21
-5.06999
  0
LINE
  8
0
 10
187.93
 20
-5.06999
 11
193.93
 21
-5.06999
  0
LINE
  8
0
 10
193.93
 20
-5.06999
 11
193.93
 21
0
  0
LINE
  8
0
 10
193.93
 20
0
 11
199.93
 21
0
  0
LINE
  8
0
 10
199.93
 20
0
 11
199.93
 21
-5.06999
  0
LINE
  8
0
 10
199.93
 20
-5.06999
 11
205.93
 21
-5.06999
  0
LINE
  8
0
 10
205.93
 20
-5.06999
 11
205.93
 21
0
  0
LINE
  8
0
 10
205.93
 20
0
 11
249.86
 21
0
  0
LINE
  8
0
 10
249.86
 20
0
 11
249.86
 21
120
  0
LINE
  8
0
 10
249.86
 20
120
 11
205.93
 21
120
  0
LINE
  8
0
 10
205.93
 20
120
 11
205.93
 21
125.07
  0
LINE
  8
0
 10
205.93
 20
125.07
 11
199.93
 21
125.07
  0
LINE
  8
0
 10
199.93
 20
125.07
 11
199.93
 21
120
  0
LINE
  8
0
 10
199.93
 20
120
 11
193.93
 21
120
  0
LINE
  8
0
 10
193.93
 20
120
 11
193.93
 21
125.07
  0
LINE
  8
0
 10
193.93
 20
125.07
 11
187.93
 21
125.07
  0
LINE
  8
0
 10
187.93
 20
125.07
 11
187.93
 21
120
  0
LINE
  8
0
 10
187.93
 20
120
 11
181.93
 21
120
  0
LINE
  8
0
 10
181.93
 20
120
 11
181.93
 21
125.07
  0
LINE
  8
0
 10
181.93
 20
125.07
 11
175.93
 21
125.07
  0
LINE
  8
0
 10
175.93
 20
125.07
 11
175.93
 21
120
  0
LINE
  8
0
 10
175.93
 20
120
 11
169.93
 21
120
  0
LINE
  8
0
 10
169.93
 20
120
 11
169.93
 21
125.07
  0
LINE
  8
0
 10
169.93
 20
125.07
 11
163.93
 21
125.07
  0
LINE
  8
0
 10
163.93
 20
125.07
 11
163.93
 21
120
  0
LINE
  8
0
 10
163.93
 20
120
 11
157.93
 21
120
  0
LINE
  8
0
 10
157.93
 20
120
 11
157.93
 21
125.07
  0
LINE
  8
0
 10
157.93
 20
125.07
 11
151.93
 21
125.07
  0
LINE
  8
0
 10
151.93
 20
125.07
 11
151.93
 21
120
  0
LINE
  8
0
 10
151.93
 20
120
 11
145.93
 21
120
  0
LINE
  8
0
 10
145.93
 20
120
 11
145.93
 21
125.07
  0
LINE
  8
0
 10
145.93
 20
125.07
 11
139.93
 21
125.07
  0
LINE
  8
0
 10
139.93
 20
125.07
 11
139.93
 21
120
  0
LINE
  8
0
 10
139.93
 20
120
 11
133.93
 21
120
  0
LINE
  8
0
 10
133.93
 20
120
 11
133.93
 21
125.07
  0
LINE
  8
0
 10
133.93
 20
125.07
 11
127.93
 21
125.07
  0
LINE
  8
0
 10
127.93
 20
125.07
 11
127.93
 21
120
  0
LINE
  8
0
 10
127.93
 20
120
 11
121.93
 21
120
  0
LINE
  8
0
 10
121.93
 20
120
 11
121.93
 21
125.07
  0
LINE
  8
0
 10
121.93
 20
125.07
 11
115.93
 21
125.07
  0
LINE
  8
0
 10
115.93
 20
125.07
 11
115.93
 21
120
  0
LINE
  8
0
 10
115.93
 20
120
 11
109.93
 21
120
  0
LINE
  8
0
 10
109.93
 20
120
 11
109.93
 21
125.07
  0
LINE
  8
0
 10
109.93
 20
125.07
 11
103.93
 21
125.07
  0
LINE
  8
0
 10
103.93
 20
125.07
 11
103.93
 21
120
  0
LINE
  8
0
 10
103.93
 20
120
 11
97.93
 21
120
  0
LINE
  8
0
 10
97.93
 20
120
 11
97.93
 21
125.07
  0
LINE
  8
0
 10
97.93
 20
125.07
 11
91.93
 21
125.07
  0
LINE
  8
0
 10
91.93
 20
125.07
 11
91.93
 21
120
  0
LINE
  8
0
 10
91.93
 20
120
 11
85.93
 21
120
  0
LINE
  8
0
 10
85.93
 20
120
 11
85.93
 21
125.07
  0
LINE
  8
0
 10
85.93
 20
125.07
 11
79.93
 21
125.07
  0
LINE
  8
0
 10
79.93
 20
125.07
 11
79.93
 21
120
  0
LINE
  8
0
 10
79.93
 20
120
 11
73.93
 21
120
  0
LINE
  8
0
 10
73.93
 20
120
 11
73.93
 21
125.07
  0
LINE
  8
0
 10
73.93
 20
125.07
 11
67.93
 21
125.07
  0
LINE
  8
0
 10
67.93
 20
125.07
 11
67.93
 21
120
  0
LINE
  8
0
 10
67.93
 20
120
 11
61.93
 21
120
  0
LINE
  8
0
 10
61.93
 20
120
 11
61.93
 21
125.07
  0
LINE
  8
0
 10
61.93
 20
125.07
 11
55.93
 21
125.07
  0
LINE
  8
0
 10
55.93
 20
125.07
 11
55.93
 21
120
  0
LINE
  8
0
 10
55.93
 20
120
 11
49.93
 21
120
  0
LINE
  8
0
 10
49.93
 20
120
 11
49.93
 21
125.07
  0
LINE
  8
0
 10
49.93
 20
125.07
 11
43.93
 21
125.07
  0
LINE
  8
0
 10
43.93
 20
125.07
 11
43.93
 21
120
  0
LINE
  8
0
 10
43.93
 20
120
 11
0
 21
120
  0
LINE
  8
0
 10
0
 20
120
 11
0
 21
87
  0
LINE
  8
0
 10
0
 20
87
 11
-5.06999
 21
87
  0
LINE
  8
0
 10
-5.06999
 20
87
 11
-5.06999
 21
81
  0
LINE
  8
0
 10
-5.06999
 20
81
 11
0
 21
81
  0
LINE
  8
0
 10
0
 20
81
 11
0
 21
75
  0
LINE
  8
0
 10
0
 20
75
 11
-5.06999
 21
75
  0
LINE
  8
0
 10
-5.06999
 20
75
 11
-5.06999
 21
69
  0
LINE
  8
0
 10
-5.06999
 20
69
 11
0
 21
69
  0
LINE
  8
0
 10
0
 20
69
 11
0
 21
63
  0
LINE
  8
0
 10
0
 20
63
 11
-5.06999
 21
63
  0
LINE
  8
0
 10
-5.06999
 20
63
 11
-5.06999
 21
57
  0
LINE
  8
0
 10
-5.06999
 20
57
 11
0
 21
57
  0
LINE
  8
0
 10
0
 20
57
 11
0
 21
51
  0
LINE
  8
0
 10
0
 20
51
 11
-5.06999
 21
51
  0
LINE
  8
0
 10
-5.06999
 20
51
 11
-5.06999
 21
45
  0
LINE
  8
0
 10
-5.06999
 20
45
 11
0
 21
45
  0
LINE
  8
0
 10
0
 20
45
 11
0
 21
39
  0
LINE
  8
0
 10
0
 20
39
 11
-5.06999
 21
39
  0
LINE
  8
0
 10
-5.06999
 20
39
 11
-5.06999
 21
33
  0
LINE
  8
0
 10
-5.06999
 20
33
 11
0
 21
33
  0
LINE
  8
0
 10
0
 20
33
 11
0
 21
0
  0
LINE
  8
0
 10
0
 20
0
 11
43.93
 21
0
  0
LINE
  8
0
 10
43.93
 20
0
 11
43.93
 21
-5.06999
  0
LINE
  8
0
 10
43.93
 20
-5.06999
 11
49.93
 21
-5.06999
  0
LINE
  8
0
 10
254.93
 20
87
 11
249.86
 21
87
  0
LINE
  8
0
 10
249.86
 20
87
 11
249.86
 21
81
  0
LINE
  8
0
 10
249.86
 20
81
 11
254.93
 21
81
  0
LINE
  8
0
 10
254.93
 20
81
 11
254.93
 21
87
  0
LINE
  8
0
 10
254.93
 20
75
 11
249.86
 21
75
  0
LINE
  8
0
 10
249.86
 20
75
 11
249.86
 21
69
  0
LINE
  8
0
 10
249.86
 20
69
 11
254.93
 21
69
  0
LINE
  8
0
 10
254.93
 20
69
 11
254.93
 21
75
  0
LINE
  8
0
 10
254.93
 20
63
 11
249.86
 21
63
  0
LINE
  8
0
 10
249.86
 20
63
 11
249.86
 21
57
  0
LINE
  8
0
 10
249.86
 20
57
 11
254.93
 21
57
  0
LINE
  8
0
 10
254.93
 20
57
 11
254.93
 21
63
  0
LINE
  8
0
 10
254.93
 20
51
 11
249.86
 21
51
  0
LINE
  8
0
 10
249.86
 20
51
 11
249.86
 21
45
  0
LINE
  8
0
 10
249.86
 20
45
 11
254.93
 21
45
  0
LINE
  8
0
 10
254.93
 20
45
 11
254.93
 21
51
  0
LINE
  8
0
 10
254.93
 20
39
 11
249.86
 21
39
  0
LINE
  8
0
 10
249.86
 20
39
 11
249.86
 21
33
  0
LINE
  8
0
 10
249.86
 20
33
 11
254.93
 21
33
  0
LINE
  8
0
 10
254.93
 20
33
 11
254.93
 21
39
  0
ENDSEC
  0
SECTION
  2
OBJECTS
  0
DICTIONARY
  0
ENDSEC
  0
EOF
