<?xml version="1.0" encoding="UTF-8" standalone="no"?>
<svg
   xmlns:dc="http://purl.org/dc/elements/1.1/"
   xmlns:cc="http://creativecommons.org/ns#"
   xmlns:rdf="http://www.w3.org/1999/02/22-rdf-syntax-ns#"
   xmlns:svg="http://www.w3.org/2000/svg"
   xmlns="http://www.w3.org/2000/svg"
   xmlns:sodipodi="http://sodipodi.sourceforge.net/DTD/sodipodi-0.dtd"
   xmlns:inkscape="http://www.inkscape.org/namespaces/inkscape"
   width="269mm"
   height="225mm"
   viewBox="-6 -219 269 225"
   version="1.1"
   id="svg6111"
   inkscape:version="0.91 r13725"
   sodipodi:docname="box-001.svg">
  <sodipodi:namedview
     pagecolor="#ffffff"
     bordercolor="#666666"
     borderopacity="1"
     objecttolerance="10"
     gridtolerance="10"
     guidetolerance="10"
     inkscape:pageopacity="0"
     inkscape:pageshadow="2"
     inkscape:window-width="1020"
     inkscape:window-height="729"
     id="namedview6117"
     showgrid="false"
     inkscape:zoom="0.59203951"
     inkscape:cx="244.15298"
     inkscape:cy="272.77305"
     inkscape:window-x="0"
     inkscape:window-y="18"
     inkscape:window-maximized="0"
     inkscape:current-layer="svg6111" />
  <metadata
     id="metadata6121">
    <rdf:RDF>
      <cc:Work
         rdf:about="">
        <dc:format>image/svg+xml</dc:format>
        <dc:type
           rdf:resource="http://purl.org/dc/dcmitype/StillImage" />
      </cc:Work>
    </rdf:RDF>
  </metadata>
  <defs
     id="defs6119" />
  <title
     id="title6113">OpenSCAD Model</title>
  <path
     id="path6115"
     transform="matrix(0.28222222,0,0,0.28222222,-6,-219)"
     d="M21.259766 1.3105469L21.259766 12.064453L39.224609 12.064453L39.224609 22.695312L21.259766 22.695312L21.259766 33.324219L39.224609 33.324219L39.224609 43.955078L21.259766 43.955078L21.259766 54.583984L39.224609 54.583984L39.224609 65.214844L21.259766 65.214844L21.259766 75.96875L203.98828 75.96875L203.98828 58.003906L214.61719 58.003906L214.61719 75.96875L225.24805 75.96875L225.24805 58.003906L235.87891 58.003906L235.87891 75.96875L246.50781 75.96875L246.50781 58.003906L257.13867 58.003906L257.13867 75.96875L267.76758 75.96875L267.76758 58.003906L278.39844 58.003906L278.39844 75.96875L289.02734 75.96875L289.02734 58.003906L299.6582 58.003906L299.6582 75.96875L482.38672 75.96875L482.38672 65.214844L464.42188 65.214844L464.42188 54.583984L482.38672 54.583984L482.38672 43.955078L464.42188 43.955078L464.42188 33.324219L482.38672 33.324219L482.38672 22.695312L464.42188 22.695312L464.42188 12.064453L482.38672 12.064453L482.38672 1.3105469L21.259766 1.3105469L21.259766 1.3105469M491.36719 1.3105469L491.36719 12.064453L509.33203 12.064453L509.33203 22.695312L491.36719 22.695312L491.36719 33.324219L509.33203 33.324219L509.33203 43.955078L491.36719 43.955078L491.36719 54.583984L509.33203 54.583984L509.33203 65.214844L491.36719 65.214844L491.36719 75.96875L674.0957 75.96875L674.0957 58.003906L684.72656 58.003906L684.72656 75.96875L695.35547 75.96875L695.35547 58.003906L705.98633 58.003906L705.98633 75.96875L716.61523 75.96875L716.61523 58.003906L727.24609 58.003906L727.24609 75.96875L737.87695 75.96875L737.87695 58.003906L748.50586 58.003906L748.50586 75.96875L759.13672 75.96875L759.13672 58.003906L769.76562 58.003906L769.76562 75.96875L952.49414 75.96875L952.49414 65.214844L934.5293 65.214844L934.5293 54.583984L952.49414 54.583984L952.49414 43.955078L934.5293 43.955078L934.5293 33.324219L952.49414 33.324219L952.49414 22.695312L934.5293 22.695312L934.5293 12.064453L952.49414 12.064453L952.49414 1.3105469L491.36719 1.3105469L491.36719 1.3105469M93.117188 9.921875L393.55469 9.921875L393.55469 19.275391L93.117188 19.275391L93.117188 9.921875L93.117188 9.921875M563.22656 9.921875L863.66406 9.921875L863.66406 19.275391L563.22656 19.275391L563.22656 9.921875L563.22656 9.921875M3.2949219 104.93555L3.2949219 115.56445L21.259766 115.56445L21.259766 104.93555L3.2949219 104.93555L3.2949219 104.93555M906.58984 104.93555L906.58984 115.56445L924.55469 115.56445L924.55469 104.93555L906.58984 104.93555L906.58984 104.93555M21.259766 115.73828L21.259766 126.19531L3.2949219 126.19531L3.2949219 136.82422L21.259766 136.82422L21.259766 147.45508L3.2949219 147.45508L3.2949219 158.08398L21.259766 158.08398L21.259766 168.83789L320.42188 168.83789L320.42188 150.87305L331.05078 150.87305L331.05078 168.83789L341.68164 168.83789L341.68164 150.87305L352.31055 150.87305L352.31055 168.83789L362.94141 168.83789L362.94141 150.87305L373.57031 150.87305L373.57031 168.83789L384.20117 168.83789L384.20117 150.87305L394.83008 150.87305L394.83008 168.83789L405.46094 168.83789L405.46094 150.87305L416.08984 150.87305L416.08984 168.83789L426.7207 168.83789L426.7207 150.87305L437.34961 150.87305L437.34961 168.83789L447.98047 168.83789L447.98047 150.87305L458.60938 150.87305L458.60938 168.83789L469.24023 168.83789L469.24023 150.87305L479.86914 150.87305L479.86914 168.83789L490.5 168.83789L490.5 150.87305L501.13086 150.87305L501.13086 168.83789L511.75977 168.83789L511.75977 150.87305L522.39062 150.87305L522.39062 168.83789L533.01953 168.83789L533.01953 150.87305L543.65039 150.87305L543.65039 168.83789L554.2793 168.83789L554.2793 150.87305L564.91016 150.87305L564.91016 168.83789L575.53906 168.83789L575.53906 150.87305L586.16992 150.87305L586.16992 168.83789L596.79883 168.83789L596.79883 150.87305L607.42969 150.87305L607.42969 168.83789L906.58984 168.83789L906.58984 158.08398L924.55469 158.08398L924.55469 147.45508L906.58984 147.45508L906.58984 136.82422L924.55469 136.82422L924.55469 126.19531L906.58984 126.19531L906.58984 115.73828L21.259766 115.73828L21.259766 115.73828M21.259766 222.48438L21.259766 233.23828L3.2949219 233.23828L3.2949219 243.86719L21.259766 243.86719L21.259766 254.49805L3.2949219 254.49805L3.2949219 265.12891L21.259766 265.12891L21.259766 275.75781L3.2949219 275.75781L3.2949219 286.38867L21.259766 286.38867L21.259766 297.14258L320.42188 297.14258L320.42188 279.17773L331.05078 279.17773L331.05078 297.14258L341.68164 297.14258L341.68164 279.17773L352.31055 279.17773L352.31055 297.14258L362.94141 297.14258L362.94141 279.17773L373.57031 279.17773L373.57031 297.14258L384.20117 297.14258L384.20117 279.17773L394.83008 279.17773L394.83008 297.14258L405.46094 297.14258L405.46094 279.17773L416.08984 279.17773L416.08984 297.14258L426.7207 297.14258L426.7207 279.17773L437.34961 279.17773L437.34961 297.14258L447.98047 297.14258L447.98047 279.17773L458.60938 279.17773L458.60938 297.14258L469.24023 297.14258L469.24023 279.17773L479.86914 279.17773L479.86914 297.14258L490.5 297.14258L490.5 279.17773L501.13086 279.17773L501.13086 297.14258L511.75977 297.14258L511.75977 279.17773L522.39062 279.17773L522.39062 297.14258L533.01953 297.14258L533.01953 279.17773L543.65039 279.17773L543.65039 297.14258L554.2793 297.14258L554.2793 279.17773L564.91016 279.17773L564.91016 297.14258L575.53906 297.14258L575.53906 279.17773L586.16992 279.17773L586.16992 297.14258L596.79883 297.14258L596.79883 279.17773L607.42969 279.17773L607.42969 297.14258L906.58984 297.14258L906.58984 286.38867L924.55469 286.38867L924.55469 275.75781L906.58984 275.75781L906.58984 265.12891L924.55469 265.12891L924.55469 254.49805L906.58984 254.49805L906.58984 243.86719L924.55469 243.86719L924.55469 233.23828L906.58984 233.23828L906.58984 222.48438L21.259766 222.48438L21.259766 222.48438M176.91797 332.82227L176.91797 350.78711L21.259766 350.78711L21.259766 467.7168L3.2949219 467.7168L3.2949219 488.97656L21.259766 488.97656L21.259766 510.23633L3.2949219 510.23633L3.2949219 531.49609L21.259766 531.49609L21.259766 552.75586L3.2949219 552.75586L3.2949219 574.01562L21.259766 574.01562L21.259766 595.27539L3.2949219 595.27539L3.2949219 616.53516L21.259766 616.53516L21.259766 637.79492L3.2949219 637.79492L3.2949219 659.05469L21.259766 659.05469L21.259766 775.98438L176.91797 775.98438L176.91797 793.94922L198.17773 793.94922L198.17773 775.98438L219.4375 775.98438L219.4375 793.94922L240.69727 793.94922L240.69727 775.98438L261.95703 775.98438L261.95703 793.94922L283.2168 793.94922L283.2168 775.98438L304.47656 775.98438L304.47656 793.94922L325.73633 793.94922L325.73633 775.98438L346.99609 775.98438L346.99609 793.94922L368.25586 793.94922L368.25586 775.98438L389.51562 775.98438L389.51562 793.94922L410.77539 793.94922L410.77539 775.98438L432.03516 775.98438L432.03516 793.94922L453.29492 793.94922L453.29492 775.98438L474.55469 775.98438L474.55469 793.94922L495.81445 793.94922L495.81445 775.98438L517.07422 775.98438L517.07422 793.94922L538.33398 793.94922L538.33398 775.98438L559.59375 775.98438L559.59375 793.94922L580.85352 793.94922L580.85352 775.98438L602.11328 775.98438L602.11328 793.94922L623.37305 793.94922L623.37305 775.98438L644.63477 775.98438L644.63477 793.94922L665.89453 793.94922L665.89453 775.98438L687.1543 775.98438L687.1543 793.94922L708.41406 793.94922L708.41406 775.98438L729.67383 775.98438L729.67383 793.94922L750.93359 793.94922L750.93359 775.98438L906.58984 775.98438L906.58984 659.05469L924.55469 659.05469L924.55469 637.79492L906.58984 637.79492L906.58984 616.53516L924.55469 616.53516L924.55469 595.27539L906.58984 595.27539L906.58984 574.01562L924.55469 574.01562L924.55469 552.75586L906.58984 552.75586L906.58984 531.49609L924.55469 531.49609L924.55469 510.23633L906.58984 510.23633L906.58984 488.97656L924.55469 488.97656L924.55469 467.7168L906.58984 467.7168L906.58984 350.78711L750.93359 350.78711L750.93359 332.82227L729.67383 332.82227L729.67383 350.78711L708.41406 350.78711L708.41406 332.82227L687.1543 332.82227L687.1543 350.78711L665.89453 350.78711L665.89453 332.82227L644.63477 332.82227L644.63477 350.78711L623.37305 350.78711L623.37305 332.82227L602.11328 332.82227L602.11328 350.78711L580.85352 350.78711L580.85352 332.82227L559.59375 332.82227L559.59375 350.78711L538.33398 350.78711L538.33398 332.82227L517.07422 332.82227L517.07422 350.78711L495.81445 350.78711L495.81445 332.82227L474.55469 332.82227L474.55469 350.78711L453.29492 350.78711L453.29492 332.82227L432.03516 332.82227L432.03516 350.78711L410.77539 350.78711L410.77539 332.82227L389.51562 332.82227L389.51562 350.78711L368.25586 350.78711L368.25586 332.82227L346.99609 332.82227L346.99609 350.78711L325.73633 350.78711L325.73633 332.82227L304.47656 332.82227L304.47656 350.78711L283.2168 350.78711L283.2168 332.82227L261.95703 332.82227L261.95703 350.78711L240.69727 350.78711L240.69727 332.82227L219.4375 332.82227L219.4375 350.78711L198.17773 350.78711L198.17773 332.82227L176.91797 332.82227L176.91797 332.82227"
     style="fill:none;stroke:#000000;stroke-width:1.77165353" />
</svg>
