<?xml version="1.0" standalone="no"?>
<!DOCTYPE svg PUBLIC "-//W3C//DTD SVG 1.1//EN" "http://www.w3.org/Graphics/SVG/1.1/DTD/svg11.dtd">
<svg width="272" height="252" viewBox="-6 -246 272 252" xmlns="http://www.w3.org/2000/svg" version="1.1">
<title>OpenSCAD Model</title>
<path d="
M 38.07,-220.49 L 44.07,-220.49 L 44.07,-215.42 L 50.07,-215.42 L 50.07,-220.49 L 56.07,-220.49
 L 56.07,-215.42 L 62.07,-215.42 L 62.07,-220.49 L 68.07,-220.49 L 68.07,-215.42 L 74.07,-215.42
 L 74.07,-220.49 L 80.07,-220.49 L 80.07,-215.42 L 86.07,-215.42 L 86.07,-220.49 L 92.07,-220.49
 L 92.07,-215.42 L 125.07,-215.42 L 125.07,-221.42 L 130.14,-221.42 L 130.14,-227.42 L 125.07,-227.42
 L 125.07,-233.42 L 130.14,-233.42 L 130.14,-239.42 L 125.07,-239.42 L 125.07,-245.42 L 5.06999,-245.42
 L 5.06999,-239.42 L 0,-239.42 L 0,-233.42 L 5.06999,-233.42 L 5.06999,-227.42 L 0,-227.42
 L 0,-221.42 L 5.06999,-221.42 L 5.06999,-215.42 L 38.07,-215.42 z
M 12.675,-237.815 L 12.675,-240.455 L 112.675,-240.455 L 112.675,-237.815 z
M 170.745,-220.49 L 176.745,-220.49 L 176.745,-215.42 L 182.745,-215.42 L 182.745,-220.49 L 188.745,-220.49
 L 188.745,-215.42 L 194.745,-215.42 L 194.745,-220.49 L 200.745,-220.49 L 200.745,-215.42 L 206.745,-215.42
 L 206.745,-220.49 L 212.745,-220.49 L 212.745,-215.42 L 218.745,-215.42 L 218.745,-220.49 L 224.745,-220.49
 L 224.745,-215.42 L 257.745,-215.42 L 257.745,-221.42 L 262.815,-221.42 L 262.815,-227.42 L 257.745,-227.42
 L 257.745,-233.42 L 262.815,-233.42 L 262.815,-239.42 L 257.745,-239.42 L 257.745,-245.42 L 137.745,-245.42
 L 137.745,-239.42 L 132.675,-239.42 L 132.675,-233.42 L 137.745,-233.42 L 137.745,-227.42 L 132.675,-227.42
 L 132.675,-221.42 L 137.745,-221.42 L 137.745,-215.42 L 170.745,-215.42 z
M 145.35,-237.815 L 145.35,-240.455 L 245.35,-240.455 L 245.35,-237.815 z
M 49,-185.35 L 55,-185.35 L 55,-180.28 L 61,-180.28 L 61,-185.35 L 67,-185.35
 L 67,-180.28 L 73,-180.28 L 73,-185.35 L 79,-185.35 L 79,-180.28 L 85,-180.28
 L 85,-185.35 L 91,-185.35 L 91,-180.28 L 97,-180.28 L 97,-185.35 L 103,-185.35
 L 103,-180.28 L 109,-180.28 L 109,-185.35 L 115,-185.35 L 115,-180.28 L 121,-180.28
 L 121,-185.35 L 127,-185.35 L 127,-180.28 L 133,-180.28 L 133,-185.35 L 139,-185.35
 L 139,-180.28 L 145,-180.28 L 145,-185.35 L 151,-185.35 L 151,-180.28 L 157,-180.28
 L 157,-185.35 L 163,-185.35 L 163,-180.28 L 169,-180.28 L 169,-185.35 L 175,-185.35
 L 175,-180.28 L 181,-180.28 L 181,-185.35 L 187,-185.35 L 187,-180.28 L 193,-180.28
 L 193,-185.35 L 199,-185.35 L 199,-180.28 L 205,-180.28 L 205,-185.35 L 211,-185.35
 L 211,-180.28 L 265.07,-180.28 L 265.07,-186.28 L 260,-186.28 L 260,-192.28 L 265.07,-192.28
 L 265.07,-198.28 L 260,-198.28 L 260,-204.28 L 265.07,-204.28 L 265.07,-210.28 L -5.06999,-210.28
 L -5.06999,-204.28 L 0,-204.28 L 0,-198.28 L -5.06999,-198.28 L -5.06999,-192.28 L 0,-192.28
 L 0,-186.28 L -5.06999,-186.28 L -5.06999,-180.28 L 49,-180.28 z
M 49,-140.21 L 55,-140.21 L 55,-135.14 L 61,-135.14 L 61,-140.21 L 67,-140.21
 L 67,-135.14 L 73,-135.14 L 73,-140.21 L 79,-140.21 L 79,-135.14 L 85,-135.14
 L 85,-140.21 L 91,-140.21 L 91,-135.14 L 97,-135.14 L 97,-140.21 L 103,-140.21
 L 103,-135.14 L 109,-135.14 L 109,-140.21 L 115,-140.21 L 115,-135.14 L 121,-135.14
 L 121,-140.21 L 127,-140.21 L 127,-135.14 L 133,-135.14 L 133,-140.21 L 139,-140.21
 L 139,-135.14 L 145,-135.14 L 145,-140.21 L 151,-140.21 L 151,-135.14 L 157,-135.14
 L 157,-140.21 L 163,-140.21 L 163,-135.14 L 169,-135.14 L 169,-140.21 L 175,-140.21
 L 175,-135.14 L 181,-135.14 L 181,-140.21 L 187,-140.21 L 187,-135.14 L 193,-135.14
 L 193,-140.21 L 199,-140.21 L 199,-135.14 L 205,-135.14 L 205,-140.21 L 211,-140.21
 L 211,-135.14 L 265.07,-135.14 L 265.07,-141.14 L 260,-141.14 L 260,-147.14 L 265.07,-147.14
 L 265.07,-153.14 L 260,-153.14 L 260,-159.14 L 265.07,-159.14 L 265.07,-165.14 L -5.06999,-165.14
 L -5.06999,-159.14 L 0,-159.14 L 0,-153.14 L -5.06999,-153.14 L -5.06999,-147.14 L 0,-147.14
 L 0,-141.14 L -5.06999,-141.14 L -5.06999,-135.14 L 49,-135.14 z
M 67,5.06999 L 67,-0 L 73,-0 L 73,5.06999 L 79,5.06999 L 79,-0
 L 85,-0 L 85,5.06999 L 91,5.06999 L 91,-0 L 97,-0 L 97,5.06999
 L 103,5.06999 L 103,-0 L 109,-0 L 109,5.06999 L 115,5.06999 L 115,-0
 L 121,-0 L 121,5.06999 L 127,5.06999 L 127,-0 L 133,-0 L 133,5.06999
 L 139,5.06999 L 139,-0 L 145,-0 L 145,5.06999 L 151,5.06999 L 151,-0
 L 157,-0 L 157,5.06999 L 163,5.06999 L 163,-0 L 169,-0 L 169,5.06999
 L 175,5.06999 L 175,-0 L 181,-0 L 181,5.06999 L 187,5.06999 L 187,-0
 L 193,-0 L 193,5.06999 L 199,5.06999 L 199,-0 L 205,-0 L 205,5.06999
 L 211,5.06999 L 211,-0 L 260,-0 L 260,-33 L 265.07,-33 L 265.07,-39
 L 260,-39 L 260,-45 L 265.07,-45 L 265.07,-51 L 260,-51 L 260,-57
 L 265.07,-57 L 265.07,-63 L 260,-63 L 260,-69 L 265.07,-69 L 265.07,-75
 L 260,-75 L 260,-81 L 265.07,-81 L 265.07,-87 L 260,-87 L 260,-120
 L 211,-120 L 211,-125.07 L 205,-125.07 L 205,-120 L 199,-120 L 199,-125.07
 L 193,-125.07 L 193,-120 L 187,-120 L 187,-125.07 L 181,-125.07 L 181,-120
 L 175,-120 L 175,-125.07 L 169,-125.07 L 169,-120 L 163,-120 L 163,-125.07
 L 157,-125.07 L 157,-120 L 151,-120 L 151,-125.07 L 145,-125.07 L 145,-120
 L 139,-120 L 139,-125.07 L 133,-125.07 L 133,-120 L 127,-120 L 127,-125.07
 L 121,-125.07 L 121,-120 L 115,-120 L 115,-125.07 L 109,-125.07 L 109,-120
 L 103,-120 L 103,-125.07 L 97,-125.07 L 97,-120 L 91,-120 L 91,-125.07
 L 85,-125.07 L 85,-120 L 79,-120 L 79,-125.07 L 73,-125.07 L 73,-120
 L 67,-120 L 67,-125.07 L 61,-125.07 L 61,-120 L 55,-120 L 55,-125.07
 L 49,-125.07 L 49,-120 L 0,-120 L 0,-87 L -5.06999,-87 L -5.06999,-81
 L 0,-81 L 0,-75 L -5.06999,-75 L -5.06999,-69 L 0,-69 L 0,-63
 L -5.06999,-63 L -5.06999,-57 L 0,-57 L 0,-51 L -5.06999,-51 L -5.06999,-45
 L 0,-45 L 0,-39 L -5.06999,-39 L -5.06999,-33 L 0,-33 L 0,-0
 L 61,-0 L 61,5.06999 z
M 55,-0 L 49,-0 L 49,5.06999 L 55,5.06999 z
" stroke="black" fill="lightgray" stroke-width="0.5"/></svg>
