<?xml version="1.0" encoding="UTF-8" standalone="no"?>
<svg
   xmlns:dc="http://purl.org/dc/elements/1.1/"
   xmlns:cc="http://creativecommons.org/ns#"
   xmlns:rdf="http://www.w3.org/1999/02/22-rdf-syntax-ns#"
   xmlns:svg="http://www.w3.org/2000/svg"
   xmlns="http://www.w3.org/2000/svg"
   xmlns:sodipodi="http://sodipodi.sourceforge.net/DTD/sodipodi-0.dtd"
   xmlns:inkscape="http://www.inkscape.org/namespaces/inkscape"
   width="269"
   height="252"
   viewBox="-6 -246 269 252"
   version="1.1"
   id="svg19608"
   inkscape:version="0.91 r13725"
   sodipodi:docname="box-001.svg">
  <sodipodi:namedview
     pagecolor="#ffffff"
     bordercolor="#666666"
     borderopacity="1"
     objecttolerance="10"
     gridtolerance="10"
     guidetolerance="10"
     inkscape:pageopacity="0"
     inkscape:pageshadow="2"
     inkscape:window-width="1024"
     inkscape:window-height="768"
     id="namedview19614"
     showgrid="false"
     inkscape:zoom="10.478287"
     inkscape:cx="63.533898"
     inkscape:cy="10.83767"
     inkscape:window-x="0"
     inkscape:window-y="0"
     inkscape:window-maximized="0"
     inkscape:current-layer="svg19608" />
  <metadata
     id="metadata19618">
    <rdf:RDF>
      <cc:Work
         rdf:about="">
        <dc:format>image/svg+xml</dc:format>
        <dc:type
           rdf:resource="http://purl.org/dc/dcmitype/StillImage" />
      </cc:Work>
    </rdf:RDF>
  </metadata>
  <defs
     id="defs19616" />
  <title
     id="title19610">OpenSCAD Model</title>
  <path
     style="fill:none;stroke:#000000;stroke-opacity:1"
     id="path19612"
     transform="translate(-6,-246)"
     d="M11.070312 0.58007812L11.070312 6.5800781L6.0 6.5800781L6.0 12.580078L11.070312 12.580078L11.070312 18.580078L6.0 18.580078L6.0 24.580078L11.070312 24.580078L11.070312 30.580078L44.070312 30.580078L44.070312 25.509766L50.070312 25.509766L50.070312 30.580078L56.070312 30.580078L56.070312 25.509766L62.070312 25.509766L62.070312 30.580078L68.070312 30.580078L68.070312 25.509766L74.070312 25.509766L74.070312 30.580078L80.070312 30.580078L80.070312 25.509766L86.070312 25.509766L86.070312 30.580078L92.070312 30.580078L92.070312 25.509766L98.070312 25.509766L98.070312 30.580078L131.07031 30.580078L131.07031 24.580078L136.14062 24.580078L136.14062 18.580078L131.07031 18.580078L131.07031 12.580078L136.14062 12.580078L136.14062 6.5800781L131.07031 6.5800781L131.07031 0.58007812L11.070312 0.58007812L11.070312 0.58007812M143.74414 0.58007812L143.74414 6.5800781L138.67578 6.5800781L138.67578 12.580078L143.74414 12.580078L143.74414 18.580078L138.67578 18.580078L138.67578 24.580078L143.74414 24.580078L143.74414 30.580078L176.74414 30.580078L176.74414 25.509766L182.74414 25.509766L182.74414 30.580078L188.74414 30.580078L188.74414 25.509766L194.74414 25.509766L194.74414 30.580078L200.74414 30.580078L200.74414 25.509766L206.74414 25.509766L206.74414 30.580078L212.74414 30.580078L212.74414 25.509766L218.74414 25.509766L218.74414 30.580078L224.74414 30.580078L224.74414 25.509766L230.74414 25.509766L230.74414 30.580078L263.74414 30.580078L263.74414 24.580078L268.81445 24.580078L268.81445 18.580078L263.74414 18.580078L263.74414 12.580078L268.81445 12.580078L268.81445 6.5800781L263.74414 6.5800781L263.74414 0.58007812L143.74414 0.58007812L143.74414 0.58007812M26.279297 3.0097656L111.07031 3.0097656L111.07031 5.6503906L26.279297 5.6503906L26.279297 3.0097656L26.279297 3.0097656M158.95508 3.0097656L243.74414 3.0097656L243.74414 5.6503906L158.95508 5.6503906L158.95508 3.0097656L158.95508 3.0097656M0.9296875 35.720703L0.9296875 41.720703L6.0 41.720703L6.0 35.720703L0.9296875 35.720703L0.9296875 35.720703M255.85938 35.720703L255.85938 41.720703L260.92969 41.720703L260.92969 35.720703L255.85938 35.720703L255.85938 35.720703M6.0 41.804688L6.0 47.720703L0.9296875 47.720703L0.9296875 53.720703L6.0 53.720703L6.0 59.720703L0.9296875 59.720703L0.9296875 65.720703L49.929688 65.720703L49.929688 60.650391L55.929688 60.650391L55.929688 65.720703L61.929688 65.720703L61.929688 60.650391L67.929688 60.650391L67.929688 65.720703L73.929688 65.720703L73.929688 60.650391L79.929688 60.650391L79.929688 65.720703L85.929688 65.720703L85.929688 60.650391L91.929688 60.650391L91.929688 65.720703L97.929688 65.720703L97.929688 60.650391L103.92969 60.650391L103.92969 65.720703L109.92969 65.720703L109.92969 60.650391L115.92969 60.650391L115.92969 65.720703L121.92969 65.720703L121.92969 60.650391L127.92969 60.650391L127.92969 65.720703L133.92969 65.720703L133.92969 60.650391L139.92969 60.650391L139.92969 65.720703L145.92969 65.720703L145.92969 60.650391L151.92969 60.650391L151.92969 65.720703L157.92969 65.720703L157.92969 60.650391L163.92969 60.650391L163.92969 65.720703L169.92969 65.720703L169.92969 60.650391L175.92969 60.650391L175.92969 65.720703L181.92969 65.720703L181.92969 60.650391L187.92969 60.650391L187.92969 65.720703L193.92969 65.720703L193.92969 60.650391L199.92969 60.650391L199.92969 65.720703L205.92969 65.720703L205.92969 60.650391L211.92969 60.650391L211.92969 65.720703L255.85938 65.720703L260.92969 65.720703L260.92969 59.720703L255.85938 59.720703L255.85938 53.720703L260.92969 53.720703L260.92969 47.720703L255.85938 47.720703L255.85938 41.804688L6.0 41.804688L6.0 41.804688M0.9296875 80.859375L0.9296875 86.859375L6.0 86.859375L6.0 92.859375L0.9296875 92.859375L0.9296875 98.859375L6.0 98.859375L6.0 104.85938L0.9296875 104.85938L0.9296875 110.85938L49.929688 110.85938L49.929688 105.78906L55.929688 105.78906L55.929688 110.85938L61.929688 110.85938L61.929688 105.78906L67.929688 105.78906L67.929688 110.85938L73.929688 110.85938L73.929688 105.78906L79.929688 105.78906L79.929688 110.85938L85.929688 110.85938L85.929688 105.78906L91.929688 105.78906L91.929688 110.85938L97.929688 110.85938L97.929688 105.78906L103.92969 105.78906L103.92969 110.85938L109.92969 110.85938L109.92969 105.78906L115.92969 105.78906L115.92969 110.85938L121.92969 110.85938L121.92969 105.78906L127.92969 105.78906L127.92969 110.85938L133.92969 110.85938L133.92969 105.78906L139.92969 105.78906L139.92969 110.85938L145.92969 110.85938L145.92969 105.78906L151.92969 105.78906L151.92969 110.85938L157.92969 110.85938L157.92969 105.78906L163.92969 105.78906L163.92969 110.85938L169.92969 110.85938L169.92969 105.78906L175.92969 105.78906L175.92969 110.85938L181.92969 110.85938L181.92969 105.78906L187.92969 105.78906L187.92969 110.85938L193.92969 110.85938L193.92969 105.78906L199.92969 105.78906L199.92969 110.85938L205.92969 110.85938L205.92969 105.78906L211.92969 105.78906L211.92969 110.85938L255.85938 110.85938L260.92969 110.85938L260.92969 104.85938L255.85938 104.85938L255.85938 98.859375L260.92969 98.859375L260.92969 92.859375L255.85938 92.859375L255.85938 86.859375L260.92969 86.859375L260.92969 80.859375L255.85938 80.859375L0.9296875 80.859375L0.9296875 80.859375M49.929688 120.92969L49.929688 126.0L6.0 126.0L6.0 159.0L0.9296875 159.0L0.9296875 165.0L6.0 165.0L6.0 171.0L0.9296875 171.0L0.9296875 177.0L6.0 177.0L6.0 183.0L0.9296875 183.0L0.9296875 189.0L6.0 189.0L6.0 195.0L0.9296875 195.0L0.9296875 201.0L6.0 201.0L6.0 207.0L0.9296875 207.0L0.9296875 213.0L6.0 213.0L6.0 246.0L49.929688 246.0L49.929688 251.07031L55.929688 251.07031L55.929688 246.0L61.929688 246.0L61.929688 251.07031L67.929688 251.07031L67.929688 246.0L73.929688 246.0L73.929688 251.07031L79.929688 251.07031L79.929688 246.0L85.929688 246.0L85.929688 251.07031L91.929688 251.07031L91.929688 246.0L97.929688 246.0L97.929688 251.07031L103.92969 251.07031L103.92969 246.0L109.92969 246.0L109.92969 251.07031L115.92969 251.07031L115.92969 246.0L121.92969 246.0L121.92969 251.07031L127.92969 251.07031L127.92969 246.0L133.92969 246.0L133.92969 251.07031L139.92969 251.07031L139.92969 246.0L145.92969 246.0L145.92969 251.07031L151.92969 251.07031L151.92969 246.0L157.92969 246.0L157.92969 251.07031L163.92969 251.07031L163.92969 246.0L169.92969 246.0L169.92969 251.07031L175.92969 251.07031L175.92969 246.0L181.92969 246.0L181.92969 251.07031L187.92969 251.07031L187.92969 246.0L193.92969 246.0L193.92969 251.07031L199.92969 251.07031L199.92969 246.0L205.92969 246.0L205.92969 251.07031L211.92969 251.07031L211.92969 246.0L255.85938 246.0L255.85938 213.0L260.92969 213.0L260.92969 207.0L255.85938 207.0L255.85938 201.0L260.92969 201.0L260.92969 195.0L255.85938 195.0L255.85938 189.0L260.92969 189.0L260.92969 183.0L255.85938 183.0L255.85938 177.0L260.92969 177.0L260.92969 171.0L255.85938 171.0L255.85938 165.0L260.92969 165.0L260.92969 159.0L255.85938 159.0L255.85938 126.0L211.92969 126.0L211.92969 120.92969L205.92969 120.92969L205.92969 126.0L199.92969 126.0L199.92969 120.92969L193.92969 120.92969L193.92969 126.0L187.92969 126.0L187.92969 120.92969L181.92969 120.92969L181.92969 126.0L175.92969 126.0L175.92969 120.92969L169.92969 120.92969L169.92969 126.0L163.92969 126.0L163.92969 120.92969L157.92969 120.92969L157.92969 126.0L151.92969 126.0L151.92969 120.92969L145.92969 120.92969L145.92969 126.0L139.92969 126.0L139.92969 120.92969L133.92969 120.92969L133.92969 126.0L127.92969 126.0L127.92969 120.92969L121.92969 120.92969L121.92969 126.0L115.92969 126.0L115.92969 120.92969L109.92969 120.92969L109.92969 126.0L103.92969 126.0L103.92969 120.92969L97.929688 120.92969L97.929688 126.0L91.929688 126.0L91.929688 120.92969L85.929688 120.92969L85.929688 126.0L79.929688 126.0L79.929688 120.92969L73.929688 120.92969L73.929688 126.0L67.929688 126.0L67.929688 120.92969L61.929688 120.92969L61.929688 126.0L55.929688 126.0L55.929688 120.92969L49.929688 120.92969L49.929688 120.92969" />
</svg>
