  0
SECTION
  2
HEADER
  9
$ACADVER
  1
AC1014
  9
$HANDSEED
  5
FFFF
  9
$MEASUREMENT
 70
     1
  0
ENDSEC
  0
SECTION
  2
TABLES
  0
TABLE
  2
VPORT
  5
8
330
0
100
AcDbSymbolTable
 70
     4
  0
VPORT
  5
2E
330
8
100
AcDbSymbolTableRecord
100
AcDbViewportTableRecord
  2
*ACTIVE
 70
     0
 10
0.0
 20
0.0
 11
1.0
 21
1.0
 12
210.0
 22
148.5
 13
0.0
 23
0.0
 14
10.0
 24
10.0
 15
10.0
 25
10.0
 16
0.0
 26
0.0
 36
1.0
 17
0.0
 27
0.0
 37
0.0
 40
341.0
 41
1.24
 42
50.0
 43
0.0
 44
0.0
 50
0.0
 51
0.0
 71
     0
 72
   100
 73
     1
 74
     3
 75
     0
 76
     0
 77
     0
 78
     0
  0
ENDTAB
  0
TABLE
  2
LTYPE
  5
5
330
0
100
AcDbSymbolTable
 70
     1
  0
LTYPE
  5
14
330
5
100
AcDbSymbolTableRecord
100
AcDbLinetypeTableRecord
  2
BYBLOCK
 70
     0
  3

 72
    65
 73
     0
 40
0.0
  0
LTYPE
  5
15
330
5
100
AcDbSymbolTableRecord
100
AcDbLinetypeTableRecord
  2
BYLAYER
 70
     0
  3

 72
    65
 73
     0
 40
0.0
  0
LTYPE
  5
16
330
5
100
AcDbSymbolTableRecord
100
AcDbLinetypeTableRecord
  2
CONTINUOUS
 70
     0
  3
Solid line
 72
    65
 73
     0
 40
0.0
  0
ENDTAB
  0
TABLE
  2
LAYER
  5
2
100
AcDbSymbolTable
 70
1
  0
LAYER
  5
50
100
AcDbSymbolTableRecord
100
AcDbLayerTableRecord
  2
0
 70
0
  6
CONTINUOUS
  0
ENDTAB
  0
TABLE
  2
STYLE
  5
3
330
0
100
AcDbSymbolTable
 70
     1
  0
STYLE
  5
11
330
3
100
AcDbSymbolTableRecord
100
AcDbTextStyleTableRecord
  2
STANDARD
 70
     0
 40
0.0
 41
1.0
 50
0.0
 71
     0
 42
2.5
  3
txt
  4

  0
ENDTAB
  0
TABLE
  2
VIEW
  5
6
330
0
100
AcDbSymbolTable
 70
     0
  0
ENDTAB
  0
TABLE
  2
UCS
  5
7
330
0
100
AcDbSymbolTable
 70
     0
  0
ENDTAB
  0
TABLE
  2
APPID
  5
9
330
0
100
AcDbSymbolTable
 70
     2
  0
APPID
  5
12
330
9
100
AcDbSymbolTableRecord
100
AcDbRegAppTableRecord
  2
ACAD
 70
     0
  0
ENDTAB
  0
TABLE
  2
DIMSTYLE
  5
A
330
0
100
AcDbSymbolTable
 70
     1
  0
DIMSTYLE
105
27
330
A
100
AcDbSymbolTableRecord
100
AcDbDimStyleTableRecord
  2
ISO-25
 70
     0
  3

  4

  5

  6

  7

 40
1.0
 41
2.5
 42
0.625
 43
3.75
 44
1.25
 45
0.0
 46
0.0
 47
0.0
 48
0.0
140
2.5
141
2.5
142
0.0
143
0.03937007874016
144
1.0
145
0.0
146
1.0
147
0.625
 71
     0
 72
     0
 73
     0
 74
     0
 75
     0
 76
     0
 77
     1
 78
     8
170
     0
171
     3
172
     1
173
     0
174
     0
175
     0
176
     0
177
     0
178
     0
270
     2
271
     2
272
     2
273
     2
274
     3
340
11
275
     0
280
     0
281
     0
282
     0
283
     0
284
     8
285
     0
286
     0
287
     3
288
     0
  0
ENDTAB
  0
TABLE
  2
BLOCK_RECORD
  5
1
330
0
100
AcDbSymbolTable
 70
     1
  0
BLOCK_RECORD
  5
1F
330
1
100
AcDbSymbolTableRecord
100
AcDbBlockTableRecord
  2
*MODEL_SPACE
  0
BLOCK_RECORD
  5
1B
330
1
100
AcDbSymbolTableRecord
100
AcDbBlockTableRecord
  2
*PAPER_SPACE
  0
ENDTAB
  0
ENDSEC
  0
SECTION
  2
BLOCKS
  0
BLOCK
  5
20
330
1F
100
AcDbEntity
  8
0
100
AcDbBlockBegin
  2
*MODEL_SPACE
 70
     0
 10
0.0
 20
0.0
 30
0.0
  3
*MODEL_SPACE
  1

  0
ENDBLK
  5
21
330
1F
100
AcDbEntity
  8
0
100
AcDbBlockEnd
  0
BLOCK
  5
1C
330
1B
100
AcDbEntity
 67
     1
  8
0
100
AcDbBlockBegin
  2
*PAPER_SPACE
  1

  0
ENDBLK
  5
1D
330
1B
100
AcDbEntity
 67
     1
  8
0
100
AcDbBlockEnd
  0
ENDSEC
  0
SECTION
  2
ENTITIES
  0
LWPOLYLINE
  5
100
100
AcDbEntity
  8
0
 62
7
100
AcDbPolyline
 90
41
 70
0
 10
38.070000
 20
220.490000
 30
0.0
 10
44.070000
 20
220.490000
 30
0.0
 10
44.070000
 20
215.420000
 30
0.0
 10
50.070000
 20
215.420000
 30
0.0
 10
50.070000
 20
220.490000
 30
0.0
 10
56.070000
 20
220.490000
 30
0.0
 10
56.070000
 20
215.420000
 30
0.0
 10
62.070000
 20
215.420000
 30
0.0
 10
62.070000
 20
220.490000
 30
0.0
 10
68.070000
 20
220.490000
 30
0.0
 10
68.070000
 20
215.420000
 30
0.0
 10
74.070000
 20
215.420000
 30
0.0
 10
74.070000
 20
220.490000
 30
0.0
 10
80.070000
 20
220.490000
 30
0.0
 10
80.070000
 20
215.420000
 30
0.0
 10
86.070000
 20
215.420000
 30
0.0
 10
86.070000
 20
220.490000
 30
0.0
 10
92.070000
 20
220.490000
 30
0.0
 10
92.070000
 20
215.420000
 30
0.0
 10
130.140000
 20
215.420000
 30
0.0
 10
130.140000
 20
221.420000
 30
0.0
 10
125.070000
 20
221.420000
 30
0.0
 10
125.070000
 20
227.420000
 30
0.0
 10
130.140000
 20
227.420000
 30
0.0
 10
130.140000
 20
233.420000
 30
0.0
 10
125.070000
 20
233.420000
 30
0.0
 10
125.070000
 20
239.420000
 30
0.0
 10
130.140000
 20
239.420000
 30
0.0
 10
130.140000
 20
245.420000
 30
0.0
 10
0.000000
 20
245.420000
 30
0.0
 10
0.000000
 20
237.620000
 30
0.0
 10
5.069990
 20
237.620000
 30
0.0
 10
5.069990
 20
231.620000
 30
0.0
 10
0.000000
 20
231.620000
 30
0.0
 10
0.000000
 20
225.620000
 30
0.0
 10
5.069990
 20
225.620000
 30
0.0
 10
5.069990
 20
219.620000
 30
0.0
 10
0.000000
 20
219.620000
 30
0.0
 10
0.000000
 20
215.420000
 30
0.0
 10
38.070000
 20
215.420000
 30
0.0
 10
38.070000
 20
220.490000
 30
0.0
  0
LWPOLYLINE
  5
101
100
AcDbEntity
  8
0
 62
7
100
AcDbPolyline
 90
5
 70
0
 10
5.069990
 20
240.350000
 30
0.0
 10
5.069990
 20
242.990000
 30
0.0
 10
105.070000
 20
242.990000
 30
0.0
 10
105.070000
 20
240.350000
 30
0.0
 10
5.069990
 20
240.350000
 30
0.0
  0
LWPOLYLINE
  5
102
100
AcDbEntity
  8
0
 62
7
100
AcDbPolyline
 90
41
 70
0
 10
170.745000
 20
220.490000
 30
0.0
 10
176.745000
 20
220.490000
 30
0.0
 10
176.745000
 20
215.420000
 30
0.0
 10
182.745000
 20
215.420000
 30
0.0
 10
182.745000
 20
220.490000
 30
0.0
 10
188.745000
 20
220.490000
 30
0.0
 10
188.745000
 20
215.420000
 30
0.0
 10
194.745000
 20
215.420000
 30
0.0
 10
194.745000
 20
220.490000
 30
0.0
 10
200.745000
 20
220.490000
 30
0.0
 10
200.745000
 20
215.420000
 30
0.0
 10
206.745000
 20
215.420000
 30
0.0
 10
206.745000
 20
220.490000
 30
0.0
 10
212.745000
 20
220.490000
 30
0.0
 10
212.745000
 20
215.420000
 30
0.0
 10
218.745000
 20
215.420000
 30
0.0
 10
218.745000
 20
220.490000
 30
0.0
 10
224.745000
 20
220.490000
 30
0.0
 10
224.745000
 20
215.420000
 30
0.0
 10
262.815000
 20
215.420000
 30
0.0
 10
262.815000
 20
221.420000
 30
0.0
 10
257.745000
 20
221.420000
 30
0.0
 10
257.745000
 20
227.420000
 30
0.0
 10
262.815000
 20
227.420000
 30
0.0
 10
262.815000
 20
233.420000
 30
0.0
 10
257.745000
 20
233.420000
 30
0.0
 10
257.745000
 20
239.420000
 30
0.0
 10
262.815000
 20
239.420000
 30
0.0
 10
262.815000
 20
245.420000
 30
0.0
 10
132.675000
 20
245.420000
 30
0.0
 10
132.675000
 20
237.620000
 30
0.0
 10
137.745000
 20
237.620000
 30
0.0
 10
137.745000
 20
231.620000
 30
0.0
 10
132.675000
 20
231.620000
 30
0.0
 10
132.675000
 20
225.620000
 30
0.0
 10
137.745000
 20
225.620000
 30
0.0
 10
137.745000
 20
219.620000
 30
0.0
 10
132.675000
 20
219.620000
 30
0.0
 10
132.675000
 20
215.420000
 30
0.0
 10
170.745000
 20
215.420000
 30
0.0
 10
170.745000
 20
220.490000
 30
0.0
  0
LWPOLYLINE
  5
103
100
AcDbEntity
  8
0
 62
7
100
AcDbPolyline
 90
5
 70
0
 10
137.745000
 20
240.350000
 30
0.0
 10
137.745000
 20
242.990000
 30
0.0
 10
237.745000
 20
242.990000
 30
0.0
 10
237.745000
 20
240.350000
 30
0.0
 10
137.745000
 20
240.350000
 30
0.0
  0
LWPOLYLINE
  5
104
100
AcDbEntity
  8
0
 62
7
100
AcDbPolyline
 90
77
 70
0
 10
49.000000
 20
185.350000
 30
0.0
 10
55.000000
 20
185.350000
 30
0.0
 10
55.000000
 20
180.280000
 30
0.0
 10
61.000000
 20
180.280000
 30
0.0
 10
61.000000
 20
185.350000
 30
0.0
 10
67.000000
 20
185.350000
 30
0.0
 10
67.000000
 20
180.280000
 30
0.0
 10
73.000000
 20
180.280000
 30
0.0
 10
73.000000
 20
185.350000
 30
0.0
 10
79.000000
 20
185.350000
 30
0.0
 10
79.000000
 20
180.280000
 30
0.0
 10
85.000000
 20
180.280000
 30
0.0
 10
85.000000
 20
185.350000
 30
0.0
 10
91.000000
 20
185.350000
 30
0.0
 10
91.000000
 20
180.280000
 30
0.0
 10
97.000000
 20
180.280000
 30
0.0
 10
97.000000
 20
185.350000
 30
0.0
 10
103.000000
 20
185.350000
 30
0.0
 10
103.000000
 20
180.280000
 30
0.0
 10
109.000000
 20
180.280000
 30
0.0
 10
109.000000
 20
185.350000
 30
0.0
 10
115.000000
 20
185.350000
 30
0.0
 10
115.000000
 20
180.280000
 30
0.0
 10
121.000000
 20
180.280000
 30
0.0
 10
121.000000
 20
185.350000
 30
0.0
 10
127.000000
 20
185.350000
 30
0.0
 10
127.000000
 20
180.280000
 30
0.0
 10
133.000000
 20
180.280000
 30
0.0
 10
133.000000
 20
185.350000
 30
0.0
 10
139.000000
 20
185.350000
 30
0.0
 10
139.000000
 20
180.280000
 30
0.0
 10
145.000000
 20
180.280000
 30
0.0
 10
145.000000
 20
185.350000
 30
0.0
 10
151.000000
 20
185.350000
 30
0.0
 10
151.000000
 20
180.280000
 30
0.0
 10
157.000000
 20
180.280000
 30
0.0
 10
157.000000
 20
185.350000
 30
0.0
 10
163.000000
 20
185.350000
 30
0.0
 10
163.000000
 20
180.280000
 30
0.0
 10
169.000000
 20
180.280000
 30
0.0
 10
169.000000
 20
185.350000
 30
0.0
 10
175.000000
 20
185.350000
 30
0.0
 10
175.000000
 20
180.280000
 30
0.0
 10
181.000000
 20
180.280000
 30
0.0
 10
181.000000
 20
185.350000
 30
0.0
 10
187.000000
 20
185.350000
 30
0.0
 10
187.000000
 20
180.280000
 30
0.0
 10
193.000000
 20
180.280000
 30
0.0
 10
193.000000
 20
185.350000
 30
0.0
 10
199.000000
 20
185.350000
 30
0.0
 10
199.000000
 20
180.280000
 30
0.0
 10
205.000000
 20
180.280000
 30
0.0
 10
205.000000
 20
185.350000
 30
0.0
 10
211.000000
 20
185.350000
 30
0.0
 10
211.000000
 20
180.280000
 30
0.0
 10
260.000000
 20
180.280000
 30
0.0
 10
260.000000
 20
188.080000
 30
0.0
 10
265.070000
 20
188.080000
 30
0.0
 10
265.070000
 20
194.080000
 30
0.0
 10
260.000000
 20
194.080000
 30
0.0
 10
260.000000
 20
200.080000
 30
0.0
 10
265.070000
 20
200.080000
 30
0.0
 10
265.070000
 20
206.080000
 30
0.0
 10
260.000000
 20
206.080000
 30
0.0
 10
260.000000
 20
210.280000
 30
0.0
 10
0.000000
 20
210.280000
 30
0.0
 10
0.000000
 20
202.480000
 30
0.0
 10
-5.069990
 20
202.480000
 30
0.0
 10
-5.069990
 20
196.480000
 30
0.0
 10
0.000000
 20
196.480000
 30
0.0
 10
0.000000
 20
190.480000
 30
0.0
 10
-5.069990
 20
190.480000
 30
0.0
 10
-5.069990
 20
184.480000
 30
0.0
 10
0.000000
 20
184.480000
 30
0.0
 10
0.000000
 20
180.280000
 30
0.0
 10
49.000000
 20
180.280000
 30
0.0
 10
49.000000
 20
185.350000
 30
0.0
  0
LWPOLYLINE
  5
105
100
AcDbEntity
  8
0
 62
7
100
AcDbPolyline
 90
77
 70
0
 10
49.000000
 20
140.210000
 30
0.0
 10
55.000000
 20
140.210000
 30
0.0
 10
55.000000
 20
135.140000
 30
0.0
 10
61.000000
 20
135.140000
 30
0.0
 10
61.000000
 20
140.210000
 30
0.0
 10
67.000000
 20
140.210000
 30
0.0
 10
67.000000
 20
135.140000
 30
0.0
 10
73.000000
 20
135.140000
 30
0.0
 10
73.000000
 20
140.210000
 30
0.0
 10
79.000000
 20
140.210000
 30
0.0
 10
79.000000
 20
135.140000
 30
0.0
 10
85.000000
 20
135.140000
 30
0.0
 10
85.000000
 20
140.210000
 30
0.0
 10
91.000000
 20
140.210000
 30
0.0
 10
91.000000
 20
135.140000
 30
0.0
 10
97.000000
 20
135.140000
 30
0.0
 10
97.000000
 20
140.210000
 30
0.0
 10
103.000000
 20
140.210000
 30
0.0
 10
103.000000
 20
135.140000
 30
0.0
 10
109.000000
 20
135.140000
 30
0.0
 10
109.000000
 20
140.210000
 30
0.0
 10
115.000000
 20
140.210000
 30
0.0
 10
115.000000
 20
135.140000
 30
0.0
 10
121.000000
 20
135.140000
 30
0.0
 10
121.000000
 20
140.210000
 30
0.0
 10
127.000000
 20
140.210000
 30
0.0
 10
127.000000
 20
135.140000
 30
0.0
 10
133.000000
 20
135.140000
 30
0.0
 10
133.000000
 20
140.210000
 30
0.0
 10
139.000000
 20
140.210000
 30
0.0
 10
139.000000
 20
135.140000
 30
0.0
 10
145.000000
 20
135.140000
 30
0.0
 10
145.000000
 20
140.210000
 30
0.0
 10
151.000000
 20
140.210000
 30
0.0
 10
151.000000
 20
135.140000
 30
0.0
 10
157.000000
 20
135.140000
 30
0.0
 10
157.000000
 20
140.210000
 30
0.0
 10
163.000000
 20
140.210000
 30
0.0
 10
163.000000
 20
135.140000
 30
0.0
 10
169.000000
 20
135.140000
 30
0.0
 10
169.000000
 20
140.210000
 30
0.0
 10
175.000000
 20
140.210000
 30
0.0
 10
175.000000
 20
135.140000
 30
0.0
 10
181.000000
 20
135.140000
 30
0.0
 10
181.000000
 20
140.210000
 30
0.0
 10
187.000000
 20
140.210000
 30
0.0
 10
187.000000
 20
135.140000
 30
0.0
 10
193.000000
 20
135.140000
 30
0.0
 10
193.000000
 20
140.210000
 30
0.0
 10
199.000000
 20
140.210000
 30
0.0
 10
199.000000
 20
135.140000
 30
0.0
 10
205.000000
 20
135.140000
 30
0.0
 10
205.000000
 20
140.210000
 30
0.0
 10
211.000000
 20
140.210000
 30
0.0
 10
211.000000
 20
135.140000
 30
0.0
 10
260.000000
 20
135.140000
 30
0.0
 10
260.000000
 20
142.940000
 30
0.0
 10
265.070000
 20
142.940000
 30
0.0
 10
265.070000
 20
148.940000
 30
0.0
 10
260.000000
 20
148.940000
 30
0.0
 10
260.000000
 20
154.940000
 30
0.0
 10
265.070000
 20
154.940000
 30
0.0
 10
265.070000
 20
160.940000
 30
0.0
 10
260.000000
 20
160.940000
 30
0.0
 10
260.000000
 20
165.140000
 30
0.0
 10
0.000000
 20
165.140000
 30
0.0
 10
0.000000
 20
157.340000
 30
0.0
 10
-5.069990
 20
157.340000
 30
0.0
 10
-5.069990
 20
151.340000
 30
0.0
 10
0.000000
 20
151.340000
 30
0.0
 10
0.000000
 20
145.340000
 30
0.0
 10
-5.069990
 20
145.340000
 30
0.0
 10
-5.069990
 20
139.340000
 30
0.0
 10
0.000000
 20
139.340000
 30
0.0
 10
0.000000
 20
135.140000
 30
0.0
 10
49.000000
 20
135.140000
 30
0.0
 10
49.000000
 20
140.210000
 30
0.0
  0
LWPOLYLINE
  5
106
100
AcDbEntity
  8
0
 62
7
100
AcDbPolyline
 90
150
 70
0
 10
67.000000
 20
-5.069990
 30
0.0
 10
67.000000
 20
-0.000000
 30
0.0
 10
73.000000
 20
-0.000000
 30
0.0
 10
73.000000
 20
-5.069990
 30
0.0
 10
79.000000
 20
-5.069990
 30
0.0
 10
79.000000
 20
-0.000000
 30
0.0
 10
85.000000
 20
-0.000000
 30
0.0
 10
85.000000
 20
-5.069990
 30
0.0
 10
91.000000
 20
-5.069990
 30
0.0
 10
91.000000
 20
-0.000000
 30
0.0
 10
97.000000
 20
-0.000000
 30
0.0
 10
97.000000
 20
-5.069990
 30
0.0
 10
103.000000
 20
-5.069990
 30
0.0
 10
103.000000
 20
-0.000000
 30
0.0
 10
109.000000
 20
-0.000000
 30
0.0
 10
109.000000
 20
-5.069990
 30
0.0
 10
115.000000
 20
-5.069990
 30
0.0
 10
115.000000
 20
-0.000000
 30
0.0
 10
121.000000
 20
-0.000000
 30
0.0
 10
121.000000
 20
-5.069990
 30
0.0
 10
127.000000
 20
-5.069990
 30
0.0
 10
127.000000
 20
-0.000000
 30
0.0
 10
133.000000
 20
-0.000000
 30
0.0
 10
133.000000
 20
-5.069990
 30
0.0
 10
139.000000
 20
-5.069990
 30
0.0
 10
139.000000
 20
-0.000000
 30
0.0
 10
145.000000
 20
-0.000000
 30
0.0
 10
145.000000
 20
-5.069990
 30
0.0
 10
151.000000
 20
-5.069990
 30
0.0
 10
151.000000
 20
-0.000000
 30
0.0
 10
157.000000
 20
-0.000000
 30
0.0
 10
157.000000
 20
-5.069990
 30
0.0
 10
163.000000
 20
-5.069990
 30
0.0
 10
163.000000
 20
-0.000000
 30
0.0
 10
169.000000
 20
-0.000000
 30
0.0
 10
169.000000
 20
-5.069990
 30
0.0
 10
175.000000
 20
-5.069990
 30
0.0
 10
175.000000
 20
-0.000000
 30
0.0
 10
181.000000
 20
-0.000000
 30
0.0
 10
181.000000
 20
-5.069990
 30
0.0
 10
187.000000
 20
-5.069990
 30
0.0
 10
187.000000
 20
-0.000000
 30
0.0
 10
193.000000
 20
-0.000000
 30
0.0
 10
193.000000
 20
-5.069990
 30
0.0
 10
199.000000
 20
-5.069990
 30
0.0
 10
199.000000
 20
-0.000000
 30
0.0
 10
205.000000
 20
-0.000000
 30
0.0
 10
205.000000
 20
-5.069990
 30
0.0
 10
211.000000
 20
-5.069990
 30
0.0
 10
211.000000
 20
-0.000000
 30
0.0
 10
260.000000
 20
-0.000000
 30
0.0
 10
260.000000
 20
33.000000
 30
0.0
 10
265.070000
 20
33.000000
 30
0.0
 10
265.070000
 20
39.000000
 30
0.0
 10
260.000000
 20
39.000000
 30
0.0
 10
260.000000
 20
45.000000
 30
0.0
 10
265.070000
 20
45.000000
 30
0.0
 10
265.070000
 20
51.000000
 30
0.0
 10
260.000000
 20
51.000000
 30
0.0
 10
260.000000
 20
57.000000
 30
0.0
 10
265.070000
 20
57.000000
 30
0.0
 10
265.070000
 20
63.000000
 30
0.0
 10
260.000000
 20
63.000000
 30
0.0
 10
260.000000
 20
69.000000
 30
0.0
 10
265.070000
 20
69.000000
 30
0.0
 10
265.070000
 20
75.000000
 30
0.0
 10
260.000000
 20
75.000000
 30
0.0
 10
260.000000
 20
81.000000
 30
0.0
 10
265.070000
 20
81.000000
 30
0.0
 10
265.070000
 20
87.000000
 30
0.0
 10
260.000000
 20
87.000000
 30
0.0
 10
260.000000
 20
120.000000
 30
0.0
 10
211.000000
 20
120.000000
 30
0.0
 10
211.000000
 20
125.070000
 30
0.0
 10
205.000000
 20
125.070000
 30
0.0
 10
205.000000
 20
120.000000
 30
0.0
 10
199.000000
 20
120.000000
 30
0.0
 10
199.000000
 20
125.070000
 30
0.0
 10
193.000000
 20
125.070000
 30
0.0
 10
193.000000
 20
120.000000
 30
0.0
 10
187.000000
 20
120.000000
 30
0.0
 10
187.000000
 20
125.070000
 30
0.0
 10
181.000000
 20
125.070000
 30
0.0
 10
181.000000
 20
120.000000
 30
0.0
 10
175.000000
 20
120.000000
 30
0.0
 10
175.000000
 20
125.070000
 30
0.0
 10
169.000000
 20
125.070000
 30
0.0
 10
169.000000
 20
120.000000
 30
0.0
 10
163.000000
 20
120.000000
 30
0.0
 10
163.000000
 20
125.070000
 30
0.0
 10
157.000000
 20
125.070000
 30
0.0
 10
157.000000
 20
120.000000
 30
0.0
 10
151.000000
 20
120.000000
 30
0.0
 10
151.000000
 20
125.070000
 30
0.0
 10
145.000000
 20
125.070000
 30
0.0
 10
145.000000
 20
120.000000
 30
0.0
 10
139.000000
 20
120.000000
 30
0.0
 10
139.000000
 20
125.070000
 30
0.0
 10
133.000000
 20
125.070000
 30
0.0
 10
133.000000
 20
120.000000
 30
0.0
 10
127.000000
 20
120.000000
 30
0.0
 10
127.000000
 20
125.070000
 30
0.0
 10
121.000000
 20
125.070000
 30
0.0
 10
121.000000
 20
120.000000
 30
0.0
 10
115.000000
 20
120.000000
 30
0.0
 10
115.000000
 20
125.070000
 30
0.0
 10
109.000000
 20
125.070000
 30
0.0
 10
109.000000
 20
120.000000
 30
0.0
 10
103.000000
 20
120.000000
 30
0.0
 10
103.000000
 20
125.070000
 30
0.0
 10
97.000000
 20
125.070000
 30
0.0
 10
97.000000
 20
120.000000
 30
0.0
 10
91.000000
 20
120.000000
 30
0.0
 10
91.000000
 20
125.070000
 30
0.0
 10
85.000000
 20
125.070000
 30
0.0
 10
85.000000
 20
120.000000
 30
0.0
 10
79.000000
 20
120.000000
 30
0.0
 10
79.000000
 20
125.070000
 30
0.0
 10
73.000000
 20
125.070000
 30
0.0
 10
73.000000
 20
120.000000
 30
0.0
 10
67.000000
 20
120.000000
 30
0.0
 10
67.000000
 20
125.070000
 30
0.0
 10
61.000000
 20
125.070000
 30
0.0
 10
61.000000
 20
120.000000
 30
0.0
 10
55.000000
 20
120.000000
 30
0.0
 10
55.000000
 20
125.070000
 30
0.0
 10
49.000000
 20
125.070000
 30
0.0
 10
49.000000
 20
120.000000
 30
0.0
 10
0.000000
 20
120.000000
 30
0.0
 10
0.000000
 20
87.000000
 30
0.0
 10
-5.069990
 20
87.000000
 30
0.0
 10
-5.069990
 20
81.000000
 30
0.0
 10
0.000000
 20
81.000000
 30
0.0
 10
0.000000
 20
75.000000
 30
0.0
 10
-5.069990
 20
75.000000
 30
0.0
 10
-5.069990
 20
69.000000
 30
0.0
 10
0.000000
 20
69.000000
 30
0.0
 10
0.000000
 20
63.000000
 30
0.0
 10
-5.069990
 20
63.000000
 30
0.0
 10
-5.069990
 20
57.000000
 30
0.0
 10
0.000000
 20
57.000000
 30
0.0
 10
0.000000
 20
51.000000
 30
0.0
 10
-5.069990
 20
51.000000
 30
0.0
 10
-5.069990
 20
45.000000
 30
0.0
 10
0.000000
 20
45.000000
 30
0.0
 10
0.000000
 20
39.000000
 30
0.0
 10
-5.069990
 20
39.000000
 30
0.0
 10
-5.069990
 20
33.000000
 30
0.0
 10
0.000000
 20
33.000000
 30
0.0
 10
0.000000
 20
-0.000000
 30
0.0
  0
LWPOLYLINE
  5
107
100
AcDbEntity
  8
0
 62
7
100
AcDbPolyline
 90
2
 70
0
 10
0.000000
 20
-0.151552
 30
0.0
 10
47.814603
 20
-0.151552
 30
0.0
  0
LWPOLYLINE
  5
108
100
AcDbEntity
  8
0
 62
7
100
AcDbPolyline
 90
3
 70
0
 10
61.000000
 20
-0.000000
 30
0.0
 10
61.000000
 20
-5.069990
 30
0.0
 10
67.000000
 20
-5.069990
 30
0.0
  0
LWPOLYLINE
  5
109
100
AcDbEntity
  8
0
 62
7
100
AcDbPolyline
 90
2
 70
0
 10
60.910696
 20
-0.151580
 30
0.0
 10
54.910696
 20
-0.151580
 30
0.0
  0
LWPOLYLINE
  5
10a
100
AcDbEntity
  8
0
 62
7
100
AcDbPolyline
 90
4
 70
0
 10
49.000000
 20
-0.000000
 30
0.0
 10
49.000000
 20
-5.069990
 30
0.0
 10
55.000000
 20
-5.069990
 30
0.0
 10
55.000000
 20
-0.000000
 30
0.0
  0
ENDSEC
  0
SECTION
  2
OBJECTS
  0
DICTIONARY
  5
C
330
0
100
AcDbDictionary
  3
ACAD_GROUP
350
D
  3
ACAD_MLINESTYLE
350
17
  0
DICTIONARY
  5
D
330
C
100
AcDbDictionary
  0
DICTIONARY
  5
1A
330
C
100
AcDbDictionary
  0
DICTIONARY
  5
17
330
C
100
AcDbDictionary
  3
STANDARD
350
18
  0
DICTIONARY
  5
19
330
C
100
AcDbDictionary
  0
ENDSEC
  0
EOF
