<?xml version="1.0" encoding="UTF-8" standalone="no"?>
<svg
   xmlns:dc="http://purl.org/dc/elements/1.1/"
   xmlns:cc="http://creativecommons.org/ns#"
   xmlns:rdf="http://www.w3.org/1999/02/22-rdf-syntax-ns#"
   xmlns:svg="http://www.w3.org/2000/svg"
   xmlns="http://www.w3.org/2000/svg"
   version="1.1"
   id="svg12240"
   height="1052.36220472"
   width="744.094488189">
  <metadata
     id="metadata12988">
    <rdf:RDF>
      <cc:Work
         rdf:about="">
        <dc:format>image/svg+xml</dc:format>
        <dc:type
           rdf:resource="http://purl.org/dc/dcmitype/StillImage" />
        <dc:title></dc:title>
      </cc:Work>
    </rdf:RDF>
  </metadata>
  <desc
     id="desc12242">/home/jsk/GIT/keyboard/box-001.dxf - scale = 1.000000, origin = (0.000000, 0.000000), auto = True</desc>
  <defs
     id="defs12244">
    <marker
       style="overflow:visible"
       refY="0.0"
       refX="0.0"
       orient="auto"
       id="DistanceX">
      <path
         id="path12247"
         style="stroke:#000000; stroke-width:0.5"
         d="M 3,-3 L -3,3 M 0,-5 L  0,5" />
    </marker>
    <pattern
       y="0"
       x="0"
       width="8"
       patternUnits="userSpaceOnUse"
       id="Hatch"
       height="8">
      <path
         id="path12250"
         stroke-width="0.25"
         stroke="#000000"
         linecap="square"
         d="M8 4 l-4,4" />
      <path
         id="path12252"
         stroke-width="0.25"
         stroke="#000000"
         linecap="square"
         d="M6 2 l-4,4" />
      <path
         id="path12254"
         stroke-width="0.25"
         stroke="#000000"
         linecap="square"
         d="M4 0 l-4,4" />
    </pattern>
  </defs>
  <g
     id="g12256">
    <path
       id="path12258"
       style="stroke:#000000;fill:none"
       d="M 134.893701,334.381890 156.153543,334.381890" />
    <path
       id="path12260"
       style="stroke:#000000;fill:none"
       d="M 156.153543,334.381890 156.153543,352.346457" />
    <path
       id="path12262"
       style="stroke:#000000;fill:none"
       d="M 156.153543,352.346457 177.413386,352.346457" />
    <path
       id="path12264"
       style="stroke:#000000;fill:none"
       d="M 177.413386,352.346457 177.413386,334.381890" />
    <path
       id="path12266"
       style="stroke:#000000;fill:none"
       d="M 177.413386,334.381890 198.673228,334.381890" />
    <path
       id="path12268"
       style="stroke:#000000;fill:none"
       d="M 198.673228,334.381890 198.673228,352.346457" />
    <path
       id="path12270"
       style="stroke:#000000;fill:none"
       d="M 198.673228,352.346457 219.933071,352.346457" />
    <path
       id="path12272"
       style="stroke:#000000;fill:none"
       d="M 219.933071,352.346457 219.933071,334.381890" />
    <path
       id="path12274"
       style="stroke:#000000;fill:none"
       d="M 219.933071,334.381890 241.192913,334.381890" />
    <path
       id="path12276"
       style="stroke:#000000;fill:none"
       d="M 241.192913,334.381890 241.192913,352.346457" />
    <path
       id="path12278"
       style="stroke:#000000;fill:none"
       d="M 241.192913,352.346457 262.452756,352.346457" />
    <path
       id="path12280"
       style="stroke:#000000;fill:none"
       d="M 262.452756,352.346457 262.452756,334.381890" />
    <path
       id="path12282"
       style="stroke:#000000;fill:none"
       d="M 262.452756,334.381890 283.712598,334.381890" />
    <path
       id="path12284"
       style="stroke:#000000;fill:none"
       d="M 283.712598,334.381890 283.712598,352.346457" />
    <path
       id="path12286"
       style="stroke:#000000;fill:none"
       d="M 283.712598,352.346457 304.972441,352.346457" />
    <path
       id="path12288"
       style="stroke:#000000;fill:none"
       d="M 304.972441,352.346457 304.972441,334.381890" />
    <path
       id="path12290"
       style="stroke:#000000;fill:none"
       d="M 304.972441,334.381890 326.232283,334.381890" />
    <path
       id="path12292"
       style="stroke:#000000;fill:none"
       d="M 326.232283,334.381890 326.232283,352.346457" />
    <path
       id="path12294"
       style="stroke:#000000;fill:none"
       d="M 326.232283,352.346457 461.125984,352.346457" />
    <path
       id="path12296"
       style="stroke:#000000;fill:none"
       d="M 461.125984,352.346457 461.125984,325.647638" />
    <path
       id="path12298"
       style="stroke:#000000;fill:none"
       d="M 461.125984,325.647638 443.161417,325.647638" />
    <path
       id="path12300"
       style="stroke:#000000;fill:none"
       d="M 443.161417,325.647638 443.161417,304.387795" />
    <path
       id="path12302"
       style="stroke:#000000;fill:none"
       d="M 443.161417,304.387795 461.125984,304.387795" />
    <path
       id="path12304"
       style="stroke:#000000;fill:none"
       d="M 461.125984,304.387795 461.125984,277.688976" />
    <path
       id="path12306"
       style="stroke:#000000;fill:none"
       d="M 461.125984,277.688976 0.000000,277.688976" />
    <path
       id="path12308"
       style="stroke:#000000;fill:none"
       d="M 0.000000,277.688976 0.000000,304.387795" />
    <path
       id="path12310"
       style="stroke:#000000;fill:none"
       d="M 0.000000,304.387795 17.964531,304.387795" />
    <path
       id="path12312"
       style="stroke:#000000;fill:none"
       d="M 17.964531,304.387795 17.964531,325.647638" />
    <path
       id="path12314"
       style="stroke:#000000;fill:none"
       d="M 17.964531,325.647638 0.000000,325.647638" />
    <path
       id="path12316"
       style="stroke:#000000;fill:none"
       d="M 0.000000,325.647638 0.000000,352.346457" />
    <path
       id="path12318"
       style="stroke:#000000;fill:none"
       d="M 0.000000,352.346457 134.893701,352.346457" />
    <path
       id="path12320"
       style="stroke:#000000;fill:none"
       d="M 134.893701,352.346457 134.893701,334.381890" />
    <path
       id="path12322"
       style="stroke:#000000;fill:none"
       d="M 71.858268,295.653543 71.858268,286.299213" />
    <path
       id="path12324"
       style="stroke:#000000;fill:none"
       d="M 71.858268,286.299213 372.295276,286.299213" />
    <path
       id="path12326"
       style="stroke:#000000;fill:none"
       d="M 372.295276,286.299213 372.295276,295.653543" />
    <path
       id="path12328"
       style="stroke:#000000;fill:none"
       d="M 372.295276,295.653543 71.858268,295.653543" />
    <path
       id="path12330"
       style="stroke:#000000;fill:none"
       d="M 605.001969,334.381890 626.261811,334.381890" />
    <path
       id="path12332"
       style="stroke:#000000;fill:none"
       d="M 626.261811,334.381890 626.261811,352.346457" />
    <path
       id="path12334"
       style="stroke:#000000;fill:none"
       d="M 626.261811,352.346457 647.521654,352.346457" />
    <path
       id="path12336"
       style="stroke:#000000;fill:none"
       d="M 647.521654,352.346457 647.521654,334.381890" />
    <path
       id="path12338"
       style="stroke:#000000;fill:none"
       d="M 647.521654,334.381890 668.781496,334.381890" />
    <path
       id="path12340"
       style="stroke:#000000;fill:none"
       d="M 668.781496,334.381890 668.781496,352.346457" />
    <path
       id="path12342"
       style="stroke:#000000;fill:none"
       d="M 668.781496,352.346457 690.041339,352.346457" />
    <path
       id="path12344"
       style="stroke:#000000;fill:none"
       d="M 690.041339,352.346457 690.041339,334.381890" />
    <path
       id="path12346"
       style="stroke:#000000;fill:none"
       d="M 690.041339,334.381890 711.301181,334.381890" />
    <path
       id="path12348"
       style="stroke:#000000;fill:none"
       d="M 711.301181,334.381890 711.301181,352.346457" />
    <path
       id="path12350"
       style="stroke:#000000;fill:none"
       d="M 711.301181,352.346457 732.561024,352.346457" />
    <path
       id="path12352"
       style="stroke:#000000;fill:none"
       d="M 732.561024,352.346457 732.561024,334.381890" />
    <path
       id="path12354"
       style="stroke:#000000;fill:none"
       d="M 732.561024,334.381890 753.820866,334.381890" />
    <path
       id="path12356"
       style="stroke:#000000;fill:none"
       d="M 753.820866,334.381890 753.820866,352.346457" />
    <path
       id="path12358"
       style="stroke:#000000;fill:none"
       d="M 753.820866,352.346457 775.080709,352.346457" />
    <path
       id="path12360"
       style="stroke:#000000;fill:none"
       d="M 775.080709,352.346457 775.080709,334.381890" />
    <path
       id="path12362"
       style="stroke:#000000;fill:none"
       d="M 775.080709,334.381890 796.340551,334.381890" />
    <path
       id="path12364"
       style="stroke:#000000;fill:none"
       d="M 796.340551,334.381890 796.340551,352.346457" />
    <path
       id="path12366"
       style="stroke:#000000;fill:none"
       d="M 796.340551,352.346457 931.234252,352.346457" />
    <path
       id="path12368"
       style="stroke:#000000;fill:none"
       d="M 931.234252,352.346457 931.234252,325.647638" />
    <path
       id="path12370"
       style="stroke:#000000;fill:none"
       d="M 931.234252,325.647638 913.269685,325.647638" />
    <path
       id="path12372"
       style="stroke:#000000;fill:none"
       d="M 913.269685,325.647638 913.269685,304.387795" />
    <path
       id="path12374"
       style="stroke:#000000;fill:none"
       d="M 913.269685,304.387795 931.234252,304.387795" />
    <path
       id="path12376"
       style="stroke:#000000;fill:none"
       d="M 931.234252,304.387795 931.234252,277.688976" />
    <path
       id="path12378"
       style="stroke:#000000;fill:none"
       d="M 931.234252,277.688976 470.108268,277.688976" />
    <path
       id="path12380"
       style="stroke:#000000;fill:none"
       d="M 470.108268,277.688976 470.108268,304.387795" />
    <path
       id="path12382"
       style="stroke:#000000;fill:none"
       d="M 470.108268,304.387795 488.072835,304.387795" />
    <path
       id="path12384"
       style="stroke:#000000;fill:none"
       d="M 488.072835,304.387795 488.072835,325.647638" />
    <path
       id="path12386"
       style="stroke:#000000;fill:none"
       d="M 488.072835,325.647638 470.108268,325.647638" />
    <path
       id="path12388"
       style="stroke:#000000;fill:none"
       d="M 470.108268,325.647638 470.108268,352.346457" />
    <path
       id="path12390"
       style="stroke:#000000;fill:none"
       d="M 470.108268,352.346457 605.001969,352.346457" />
    <path
       id="path12392"
       style="stroke:#000000;fill:none"
       d="M 605.001969,352.346457 605.001969,334.381890" />
    <path
       id="path12394"
       style="stroke:#000000;fill:none"
       d="M 541.966535,295.653543 541.966535,286.299213" />
    <path
       id="path12396"
       style="stroke:#000000;fill:none"
       d="M 541.966535,286.299213 842.403543,286.299213" />
    <path
       id="path12398"
       style="stroke:#000000;fill:none"
       d="M 842.403543,286.299213 842.403543,295.653543" />
    <path
       id="path12400"
       style="stroke:#000000;fill:none"
       d="M 842.403543,295.653543 541.966535,295.653543" />
    <path
       id="path12402"
       style="stroke:#000000;fill:none"
       d="M 163.700787,427.251969 184.960630,427.251969" />
    <path
       id="path12404"
       style="stroke:#000000;fill:none"
       d="M 184.960630,427.251969 184.960630,445.216535" />
    <path
       id="path12406"
       style="stroke:#000000;fill:none"
       d="M 184.960630,445.216535 206.220472,445.216535" />
    <path
       id="path12408"
       style="stroke:#000000;fill:none"
       d="M 206.220472,445.216535 206.220472,427.251969" />
    <path
       id="path12410"
       style="stroke:#000000;fill:none"
       d="M 206.220472,427.251969 227.480315,427.251969" />
    <path
       id="path12412"
       style="stroke:#000000;fill:none"
       d="M 227.480315,427.251969 227.480315,445.216535" />
    <path
       id="path12414"
       style="stroke:#000000;fill:none"
       d="M 227.480315,445.216535 248.740157,445.216535" />
    <path
       id="path12416"
       style="stroke:#000000;fill:none"
       d="M 248.740157,445.216535 248.740157,427.251969" />
    <path
       id="path12418"
       style="stroke:#000000;fill:none"
       d="M 248.740157,427.251969 270.000000,427.251969" />
    <path
       id="path12420"
       style="stroke:#000000;fill:none"
       d="M 270.000000,427.251969 270.000000,445.216535" />
    <path
       id="path12422"
       style="stroke:#000000;fill:none"
       d="M 270.000000,445.216535 291.259843,445.216535" />
    <path
       id="path12424"
       style="stroke:#000000;fill:none"
       d="M 291.259843,445.216535 291.259843,427.251969" />
    <path
       id="path12426"
       style="stroke:#000000;fill:none"
       d="M 291.259843,427.251969 312.519685,427.251969" />
    <path
       id="path12428"
       style="stroke:#000000;fill:none"
       d="M 312.519685,427.251969 312.519685,445.216535" />
    <path
       id="path12430"
       style="stroke:#000000;fill:none"
       d="M 312.519685,445.216535 333.779528,445.216535" />
    <path
       id="path12432"
       style="stroke:#000000;fill:none"
       d="M 333.779528,445.216535 333.779528,427.251969" />
    <path
       id="path12434"
       style="stroke:#000000;fill:none"
       d="M 333.779528,427.251969 355.039370,427.251969" />
    <path
       id="path12436"
       style="stroke:#000000;fill:none"
       d="M 355.039370,427.251969 355.039370,445.216535" />
    <path
       id="path12438"
       style="stroke:#000000;fill:none"
       d="M 355.039370,445.216535 376.299213,445.216535" />
    <path
       id="path12440"
       style="stroke:#000000;fill:none"
       d="M 376.299213,445.216535 376.299213,427.251969" />
    <path
       id="path12442"
       style="stroke:#000000;fill:none"
       d="M 376.299213,427.251969 397.559055,427.251969" />
    <path
       id="path12444"
       style="stroke:#000000;fill:none"
       d="M 397.559055,427.251969 397.559055,445.216535" />
    <path
       id="path12446"
       style="stroke:#000000;fill:none"
       d="M 397.559055,445.216535 418.818898,445.216535" />
    <path
       id="path12448"
       style="stroke:#000000;fill:none"
       d="M 418.818898,445.216535 418.818898,427.251969" />
    <path
       id="path12450"
       style="stroke:#000000;fill:none"
       d="M 418.818898,427.251969 440.078740,427.251969" />
    <path
       id="path12452"
       style="stroke:#000000;fill:none"
       d="M 440.078740,427.251969 440.078740,445.216535" />
    <path
       id="path12454"
       style="stroke:#000000;fill:none"
       d="M 440.078740,445.216535 461.338583,445.216535" />
    <path
       id="path12456"
       style="stroke:#000000;fill:none"
       d="M 461.338583,445.216535 461.338583,427.251969" />
    <path
       id="path12458"
       style="stroke:#000000;fill:none"
       d="M 461.338583,427.251969 482.598425,427.251969" />
    <path
       id="path12460"
       style="stroke:#000000;fill:none"
       d="M 482.598425,427.251969 482.598425,445.216535" />
    <path
       id="path12462"
       style="stroke:#000000;fill:none"
       d="M 482.598425,445.216535 503.858268,445.216535" />
    <path
       id="path12464"
       style="stroke:#000000;fill:none"
       d="M 503.858268,445.216535 503.858268,427.251969" />
    <path
       id="path12466"
       style="stroke:#000000;fill:none"
       d="M 503.858268,427.251969 525.118110,427.251969" />
    <path
       id="path12468"
       style="stroke:#000000;fill:none"
       d="M 525.118110,427.251969 525.118110,445.216535" />
    <path
       id="path12470"
       style="stroke:#000000;fill:none"
       d="M 525.118110,445.216535 546.377953,445.216535" />
    <path
       id="path12472"
       style="stroke:#000000;fill:none"
       d="M 546.377953,445.216535 546.377953,427.251969" />
    <path
       id="path12474"
       style="stroke:#000000;fill:none"
       d="M 546.377953,427.251969 567.637795,427.251969" />
    <path
       id="path12476"
       style="stroke:#000000;fill:none"
       d="M 567.637795,427.251969 567.637795,445.216535" />
    <path
       id="path12478"
       style="stroke:#000000;fill:none"
       d="M 567.637795,445.216535 588.897638,445.216535" />
    <path
       id="path12480"
       style="stroke:#000000;fill:none"
       d="M 588.897638,445.216535 588.897638,427.251969" />
    <path
       id="path12482"
       style="stroke:#000000;fill:none"
       d="M 588.897638,427.251969 610.157480,427.251969" />
    <path
       id="path12484"
       style="stroke:#000000;fill:none"
       d="M 610.157480,427.251969 610.157480,445.216535" />
    <path
       id="path12486"
       style="stroke:#000000;fill:none"
       d="M 610.157480,445.216535 631.417323,445.216535" />
    <path
       id="path12488"
       style="stroke:#000000;fill:none"
       d="M 631.417323,445.216535 631.417323,427.251969" />
    <path
       id="path12490"
       style="stroke:#000000;fill:none"
       d="M 631.417323,427.251969 652.677165,427.251969" />
    <path
       id="path12492"
       style="stroke:#000000;fill:none"
       d="M 652.677165,427.251969 652.677165,445.216535" />
    <path
       id="path12494"
       style="stroke:#000000;fill:none"
       d="M 652.677165,445.216535 673.937008,445.216535" />
    <path
       id="path12496"
       style="stroke:#000000;fill:none"
       d="M 673.937008,445.216535 673.937008,427.251969" />
    <path
       id="path12498"
       style="stroke:#000000;fill:none"
       d="M 673.937008,427.251969 695.196850,427.251969" />
    <path
       id="path12500"
       style="stroke:#000000;fill:none"
       d="M 695.196850,427.251969 695.196850,445.216535" />
    <path
       id="path12502"
       style="stroke:#000000;fill:none"
       d="M 695.196850,445.216535 716.456693,445.216535" />
    <path
       id="path12504"
       style="stroke:#000000;fill:none"
       d="M 716.456693,445.216535 716.456693,427.251969" />
    <path
       id="path12506"
       style="stroke:#000000;fill:none"
       d="M 716.456693,427.251969 737.716535,427.251969" />
    <path
       id="path12508"
       style="stroke:#000000;fill:none"
       d="M 737.716535,427.251969 737.716535,445.216535" />
    <path
       id="path12510"
       style="stroke:#000000;fill:none"
       d="M 737.716535,445.216535 901.417323,445.216535" />
    <path
       id="path12512"
       style="stroke:#000000;fill:none"
       d="M 901.417323,445.216535 901.417323,418.517717" />
    <path
       id="path12514"
       style="stroke:#000000;fill:none"
       d="M 901.417323,418.517717 919.381890,418.517717" />
    <path
       id="path12516"
       style="stroke:#000000;fill:none"
       d="M 919.381890,418.517717 919.381890,397.257874" />
    <path
       id="path12518"
       style="stroke:#000000;fill:none"
       d="M 919.381890,397.257874 901.417323,397.257874" />
    <path
       id="path12520"
       style="stroke:#000000;fill:none"
       d="M 901.417323,397.257874 901.417323,392.116535" />
    <path
       id="path12522"
       style="stroke:#000000;fill:none"
       d="M 901.417323,392.116535 0.000000,392.116535" />
    <path
       id="path12524"
       style="stroke:#000000;fill:none"
       d="M 0.000000,392.116535 0.000000,397.257874" />
    <path
       id="path12526"
       style="stroke:#000000;fill:none"
       d="M 0.000000,397.257874 -17.964531,397.257874" />
    <path
       id="path12528"
       style="stroke:#000000;fill:none"
       d="M -17.964531,397.257874 -17.964531,418.517717" />
    <path
       id="path12530"
       style="stroke:#000000;fill:none"
       d="M -17.964531,418.517717 0.000000,418.517717" />
    <path
       id="path12532"
       style="stroke:#000000;fill:none"
       d="M 0.000000,418.517717 0.000000,445.216535" />
    <path
       id="path12534"
       style="stroke:#000000;fill:none"
       d="M 0.000000,445.216535 163.700787,445.216535" />
    <path
       id="path12536"
       style="stroke:#000000;fill:none"
       d="M 163.700787,445.216535 163.700787,427.251969" />
    <path
       id="path12538"
       style="stroke:#000000;fill:none"
       d="M 163.700787,555.555118 184.960630,555.555118" />
    <path
       id="path12540"
       style="stroke:#000000;fill:none"
       d="M 184.960630,555.555118 184.960630,573.519685" />
    <path
       id="path12542"
       style="stroke:#000000;fill:none"
       d="M 184.960630,573.519685 206.220472,573.519685" />
    <path
       id="path12544"
       style="stroke:#000000;fill:none"
       d="M 206.220472,573.519685 206.220472,555.555118" />
    <path
       id="path12546"
       style="stroke:#000000;fill:none"
       d="M 206.220472,555.555118 227.480315,555.555118" />
    <path
       id="path12548"
       style="stroke:#000000;fill:none"
       d="M 227.480315,555.555118 227.480315,573.519685" />
    <path
       id="path12550"
       style="stroke:#000000;fill:none"
       d="M 227.480315,573.519685 248.740157,573.519685" />
    <path
       id="path12552"
       style="stroke:#000000;fill:none"
       d="M 248.740157,573.519685 248.740157,555.555118" />
    <path
       id="path12554"
       style="stroke:#000000;fill:none"
       d="M 248.740157,555.555118 270.000000,555.555118" />
    <path
       id="path12556"
       style="stroke:#000000;fill:none"
       d="M 270.000000,555.555118 270.000000,573.519685" />
    <path
       id="path12558"
       style="stroke:#000000;fill:none"
       d="M 270.000000,573.519685 291.259843,573.519685" />
    <path
       id="path12560"
       style="stroke:#000000;fill:none"
       d="M 291.259843,573.519685 291.259843,555.555118" />
    <path
       id="path12562"
       style="stroke:#000000;fill:none"
       d="M 291.259843,555.555118 312.519685,555.555118" />
    <path
       id="path12564"
       style="stroke:#000000;fill:none"
       d="M 312.519685,555.555118 312.519685,573.519685" />
    <path
       id="path12566"
       style="stroke:#000000;fill:none"
       d="M 312.519685,573.519685 333.779528,573.519685" />
    <path
       id="path12568"
       style="stroke:#000000;fill:none"
       d="M 333.779528,573.519685 333.779528,555.555118" />
    <path
       id="path12570"
       style="stroke:#000000;fill:none"
       d="M 333.779528,555.555118 355.039370,555.555118" />
    <path
       id="path12572"
       style="stroke:#000000;fill:none"
       d="M 355.039370,555.555118 355.039370,573.519685" />
    <path
       id="path12574"
       style="stroke:#000000;fill:none"
       d="M 355.039370,573.519685 376.299213,573.519685" />
    <path
       id="path12576"
       style="stroke:#000000;fill:none"
       d="M 376.299213,573.519685 376.299213,555.555118" />
    <path
       id="path12578"
       style="stroke:#000000;fill:none"
       d="M 376.299213,555.555118 397.559055,555.555118" />
    <path
       id="path12580"
       style="stroke:#000000;fill:none"
       d="M 397.559055,555.555118 397.559055,573.519685" />
    <path
       id="path12582"
       style="stroke:#000000;fill:none"
       d="M 397.559055,573.519685 418.818898,573.519685" />
    <path
       id="path12584"
       style="stroke:#000000;fill:none"
       d="M 418.818898,573.519685 418.818898,555.555118" />
    <path
       id="path12586"
       style="stroke:#000000;fill:none"
       d="M 418.818898,555.555118 440.078740,555.555118" />
    <path
       id="path12588"
       style="stroke:#000000;fill:none"
       d="M 440.078740,555.555118 440.078740,573.519685" />
    <path
       id="path12590"
       style="stroke:#000000;fill:none"
       d="M 440.078740,573.519685 461.338583,573.519685" />
    <path
       id="path12592"
       style="stroke:#000000;fill:none"
       d="M 461.338583,573.519685 461.338583,555.555118" />
    <path
       id="path12594"
       style="stroke:#000000;fill:none"
       d="M 461.338583,555.555118 482.598425,555.555118" />
    <path
       id="path12596"
       style="stroke:#000000;fill:none"
       d="M 482.598425,555.555118 482.598425,573.519685" />
    <path
       id="path12598"
       style="stroke:#000000;fill:none"
       d="M 482.598425,573.519685 503.858268,573.519685" />
    <path
       id="path12600"
       style="stroke:#000000;fill:none"
       d="M 503.858268,573.519685 503.858268,555.555118" />
    <path
       id="path12602"
       style="stroke:#000000;fill:none"
       d="M 503.858268,555.555118 525.118110,555.555118" />
    <path
       id="path12604"
       style="stroke:#000000;fill:none"
       d="M 525.118110,555.555118 525.118110,573.519685" />
    <path
       id="path12606"
       style="stroke:#000000;fill:none"
       d="M 525.118110,573.519685 546.377953,573.519685" />
    <path
       id="path12608"
       style="stroke:#000000;fill:none"
       d="M 546.377953,573.519685 546.377953,555.555118" />
    <path
       id="path12610"
       style="stroke:#000000;fill:none"
       d="M 546.377953,555.555118 567.637795,555.555118" />
    <path
       id="path12612"
       style="stroke:#000000;fill:none"
       d="M 567.637795,555.555118 567.637795,573.519685" />
    <path
       id="path12614"
       style="stroke:#000000;fill:none"
       d="M 567.637795,573.519685 588.897638,573.519685" />
    <path
       id="path12616"
       style="stroke:#000000;fill:none"
       d="M 588.897638,573.519685 588.897638,555.555118" />
    <path
       id="path12618"
       style="stroke:#000000;fill:none"
       d="M 588.897638,555.555118 610.157480,555.555118" />
    <path
       id="path12620"
       style="stroke:#000000;fill:none"
       d="M 610.157480,555.555118 610.157480,573.519685" />
    <path
       id="path12622"
       style="stroke:#000000;fill:none"
       d="M 610.157480,573.519685 631.417323,573.519685" />
    <path
       id="path12624"
       style="stroke:#000000;fill:none"
       d="M 631.417323,573.519685 631.417323,555.555118" />
    <path
       id="path12626"
       style="stroke:#000000;fill:none"
       d="M 631.417323,555.555118 652.677165,555.555118" />
    <path
       id="path12628"
       style="stroke:#000000;fill:none"
       d="M 652.677165,555.555118 652.677165,573.519685" />
    <path
       id="path12630"
       style="stroke:#000000;fill:none"
       d="M 652.677165,573.519685 673.937008,573.519685" />
    <path
       id="path12632"
       style="stroke:#000000;fill:none"
       d="M 673.937008,573.519685 673.937008,555.555118" />
    <path
       id="path12634"
       style="stroke:#000000;fill:none"
       d="M 673.937008,555.555118 695.196850,555.555118" />
    <path
       id="path12636"
       style="stroke:#000000;fill:none"
       d="M 695.196850,555.555118 695.196850,573.519685" />
    <path
       id="path12638"
       style="stroke:#000000;fill:none"
       d="M 695.196850,573.519685 716.456693,573.519685" />
    <path
       id="path12640"
       style="stroke:#000000;fill:none"
       d="M 716.456693,573.519685 716.456693,555.555118" />
    <path
       id="path12642"
       style="stroke:#000000;fill:none"
       d="M 716.456693,555.555118 737.716535,555.555118" />
    <path
       id="path12644"
       style="stroke:#000000;fill:none"
       d="M 737.716535,555.555118 737.716535,573.519685" />
    <path
       id="path12646"
       style="stroke:#000000;fill:none"
       d="M 737.716535,573.519685 901.417323,573.519685" />
    <path
       id="path12648"
       style="stroke:#000000;fill:none"
       d="M 901.417323,573.519685 901.417323,546.820866" />
    <path
       id="path12650"
       style="stroke:#000000;fill:none"
       d="M 901.417323,546.820866 919.381890,546.820866" />
    <path
       id="path12652"
       style="stroke:#000000;fill:none"
       d="M 919.381890,546.820866 919.381890,525.561024" />
    <path
       id="path12654"
       style="stroke:#000000;fill:none"
       d="M 919.381890,525.561024 901.417323,525.561024" />
    <path
       id="path12656"
       style="stroke:#000000;fill:none"
       d="M 901.417323,525.561024 901.417323,498.862205" />
    <path
       id="path12658"
       style="stroke:#000000;fill:none"
       d="M 901.417323,498.862205 0.000000,498.862205" />
    <path
       id="path12660"
       style="stroke:#000000;fill:none"
       d="M 0.000000,498.862205 0.000000,525.561024" />
    <path
       id="path12662"
       style="stroke:#000000;fill:none"
       d="M 0.000000,525.561024 -17.964531,525.561024" />
    <path
       id="path12664"
       style="stroke:#000000;fill:none"
       d="M -17.964531,525.561024 -17.964531,546.820866" />
    <path
       id="path12666"
       style="stroke:#000000;fill:none"
       d="M -17.964531,546.820866 0.000000,546.820866" />
    <path
       id="path12668"
       style="stroke:#000000;fill:none"
       d="M 0.000000,546.820866 0.000000,573.519685" />
    <path
       id="path12670"
       style="stroke:#000000;fill:none"
       d="M 0.000000,573.519685 163.700787,573.519685" />
    <path
       id="path12672"
       style="stroke:#000000;fill:none"
       d="M 163.700787,573.519685 163.700787,555.555118" />
    <path
       id="path12674"
       style="stroke:#000000;fill:none"
       d="M 227.480315,1070.326736 227.480315,1052.362205" />
    <path
       id="path12676"
       style="stroke:#000000;fill:none"
       d="M 227.480315,1052.362205 248.740157,1052.362205" />
    <path
       id="path12678"
       style="stroke:#000000;fill:none"
       d="M 248.740157,1052.362205 248.740157,1070.326736" />
    <path
       id="path12680"
       style="stroke:#000000;fill:none"
       d="M 248.740157,1070.326736 270.000000,1070.326736" />
    <path
       id="path12682"
       style="stroke:#000000;fill:none"
       d="M 270.000000,1070.326736 270.000000,1052.362205" />
    <path
       id="path12684"
       style="stroke:#000000;fill:none"
       d="M 270.000000,1052.362205 291.259843,1052.362205" />
    <path
       id="path12686"
       style="stroke:#000000;fill:none"
       d="M 291.259843,1052.362205 291.259843,1070.326736" />
    <path
       id="path12688"
       style="stroke:#000000;fill:none"
       d="M 291.259843,1070.326736 312.519685,1070.326736" />
    <path
       id="path12690"
       style="stroke:#000000;fill:none"
       d="M 312.519685,1070.326736 312.519685,1052.362205" />
    <path
       id="path12692"
       style="stroke:#000000;fill:none"
       d="M 312.519685,1052.362205 333.779528,1052.362205" />
    <path
       id="path12694"
       style="stroke:#000000;fill:none"
       d="M 333.779528,1052.362205 333.779528,1070.326736" />
    <path
       id="path12696"
       style="stroke:#000000;fill:none"
       d="M 333.779528,1070.326736 355.039370,1070.326736" />
    <path
       id="path12698"
       style="stroke:#000000;fill:none"
       d="M 355.039370,1070.326736 355.039370,1052.362205" />
    <path
       id="path12700"
       style="stroke:#000000;fill:none"
       d="M 355.039370,1052.362205 376.299213,1052.362205" />
    <path
       id="path12702"
       style="stroke:#000000;fill:none"
       d="M 376.299213,1052.362205 376.299213,1070.326736" />
    <path
       id="path12704"
       style="stroke:#000000;fill:none"
       d="M 376.299213,1070.326736 397.559055,1070.326736" />
    <path
       id="path12706"
       style="stroke:#000000;fill:none"
       d="M 397.559055,1070.326736 397.559055,1052.362205" />
    <path
       id="path12708"
       style="stroke:#000000;fill:none"
       d="M 397.559055,1052.362205 418.818898,1052.362205" />
    <path
       id="path12710"
       style="stroke:#000000;fill:none"
       d="M 418.818898,1052.362205 418.818898,1070.326736" />
    <path
       id="path12712"
       style="stroke:#000000;fill:none"
       d="M 418.818898,1070.326736 440.078740,1070.326736" />
    <path
       id="path12714"
       style="stroke:#000000;fill:none"
       d="M 440.078740,1070.326736 440.078740,1052.362205" />
    <path
       id="path12716"
       style="stroke:#000000;fill:none"
       d="M 440.078740,1052.362205 461.338583,1052.362205" />
    <path
       id="path12718"
       style="stroke:#000000;fill:none"
       d="M 461.338583,1052.362205 461.338583,1070.326736" />
    <path
       id="path12720"
       style="stroke:#000000;fill:none"
       d="M 461.338583,1070.326736 482.598425,1070.326736" />
    <path
       id="path12722"
       style="stroke:#000000;fill:none"
       d="M 482.598425,1070.326736 482.598425,1052.362205" />
    <path
       id="path12724"
       style="stroke:#000000;fill:none"
       d="M 482.598425,1052.362205 503.858268,1052.362205" />
    <path
       id="path12726"
       style="stroke:#000000;fill:none"
       d="M 503.858268,1052.362205 503.858268,1070.326736" />
    <path
       id="path12728"
       style="stroke:#000000;fill:none"
       d="M 503.858268,1070.326736 525.118110,1070.326736" />
    <path
       id="path12730"
       style="stroke:#000000;fill:none"
       d="M 525.118110,1070.326736 525.118110,1052.362205" />
    <path
       id="path12732"
       style="stroke:#000000;fill:none"
       d="M 525.118110,1052.362205 546.377953,1052.362205" />
    <path
       id="path12734"
       style="stroke:#000000;fill:none"
       d="M 546.377953,1052.362205 546.377953,1070.326736" />
    <path
       id="path12736"
       style="stroke:#000000;fill:none"
       d="M 546.377953,1070.326736 567.637795,1070.326736" />
    <path
       id="path12738"
       style="stroke:#000000;fill:none"
       d="M 567.637795,1070.326736 567.637795,1052.362205" />
    <path
       id="path12740"
       style="stroke:#000000;fill:none"
       d="M 567.637795,1052.362205 588.897638,1052.362205" />
    <path
       id="path12742"
       style="stroke:#000000;fill:none"
       d="M 588.897638,1052.362205 588.897638,1070.326736" />
    <path
       id="path12744"
       style="stroke:#000000;fill:none"
       d="M 588.897638,1070.326736 610.157480,1070.326736" />
    <path
       id="path12746"
       style="stroke:#000000;fill:none"
       d="M 610.157480,1070.326736 610.157480,1052.362205" />
    <path
       id="path12748"
       style="stroke:#000000;fill:none"
       d="M 610.157480,1052.362205 631.417323,1052.362205" />
    <path
       id="path12750"
       style="stroke:#000000;fill:none"
       d="M 631.417323,1052.362205 631.417323,1070.326736" />
    <path
       id="path12752"
       style="stroke:#000000;fill:none"
       d="M 631.417323,1070.326736 652.677165,1070.326736" />
    <path
       id="path12754"
       style="stroke:#000000;fill:none"
       d="M 652.677165,1070.326736 652.677165,1052.362205" />
    <path
       id="path12756"
       style="stroke:#000000;fill:none"
       d="M 652.677165,1052.362205 673.937008,1052.362205" />
    <path
       id="path12758"
       style="stroke:#000000;fill:none"
       d="M 673.937008,1052.362205 673.937008,1070.326736" />
    <path
       id="path12760"
       style="stroke:#000000;fill:none"
       d="M 673.937008,1070.326736 695.196850,1070.326736" />
    <path
       id="path12762"
       style="stroke:#000000;fill:none"
       d="M 695.196850,1070.326736 695.196850,1052.362205" />
    <path
       id="path12764"
       style="stroke:#000000;fill:none"
       d="M 695.196850,1052.362205 716.456693,1052.362205" />
    <path
       id="path12766"
       style="stroke:#000000;fill:none"
       d="M 716.456693,1052.362205 716.456693,1070.326736" />
    <path
       id="path12768"
       style="stroke:#000000;fill:none"
       d="M 716.456693,1070.326736 737.716535,1070.326736" />
    <path
       id="path12770"
       style="stroke:#000000;fill:none"
       d="M 737.716535,1070.326736 737.716535,1052.362205" />
    <path
       id="path12772"
       style="stroke:#000000;fill:none"
       d="M 737.716535,1052.362205 901.417323,1052.362205" />
    <path
       id="path12774"
       style="stroke:#000000;fill:none"
       d="M 901.417323,1052.362205 901.417323,935.433071" />
    <path
       id="path12776"
       style="stroke:#000000;fill:none"
       d="M 901.417323,935.433071 919.381890,935.433071" />
    <path
       id="path12778"
       style="stroke:#000000;fill:none"
       d="M 919.381890,935.433071 919.381890,914.173228" />
    <path
       id="path12780"
       style="stroke:#000000;fill:none"
       d="M 919.381890,914.173228 901.417323,914.173228" />
    <path
       id="path12782"
       style="stroke:#000000;fill:none"
       d="M 901.417323,914.173228 901.417323,892.913386" />
    <path
       id="path12784"
       style="stroke:#000000;fill:none"
       d="M 901.417323,892.913386 919.381890,892.913386" />
    <path
       id="path12786"
       style="stroke:#000000;fill:none"
       d="M 919.381890,892.913386 919.381890,871.653543" />
    <path
       id="path12788"
       style="stroke:#000000;fill:none"
       d="M 919.381890,871.653543 901.417323,871.653543" />
    <path
       id="path12790"
       style="stroke:#000000;fill:none"
       d="M 901.417323,871.653543 901.417323,850.393701" />
    <path
       id="path12792"
       style="stroke:#000000;fill:none"
       d="M 901.417323,850.393701 919.381890,850.393701" />
    <path
       id="path12794"
       style="stroke:#000000;fill:none"
       d="M 919.381890,850.393701 919.381890,829.133858" />
    <path
       id="path12796"
       style="stroke:#000000;fill:none"
       d="M 919.381890,829.133858 901.417323,829.133858" />
    <path
       id="path12798"
       style="stroke:#000000;fill:none"
       d="M 901.417323,829.133858 901.417323,807.874016" />
    <path
       id="path12800"
       style="stroke:#000000;fill:none"
       d="M 901.417323,807.874016 919.381890,807.874016" />
    <path
       id="path12802"
       style="stroke:#000000;fill:none"
       d="M 919.381890,807.874016 919.381890,786.614173" />
    <path
       id="path12804"
       style="stroke:#000000;fill:none"
       d="M 919.381890,786.614173 901.417323,786.614173" />
    <path
       id="path12806"
       style="stroke:#000000;fill:none"
       d="M 901.417323,786.614173 901.417323,765.354331" />
    <path
       id="path12808"
       style="stroke:#000000;fill:none"
       d="M 901.417323,765.354331 919.381890,765.354331" />
    <path
       id="path12810"
       style="stroke:#000000;fill:none"
       d="M 919.381890,765.354331 919.381890,744.094488" />
    <path
       id="path12812"
       style="stroke:#000000;fill:none"
       d="M 919.381890,744.094488 901.417323,744.094488" />
    <path
       id="path12814"
       style="stroke:#000000;fill:none"
       d="M 901.417323,744.094488 901.417323,627.165354" />
    <path
       id="path12816"
       style="stroke:#000000;fill:none"
       d="M 901.417323,627.165354 737.716535,627.165354" />
    <path
       id="path12818"
       style="stroke:#000000;fill:none"
       d="M 737.716535,627.165354 737.716535,609.200787" />
    <path
       id="path12820"
       style="stroke:#000000;fill:none"
       d="M 737.716535,609.200787 716.456693,609.200787" />
    <path
       id="path12822"
       style="stroke:#000000;fill:none"
       d="M 716.456693,609.200787 716.456693,627.165354" />
    <path
       id="path12824"
       style="stroke:#000000;fill:none"
       d="M 716.456693,627.165354 695.196850,627.165354" />
    <path
       id="path12826"
       style="stroke:#000000;fill:none"
       d="M 695.196850,627.165354 695.196850,609.200787" />
    <path
       id="path12828"
       style="stroke:#000000;fill:none"
       d="M 695.196850,609.200787 673.937008,609.200787" />
    <path
       id="path12830"
       style="stroke:#000000;fill:none"
       d="M 673.937008,609.200787 673.937008,627.165354" />
    <path
       id="path12832"
       style="stroke:#000000;fill:none"
       d="M 673.937008,627.165354 652.677165,627.165354" />
    <path
       id="path12834"
       style="stroke:#000000;fill:none"
       d="M 652.677165,627.165354 652.677165,609.200787" />
    <path
       id="path12836"
       style="stroke:#000000;fill:none"
       d="M 652.677165,609.200787 631.417323,609.200787" />
    <path
       id="path12838"
       style="stroke:#000000;fill:none"
       d="M 631.417323,609.200787 631.417323,627.165354" />
    <path
       id="path12840"
       style="stroke:#000000;fill:none"
       d="M 631.417323,627.165354 610.157480,627.165354" />
    <path
       id="path12842"
       style="stroke:#000000;fill:none"
       d="M 610.157480,627.165354 610.157480,609.200787" />
    <path
       id="path12844"
       style="stroke:#000000;fill:none"
       d="M 610.157480,609.200787 588.897638,609.200787" />
    <path
       id="path12846"
       style="stroke:#000000;fill:none"
       d="M 588.897638,609.200787 588.897638,627.165354" />
    <path
       id="path12848"
       style="stroke:#000000;fill:none"
       d="M 588.897638,627.165354 567.637795,627.165354" />
    <path
       id="path12850"
       style="stroke:#000000;fill:none"
       d="M 567.637795,627.165354 567.637795,609.200787" />
    <path
       id="path12852"
       style="stroke:#000000;fill:none"
       d="M 567.637795,609.200787 546.377953,609.200787" />
    <path
       id="path12854"
       style="stroke:#000000;fill:none"
       d="M 546.377953,609.200787 546.377953,627.165354" />
    <path
       id="path12856"
       style="stroke:#000000;fill:none"
       d="M 546.377953,627.165354 525.118110,627.165354" />
    <path
       id="path12858"
       style="stroke:#000000;fill:none"
       d="M 525.118110,627.165354 525.118110,609.200787" />
    <path
       id="path12860"
       style="stroke:#000000;fill:none"
       d="M 525.118110,609.200787 503.858268,609.200787" />
    <path
       id="path12862"
       style="stroke:#000000;fill:none"
       d="M 503.858268,609.200787 503.858268,627.165354" />
    <path
       id="path12864"
       style="stroke:#000000;fill:none"
       d="M 503.858268,627.165354 482.598425,627.165354" />
    <path
       id="path12866"
       style="stroke:#000000;fill:none"
       d="M 482.598425,627.165354 482.598425,609.200787" />
    <path
       id="path12868"
       style="stroke:#000000;fill:none"
       d="M 482.598425,609.200787 461.338583,609.200787" />
    <path
       id="path12870"
       style="stroke:#000000;fill:none"
       d="M 461.338583,609.200787 461.338583,627.165354" />
    <path
       id="path12872"
       style="stroke:#000000;fill:none"
       d="M 461.338583,627.165354 440.078740,627.165354" />
    <path
       id="path12874"
       style="stroke:#000000;fill:none"
       d="M 440.078740,627.165354 440.078740,609.200787" />
    <path
       id="path12876"
       style="stroke:#000000;fill:none"
       d="M 440.078740,609.200787 418.818898,609.200787" />
    <path
       id="path12878"
       style="stroke:#000000;fill:none"
       d="M 418.818898,609.200787 418.818898,627.165354" />
    <path
       id="path12880"
       style="stroke:#000000;fill:none"
       d="M 418.818898,627.165354 397.559055,627.165354" />
    <path
       id="path12882"
       style="stroke:#000000;fill:none"
       d="M 397.559055,627.165354 397.559055,609.200787" />
    <path
       id="path12884"
       style="stroke:#000000;fill:none"
       d="M 397.559055,609.200787 376.299213,609.200787" />
    <path
       id="path12886"
       style="stroke:#000000;fill:none"
       d="M 376.299213,609.200787 376.299213,627.165354" />
    <path
       id="path12888"
       style="stroke:#000000;fill:none"
       d="M 376.299213,627.165354 355.039370,627.165354" />
    <path
       id="path12890"
       style="stroke:#000000;fill:none"
       d="M 355.039370,627.165354 355.039370,609.200787" />
    <path
       id="path12892"
       style="stroke:#000000;fill:none"
       d="M 355.039370,609.200787 333.779528,609.200787" />
    <path
       id="path12894"
       style="stroke:#000000;fill:none"
       d="M 333.779528,609.200787 333.779528,627.165354" />
    <path
       id="path12896"
       style="stroke:#000000;fill:none"
       d="M 333.779528,627.165354 312.519685,627.165354" />
    <path
       id="path12898"
       style="stroke:#000000;fill:none"
       d="M 312.519685,627.165354 312.519685,609.200787" />
    <path
       id="path12900"
       style="stroke:#000000;fill:none"
       d="M 312.519685,609.200787 291.259843,609.200787" />
    <path
       id="path12902"
       style="stroke:#000000;fill:none"
       d="M 291.259843,609.200787 291.259843,627.165354" />
    <path
       id="path12904"
       style="stroke:#000000;fill:none"
       d="M 291.259843,627.165354 270.000000,627.165354" />
    <path
       id="path12906"
       style="stroke:#000000;fill:none"
       d="M 270.000000,627.165354 270.000000,609.200787" />
    <path
       id="path12908"
       style="stroke:#000000;fill:none"
       d="M 270.000000,609.200787 248.740157,609.200787" />
    <path
       id="path12910"
       style="stroke:#000000;fill:none"
       d="M 248.740157,609.200787 248.740157,627.165354" />
    <path
       id="path12912"
       style="stroke:#000000;fill:none"
       d="M 248.740157,627.165354 227.480315,627.165354" />
    <path
       id="path12914"
       style="stroke:#000000;fill:none"
       d="M 227.480315,627.165354 227.480315,609.200787" />
    <path
       id="path12916"
       style="stroke:#000000;fill:none"
       d="M 227.480315,609.200787 206.220472,609.200787" />
    <path
       id="path12918"
       style="stroke:#000000;fill:none"
       d="M 206.220472,609.200787 206.220472,627.165354" />
    <path
       id="path12920"
       style="stroke:#000000;fill:none"
       d="M 206.220472,627.165354 184.960630,627.165354" />
    <path
       id="path12922"
       style="stroke:#000000;fill:none"
       d="M 184.960630,627.165354 184.960630,609.200787" />
    <path
       id="path12924"
       style="stroke:#000000;fill:none"
       d="M 184.960630,609.200787 163.700787,609.200787" />
    <path
       id="path12926"
       style="stroke:#000000;fill:none"
       d="M 163.700787,609.200787 163.700787,627.165354" />
    <path
       id="path12928"
       style="stroke:#000000;fill:none"
       d="M 163.700787,627.165354 0.000000,627.165354" />
    <path
       id="path12930"
       style="stroke:#000000;fill:none"
       d="M 0.000000,627.165354 0.000000,744.094488" />
    <path
       id="path12932"
       style="stroke:#000000;fill:none"
       d="M 0.000000,744.094488 -17.964531,744.094488" />
    <path
       id="path12934"
       style="stroke:#000000;fill:none"
       d="M -17.964531,744.094488 -17.964531,765.354331" />
    <path
       id="path12936"
       style="stroke:#000000;fill:none"
       d="M -17.964531,765.354331 0.000000,765.354331" />
    <path
       id="path12938"
       style="stroke:#000000;fill:none"
       d="M 0.000000,765.354331 0.000000,786.614173" />
    <path
       id="path12940"
       style="stroke:#000000;fill:none"
       d="M 0.000000,786.614173 -17.964531,786.614173" />
    <path
       id="path12942"
       style="stroke:#000000;fill:none"
       d="M -17.964531,786.614173 -17.964531,807.874016" />
    <path
       id="path12944"
       style="stroke:#000000;fill:none"
       d="M -17.964531,807.874016 0.000000,807.874016" />
    <path
       id="path12946"
       style="stroke:#000000;fill:none"
       d="M 0.000000,807.874016 0.000000,829.133858" />
    <path
       id="path12948"
       style="stroke:#000000;fill:none"
       d="M 0.000000,829.133858 -17.964531,829.133858" />
    <path
       id="path12950"
       style="stroke:#000000;fill:none"
       d="M -17.964531,829.133858 -17.964531,850.393701" />
    <path
       id="path12952"
       style="stroke:#000000;fill:none"
       d="M -17.964531,850.393701 0.000000,850.393701" />
    <path
       id="path12954"
       style="stroke:#000000;fill:none"
       d="M 0.000000,850.393701 0.000000,871.653543" />
    <path
       id="path12956"
       style="stroke:#000000;fill:none"
       d="M 0.000000,871.653543 -17.964531,871.653543" />
    <path
       id="path12958"
       style="stroke:#000000;fill:none"
       d="M -17.964531,871.653543 -17.964531,892.913386" />
    <path
       id="path12960"
       style="stroke:#000000;fill:none"
       d="M -17.964531,892.913386 0.000000,892.913386" />
    <path
       id="path12962"
       style="stroke:#000000;fill:none"
       d="M 0.000000,892.913386 0.000000,914.173228" />
    <path
       id="path12964"
       style="stroke:#000000;fill:none"
       d="M 0.000000,914.173228 -17.964531,914.173228" />
    <path
       id="path12966"
       style="stroke:#000000;fill:none"
       d="M -17.964531,914.173228 -17.964531,935.433071" />
    <path
       id="path12968"
       style="stroke:#000000;fill:none"
       d="M -17.964531,935.433071 0.000000,935.433071" />
    <path
       id="path12970"
       style="stroke:#000000;fill:none"
       d="M 0.000000,935.433071 0.000000,1052.362205" />
    <path
       id="path12972"
       style="fill:none;stroke:#000000;stroke-width:0.88841712"
       d="m 0,1052.3622 162.76672,0" />
    <path
       id="path12974"
       style="stroke:#000000;fill:none"
       d="M 206.220472,1052.362205 206.220472,1070.326736" />
    <path
       id="path12976"
       style="stroke:#000000;fill:none"
       d="M 206.220472,1070.326736 227.480315,1070.326736" />
    <path
       id="path12978"
       style="fill:none;stroke:#000000"
       d="m 205.85186,1052.3622 -21.25985,0" />
    <path
       id="path12980"
       style="stroke:#000000;fill:none"
       d="M 163.700787,1052.362205 163.700787,1070.326736" />
    <path
       id="path12982"
       style="stroke:#000000;fill:none"
       d="M 163.700787,1070.326736 184.960630,1070.326736" />
    <path
       id="path12984"
       style="stroke:#000000;fill:none"
       d="M 184.960630,1070.326736 184.960630,1052.362205" />
  </g>
</svg>
