<?xml version="1.0" encoding="UTF-8" standalone="no"?>
<svg
   xmlns:dc="http://purl.org/dc/elements/1.1/"
   xmlns:cc="http://creativecommons.org/ns#"
   xmlns:rdf="http://www.w3.org/1999/02/22-rdf-syntax-ns#"
   xmlns:svg="http://www.w3.org/2000/svg"
   xmlns="http://www.w3.org/2000/svg"
   xmlns:sodipodi="http://sodipodi.sourceforge.net/DTD/sodipodi-0.dtd"
   xmlns:inkscape="http://www.inkscape.org/namespaces/inkscape"
   width="269"
   height="225"
   viewBox="-6 -219 269 225"
   version="1.1"
   id="svg22001"
   inkscape:version="0.91 r13725"
   sodipodi:docname="box-001.svg">
  <metadata
     id="metadata22011">
    <rdf:RDF>
      <cc:Work
         rdf:about="">
        <dc:format>image/svg+xml</dc:format>
        <dc:type
           rdf:resource="http://purl.org/dc/dcmitype/StillImage" />
      </cc:Work>
    </rdf:RDF>
  </metadata>
  <defs
     id="defs22009" />
  <sodipodi:namedview
     pagecolor="#ffffff"
     bordercolor="#666666"
     borderopacity="1"
     objecttolerance="10"
     gridtolerance="10"
     guidetolerance="10"
     inkscape:pageopacity="0"
     inkscape:pageshadow="2"
     inkscape:window-width="1024"
     inkscape:window-height="768"
     id="namedview22007"
     showgrid="false"
     inkscape:zoom="1.4885515"
     inkscape:cx="47.68337"
     inkscape:cy="75.887029"
     inkscape:window-x="0"
     inkscape:window-y="0"
     inkscape:window-maximized="0"
     inkscape:current-layer="svg22001" />
  <title
     id="title22003">OpenSCAD Model</title>
  <path
     d="M 6 0.36914062 L 6 3.4042969 L 11.070312 3.4042969 L 11.070312 6.4042969 L 6 6.4042969 L 6 9.4042969 L 11.070312 9.4042969 L 11.070312 12.404297 L 6 12.404297 L 6 15.404297 L 11.070312 15.404297 L 11.070312 18.404297 L 6 18.404297 L 6 21.439453 L 57.570312 21.439453 L 57.570312 16.369141 L 60.570312 16.369141 L 60.570312 21.439453 L 63.570312 21.439453 L 63.570312 16.369141 L 66.570312 16.369141 L 66.570312 21.439453 L 69.570312 21.439453 L 69.570312 16.369141 L 72.570312 16.369141 L 72.570312 21.439453 L 75.570312 21.439453 L 75.570312 16.369141 L 78.570312 16.369141 L 78.570312 21.439453 L 81.570312 21.439453 L 81.570312 16.369141 L 84.570312 16.369141 L 84.570312 21.439453 L 136.14062 21.439453 L 136.14062 18.404297 L 131.07031 18.404297 L 131.07031 15.404297 L 136.14062 15.404297 L 136.14062 12.404297 L 131.07031 12.404297 L 131.07031 9.4042969 L 136.14062 9.4042969 L 136.14062 6.4042969 L 131.07031 6.4042969 L 131.07031 3.4042969 L 136.14062 3.4042969 L 136.14062 0.36914062 L 6 0.36914062 z M 138.67578 0.36914062 L 138.67578 3.4042969 L 143.74414 3.4042969 L 143.74414 6.4042969 L 138.67578 6.4042969 L 138.67578 9.4042969 L 143.74414 9.4042969 L 143.74414 12.404297 L 138.67578 12.404297 L 138.67578 15.404297 L 143.74414 15.404297 L 143.74414 18.404297 L 138.67578 18.404297 L 138.67578 21.439453 L 190.24414 21.439453 L 190.24414 16.369141 L 193.24414 16.369141 L 193.24414 21.439453 L 196.24414 21.439453 L 196.24414 16.369141 L 199.24414 16.369141 L 199.24414 21.439453 L 202.24414 21.439453 L 202.24414 16.369141 L 205.24414 16.369141 L 205.24414 21.439453 L 208.24414 21.439453 L 208.24414 16.369141 L 211.24414 16.369141 L 211.24414 21.439453 L 214.24414 21.439453 L 214.24414 16.369141 L 217.24414 16.369141 L 217.24414 21.439453 L 268.81445 21.439453 L 268.81445 18.404297 L 263.74414 18.404297 L 263.74414 15.404297 L 268.81445 15.404297 L 268.81445 12.404297 L 263.74414 12.404297 L 263.74414 9.4042969 L 268.81445 9.4042969 L 268.81445 6.4042969 L 263.74414 6.4042969 L 263.74414 3.4042969 L 268.81445 3.4042969 L 268.81445 0.36914062 L 138.67578 0.36914062 z M 26.279297 2.8007812 L 111.07031 2.8007812 L 111.07031 5.4394531 L 26.279297 5.4394531 L 26.279297 2.8007812 z M 158.95508 2.8007812 L 243.74414 2.8007812 L 243.74414 5.4394531 L 158.95508 5.4394531 L 158.95508 2.8007812 z M 0.9296875 29.615234 L 0.9296875 32.615234 L 6 32.615234 L 6 29.615234 L 0.9296875 29.615234 z M 255.85938 29.615234 L 255.85938 32.615234 L 260.92969 32.615234 L 260.92969 29.615234 L 255.85938 29.615234 z M 6 32.664062 L 6 35.615234 L 0.9296875 35.615234 L 0.9296875 38.615234 L 6 38.615234 L 6 41.615234 L 0.9296875 41.615234 L 0.9296875 44.615234 L 6 44.615234 L 6 47.650391 L 90.429688 47.650391 L 90.429688 42.580078 L 93.429688 42.580078 L 93.429688 47.650391 L 96.429688 47.650391 L 96.429688 42.580078 L 99.429688 42.580078 L 99.429688 47.650391 L 102.42969 47.650391 L 102.42969 42.580078 L 105.42969 42.580078 L 105.42969 47.650391 L 108.42969 47.650391 L 108.42969 42.580078 L 111.42969 42.580078 L 111.42969 47.650391 L 114.42969 47.650391 L 114.42969 42.580078 L 117.42969 42.580078 L 117.42969 47.650391 L 120.42969 47.650391 L 120.42969 42.580078 L 123.42969 42.580078 L 123.42969 47.650391 L 126.42969 47.650391 L 126.42969 42.580078 L 129.42969 42.580078 L 129.42969 47.650391 L 132.42969 47.650391 L 132.42969 42.580078 L 135.42969 42.580078 L 135.42969 47.650391 L 138.42969 47.650391 L 138.42969 42.580078 L 141.42969 42.580078 L 141.42969 47.650391 L 144.42969 47.650391 L 144.42969 42.580078 L 147.42969 42.580078 L 147.42969 47.650391 L 150.42969 47.650391 L 150.42969 42.580078 L 153.42969 42.580078 L 153.42969 47.650391 L 156.42969 47.650391 L 156.42969 42.580078 L 159.42969 42.580078 L 159.42969 47.650391 L 162.42969 47.650391 L 162.42969 42.580078 L 165.42969 42.580078 L 165.42969 47.650391 L 168.42969 47.650391 L 168.42969 42.580078 L 171.42969 42.580078 L 171.42969 47.650391 L 255.85938 47.650391 L 255.85938 44.615234 L 260.92969 44.615234 L 260.92969 41.615234 L 255.85938 41.615234 L 255.85938 38.615234 L 260.92969 38.615234 L 260.92969 35.615234 L 255.85938 35.615234 L 255.85938 32.664062 L 6 32.664062 z M 6 62.789062 L 6 65.824219 L 0.9296875 65.824219 L 0.9296875 68.824219 L 6 68.824219 L 6 71.824219 L 0.9296875 71.824219 L 0.9296875 74.824219 L 6 74.824219 L 6 77.824219 L 0.9296875 77.824219 L 0.9296875 80.824219 L 6 80.824219 L 6 83.859375 L 90.429688 83.859375 L 90.429688 78.789062 L 93.429688 78.789062 L 93.429688 83.859375 L 96.429688 83.859375 L 96.429688 78.789062 L 99.429688 78.789062 L 99.429688 83.859375 L 102.42969 83.859375 L 102.42969 78.789062 L 105.42969 78.789062 L 105.42969 83.859375 L 108.42969 83.859375 L 108.42969 78.789062 L 111.42969 78.789062 L 111.42969 83.859375 L 114.42969 83.859375 L 114.42969 78.789062 L 117.42969 78.789062 L 117.42969 83.859375 L 120.42969 83.859375 L 120.42969 78.789062 L 123.42969 78.789062 L 123.42969 83.859375 L 126.42969 83.859375 L 126.42969 78.789062 L 129.42969 78.789062 L 129.42969 83.859375 L 132.42969 83.859375 L 132.42969 78.789062 L 135.42969 78.789062 L 135.42969 83.859375 L 138.42969 83.859375 L 138.42969 78.789062 L 141.42969 78.789062 L 141.42969 83.859375 L 144.42969 83.859375 L 144.42969 78.789062 L 147.42969 78.789062 L 147.42969 83.859375 L 150.42969 83.859375 L 150.42969 78.789062 L 153.42969 78.789062 L 153.42969 83.859375 L 156.42969 83.859375 L 156.42969 78.789062 L 159.42969 78.789062 L 159.42969 83.859375 L 162.42969 83.859375 L 162.42969 78.789062 L 165.42969 78.789062 L 165.42969 83.859375 L 168.42969 83.859375 L 168.42969 78.789062 L 171.42969 78.789062 L 171.42969 83.859375 L 255.85938 83.859375 L 255.85938 80.824219 L 260.92969 80.824219 L 260.92969 77.824219 L 255.85938 77.824219 L 255.85938 74.824219 L 260.92969 74.824219 L 260.92969 71.824219 L 255.85938 71.824219 L 255.85938 68.824219 L 260.92969 68.824219 L 260.92969 65.824219 L 255.85938 65.824219 L 255.85938 62.789062 L 6 62.789062 z M 49.929688 93.929688 L 49.929688 99 L 6 99 L 6 132 L 0.9296875 132 L 0.9296875 138 L 6 138 L 6 144 L 0.9296875 144 L 0.9296875 150 L 6 150 L 6 156 L 0.9296875 156 L 0.9296875 162 L 6 162 L 6 168 L 0.9296875 168 L 0.9296875 174 L 6 174 L 6 180 L 0.9296875 180 L 0.9296875 186 L 6 186 L 6 219 L 49.929688 219 L 49.929688 224.07031 L 55.929688 224.07031 L 55.929688 219 L 61.929688 219 L 61.929688 224.07031 L 67.929688 224.07031 L 67.929688 219 L 73.929688 219 L 73.929688 224.07031 L 79.929688 224.07031 L 79.929688 219 L 85.929688 219 L 85.929688 224.07031 L 91.929688 224.07031 L 91.929688 219 L 97.929688 219 L 97.929688 224.07031 L 103.92969 224.07031 L 103.92969 219 L 109.92969 219 L 109.92969 224.07031 L 115.92969 224.07031 L 115.92969 219 L 121.92969 219 L 121.92969 224.07031 L 127.92969 224.07031 L 127.92969 219 L 133.92969 219 L 133.92969 224.07031 L 139.92969 224.07031 L 139.92969 219 L 145.92969 219 L 145.92969 224.07031 L 151.92969 224.07031 L 151.92969 219 L 157.92969 219 L 157.92969 224.07031 L 163.92969 224.07031 L 163.92969 219 L 169.92969 219 L 169.92969 224.07031 L 175.92969 224.07031 L 175.92969 219 L 181.92969 219 L 181.92969 224.07031 L 187.92969 224.07031 L 187.92969 219 L 193.92969 219 L 193.92969 224.07031 L 199.92969 224.07031 L 199.92969 219 L 205.92969 219 L 205.92969 224.07031 L 211.92969 224.07031 L 211.92969 219 L 255.85938 219 L 255.85938 186 L 260.92969 186 L 260.92969 180 L 255.85938 180 L 255.85938 174 L 260.92969 174 L 260.92969 168 L 255.85938 168 L 255.85938 162 L 260.92969 162 L 260.92969 156 L 255.85938 156 L 255.85938 150 L 260.92969 150 L 260.92969 144 L 255.85938 144 L 255.85938 138 L 260.92969 138 L 260.92969 132 L 255.85938 132 L 255.85938 99 L 211.92969 99 L 211.92969 93.929688 L 205.92969 93.929688 L 205.92969 99 L 199.92969 99 L 199.92969 93.929688 L 193.92969 93.929688 L 193.92969 99 L 187.92969 99 L 187.92969 93.929688 L 181.92969 93.929688 L 181.92969 99 L 175.92969 99 L 175.92969 93.929688 L 169.92969 93.929688 L 169.92969 99 L 163.92969 99 L 163.92969 93.929688 L 157.92969 93.929688 L 157.92969 99 L 151.92969 99 L 151.92969 93.929688 L 145.92969 93.929688 L 145.92969 99 L 139.92969 99 L 139.92969 93.929688 L 133.92969 93.929688 L 133.92969 99 L 127.92969 99 L 127.92969 93.929688 L 121.92969 93.929688 L 121.92969 99 L 115.92969 99 L 115.92969 93.929688 L 109.92969 93.929688 L 109.92969 99 L 103.92969 99 L 103.92969 93.929688 L 97.929688 93.929688 L 97.929688 99 L 91.929688 99 L 91.929688 93.929688 L 85.929688 93.929688 L 85.929688 99 L 79.929688 99 L 79.929688 93.929688 L 73.929688 93.929688 L 73.929688 99 L 67.929688 99 L 67.929688 93.929688 L 61.929688 93.929688 L 61.929688 99 L 55.929688 99 L 55.929688 93.929688 L 49.929688 93.929688 z "
     transform="translate(-6,-219)"
     id="path22005"
     style="stroke:#000000;stroke-opacity:1;fill:none" />
</svg>
