  0
SECTION
  2
HEADER
  9
$ACADVER
  1
AC1014
  9
$HANDSEED
  5
FFFF
  9
$MEASUREMENT
 70
     1
  0
ENDSEC
  0
SECTION
  2
TABLES
  0
TABLE
  2
VPORT
  5
8
330
0
100
AcDbSymbolTable
 70
     4
  0
VPORT
  5
2E
330
8
100
AcDbSymbolTableRecord
100
AcDbViewportTableRecord
  2
*ACTIVE
 70
     0
 10
0.0
 20
0.0
 11
1.0
 21
1.0
 12
210.0
 22
148.5
 13
0.0
 23
0.0
 14
10.0
 24
10.0
 15
10.0
 25
10.0
 16
0.0
 26
0.0
 36
1.0
 17
0.0
 27
0.0
 37
0.0
 40
341.0
 41
1.24
 42
50.0
 43
0.0
 44
0.0
 50
0.0
 51
0.0
 71
     0
 72
   100
 73
     1
 74
     3
 75
     0
 76
     0
 77
     0
 78
     0
  0
ENDTAB
  0
TABLE
  2
LTYPE
  5
5
330
0
100
AcDbSymbolTable
 70
     1
  0
LTYPE
  5
14
330
5
100
AcDbSymbolTableRecord
100
AcDbLinetypeTableRecord
  2
BYBLOCK
 70
     0
  3

 72
    65
 73
     0
 40
0.0
  0
LTYPE
  5
15
330
5
100
AcDbSymbolTableRecord
100
AcDbLinetypeTableRecord
  2
BYLAYER
 70
     0
  3

 72
    65
 73
     0
 40
0.0
  0
LTYPE
  5
16
330
5
100
AcDbSymbolTableRecord
100
AcDbLinetypeTableRecord
  2
CONTINUOUS
 70
     0
  3
Solid line
 72
    65
 73
     0
 40
0.0
  0
ENDTAB
  0
TABLE
  2
LAYER
  5
2
100
AcDbSymbolTable
 70
1
  0
LAYER
  5
50
100
AcDbSymbolTableRecord
100
AcDbLayerTableRecord
  2
0
 70
0
  6
CONTINUOUS
  0
ENDTAB
  0
TABLE
  2
STYLE
  5
3
330
0
100
AcDbSymbolTable
 70
     1
  0
STYLE
  5
11
330
3
100
AcDbSymbolTableRecord
100
AcDbTextStyleTableRecord
  2
STANDARD
 70
     0
 40
0.0
 41
1.0
 50
0.0
 71
     0
 42
2.5
  3
txt
  4

  0
ENDTAB
  0
TABLE
  2
VIEW
  5
6
330
0
100
AcDbSymbolTable
 70
     0
  0
ENDTAB
  0
TABLE
  2
UCS
  5
7
330
0
100
AcDbSymbolTable
 70
     0
  0
ENDTAB
  0
TABLE
  2
APPID
  5
9
330
0
100
AcDbSymbolTable
 70
     2
  0
APPID
  5
12
330
9
100
AcDbSymbolTableRecord
100
AcDbRegAppTableRecord
  2
ACAD
 70
     0
  0
ENDTAB
  0
TABLE
  2
DIMSTYLE
  5
A
330
0
100
AcDbSymbolTable
 70
     1
  0
DIMSTYLE
105
27
330
A
100
AcDbSymbolTableRecord
100
AcDbDimStyleTableRecord
  2
ISO-25
 70
     0
  3

  4

  5

  6

  7

 40
1.0
 41
2.5
 42
0.625
 43
3.75
 44
1.25
 45
0.0
 46
0.0
 47
0.0
 48
0.0
140
2.5
141
2.5
142
0.0
143
0.03937007874016
144
1.0
145
0.0
146
1.0
147
0.625
 71
     0
 72
     0
 73
     0
 74
     0
 75
     0
 76
     0
 77
     1
 78
     8
170
     0
171
     3
172
     1
173
     0
174
     0
175
     0
176
     0
177
     0
178
     0
270
     2
271
     2
272
     2
273
     2
274
     3
340
11
275
     0
280
     0
281
     0
282
     0
283
     0
284
     8
285
     0
286
     0
287
     3
288
     0
  0
ENDTAB
  0
TABLE
  2
BLOCK_RECORD
  5
1
330
0
100
AcDbSymbolTable
 70
     1
  0
BLOCK_RECORD
  5
1F
330
1
100
AcDbSymbolTableRecord
100
AcDbBlockTableRecord
  2
*MODEL_SPACE
  0
BLOCK_RECORD
  5
1B
330
1
100
AcDbSymbolTableRecord
100
AcDbBlockTableRecord
  2
*PAPER_SPACE
  0
ENDTAB
  0
ENDSEC
  0
SECTION
  2
BLOCKS
  0
BLOCK
  5
20
330
1F
100
AcDbEntity
  8
0
100
AcDbBlockBegin
  2
*MODEL_SPACE
 70
     0
 10
0.0
 20
0.0
 30
0.0
  3
*MODEL_SPACE
  1

  0
ENDBLK
  5
21
330
1F
100
AcDbEntity
  8
0
100
AcDbBlockEnd
  0
BLOCK
  5
1C
330
1B
100
AcDbEntity
 67
     1
  8
0
100
AcDbBlockBegin
  2
*PAPER_SPACE
  1

  0
ENDBLK
  5
1D
330
1B
100
AcDbEntity
 67
     1
  8
0
100
AcDbBlockEnd
  0
ENDSEC
  0
SECTION
  2
ENTITIES
  0
LWPOLYLINE
  5
100
100
AcDbEntity
  8
0
 62
7
100
AcDbPolyline
 90
50
 70
0
 10
-0.000006
 20
125.202282
 30
0.0
 10
-0.000006
 20
124.345740
 30
0.0
 10
1.430883
 20
124.345740
 30
0.0
 10
1.430883
 20
123.498999
 30
0.0
 10
-0.000006
 20
123.498999
 30
0.0
 10
-0.000006
 20
122.652413
 30
0.0
 10
1.430883
 20
122.652413
 30
0.0
 10
1.430883
 20
121.805672
 30
0.0
 10
-0.000006
 20
121.805672
 30
0.0
 10
-0.000006
 20
120.959086
 30
0.0
 10
1.430883
 20
120.959086
 30
0.0
 10
1.430883
 20
120.112345
 30
0.0
 10
-0.000006
 20
120.112345
 30
0.0
 10
-0.000006
 20
119.255803
 30
0.0
 10
14.554207
 20
119.255803
 30
0.0
 10
14.554207
 20
120.686691
 30
0.0
 10
15.400793
 20
120.686691
 30
0.0
 10
15.400793
 20
119.255803
 30
0.0
 10
16.247535
 20
119.255803
 30
0.0
 10
16.247535
 20
120.686691
 30
0.0
 10
17.094276
 20
120.686691
 30
0.0
 10
17.094276
 20
119.255803
 30
0.0
 10
17.940861
 20
119.255803
 30
0.0
 10
17.940861
 20
120.686691
 30
0.0
 10
18.787603
 20
120.686691
 30
0.0
 10
18.787603
 20
119.255803
 30
0.0
 10
19.634189
 20
119.255803
 30
0.0
 10
19.634189
 20
120.686691
 30
0.0
 10
20.480930
 20
120.686691
 30
0.0
 10
20.480930
 20
119.255803
 30
0.0
 10
21.327516
 20
119.255803
 30
0.0
 10
21.327516
 20
120.686691
 30
0.0
 10
22.174257
 20
120.686691
 30
0.0
 10
22.174257
 20
119.255803
 30
0.0
 10
36.728471
 20
119.255803
 30
0.0
 10
36.728471
 20
120.112345
 30
0.0
 10
35.297582
 20
120.112345
 30
0.0
 10
35.297582
 20
120.959086
 30
0.0
 10
36.728471
 20
120.959086
 30
0.0
 10
36.728471
 20
121.805672
 30
0.0
 10
35.297582
 20
121.805672
 30
0.0
 10
35.297582
 20
122.652413
 30
0.0
 10
36.728471
 20
122.652413
 30
0.0
 10
36.728471
 20
123.498999
 30
0.0
 10
35.297582
 20
123.498999
 30
0.0
 10
35.297582
 20
124.345740
 30
0.0
 10
36.728471
 20
124.345740
 30
0.0
 10
36.728471
 20
125.202282
 30
0.0
 10
-0.000006
 20
125.202282
 30
0.0
 10
-0.000006
 20
125.202282
 30
0.0
  0
LWPOLYLINE
  5
101
100
AcDbEntity
  8
0
 62
7
100
AcDbPolyline
 90
50
 70
0
 10
37.443760
 20
125.202282
 30
0.0
 10
37.443760
 20
124.345740
 30
0.0
 10
38.874648
 20
124.345740
 30
0.0
 10
38.874648
 20
123.498999
 30
0.0
 10
37.443760
 20
123.498999
 30
0.0
 10
37.443760
 20
122.652413
 30
0.0
 10
38.874648
 20
122.652413
 30
0.0
 10
38.874648
 20
121.805672
 30
0.0
 10
37.443760
 20
121.805672
 30
0.0
 10
37.443760
 20
120.959086
 30
0.0
 10
38.874648
 20
120.959086
 30
0.0
 10
38.874648
 20
120.112345
 30
0.0
 10
37.443760
 20
120.112345
 30
0.0
 10
37.443760
 20
119.255803
 30
0.0
 10
51.997973
 20
119.255803
 30
0.0
 10
51.997973
 20
120.686691
 30
0.0
 10
52.844714
 20
120.686691
 30
0.0
 10
52.844714
 20
119.255803
 30
0.0
 10
53.691300
 20
119.255803
 30
0.0
 10
53.691300
 20
120.686691
 30
0.0
 10
54.538042
 20
120.686691
 30
0.0
 10
54.538042
 20
119.255803
 30
0.0
 10
55.384627
 20
119.255803
 30
0.0
 10
55.384627
 20
120.686691
 30
0.0
 10
56.231368
 20
120.686691
 30
0.0
 10
56.231368
 20
119.255803
 30
0.0
 10
57.078110
 20
119.255803
 30
0.0
 10
57.078110
 20
120.686691
 30
0.0
 10
57.924696
 20
120.686691
 30
0.0
 10
57.924696
 20
119.255803
 30
0.0
 10
58.771437
 20
119.255803
 30
0.0
 10
58.771437
 20
120.686691
 30
0.0
 10
59.618023
 20
120.686691
 30
0.0
 10
59.618023
 20
119.255803
 30
0.0
 10
74.172236
 20
119.255803
 30
0.0
 10
74.172236
 20
120.112345
 30
0.0
 10
72.741348
 20
120.112345
 30
0.0
 10
72.741348
 20
120.959086
 30
0.0
 10
74.172236
 20
120.959086
 30
0.0
 10
74.172236
 20
121.805672
 30
0.0
 10
72.741348
 20
121.805672
 30
0.0
 10
72.741348
 20
122.652413
 30
0.0
 10
74.172236
 20
122.652413
 30
0.0
 10
74.172236
 20
123.498999
 30
0.0
 10
72.741348
 20
123.498999
 30
0.0
 10
72.741348
 20
124.345740
 30
0.0
 10
74.172236
 20
124.345740
 30
0.0
 10
74.172236
 20
125.202282
 30
0.0
 10
37.443760
 20
125.202282
 30
0.0
 10
37.443760
 20
125.202282
 30
0.0
  0
LWPOLYLINE
  5
102
100
AcDbEntity
  8
0
 62
7
100
AcDbPolyline
 90
6
 70
0
 10
5.723393
 20
124.516395
 30
0.0
 10
29.653055
 20
124.516395
 30
0.0
 10
29.653055
 20
123.771394
 30
0.0
 10
5.723393
 20
123.771394
 30
0.0
 10
5.723393
 20
124.516395
 30
0.0
 10
5.723393
 20
124.516395
 30
0.0
  0
LWPOLYLINE
  5
103
100
AcDbEntity
  8
0
 62
7
100
AcDbPolyline
 90
6
 70
0
 10
43.167314
 20
124.516395
 30
0.0
 10
67.096975
 20
124.516395
 30
0.0
 10
67.096975
 20
123.771394
 30
0.0
 10
43.167314
 20
123.771394
 30
0.0
 10
43.167314
 20
124.516395
 30
0.0
 10
43.167314
 20
124.516395
 30
0.0
  0
LWPOLYLINE
  5
104
100
AcDbEntity
  8
0
 62
7
100
AcDbPolyline
 90
6
 70
0
 10
-1.430895
 20
116.948615
 30
0.0
 10
-1.430895
 20
116.102030
 30
0.0
 10
-0.000006
 20
116.102030
 30
0.0
 10
-0.000006
 20
116.948615
 30
0.0
 10
-1.430895
 20
116.948615
 30
0.0
 10
-1.430895
 20
116.948615
 30
0.0
  0
LWPOLYLINE
  5
105
100
AcDbEntity
  8
0
 62
7
100
AcDbPolyline
 90
6
 70
0
 10
70.515987
 20
116.948615
 30
0.0
 10
70.515987
 20
116.102030
 30
0.0
 10
71.946876
 20
116.102030
 30
0.0
 10
71.946876
 20
116.948615
 30
0.0
 10
70.515987
 20
116.948615
 30
0.0
 10
70.515987
 20
116.948615
 30
0.0
  0
LWPOLYLINE
  5
106
100
AcDbEntity
  8
0
 62
7
100
AcDbPolyline
 90
78
 70
0
 10
-0.000006
 20
116.088184
 30
0.0
 10
-0.000006
 20
115.255288
 30
0.0
 10
-1.430895
 20
115.255288
 30
0.0
 10
-1.430895
 20
114.408702
 30
0.0
 10
-0.000006
 20
114.408702
 30
0.0
 10
-0.000006
 20
113.561961
 30
0.0
 10
-1.430895
 20
113.561961
 30
0.0
 10
-1.430895
 20
112.715375
 30
0.0
 10
-0.000006
 20
112.715375
 30
0.0
 10
-0.000006
 20
111.858833
 30
0.0
 10
23.828071
 20
111.858833
 30
0.0
 10
23.828071
 20
113.289721
 30
0.0
 10
24.674657
 20
113.289721
 30
0.0
 10
24.674657
 20
111.858833
 30
0.0
 10
25.521398
 20
111.858833
 30
0.0
 10
25.521398
 20
113.289721
 30
0.0
 10
26.367984
 20
113.289721
 30
0.0
 10
26.367984
 20
111.858833
 30
0.0
 10
27.214726
 20
111.858833
 30
0.0
 10
27.214726
 20
113.289721
 30
0.0
 10
28.061311
 20
113.289721
 30
0.0
 10
28.061311
 20
111.858833
 30
0.0
 10
28.908052
 20
111.858833
 30
0.0
 10
28.908052
 20
113.289721
 30
0.0
 10
29.754639
 20
113.289721
 30
0.0
 10
29.754639
 20
111.858833
 30
0.0
 10
30.601380
 20
111.858833
 30
0.0
 10
30.601380
 20
113.289721
 30
0.0
 10
31.447965
 20
113.289721
 30
0.0
 10
31.447965
 20
111.858833
 30
0.0
 10
32.294707
 20
111.858833
 30
0.0
 10
32.294707
 20
113.289721
 30
0.0
 10
33.141293
 20
113.289721
 30
0.0
 10
33.141293
 20
111.858833
 30
0.0
 10
33.988034
 20
111.858833
 30
0.0
 10
33.988034
 20
113.289721
 30
0.0
 10
34.834620
 20
113.289721
 30
0.0
 10
34.834620
 20
111.858833
 30
0.0
 10
35.681361
 20
111.858833
 30
0.0
 10
35.681361
 20
113.289721
 30
0.0
 10
36.527947
 20
113.289721
 30
0.0
 10
36.527947
 20
111.858833
 30
0.0
 10
37.374689
 20
111.858833
 30
0.0
 10
37.374689
 20
113.289721
 30
0.0
 10
38.221430
 20
113.289721
 30
0.0
 10
38.221430
 20
111.858833
 30
0.0
 10
39.068016
 20
111.858833
 30
0.0
 10
39.068016
 20
113.289721
 30
0.0
 10
39.914757
 20
113.289721
 30
0.0
 10
39.914757
 20
111.858833
 30
0.0
 10
40.761343
 20
111.858833
 30
0.0
 10
40.761343
 20
113.289721
 30
0.0
 10
41.608084
 20
113.289721
 30
0.0
 10
41.608084
 20
111.858833
 30
0.0
 10
42.454670
 20
111.858833
 30
0.0
 10
42.454670
 20
113.289721
 30
0.0
 10
43.301412
 20
113.289721
 30
0.0
 10
43.301412
 20
111.858833
 30
0.0
 10
44.147997
 20
111.858833
 30
0.0
 10
44.147997
 20
113.289721
 30
0.0
 10
44.994739
 20
113.289721
 30
0.0
 10
44.994739
 20
111.858833
 30
0.0
 10
45.841325
 20
111.858833
 30
0.0
 10
45.841325
 20
113.289721
 30
0.0
 10
46.688066
 20
113.289721
 30
0.0
 10
46.688066
 20
111.858833
 30
0.0
 10
70.515987
 20
111.858833
 30
0.0
 10
70.515987
 20
112.715375
 30
0.0
 10
71.946876
 20
112.715375
 30
0.0
 10
71.946876
 20
113.561961
 30
0.0
 10
70.515987
 20
113.561961
 30
0.0
 10
70.515987
 20
114.408702
 30
0.0
 10
71.946876
 20
114.408702
 30
0.0
 10
71.946876
 20
115.255288
 30
0.0
 10
70.515987
 20
115.255288
 30
0.0
 10
70.515987
 20
116.088184
 30
0.0
 10
-0.000006
 20
116.088184
 30
0.0
 10
-0.000006
 20
116.088184
 30
0.0
  0
LWPOLYLINE
  5
107
100
AcDbEntity
  8
0
 62
7
100
AcDbPolyline
 90
86
 70
0
 10
-0.000006
 20
107.585923
 30
0.0
 10
-0.000006
 20
106.729382
 30
0.0
 10
-1.430895
 20
106.729382
 30
0.0
 10
-1.430895
 20
105.882796
 30
0.0
 10
-0.000006
 20
105.882796
 30
0.0
 10
-0.000006
 20
105.036054
 30
0.0
 10
-1.430895
 20
105.036054
 30
0.0
 10
-1.430895
 20
104.189313
 30
0.0
 10
-0.000006
 20
104.189313
 30
0.0
 10
-0.000006
 20
103.342727
 30
0.0
 10
-1.430895
 20
103.342727
 30
0.0
 10
-1.430895
 20
102.495986
 30
0.0
 10
-0.000006
 20
102.495986
 30
0.0
 10
-0.000006
 20
101.639444
 30
0.0
 10
23.828071
 20
101.639444
 30
0.0
 10
23.828071
 20
103.070333
 30
0.0
 10
24.674657
 20
103.070333
 30
0.0
 10
24.674657
 20
101.639444
 30
0.0
 10
25.521398
 20
101.639444
 30
0.0
 10
25.521398
 20
103.070333
 30
0.0
 10
26.367984
 20
103.070333
 30
0.0
 10
26.367984
 20
101.639444
 30
0.0
 10
27.214726
 20
101.639444
 30
0.0
 10
27.214726
 20
103.070333
 30
0.0
 10
28.061311
 20
103.070333
 30
0.0
 10
28.061311
 20
101.639444
 30
0.0
 10
28.908052
 20
101.639444
 30
0.0
 10
28.908052
 20
103.070333
 30
0.0
 10
29.754639
 20
103.070333
 30
0.0
 10
29.754639
 20
101.639444
 30
0.0
 10
30.601380
 20
101.639444
 30
0.0
 10
30.601380
 20
103.070333
 30
0.0
 10
31.447965
 20
103.070333
 30
0.0
 10
31.447965
 20
101.639444
 30
0.0
 10
32.294707
 20
101.639444
 30
0.0
 10
32.294707
 20
103.070333
 30
0.0
 10
33.141293
 20
103.070333
 30
0.0
 10
33.141293
 20
101.639444
 30
0.0
 10
33.988034
 20
101.639444
 30
0.0
 10
33.988034
 20
103.070333
 30
0.0
 10
34.834620
 20
103.070333
 30
0.0
 10
34.834620
 20
101.639444
 30
0.0
 10
35.681361
 20
101.639444
 30
0.0
 10
35.681361
 20
103.070333
 30
0.0
 10
36.527947
 20
103.070333
 30
0.0
 10
36.527947
 20
101.639444
 30
0.0
 10
37.374689
 20
101.639444
 30
0.0
 10
37.374689
 20
103.070333
 30
0.0
 10
38.221430
 20
103.070333
 30
0.0
 10
38.221430
 20
101.639444
 30
0.0
 10
39.068016
 20
101.639444
 30
0.0
 10
39.068016
 20
103.070333
 30
0.0
 10
39.914757
 20
103.070333
 30
0.0
 10
39.914757
 20
101.639444
 30
0.0
 10
40.761343
 20
101.639444
 30
0.0
 10
40.761343
 20
103.070333
 30
0.0
 10
41.608084
 20
103.070333
 30
0.0
 10
41.608084
 20
101.639444
 30
0.0
 10
42.454670
 20
101.639444
 30
0.0
 10
42.454670
 20
103.070333
 30
0.0
 10
43.301412
 20
103.070333
 30
0.0
 10
43.301412
 20
101.639444
 30
0.0
 10
44.147997
 20
101.639444
 30
0.0
 10
44.147997
 20
103.070333
 30
0.0
 10
44.994739
 20
103.070333
 30
0.0
 10
44.994739
 20
101.639444
 30
0.0
 10
45.841325
 20
101.639444
 30
0.0
 10
45.841325
 20
103.070333
 30
0.0
 10
46.688066
 20
103.070333
 30
0.0
 10
46.688066
 20
101.639444
 30
0.0
 10
70.515987
 20
101.639444
 30
0.0
 10
70.515987
 20
102.495986
 30
0.0
 10
71.946876
 20
102.495986
 30
0.0
 10
71.946876
 20
103.342727
 30
0.0
 10
70.515987
 20
103.342727
 30
0.0
 10
70.515987
 20
104.189313
 30
0.0
 10
71.946876
 20
104.189313
 30
0.0
 10
71.946876
 20
105.036054
 30
0.0
 10
70.515987
 20
105.036054
 30
0.0
 10
70.515987
 20
105.882796
 30
0.0
 10
71.946876
 20
105.882796
 30
0.0
 10
71.946876
 20
106.729382
 30
0.0
 10
70.515987
 20
106.729382
 30
0.0
 10
70.515987
 20
107.585923
 30
0.0
 10
-0.000006
 20
107.585923
 30
0.0
 10
-0.000006
 20
107.585923
 30
0.0
  0
LWPOLYLINE
  5
108
100
AcDbEntity
  8
0
 62
7
100
AcDbPolyline
 90
158
 70
0
 10
12.398074
 20
98.797579
 30
0.0
 10
12.398074
 20
97.366690
 30
0.0
 10
-0.000006
 20
97.366690
 30
0.0
 10
-0.000006
 20
88.053313
 30
0.0
 10
-1.430895
 20
88.053313
 30
0.0
 10
-1.430895
 20
86.359986
 30
0.0
 10
-0.000006
 20
86.359986
 30
0.0
 10
-0.000006
 20
84.666658
 30
0.0
 10
-1.430895
 20
84.666658
 30
0.0
 10
-1.430895
 20
82.973332
 30
0.0
 10
-0.000006
 20
82.973332
 30
0.0
 10
-0.000006
 20
81.280004
 30
0.0
 10
-1.430895
 20
81.280004
 30
0.0
 10
-1.430895
 20
79.586677
 30
0.0
 10
-0.000006
 20
79.586677
 30
0.0
 10
-0.000006
 20
77.893350
 30
0.0
 10
-1.430895
 20
77.893350
 30
0.0
 10
-1.430895
 20
76.200022
 30
0.0
 10
-0.000006
 20
76.200022
 30
0.0
 10
-0.000006
 20
74.506695
 30
0.0
 10
-1.430895
 20
74.506695
 30
0.0
 10
-1.430895
 20
72.813368
 30
0.0
 10
-0.000006
 20
72.813368
 30
0.0
 10
-0.000006
 20
63.499990
 30
0.0
 10
12.398074
 20
63.499990
 30
0.0
 10
12.398074
 20
62.069102
 30
0.0
 10
14.091400
 20
62.069102
 30
0.0
 10
14.091400
 20
63.499990
 30
0.0
 10
15.784728
 20
63.499990
 30
0.0
 10
15.784728
 20
62.069102
 30
0.0
 10
17.478055
 20
62.069102
 30
0.0
 10
17.478055
 20
63.499990
 30
0.0
 10
19.171382
 20
63.499990
 30
0.0
 10
19.171382
 20
62.069102
 30
0.0
 10
20.864710
 20
62.069102
 30
0.0
 10
20.864710
 20
63.499990
 30
0.0
 10
22.558037
 20
63.499990
 30
0.0
 10
22.558037
 20
62.069102
 30
0.0
 10
24.251364
 20
62.069102
 30
0.0
 10
24.251364
 20
63.499990
 30
0.0
 10
25.944691
 20
63.499990
 30
0.0
 10
25.944691
 20
62.069102
 30
0.0
 10
27.638018
 20
62.069102
 30
0.0
 10
27.638018
 20
63.499990
 30
0.0
 10
29.331345
 20
63.499990
 30
0.0
 10
29.331345
 20
62.069102
 30
0.0
 10
31.024673
 20
62.069102
 30
0.0
 10
31.024673
 20
63.499990
 30
0.0
 10
32.718000
 20
63.499990
 30
0.0
 10
32.718000
 20
62.069102
 30
0.0
 10
34.411327
 20
62.069102
 30
0.0
 10
34.411327
 20
63.499990
 30
0.0
 10
36.104654
 20
63.499990
 30
0.0
 10
36.104654
 20
62.069102
 30
0.0
 10
37.797981
 20
62.069102
 30
0.0
 10
37.797981
 20
63.499990
 30
0.0
 10
39.491309
 20
63.499990
 30
0.0
 10
39.491309
 20
62.069102
 30
0.0
 10
41.184636
 20
62.069102
 30
0.0
 10
41.184636
 20
63.499990
 30
0.0
 10
42.877963
 20
63.499990
 30
0.0
 10
42.877963
 20
62.069102
 30
0.0
 10
44.571291
 20
62.069102
 30
0.0
 10
44.571291
 20
63.499990
 30
0.0
 10
46.264617
 20
63.499990
 30
0.0
 10
46.264617
 20
62.069102
 30
0.0
 10
47.957945
 20
62.069102
 30
0.0
 10
47.957945
 20
63.499990
 30
0.0
 10
49.651428
 20
63.499990
 30
0.0
 10
49.651428
 20
62.069102
 30
0.0
 10
51.344755
 20
62.069102
 30
0.0
 10
51.344755
 20
63.499990
 30
0.0
 10
53.038082
 20
63.499990
 30
0.0
 10
53.038082
 20
62.069102
 30
0.0
 10
54.731409
 20
62.069102
 30
0.0
 10
54.731409
 20
63.499990
 30
0.0
 10
56.424736
 20
63.499990
 30
0.0
 10
56.424736
 20
62.069102
 30
0.0
 10
58.118063
 20
62.069102
 30
0.0
 10
58.118063
 20
63.499990
 30
0.0
 10
70.515987
 20
63.499990
 30
0.0
 10
70.515987
 20
72.813368
 30
0.0
 10
71.946876
 20
72.813368
 30
0.0
 10
71.946876
 20
74.506695
 30
0.0
 10
70.515987
 20
74.506695
 30
0.0
 10
70.515987
 20
76.200022
 30
0.0
 10
71.946876
 20
76.200022
 30
0.0
 10
71.946876
 20
77.893350
 30
0.0
 10
70.515987
 20
77.893350
 30
0.0
 10
70.515987
 20
79.586677
 30
0.0
 10
71.946876
 20
79.586677
 30
0.0
 10
71.946876
 20
81.280004
 30
0.0
 10
70.515987
 20
81.280004
 30
0.0
 10
70.515987
 20
82.973332
 30
0.0
 10
71.946876
 20
82.973332
 30
0.0
 10
71.946876
 20
84.666658
 30
0.0
 10
70.515987
 20
84.666658
 30
0.0
 10
70.515987
 20
86.359986
 30
0.0
 10
71.946876
 20
86.359986
 30
0.0
 10
71.946876
 20
88.053313
 30
0.0
 10
70.515987
 20
88.053313
 30
0.0
 10
70.515987
 20
97.366690
 30
0.0
 10
58.118063
 20
97.366690
 30
0.0
 10
58.118063
 20
98.797579
 30
0.0
 10
56.424736
 20
98.797579
 30
0.0
 10
56.424736
 20
97.366690
 30
0.0
 10
54.731409
 20
97.366690
 30
0.0
 10
54.731409
 20
98.797579
 30
0.0
 10
53.038082
 20
98.797579
 30
0.0
 10
53.038082
 20
97.366690
 30
0.0
 10
51.344755
 20
97.366690
 30
0.0
 10
51.344755
 20
98.797579
 30
0.0
 10
49.651428
 20
98.797579
 30
0.0
 10
49.651428
 20
97.366690
 30
0.0
 10
47.957945
 20
97.366690
 30
0.0
 10
47.957945
 20
98.797579
 30
0.0
 10
46.264617
 20
98.797579
 30
0.0
 10
46.264617
 20
97.366690
 30
0.0
 10
44.571291
 20
97.366690
 30
0.0
 10
44.571291
 20
98.797579
 30
0.0
 10
42.877963
 20
98.797579
 30
0.0
 10
42.877963
 20
97.366690
 30
0.0
 10
41.184636
 20
97.366690
 30
0.0
 10
41.184636
 20
98.797579
 30
0.0
 10
39.491309
 20
98.797579
 30
0.0
 10
39.491309
 20
97.366690
 30
0.0
 10
37.797981
 20
97.366690
 30
0.0
 10
37.797981
 20
98.797579
 30
0.0
 10
36.104654
 20
98.797579
 30
0.0
 10
36.104654
 20
97.366690
 30
0.0
 10
34.411327
 20
97.366690
 30
0.0
 10
34.411327
 20
98.797579
 30
0.0
 10
32.718000
 20
98.797579
 30
0.0
 10
32.718000
 20
97.366690
 30
0.0
 10
31.024673
 20
97.366690
 30
0.0
 10
31.024673
 20
98.797579
 30
0.0
 10
29.331345
 20
98.797579
 30
0.0
 10
29.331345
 20
97.366690
 30
0.0
 10
27.638018
 20
97.366690
 30
0.0
 10
27.638018
 20
98.797579
 30
0.0
 10
25.944691
 20
98.797579
 30
0.0
 10
25.944691
 20
97.366690
 30
0.0
 10
24.251364
 20
97.366690
 30
0.0
 10
24.251364
 20
98.797579
 30
0.0
 10
22.558037
 20
98.797579
 30
0.0
 10
22.558037
 20
97.366690
 30
0.0
 10
20.864710
 20
97.366690
 30
0.0
 10
20.864710
 20
98.797579
 30
0.0
 10
19.171382
 20
98.797579
 30
0.0
 10
19.171382
 20
97.366690
 30
0.0
 10
17.478055
 20
97.366690
 30
0.0
 10
17.478055
 20
98.797579
 30
0.0
 10
15.784728
 20
98.797579
 30
0.0
 10
15.784728
 20
97.366690
 30
0.0
 10
14.091400
 20
97.366690
 30
0.0
 10
14.091400
 20
98.797579
 30
0.0
 10
12.398074
 20
98.797579
 30
0.0
 10
12.398074
 20
98.797579
 30
0.0
  0
ENDSEC
  0
SECTION
  2
OBJECTS
  0
DICTIONARY
  5
C
330
0
100
AcDbDictionary
  3
ACAD_GROUP
350
D
  3
ACAD_MLINESTYLE
350
17
  0
DICTIONARY
  5
D
330
C
100
AcDbDictionary
  0
DICTIONARY
  5
1A
330
C
100
AcDbDictionary
  0
DICTIONARY
  5
17
330
C
100
AcDbDictionary
  3
STANDARD
350
18
  0
DICTIONARY
  5
19
330
C
100
AcDbDictionary
  0
ENDSEC
  0
EOF
