  0
SECTION
  2
BLOCKS
  0
ENDSEC
  0
SECTION
  2
ENTITIES
  0
LINE
  8
0
 10
262.005
 20
335.84
 11
269.61
 21
335.84
  0
LINE
  8
0
 10
269.61
 20
335.84
 11
269.61
 21
348.515
  0
LINE
  8
0
 10
269.61
 20
348.515
 11
262.005
 21
348.515
  0
LINE
  8
0
 10
262.005
 20
348.515
 11
262.005
 21
448.095
  0
LINE
  8
0
 10
262.005
 20
448.095
 11
7.605
 21
448.095
  0
LINE
  8
0
 10
7.605
 20
448.095
 11
7.605
 21
348.515
  0
LINE
  8
0
 10
7.605
 20
348.515
 11
0
 21
348.515
  0
LINE
  8
0
 10
0
 20
348.515
 11
0
 21
335.84
  0
LINE
  8
0
 10
0
 20
335.84
 11
7.605
 21
335.84
  0
LINE
  8
0
 10
7.605
 20
335.84
 11
7.605
 21
318.095
  0
LINE
  8
0
 10
7.605
 20
318.095
 11
262.005
 21
318.095
  0
LINE
  8
0
 10
262.005
 20
318.095
 11
262.005
 21
335.84
  0
LINE
  8
0
 10
140.14
 20
244.095
 11
135.07
 21
244.095
  0
LINE
  8
0
 10
135.07
 20
244.095
 11
135.07
 21
250.095
  0
LINE
  8
0
 10
135.07
 20
250.095
 11
140.14
 21
250.095
  0
LINE
  8
0
 10
140.14
 20
250.095
 11
140.14
 21
256.095
  0
LINE
  8
0
 10
140.14
 20
256.095
 11
135.07
 21
256.095
  0
LINE
  8
0
 10
135.07
 20
256.095
 11
135.07
 21
262.095
  0
LINE
  8
0
 10
135.07
 20
262.095
 11
140.14
 21
262.095
  0
LINE
  8
0
 10
140.14
 20
262.095
 11
140.14
 21
270.63
  0
LINE
  8
0
 10
140.14
 20
270.63
 11
135.07
 21
270.63
  0
LINE
  8
0
 10
135.07
 20
270.63
 11
135.07
 21
285.63
  0
LINE
  8
0
 10
135.07
 20
285.63
 11
5.06999
 21
285.63
  0
LINE
  8
0
 10
5.06999
 20
285.63
 11
5.06999
 21
270.63
  0
LINE
  8
0
 10
5.06999
 20
270.63
 11
0
 21
270.63
  0
LINE
  8
0
 10
0
 20
270.63
 11
0
 21
262.095
  0
LINE
  8
0
 10
0
 20
262.095
 11
5.06999
 21
262.095
  0
LINE
  8
0
 10
5.06999
 20
262.095
 11
5.06999
 21
256.095
  0
LINE
  8
0
 10
5.06999
 20
256.095
 11
0
 21
256.095
  0
LINE
  8
0
 10
0
 20
256.095
 11
0
 21
250.095
  0
LINE
  8
0
 10
0
 20
250.095
 11
5.06999
 21
250.095
  0
LINE
  8
0
 10
5.06999
 20
250.095
 11
5.06999
 21
244.095
  0
LINE
  8
0
 10
5.06999
 20
244.095
 11
0
 21
244.095
  0
LINE
  8
0
 10
0
 20
244.095
 11
0
 21
235.56
  0
LINE
  8
0
 10
0
 20
235.56
 11
140.14
 21
235.56
  0
LINE
  8
0
 10
140.14
 20
235.56
 11
140.14
 21
244.095
  0
LINE
  8
0
 10
95.28
 20
255.49
 11
102.816
 21
265.49
  0
LINE
  8
0
 10
102.816
 20
265.49
 11
100.28
 21
265.49
  0
LINE
  8
0
 10
100.28
 20
265.49
 11
100.28
 21
265.56
  0
LINE
  8
0
 10
100.28
 20
265.56
 11
20.28
 21
265.56
  0
LINE
  8
0
 10
20.28
 20
265.56
 11
20.28
 21
268.2
  0
LINE
  8
0
 10
20.28
 20
268.2
 11
100.28
 21
268.2
  0
LINE
  8
0
 10
100.28
 20
268.2
 11
100.28
 21
275.49
  0
LINE
  8
0
 10
100.28
 20
275.49
 11
20.28
 21
275.49
  0
LINE
  8
0
 10
20.28
 20
275.49
 11
20.28
 21
280.56
  0
LINE
  8
0
 10
20.28
 20
280.56
 11
124.754
 21
280.56
  0
LINE
  8
0
 10
124.754
 20
280.56
 11
125.28
 21
281.471
  0
LINE
  8
0
 10
125.28
 20
281.471
 11
129.671
 21
278.936
  0
LINE
  8
0
 10
129.671
 20
278.936
 11
122.28
 21
266.135
  0
LINE
  8
0
 10
122.28
 20
266.135
 11
122.28
 21
265.49
  0
LINE
  8
0
 10
122.28
 20
265.49
 11
121.908
 21
265.49
  0
LINE
  8
0
 10
121.908
 20
265.49
 11
114.671
 21
252.955
  0
LINE
  8
0
 10
114.671
 20
252.955
 11
110.28
 21
255.49
  0
LINE
  8
0
 10
110.28
 20
255.49
 11
116.053
 21
265.49
  0
LINE
  8
0
 10
116.053
 20
265.49
 11
109.164
 21
265.49
  0
LINE
  8
0
 10
109.164
 20
265.49
 11
99.3291
 21
252.439
  0
LINE
  8
0
 10
99.3291
 20
252.439
 11
95.28
 21
255.49
  0
LINE
  8
0
 10
282.815
 20
244.095
 11
277.745
 21
244.095
  0
LINE
  8
0
 10
277.745
 20
244.095
 11
277.745
 21
250.095
  0
LINE
  8
0
 10
277.745
 20
250.095
 11
282.815
 21
250.095
  0
LINE
  8
0
 10
282.815
 20
250.095
 11
282.815
 21
256.095
  0
LINE
  8
0
 10
282.815
 20
256.095
 11
277.745
 21
256.095
  0
LINE
  8
0
 10
277.745
 20
256.095
 11
277.745
 21
262.095
  0
LINE
  8
0
 10
277.745
 20
262.095
 11
282.815
 21
262.095
  0
LINE
  8
0
 10
282.815
 20
262.095
 11
282.815
 21
270.63
  0
LINE
  8
0
 10
282.815
 20
270.63
 11
277.745
 21
270.63
  0
LINE
  8
0
 10
277.745
 20
270.63
 11
277.745
 21
285.63
  0
LINE
  8
0
 10
277.745
 20
285.63
 11
147.745
 21
285.63
  0
LINE
  8
0
 10
147.745
 20
285.63
 11
147.745
 21
270.63
  0
LINE
  8
0
 10
147.745
 20
270.63
 11
142.675
 21
270.63
  0
LINE
  8
0
 10
142.675
 20
270.63
 11
142.675
 21
262.095
  0
LINE
  8
0
 10
142.675
 20
262.095
 11
147.745
 21
262.095
  0
LINE
  8
0
 10
147.745
 20
262.095
 11
147.745
 21
256.095
  0
LINE
  8
0
 10
147.745
 20
256.095
 11
142.675
 21
256.095
  0
LINE
  8
0
 10
142.675
 20
256.095
 11
142.675
 21
250.095
  0
LINE
  8
0
 10
142.675
 20
250.095
 11
147.745
 21
250.095
  0
LINE
  8
0
 10
147.745
 20
250.095
 11
147.745
 21
244.095
  0
LINE
  8
0
 10
147.745
 20
244.095
 11
142.675
 21
244.095
  0
LINE
  8
0
 10
142.675
 20
244.095
 11
142.675
 21
235.56
  0
LINE
  8
0
 10
142.675
 20
235.56
 11
282.815
 21
235.56
  0
LINE
  8
0
 10
282.815
 20
235.56
 11
282.815
 21
244.095
  0
LINE
  8
0
 10
237.955
 20
255.49
 11
245.491
 21
265.49
  0
LINE
  8
0
 10
245.491
 20
265.49
 11
242.955
 21
265.49
  0
LINE
  8
0
 10
242.955
 20
265.49
 11
242.955
 21
265.56
  0
LINE
  8
0
 10
242.955
 20
265.56
 11
162.955
 21
265.56
  0
LINE
  8
0
 10
162.955
 20
265.56
 11
162.955
 21
268.2
  0
LINE
  8
0
 10
162.955
 20
268.2
 11
242.955
 21
268.2
  0
LINE
  8
0
 10
242.955
 20
268.2
 11
242.955
 21
275.49
  0
LINE
  8
0
 10
242.955
 20
275.49
 11
162.955
 21
275.49
  0
LINE
  8
0
 10
162.955
 20
275.49
 11
162.955
 21
280.56
  0
LINE
  8
0
 10
162.955
 20
280.56
 11
267.429
 21
280.56
  0
LINE
  8
0
 10
267.429
 20
280.56
 11
267.955
 21
281.471
  0
LINE
  8
0
 10
267.955
 20
281.471
 11
272.346
 21
278.936
  0
LINE
  8
0
 10
272.346
 20
278.936
 11
264.955
 21
266.135
  0
LINE
  8
0
 10
264.955
 20
266.135
 11
264.955
 21
265.49
  0
LINE
  8
0
 10
264.955
 20
265.49
 11
264.583
 21
265.49
  0
LINE
  8
0
 10
264.583
 20
265.49
 11
257.346
 21
252.955
  0
LINE
  8
0
 10
257.346
 20
252.955
 11
252.955
 21
255.49
  0
LINE
  8
0
 10
252.955
 20
255.49
 11
258.728
 21
265.49
  0
LINE
  8
0
 10
258.728
 20
265.49
 11
251.839
 21
265.49
  0
LINE
  8
0
 10
251.839
 20
265.49
 11
242.004
 21
252.439
  0
LINE
  8
0
 10
242.004
 20
252.439
 11
237.955
 21
255.49
  0
LINE
  8
0
 10
46.2
 20
200.42
 11
52.2
 21
200.42
  0
LINE
  8
0
 10
52.2
 20
200.42
 11
52.2
 21
195.35
  0
LINE
  8
0
 10
52.2
 20
195.35
 11
58.2
 21
195.35
  0
LINE
  8
0
 10
58.2
 20
195.35
 11
58.2
 21
200.42
  0
LINE
  8
0
 10
58.2
 20
200.42
 11
64.2
 21
200.42
  0
LINE
  8
0
 10
64.2
 20
200.42
 11
64.2
 21
195.35
  0
LINE
  8
0
 10
64.2
 20
195.35
 11
70.2
 21
195.35
  0
LINE
  8
0
 10
70.2
 20
195.35
 11
70.2
 21
200.42
  0
LINE
  8
0
 10
70.2
 20
200.42
 11
76.2
 21
200.42
  0
LINE
  8
0
 10
76.2
 20
200.42
 11
76.2
 21
195.35
  0
LINE
  8
0
 10
76.2
 20
195.35
 11
82.2
 21
195.35
  0
LINE
  8
0
 10
82.2
 20
195.35
 11
82.2
 21
200.42
  0
LINE
  8
0
 10
82.2
 20
200.42
 11
88.2
 21
200.42
  0
LINE
  8
0
 10
88.2
 20
200.42
 11
88.2
 21
195.35
  0
LINE
  8
0
 10
88.2
 20
195.35
 11
94.2
 21
195.35
  0
LINE
  8
0
 10
94.2
 20
195.35
 11
94.2
 21
200.42
  0
LINE
  8
0
 10
94.2
 20
200.42
 11
100.2
 21
200.42
  0
LINE
  8
0
 10
100.2
 20
200.42
 11
100.2
 21
195.35
  0
LINE
  8
0
 10
100.2
 20
195.35
 11
106.2
 21
195.35
  0
LINE
  8
0
 10
106.2
 20
195.35
 11
106.2
 21
200.42
  0
LINE
  8
0
 10
106.2
 20
200.42
 11
112.2
 21
200.42
  0
LINE
  8
0
 10
112.2
 20
200.42
 11
112.2
 21
195.35
  0
LINE
  8
0
 10
112.2
 20
195.35
 11
118.2
 21
195.35
  0
LINE
  8
0
 10
118.2
 20
195.35
 11
118.2
 21
200.42
  0
LINE
  8
0
 10
118.2
 20
200.42
 11
124.2
 21
200.42
  0
LINE
  8
0
 10
124.2
 20
200.42
 11
124.2
 21
195.35
  0
LINE
  8
0
 10
124.2
 20
195.35
 11
130.2
 21
195.35
  0
LINE
  8
0
 10
130.2
 20
195.35
 11
130.2
 21
200.42
  0
LINE
  8
0
 10
130.2
 20
200.42
 11
136.2
 21
200.42
  0
LINE
  8
0
 10
136.2
 20
200.42
 11
136.2
 21
195.35
  0
LINE
  8
0
 10
136.2
 20
195.35
 11
142.2
 21
195.35
  0
LINE
  8
0
 10
142.2
 20
195.35
 11
142.2
 21
200.42
  0
LINE
  8
0
 10
142.2
 20
200.42
 11
148.2
 21
200.42
  0
LINE
  8
0
 10
148.2
 20
200.42
 11
148.2
 21
195.35
  0
LINE
  8
0
 10
148.2
 20
195.35
 11
154.2
 21
195.35
  0
LINE
  8
0
 10
154.2
 20
195.35
 11
154.2
 21
200.42
  0
LINE
  8
0
 10
154.2
 20
200.42
 11
160.2
 21
200.42
  0
LINE
  8
0
 10
160.2
 20
200.42
 11
160.2
 21
195.35
  0
LINE
  8
0
 10
160.2
 20
195.35
 11
166.2
 21
195.35
  0
LINE
  8
0
 10
166.2
 20
195.35
 11
166.2
 21
200.42
  0
LINE
  8
0
 10
166.2
 20
200.42
 11
172.2
 21
200.42
  0
LINE
  8
0
 10
172.2
 20
200.42
 11
172.2
 21
195.35
  0
LINE
  8
0
 10
172.2
 20
195.35
 11
178.2
 21
195.35
  0
LINE
  8
0
 10
178.2
 20
195.35
 11
178.2
 21
200.42
  0
LINE
  8
0
 10
178.2
 20
200.42
 11
184.2
 21
200.42
  0
LINE
  8
0
 10
184.2
 20
200.42
 11
184.2
 21
195.35
  0
LINE
  8
0
 10
184.2
 20
195.35
 11
190.2
 21
195.35
  0
LINE
  8
0
 10
190.2
 20
195.35
 11
190.2
 21
200.42
  0
LINE
  8
0
 10
190.2
 20
200.42
 11
196.2
 21
200.42
  0
LINE
  8
0
 10
196.2
 20
200.42
 11
196.2
 21
195.35
  0
LINE
  8
0
 10
196.2
 20
195.35
 11
202.2
 21
195.35
  0
LINE
  8
0
 10
202.2
 20
195.35
 11
202.2
 21
200.42
  0
LINE
  8
0
 10
202.2
 20
200.42
 11
208.2
 21
200.42
  0
LINE
  8
0
 10
208.2
 20
200.42
 11
208.2
 21
195.35
  0
LINE
  8
0
 10
208.2
 20
195.35
 11
254.4
 21
195.35
  0
LINE
  8
0
 10
254.4
 20
195.35
 11
254.4
 21
203.885
  0
LINE
  8
0
 10
254.4
 20
203.885
 11
259.47
 21
203.885
  0
LINE
  8
0
 10
259.47
 20
203.885
 11
259.47
 21
209.885
  0
LINE
  8
0
 10
259.47
 20
209.885
 11
254.4
 21
209.885
  0
LINE
  8
0
 10
254.4
 20
209.885
 11
254.4
 21
215.885
  0
LINE
  8
0
 10
254.4
 20
215.885
 11
259.47
 21
215.885
  0
LINE
  8
0
 10
259.47
 20
215.885
 11
259.47
 21
221.885
  0
LINE
  8
0
 10
259.47
 20
221.885
 11
254.4
 21
221.885
  0
LINE
  8
0
 10
254.4
 20
221.885
 11
254.4
 21
224.336
  0
LINE
  8
0
 10
254.4
 20
224.336
 11
0
 21
224.336
  0
LINE
  8
0
 10
0
 20
224.336
 11
0
 21
221.885
  0
LINE
  8
0
 10
0
 20
221.885
 11
-5.06999
 21
221.885
  0
LINE
  8
0
 10
-5.06999
 20
221.885
 11
-5.06999
 21
215.885
  0
LINE
  8
0
 10
-5.06999
 20
215.885
 11
0
 21
215.885
  0
LINE
  8
0
 10
0
 20
215.885
 11
0
 21
209.885
  0
LINE
  8
0
 10
0
 20
209.885
 11
-5.06999
 21
209.885
  0
LINE
  8
0
 10
-5.06999
 20
209.885
 11
-5.06999
 21
203.885
  0
LINE
  8
0
 10
-5.06999
 20
203.885
 11
0
 21
203.885
  0
LINE
  8
0
 10
0
 20
203.885
 11
0
 21
195.35
  0
LINE
  8
0
 10
0
 20
195.35
 11
46.2
 21
195.35
  0
LINE
  8
0
 10
46.2
 20
195.35
 11
46.2
 21
200.42
  0
LINE
  8
0
 10
46.2
 20
150.21
 11
52.2
 21
150.21
  0
LINE
  8
0
 10
52.2
 20
150.21
 11
52.2
 21
145.14
  0
LINE
  8
0
 10
52.2
 20
145.14
 11
58.2
 21
145.14
  0
LINE
  8
0
 10
58.2
 20
145.14
 11
58.2
 21
150.21
  0
LINE
  8
0
 10
58.2
 20
150.21
 11
64.2
 21
150.21
  0
LINE
  8
0
 10
64.2
 20
150.21
 11
64.2
 21
145.14
  0
LINE
  8
0
 10
64.2
 20
145.14
 11
70.2
 21
145.14
  0
LINE
  8
0
 10
70.2
 20
145.14
 11
70.2
 21
150.21
  0
LINE
  8
0
 10
70.2
 20
150.21
 11
76.2
 21
150.21
  0
LINE
  8
0
 10
76.2
 20
150.21
 11
76.2
 21
145.14
  0
LINE
  8
0
 10
76.2
 20
145.14
 11
82.2
 21
145.14
  0
LINE
  8
0
 10
82.2
 20
145.14
 11
82.2
 21
150.21
  0
LINE
  8
0
 10
82.2
 20
150.21
 11
88.2
 21
150.21
  0
LINE
  8
0
 10
88.2
 20
150.21
 11
88.2
 21
145.14
  0
LINE
  8
0
 10
88.2
 20
145.14
 11
94.2
 21
145.14
  0
LINE
  8
0
 10
94.2
 20
145.14
 11
94.2
 21
150.21
  0
LINE
  8
0
 10
94.2
 20
150.21
 11
100.2
 21
150.21
  0
LINE
  8
0
 10
100.2
 20
150.21
 11
100.2
 21
145.14
  0
LINE
  8
0
 10
100.2
 20
145.14
 11
106.2
 21
145.14
  0
LINE
  8
0
 10
106.2
 20
145.14
 11
106.2
 21
150.21
  0
LINE
  8
0
 10
106.2
 20
150.21
 11
112.2
 21
150.21
  0
LINE
  8
0
 10
112.2
 20
150.21
 11
112.2
 21
145.14
  0
LINE
  8
0
 10
112.2
 20
145.14
 11
118.2
 21
145.14
  0
LINE
  8
0
 10
118.2
 20
145.14
 11
118.2
 21
150.21
  0
LINE
  8
0
 10
118.2
 20
150.21
 11
124.2
 21
150.21
  0
LINE
  8
0
 10
124.2
 20
150.21
 11
124.2
 21
145.14
  0
LINE
  8
0
 10
124.2
 20
145.14
 11
130.2
 21
145.14
  0
LINE
  8
0
 10
130.2
 20
145.14
 11
130.2
 21
150.21
  0
LINE
  8
0
 10
130.2
 20
150.21
 11
136.2
 21
150.21
  0
LINE
  8
0
 10
136.2
 20
150.21
 11
136.2
 21
145.14
  0
LINE
  8
0
 10
136.2
 20
145.14
 11
142.2
 21
145.14
  0
LINE
  8
0
 10
142.2
 20
145.14
 11
142.2
 21
150.21
  0
LINE
  8
0
 10
142.2
 20
150.21
 11
148.2
 21
150.21
  0
LINE
  8
0
 10
148.2
 20
150.21
 11
148.2
 21
145.14
  0
LINE
  8
0
 10
148.2
 20
145.14
 11
154.2
 21
145.14
  0
LINE
  8
0
 10
154.2
 20
145.14
 11
154.2
 21
150.21
  0
LINE
  8
0
 10
154.2
 20
150.21
 11
160.2
 21
150.21
  0
LINE
  8
0
 10
160.2
 20
150.21
 11
160.2
 21
145.14
  0
LINE
  8
0
 10
160.2
 20
145.14
 11
166.2
 21
145.14
  0
LINE
  8
0
 10
166.2
 20
145.14
 11
166.2
 21
150.21
  0
LINE
  8
0
 10
166.2
 20
150.21
 11
172.2
 21
150.21
  0
LINE
  8
0
 10
172.2
 20
150.21
 11
172.2
 21
145.14
  0
LINE
  8
0
 10
172.2
 20
145.14
 11
178.2
 21
145.14
  0
LINE
  8
0
 10
178.2
 20
145.14
 11
178.2
 21
150.21
  0
LINE
  8
0
 10
178.2
 20
150.21
 11
184.2
 21
150.21
  0
LINE
  8
0
 10
184.2
 20
150.21
 11
184.2
 21
145.14
  0
LINE
  8
0
 10
184.2
 20
145.14
 11
190.2
 21
145.14
  0
LINE
  8
0
 10
190.2
 20
145.14
 11
190.2
 21
150.21
  0
LINE
  8
0
 10
190.2
 20
150.21
 11
196.2
 21
150.21
  0
LINE
  8
0
 10
196.2
 20
150.21
 11
196.2
 21
145.14
  0
LINE
  8
0
 10
196.2
 20
145.14
 11
202.2
 21
145.14
  0
LINE
  8
0
 10
202.2
 20
145.14
 11
202.2
 21
150.21
  0
LINE
  8
0
 10
202.2
 20
150.21
 11
208.2
 21
150.21
  0
LINE
  8
0
 10
208.2
 20
150.21
 11
208.2
 21
145.14
  0
LINE
  8
0
 10
208.2
 20
145.14
 11
254.4
 21
145.14
  0
LINE
  8
0
 10
254.4
 20
145.14
 11
254.4
 21
153.675
  0
LINE
  8
0
 10
254.4
 20
153.675
 11
259.47
 21
153.675
  0
LINE
  8
0
 10
259.47
 20
153.675
 11
259.47
 21
159.675
  0
LINE
  8
0
 10
259.47
 20
159.675
 11
254.4
 21
159.675
  0
LINE
  8
0
 10
254.4
 20
159.675
 11
254.4
 21
165.675
  0
LINE
  8
0
 10
254.4
 20
165.675
 11
259.47
 21
165.675
  0
LINE
  8
0
 10
259.47
 20
165.675
 11
259.47
 21
171.675
  0
LINE
  8
0
 10
259.47
 20
171.675
 11
254.4
 21
171.675
  0
LINE
  8
0
 10
254.4
 20
171.675
 11
254.4
 21
180.21
  0
LINE
  8
0
 10
254.4
 20
180.21
 11
0
 21
180.21
  0
LINE
  8
0
 10
0
 20
180.21
 11
0
 21
171.675
  0
LINE
  8
0
 10
0
 20
171.675
 11
-5.06999
 21
171.675
  0
LINE
  8
0
 10
-5.06999
 20
171.675
 11
-5.06999
 21
165.675
  0
LINE
  8
0
 10
-5.06999
 20
165.675
 11
0
 21
165.675
  0
LINE
  8
0
 10
0
 20
165.675
 11
0
 21
159.675
  0
LINE
  8
0
 10
0
 20
159.675
 11
-5.06999
 21
159.675
  0
LINE
  8
0
 10
-5.06999
 20
159.675
 11
-5.06999
 21
153.675
  0
LINE
  8
0
 10
-5.06999
 20
153.675
 11
0
 21
153.675
  0
LINE
  8
0
 10
0
 20
153.675
 11
0
 21
145.14
  0
LINE
  8
0
 10
0
 20
145.14
 11
46.2
 21
145.14
  0
LINE
  8
0
 10
46.2
 20
145.14
 11
46.2
 21
150.21
  0
LINE
  8
0
 10
76.2
 20
-5.06999
 11
76.2
 21
0
  0
LINE
  8
0
 10
76.2
 20
0
 11
82.2
 21
0
  0
LINE
  8
0
 10
82.2
 20
0
 11
82.2
 21
-5.06999
  0
LINE
  8
0
 10
82.2
 20
-5.06999
 11
88.2
 21
-5.06999
  0
LINE
  8
0
 10
88.2
 20
-5.06999
 11
88.2
 21
0
  0
LINE
  8
0
 10
88.2
 20
0
 11
94.2
 21
0
  0
LINE
  8
0
 10
94.2
 20
0
 11
94.2
 21
-5.06999
  0
LINE
  8
0
 10
94.2
 20
-5.06999
 11
100.2
 21
-5.06999
  0
LINE
  8
0
 10
100.2
 20
-5.06999
 11
100.2
 21
0
  0
LINE
  8
0
 10
100.2
 20
0
 11
106.2
 21
0
  0
LINE
  8
0
 10
106.2
 20
0
 11
106.2
 21
-5.06999
  0
LINE
  8
0
 10
106.2
 20
-5.06999
 11
112.2
 21
-5.06999
  0
LINE
  8
0
 10
112.2
 20
-5.06999
 11
112.2
 21
0
  0
LINE
  8
0
 10
112.2
 20
0
 11
118.2
 21
0
  0
LINE
  8
0
 10
118.2
 20
0
 11
118.2
 21
-5.06999
  0
LINE
  8
0
 10
118.2
 20
-5.06999
 11
124.2
 21
-5.06999
  0
LINE
  8
0
 10
124.2
 20
-5.06999
 11
124.2
 21
0
  0
LINE
  8
0
 10
124.2
 20
0
 11
130.2
 21
0
  0
LINE
  8
0
 10
130.2
 20
0
 11
130.2
 21
-5.06999
  0
LINE
  8
0
 10
130.2
 20
-5.06999
 11
136.2
 21
-5.06999
  0
LINE
  8
0
 10
136.2
 20
-5.06999
 11
136.2
 21
0
  0
LINE
  8
0
 10
136.2
 20
0
 11
142.2
 21
0
  0
LINE
  8
0
 10
142.2
 20
0
 11
142.2
 21
-5.06999
  0
LINE
  8
0
 10
142.2
 20
-5.06999
 11
148.2
 21
-5.06999
  0
LINE
  8
0
 10
148.2
 20
-5.06999
 11
148.2
 21
0
  0
LINE
  8
0
 10
148.2
 20
0
 11
154.2
 21
0
  0
LINE
  8
0
 10
154.2
 20
0
 11
154.2
 21
-5.06999
  0
LINE
  8
0
 10
154.2
 20
-5.06999
 11
160.2
 21
-5.06999
  0
LINE
  8
0
 10
160.2
 20
-5.06999
 11
160.2
 21
0
  0
LINE
  8
0
 10
160.2
 20
0
 11
166.2
 21
0
  0
LINE
  8
0
 10
166.2
 20
0
 11
166.2
 21
-5.06999
  0
LINE
  8
0
 10
166.2
 20
-5.06999
 11
172.2
 21
-5.06999
  0
LINE
  8
0
 10
172.2
 20
-5.06999
 11
172.2
 21
0
  0
LINE
  8
0
 10
172.2
 20
0
 11
178.2
 21
0
  0
LINE
  8
0
 10
178.2
 20
0
 11
178.2
 21
-5.06999
  0
LINE
  8
0
 10
178.2
 20
-5.06999
 11
184.2
 21
-5.06999
  0
LINE
  8
0
 10
184.2
 20
-5.06999
 11
184.2
 21
0
  0
LINE
  8
0
 10
184.2
 20
0
 11
190.2
 21
0
  0
LINE
  8
0
 10
190.2
 20
0
 11
190.2
 21
-5.06999
  0
LINE
  8
0
 10
190.2
 20
-5.06999
 11
196.2
 21
-5.06999
  0
LINE
  8
0
 10
196.2
 20
-5.06999
 11
196.2
 21
0
  0
LINE
  8
0
 10
196.2
 20
0
 11
202.2
 21
0
  0
LINE
  8
0
 10
202.2
 20
0
 11
202.2
 21
-5.06999
  0
LINE
  8
0
 10
202.2
 20
-5.06999
 11
208.2
 21
-5.06999
  0
LINE
  8
0
 10
208.2
 20
-5.06999
 11
208.2
 21
0
  0
LINE
  8
0
 10
208.2
 20
0
 11
254.4
 21
0
  0
LINE
  8
0
 10
254.4
 20
0
 11
254.4
 21
38
  0
LINE
  8
0
 10
254.4
 20
38
 11
259.47
 21
38
  0
LINE
  8
0
 10
259.47
 20
38
 11
259.47
 21
44
  0
LINE
  8
0
 10
259.47
 20
44
 11
254.4
 21
44
  0
LINE
  8
0
 10
254.4
 20
44
 11
254.4
 21
50
  0
LINE
  8
0
 10
254.4
 20
50
 11
259.47
 21
50
  0
LINE
  8
0
 10
259.47
 20
50
 11
259.47
 21
56
  0
LINE
  8
0
 10
259.47
 20
56
 11
254.4
 21
56
  0
LINE
  8
0
 10
254.4
 20
56
 11
254.4
 21
62
  0
LINE
  8
0
 10
254.4
 20
62
 11
259.47
 21
62
  0
LINE
  8
0
 10
259.47
 20
62
 11
259.47
 21
68
  0
LINE
  8
0
 10
259.47
 20
68
 11
254.4
 21
68
  0
LINE
  8
0
 10
254.4
 20
68
 11
254.4
 21
74
  0
LINE
  8
0
 10
254.4
 20
74
 11
259.47
 21
74
  0
LINE
  8
0
 10
259.47
 20
74
 11
259.47
 21
80
  0
LINE
  8
0
 10
259.47
 20
80
 11
254.4
 21
80
  0
LINE
  8
0
 10
254.4
 20
80
 11
254.4
 21
86
  0
LINE
  8
0
 10
254.4
 20
86
 11
259.47
 21
86
  0
LINE
  8
0
 10
259.47
 20
86
 11
259.47
 21
92
  0
LINE
  8
0
 10
259.47
 20
92
 11
254.4
 21
92
  0
LINE
  8
0
 10
254.4
 20
92
 11
254.4
 21
130
  0
LINE
  8
0
 10
254.4
 20
130
 11
208.2
 21
130
  0
LINE
  8
0
 10
208.2
 20
130
 11
208.2
 21
135.07
  0
LINE
  8
0
 10
208.2
 20
135.07
 11
202.2
 21
135.07
  0
LINE
  8
0
 10
202.2
 20
135.07
 11
202.2
 21
130
  0
LINE
  8
0
 10
202.2
 20
130
 11
196.2
 21
130
  0
LINE
  8
0
 10
196.2
 20
130
 11
196.2
 21
135.07
  0
LINE
  8
0
 10
196.2
 20
135.07
 11
190.2
 21
135.07
  0
LINE
  8
0
 10
190.2
 20
135.07
 11
190.2
 21
130
  0
LINE
  8
0
 10
190.2
 20
130
 11
184.2
 21
130
  0
LINE
  8
0
 10
184.2
 20
130
 11
184.2
 21
135.07
  0
LINE
  8
0
 10
184.2
 20
135.07
 11
178.2
 21
135.07
  0
LINE
  8
0
 10
178.2
 20
135.07
 11
178.2
 21
130
  0
LINE
  8
0
 10
178.2
 20
130
 11
172.2
 21
130
  0
LINE
  8
0
 10
172.2
 20
130
 11
172.2
 21
135.07
  0
LINE
  8
0
 10
172.2
 20
135.07
 11
166.2
 21
135.07
  0
LINE
  8
0
 10
166.2
 20
135.07
 11
166.2
 21
130
  0
LINE
  8
0
 10
166.2
 20
130
 11
160.2
 21
130
  0
LINE
  8
0
 10
160.2
 20
130
 11
160.2
 21
135.07
  0
LINE
  8
0
 10
160.2
 20
135.07
 11
154.2
 21
135.07
  0
LINE
  8
0
 10
154.2
 20
135.07
 11
154.2
 21
130
  0
LINE
  8
0
 10
154.2
 20
130
 11
148.2
 21
130
  0
LINE
  8
0
 10
148.2
 20
130
 11
148.2
 21
135.07
  0
LINE
  8
0
 10
148.2
 20
135.07
 11
142.2
 21
135.07
  0
LINE
  8
0
 10
142.2
 20
135.07
 11
142.2
 21
130
  0
LINE
  8
0
 10
142.2
 20
130
 11
136.2
 21
130
  0
LINE
  8
0
 10
136.2
 20
130
 11
136.2
 21
135.07
  0
LINE
  8
0
 10
136.2
 20
135.07
 11
130.2
 21
135.07
  0
LINE
  8
0
 10
130.2
 20
135.07
 11
130.2
 21
130
  0
LINE
  8
0
 10
130.2
 20
130
 11
124.2
 21
130
  0
LINE
  8
0
 10
124.2
 20
130
 11
124.2
 21
135.07
  0
LINE
  8
0
 10
124.2
 20
135.07
 11
118.2
 21
135.07
  0
LINE
  8
0
 10
118.2
 20
135.07
 11
118.2
 21
130
  0
LINE
  8
0
 10
118.2
 20
130
 11
112.2
 21
130
  0
LINE
  8
0
 10
112.2
 20
130
 11
112.2
 21
135.07
  0
LINE
  8
0
 10
112.2
 20
135.07
 11
106.2
 21
135.07
  0
LINE
  8
0
 10
106.2
 20
135.07
 11
106.2
 21
130
  0
LINE
  8
0
 10
106.2
 20
130
 11
100.2
 21
130
  0
LINE
  8
0
 10
100.2
 20
130
 11
100.2
 21
135.07
  0
LINE
  8
0
 10
100.2
 20
135.07
 11
94.2
 21
135.07
  0
LINE
  8
0
 10
94.2
 20
135.07
 11
94.2
 21
130
  0
LINE
  8
0
 10
94.2
 20
130
 11
88.2
 21
130
  0
LINE
  8
0
 10
88.2
 20
130
 11
88.2
 21
135.07
  0
LINE
  8
0
 10
88.2
 20
135.07
 11
82.2
 21
135.07
  0
LINE
  8
0
 10
82.2
 20
135.07
 11
82.2
 21
130
  0
LINE
  8
0
 10
82.2
 20
130
 11
76.2
 21
130
  0
LINE
  8
0
 10
76.2
 20
130
 11
76.2
 21
135.07
  0
LINE
  8
0
 10
76.2
 20
135.07
 11
70.2
 21
135.07
  0
LINE
  8
0
 10
70.2
 20
135.07
 11
70.2
 21
130
  0
LINE
  8
0
 10
70.2
 20
130
 11
64.2
 21
130
  0
LINE
  8
0
 10
64.2
 20
130
 11
64.2
 21
135.07
  0
LINE
  8
0
 10
64.2
 20
135.07
 11
58.2
 21
135.07
  0
LINE
  8
0
 10
58.2
 20
135.07
 11
58.2
 21
130
  0
LINE
  8
0
 10
58.2
 20
130
 11
52.2
 21
130
  0
LINE
  8
0
 10
52.2
 20
130
 11
52.2
 21
135.07
  0
LINE
  8
0
 10
52.2
 20
135.07
 11
46.2
 21
135.07
  0
LINE
  8
0
 10
46.2
 20
135.07
 11
46.2
 21
130
  0
LINE
  8
0
 10
46.2
 20
130
 11
0
 21
130
  0
LINE
  8
0
 10
0
 20
130
 11
0
 21
92
  0
LINE
  8
0
 10
0
 20
92
 11
-5.06999
 21
92
  0
LINE
  8
0
 10
-5.06999
 20
92
 11
-5.06999
 21
86
  0
LINE
  8
0
 10
-5.06999
 20
86
 11
0
 21
86
  0
LINE
  8
0
 10
0
 20
86
 11
0
 21
80
  0
LINE
  8
0
 10
0
 20
80
 11
-5.06999
 21
80
  0
LINE
  8
0
 10
-5.06999
 20
80
 11
-5.06999
 21
74
  0
LINE
  8
0
 10
-5.06999
 20
74
 11
0
 21
74
  0
LINE
  8
0
 10
0
 20
74
 11
0
 21
68
  0
LINE
  8
0
 10
0
 20
68
 11
-5.06999
 21
68
  0
LINE
  8
0
 10
-5.06999
 20
68
 11
-5.06999
 21
62
  0
LINE
  8
0
 10
-5.06999
 20
62
 11
0
 21
62
  0
LINE
  8
0
 10
0
 20
62
 11
0
 21
56
  0
LINE
  8
0
 10
0
 20
56
 11
-5.06999
 21
56
  0
LINE
  8
0
 10
-5.06999
 20
56
 11
-5.06999
 21
50
  0
LINE
  8
0
 10
-5.06999
 20
50
 11
0
 21
50
  0
LINE
  8
0
 10
0
 20
50
 11
0
 21
44
  0
LINE
  8
0
 10
0
 20
44
 11
-5.06999
 21
44
  0
LINE
  8
0
 10
-5.06999
 20
44
 11
-5.06999
 21
38
  0
LINE
  8
0
 10
-5.06999
 20
38
 11
0
 21
38
  0
LINE
  8
0
 10
0
 20
38
 11
0
 21
0
  0
LINE
  8
0
 10
0
 20
0
 11
70.2
 21
0
  0
LINE
  8
0
 10
70.2
 20
0
 11
70.2
 21
-5.06999
  0
LINE
  8
0
 10
70.2
 20
-5.06999
 11
76.2
 21
-5.06999
  0
LINE
  8
0
 10
64.2
 20
0
 11
58.2
 21
0
  0
LINE
  8
0
 10
58.2
 20
0
 11
58.2
 21
-5.06999
  0
LINE
  8
0
 10
58.2
 20
-5.06999
 11
64.2
 21
-5.06999
  0
LINE
  8
0
 10
64.2
 20
-5.06999
 11
64.2
 21
0
  0
LINE
  8
0
 10
52.2
 20
0
 11
46.2
 21
0
  0
LINE
  8
0
 10
46.2
 20
0
 11
46.2
 21
-5.06999
  0
LINE
  8
0
 10
46.2
 20
-5.06999
 11
52.2
 21
-5.06999
  0
LINE
  8
0
 10
52.2
 20
-5.06999
 11
52.2
 21
0
  0
ENDSEC
  0
SECTION
  2
OBJECTS
  0
DICTIONARY
  0
ENDSEC
  0
EOF
