  0
SECTION
  2
BLOCKS
  0
ENDSEC
  0
SECTION
  2
ENTITIES
  0
LINE
  8
0
 10
38.07
 20
220.49
 11
44.07
 21
220.49
  0
LINE
  8
0
 10
44.07
 20
220.49
 11
44.07
 21
215.42
  0
LINE
  8
0
 10
44.07
 20
215.42
 11
50.07
 21
215.42
  0
LINE
  8
0
 10
50.07
 20
215.42
 11
50.07
 21
220.49
  0
LINE
  8
0
 10
50.07
 20
220.49
 11
56.07
 21
220.49
  0
LINE
  8
0
 10
56.07
 20
220.49
 11
56.07
 21
215.42
  0
LINE
  8
0
 10
56.07
 20
215.42
 11
62.07
 21
215.42
  0
LINE
  8
0
 10
62.07
 20
215.42
 11
62.07
 21
220.49
  0
LINE
  8
0
 10
62.07
 20
220.49
 11
68.07
 21
220.49
  0
LINE
  8
0
 10
68.07
 20
220.49
 11
68.07
 21
215.42
  0
LINE
  8
0
 10
68.07
 20
215.42
 11
74.07
 21
215.42
  0
LINE
  8
0
 10
74.07
 20
215.42
 11
74.07
 21
220.49
  0
LINE
  8
0
 10
74.07
 20
220.49
 11
80.07
 21
220.49
  0
LINE
  8
0
 10
80.07
 20
220.49
 11
80.07
 21
215.42
  0
LINE
  8
0
 10
80.07
 20
215.42
 11
86.07
 21
215.42
  0
LINE
  8
0
 10
86.07
 20
215.42
 11
86.07
 21
220.49
  0
LINE
  8
0
 10
86.07
 20
220.49
 11
92.07
 21
220.49
  0
LINE
  8
0
 10
92.07
 20
220.49
 11
92.07
 21
215.42
  0
LINE
  8
0
 10
92.07
 20
215.42
 11
125.07
 21
215.42
  0
LINE
  8
0
 10
125.07
 20
215.42
 11
125.07
 21
221.42
  0
LINE
  8
0
 10
125.07
 20
221.42
 11
130.14
 21
221.42
  0
LINE
  8
0
 10
130.14
 20
221.42
 11
130.14
 21
227.42
  0
LINE
  8
0
 10
130.14
 20
227.42
 11
125.07
 21
227.42
  0
LINE
  8
0
 10
125.07
 20
227.42
 11
125.07
 21
233.42
  0
LINE
  8
0
 10
125.07
 20
233.42
 11
130.14
 21
233.42
  0
LINE
  8
0
 10
130.14
 20
233.42
 11
130.14
 21
239.42
  0
LINE
  8
0
 10
130.14
 20
239.42
 11
125.07
 21
239.42
  0
LINE
  8
0
 10
125.07
 20
239.42
 11
125.07
 21
245.42
  0
LINE
  8
0
 10
125.07
 20
245.42
 11
5.06999
 21
245.42
  0
LINE
  8
0
 10
5.06999
 20
245.42
 11
5.06999
 21
239.42
  0
LINE
  8
0
 10
5.06999
 20
239.42
 11
0
 21
239.42
  0
LINE
  8
0
 10
0
 20
239.42
 11
0
 21
233.42
  0
LINE
  8
0
 10
0
 20
233.42
 11
5.06999
 21
233.42
  0
LINE
  8
0
 10
5.06999
 20
233.42
 11
5.06999
 21
227.42
  0
LINE
  8
0
 10
5.06999
 20
227.42
 11
0
 21
227.42
  0
LINE
  8
0
 10
0
 20
227.42
 11
0
 21
221.42
  0
LINE
  8
0
 10
0
 20
221.42
 11
5.06999
 21
221.42
  0
LINE
  8
0
 10
5.06999
 20
221.42
 11
5.06999
 21
215.42
  0
LINE
  8
0
 10
5.06999
 20
215.42
 11
38.07
 21
215.42
  0
LINE
  8
0
 10
38.07
 20
215.42
 11
38.07
 21
220.49
  0
LINE
  8
0
 10
12.675
 20
237.815
 11
12.675
 21
240.455
  0
LINE
  8
0
 10
12.675
 20
240.455
 11
112.675
 21
240.455
  0
LINE
  8
0
 10
112.675
 20
240.455
 11
112.675
 21
237.815
  0
LINE
  8
0
 10
112.675
 20
237.815
 11
12.675
 21
237.815
  0
LINE
  8
0
 10
170.745
 20
220.49
 11
176.745
 21
220.49
  0
LINE
  8
0
 10
176.745
 20
220.49
 11
176.745
 21
215.42
  0
LINE
  8
0
 10
176.745
 20
215.42
 11
182.745
 21
215.42
  0
LINE
  8
0
 10
182.745
 20
215.42
 11
182.745
 21
220.49
  0
LINE
  8
0
 10
182.745
 20
220.49
 11
188.745
 21
220.49
  0
LINE
  8
0
 10
188.745
 20
220.49
 11
188.745
 21
215.42
  0
LINE
  8
0
 10
188.745
 20
215.42
 11
194.745
 21
215.42
  0
LINE
  8
0
 10
194.745
 20
215.42
 11
194.745
 21
220.49
  0
LINE
  8
0
 10
194.745
 20
220.49
 11
200.745
 21
220.49
  0
LINE
  8
0
 10
200.745
 20
220.49
 11
200.745
 21
215.42
  0
LINE
  8
0
 10
200.745
 20
215.42
 11
206.745
 21
215.42
  0
LINE
  8
0
 10
206.745
 20
215.42
 11
206.745
 21
220.49
  0
LINE
  8
0
 10
206.745
 20
220.49
 11
212.745
 21
220.49
  0
LINE
  8
0
 10
212.745
 20
220.49
 11
212.745
 21
215.42
  0
LINE
  8
0
 10
212.745
 20
215.42
 11
218.745
 21
215.42
  0
LINE
  8
0
 10
218.745
 20
215.42
 11
218.745
 21
220.49
  0
LINE
  8
0
 10
218.745
 20
220.49
 11
224.745
 21
220.49
  0
LINE
  8
0
 10
224.745
 20
220.49
 11
224.745
 21
215.42
  0
LINE
  8
0
 10
224.745
 20
215.42
 11
257.745
 21
215.42
  0
LINE
  8
0
 10
257.745
 20
215.42
 11
257.745
 21
221.42
  0
LINE
  8
0
 10
257.745
 20
221.42
 11
262.815
 21
221.42
  0
LINE
  8
0
 10
262.815
 20
221.42
 11
262.815
 21
227.42
  0
LINE
  8
0
 10
262.815
 20
227.42
 11
257.745
 21
227.42
  0
LINE
  8
0
 10
257.745
 20
227.42
 11
257.745
 21
233.42
  0
LINE
  8
0
 10
257.745
 20
233.42
 11
262.815
 21
233.42
  0
LINE
  8
0
 10
262.815
 20
233.42
 11
262.815
 21
239.42
  0
LINE
  8
0
 10
262.815
 20
239.42
 11
257.745
 21
239.42
  0
LINE
  8
0
 10
257.745
 20
239.42
 11
257.745
 21
245.42
  0
LINE
  8
0
 10
257.745
 20
245.42
 11
137.745
 21
245.42
  0
LINE
  8
0
 10
137.745
 20
245.42
 11
137.745
 21
239.42
  0
LINE
  8
0
 10
137.745
 20
239.42
 11
132.675
 21
239.42
  0
LINE
  8
0
 10
132.675
 20
239.42
 11
132.675
 21
233.42
  0
LINE
  8
0
 10
132.675
 20
233.42
 11
137.745
 21
233.42
  0
LINE
  8
0
 10
137.745
 20
233.42
 11
137.745
 21
227.42
  0
LINE
  8
0
 10
137.745
 20
227.42
 11
132.675
 21
227.42
  0
LINE
  8
0
 10
132.675
 20
227.42
 11
132.675
 21
221.42
  0
LINE
  8
0
 10
132.675
 20
221.42
 11
137.745
 21
221.42
  0
LINE
  8
0
 10
137.745
 20
221.42
 11
137.745
 21
215.42
  0
LINE
  8
0
 10
137.745
 20
215.42
 11
170.745
 21
215.42
  0
LINE
  8
0
 10
170.745
 20
215.42
 11
170.745
 21
220.49
  0
LINE
  8
0
 10
145.35
 20
237.815
 11
145.35
 21
240.455
  0
LINE
  8
0
 10
145.35
 20
240.455
 11
245.35
 21
240.455
  0
LINE
  8
0
 10
245.35
 20
240.455
 11
245.35
 21
237.815
  0
LINE
  8
0
 10
245.35
 20
237.815
 11
145.35
 21
237.815
  0
LINE
  8
0
 10
49
 20
185.35
 11
55
 21
185.35
  0
LINE
  8
0
 10
55
 20
185.35
 11
55
 21
180.28
  0
LINE
  8
0
 10
55
 20
180.28
 11
61
 21
180.28
  0
LINE
  8
0
 10
61
 20
180.28
 11
61
 21
185.35
  0
LINE
  8
0
 10
61
 20
185.35
 11
67
 21
185.35
  0
LINE
  8
0
 10
67
 20
185.35
 11
67
 21
180.28
  0
LINE
  8
0
 10
67
 20
180.28
 11
73
 21
180.28
  0
LINE
  8
0
 10
73
 20
180.28
 11
73
 21
185.35
  0
LINE
  8
0
 10
73
 20
185.35
 11
79
 21
185.35
  0
LINE
  8
0
 10
79
 20
185.35
 11
79
 21
180.28
  0
LINE
  8
0
 10
79
 20
180.28
 11
85
 21
180.28
  0
LINE
  8
0
 10
85
 20
180.28
 11
85
 21
185.35
  0
LINE
  8
0
 10
85
 20
185.35
 11
91
 21
185.35
  0
LINE
  8
0
 10
91
 20
185.35
 11
91
 21
180.28
  0
LINE
  8
0
 10
91
 20
180.28
 11
97
 21
180.28
  0
LINE
  8
0
 10
97
 20
180.28
 11
97
 21
185.35
  0
LINE
  8
0
 10
97
 20
185.35
 11
103
 21
185.35
  0
LINE
  8
0
 10
103
 20
185.35
 11
103
 21
180.28
  0
LINE
  8
0
 10
103
 20
180.28
 11
109
 21
180.28
  0
LINE
  8
0
 10
109
 20
180.28
 11
109
 21
185.35
  0
LINE
  8
0
 10
109
 20
185.35
 11
115
 21
185.35
  0
LINE
  8
0
 10
115
 20
185.35
 11
115
 21
180.28
  0
LINE
  8
0
 10
115
 20
180.28
 11
121
 21
180.28
  0
LINE
  8
0
 10
121
 20
180.28
 11
121
 21
185.35
  0
LINE
  8
0
 10
121
 20
185.35
 11
127
 21
185.35
  0
LINE
  8
0
 10
127
 20
185.35
 11
127
 21
180.28
  0
LINE
  8
0
 10
127
 20
180.28
 11
133
 21
180.28
  0
LINE
  8
0
 10
133
 20
180.28
 11
133
 21
185.35
  0
LINE
  8
0
 10
133
 20
185.35
 11
139
 21
185.35
  0
LINE
  8
0
 10
139
 20
185.35
 11
139
 21
180.28
  0
LINE
  8
0
 10
139
 20
180.28
 11
145
 21
180.28
  0
LINE
  8
0
 10
145
 20
180.28
 11
145
 21
185.35
  0
LINE
  8
0
 10
145
 20
185.35
 11
151
 21
185.35
  0
LINE
  8
0
 10
151
 20
185.35
 11
151
 21
180.28
  0
LINE
  8
0
 10
151
 20
180.28
 11
157
 21
180.28
  0
LINE
  8
0
 10
157
 20
180.28
 11
157
 21
185.35
  0
LINE
  8
0
 10
157
 20
185.35
 11
163
 21
185.35
  0
LINE
  8
0
 10
163
 20
185.35
 11
163
 21
180.28
  0
LINE
  8
0
 10
163
 20
180.28
 11
169
 21
180.28
  0
LINE
  8
0
 10
169
 20
180.28
 11
169
 21
185.35
  0
LINE
  8
0
 10
169
 20
185.35
 11
175
 21
185.35
  0
LINE
  8
0
 10
175
 20
185.35
 11
175
 21
180.28
  0
LINE
  8
0
 10
175
 20
180.28
 11
181
 21
180.28
  0
LINE
  8
0
 10
181
 20
180.28
 11
181
 21
185.35
  0
LINE
  8
0
 10
181
 20
185.35
 11
187
 21
185.35
  0
LINE
  8
0
 10
187
 20
185.35
 11
187
 21
180.28
  0
LINE
  8
0
 10
187
 20
180.28
 11
193
 21
180.28
  0
LINE
  8
0
 10
193
 20
180.28
 11
193
 21
185.35
  0
LINE
  8
0
 10
193
 20
185.35
 11
199
 21
185.35
  0
LINE
  8
0
 10
199
 20
185.35
 11
199
 21
180.28
  0
LINE
  8
0
 10
199
 20
180.28
 11
205
 21
180.28
  0
LINE
  8
0
 10
205
 20
180.28
 11
205
 21
185.35
  0
LINE
  8
0
 10
205
 20
185.35
 11
211
 21
185.35
  0
LINE
  8
0
 10
211
 20
185.35
 11
211
 21
180.28
  0
LINE
  8
0
 10
211
 20
180.28
 11
265.07
 21
180.28
  0
LINE
  8
0
 10
265.07
 20
180.28
 11
265.07
 21
186.28
  0
LINE
  8
0
 10
265.07
 20
186.28
 11
260
 21
186.28
  0
LINE
  8
0
 10
260
 20
186.28
 11
260
 21
192.28
  0
LINE
  8
0
 10
260
 20
192.28
 11
265.07
 21
192.28
  0
LINE
  8
0
 10
265.07
 20
192.28
 11
265.07
 21
198.28
  0
LINE
  8
0
 10
265.07
 20
198.28
 11
260
 21
198.28
  0
LINE
  8
0
 10
260
 20
198.28
 11
260
 21
204.28
  0
LINE
  8
0
 10
260
 20
204.28
 11
265.07
 21
204.28
  0
LINE
  8
0
 10
265.07
 20
204.28
 11
265.07
 21
210.28
  0
LINE
  8
0
 10
265.07
 20
210.28
 11
-5.06999
 21
210.28
  0
LINE
  8
0
 10
-5.06999
 20
210.28
 11
-5.06999
 21
204.28
  0
LINE
  8
0
 10
-5.06999
 20
204.28
 11
0
 21
204.28
  0
LINE
  8
0
 10
0
 20
204.28
 11
0
 21
198.28
  0
LINE
  8
0
 10
0
 20
198.28
 11
-5.06999
 21
198.28
  0
LINE
  8
0
 10
-5.06999
 20
198.28
 11
-5.06999
 21
192.28
  0
LINE
  8
0
 10
-5.06999
 20
192.28
 11
0
 21
192.28
  0
LINE
  8
0
 10
0
 20
192.28
 11
0
 21
186.28
  0
LINE
  8
0
 10
0
 20
186.28
 11
-5.06999
 21
186.28
  0
LINE
  8
0
 10
-5.06999
 20
186.28
 11
-5.06999
 21
180.28
  0
LINE
  8
0
 10
-5.06999
 20
180.28
 11
49
 21
180.28
  0
LINE
  8
0
 10
49
 20
180.28
 11
49
 21
185.35
  0
LINE
  8
0
 10
49
 20
140.21
 11
55
 21
140.21
  0
LINE
  8
0
 10
55
 20
140.21
 11
55
 21
135.14
  0
LINE
  8
0
 10
55
 20
135.14
 11
61
 21
135.14
  0
LINE
  8
0
 10
61
 20
135.14
 11
61
 21
140.21
  0
LINE
  8
0
 10
61
 20
140.21
 11
67
 21
140.21
  0
LINE
  8
0
 10
67
 20
140.21
 11
67
 21
135.14
  0
LINE
  8
0
 10
67
 20
135.14
 11
73
 21
135.14
  0
LINE
  8
0
 10
73
 20
135.14
 11
73
 21
140.21
  0
LINE
  8
0
 10
73
 20
140.21
 11
79
 21
140.21
  0
LINE
  8
0
 10
79
 20
140.21
 11
79
 21
135.14
  0
LINE
  8
0
 10
79
 20
135.14
 11
85
 21
135.14
  0
LINE
  8
0
 10
85
 20
135.14
 11
85
 21
140.21
  0
LINE
  8
0
 10
85
 20
140.21
 11
91
 21
140.21
  0
LINE
  8
0
 10
91
 20
140.21
 11
91
 21
135.14
  0
LINE
  8
0
 10
91
 20
135.14
 11
97
 21
135.14
  0
LINE
  8
0
 10
97
 20
135.14
 11
97
 21
140.21
  0
LINE
  8
0
 10
97
 20
140.21
 11
103
 21
140.21
  0
LINE
  8
0
 10
103
 20
140.21
 11
103
 21
135.14
  0
LINE
  8
0
 10
103
 20
135.14
 11
109
 21
135.14
  0
LINE
  8
0
 10
109
 20
135.14
 11
109
 21
140.21
  0
LINE
  8
0
 10
109
 20
140.21
 11
115
 21
140.21
  0
LINE
  8
0
 10
115
 20
140.21
 11
115
 21
135.14
  0
LINE
  8
0
 10
115
 20
135.14
 11
121
 21
135.14
  0
LINE
  8
0
 10
121
 20
135.14
 11
121
 21
140.21
  0
LINE
  8
0
 10
121
 20
140.21
 11
127
 21
140.21
  0
LINE
  8
0
 10
127
 20
140.21
 11
127
 21
135.14
  0
LINE
  8
0
 10
127
 20
135.14
 11
133
 21
135.14
  0
LINE
  8
0
 10
133
 20
135.14
 11
133
 21
140.21
  0
LINE
  8
0
 10
133
 20
140.21
 11
139
 21
140.21
  0
LINE
  8
0
 10
139
 20
140.21
 11
139
 21
135.14
  0
LINE
  8
0
 10
139
 20
135.14
 11
145
 21
135.14
  0
LINE
  8
0
 10
145
 20
135.14
 11
145
 21
140.21
  0
LINE
  8
0
 10
145
 20
140.21
 11
151
 21
140.21
  0
LINE
  8
0
 10
151
 20
140.21
 11
151
 21
135.14
  0
LINE
  8
0
 10
151
 20
135.14
 11
157
 21
135.14
  0
LINE
  8
0
 10
157
 20
135.14
 11
157
 21
140.21
  0
LINE
  8
0
 10
157
 20
140.21
 11
163
 21
140.21
  0
LINE
  8
0
 10
163
 20
140.21
 11
163
 21
135.14
  0
LINE
  8
0
 10
163
 20
135.14
 11
169
 21
135.14
  0
LINE
  8
0
 10
169
 20
135.14
 11
169
 21
140.21
  0
LINE
  8
0
 10
169
 20
140.21
 11
175
 21
140.21
  0
LINE
  8
0
 10
175
 20
140.21
 11
175
 21
135.14
  0
LINE
  8
0
 10
175
 20
135.14
 11
181
 21
135.14
  0
LINE
  8
0
 10
181
 20
135.14
 11
181
 21
140.21
  0
LINE
  8
0
 10
181
 20
140.21
 11
187
 21
140.21
  0
LINE
  8
0
 10
187
 20
140.21
 11
187
 21
135.14
  0
LINE
  8
0
 10
187
 20
135.14
 11
193
 21
135.14
  0
LINE
  8
0
 10
193
 20
135.14
 11
193
 21
140.21
  0
LINE
  8
0
 10
193
 20
140.21
 11
199
 21
140.21
  0
LINE
  8
0
 10
199
 20
140.21
 11
199
 21
135.14
  0
LINE
  8
0
 10
199
 20
135.14
 11
205
 21
135.14
  0
LINE
  8
0
 10
205
 20
135.14
 11
205
 21
140.21
  0
LINE
  8
0
 10
205
 20
140.21
 11
211
 21
140.21
  0
LINE
  8
0
 10
211
 20
140.21
 11
211
 21
135.14
  0
LINE
  8
0
 10
211
 20
135.14
 11
265.07
 21
135.14
  0
LINE
  8
0
 10
265.07
 20
135.14
 11
265.07
 21
141.14
  0
LINE
  8
0
 10
265.07
 20
141.14
 11
260
 21
141.14
  0
LINE
  8
0
 10
260
 20
141.14
 11
260
 21
147.14
  0
LINE
  8
0
 10
260
 20
147.14
 11
265.07
 21
147.14
  0
LINE
  8
0
 10
265.07
 20
147.14
 11
265.07
 21
153.14
  0
LINE
  8
0
 10
265.07
 20
153.14
 11
260
 21
153.14
  0
LINE
  8
0
 10
260
 20
153.14
 11
260
 21
159.14
  0
LINE
  8
0
 10
260
 20
159.14
 11
265.07
 21
159.14
  0
LINE
  8
0
 10
265.07
 20
159.14
 11
265.07
 21
165.14
  0
LINE
  8
0
 10
265.07
 20
165.14
 11
-5.06999
 21
165.14
  0
LINE
  8
0
 10
-5.06999
 20
165.14
 11
-5.06999
 21
159.14
  0
LINE
  8
0
 10
-5.06999
 20
159.14
 11
0
 21
159.14
  0
LINE
  8
0
 10
0
 20
159.14
 11
0
 21
153.14
  0
LINE
  8
0
 10
0
 20
153.14
 11
-5.06999
 21
153.14
  0
LINE
  8
0
 10
-5.06999
 20
153.14
 11
-5.06999
 21
147.14
  0
LINE
  8
0
 10
-5.06999
 20
147.14
 11
0
 21
147.14
  0
LINE
  8
0
 10
0
 20
147.14
 11
0
 21
141.14
  0
LINE
  8
0
 10
0
 20
141.14
 11
-5.06999
 21
141.14
  0
LINE
  8
0
 10
-5.06999
 20
141.14
 11
-5.06999
 21
135.14
  0
LINE
  8
0
 10
-5.06999
 20
135.14
 11
49
 21
135.14
  0
LINE
  8
0
 10
49
 20
135.14
 11
49
 21
140.21
  0
LINE
  8
0
 10
67
 20
-5.06999
 11
67
 21
0
  0
LINE
  8
0
 10
67
 20
0
 11
73
 21
0
  0
LINE
  8
0
 10
73
 20
0
 11
73
 21
-5.06999
  0
LINE
  8
0
 10
73
 20
-5.06999
 11
79
 21
-5.06999
  0
LINE
  8
0
 10
79
 20
-5.06999
 11
79
 21
0
  0
LINE
  8
0
 10
79
 20
0
 11
85
 21
0
  0
LINE
  8
0
 10
85
 20
0
 11
85
 21
-5.06999
  0
LINE
  8
0
 10
85
 20
-5.06999
 11
91
 21
-5.06999
  0
LINE
  8
0
 10
91
 20
-5.06999
 11
91
 21
0
  0
LINE
  8
0
 10
91
 20
0
 11
97
 21
0
  0
LINE
  8
0
 10
97
 20
0
 11
97
 21
-5.06999
  0
LINE
  8
0
 10
97
 20
-5.06999
 11
103
 21
-5.06999
  0
LINE
  8
0
 10
103
 20
-5.06999
 11
103
 21
0
  0
LINE
  8
0
 10
103
 20
0
 11
109
 21
0
  0
LINE
  8
0
 10
109
 20
0
 11
109
 21
-5.06999
  0
LINE
  8
0
 10
109
 20
-5.06999
 11
115
 21
-5.06999
  0
LINE
  8
0
 10
115
 20
-5.06999
 11
115
 21
0
  0
LINE
  8
0
 10
115
 20
0
 11
121
 21
0
  0
LINE
  8
0
 10
121
 20
0
 11
121
 21
-5.06999
  0
LINE
  8
0
 10
121
 20
-5.06999
 11
127
 21
-5.06999
  0
LINE
  8
0
 10
127
 20
-5.06999
 11
127
 21
0
  0
LINE
  8
0
 10
127
 20
0
 11
133
 21
0
  0
LINE
  8
0
 10
133
 20
0
 11
133
 21
-5.06999
  0
LINE
  8
0
 10
133
 20
-5.06999
 11
139
 21
-5.06999
  0
LINE
  8
0
 10
139
 20
-5.06999
 11
139
 21
0
  0
LINE
  8
0
 10
139
 20
0
 11
145
 21
0
  0
LINE
  8
0
 10
145
 20
0
 11
145
 21
-5.06999
  0
LINE
  8
0
 10
145
 20
-5.06999
 11
151
 21
-5.06999
  0
LINE
  8
0
 10
151
 20
-5.06999
 11
151
 21
0
  0
LINE
  8
0
 10
151
 20
0
 11
157
 21
0
  0
LINE
  8
0
 10
157
 20
0
 11
157
 21
-5.06999
  0
LINE
  8
0
 10
157
 20
-5.06999
 11
163
 21
-5.06999
  0
LINE
  8
0
 10
163
 20
-5.06999
 11
163
 21
0
  0
LINE
  8
0
 10
163
 20
0
 11
169
 21
0
  0
LINE
  8
0
 10
169
 20
0
 11
169
 21
-5.06999
  0
LINE
  8
0
 10
169
 20
-5.06999
 11
175
 21
-5.06999
  0
LINE
  8
0
 10
175
 20
-5.06999
 11
175
 21
0
  0
LINE
  8
0
 10
175
 20
0
 11
181
 21
0
  0
LINE
  8
0
 10
181
 20
0
 11
181
 21
-5.06999
  0
LINE
  8
0
 10
181
 20
-5.06999
 11
187
 21
-5.06999
  0
LINE
  8
0
 10
187
 20
-5.06999
 11
187
 21
0
  0
LINE
  8
0
 10
187
 20
0
 11
193
 21
0
  0
LINE
  8
0
 10
193
 20
0
 11
193
 21
-5.06999
  0
LINE
  8
0
 10
193
 20
-5.06999
 11
199
 21
-5.06999
  0
LINE
  8
0
 10
199
 20
-5.06999
 11
199
 21
0
  0
LINE
  8
0
 10
199
 20
0
 11
205
 21
0
  0
LINE
  8
0
 10
205
 20
0
 11
205
 21
-5.06999
  0
LINE
  8
0
 10
205
 20
-5.06999
 11
211
 21
-5.06999
  0
LINE
  8
0
 10
211
 20
-5.06999
 11
211
 21
0
  0
LINE
  8
0
 10
211
 20
0
 11
260
 21
0
  0
LINE
  8
0
 10
260
 20
0
 11
260
 21
33
  0
LINE
  8
0
 10
260
 20
33
 11
265.07
 21
33
  0
LINE
  8
0
 10
265.07
 20
33
 11
265.07
 21
39
  0
LINE
  8
0
 10
265.07
 20
39
 11
260
 21
39
  0
LINE
  8
0
 10
260
 20
39
 11
260
 21
45
  0
LINE
  8
0
 10
260
 20
45
 11
265.07
 21
45
  0
LINE
  8
0
 10
265.07
 20
45
 11
265.07
 21
51
  0
LINE
  8
0
 10
265.07
 20
51
 11
260
 21
51
  0
LINE
  8
0
 10
260
 20
51
 11
260
 21
57
  0
LINE
  8
0
 10
260
 20
57
 11
265.07
 21
57
  0
LINE
  8
0
 10
265.07
 20
57
 11
265.07
 21
63
  0
LINE
  8
0
 10
265.07
 20
63
 11
260
 21
63
  0
LINE
  8
0
 10
260
 20
63
 11
260
 21
69
  0
LINE
  8
0
 10
260
 20
69
 11
265.07
 21
69
  0
LINE
  8
0
 10
265.07
 20
69
 11
265.07
 21
75
  0
LINE
  8
0
 10
265.07
 20
75
 11
260
 21
75
  0
LINE
  8
0
 10
260
 20
75
 11
260
 21
81
  0
LINE
  8
0
 10
260
 20
81
 11
265.07
 21
81
  0
LINE
  8
0
 10
265.07
 20
81
 11
265.07
 21
87
  0
LINE
  8
0
 10
265.07
 20
87
 11
260
 21
87
  0
LINE
  8
0
 10
260
 20
87
 11
260
 21
120
  0
LINE
  8
0
 10
260
 20
120
 11
211
 21
120
  0
LINE
  8
0
 10
211
 20
120
 11
211
 21
125.07
  0
LINE
  8
0
 10
211
 20
125.07
 11
205
 21
125.07
  0
LINE
  8
0
 10
205
 20
125.07
 11
205
 21
120
  0
LINE
  8
0
 10
205
 20
120
 11
199
 21
120
  0
LINE
  8
0
 10
199
 20
120
 11
199
 21
125.07
  0
LINE
  8
0
 10
199
 20
125.07
 11
193
 21
125.07
  0
LINE
  8
0
 10
193
 20
125.07
 11
193
 21
120
  0
LINE
  8
0
 10
193
 20
120
 11
187
 21
120
  0
LINE
  8
0
 10
187
 20
120
 11
187
 21
125.07
  0
LINE
  8
0
 10
187
 20
125.07
 11
181
 21
125.07
  0
LINE
  8
0
 10
181
 20
125.07
 11
181
 21
120
  0
LINE
  8
0
 10
181
 20
120
 11
175
 21
120
  0
LINE
  8
0
 10
175
 20
120
 11
175
 21
125.07
  0
LINE
  8
0
 10
175
 20
125.07
 11
169
 21
125.07
  0
LINE
  8
0
 10
169
 20
125.07
 11
169
 21
120
  0
LINE
  8
0
 10
169
 20
120
 11
163
 21
120
  0
LINE
  8
0
 10
163
 20
120
 11
163
 21
125.07
  0
LINE
  8
0
 10
163
 20
125.07
 11
157
 21
125.07
  0
LINE
  8
0
 10
157
 20
125.07
 11
157
 21
120
  0
LINE
  8
0
 10
157
 20
120
 11
151
 21
120
  0
LINE
  8
0
 10
151
 20
120
 11
151
 21
125.07
  0
LINE
  8
0
 10
151
 20
125.07
 11
145
 21
125.07
  0
LINE
  8
0
 10
145
 20
125.07
 11
145
 21
120
  0
LINE
  8
0
 10
145
 20
120
 11
139
 21
120
  0
LINE
  8
0
 10
139
 20
120
 11
139
 21
125.07
  0
LINE
  8
0
 10
139
 20
125.07
 11
133
 21
125.07
  0
LINE
  8
0
 10
133
 20
125.07
 11
133
 21
120
  0
LINE
  8
0
 10
133
 20
120
 11
127
 21
120
  0
LINE
  8
0
 10
127
 20
120
 11
127
 21
125.07
  0
LINE
  8
0
 10
127
 20
125.07
 11
121
 21
125.07
  0
LINE
  8
0
 10
121
 20
125.07
 11
121
 21
120
  0
LINE
  8
0
 10
121
 20
120
 11
115
 21
120
  0
LINE
  8
0
 10
115
 20
120
 11
115
 21
125.07
  0
LINE
  8
0
 10
115
 20
125.07
 11
109
 21
125.07
  0
LINE
  8
0
 10
109
 20
125.07
 11
109
 21
120
  0
LINE
  8
0
 10
109
 20
120
 11
103
 21
120
  0
LINE
  8
0
 10
103
 20
120
 11
103
 21
125.07
  0
LINE
  8
0
 10
103
 20
125.07
 11
97
 21
125.07
  0
LINE
  8
0
 10
97
 20
125.07
 11
97
 21
120
  0
LINE
  8
0
 10
97
 20
120
 11
91
 21
120
  0
LINE
  8
0
 10
91
 20
120
 11
91
 21
125.07
  0
LINE
  8
0
 10
91
 20
125.07
 11
85
 21
125.07
  0
LINE
  8
0
 10
85
 20
125.07
 11
85
 21
120
  0
LINE
  8
0
 10
85
 20
120
 11
79
 21
120
  0
LINE
  8
0
 10
79
 20
120
 11
79
 21
125.07
  0
LINE
  8
0
 10
79
 20
125.07
 11
73
 21
125.07
  0
LINE
  8
0
 10
73
 20
125.07
 11
73
 21
120
  0
LINE
  8
0
 10
73
 20
120
 11
67
 21
120
  0
LINE
  8
0
 10
67
 20
120
 11
67
 21
125.07
  0
LINE
  8
0
 10
67
 20
125.07
 11
61
 21
125.07
  0
LINE
  8
0
 10
61
 20
125.07
 11
61
 21
120
  0
LINE
  8
0
 10
61
 20
120
 11
55
 21
120
  0
LINE
  8
0
 10
55
 20
120
 11
55
 21
125.07
  0
LINE
  8
0
 10
55
 20
125.07
 11
49
 21
125.07
  0
LINE
  8
0
 10
49
 20
125.07
 11
49
 21
120
  0
LINE
  8
0
 10
49
 20
120
 11
0
 21
120
  0
LINE
  8
0
 10
0
 20
120
 11
0
 21
87
  0
LINE
  8
0
 10
0
 20
87
 11
-5.06999
 21
87
  0
LINE
  8
0
 10
-5.06999
 20
87
 11
-5.06999
 21
81
  0
LINE
  8
0
 10
-5.06999
 20
81
 11
0
 21
81
  0
LINE
  8
0
 10
0
 20
81
 11
0
 21
75
  0
LINE
  8
0
 10
0
 20
75
 11
-5.06999
 21
75
  0
LINE
  8
0
 10
-5.06999
 20
75
 11
-5.06999
 21
69
  0
LINE
  8
0
 10
-5.06999
 20
69
 11
0
 21
69
  0
LINE
  8
0
 10
0
 20
69
 11
0
 21
63
  0
LINE
  8
0
 10
0
 20
63
 11
-5.06999
 21
63
  0
LINE
  8
0
 10
-5.06999
 20
63
 11
-5.06999
 21
57
  0
LINE
  8
0
 10
-5.06999
 20
57
 11
0
 21
57
  0
LINE
  8
0
 10
0
 20
57
 11
0
 21
51
  0
LINE
  8
0
 10
0
 20
51
 11
-5.06999
 21
51
  0
LINE
  8
0
 10
-5.06999
 20
51
 11
-5.06999
 21
45
  0
LINE
  8
0
 10
-5.06999
 20
45
 11
0
 21
45
  0
LINE
  8
0
 10
0
 20
45
 11
0
 21
39
  0
LINE
  8
0
 10
0
 20
39
 11
-5.06999
 21
39
  0
LINE
  8
0
 10
-5.06999
 20
39
 11
-5.06999
 21
33
  0
LINE
  8
0
 10
-5.06999
 20
33
 11
0
 21
33
  0
LINE
  8
0
 10
0
 20
33
 11
0
 21
0
  0
LINE
  8
0
 10
0
 20
0
 11
61
 21
0
  0
LINE
  8
0
 10
61
 20
0
 11
61
 21
-5.06999
  0
LINE
  8
0
 10
61
 20
-5.06999
 11
67
 21
-5.06999
  0
LINE
  8
0
 10
55
 20
0
 11
49
 21
0
  0
LINE
  8
0
 10
49
 20
0
 11
49
 21
-5.06999
  0
LINE
  8
0
 10
49
 20
-5.06999
 11
55
 21
-5.06999
  0
LINE
  8
0
 10
55
 20
-5.06999
 11
55
 21
0
  0
ENDSEC
  0
SECTION
  2
OBJECTS
  0
DICTIONARY
  0
ENDSEC
  0
EOF
