  0
SECTION
  2
HEADER
  9
$ACADVER
  1
AC1014
  9
$HANDSEED
  5
FFFF
  9
$MEASUREMENT
 70
     1
  0
ENDSEC
  0
SECTION
  2
TABLES
  0
TABLE
  2
VPORT
  5
8
330
0
100
AcDbSymbolTable
 70
     4
  0
VPORT
  5
2E
330
8
100
AcDbSymbolTableRecord
100
AcDbViewportTableRecord
  2
*ACTIVE
 70
     0
 10
0.0
 20
0.0
 11
1.0
 21
1.0
 12
210.0
 22
148.5
 13
0.0
 23
0.0
 14
10.0
 24
10.0
 15
10.0
 25
10.0
 16
0.0
 26
0.0
 36
1.0
 17
0.0
 27
0.0
 37
0.0
 40
341.0
 41
1.24
 42
50.0
 43
0.0
 44
0.0
 50
0.0
 51
0.0
 71
     0
 72
   100
 73
     1
 74
     3
 75
     0
 76
     0
 77
     0
 78
     0
  0
ENDTAB
  0
TABLE
  2
LTYPE
  5
5
330
0
100
AcDbSymbolTable
 70
     1
  0
LTYPE
  5
14
330
5
100
AcDbSymbolTableRecord
100
AcDbLinetypeTableRecord
  2
BYBLOCK
 70
     0
  3

 72
    65
 73
     0
 40
0.0
  0
LTYPE
  5
15
330
5
100
AcDbSymbolTableRecord
100
AcDbLinetypeTableRecord
  2
BYLAYER
 70
     0
  3

 72
    65
 73
     0
 40
0.0
  0
LTYPE
  5
16
330
5
100
AcDbSymbolTableRecord
100
AcDbLinetypeTableRecord
  2
CONTINUOUS
 70
     0
  3
Solid line
 72
    65
 73
     0
 40
0.0
  0
ENDTAB
  0
TABLE
  2
LAYER
  5
2
100
AcDbSymbolTable
 70
1
  0
LAYER
  5
50
100
AcDbSymbolTableRecord
100
AcDbLayerTableRecord
  2
0
 70
0
  6
CONTINUOUS
  0
ENDTAB
  0
TABLE
  2
STYLE
  5
3
330
0
100
AcDbSymbolTable
 70
     1
  0
STYLE
  5
11
330
3
100
AcDbSymbolTableRecord
100
AcDbTextStyleTableRecord
  2
STANDARD
 70
     0
 40
0.0
 41
1.0
 50
0.0
 71
     0
 42
2.5
  3
txt
  4

  0
ENDTAB
  0
TABLE
  2
VIEW
  5
6
330
0
100
AcDbSymbolTable
 70
     0
  0
ENDTAB
  0
TABLE
  2
UCS
  5
7
330
0
100
AcDbSymbolTable
 70
     0
  0
ENDTAB
  0
TABLE
  2
APPID
  5
9
330
0
100
AcDbSymbolTable
 70
     2
  0
APPID
  5
12
330
9
100
AcDbSymbolTableRecord
100
AcDbRegAppTableRecord
  2
ACAD
 70
     0
  0
ENDTAB
  0
TABLE
  2
DIMSTYLE
  5
A
330
0
100
AcDbSymbolTable
 70
     1
  0
DIMSTYLE
105
27
330
A
100
AcDbSymbolTableRecord
100
AcDbDimStyleTableRecord
  2
ISO-25
 70
     0
  3

  4

  5

  6

  7

 40
1.0
 41
2.5
 42
0.625
 43
3.75
 44
1.25
 45
0.0
 46
0.0
 47
0.0
 48
0.0
140
2.5
141
2.5
142
0.0
143
0.03937007874016
144
1.0
145
0.0
146
1.0
147
0.625
 71
     0
 72
     0
 73
     0
 74
     0
 75
     0
 76
     0
 77
     1
 78
     8
170
     0
171
     3
172
     1
173
     0
174
     0
175
     0
176
     0
177
     0
178
     0
270
     2
271
     2
272
     2
273
     2
274
     3
340
11
275
     0
280
     0
281
     0
282
     0
283
     0
284
     8
285
     0
286
     0
287
     3
288
     0
  0
ENDTAB
  0
TABLE
  2
BLOCK_RECORD
  5
1
330
0
100
AcDbSymbolTable
 70
     1
  0
BLOCK_RECORD
  5
1F
330
1
100
AcDbSymbolTableRecord
100
AcDbBlockTableRecord
  2
*MODEL_SPACE
  0
BLOCK_RECORD
  5
1B
330
1
100
AcDbSymbolTableRecord
100
AcDbBlockTableRecord
  2
*PAPER_SPACE
  0
ENDTAB
  0
ENDSEC
  0
SECTION
  2
BLOCKS
  0
BLOCK
  5
20
330
1F
100
AcDbEntity
  8
0
100
AcDbBlockBegin
  2
*MODEL_SPACE
 70
     0
 10
0.0
 20
0.0
 30
0.0
  3
*MODEL_SPACE
  1

  0
ENDBLK
  5
21
330
1F
100
AcDbEntity
  8
0
100
AcDbBlockEnd
  0
BLOCK
  5
1C
330
1B
100
AcDbEntity
 67
     1
  8
0
100
AcDbBlockBegin
  2
*PAPER_SPACE
  1

  0
ENDBLK
  5
1D
330
1B
100
AcDbEntity
 67
     1
  8
0
100
AcDbBlockEnd
  0
ENDSEC
  0
SECTION
  2
ENTITIES
  0
LWPOLYLINE
  5
100
100
AcDbEntity
  8
0
 62
7
100
AcDbPolyline
 90
49
 70
0
 10
184.245000
 20
202.630000
 30
0.0
 10
187.245000
 20
202.630000
 30
0.0
 10
187.245000
 20
197.560000
 30
0.0
 10
190.245000
 20
197.560000
 30
0.0
 10
190.245000
 20
202.630000
 30
0.0
 10
193.245000
 20
202.630000
 30
0.0
 10
193.245000
 20
197.560000
 30
0.0
 10
196.245000
 20
197.560000
 30
0.0
 10
196.245000
 20
202.630000
 30
0.0
 10
199.245000
 20
202.630000
 30
0.0
 10
199.245000
 20
197.560000
 30
0.0
 10
202.245000
 20
197.560000
 30
0.0
 10
202.245000
 20
202.630000
 30
0.0
 10
205.245000
 20
202.630000
 30
0.0
 10
205.245000
 20
197.560000
 30
0.0
 10
208.245000
 20
197.560000
 30
0.0
 10
208.245000
 20
202.630000
 30
0.0
 10
211.245000
 20
202.630000
 30
0.0
 10
211.245000
 20
197.560000
 30
0.0
 10
262.815000
 20
197.560000
 30
0.0
 10
262.815000
 20
200.595000
 30
0.0
 10
257.745000
 20
200.595000
 30
0.0
 10
257.745000
 20
203.595000
 30
0.0
 10
262.815000
 20
203.595000
 30
0.0
 10
262.815000
 20
206.595000
 30
0.0
 10
257.745000
 20
206.595000
 30
0.0
 10
257.745000
 20
209.595000
 30
0.0
 10
262.815000
 20
209.595000
 30
0.0
 10
262.815000
 20
212.595000
 30
0.0
 10
257.745000
 20
212.595000
 30
0.0
 10
257.745000
 20
215.595000
 30
0.0
 10
262.815000
 20
215.595000
 30
0.0
 10
262.815000
 20
218.630000
 30
0.0
 10
132.675000
 20
218.630000
 30
0.0
 10
132.675000
 20
215.595000
 30
0.0
 10
137.745000
 20
215.595000
 30
0.0
 10
137.745000
 20
212.595000
 30
0.0
 10
132.675000
 20
212.595000
 30
0.0
 10
132.675000
 20
209.595000
 30
0.0
 10
137.745000
 20
209.595000
 30
0.0
 10
137.745000
 20
206.595000
 30
0.0
 10
132.675000
 20
206.595000
 30
0.0
 10
132.675000
 20
203.595000
 30
0.0
 10
137.745000
 20
203.595000
 30
0.0
 10
137.745000
 20
200.595000
 30
0.0
 10
132.675000
 20
200.595000
 30
0.0
 10
132.675000
 20
197.560000
 30
0.0
 10
184.245000
 20
197.560000
 30
0.0
 10
184.245000
 20
202.630000
 30
0.0
  0
LWPOLYLINE
  5
101
100
AcDbEntity
  8
0
 62
7
100
AcDbPolyline
 90
5
 70
0
 10
152.955000
 20
213.560000
 30
0.0
 10
152.955000
 20
216.200000
 30
0.0
 10
237.745000
 20
216.200000
 30
0.0
 10
237.745000
 20
213.560000
 30
0.0
 10
152.955000
 20
213.560000
 30
0.0
  0
LWPOLYLINE
  5
102
100
AcDbEntity
  8
0
 62
7
100
AcDbPolyline
 90
49
 70
0
 10
51.570000
 20
202.630000
 30
0.0
 10
54.570000
 20
202.630000
 30
0.0
 10
54.570000
 20
197.560000
 30
0.0
 10
57.570000
 20
197.560000
 30
0.0
 10
57.570000
 20
202.630000
 30
0.0
 10
60.570000
 20
202.630000
 30
0.0
 10
60.570000
 20
197.560000
 30
0.0
 10
63.570000
 20
197.560000
 30
0.0
 10
63.570000
 20
202.630000
 30
0.0
 10
66.570000
 20
202.630000
 30
0.0
 10
66.570000
 20
197.560000
 30
0.0
 10
69.570000
 20
197.560000
 30
0.0
 10
69.570000
 20
202.630000
 30
0.0
 10
72.570000
 20
202.630000
 30
0.0
 10
72.570000
 20
197.560000
 30
0.0
 10
75.570000
 20
197.560000
 30
0.0
 10
75.570000
 20
202.630000
 30
0.0
 10
78.570000
 20
202.630000
 30
0.0
 10
78.570000
 20
197.560000
 30
0.0
 10
130.140000
 20
197.560000
 30
0.0
 10
130.140000
 20
200.595000
 30
0.0
 10
125.070000
 20
200.595000
 30
0.0
 10
125.070000
 20
203.595000
 30
0.0
 10
130.140000
 20
203.595000
 30
0.0
 10
130.140000
 20
206.595000
 30
0.0
 10
125.070000
 20
206.595000
 30
0.0
 10
125.070000
 20
209.595000
 30
0.0
 10
130.140000
 20
209.595000
 30
0.0
 10
130.140000
 20
212.595000
 30
0.0
 10
125.070000
 20
212.595000
 30
0.0
 10
125.070000
 20
215.595000
 30
0.0
 10
130.140000
 20
215.595000
 30
0.0
 10
130.140000
 20
218.630000
 30
0.0
 10
0.000000
 20
218.630000
 30
0.0
 10
0.000000
 20
215.595000
 30
0.0
 10
5.069990
 20
215.595000
 30
0.0
 10
5.069990
 20
212.595000
 30
0.0
 10
0.000000
 20
212.595000
 30
0.0
 10
0.000000
 20
209.595000
 30
0.0
 10
5.069990
 20
209.595000
 30
0.0
 10
5.069990
 20
206.595000
 30
0.0
 10
0.000000
 20
206.595000
 30
0.0
 10
0.000000
 20
203.595000
 30
0.0
 10
5.069990
 20
203.595000
 30
0.0
 10
5.069990
 20
200.595000
 30
0.0
 10
0.000000
 20
200.595000
 30
0.0
 10
0.000000
 20
197.560000
 30
0.0
 10
51.570000
 20
197.560000
 30
0.0
 10
51.570000
 20
202.630000
 30
0.0
  0
LWPOLYLINE
  5
103
100
AcDbEntity
  8
0
 62
7
100
AcDbPolyline
 90
5
 70
0
 10
20.280000
 20
213.560000
 30
0.0
 10
20.280000
 20
216.200000
 30
0.0
 10
105.070000
 20
216.200000
 30
0.0
 10
105.070000
 20
213.560000
 30
0.0
 10
20.280000
 20
213.560000
 30
0.0
  0
LWPOLYLINE
  5
104
100
AcDbEntity
  8
0
 62
7
100
AcDbPolyline
 90
5
 70
0
 10
254.930000
 20
189.385000
 30
0.0
 10
249.860000
 20
189.385000
 30
0.0
 10
249.860000
 20
186.385000
 30
0.0
 10
254.930000
 20
186.385000
 30
0.0
 10
254.930000
 20
189.385000
 30
0.0
  0
LWPOLYLINE
  5
105
100
AcDbEntity
  8
0
 62
7
100
AcDbPolyline
 90
5
 70
0
 10
0.000000
 20
189.385000
 30
0.0
 10
-5.069990
 20
189.385000
 30
0.0
 10
-5.069990
 20
186.385000
 30
0.0
 10
0.000000
 20
186.385000
 30
0.0
 10
0.000000
 20
189.385000
 30
0.0
  0
LWPOLYLINE
  5
106
100
AcDbEntity
  8
0
 62
7
100
AcDbPolyline
 90
69
 70
0
 10
84.430000
 20
176.420000
 30
0.0
 10
87.430000
 20
176.420000
 30
0.0
 10
87.430000
 20
171.350000
 30
0.0
 10
90.430000
 20
171.350000
 30
0.0
 10
90.430000
 20
176.420000
 30
0.0
 10
93.430000
 20
176.420000
 30
0.0
 10
93.430000
 20
171.350000
 30
0.0
 10
96.430000
 20
171.350000
 30
0.0
 10
96.430000
 20
176.420000
 30
0.0
 10
99.430000
 20
176.420000
 30
0.0
 10
99.430000
 20
171.350000
 30
0.0
 10
102.430000
 20
171.350000
 30
0.0
 10
102.430000
 20
176.420000
 30
0.0
 10
105.430000
 20
176.420000
 30
0.0
 10
105.430000
 20
171.350000
 30
0.0
 10
108.430000
 20
171.350000
 30
0.0
 10
108.430000
 20
176.420000
 30
0.0
 10
111.430000
 20
176.420000
 30
0.0
 10
111.430000
 20
171.350000
 30
0.0
 10
114.430000
 20
171.350000
 30
0.0
 10
114.430000
 20
176.420000
 30
0.0
 10
117.430000
 20
176.420000
 30
0.0
 10
117.430000
 20
171.350000
 30
0.0
 10
120.430000
 20
171.350000
 30
0.0
 10
120.430000
 20
176.420000
 30
0.0
 10
123.430000
 20
176.420000
 30
0.0
 10
123.430000
 20
171.350000
 30
0.0
 10
126.430000
 20
171.350000
 30
0.0
 10
126.430000
 20
176.420000
 30
0.0
 10
129.430000
 20
176.420000
 30
0.0
 10
129.430000
 20
171.350000
 30
0.0
 10
132.430000
 20
171.350000
 30
0.0
 10
132.430000
 20
176.420000
 30
0.0
 10
135.430000
 20
176.420000
 30
0.0
 10
135.430000
 20
171.350000
 30
0.0
 10
138.430000
 20
171.350000
 30
0.0
 10
138.430000
 20
176.420000
 30
0.0
 10
141.430000
 20
176.420000
 30
0.0
 10
141.430000
 20
171.350000
 30
0.0
 10
144.430000
 20
171.350000
 30
0.0
 10
144.430000
 20
176.420000
 30
0.0
 10
147.430000
 20
176.420000
 30
0.0
 10
147.430000
 20
171.350000
 30
0.0
 10
150.430000
 20
171.350000
 30
0.0
 10
150.430000
 20
176.420000
 30
0.0
 10
153.430000
 20
176.420000
 30
0.0
 10
153.430000
 20
171.350000
 30
0.0
 10
156.430000
 20
171.350000
 30
0.0
 10
156.430000
 20
176.420000
 30
0.0
 10
159.430000
 20
176.420000
 30
0.0
 10
159.430000
 20
171.350000
 30
0.0
 10
162.430000
 20
171.350000
 30
0.0
 10
162.430000
 20
176.420000
 30
0.0
 10
165.430000
 20
176.420000
 30
0.0
 10
165.430000
 20
171.350000
 30
0.0
 10
249.860000
 20
171.350000
 30
0.0
 10
249.860000
 20
186.336000
 30
0.0
 10
0.000000
 20
186.336000
 30
0.0
 10
0.000000
 20
183.385000
 30
0.0
 10
-5.069990
 20
183.385000
 30
0.0
 10
-5.069990
 20
180.385000
 30
0.0
 10
0.000000
 20
180.385000
 30
0.0
 10
0.000000
 20
177.385000
 30
0.0
 10
-5.069990
 20
177.385000
 30
0.0
 10
-5.069990
 20
174.385000
 30
0.0
 10
0.000000
 20
174.385000
 30
0.0
 10
0.000000
 20
171.350000
 30
0.0
 10
84.430000
 20
171.350000
 30
0.0
 10
84.430000
 20
176.420000
 30
0.0
  0
LWPOLYLINE
  5
107
100
AcDbEntity
  8
0
 62
7
100
AcDbPolyline
 90
5
 70
0
 10
254.930000
 20
183.385000
 30
0.0
 10
249.860000
 20
183.385000
 30
0.0
 10
249.860000
 20
180.385000
 30
0.0
 10
254.930000
 20
180.385000
 30
0.0
 10
254.930000
 20
183.385000
 30
0.0
  0
LWPOLYLINE
  5
108
100
AcDbEntity
  8
0
 62
7
100
AcDbPolyline
 90
5
 70
0
 10
254.930000
 20
177.385000
 30
0.0
 10
249.860000
 20
177.385000
 30
0.0
 10
249.860000
 20
174.385000
 30
0.0
 10
254.930000
 20
174.385000
 30
0.0
 10
254.930000
 20
177.385000
 30
0.0
  0
LWPOLYLINE
  5
109
100
AcDbEntity
  8
0
 62
7
100
AcDbPolyline
 90
73
 70
0
 10
84.430000
 20
140.210000
 30
0.0
 10
87.430000
 20
140.210000
 30
0.0
 10
87.430000
 20
135.140000
 30
0.0
 10
90.430000
 20
135.140000
 30
0.0
 10
90.430000
 20
140.210000
 30
0.0
 10
93.430000
 20
140.210000
 30
0.0
 10
93.430000
 20
135.140000
 30
0.0
 10
96.430000
 20
135.140000
 30
0.0
 10
96.430000
 20
140.210000
 30
0.0
 10
99.430000
 20
140.210000
 30
0.0
 10
99.430000
 20
135.140000
 30
0.0
 10
102.430000
 20
135.140000
 30
0.0
 10
102.430000
 20
140.210000
 30
0.0
 10
105.430000
 20
140.210000
 30
0.0
 10
105.430000
 20
135.140000
 30
0.0
 10
108.430000
 20
135.140000
 30
0.0
 10
108.430000
 20
140.210000
 30
0.0
 10
111.430000
 20
140.210000
 30
0.0
 10
111.430000
 20
135.140000
 30
0.0
 10
114.430000
 20
135.140000
 30
0.0
 10
114.430000
 20
140.210000
 30
0.0
 10
117.430000
 20
140.210000
 30
0.0
 10
117.430000
 20
135.140000
 30
0.0
 10
120.430000
 20
135.140000
 30
0.0
 10
120.430000
 20
140.210000
 30
0.0
 10
123.430000
 20
140.210000
 30
0.0
 10
123.430000
 20
135.140000
 30
0.0
 10
126.430000
 20
135.140000
 30
0.0
 10
126.430000
 20
140.210000
 30
0.0
 10
129.430000
 20
140.210000
 30
0.0
 10
129.430000
 20
135.140000
 30
0.0
 10
132.430000
 20
135.140000
 30
0.0
 10
132.430000
 20
140.210000
 30
0.0
 10
135.430000
 20
140.210000
 30
0.0
 10
135.430000
 20
135.140000
 30
0.0
 10
138.430000
 20
135.140000
 30
0.0
 10
138.430000
 20
140.210000
 30
0.0
 10
141.430000
 20
140.210000
 30
0.0
 10
141.430000
 20
135.140000
 30
0.0
 10
144.430000
 20
135.140000
 30
0.0
 10
144.430000
 20
140.210000
 30
0.0
 10
147.430000
 20
140.210000
 30
0.0
 10
147.430000
 20
135.140000
 30
0.0
 10
150.430000
 20
135.140000
 30
0.0
 10
150.430000
 20
140.210000
 30
0.0
 10
153.430000
 20
140.210000
 30
0.0
 10
153.430000
 20
135.140000
 30
0.0
 10
156.430000
 20
135.140000
 30
0.0
 10
156.430000
 20
140.210000
 30
0.0
 10
159.430000
 20
140.210000
 30
0.0
 10
159.430000
 20
135.140000
 30
0.0
 10
162.430000
 20
135.140000
 30
0.0
 10
162.430000
 20
140.210000
 30
0.0
 10
165.430000
 20
140.210000
 30
0.0
 10
165.430000
 20
135.140000
 30
0.0
 10
249.860000
 20
135.140000
 30
0.0
 10
249.860000
 20
156.210000
 30
0.0
 10
0.000000
 20
156.210000
 30
0.0
 10
0.000000
 20
153.175000
 30
0.0
 10
-5.069990
 20
153.175000
 30
0.0
 10
-5.069990
 20
150.175000
 30
0.0
 10
0.000000
 20
150.175000
 30
0.0
 10
0.000000
 20
147.175000
 30
0.0
 10
-5.069990
 20
147.175000
 30
0.0
 10
-5.069990
 20
144.175000
 30
0.0
 10
0.000000
 20
144.175000
 30
0.0
 10
0.000000
 20
141.175000
 30
0.0
 10
-5.069990
 20
141.175000
 30
0.0
 10
-5.069990
 20
138.175000
 30
0.0
 10
0.000000
 20
138.175000
 30
0.0
 10
0.000000
 20
135.140000
 30
0.0
 10
84.430000
 20
135.140000
 30
0.0
 10
84.430000
 20
140.210000
 30
0.0
  0
LWPOLYLINE
  5
10a
100
AcDbEntity
  8
0
 62
7
100
AcDbPolyline
 90
5
 70
0
 10
254.930000
 20
153.175000
 30
0.0
 10
249.860000
 20
153.175000
 30
0.0
 10
249.860000
 20
150.175000
 30
0.0
 10
254.930000
 20
150.175000
 30
0.0
 10
254.930000
 20
153.175000
 30
0.0
  0
LWPOLYLINE
  5
10b
100
AcDbEntity
  8
0
 62
7
100
AcDbPolyline
 90
5
 70
0
 10
254.930000
 20
147.175000
 30
0.0
 10
249.860000
 20
147.175000
 30
0.0
 10
249.860000
 20
144.175000
 30
0.0
 10
254.930000
 20
144.175000
 30
0.0
 10
254.930000
 20
147.175000
 30
0.0
  0
LWPOLYLINE
  5
10c
100
AcDbEntity
  8
0
 62
7
100
AcDbPolyline
 90
5
 70
0
 10
254.930000
 20
141.175000
 30
0.0
 10
249.860000
 20
141.175000
 30
0.0
 10
249.860000
 20
138.175000
 30
0.0
 10
254.930000
 20
138.175000
 30
0.0
 10
254.930000
 20
141.175000
 30
0.0
  0
LWPOLYLINE
  5
10d
100
AcDbEntity
  8
0
 62
7
100
AcDbPolyline
 90
131
 70
0
 10
61.930000
 20
-5.069990
 30
0.0
 10
61.930000
 20
-0.000000
 30
0.0
 10
67.930000
 20
-0.000000
 30
0.0
 10
67.930000
 20
-5.069990
 30
0.0
 10
73.930000
 20
-5.069990
 30
0.0
 10
73.930000
 20
-0.000000
 30
0.0
 10
79.930000
 20
-0.000000
 30
0.0
 10
79.930000
 20
-5.069990
 30
0.0
 10
85.930000
 20
-5.069990
 30
0.0
 10
85.930000
 20
-0.000000
 30
0.0
 10
91.930000
 20
-0.000000
 30
0.0
 10
91.930000
 20
-5.069990
 30
0.0
 10
97.930000
 20
-5.069990
 30
0.0
 10
97.930000
 20
-0.000000
 30
0.0
 10
103.930000
 20
-0.000000
 30
0.0
 10
103.930000
 20
-5.069990
 30
0.0
 10
109.930000
 20
-5.069990
 30
0.0
 10
109.930000
 20
-0.000000
 30
0.0
 10
115.930000
 20
-0.000000
 30
0.0
 10
115.930000
 20
-5.069990
 30
0.0
 10
121.930000
 20
-5.069990
 30
0.0
 10
121.930000
 20
-0.000000
 30
0.0
 10
127.930000
 20
-0.000000
 30
0.0
 10
127.930000
 20
-5.069990
 30
0.0
 10
133.930000
 20
-5.069990
 30
0.0
 10
133.930000
 20
-0.000000
 30
0.0
 10
139.930000
 20
-0.000000
 30
0.0
 10
139.930000
 20
-5.069990
 30
0.0
 10
145.930000
 20
-5.069990
 30
0.0
 10
145.930000
 20
-0.000000
 30
0.0
 10
151.930000
 20
-0.000000
 30
0.0
 10
151.930000
 20
-5.069990
 30
0.0
 10
157.930000
 20
-5.069990
 30
0.0
 10
157.930000
 20
-0.000000
 30
0.0
 10
163.930000
 20
-0.000000
 30
0.0
 10
163.930000
 20
-5.069990
 30
0.0
 10
169.930000
 20
-5.069990
 30
0.0
 10
169.930000
 20
-0.000000
 30
0.0
 10
175.930000
 20
-0.000000
 30
0.0
 10
175.930000
 20
-5.069990
 30
0.0
 10
181.930000
 20
-5.069990
 30
0.0
 10
181.930000
 20
-0.000000
 30
0.0
 10
187.930000
 20
-0.000000
 30
0.0
 10
187.930000
 20
-5.069990
 30
0.0
 10
193.930000
 20
-5.069990
 30
0.0
 10
193.930000
 20
-0.000000
 30
0.0
 10
199.930000
 20
-0.000000
 30
0.0
 10
199.930000
 20
-5.069990
 30
0.0
 10
205.930000
 20
-5.069990
 30
0.0
 10
205.930000
 20
-0.000000
 30
0.0
 10
249.860000
 20
-0.000000
 30
0.0
 10
249.860000
 20
120.000000
 30
0.0
 10
205.930000
 20
120.000000
 30
0.0
 10
205.930000
 20
125.070000
 30
0.0
 10
199.930000
 20
125.070000
 30
0.0
 10
199.930000
 20
120.000000
 30
0.0
 10
193.930000
 20
120.000000
 30
0.0
 10
193.930000
 20
125.070000
 30
0.0
 10
187.930000
 20
125.070000
 30
0.0
 10
187.930000
 20
120.000000
 30
0.0
 10
181.930000
 20
120.000000
 30
0.0
 10
181.930000
 20
125.070000
 30
0.0
 10
175.930000
 20
125.070000
 30
0.0
 10
175.930000
 20
120.000000
 30
0.0
 10
169.930000
 20
120.000000
 30
0.0
 10
169.930000
 20
125.070000
 30
0.0
 10
163.930000
 20
125.070000
 30
0.0
 10
163.930000
 20
120.000000
 30
0.0
 10
157.930000
 20
120.000000
 30
0.0
 10
157.930000
 20
125.070000
 30
0.0
 10
151.930000
 20
125.070000
 30
0.0
 10
151.930000
 20
120.000000
 30
0.0
 10
145.930000
 20
120.000000
 30
0.0
 10
145.930000
 20
125.070000
 30
0.0
 10
139.930000
 20
125.070000
 30
0.0
 10
139.930000
 20
120.000000
 30
0.0
 10
133.930000
 20
120.000000
 30
0.0
 10
133.930000
 20
125.070000
 30
0.0
 10
127.930000
 20
125.070000
 30
0.0
 10
127.930000
 20
120.000000
 30
0.0
 10
121.930000
 20
120.000000
 30
0.0
 10
121.930000
 20
125.070000
 30
0.0
 10
115.930000
 20
125.070000
 30
0.0
 10
115.930000
 20
120.000000
 30
0.0
 10
109.930000
 20
120.000000
 30
0.0
 10
109.930000
 20
125.070000
 30
0.0
 10
103.930000
 20
125.070000
 30
0.0
 10
103.930000
 20
120.000000
 30
0.0
 10
97.930000
 20
120.000000
 30
0.0
 10
97.930000
 20
125.070000
 30
0.0
 10
91.930000
 20
125.070000
 30
0.0
 10
91.930000
 20
120.000000
 30
0.0
 10
85.930000
 20
120.000000
 30
0.0
 10
85.930000
 20
125.070000
 30
0.0
 10
79.930000
 20
125.070000
 30
0.0
 10
79.930000
 20
120.000000
 30
0.0
 10
73.930000
 20
120.000000
 30
0.0
 10
73.930000
 20
125.070000
 30
0.0
 10
67.930000
 20
125.070000
 30
0.0
 10
67.930000
 20
120.000000
 30
0.0
 10
61.930000
 20
120.000000
 30
0.0
 10
61.930000
 20
125.070000
 30
0.0
 10
55.930000
 20
125.070000
 30
0.0
 10
55.930000
 20
120.000000
 30
0.0
 10
49.930000
 20
120.000000
 30
0.0
 10
49.930000
 20
125.070000
 30
0.0
 10
43.930000
 20
125.070000
 30
0.0
 10
43.930000
 20
120.000000
 30
0.0
 10
0.000000
 20
120.000000
 30
0.0
 10
0.000000
 20
87.000000
 30
0.0
 10
-5.069990
 20
87.000000
 30
0.0
 10
-5.069990
 20
81.000000
 30
0.0
 10
0.000000
 20
81.000000
 30
0.0
 10
0.000000
 20
75.000000
 30
0.0
 10
-5.069990
 20
75.000000
 30
0.0
 10
-5.069990
 20
69.000000
 30
0.0
 10
0.000000
 20
69.000000
 30
0.0
 10
0.000000
 20
63.000000
 30
0.0
 10
-5.069990
 20
63.000000
 30
0.0
 10
-5.069990
 20
57.000000
 30
0.0
 10
0.000000
 20
57.000000
 30
0.0
 10
0.000000
 20
51.000000
 30
0.0
 10
-5.069990
 20
51.000000
 30
0.0
 10
-5.069990
 20
45.000000
 30
0.0
 10
0.000000
 20
45.000000
 30
0.0
 10
0.000000
 20
39.000000
 30
0.0
 10
-5.069990
 20
39.000000
 30
0.0
 10
-5.069990
 20
33.000000
 30
0.0
 10
0.000000
 20
33.000000
 30
0.0
 10
0.000000
 20
-0.000000
 30
0.0
 10
42.766528
 20
0.000001
 30
0.0
  0
LWPOLYLINE
  5
10e
100
AcDbEntity
  8
0
 62
7
100
AcDbPolyline
 90
3
 70
0
 10
55.930000
 20
-0.000000
 30
0.0
 10
55.930000
 20
-5.069990
 30
0.0
 10
61.930000
 20
-5.069990
 30
0.0
  0
LWPOLYLINE
  5
10f
100
AcDbEntity
  8
0
 62
7
100
AcDbPolyline
 90
5
 70
0
 10
254.930000
 20
87.000000
 30
0.0
 10
249.860000
 20
87.000000
 30
0.0
 10
249.860000
 20
81.000000
 30
0.0
 10
254.930000
 20
81.000000
 30
0.0
 10
254.930000
 20
87.000000
 30
0.0
  0
LWPOLYLINE
  5
110
100
AcDbEntity
  8
0
 62
7
100
AcDbPolyline
 90
5
 70
0
 10
254.930000
 20
75.000000
 30
0.0
 10
249.860000
 20
75.000000
 30
0.0
 10
249.860000
 20
69.000000
 30
0.0
 10
254.930000
 20
69.000000
 30
0.0
 10
254.930000
 20
75.000000
 30
0.0
  0
LWPOLYLINE
  5
111
100
AcDbEntity
  8
0
 62
7
100
AcDbPolyline
 90
5
 70
0
 10
254.930000
 20
63.000000
 30
0.0
 10
249.860000
 20
63.000000
 30
0.0
 10
249.860000
 20
57.000000
 30
0.0
 10
254.930000
 20
57.000000
 30
0.0
 10
254.930000
 20
63.000000
 30
0.0
  0
LWPOLYLINE
  5
112
100
AcDbEntity
  8
0
 62
7
100
AcDbPolyline
 90
5
 70
0
 10
254.930000
 20
51.000000
 30
0.0
 10
249.860000
 20
51.000000
 30
0.0
 10
249.860000
 20
45.000000
 30
0.0
 10
254.930000
 20
45.000000
 30
0.0
 10
254.930000
 20
51.000000
 30
0.0
  0
LWPOLYLINE
  5
113
100
AcDbEntity
  8
0
 62
7
100
AcDbPolyline
 90
5
 70
0
 10
254.930000
 20
39.000000
 30
0.0
 10
249.860000
 20
39.000000
 30
0.0
 10
249.860000
 20
33.000000
 30
0.0
 10
254.930000
 20
33.000000
 30
0.0
 10
254.930000
 20
39.000000
 30
0.0
  0
LWPOLYLINE
  5
114
100
AcDbEntity
  8
0
 62
7
100
AcDbPolyline
 90
2
 70
0
 10
55.589063
 20
-0.123019
 30
0.0
 10
49.589063
 20
-0.123019
 30
0.0
  0
LWPOLYLINE
  5
115
100
AcDbEntity
  8
0
 62
7
100
AcDbPolyline
 90
4
 70
0
 10
43.930000
 20
-0.000000
 30
0.0
 10
43.930000
 20
-5.069990
 30
0.0
 10
49.930000
 20
-5.069990
 30
0.0
 10
49.930000
 20
-0.000000
 30
0.0
  0
ENDSEC
  0
SECTION
  2
OBJECTS
  0
DICTIONARY
  5
C
330
0
100
AcDbDictionary
  3
ACAD_GROUP
350
D
  3
ACAD_MLINESTYLE
350
17
  0
DICTIONARY
  5
D
330
C
100
AcDbDictionary
  0
DICTIONARY
  5
1A
330
C
100
AcDbDictionary
  0
DICTIONARY
  5
17
330
C
100
AcDbDictionary
  3
STANDARD
350
18
  0
DICTIONARY
  5
19
330
C
100
AcDbDictionary
  0
ENDSEC
  0
EOF
