  0
SECTION
  2
BLOCKS
  0
ENDSEC
  0
SECTION
  2
ENTITIES
  0
LINE
  8
0
 10
264.54
 20
270.305
 11
259.47
 21
270.305
  0
LINE
  8
0
 10
259.47
 20
270.305
 11
259.47
 21
385.095
  0
LINE
  8
0
 10
259.47
 20
385.095
 11
5.06999
 21
385.095
  0
LINE
  8
0
 10
5.06999
 20
385.095
 11
5.06999
 21
270.305
  0
LINE
  8
0
 10
5.06999
 20
270.305
 11
0
 21
270.305
  0
LINE
  8
0
 10
0
 20
270.305
 11
0
 21
255.095
  0
LINE
  8
0
 10
0
 20
255.095
 11
264.54
 21
255.095
  0
LINE
  8
0
 10
264.54
 20
255.095
 11
264.54
 21
270.305
  0
LINE
  8
0
 10
43.07
 20
212.63
 11
49.07
 21
212.63
  0
LINE
  8
0
 10
49.07
 20
212.63
 11
49.07
 21
207.56
  0
LINE
  8
0
 10
49.07
 20
207.56
 11
55.07
 21
207.56
  0
LINE
  8
0
 10
55.07
 20
207.56
 11
55.07
 21
212.63
  0
LINE
  8
0
 10
55.07
 20
212.63
 11
61.07
 21
212.63
  0
LINE
  8
0
 10
61.07
 20
212.63
 11
61.07
 21
207.56
  0
LINE
  8
0
 10
61.07
 20
207.56
 11
67.07
 21
207.56
  0
LINE
  8
0
 10
67.07
 20
207.56
 11
67.07
 21
212.63
  0
LINE
  8
0
 10
67.07
 20
212.63
 11
73.07
 21
212.63
  0
LINE
  8
0
 10
73.07
 20
212.63
 11
73.07
 21
207.56
  0
LINE
  8
0
 10
73.07
 20
207.56
 11
79.07
 21
207.56
  0
LINE
  8
0
 10
79.07
 20
207.56
 11
79.07
 21
212.63
  0
LINE
  8
0
 10
79.07
 20
212.63
 11
85.07
 21
212.63
  0
LINE
  8
0
 10
85.07
 20
212.63
 11
85.07
 21
207.56
  0
LINE
  8
0
 10
85.07
 20
207.56
 11
91.07
 21
207.56
  0
LINE
  8
0
 10
91.07
 20
207.56
 11
91.07
 21
212.63
  0
LINE
  8
0
 10
91.07
 20
212.63
 11
97.07
 21
212.63
  0
LINE
  8
0
 10
97.07
 20
212.63
 11
97.07
 21
207.56
  0
LINE
  8
0
 10
97.07
 20
207.56
 11
140.14
 21
207.56
  0
LINE
  8
0
 10
140.14
 20
207.56
 11
140.14
 21
222.595
  0
LINE
  8
0
 10
140.14
 20
222.595
 11
135.07
 21
222.595
  0
LINE
  8
0
 10
135.07
 20
222.595
 11
135.07
 21
228.595
  0
LINE
  8
0
 10
135.07
 20
228.595
 11
140.14
 21
228.595
  0
LINE
  8
0
 10
140.14
 20
228.595
 11
140.14
 21
243.63
  0
LINE
  8
0
 10
140.14
 20
243.63
 11
0
 21
243.63
  0
LINE
  8
0
 10
0
 20
243.63
 11
0
 21
228.595
  0
LINE
  8
0
 10
0
 20
228.595
 11
5.06999
 21
228.595
  0
LINE
  8
0
 10
5.06999
 20
228.595
 11
5.06999
 21
222.595
  0
LINE
  8
0
 10
5.06999
 20
222.595
 11
0
 21
222.595
  0
LINE
  8
0
 10
0
 20
222.595
 11
0
 21
207.56
  0
LINE
  8
0
 10
0
 20
207.56
 11
43.07
 21
207.56
  0
LINE
  8
0
 10
43.07
 20
207.56
 11
43.07
 21
212.63
  0
LINE
  8
0
 10
185.745
 20
212.63
 11
191.745
 21
212.63
  0
LINE
  8
0
 10
191.745
 20
212.63
 11
191.745
 21
207.56
  0
LINE
  8
0
 10
191.745
 20
207.56
 11
197.745
 21
207.56
  0
LINE
  8
0
 10
197.745
 20
207.56
 11
197.745
 21
212.63
  0
LINE
  8
0
 10
197.745
 20
212.63
 11
203.745
 21
212.63
  0
LINE
  8
0
 10
203.745
 20
212.63
 11
203.745
 21
207.56
  0
LINE
  8
0
 10
203.745
 20
207.56
 11
209.745
 21
207.56
  0
LINE
  8
0
 10
209.745
 20
207.56
 11
209.745
 21
212.63
  0
LINE
  8
0
 10
209.745
 20
212.63
 11
215.745
 21
212.63
  0
LINE
  8
0
 10
215.745
 20
212.63
 11
215.745
 21
207.56
  0
LINE
  8
0
 10
215.745
 20
207.56
 11
221.745
 21
207.56
  0
LINE
  8
0
 10
221.745
 20
207.56
 11
221.745
 21
212.63
  0
LINE
  8
0
 10
221.745
 20
212.63
 11
227.745
 21
212.63
  0
LINE
  8
0
 10
227.745
 20
212.63
 11
227.745
 21
207.56
  0
LINE
  8
0
 10
227.745
 20
207.56
 11
233.745
 21
207.56
  0
LINE
  8
0
 10
233.745
 20
207.56
 11
233.745
 21
212.63
  0
LINE
  8
0
 10
233.745
 20
212.63
 11
239.745
 21
212.63
  0
LINE
  8
0
 10
239.745
 20
212.63
 11
239.745
 21
207.56
  0
LINE
  8
0
 10
239.745
 20
207.56
 11
282.815
 21
207.56
  0
LINE
  8
0
 10
282.815
 20
207.56
 11
282.815
 21
222.595
  0
LINE
  8
0
 10
282.815
 20
222.595
 11
277.745
 21
222.595
  0
LINE
  8
0
 10
277.745
 20
222.595
 11
277.745
 21
228.595
  0
LINE
  8
0
 10
277.745
 20
228.595
 11
282.815
 21
228.595
  0
LINE
  8
0
 10
282.815
 20
228.595
 11
282.815
 21
243.63
  0
LINE
  8
0
 10
282.815
 20
243.63
 11
142.675
 21
243.63
  0
LINE
  8
0
 10
142.675
 20
243.63
 11
142.675
 21
228.595
  0
LINE
  8
0
 10
142.675
 20
228.595
 11
147.745
 21
228.595
  0
LINE
  8
0
 10
147.745
 20
228.595
 11
147.745
 21
222.595
  0
LINE
  8
0
 10
147.745
 20
222.595
 11
142.675
 21
222.595
  0
LINE
  8
0
 10
142.675
 20
222.595
 11
142.675
 21
207.56
  0
LINE
  8
0
 10
142.675
 20
207.56
 11
185.745
 21
207.56
  0
LINE
  8
0
 10
185.745
 20
207.56
 11
185.745
 21
212.63
  0
LINE
  8
0
 10
252.955
 20
223.49
 11
257.476
 21
229.49
  0
LINE
  8
0
 10
257.476
 20
229.49
 11
252.955
 21
229.49
  0
LINE
  8
0
 10
252.955
 20
229.49
 11
252.955
 21
233.49
  0
LINE
  8
0
 10
252.955
 20
233.49
 11
162.955
 21
233.49
  0
LINE
  8
0
 10
162.955
 20
233.49
 11
162.955
 21
236.13
  0
LINE
  8
0
 10
162.955
 20
236.13
 11
264.955
 21
236.13
  0
LINE
  8
0
 10
264.955
 20
236.13
 11
264.955
 21
236.49
  0
LINE
  8
0
 10
264.955
 20
236.49
 11
272.955
 21
236.49
  0
LINE
  8
0
 10
272.955
 20
236.49
 11
272.955
 21
229.49
  0
LINE
  8
0
 10
272.955
 20
229.49
 11
271.948
 21
229.49
  0
LINE
  8
0
 10
271.948
 20
229.49
 11
269.436
 21
222.587
  0
LINE
  8
0
 10
269.436
 20
222.587
 11
266.955
 21
223.49
  0
LINE
  8
0
 10
266.955
 20
223.49
 11
269.139
 21
229.49
  0
LINE
  8
0
 10
269.139
 20
229.49
 11
266.467
 21
229.49
  0
LINE
  8
0
 10
266.467
 20
229.49
 11
262.241
 21
222.17
  0
LINE
  8
0
 10
262.241
 20
222.17
 11
259.955
 21
223.49
  0
LINE
  8
0
 10
259.955
 20
223.49
 11
263.419
 21
229.49
  0
LINE
  8
0
 10
263.419
 20
229.49
 11
260.782
 21
229.49
  0
LINE
  8
0
 10
260.782
 20
229.49
 11
255.063
 21
221.901
  0
LINE
  8
0
 10
255.063
 20
221.901
 11
252.955
 21
223.49
  0
LINE
  8
0
 10
162.955
 20
223.56
 11
162.955
 21
226.2
  0
LINE
  8
0
 10
162.955
 20
226.2
 11
247.745
 21
226.2
  0
LINE
  8
0
 10
247.745
 20
226.2
 11
247.745
 21
223.56
  0
LINE
  8
0
 10
247.745
 20
223.56
 11
162.955
 21
223.56
  0
LINE
  8
0
 10
46.2
 20
186.42
 11
52.2
 21
186.42
  0
LINE
  8
0
 10
52.2
 20
186.42
 11
52.2
 21
181.35
  0
LINE
  8
0
 10
52.2
 20
181.35
 11
58.2
 21
181.35
  0
LINE
  8
0
 10
58.2
 20
181.35
 11
58.2
 21
186.42
  0
LINE
  8
0
 10
58.2
 20
186.42
 11
64.2
 21
186.42
  0
LINE
  8
0
 10
64.2
 20
186.42
 11
64.2
 21
181.35
  0
LINE
  8
0
 10
64.2
 20
181.35
 11
70.2
 21
181.35
  0
LINE
  8
0
 10
70.2
 20
181.35
 11
70.2
 21
186.42
  0
LINE
  8
0
 10
70.2
 20
186.42
 11
76.2
 21
186.42
  0
LINE
  8
0
 10
76.2
 20
186.42
 11
76.2
 21
181.35
  0
LINE
  8
0
 10
76.2
 20
181.35
 11
82.2
 21
181.35
  0
LINE
  8
0
 10
82.2
 20
181.35
 11
82.2
 21
186.42
  0
LINE
  8
0
 10
82.2
 20
186.42
 11
88.2
 21
186.42
  0
LINE
  8
0
 10
88.2
 20
186.42
 11
88.2
 21
181.35
  0
LINE
  8
0
 10
88.2
 20
181.35
 11
94.2
 21
181.35
  0
LINE
  8
0
 10
94.2
 20
181.35
 11
94.2
 21
186.42
  0
LINE
  8
0
 10
94.2
 20
186.42
 11
100.2
 21
186.42
  0
LINE
  8
0
 10
100.2
 20
186.42
 11
100.2
 21
181.35
  0
LINE
  8
0
 10
100.2
 20
181.35
 11
106.2
 21
181.35
  0
LINE
  8
0
 10
106.2
 20
181.35
 11
106.2
 21
186.42
  0
LINE
  8
0
 10
106.2
 20
186.42
 11
112.2
 21
186.42
  0
LINE
  8
0
 10
112.2
 20
186.42
 11
112.2
 21
181.35
  0
LINE
  8
0
 10
112.2
 20
181.35
 11
118.2
 21
181.35
  0
LINE
  8
0
 10
118.2
 20
181.35
 11
118.2
 21
186.42
  0
LINE
  8
0
 10
118.2
 20
186.42
 11
124.2
 21
186.42
  0
LINE
  8
0
 10
124.2
 20
186.42
 11
124.2
 21
181.35
  0
LINE
  8
0
 10
124.2
 20
181.35
 11
130.2
 21
181.35
  0
LINE
  8
0
 10
130.2
 20
181.35
 11
130.2
 21
186.42
  0
LINE
  8
0
 10
130.2
 20
186.42
 11
136.2
 21
186.42
  0
LINE
  8
0
 10
136.2
 20
186.42
 11
136.2
 21
181.35
  0
LINE
  8
0
 10
136.2
 20
181.35
 11
142.2
 21
181.35
  0
LINE
  8
0
 10
142.2
 20
181.35
 11
142.2
 21
186.42
  0
LINE
  8
0
 10
142.2
 20
186.42
 11
148.2
 21
186.42
  0
LINE
  8
0
 10
148.2
 20
186.42
 11
148.2
 21
181.35
  0
LINE
  8
0
 10
148.2
 20
181.35
 11
154.2
 21
181.35
  0
LINE
  8
0
 10
154.2
 20
181.35
 11
154.2
 21
186.42
  0
LINE
  8
0
 10
154.2
 20
186.42
 11
160.2
 21
186.42
  0
LINE
  8
0
 10
160.2
 20
186.42
 11
160.2
 21
181.35
  0
LINE
  8
0
 10
160.2
 20
181.35
 11
166.2
 21
181.35
  0
LINE
  8
0
 10
166.2
 20
181.35
 11
166.2
 21
186.42
  0
LINE
  8
0
 10
166.2
 20
186.42
 11
172.2
 21
186.42
  0
LINE
  8
0
 10
172.2
 20
186.42
 11
172.2
 21
181.35
  0
LINE
  8
0
 10
172.2
 20
181.35
 11
178.2
 21
181.35
  0
LINE
  8
0
 10
178.2
 20
181.35
 11
178.2
 21
186.42
  0
LINE
  8
0
 10
178.2
 20
186.42
 11
184.2
 21
186.42
  0
LINE
  8
0
 10
184.2
 20
186.42
 11
184.2
 21
181.35
  0
LINE
  8
0
 10
184.2
 20
181.35
 11
190.2
 21
181.35
  0
LINE
  8
0
 10
190.2
 20
181.35
 11
190.2
 21
186.42
  0
LINE
  8
0
 10
190.2
 20
186.42
 11
196.2
 21
186.42
  0
LINE
  8
0
 10
196.2
 20
186.42
 11
196.2
 21
181.35
  0
LINE
  8
0
 10
196.2
 20
181.35
 11
202.2
 21
181.35
  0
LINE
  8
0
 10
202.2
 20
181.35
 11
202.2
 21
186.42
  0
LINE
  8
0
 10
202.2
 20
186.42
 11
208.2
 21
186.42
  0
LINE
  8
0
 10
208.2
 20
186.42
 11
208.2
 21
181.35
  0
LINE
  8
0
 10
208.2
 20
181.35
 11
254.4
 21
181.35
  0
LINE
  8
0
 10
254.4
 20
181.35
 11
254.4
 21
188.885
  0
LINE
  8
0
 10
254.4
 20
188.885
 11
259.47
 21
188.885
  0
LINE
  8
0
 10
259.47
 20
188.885
 11
259.47
 21
194.885
  0
LINE
  8
0
 10
259.47
 20
194.885
 11
254.4
 21
194.885
  0
LINE
  8
0
 10
254.4
 20
194.885
 11
254.4
 21
196.336
  0
LINE
  8
0
 10
254.4
 20
196.336
 11
0
 21
196.336
  0
LINE
  8
0
 10
0
 20
196.336
 11
0
 21
194.885
  0
LINE
  8
0
 10
0
 20
194.885
 11
-5.06999
 21
194.885
  0
LINE
  8
0
 10
-5.06999
 20
194.885
 11
-5.06999
 21
188.885
  0
LINE
  8
0
 10
-5.06999
 20
188.885
 11
0
 21
188.885
  0
LINE
  8
0
 10
0
 20
188.885
 11
0
 21
181.35
  0
LINE
  8
0
 10
0
 20
181.35
 11
46.2
 21
181.35
  0
LINE
  8
0
 10
46.2
 20
181.35
 11
46.2
 21
186.42
  0
LINE
  8
0
 10
46.2
 20
150.21
 11
52.2
 21
150.21
  0
LINE
  8
0
 10
52.2
 20
150.21
 11
52.2
 21
145.14
  0
LINE
  8
0
 10
52.2
 20
145.14
 11
58.2
 21
145.14
  0
LINE
  8
0
 10
58.2
 20
145.14
 11
58.2
 21
150.21
  0
LINE
  8
0
 10
58.2
 20
150.21
 11
64.2
 21
150.21
  0
LINE
  8
0
 10
64.2
 20
150.21
 11
64.2
 21
145.14
  0
LINE
  8
0
 10
64.2
 20
145.14
 11
70.2
 21
145.14
  0
LINE
  8
0
 10
70.2
 20
145.14
 11
70.2
 21
150.21
  0
LINE
  8
0
 10
70.2
 20
150.21
 11
76.2
 21
150.21
  0
LINE
  8
0
 10
76.2
 20
150.21
 11
76.2
 21
145.14
  0
LINE
  8
0
 10
76.2
 20
145.14
 11
82.2
 21
145.14
  0
LINE
  8
0
 10
82.2
 20
145.14
 11
82.2
 21
150.21
  0
LINE
  8
0
 10
82.2
 20
150.21
 11
88.2
 21
150.21
  0
LINE
  8
0
 10
88.2
 20
150.21
 11
88.2
 21
145.14
  0
LINE
  8
0
 10
88.2
 20
145.14
 11
94.2
 21
145.14
  0
LINE
  8
0
 10
94.2
 20
145.14
 11
94.2
 21
150.21
  0
LINE
  8
0
 10
94.2
 20
150.21
 11
100.2
 21
150.21
  0
LINE
  8
0
 10
100.2
 20
150.21
 11
100.2
 21
145.14
  0
LINE
  8
0
 10
100.2
 20
145.14
 11
106.2
 21
145.14
  0
LINE
  8
0
 10
106.2
 20
145.14
 11
106.2
 21
150.21
  0
LINE
  8
0
 10
106.2
 20
150.21
 11
112.2
 21
150.21
  0
LINE
  8
0
 10
112.2
 20
150.21
 11
112.2
 21
145.14
  0
LINE
  8
0
 10
112.2
 20
145.14
 11
118.2
 21
145.14
  0
LINE
  8
0
 10
118.2
 20
145.14
 11
118.2
 21
150.21
  0
LINE
  8
0
 10
118.2
 20
150.21
 11
124.2
 21
150.21
  0
LINE
  8
0
 10
124.2
 20
150.21
 11
124.2
 21
145.14
  0
LINE
  8
0
 10
124.2
 20
145.14
 11
130.2
 21
145.14
  0
LINE
  8
0
 10
130.2
 20
145.14
 11
130.2
 21
150.21
  0
LINE
  8
0
 10
130.2
 20
150.21
 11
136.2
 21
150.21
  0
LINE
  8
0
 10
136.2
 20
150.21
 11
136.2
 21
145.14
  0
LINE
  8
0
 10
136.2
 20
145.14
 11
142.2
 21
145.14
  0
LINE
  8
0
 10
142.2
 20
145.14
 11
142.2
 21
150.21
  0
LINE
  8
0
 10
142.2
 20
150.21
 11
148.2
 21
150.21
  0
LINE
  8
0
 10
148.2
 20
150.21
 11
148.2
 21
145.14
  0
LINE
  8
0
 10
148.2
 20
145.14
 11
154.2
 21
145.14
  0
LINE
  8
0
 10
154.2
 20
145.14
 11
154.2
 21
150.21
  0
LINE
  8
0
 10
154.2
 20
150.21
 11
160.2
 21
150.21
  0
LINE
  8
0
 10
160.2
 20
150.21
 11
160.2
 21
145.14
  0
LINE
  8
0
 10
160.2
 20
145.14
 11
166.2
 21
145.14
  0
LINE
  8
0
 10
166.2
 20
145.14
 11
166.2
 21
150.21
  0
LINE
  8
0
 10
166.2
 20
150.21
 11
172.2
 21
150.21
  0
LINE
  8
0
 10
172.2
 20
150.21
 11
172.2
 21
145.14
  0
LINE
  8
0
 10
172.2
 20
145.14
 11
178.2
 21
145.14
  0
LINE
  8
0
 10
178.2
 20
145.14
 11
178.2
 21
150.21
  0
LINE
  8
0
 10
178.2
 20
150.21
 11
184.2
 21
150.21
  0
LINE
  8
0
 10
184.2
 20
150.21
 11
184.2
 21
145.14
  0
LINE
  8
0
 10
184.2
 20
145.14
 11
190.2
 21
145.14
  0
LINE
  8
0
 10
190.2
 20
145.14
 11
190.2
 21
150.21
  0
LINE
  8
0
 10
190.2
 20
150.21
 11
196.2
 21
150.21
  0
LINE
  8
0
 10
196.2
 20
150.21
 11
196.2
 21
145.14
  0
LINE
  8
0
 10
196.2
 20
145.14
 11
202.2
 21
145.14
  0
LINE
  8
0
 10
202.2
 20
145.14
 11
202.2
 21
150.21
  0
LINE
  8
0
 10
202.2
 20
150.21
 11
208.2
 21
150.21
  0
LINE
  8
0
 10
208.2
 20
150.21
 11
208.2
 21
145.14
  0
LINE
  8
0
 10
208.2
 20
145.14
 11
254.4
 21
145.14
  0
LINE
  8
0
 10
254.4
 20
145.14
 11
254.4
 21
152.675
  0
LINE
  8
0
 10
254.4
 20
152.675
 11
259.47
 21
152.675
  0
LINE
  8
0
 10
259.47
 20
152.675
 11
259.47
 21
158.675
  0
LINE
  8
0
 10
259.47
 20
158.675
 11
254.4
 21
158.675
  0
LINE
  8
0
 10
254.4
 20
158.675
 11
254.4
 21
166.21
  0
LINE
  8
0
 10
254.4
 20
166.21
 11
0
 21
166.21
  0
LINE
  8
0
 10
0
 20
166.21
 11
0
 21
158.675
  0
LINE
  8
0
 10
0
 20
158.675
 11
-5.06999
 21
158.675
  0
LINE
  8
0
 10
-5.06999
 20
158.675
 11
-5.06999
 21
152.675
  0
LINE
  8
0
 10
-5.06999
 20
152.675
 11
0
 21
152.675
  0
LINE
  8
0
 10
0
 20
152.675
 11
0
 21
145.14
  0
LINE
  8
0
 10
0
 20
145.14
 11
46.2
 21
145.14
  0
LINE
  8
0
 10
46.2
 20
145.14
 11
46.2
 21
150.21
  0
LINE
  8
0
 10
64.2
 20
-5.06999
 11
64.2
 21
0
  0
LINE
  8
0
 10
64.2
 20
0
 11
70.2
 21
0
  0
LINE
  8
0
 10
70.2
 20
0
 11
70.2
 21
-5.06999
  0
LINE
  8
0
 10
70.2
 20
-5.06999
 11
76.2
 21
-5.06999
  0
LINE
  8
0
 10
76.2
 20
-5.06999
 11
76.2
 21
0
  0
LINE
  8
0
 10
76.2
 20
0
 11
82.2
 21
0
  0
LINE
  8
0
 10
82.2
 20
0
 11
82.2
 21
-5.06999
  0
LINE
  8
0
 10
82.2
 20
-5.06999
 11
88.2
 21
-5.06999
  0
LINE
  8
0
 10
88.2
 20
-5.06999
 11
88.2
 21
0
  0
LINE
  8
0
 10
88.2
 20
0
 11
94.2
 21
0
  0
LINE
  8
0
 10
94.2
 20
0
 11
94.2
 21
-5.06999
  0
LINE
  8
0
 10
94.2
 20
-5.06999
 11
100.2
 21
-5.06999
  0
LINE
  8
0
 10
100.2
 20
-5.06999
 11
100.2
 21
0
  0
LINE
  8
0
 10
100.2
 20
0
 11
106.2
 21
0
  0
LINE
  8
0
 10
106.2
 20
0
 11
106.2
 21
-5.06999
  0
LINE
  8
0
 10
106.2
 20
-5.06999
 11
112.2
 21
-5.06999
  0
LINE
  8
0
 10
112.2
 20
-5.06999
 11
112.2
 21
0
  0
LINE
  8
0
 10
112.2
 20
0
 11
118.2
 21
0
  0
LINE
  8
0
 10
118.2
 20
0
 11
118.2
 21
-5.06999
  0
LINE
  8
0
 10
118.2
 20
-5.06999
 11
124.2
 21
-5.06999
  0
LINE
  8
0
 10
124.2
 20
-5.06999
 11
124.2
 21
0
  0
LINE
  8
0
 10
124.2
 20
0
 11
130.2
 21
0
  0
LINE
  8
0
 10
130.2
 20
0
 11
130.2
 21
-5.06999
  0
LINE
  8
0
 10
130.2
 20
-5.06999
 11
136.2
 21
-5.06999
  0
LINE
  8
0
 10
136.2
 20
-5.06999
 11
136.2
 21
0
  0
LINE
  8
0
 10
136.2
 20
0
 11
142.2
 21
0
  0
LINE
  8
0
 10
142.2
 20
0
 11
142.2
 21
-5.06999
  0
LINE
  8
0
 10
142.2
 20
-5.06999
 11
148.2
 21
-5.06999
  0
LINE
  8
0
 10
148.2
 20
-5.06999
 11
148.2
 21
0
  0
LINE
  8
0
 10
148.2
 20
0
 11
154.2
 21
0
  0
LINE
  8
0
 10
154.2
 20
0
 11
154.2
 21
-5.06999
  0
LINE
  8
0
 10
154.2
 20
-5.06999
 11
160.2
 21
-5.06999
  0
LINE
  8
0
 10
160.2
 20
-5.06999
 11
160.2
 21
0
  0
LINE
  8
0
 10
160.2
 20
0
 11
166.2
 21
0
  0
LINE
  8
0
 10
166.2
 20
0
 11
166.2
 21
-5.06999
  0
LINE
  8
0
 10
166.2
 20
-5.06999
 11
172.2
 21
-5.06999
  0
LINE
  8
0
 10
172.2
 20
-5.06999
 11
172.2
 21
0
  0
LINE
  8
0
 10
172.2
 20
0
 11
178.2
 21
0
  0
LINE
  8
0
 10
178.2
 20
0
 11
178.2
 21
-5.06999
  0
LINE
  8
0
 10
178.2
 20
-5.06999
 11
184.2
 21
-5.06999
  0
LINE
  8
0
 10
184.2
 20
-5.06999
 11
184.2
 21
0
  0
LINE
  8
0
 10
184.2
 20
0
 11
190.2
 21
0
  0
LINE
  8
0
 10
190.2
 20
0
 11
190.2
 21
-5.06999
  0
LINE
  8
0
 10
190.2
 20
-5.06999
 11
196.2
 21
-5.06999
  0
LINE
  8
0
 10
196.2
 20
-5.06999
 11
196.2
 21
0
  0
LINE
  8
0
 10
196.2
 20
0
 11
202.2
 21
0
  0
LINE
  8
0
 10
202.2
 20
0
 11
202.2
 21
-5.06999
  0
LINE
  8
0
 10
202.2
 20
-5.06999
 11
208.2
 21
-5.06999
  0
LINE
  8
0
 10
208.2
 20
-5.06999
 11
208.2
 21
0
  0
LINE
  8
0
 10
208.2
 20
0
 11
254.4
 21
0
  0
LINE
  8
0
 10
254.4
 20
0
 11
254.4
 21
38
  0
LINE
  8
0
 10
254.4
 20
38
 11
259.47
 21
38
  0
LINE
  8
0
 10
259.47
 20
38
 11
259.47
 21
44
  0
LINE
  8
0
 10
259.47
 20
44
 11
254.4
 21
44
  0
LINE
  8
0
 10
254.4
 20
44
 11
254.4
 21
50
  0
LINE
  8
0
 10
254.4
 20
50
 11
259.47
 21
50
  0
LINE
  8
0
 10
259.47
 20
50
 11
259.47
 21
56
  0
LINE
  8
0
 10
259.47
 20
56
 11
254.4
 21
56
  0
LINE
  8
0
 10
254.4
 20
56
 11
254.4
 21
62
  0
LINE
  8
0
 10
254.4
 20
62
 11
259.47
 21
62
  0
LINE
  8
0
 10
259.47
 20
62
 11
259.47
 21
68
  0
LINE
  8
0
 10
259.47
 20
68
 11
254.4
 21
68
  0
LINE
  8
0
 10
254.4
 20
68
 11
254.4
 21
74
  0
LINE
  8
0
 10
254.4
 20
74
 11
259.47
 21
74
  0
LINE
  8
0
 10
259.47
 20
74
 11
259.47
 21
80
  0
LINE
  8
0
 10
259.47
 20
80
 11
254.4
 21
80
  0
LINE
  8
0
 10
254.4
 20
80
 11
254.4
 21
86
  0
LINE
  8
0
 10
254.4
 20
86
 11
259.47
 21
86
  0
LINE
  8
0
 10
259.47
 20
86
 11
259.47
 21
92
  0
LINE
  8
0
 10
259.47
 20
92
 11
254.4
 21
92
  0
LINE
  8
0
 10
254.4
 20
92
 11
254.4
 21
130
  0
LINE
  8
0
 10
254.4
 20
130
 11
208.2
 21
130
  0
LINE
  8
0
 10
208.2
 20
130
 11
208.2
 21
135.07
  0
LINE
  8
0
 10
208.2
 20
135.07
 11
202.2
 21
135.07
  0
LINE
  8
0
 10
202.2
 20
135.07
 11
202.2
 21
130
  0
LINE
  8
0
 10
202.2
 20
130
 11
196.2
 21
130
  0
LINE
  8
0
 10
196.2
 20
130
 11
196.2
 21
135.07
  0
LINE
  8
0
 10
196.2
 20
135.07
 11
190.2
 21
135.07
  0
LINE
  8
0
 10
190.2
 20
135.07
 11
190.2
 21
130
  0
LINE
  8
0
 10
190.2
 20
130
 11
184.2
 21
130
  0
LINE
  8
0
 10
184.2
 20
130
 11
184.2
 21
135.07
  0
LINE
  8
0
 10
184.2
 20
135.07
 11
178.2
 21
135.07
  0
LINE
  8
0
 10
178.2
 20
135.07
 11
178.2
 21
130
  0
LINE
  8
0
 10
178.2
 20
130
 11
172.2
 21
130
  0
LINE
  8
0
 10
172.2
 20
130
 11
172.2
 21
135.07
  0
LINE
  8
0
 10
172.2
 20
135.07
 11
166.2
 21
135.07
  0
LINE
  8
0
 10
166.2
 20
135.07
 11
166.2
 21
130
  0
LINE
  8
0
 10
166.2
 20
130
 11
160.2
 21
130
  0
LINE
  8
0
 10
160.2
 20
130
 11
160.2
 21
135.07
  0
LINE
  8
0
 10
160.2
 20
135.07
 11
154.2
 21
135.07
  0
LINE
  8
0
 10
154.2
 20
135.07
 11
154.2
 21
130
  0
LINE
  8
0
 10
154.2
 20
130
 11
148.2
 21
130
  0
LINE
  8
0
 10
148.2
 20
130
 11
148.2
 21
135.07
  0
LINE
  8
0
 10
148.2
 20
135.07
 11
142.2
 21
135.07
  0
LINE
  8
0
 10
142.2
 20
135.07
 11
142.2
 21
130
  0
LINE
  8
0
 10
142.2
 20
130
 11
136.2
 21
130
  0
LINE
  8
0
 10
136.2
 20
130
 11
136.2
 21
135.07
  0
LINE
  8
0
 10
136.2
 20
135.07
 11
130.2
 21
135.07
  0
LINE
  8
0
 10
130.2
 20
135.07
 11
130.2
 21
130
  0
LINE
  8
0
 10
130.2
 20
130
 11
124.2
 21
130
  0
LINE
  8
0
 10
124.2
 20
130
 11
124.2
 21
135.07
  0
LINE
  8
0
 10
124.2
 20
135.07
 11
118.2
 21
135.07
  0
LINE
  8
0
 10
118.2
 20
135.07
 11
118.2
 21
130
  0
LINE
  8
0
 10
118.2
 20
130
 11
112.2
 21
130
  0
LINE
  8
0
 10
112.2
 20
130
 11
112.2
 21
135.07
  0
LINE
  8
0
 10
112.2
 20
135.07
 11
106.2
 21
135.07
  0
LINE
  8
0
 10
106.2
 20
135.07
 11
106.2
 21
130
  0
LINE
  8
0
 10
106.2
 20
130
 11
100.2
 21
130
  0
LINE
  8
0
 10
100.2
 20
130
 11
100.2
 21
135.07
  0
LINE
  8
0
 10
100.2
 20
135.07
 11
94.2
 21
135.07
  0
LINE
  8
0
 10
94.2
 20
135.07
 11
94.2
 21
130
  0
LINE
  8
0
 10
94.2
 20
130
 11
88.2
 21
130
  0
LINE
  8
0
 10
88.2
 20
130
 11
88.2
 21
135.07
  0
LINE
  8
0
 10
88.2
 20
135.07
 11
82.2
 21
135.07
  0
LINE
  8
0
 10
82.2
 20
135.07
 11
82.2
 21
130
  0
LINE
  8
0
 10
82.2
 20
130
 11
76.2
 21
130
  0
LINE
  8
0
 10
76.2
 20
130
 11
76.2
 21
135.07
  0
LINE
  8
0
 10
76.2
 20
135.07
 11
70.2
 21
135.07
  0
LINE
  8
0
 10
70.2
 20
135.07
 11
70.2
 21
130
  0
LINE
  8
0
 10
70.2
 20
130
 11
64.2
 21
130
  0
LINE
  8
0
 10
64.2
 20
130
 11
64.2
 21
135.07
  0
LINE
  8
0
 10
64.2
 20
135.07
 11
58.2
 21
135.07
  0
LINE
  8
0
 10
58.2
 20
135.07
 11
58.2
 21
130
  0
LINE
  8
0
 10
58.2
 20
130
 11
52.2
 21
130
  0
LINE
  8
0
 10
52.2
 20
130
 11
52.2
 21
135.07
  0
LINE
  8
0
 10
52.2
 20
135.07
 11
46.2
 21
135.07
  0
LINE
  8
0
 10
46.2
 20
135.07
 11
46.2
 21
130
  0
LINE
  8
0
 10
46.2
 20
130
 11
0
 21
130
  0
LINE
  8
0
 10
0
 20
130
 11
0
 21
92
  0
LINE
  8
0
 10
0
 20
92
 11
-5.06999
 21
92
  0
LINE
  8
0
 10
-5.06999
 20
92
 11
-5.06999
 21
86
  0
LINE
  8
0
 10
-5.06999
 20
86
 11
0
 21
86
  0
LINE
  8
0
 10
0
 20
86
 11
0
 21
80
  0
LINE
  8
0
 10
0
 20
80
 11
-5.06999
 21
80
  0
LINE
  8
0
 10
-5.06999
 20
80
 11
-5.06999
 21
74
  0
LINE
  8
0
 10
-5.06999
 20
74
 11
0
 21
74
  0
LINE
  8
0
 10
0
 20
74
 11
0
 21
68
  0
LINE
  8
0
 10
0
 20
68
 11
-5.06999
 21
68
  0
LINE
  8
0
 10
-5.06999
 20
68
 11
-5.06999
 21
62
  0
LINE
  8
0
 10
-5.06999
 20
62
 11
0
 21
62
  0
LINE
  8
0
 10
0
 20
62
 11
0
 21
56
  0
LINE
  8
0
 10
0
 20
56
 11
-5.06999
 21
56
  0
LINE
  8
0
 10
-5.06999
 20
56
 11
-5.06999
 21
50
  0
LINE
  8
0
 10
-5.06999
 20
50
 11
0
 21
50
  0
LINE
  8
0
 10
0
 20
50
 11
0
 21
44
  0
LINE
  8
0
 10
0
 20
44
 11
-5.06999
 21
44
  0
LINE
  8
0
 10
-5.06999
 20
44
 11
-5.06999
 21
38
  0
LINE
  8
0
 10
-5.06999
 20
38
 11
0
 21
38
  0
LINE
  8
0
 10
0
 20
38
 11
0
 21
0
  0
LINE
  8
0
 10
0
 20
0
 11
58.2
 21
0
  0
LINE
  8
0
 10
58.2
 20
0
 11
58.2
 21
-5.06999
  0
LINE
  8
0
 10
58.2
 20
-5.06999
 11
64.2
 21
-5.06999
  0
LINE
  8
0
 10
52.2
 20
0
 11
46.2
 21
0
  0
LINE
  8
0
 10
46.2
 20
0
 11
46.2
 21
-5.06999
  0
LINE
  8
0
 10
46.2
 20
-5.06999
 11
52.2
 21
-5.06999
  0
LINE
  8
0
 10
52.2
 20
-5.06999
 11
52.2
 21
0
  0
ENDSEC
  0
SECTION
  2
OBJECTS
  0
DICTIONARY
  0
ENDSEC
  0
EOF
