  0
SECTION
  2
HEADER
  9
$ACADVER
  1
AC1014
  9
$HANDSEED
  5
FFFF
  9
$MEASUREMENT
 70
     1
  0
ENDSEC
  0
SECTION
  2
TABLES
  0
TABLE
  2
VPORT
  5
8
330
0
100
AcDbSymbolTable
 70
     4
  0
VPORT
  5
2E
330
8
100
AcDbSymbolTableRecord
100
AcDbViewportTableRecord
  2
*ACTIVE
 70
     0
 10
0.0
 20
0.0
 11
1.0
 21
1.0
 12
210.0
 22
148.5
 13
0.0
 23
0.0
 14
10.0
 24
10.0
 15
10.0
 25
10.0
 16
0.0
 26
0.0
 36
1.0
 17
0.0
 27
0.0
 37
0.0
 40
341.0
 41
1.24
 42
50.0
 43
0.0
 44
0.0
 50
0.0
 51
0.0
 71
     0
 72
   100
 73
     1
 74
     3
 75
     0
 76
     0
 77
     0
 78
     0
  0
ENDTAB
  0
TABLE
  2
LTYPE
  5
5
330
0
100
AcDbSymbolTable
 70
     1
  0
LTYPE
  5
14
330
5
100
AcDbSymbolTableRecord
100
AcDbLinetypeTableRecord
  2
BYBLOCK
 70
     0
  3

 72
    65
 73
     0
 40
0.0
  0
LTYPE
  5
15
330
5
100
AcDbSymbolTableRecord
100
AcDbLinetypeTableRecord
  2
BYLAYER
 70
     0
  3

 72
    65
 73
     0
 40
0.0
  0
LTYPE
  5
16
330
5
100
AcDbSymbolTableRecord
100
AcDbLinetypeTableRecord
  2
CONTINUOUS
 70
     0
  3
Solid line
 72
    65
 73
     0
 40
0.0
  0
ENDTAB
  0
TABLE
  2
LAYER
  5
2
100
AcDbSymbolTable
 70
2
  0
LAYER
  5
50
100
AcDbSymbolTableRecord
100
AcDbLayerTableRecord
  2
0
 70
0
  6
CONTINUOUS
  0
LAYER
  5
51
100
AcDbSymbolTableRecord
100
AcDbLayerTableRecord
  2
Layer_1
 70
0
  6
CONTINUOUS
  0
ENDTAB
  0
TABLE
  2
STYLE
  5
3
330
0
100
AcDbSymbolTable
 70
     1
  0
STYLE
  5
11
330
3
100
AcDbSymbolTableRecord
100
AcDbTextStyleTableRecord
  2
STANDARD
 70
     0
 40
0.0
 41
1.0
 50
0.0
 71
     0
 42
2.5
  3
txt
  4

  0
ENDTAB
  0
TABLE
  2
VIEW
  5
6
330
0
100
AcDbSymbolTable
 70
     0
  0
ENDTAB
  0
TABLE
  2
UCS
  5
7
330
0
100
AcDbSymbolTable
 70
     0
  0
ENDTAB
  0
TABLE
  2
APPID
  5
9
330
0
100
AcDbSymbolTable
 70
     2
  0
APPID
  5
12
330
9
100
AcDbSymbolTableRecord
100
AcDbRegAppTableRecord
  2
ACAD
 70
     0
  0
ENDTAB
  0
TABLE
  2
DIMSTYLE
  5
A
330
0
100
AcDbSymbolTable
 70
     1
  0
DIMSTYLE
105
27
330
A
100
AcDbSymbolTableRecord
100
AcDbDimStyleTableRecord
  2
ISO-25
 70
     0
  3

  4

  5

  6

  7

 40
1.0
 41
2.5
 42
0.625
 43
3.75
 44
1.25
 45
0.0
 46
0.0
 47
0.0
 48
0.0
140
2.5
141
2.5
142
0.0
143
0.03937007874016
144
1.0
145
0.0
146
1.0
147
0.625
 71
     0
 72
     0
 73
     0
 74
     0
 75
     0
 76
     0
 77
     1
 78
     8
170
     0
171
     3
172
     1
173
     0
174
     0
175
     0
176
     0
177
     0
178
     0
270
     2
271
     2
272
     2
273
     2
274
     3
340
11
275
     0
280
     0
281
     0
282
     0
283
     0
284
     8
285
     0
286
     0
287
     3
288
     0
  0
ENDTAB
  0
TABLE
  2
BLOCK_RECORD
  5
1
330
0
100
AcDbSymbolTable
 70
     1
  0
BLOCK_RECORD
  5
1F
330
1
100
AcDbSymbolTableRecord
100
AcDbBlockTableRecord
  2
*MODEL_SPACE
  0
BLOCK_RECORD
  5
1B
330
1
100
AcDbSymbolTableRecord
100
AcDbBlockTableRecord
  2
*PAPER_SPACE
  0
ENDTAB
  0
ENDSEC
  0
SECTION
  2
BLOCKS
  0
BLOCK
  5
20
330
1F
100
AcDbEntity
  8
0
100
AcDbBlockBegin
  2
*MODEL_SPACE
 70
     0
 10
0.0
 20
0.0
 30
0.0
  3
*MODEL_SPACE
  1

  0
ENDBLK
  5
21
330
1F
100
AcDbEntity
  8
0
100
AcDbBlockEnd
  0
BLOCK
  5
1C
330
1B
100
AcDbEntity
 67
     1
  8
0
100
AcDbBlockBegin
  2
*PAPER_SPACE
  1

  0
ENDBLK
  5
1D
330
1B
100
AcDbEntity
 67
     1
  8
0
100
AcDbBlockEnd
  0
ENDSEC
  0
SECTION
  2
ENTITIES
  0
SPLINE
  5
100
100
AcDbEntity
  8
Layer_1
 62
7
100
AcDbSpline
 70
8
 71
3
 72
8
 73
4
 74
0
 40
0
 40
0
 40
0
 40
0
 40
1
 40
1
 40
1
 40
1
 10
-0.036931
 20
-9.355214
 30
0.0
 10
-0.036931
 20
-10.799825
 30
0.0
 10
0.885032
 20
-11.968846
 30
0.0
 10
2.023920
 20
-11.968846
 30
0.0
  0
LWPOLYLINE
  5
101
100
AcDbEntity
  8
Layer_1
 62
7
100
AcDbPolyline
 90
2
 70
1
 10
-0.036931
 20
0.031159
 30
0.0
 10
-0.036931
 20
-9.355214
 30
0.0
  0
SPLINE
  5
102
100
AcDbEntity
  8
Layer_1
 62
7
100
AcDbSpline
 70
8
 71
3
 72
8
 73
4
 74
0
 40
0
 40
0
 40
0
 40
0
 40
1
 40
1
 40
1
 40
1
 10
9.902217
 20
-11.968846
 30
0.0
 10
11.041105
 20
-11.968846
 30
0.0
 10
11.963069
 20
-10.799825
 30
0.0
 10
11.963069
 20
-9.355214
 30
0.0
  0
LWPOLYLINE
  5
103
100
AcDbEntity
  8
Layer_1
 62
7
100
AcDbPolyline
 90
2
 70
1
 10
2.023920
 20
-11.968846
 30
0.0
 10
9.902217
 20
-11.968846
 30
0.0
  0
SPLINE
  5
104
100
AcDbEntity
  8
Layer_1
 62
7
100
AcDbSpline
 70
8
 71
3
 72
8
 73
4
 74
0
 40
0
 40
0
 40
0
 40
0
 40
1
 40
1
 40
1
 40
1
 10
11.640513
 20
-9.355214
 30
0.0
 10
11.640513
 20
-10.580340
 30
0.0
 10
10.868056
 20
-11.560131
 30
0.0
 10
9.902217
 20
-11.560131
 30
0.0
  0
LWPOLYLINE
  5
105
100
AcDbEntity
  8
Layer_1
 62
7
100
AcDbPolyline
 90
4
 70
1
 10
11.963069
 20
-9.355214
 30
0.0
 10
11.963069
 20
-0.145287
 30
0.0
 10
11.640513
 20
-0.145287
 30
0.0
 10
11.640513
 20
-9.355214
 30
0.0
  0
SPLINE
  5
106
100
AcDbEntity
  8
Layer_1
 62
7
100
AcDbSpline
 70
8
 71
3
 72
8
 73
4
 74
0
 40
0
 40
0
 40
0
 40
0
 40
1
 40
1
 40
1
 40
1
 10
2.023920
 20
-11.560131
 30
0.0
 10
1.058080
 20
-11.560131
 30
0.0
 10
0.285624
 20
-10.580340
 30
0.0
 10
0.285624
 20
-9.355214
 30
0.0
  0
LWPOLYLINE
  5
107
100
AcDbEntity
  8
Layer_1
 62
7
100
AcDbPolyline
 90
2
 70
1
 10
9.902217
 20
-11.560131
 30
0.0
 10
2.023920
 20
-11.560131
 30
0.0
  0
SPLINE
  5
108
100
AcDbEntity
  8
Layer_1
 62
7
100
AcDbSpline
 70
8
 71
3
 72
8
 73
4
 74
0
 40
0
 40
0
 40
0
 40
0
 40
1
 40
1
 40
1
 40
1
 10
0.285624
 20
-0.094487
 30
0.0
 10
0.174067
 20
-0.064938
 30
0.0
 10
0.066284
 20
-0.022153
 30
0.0
 10
-0.036931
 20
0.031159
 30
0.0
  0
LWPOLYLINE
  5
109
100
AcDbEntity
  8
Layer_1
 62
7
100
AcDbPolyline
 90
2
 70
1
 10
0.285624
 20
-9.355214
 30
0.0
 10
0.285624
 20
-0.094487
 30
0.0
  0
LWPOLYLINE
  5
10a
100
AcDbEntity
  8
Layer_1
 62
7
100
AcDbPolyline
 90
2
 70
1
 10
-0.036931
 20
0.031159
 30
0.0
 10
-0.036931
 20
0.031159
 30
0.0
  0
LWPOLYLINE
  5
10b
100
AcDbEntity
  8
Layer_1
 62
7
100
AcDbPolyline
 90
2
 70
0
 10
1.917222
 20
-1.987774
 30
0.0
 10
5.141111
 20
-1.987774
 30
0.0
  0
LWPOLYLINE
  5
10c
100
AcDbEntity
  8
Layer_1
 62
7
100
AcDbPolyline
 90
2
 70
0
 10
6.800556
 20
-1.956674
 30
0.0
 10
10.024444
 20
-1.956674
 30
0.0
  0
LWPOLYLINE
  5
10d
100
AcDbEntity
  8
Layer_1
 62
7
100
AcDbPolyline
 90
2
 70
0
 10
0.260555
 20
-4.097781
 30
0.0
 10
3.484444
 20
-4.097781
 30
0.0
  0
LWPOLYLINE
  5
10e
100
AcDbEntity
  8
Layer_1
 62
7
100
AcDbPolyline
 90
2
 70
0
 10
8.481667
 20
-4.038062
 30
0.0
 10
11.705556
 20
-4.038062
 30
0.0
  0
LWPOLYLINE
  5
10f
100
AcDbEntity
  8
Layer_1
 62
7
100
AcDbPolyline
 90
2
 70
0
 10
1.837222
 20
-6.002781
 30
0.0
 10
5.061111
 20
-6.002781
 30
0.0
  0
LWPOLYLINE
  5
110
100
AcDbEntity
  8
Layer_1
 62
7
100
AcDbPolyline
 90
2
 70
0
 10
6.883333
 20
-5.979723
 30
0.0
 10
10.107222
 20
-5.979723
 30
0.0
  0
SPLINE
  5
111
100
AcDbEntity
  8
Layer_1
 62
7
100
AcDbSpline
 70
8
 71
3
 72
8
 73
4
 74
0
 40
0
 40
0
 40
0
 40
0
 40
1
 40
1
 40
1
 40
1
 10
17.892513
 20
-9.419109
 30
0.0
 10
17.892513
 20
-10.863720
 30
0.0
 10
18.814477
 20
-12.032741
 30
0.0
 10
19.953365
 20
-12.032741
 30
0.0
  0
LWPOLYLINE
  5
112
100
AcDbEntity
  8
Layer_1
 62
7
100
AcDbPolyline
 90
2
 70
1
 10
17.892513
 20
-0.032736
 30
0.0
 10
17.892513
 20
-9.419109
 30
0.0
  0
SPLINE
  5
113
100
AcDbEntity
  8
Layer_1
 62
7
100
AcDbSpline
 70
8
 71
3
 72
8
 73
4
 74
0
 40
0
 40
0
 40
0
 40
0
 40
1
 40
1
 40
1
 40
1
 10
27.831661
 20
-12.032741
 30
0.0
 10
28.970549
 20
-12.032741
 30
0.0
 10
29.892512
 20
-10.863720
 30
0.0
 10
29.892512
 20
-9.419109
 30
0.0
  0
LWPOLYLINE
  5
114
100
AcDbEntity
  8
Layer_1
 62
7
100
AcDbPolyline
 90
2
 70
1
 10
19.953365
 20
-12.032741
 30
0.0
 10
27.831661
 20
-12.032741
 30
0.0
  0
SPLINE
  5
115
100
AcDbEntity
  8
Layer_1
 62
7
100
AcDbSpline
 70
8
 71
3
 72
8
 73
4
 74
0
 40
0
 40
0
 40
0
 40
0
 40
1
 40
1
 40
1
 40
1
 10
29.569958
 20
-9.419109
 30
0.0
 10
29.569958
 20
-10.644236
 30
0.0
 10
28.797501
 20
-11.624026
 30
0.0
 10
27.831661
 20
-11.624026
 30
0.0
  0
LWPOLYLINE
  5
116
100
AcDbEntity
  8
Layer_1
 62
7
100
AcDbPolyline
 90
4
 70
1
 10
29.892512
 20
-9.419109
 30
0.0
 10
29.892512
 20
-0.209182
 30
0.0
 10
29.569958
 20
-0.209182
 30
0.0
 10
29.569958
 20
-9.419109
 30
0.0
  0
SPLINE
  5
117
100
AcDbEntity
  8
Layer_1
 62
7
100
AcDbSpline
 70
8
 71
3
 72
8
 73
4
 74
0
 40
0
 40
0
 40
0
 40
0
 40
1
 40
1
 40
1
 40
1
 10
19.953365
 20
-11.624026
 30
0.0
 10
18.987525
 20
-11.624026
 30
0.0
 10
18.215068
 20
-10.644236
 30
0.0
 10
18.215068
 20
-9.419109
 30
0.0
  0
LWPOLYLINE
  5
118
100
AcDbEntity
  8
Layer_1
 62
7
100
AcDbPolyline
 90
2
 70
1
 10
27.831661
 20
-11.624026
 30
0.0
 10
19.953365
 20
-11.624026
 30
0.0
  0
SPLINE
  5
119
100
AcDbEntity
  8
Layer_1
 62
7
100
AcDbSpline
 70
8
 71
3
 72
8
 73
4
 74
0
 40
0
 40
0
 40
0
 40
0
 40
1
 40
1
 40
1
 40
1
 10
18.215068
 20
-0.158382
 30
0.0
 10
18.103511
 20
-0.128833
 30
0.0
 10
17.995729
 20
-0.086048
 30
0.0
 10
17.892513
 20
-0.032736
 30
0.0
  0
LWPOLYLINE
  5
11a
100
AcDbEntity
  8
Layer_1
 62
7
100
AcDbPolyline
 90
2
 70
1
 10
18.215068
 20
-9.419109
 30
0.0
 10
18.215068
 20
-0.158382
 30
0.0
  0
LWPOLYLINE
  5
11b
100
AcDbEntity
  8
Layer_1
 62
7
100
AcDbPolyline
 90
2
 70
1
 10
17.892513
 20
-0.032736
 30
0.0
 10
17.892513
 20
-0.032736
 30
0.0
  0
LWPOLYLINE
  5
11c
100
AcDbEntity
  8
Layer_1
 62
7
100
AcDbPolyline
 90
2
 70
0
 10
19.705555
 20
-1.063892
 30
0.0
 10
22.929444
 20
-1.063892
 30
0.0
  0
LWPOLYLINE
  5
11d
100
AcDbEntity
  8
Layer_1
 62
7
100
AcDbPolyline
 90
2
 70
0
 10
24.730000
 20
-1.032791
 30
0.0
 10
27.953889
 20
-1.032791
 30
0.0
  0
LWPOLYLINE
  5
11e
100
AcDbEntity
  8
Layer_1
 62
7
100
AcDbPolyline
 90
2
 70
0
 10
18.048889
 20
-2.045009
 30
0.0
 10
21.272777
 20
-2.045009
 30
0.0
  0
LWPOLYLINE
  5
11f
100
AcDbEntity
  8
Layer_1
 62
7
100
AcDbPolyline
 90
2
 70
0
 10
26.340556
 20
-1.985291
 30
0.0
 10
29.564446
 20
-1.985291
 30
0.0
  0
LWPOLYLINE
  5
120
100
AcDbEntity
  8
Layer_1
 62
7
100
AcDbPolyline
 90
2
 70
0
 10
19.766666
 20
-3.103342
 30
0.0
 10
22.990555
 20
-3.103342
 30
0.0
  0
LWPOLYLINE
  5
121
100
AcDbEntity
  8
Layer_1
 62
7
100
AcDbPolyline
 90
2
 70
0
 10
24.812778
 20
-3.115563
 30
0.0
 10
28.036666
 20
-3.115563
 30
0.0
  0
LWPOLYLINE
  5
122
100
AcDbEntity
  8
Layer_1
 62
7
100
AcDbPolyline
 90
2
 70
0
 10
18.192777
 20
-4.038345
 30
0.0
 10
21.416666
 20
-4.038345
 30
0.0
  0
LWPOLYLINE
  5
123
100
AcDbEntity
  8
Layer_1
 62
7
100
AcDbPolyline
 90
2
 70
0
 10
26.401666
 20
-4.084460
 30
0.0
 10
29.625555
 20
-4.084460
 30
0.0
  0
SPLINE
  5
124
100
AcDbEntity
  8
Layer_1
 62
7
100
AcDbSpline
 70
8
 71
3
 72
8
 73
4
 74
0
 40
0
 40
0
 40
0
 40
0
 40
1
 40
1
 40
1
 40
1
 10
0.026957
 20
-27.440776
 30
0.0
 10
0.026957
 20
-28.885387
 30
0.0
 10
0.948921
 20
-30.054408
 30
0.0
 10
2.087809
 20
-30.054408
 30
0.0
  0
LWPOLYLINE
  5
125
100
AcDbEntity
  8
Layer_1
 62
7
100
AcDbPolyline
 90
2
 70
1
 10
0.026957
 20
-18.054403
 30
0.0
 10
0.026957
 20
-27.440776
 30
0.0
  0
SPLINE
  5
126
100
AcDbEntity
  8
Layer_1
 62
7
100
AcDbSpline
 70
8
 71
3
 72
8
 73
4
 74
0
 40
0
 40
0
 40
0
 40
0
 40
1
 40
1
 40
1
 40
1
 10
9.966105
 20
-30.054408
 30
0.0
 10
11.104993
 20
-30.054408
 30
0.0
 10
12.026956
 20
-28.885387
 30
0.0
 10
12.026956
 20
-27.440776
 30
0.0
  0
LWPOLYLINE
  5
127
100
AcDbEntity
  8
Layer_1
 62
7
100
AcDbPolyline
 90
2
 70
1
 10
2.087809
 20
-30.054408
 30
0.0
 10
9.966105
 20
-30.054408
 30
0.0
  0
SPLINE
  5
128
100
AcDbEntity
  8
Layer_1
 62
7
100
AcDbSpline
 70
8
 71
3
 72
8
 73
4
 74
0
 40
0
 40
0
 40
0
 40
0
 40
1
 40
1
 40
1
 40
1
 10
11.704402
 20
-27.440776
 30
0.0
 10
11.704402
 20
-28.665902
 30
0.0
 10
10.931946
 20
-29.645693
 30
0.0
 10
9.966105
 20
-29.645693
 30
0.0
  0
LWPOLYLINE
  5
129
100
AcDbEntity
  8
Layer_1
 62
7
100
AcDbPolyline
 90
4
 70
1
 10
12.026956
 20
-27.440776
 30
0.0
 10
12.026956
 20
-18.230849
 30
0.0
 10
11.704402
 20
-18.230849
 30
0.0
 10
11.704402
 20
-27.440776
 30
0.0
  0
SPLINE
  5
12a
100
AcDbEntity
  8
Layer_1
 62
7
100
AcDbSpline
 70
8
 71
3
 72
8
 73
4
 74
0
 40
0
 40
0
 40
0
 40
0
 40
1
 40
1
 40
1
 40
1
 10
2.087809
 20
-29.645693
 30
0.0
 10
1.121969
 20
-29.645693
 30
0.0
 10
0.349513
 20
-28.665902
 30
0.0
 10
0.349513
 20
-27.440776
 30
0.0
  0
LWPOLYLINE
  5
12b
100
AcDbEntity
  8
Layer_1
 62
7
100
AcDbPolyline
 90
2
 70
1
 10
9.966105
 20
-29.645693
 30
0.0
 10
2.087809
 20
-29.645693
 30
0.0
  0
SPLINE
  5
12c
100
AcDbEntity
  8
Layer_1
 62
7
100
AcDbSpline
 70
8
 71
3
 72
8
 73
4
 74
0
 40
0
 40
0
 40
0
 40
0
 40
1
 40
1
 40
1
 40
1
 10
0.349513
 20
-18.180049
 30
0.0
 10
0.237956
 20
-18.150500
 30
0.0
 10
0.130173
 20
-18.107715
 30
0.0
 10
0.026957
 20
-18.054403
 30
0.0
  0
LWPOLYLINE
  5
12d
100
AcDbEntity
  8
Layer_1
 62
7
100
AcDbPolyline
 90
2
 70
1
 10
0.349513
 20
-27.440776
 30
0.0
 10
0.349513
 20
-18.180049
 30
0.0
  0
LWPOLYLINE
  5
12e
100
AcDbEntity
  8
Layer_1
 62
7
100
AcDbPolyline
 90
2
 70
1
 10
0.026957
 20
-18.054403
 30
0.0
 10
0.026957
 20
-18.054403
 30
0.0
  0
LWPOLYLINE
  5
12f
100
AcDbEntity
  8
Layer_1
 62
7
100
AcDbPolyline
 90
2
 70
0
 10
0.146666
 20
-18.238892
 30
0.0
 10
3.370555
 20
-18.238892
 30
0.0
  0
LWPOLYLINE
  5
130
100
AcDbEntity
  8
Layer_1
 62
7
100
AcDbPolyline
 90
2
 70
0
 10
8.698889
 20
-18.137236
 30
0.0
 10
11.922777
 20
-18.137236
 30
0.0
  0
LWPOLYLINE
  5
131
100
AcDbEntity
  8
Layer_1
 62
7
100
AcDbPolyline
 90
2
 70
0
 10
0.183333
 20
-20.066676
 30
0.0
 10
3.407222
 20
-20.066676
 30
0.0
  0
LWPOLYLINE
  5
132
100
AcDbEntity
  8
Layer_1
 62
7
100
AcDbPolyline
 90
2
 70
0
 10
6.852222
 20
-19.019180
 30
0.0
 10
10.076112
 20
-19.019180
 30
0.0
  0
LWPOLYLINE
  5
133
100
AcDbEntity
  8
Layer_1
 62
7
100
AcDbPolyline
 90
2
 70
0
 10
1.901111
 20
-19.078898
 30
0.0
 10
5.124999
 20
-19.078898
 30
0.0
  0
LWPOLYLINE
  5
134
100
AcDbEntity
  8
Layer_1
 62
7
100
AcDbPolyline
 90
2
 70
0
 10
8.570000
 20
-20.078896
 30
0.0
 10
11.793889
 20
-20.078896
 30
0.0
  0
LWPOLYLINE
  5
135
100
AcDbEntity
  8
Layer_1
 62
7
100
AcDbPolyline
 90
2
 70
0
 10
1.808888
 20
-21.072234
 30
0.0
 10
5.032777
 20
-21.072234
 30
0.0
  0
LWPOLYLINE
  5
136
100
AcDbEntity
  8
Layer_1
 62
7
100
AcDbPolyline
 90
2
 70
0
 10
6.983889
 20
-20.941960
 30
0.0
 10
10.207777
 20
-20.941960
 30
0.0
  0
LWPOLYLINE
  5
137
100
AcDbEntity
  8
Layer_1
 62
7
100
AcDbPolyline
 90
42
 70
0
 10
18.073068
 20
-17.867177
 30
0.0
 10
18.073068
 20
-27.253550
 30
0.0
 10
18.114908
 20
-27.780615
 30
0.0
 10
18.234920
 20
-28.271375
 30
0.0
 10
18.424842
 20
-28.715358
 30
0.0
 10
18.676411
 20
-29.102095
 30
0.0
 10
18.981366
 20
-29.421115
 30
0.0
 10
19.331443
 20
-29.661950
 30
0.0
 10
19.718382
 20
-29.814128
 30
0.0
 10
20.133920
 20
-29.867181
 30
0.0
 10
28.012216
 20
-29.867181
 30
0.0
 10
28.427753
 20
-29.814128
 30
0.0
 10
28.814692
 20
-29.661950
 30
0.0
 10
29.164770
 20
-29.421115
 30
0.0
 10
29.469724
 20
-29.102095
 30
0.0
 10
29.721293
 20
-28.715358
 30
0.0
 10
29.911215
 20
-28.271375
 30
0.0
 10
30.031227
 20
-27.780615
 30
0.0
 10
30.073067
 20
-27.253550
 30
0.0
 10
30.073067
 20
-18.043622
 30
0.0
 10
29.750512
 20
-18.043622
 30
0.0
 10
29.750512
 20
-27.253550
 30
0.0
 10
29.715434
 20
-27.700037
 30
0.0
 10
29.614724
 20
-28.114918
 30
0.0
 10
29.455169
 20
-28.489585
 30
0.0
 10
29.243554
 20
-28.815431
 30
0.0
 10
28.986665
 20
-29.083849
 30
0.0
 10
28.691288
 20
-29.286232
 30
0.0
 10
28.364210
 20
-29.413974
 30
0.0
 10
28.012216
 20
-29.458467
 30
0.0
 10
20.133920
 20
-29.458467
 30
0.0
 10
19.781926
 20
-29.413974
 30
0.0
 10
19.454847
 20
-29.286232
 30
0.0
 10
19.159471
 20
-29.083849
 30
0.0
 10
18.902582
 20
-28.815431
 30
0.0
 10
18.690967
 20
-28.489585
 30
0.0
 10
18.531411
 20
-28.114918
 30
0.0
 10
18.430702
 20
-27.700037
 30
0.0
 10
18.395624
 20
-27.253550
 30
0.0
 10
18.395624
 20
-17.992822
 30
0.0
 10
18.073068
 20
-17.867177
 30
0.0
 10
18.073068
 20
-17.867177
 30
0.0
  0
LWPOLYLINE
  5
138
100
AcDbEntity
  8
Layer_1
 62
7
100
AcDbPolyline
 90
2
 70
0
 10
18.192777
 20
-18.051666
 30
0.0
 10
21.416666
 20
-18.051666
 30
0.0
  0
LWPOLYLINE
  5
139
100
AcDbEntity
  8
Layer_1
 62
7
100
AcDbPolyline
 90
2
 70
0
 10
26.745000
 20
-17.950009
 30
0.0
 10
29.968890
 20
-17.950009
 30
0.0
  0
LWPOLYLINE
  5
13a
100
AcDbEntity
  8
Layer_1
 62
7
100
AcDbPolyline
 90
2
 70
0
 10
18.229444
 20
-19.879450
 30
0.0
 10
21.453333
 20
-19.879450
 30
0.0
  0
LWPOLYLINE
  5
13b
100
AcDbEntity
  8
Layer_1
 62
7
100
AcDbPolyline
 90
2
 70
0
 10
24.898333
 20
-18.831954
 30
0.0
 10
28.122223
 20
-18.831954
 30
0.0
  0
LWPOLYLINE
  5
13c
100
AcDbEntity
  8
Layer_1
 62
7
100
AcDbPolyline
 90
2
 70
0
 10
19.947222
 20
-18.891672
 30
0.0
 10
23.171110
 20
-18.891672
 30
0.0
  0
LWPOLYLINE
  5
13d
100
AcDbEntity
  8
Layer_1
 62
7
100
AcDbPolyline
 90
2
 70
0
 10
26.616111
 20
-19.891670
 30
0.0
 10
29.839999
 20
-19.891670
 30
0.0
  0
LWPOLYLINE
  5
13e
100
AcDbEntity
  8
Layer_1
 62
7
100
AcDbPolyline
 90
2
 70
0
 10
19.854999
 20
-20.885008
 30
0.0
 10
23.078888
 20
-20.885008
 30
0.0
  0
LWPOLYLINE
  5
13f
100
AcDbEntity
  8
Layer_1
 62
7
100
AcDbPolyline
 90
2
 70
0
 10
25.030000
 20
-20.754734
 30
0.0
 10
28.253888
 20
-20.754734
 30
0.0
  0
LWPOLYLINE
  5
140
100
AcDbEntity
  8
Layer_1
 62
7
100
AcDbPolyline
 90
2
 70
0
 10
18.177777
 20
-22.061110
 30
0.0
 10
21.401666
 20
-22.061110
 30
0.0
  0
LWPOLYLINE
  5
141
100
AcDbEntity
  8
Layer_1
 62
7
100
AcDbPolyline
 90
2
 70
0
 10
26.730000
 20
-21.959454
 30
0.0
 10
29.953890
 20
-21.959454
 30
0.0
  0
LWPOLYLINE
  5
142
100
AcDbEntity
  8
Layer_1
 62
7
100
AcDbPolyline
 90
2
 70
0
 10
18.214444
 20
-23.888894
 30
0.0
 10
21.438333
 20
-23.888894
 30
0.0
  0
LWPOLYLINE
  5
143
100
AcDbEntity
  8
Layer_1
 62
7
100
AcDbPolyline
 90
2
 70
0
 10
24.883333
 20
-22.841398
 30
0.0
 10
28.107223
 20
-22.841398
 30
0.0
  0
LWPOLYLINE
  5
144
100
AcDbEntity
  8
Layer_1
 62
7
100
AcDbPolyline
 90
2
 70
0
 10
19.932222
 20
-22.901116
 30
0.0
 10
23.156110
 20
-22.901116
 30
0.0
  0
LWPOLYLINE
  5
145
100
AcDbEntity
  8
Layer_1
 62
7
100
AcDbPolyline
 90
2
 70
0
 10
26.601111
 20
-23.901114
 30
0.0
 10
29.824999
 20
-23.901114
 30
0.0
  0
LWPOLYLINE
  5
146
100
AcDbEntity
  8
Layer_1
 62
7
100
AcDbPolyline
 90
2
 70
0
 10
19.839999
 20
-24.894452
 30
0.0
 10
23.063888
 20
-24.894452
 30
0.0
  0
LWPOLYLINE
  5
147
100
AcDbEntity
  8
Layer_1
 62
7
100
AcDbPolyline
 90
2
 70
0
 10
25.014999
 20
-24.764178
 30
0.0
 10
28.238887
 20
-24.764178
 30
0.0
  0
SPLINE
  5
148
100
AcDbEntity
  8
Layer_1
 62
7
100
AcDbSpline
 70
8
 71
3
 72
8
 73
4
 74
0
 40
0
 40
0
 40
0
 40
0
 40
1
 40
1
 40
1
 40
1
 10
35.990290
 20
-9.453004
 30
0.0
 10
35.990290
 20
-10.897615
 30
0.0
 10
36.912254
 20
-12.066636
 30
0.0
 10
38.051142
 20
-12.066636
 30
0.0
  0
LWPOLYLINE
  5
149
100
AcDbEntity
  8
Layer_1
 62
7
100
AcDbPolyline
 90
2
 70
1
 10
35.990290
 20
-0.066631
 30
0.0
 10
35.990290
 20
-9.453004
 30
0.0
  0
SPLINE
  5
14a
100
AcDbEntity
  8
Layer_1
 62
7
100
AcDbSpline
 70
8
 71
3
 72
8
 73
4
 74
0
 40
0
 40
0
 40
0
 40
0
 40
1
 40
1
 40
1
 40
1
 10
45.929437
 20
-12.066636
 30
0.0
 10
47.068325
 20
-12.066636
 30
0.0
 10
47.990289
 20
-10.897615
 30
0.0
 10
47.990289
 20
-9.453004
 30
0.0
  0
LWPOLYLINE
  5
14b
100
AcDbEntity
  8
Layer_1
 62
7
100
AcDbPolyline
 90
2
 70
1
 10
38.051142
 20
-12.066636
 30
0.0
 10
45.929437
 20
-12.066636
 30
0.0
  0
SPLINE
  5
14c
100
AcDbEntity
  8
Layer_1
 62
7
100
AcDbSpline
 70
8
 71
3
 72
8
 73
4
 74
0
 40
0
 40
0
 40
0
 40
0
 40
1
 40
1
 40
1
 40
1
 10
47.667734
 20
-9.453004
 30
0.0
 10
47.667734
 20
-10.678130
 30
0.0
 10
46.895278
 20
-11.657921
 30
0.0
 10
45.929437
 20
-11.657921
 30
0.0
  0
LWPOLYLINE
  5
14d
100
AcDbEntity
  8
Layer_1
 62
7
100
AcDbPolyline
 90
4
 70
1
 10
47.990289
 20
-9.453004
 30
0.0
 10
47.990289
 20
-0.243077
 30
0.0
 10
47.667734
 20
-0.243077
 30
0.0
 10
47.667734
 20
-9.453004
 30
0.0
  0
SPLINE
  5
14e
100
AcDbEntity
  8
Layer_1
 62
7
100
AcDbSpline
 70
8
 71
3
 72
8
 73
4
 74
0
 40
0
 40
0
 40
0
 40
0
 40
1
 40
1
 40
1
 40
1
 10
38.051142
 20
-11.657921
 30
0.0
 10
37.085301
 20
-11.657921
 30
0.0
 10
36.312845
 20
-10.678130
 30
0.0
 10
36.312845
 20
-9.453004
 30
0.0
  0
LWPOLYLINE
  5
14f
100
AcDbEntity
  8
Layer_1
 62
7
100
AcDbPolyline
 90
2
 70
1
 10
45.929437
 20
-11.657921
 30
0.0
 10
38.051142
 20
-11.657921
 30
0.0
  0
SPLINE
  5
150
100
AcDbEntity
  8
Layer_1
 62
7
100
AcDbSpline
 70
8
 71
3
 72
8
 73
4
 74
0
 40
0
 40
0
 40
0
 40
0
 40
1
 40
1
 40
1
 40
1
 10
36.312845
 20
-0.192277
 30
0.0
 10
36.201288
 20
-0.162728
 30
0.0
 10
36.093504
 20
-0.119943
 30
0.0
 10
35.990290
 20
-0.066631
 30
0.0
  0
LWPOLYLINE
  5
151
100
AcDbEntity
  8
Layer_1
 62
7
100
AcDbPolyline
 90
2
 70
1
 10
36.312845
 20
-9.453004
 30
0.0
 10
36.312845
 20
-0.192277
 30
0.0
  0
LWPOLYLINE
  5
152
100
AcDbEntity
  8
Layer_1
 62
7
100
AcDbPolyline
 90
2
 70
1
 10
35.990290
 20
-0.066631
 30
0.0
 10
35.990290
 20
-0.066631
 30
0.0
  0
LWPOLYLINE
  5
153
100
AcDbEntity
  8
Layer_1
 62
7
100
AcDbPolyline
 90
2
 70
0
 10
35.999999
 20
0.000001
 30
0.0
 10
45.000000
 20
0.000001
 30
0.0
  0
LWPOLYLINE
  5
154
100
AcDbEntity
  8
Layer_1
 62
7
100
AcDbPolyline
 90
2
 70
0
 10
38.941666
 20
-1.039451
 30
0.0
 10
47.941667
 20
-1.039451
 30
0.0
  0
LWPOLYLINE
  5
155
100
AcDbEntity
  8
Layer_1
 62
7
100
AcDbPolyline
 90
2
 70
0
 10
36.061111
 20
-1.956674
 30
0.0
 10
45.061113
 20
-1.956674
 30
0.0
  0
LWPOLYLINE
  5
156
100
AcDbEntity
  8
Layer_1
 62
7
100
AcDbPolyline
 90
2
 70
0
 10
38.846664
 20
-3.097783
 30
0.0
 10
47.846666
 20
-3.097783
 30
0.0
  0
LWPOLYLINE
  5
157
100
AcDbEntity
  8
Layer_1
 62
7
100
AcDbPolyline
 90
42
 70
0
 10
36.106958
 20
-18.137179
 30
0.0
 10
36.106958
 20
-27.523552
 30
0.0
 10
36.148798
 20
-28.050617
 30
0.0
 10
36.268810
 20
-28.541377
 30
0.0
 10
36.458732
 20
-28.985360
 30
0.0
 10
36.710301
 20
-29.372097
 30
0.0
 10
37.015255
 20
-29.691117
 30
0.0
 10
37.365333
 20
-29.931952
 30
0.0
 10
37.752272
 20
-30.084130
 30
0.0
 10
38.167810
 20
-30.137183
 30
0.0
 10
46.046105
 20
-30.137183
 30
0.0
 10
46.461643
 20
-30.084130
 30
0.0
 10
46.848581
 20
-29.931952
 30
0.0
 10
47.198659
 20
-29.691117
 30
0.0
 10
47.503614
 20
-29.372097
 30
0.0
 10
47.755183
 20
-28.985360
 30
0.0
 10
47.945105
 20
-28.541377
 30
0.0
 10
48.065117
 20
-28.050617
 30
0.0
 10
48.106957
 20
-27.523552
 30
0.0
 10
48.106957
 20
-18.313624
 30
0.0
 10
47.784402
 20
-18.313624
 30
0.0
 10
47.784402
 20
-27.523552
 30
0.0
 10
47.749324
 20
-27.970039
 30
0.0
 10
47.648614
 20
-28.384920
 30
0.0
 10
47.489059
 20
-28.759587
 30
0.0
 10
47.277444
 20
-29.085433
 30
0.0
 10
47.020555
 20
-29.353851
 30
0.0
 10
46.725178
 20
-29.556234
 30
0.0
 10
46.398099
 20
-29.683976
 30
0.0
 10
46.046105
 20
-29.728469
 30
0.0
 10
38.167810
 20
-29.728469
 30
0.0
 10
37.815815
 20
-29.683976
 30
0.0
 10
37.488737
 20
-29.556234
 30
0.0
 10
37.193360
 20
-29.353851
 30
0.0
 10
36.936471
 20
-29.085433
 30
0.0
 10
36.724856
 20
-28.759587
 30
0.0
 10
36.565300
 20
-28.384920
 30
0.0
 10
36.464590
 20
-27.970039
 30
0.0
 10
36.429513
 20
-27.523552
 30
0.0
 10
36.429513
 20
-18.262824
 30
0.0
 10
36.106958
 20
-18.137179
 30
0.0
 10
36.106958
 20
-18.137179
 30
0.0
  0
LWPOLYLINE
  5
158
100
AcDbEntity
  8
Layer_1
 62
7
100
AcDbPolyline
 90
2
 70
0
 10
36.116666
 20
-18.070546
 30
0.0
 10
45.116668
 20
-18.070546
 30
0.0
  0
LWPOLYLINE
  5
159
100
AcDbEntity
  8
Layer_1
 62
7
100
AcDbPolyline
 90
2
 70
0
 10
39.058334
 20
-19.109999
 30
0.0
 10
48.058335
 20
-19.109999
 30
0.0
  0
LWPOLYLINE
  5
15a
100
AcDbEntity
  8
Layer_1
 62
7
100
AcDbPolyline
 90
2
 70
0
 10
36.177779
 20
-20.027221
 30
0.0
 10
45.177781
 20
-20.027221
 30
0.0
  0
LWPOLYLINE
  5
15b
100
AcDbEntity
  8
Layer_1
 62
7
100
AcDbPolyline
 90
2
 70
0
 10
38.963332
 20
-21.168330
 30
0.0
 10
47.963334
 20
-21.168330
 30
0.0
  0
LWPOLYLINE
  5
15c
100
AcDbEntity
  8
Layer_1
 62
7
100
AcDbPolyline
 90
2
 70
0
 10
36.116666
 20
-22.143888
 30
0.0
 10
45.116668
 20
-22.143888
 30
0.0
  0
LWPOLYLINE
  5
15d
100
AcDbEntity
  8
Layer_1
 62
7
100
AcDbPolyline
 90
2
 70
0
 10
39.058334
 20
-23.183341
 30
0.0
 10
48.058335
 20
-23.183341
 30
0.0
  0
LWPOLYLINE
  5
15e
100
AcDbEntity
  8
Layer_1
 62
7
100
AcDbPolyline
 90
2
 70
0
 10
36.177779
 20
-24.100563
 30
0.0
 10
45.177781
 20
-24.100563
 30
0.0
  0
LWPOLYLINE
  5
15f
100
AcDbEntity
  8
Layer_1
 62
7
100
AcDbPolyline
 90
2
 70
0
 10
38.963332
 20
-25.241672
 30
0.0
 10
47.963334
 20
-25.241672
 30
0.0
  0
ENDSEC
  0
SECTION
  2
OBJECTS
  0
DICTIONARY
  5
C
330
0
100
AcDbDictionary
  3
ACAD_GROUP
350
D
  3
ACAD_MLINESTYLE
350
17
  0
DICTIONARY
  5
D
330
C
100
AcDbDictionary
  0
DICTIONARY
  5
1A
330
C
100
AcDbDictionary
  0
DICTIONARY
  5
17
330
C
100
AcDbDictionary
  3
STANDARD
350
18
  0
DICTIONARY
  5
19
330
C
100
AcDbDictionary
  0
ENDSEC
  0
EOF
