  0
SECTION
  2
HEADER
  9
$ACADVER
  1
AC1014
  9
$HANDSEED
  5
FFFF
  9
$MEASUREMENT
 70
     1
  0
ENDSEC
  0
SECTION
  2
TABLES
  0
TABLE
  2
VPORT
  5
8
330
0
100
AcDbSymbolTable
 70
     4
  0
VPORT
  5
2E
330
8
100
AcDbSymbolTableRecord
100
AcDbViewportTableRecord
  2
*ACTIVE
 70
     0
 10
0.0
 20
0.0
 11
1.0
 21
1.0
 12
210.0
 22
148.5
 13
0.0
 23
0.0
 14
10.0
 24
10.0
 15
10.0
 25
10.0
 16
0.0
 26
0.0
 36
1.0
 17
0.0
 27
0.0
 37
0.0
 40
341.0
 41
1.24
 42
50.0
 43
0.0
 44
0.0
 50
0.0
 51
0.0
 71
     0
 72
   100
 73
     1
 74
     3
 75
     0
 76
     0
 77
     0
 78
     0
  0
ENDTAB
  0
TABLE
  2
LTYPE
  5
5
330
0
100
AcDbSymbolTable
 70
     1
  0
LTYPE
  5
14
330
5
100
AcDbSymbolTableRecord
100
AcDbLinetypeTableRecord
  2
BYBLOCK
 70
     0
  3

 72
    65
 73
     0
 40
0.0
  0
LTYPE
  5
15
330
5
100
AcDbSymbolTableRecord
100
AcDbLinetypeTableRecord
  2
BYLAYER
 70
     0
  3

 72
    65
 73
     0
 40
0.0
  0
LTYPE
  5
16
330
5
100
AcDbSymbolTableRecord
100
AcDbLinetypeTableRecord
  2
CONTINUOUS
 70
     0
  3
Solid line
 72
    65
 73
     0
 40
0.0
  0
ENDTAB
  0
TABLE
  2
LAYER
  5
2
100
AcDbSymbolTable
 70
2
  0
LAYER
  5
50
100
AcDbSymbolTableRecord
100
AcDbLayerTableRecord
  2
0
 70
0
  6
CONTINUOUS
  0
LAYER
  5
51
100
AcDbSymbolTableRecord
100
AcDbLayerTableRecord
  2
Layer_1
 70
0
  6
CONTINUOUS
  0
ENDTAB
  0
TABLE
  2
STYLE
  5
3
330
0
100
AcDbSymbolTable
 70
     1
  0
STYLE
  5
11
330
3
100
AcDbSymbolTableRecord
100
AcDbTextStyleTableRecord
  2
STANDARD
 70
     0
 40
0.0
 41
1.0
 50
0.0
 71
     0
 42
2.5
  3
txt
  4

  0
ENDTAB
  0
TABLE
  2
VIEW
  5
6
330
0
100
AcDbSymbolTable
 70
     0
  0
ENDTAB
  0
TABLE
  2
UCS
  5
7
330
0
100
AcDbSymbolTable
 70
     0
  0
ENDTAB
  0
TABLE
  2
APPID
  5
9
330
0
100
AcDbSymbolTable
 70
     2
  0
APPID
  5
12
330
9
100
AcDbSymbolTableRecord
100
AcDbRegAppTableRecord
  2
ACAD
 70
     0
  0
ENDTAB
  0
TABLE
  2
DIMSTYLE
  5
A
330
0
100
AcDbSymbolTable
 70
     1
  0
DIMSTYLE
105
27
330
A
100
AcDbSymbolTableRecord
100
AcDbDimStyleTableRecord
  2
ISO-25
 70
     0
  3

  4

  5

  6

  7

 40
1.0
 41
2.5
 42
0.625
 43
3.75
 44
1.25
 45
0.0
 46
0.0
 47
0.0
 48
0.0
140
2.5
141
2.5
142
0.0
143
0.03937007874016
144
1.0
145
0.0
146
1.0
147
0.625
 71
     0
 72
     0
 73
     0
 74
     0
 75
     0
 76
     0
 77
     1
 78
     8
170
     0
171
     3
172
     1
173
     0
174
     0
175
     0
176
     0
177
     0
178
     0
270
     2
271
     2
272
     2
273
     2
274
     3
340
11
275
     0
280
     0
281
     0
282
     0
283
     0
284
     8
285
     0
286
     0
287
     3
288
     0
  0
ENDTAB
  0
TABLE
  2
BLOCK_RECORD
  5
1
330
0
100
AcDbSymbolTable
 70
     1
  0
BLOCK_RECORD
  5
1F
330
1
100
AcDbSymbolTableRecord
100
AcDbBlockTableRecord
  2
*MODEL_SPACE
  0
BLOCK_RECORD
  5
1B
330
1
100
AcDbSymbolTableRecord
100
AcDbBlockTableRecord
  2
*PAPER_SPACE
  0
ENDTAB
  0
ENDSEC
  0
SECTION
  2
BLOCKS
  0
BLOCK
  5
20
330
1F
100
AcDbEntity
  8
0
100
AcDbBlockBegin
  2
*MODEL_SPACE
 70
     0
 10
0.0
 20
0.0
 30
0.0
  3
*MODEL_SPACE
  1

  0
ENDBLK
  5
21
330
1F
100
AcDbEntity
  8
0
100
AcDbBlockEnd
  0
BLOCK
  5
1C
330
1B
100
AcDbEntity
 67
     1
  8
0
100
AcDbBlockBegin
  2
*PAPER_SPACE
  1

  0
ENDBLK
  5
1D
330
1B
100
AcDbEntity
 67
     1
  8
0
100
AcDbBlockEnd
  0
ENDSEC
  0
SECTION
  2
ENTITIES
  0
SPLINE
  5
100
100
AcDbEntity
  8
Layer_1
 62
7
100
AcDbSpline
 70
8
 71
3
 72
8
 73
4
 74
0
 40
0
 40
0
 40
0
 40
0
 40
1
 40
1
 40
1
 40
1
 10
46.113277
 20
210.556846
 30
0.0
 10
46.001720
 20
210.586395
 30
0.0
 10
45.893936
 20
210.629180
 30
0.0
 10
45.790722
 20
210.682491
 30
0.0
  0
LWPOLYLINE
  5
101
100
AcDbEntity
  8
Layer_1
 62
7
100
AcDbPolyline
 90
4
 70
1
 10
45.790722
 20
210.682491
 30
0.0
 10
45.790722
 20
210.682491
 30
0.0
 10
45.790722
 20
210.682491
 30
0.0
 10
45.790722
 20
210.682491
 30
0.0
  0
LWPOLYLINE
  5
102
100
AcDbEntity
  8
Layer_1
 62
7
100
AcDbPolyline
 90
2
 70
0
 10
45.800431
 20
210.749124
 30
0.0
 10
54.800432
 20
210.749124
 30
0.0
  0
LWPOLYLINE
  5
103
100
AcDbEntity
  8
Layer_1
 62
7
100
AcDbPolyline
 90
2
 70
0
 10
48.742098
 20
209.709671
 30
0.0
 10
57.742099
 20
209.709671
 30
0.0
  0
LWPOLYLINE
  5
104
100
AcDbEntity
  8
Layer_1
 62
7
100
AcDbPolyline
 90
2
 70
0
 10
45.861543
 20
208.792449
 30
0.0
 10
54.861545
 20
208.792449
 30
0.0
  0
LWPOLYLINE
  5
105
100
AcDbEntity
  8
Layer_1
 62
7
100
AcDbPolyline
 90
2
 70
0
 10
48.647096
 20
207.651340
 30
0.0
 10
57.647098
 20
207.651340
 30
0.0
  0
LWPOLYLINE
  5
106
100
AcDbEntity
  8
Layer_1
 62
7
100
AcDbPolyline
 90
4
 70
0
 10
45.740055
 20
210.826312
 30
0.0
 10
45.740055
 20
198.840955
 30
0.0
 10
57.725412
 20
198.782507
 30
0.0
 10
57.666946
 20
210.826312
 30
0.0
  0
LWPOLYLINE
  5
107
100
AcDbEntity
  8
Layer_1
 62
6
100
AcDbPolyline
 90
18
 70
0
 10
48.698878
 20
195.541594
 30
0.0
 10
48.664329
 20
195.367900
 30
0.0
 10
48.565940
 20
195.220650
 30
0.0
 10
48.418690
 20
195.122260
 30
0.0
 10
48.244997
 20
195.087710
 30
0.0
 10
48.071303
 20
195.122259
 30
0.0
 10
47.924052
 20
195.220649
 30
0.0
 10
47.825663
 20
195.367900
 30
0.0
 10
47.791113
 20
195.541594
 30
0.0
 10
47.825663
 20
195.715287
 30
0.0
 10
47.924053
 20
195.862537
 30
0.0
 10
48.071304
 20
195.960926
 30
0.0
 10
48.244997
 20
195.995475
 30
0.0
 10
48.421668
 20
195.959806
 30
0.0
 10
48.565939
 20
195.862536
 30
0.0
 10
48.663210
 20
195.718264
 30
0.0
 10
48.698878
 20
195.541594
 30
0.0
 10
48.698878
 20
195.541594
 30
0.0
  0
LWPOLYLINE
  5
108
100
AcDbEntity
  8
Layer_1
 62
6
100
AcDbPolyline
 90
18
 70
0
 10
53.825885
 20
195.540516
 30
0.0
 10
53.787213
 20
195.348972
 30
0.0
 10
53.681754
 20
195.192556
 30
0.0
 10
53.525337
 20
195.087098
 30
0.0
 10
53.333794
 20
195.048427
 30
0.0
 10
53.142250
 20
195.087098
 30
0.0
 10
52.985834
 20
195.192556
 30
0.0
 10
52.880374
 20
195.348972
 30
0.0
 10
52.841703
 20
195.540516
 30
0.0
 10
52.879161
 20
195.728831
 30
0.0
 10
52.985833
 20
195.888477
 30
0.0
 10
53.145479
 20
195.995149
 30
0.0
 10
53.333794
 20
196.032607
 30
0.0
 10
53.522109
 20
195.995149
 30
0.0
 10
53.681755
 20
195.888477
 30
0.0
 10
53.788427
 20
195.728831
 30
0.0
 10
53.825885
 20
195.540516
 30
0.0
 10
53.825885
 20
195.540516
 30
0.0
  0
LWPOLYLINE
  5
109
100
AcDbEntity
  8
Layer_1
 62
6
100
AcDbPolyline
 90
18
 70
0
 10
48.698878
 20
187.864887
 30
0.0
 10
48.663210
 20
187.688216
 30
0.0
 10
48.565939
 20
187.543945
 30
0.0
 10
48.421668
 20
187.446674
 30
0.0
 10
48.244997
 20
187.411006
 30
0.0
 10
48.071304
 20
187.445555
 30
0.0
 10
47.924053
 20
187.543944
 30
0.0
 10
47.825663
 20
187.691194
 30
0.0
 10
47.791113
 20
187.864887
 30
0.0
 10
47.825663
 20
188.038581
 30
0.0
 10
47.924052
 20
188.185832
 30
0.0
 10
48.071303
 20
188.284221
 30
0.0
 10
48.244997
 20
188.318771
 30
0.0
 10
48.418690
 20
188.284220
 30
0.0
 10
48.565940
 20
188.185831
 30
0.0
 10
48.664329
 20
188.038580
 30
0.0
 10
48.698878
 20
187.864887
 30
0.0
 10
48.698878
 20
187.864887
 30
0.0
  0
LWPOLYLINE
  5
10a
100
AcDbEntity
  8
Layer_1
 62
6
100
AcDbPolyline
 90
18
 70
0
 10
53.869051
 20
187.953815
 30
0.0
 10
53.830380
 20
187.762272
 30
0.0
 10
53.724922
 20
187.605855
 30
0.0
 10
53.568506
 20
187.500396
 30
0.0
 10
53.376963
 20
187.461724
 30
0.0
 10
53.188647
 20
187.499182
 30
0.0
 10
53.029002
 20
187.605854
 30
0.0
 10
52.922330
 20
187.765500
 30
0.0
 10
52.884872
 20
187.953815
 30
0.0
 10
52.923543
 20
188.145358
 30
0.0
 10
53.029003
 20
188.301774
 30
0.0
 10
53.185419
 20
188.407233
 30
0.0
 10
53.376963
 20
188.445903
 30
0.0
 10
53.568505
 20
188.407232
 30
0.0
 10
53.724921
 20
188.301773
 30
0.0
 10
53.830380
 20
188.145358
 30
0.0
 10
53.869051
 20
187.953815
 30
0.0
 10
53.869051
 20
187.953815
 30
0.0
  0
LWPOLYLINE
  5
10b
100
AcDbEntity
  8
Layer_1
 62
6
100
AcDbPolyline
 90
18
 70
0
 10
61.414383
 20
195.341210
 30
0.0
 10
61.383289
 20
195.184886
 30
0.0
 10
61.294738
 20
195.052361
 30
0.0
 10
61.162213
 20
194.963811
 30
0.0
 10
61.005889
 20
194.932716
 30
0.0
 10
60.849565
 20
194.963811
 30
0.0
 10
60.717040
 20
195.052361
 30
0.0
 10
60.628490
 20
195.184886
 30
0.0
 10
60.597395
 20
195.341210
 30
0.0
 10
60.628490
 20
195.497534
 30
0.0
 10
60.717040
 20
195.630059
 30
0.0
 10
60.849565
 20
195.718610
 30
0.0
 10
61.005889
 20
195.749704
 30
0.0
 10
61.162213
 20
195.718610
 30
0.0
 10
61.294738
 20
195.630059
 30
0.0
 10
61.383289
 20
195.497534
 30
0.0
 10
61.414383
 20
195.341210
 30
0.0
 10
61.414383
 20
195.341210
 30
0.0
  0
LWPOLYLINE
  5
10c
100
AcDbEntity
  8
Layer_1
 62
6
100
AcDbPolyline
 90
18
 70
0
 10
66.461090
 20
195.298042
 30
0.0
 10
66.429995
 20
195.141718
 30
0.0
 10
66.341445
 20
195.009193
 30
0.0
 10
66.208920
 20
194.920642
 30
0.0
 10
66.052596
 20
194.889547
 30
0.0
 10
65.896272
 20
194.920642
 30
0.0
 10
65.763747
 20
195.009193
 30
0.0
 10
65.675196
 20
195.141718
 30
0.0
 10
65.644101
 20
195.298042
 30
0.0
 10
65.675196
 20
195.454366
 30
0.0
 10
65.763747
 20
195.586891
 30
0.0
 10
65.896272
 20
195.675441
 30
0.0
 10
66.052596
 20
195.706536
 30
0.0
 10
66.208920
 20
195.675441
 30
0.0
 10
66.341445
 20
195.586891
 30
0.0
 10
66.429995
 20
195.454366
 30
0.0
 10
66.461090
 20
195.298042
 30
0.0
 10
66.461090
 20
195.298042
 30
0.0
  0
LWPOLYLINE
  5
10d
100
AcDbEntity
  8
Layer_1
 62
6
100
AcDbPolyline
 90
18
 70
0
 10
61.414383
 20
187.664503
 30
0.0
 10
61.383289
 20
187.508179
 30
0.0
 10
61.294738
 20
187.375654
 30
0.0
 10
61.162213
 20
187.287104
 30
0.0
 10
61.005889
 20
187.256009
 30
0.0
 10
60.849565
 20
187.287104
 30
0.0
 10
60.717040
 20
187.375654
 30
0.0
 10
60.628490
 20
187.508179
 30
0.0
 10
60.597395
 20
187.664503
 30
0.0
 10
60.628490
 20
187.820827
 30
0.0
 10
60.717040
 20
187.953352
 30
0.0
 10
60.849565
 20
188.041903
 30
0.0
 10
61.005889
 20
188.072997
 30
0.0
 10
61.162213
 20
188.041903
 30
0.0
 10
61.294738
 20
187.953352
 30
0.0
 10
61.383289
 20
187.820827
 30
0.0
 10
61.414383
 20
187.664503
 30
0.0
 10
61.414383
 20
187.664503
 30
0.0
  0
LWPOLYLINE
  5
10e
100
AcDbEntity
  8
Layer_1
 62
6
100
AcDbPolyline
 90
18
 70
0
 10
66.504258
 20
187.711338
 30
0.0
 10
66.473164
 20
187.555014
 30
0.0
 10
66.384613
 20
187.422489
 30
0.0
 10
66.252088
 20
187.333939
 30
0.0
 10
66.095764
 20
187.302844
 30
0.0
 10
65.939440
 20
187.333939
 30
0.0
 10
65.806915
 20
187.422489
 30
0.0
 10
65.718365
 20
187.555014
 30
0.0
 10
65.687270
 20
187.711338
 30
0.0
 10
65.718365
 20
187.867662
 30
0.0
 10
65.806915
 20
188.000187
 30
0.0
 10
65.939440
 20
188.088737
 30
0.0
 10
66.095764
 20
188.119832
 30
0.0
 10
66.252088
 20
188.088737
 30
0.0
 10
66.384613
 20
188.000187
 30
0.0
 10
66.473164
 20
187.867662
 30
0.0
 10
66.504258
 20
187.711338
 30
0.0
 10
66.504258
 20
187.711338
 30
0.0
  0
LWPOLYLINE
  5
10f
100
AcDbEntity
  8
Layer_1
 62
6
100
AcDbPolyline
 90
18
 70
0
 10
48.508104
 20
180.201591
 30
0.0
 10
48.480465
 20
180.062636
 30
0.0
 10
48.401753
 20
179.944835
 30
0.0
 10
48.283953
 20
179.866124
 30
0.0
 10
48.144997
 20
179.838484
 30
0.0
 10
48.003660
 20
179.867019
 30
0.0
 10
47.888243
 20
179.944836
 30
0.0
 10
47.810427
 20
180.060254
 30
0.0
 10
47.781893
 20
180.201591
 30
0.0
 10
47.810428
 20
180.342927
 30
0.0
 10
47.888244
 20
180.458344
 30
0.0
 10
48.003661
 20
180.536160
 30
0.0
 10
48.144997
 20
180.564695
 30
0.0
 10
48.286334
 20
180.536161
 30
0.0
 10
48.401752
 20
180.458345
 30
0.0
 10
48.479569
 20
180.342928
 30
0.0
 10
48.508104
 20
180.201591
 30
0.0
 10
48.508104
 20
180.201591
 30
0.0
  0
LWPOLYLINE
  5
110
100
AcDbEntity
  8
Layer_1
 62
6
100
AcDbPolyline
 90
18
 70
0
 10
53.554811
 20
180.158425
 30
0.0
 10
53.526277
 20
180.017088
 30
0.0
 10
53.448460
 20
179.901670
 30
0.0
 10
53.333043
 20
179.823853
 30
0.0
 10
53.191706
 20
179.795318
 30
0.0
 10
53.052751
 20
179.822958
 30
0.0
 10
52.934950
 20
179.901669
 30
0.0
 10
52.856239
 20
180.019470
 30
0.0
 10
52.828599
 20
180.158425
 30
0.0
 10
52.857134
 20
180.299762
 30
0.0
 10
52.934951
 20
180.415179
 30
0.0
 10
53.050369
 20
180.492995
 30
0.0
 10
53.191706
 20
180.521529
 30
0.0
 10
53.333043
 20
180.492995
 30
0.0
 10
53.448459
 20
180.415178
 30
0.0
 10
53.526276
 20
180.299762
 30
0.0
 10
53.554811
 20
180.158425
 30
0.0
 10
53.554811
 20
180.158425
 30
0.0
  0
LWPOLYLINE
  5
111
100
AcDbEntity
  8
Layer_1
 62
6
100
AcDbPolyline
 90
18
 70
0
 10
48.508104
 20
172.524884
 30
0.0
 10
48.479569
 20
172.383547
 30
0.0
 10
48.401752
 20
172.268130
 30
0.0
 10
48.286334
 20
172.190314
 30
0.0
 10
48.144997
 20
172.161780
 30
0.0
 10
48.003661
 20
172.190315
 30
0.0
 10
47.888244
 20
172.268131
 30
0.0
 10
47.810428
 20
172.383548
 30
0.0
 10
47.781893
 20
172.524884
 30
0.0
 10
47.810427
 20
172.666221
 30
0.0
 10
47.888243
 20
172.781639
 30
0.0
 10
48.003660
 20
172.859456
 30
0.0
 10
48.144997
 20
172.887991
 30
0.0
 10
48.283953
 20
172.860352
 30
0.0
 10
48.401753
 20
172.781640
 30
0.0
 10
48.480465
 20
172.663839
 30
0.0
 10
48.508104
 20
172.524884
 30
0.0
 10
48.508104
 20
172.524884
 30
0.0
  0
LWPOLYLINE
  5
112
100
AcDbEntity
  8
Layer_1
 62
6
100
AcDbPolyline
 90
18
 70
0
 10
53.597979
 20
172.571722
 30
0.0
 10
53.570340
 20
172.432766
 30
0.0
 10
53.491628
 20
172.314966
 30
0.0
 10
53.373828
 20
172.236254
 30
0.0
 10
53.234872
 20
172.208615
 30
0.0
 10
53.093535
 20
172.237150
 30
0.0
 10
52.978118
 20
172.314967
 30
0.0
 10
52.900302
 20
172.430385
 30
0.0
 10
52.871768
 20
172.571722
 30
0.0
 10
52.900303
 20
172.713058
 30
0.0
 10
52.978119
 20
172.828475
 30
0.0
 10
53.093536
 20
172.906291
 30
0.0
 10
53.234872
 20
172.934826
 30
0.0
 10
53.376209
 20
172.906292
 30
0.0
 10
53.491627
 20
172.828476
 30
0.0
 10
53.569444
 20
172.713059
 30
0.0
 10
53.597979
 20
172.571722
 30
0.0
 10
53.597979
 20
172.571722
 30
0.0
  0
LWPOLYLINE
  5
113
100
AcDbEntity
  8
Layer_1
 62
6
100
AcDbPolyline
 90
18
 70
0
 10
61.504139
 20
180.275135
 30
0.0
 10
61.466134
 20
180.084073
 30
0.0
 10
61.357906
 20
179.922097
 30
0.0
 10
61.195930
 20
179.813869
 30
0.0
 10
61.004868
 20
179.775865
 30
0.0
 10
60.813805
 20
179.813869
 30
0.0
 10
60.651830
 20
179.922097
 30
0.0
 10
60.543601
 20
180.084073
 30
0.0
 10
60.505597
 20
180.275135
 30
0.0
 10
60.543601
 20
180.466198
 30
0.0
 10
60.651830
 20
180.628173
 30
0.0
 10
60.813805
 20
180.736402
 30
0.0
 10
61.004868
 20
180.774406
 30
0.0
 10
61.195930
 20
180.736402
 30
0.0
 10
61.357906
 20
180.628173
 30
0.0
 10
61.466134
 20
180.466198
 30
0.0
 10
61.504139
 20
180.275135
 30
0.0
 10
61.504139
 20
180.275135
 30
0.0
  0
LWPOLYLINE
  5
114
100
AcDbEntity
  8
Layer_1
 62
6
100
AcDbPolyline
 90
18
 70
0
 10
66.484266
 20
180.231967
 30
0.0
 10
66.445030
 20
180.037629
 30
0.0
 10
66.338032
 20
179.878931
 30
0.0
 10
66.179333
 20
179.771933
 30
0.0
 10
65.984995
 20
179.732699
 30
0.0
 10
65.790657
 20
179.771933
 30
0.0
 10
65.631958
 20
179.878931
 30
0.0
 10
65.524960
 20
180.037629
 30
0.0
 10
65.485724
 20
180.231967
 30
0.0
 10
65.523729
 20
180.423029
 30
0.0
 10
65.631957
 20
180.585005
 30
0.0
 10
65.793932
 20
180.693233
 30
0.0
 10
65.984995
 20
180.731238
 30
0.0
 10
66.176058
 20
180.693233
 30
0.0
 10
66.338033
 20
180.585005
 30
0.0
 10
66.446261
 20
180.423029
 30
0.0
 10
66.484266
 20
180.231967
 30
0.0
 10
66.484266
 20
180.231967
 30
0.0
  0
LWPOLYLINE
  5
115
100
AcDbEntity
  8
Layer_1
 62
6
100
AcDbPolyline
 90
18
 70
0
 10
61.437557
 20
172.598428
 30
0.0
 10
61.398322
 20
172.404090
 30
0.0
 10
61.291325
 20
172.245392
 30
0.0
 10
61.132627
 20
172.138393
 30
0.0
 10
60.938289
 20
172.099158
 30
0.0
 10
60.747226
 20
172.137162
 30
0.0
 10
60.585251
 20
172.245391
 30
0.0
 10
60.477022
 20
172.407366
 30
0.0
 10
60.439018
 20
172.598428
 30
0.0
 10
60.477022
 20
172.789491
 30
0.0
 10
60.585251
 20
172.951466
 30
0.0
 10
60.747226
 20
173.059695
 30
0.0
 10
60.938289
 20
173.097699
 30
0.0
 10
61.132627
 20
173.058463
 30
0.0
 10
61.291325
 20
172.951465
 30
0.0
 10
61.398322
 20
172.792767
 30
0.0
 10
61.437557
 20
172.598428
 30
0.0
 10
61.437557
 20
172.598428
 30
0.0
  0
LWPOLYLINE
  5
116
100
AcDbEntity
  8
Layer_1
 62
6
100
AcDbPolyline
 90
18
 70
0
 10
66.527432
 20
172.645266
 30
0.0
 10
66.489427
 20
172.454203
 30
0.0
 10
66.381199
 20
172.292228
 30
0.0
 10
66.219224
 20
172.184000
 30
0.0
 10
66.028161
 20
172.145995
 30
0.0
 10
65.837098
 20
172.184000
 30
0.0
 10
65.675123
 20
172.292228
 30
0.0
 10
65.566895
 20
172.454203
 30
0.0
 10
65.528890
 20
172.645266
 30
0.0
 10
65.568126
 20
172.839604
 30
0.0
 10
65.675124
 20
172.998302
 30
0.0
 10
65.833823
 20
173.105299
 30
0.0
 10
66.028161
 20
173.144534
 30
0.0
 10
66.222499
 20
173.105299
 30
0.0
 10
66.381198
 20
172.998302
 30
0.0
 10
66.488196
 20
172.839604
 30
0.0
 10
66.527432
 20
172.645266
 30
0.0
 10
66.527432
 20
172.645266
 30
0.0
  0
ENDSEC
  0
SECTION
  2
OBJECTS
  0
DICTIONARY
  5
C
330
0
100
AcDbDictionary
  3
ACAD_GROUP
350
D
  3
ACAD_MLINESTYLE
350
17
  0
DICTIONARY
  5
D
330
C
100
AcDbDictionary
  0
DICTIONARY
  5
1A
330
C
100
AcDbDictionary
  0
DICTIONARY
  5
17
330
C
100
AcDbDictionary
  3
STANDARD
350
18
  0
DICTIONARY
  5
19
330
C
100
AcDbDictionary
  0
ENDSEC
  0
EOF
