  0
SECTION
  2
HEADER
  9
$ACADVER
  1
AC1014
  9
$HANDSEED
  5
FFFF
  9
$MEASUREMENT
 70
     1
  0
ENDSEC
  0
SECTION
  2
TABLES
  0
TABLE
  2
VPORT
  5
8
330
0
100
AcDbSymbolTable
 70
     4
  0
VPORT
  5
2E
330
8
100
AcDbSymbolTableRecord
100
AcDbViewportTableRecord
  2
*ACTIVE
 70
     0
 10
0.0
 20
0.0
 11
1.0
 21
1.0
 12
210.0
 22
148.5
 13
0.0
 23
0.0
 14
10.0
 24
10.0
 15
10.0
 25
10.0
 16
0.0
 26
0.0
 36
1.0
 17
0.0
 27
0.0
 37
0.0
 40
341.0
 41
1.24
 42
50.0
 43
0.0
 44
0.0
 50
0.0
 51
0.0
 71
     0
 72
   100
 73
     1
 74
     3
 75
     0
 76
     0
 77
     0
 78
     0
  0
ENDTAB
  0
TABLE
  2
LTYPE
  5
5
330
0
100
AcDbSymbolTable
 70
     1
  0
LTYPE
  5
14
330
5
100
AcDbSymbolTableRecord
100
AcDbLinetypeTableRecord
  2
BYBLOCK
 70
     0
  3

 72
    65
 73
     0
 40
0.0
  0
LTYPE
  5
15
330
5
100
AcDbSymbolTableRecord
100
AcDbLinetypeTableRecord
  2
BYLAYER
 70
     0
  3

 72
    65
 73
     0
 40
0.0
  0
LTYPE
  5
16
330
5
100
AcDbSymbolTableRecord
100
AcDbLinetypeTableRecord
  2
CONTINUOUS
 70
     0
  3
Solid line
 72
    65
 73
     0
 40
0.0
  0
ENDTAB
  0
TABLE
  2
LAYER
  5
2
100
AcDbSymbolTable
 70
2
  0
LAYER
  5
50
100
AcDbSymbolTableRecord
100
AcDbLayerTableRecord
  2
0
 70
0
  6
CONTINUOUS
  0
LAYER
  5
51
100
AcDbSymbolTableRecord
100
AcDbLayerTableRecord
  2
Layer_1
 70
0
  6
CONTINUOUS
  0
ENDTAB
  0
TABLE
  2
STYLE
  5
3
330
0
100
AcDbSymbolTable
 70
     1
  0
STYLE
  5
11
330
3
100
AcDbSymbolTableRecord
100
AcDbTextStyleTableRecord
  2
STANDARD
 70
     0
 40
0.0
 41
1.0
 50
0.0
 71
     0
 42
2.5
  3
txt
  4

  0
ENDTAB
  0
TABLE
  2
VIEW
  5
6
330
0
100
AcDbSymbolTable
 70
     0
  0
ENDTAB
  0
TABLE
  2
UCS
  5
7
330
0
100
AcDbSymbolTable
 70
     0
  0
ENDTAB
  0
TABLE
  2
APPID
  5
9
330
0
100
AcDbSymbolTable
 70
     2
  0
APPID
  5
12
330
9
100
AcDbSymbolTableRecord
100
AcDbRegAppTableRecord
  2
ACAD
 70
     0
  0
ENDTAB
  0
TABLE
  2
DIMSTYLE
  5
A
330
0
100
AcDbSymbolTable
 70
     1
  0
DIMSTYLE
105
27
330
A
100
AcDbSymbolTableRecord
100
AcDbDimStyleTableRecord
  2
ISO-25
 70
     0
  3

  4

  5

  6

  7

 40
1.0
 41
2.5
 42
0.625
 43
3.75
 44
1.25
 45
0.0
 46
0.0
 47
0.0
 48
0.0
140
2.5
141
2.5
142
0.0
143
0.03937007874016
144
1.0
145
0.0
146
1.0
147
0.625
 71
     0
 72
     0
 73
     0
 74
     0
 75
     0
 76
     0
 77
     1
 78
     8
170
     0
171
     3
172
     1
173
     0
174
     0
175
     0
176
     0
177
     0
178
     0
270
     2
271
     2
272
     2
273
     2
274
     3
340
11
275
     0
280
     0
281
     0
282
     0
283
     0
284
     8
285
     0
286
     0
287
     3
288
     0
  0
ENDTAB
  0
TABLE
  2
BLOCK_RECORD
  5
1
330
0
100
AcDbSymbolTable
 70
     1
  0
BLOCK_RECORD
  5
1F
330
1
100
AcDbSymbolTableRecord
100
AcDbBlockTableRecord
  2
*MODEL_SPACE
  0
BLOCK_RECORD
  5
1B
330
1
100
AcDbSymbolTableRecord
100
AcDbBlockTableRecord
  2
*PAPER_SPACE
  0
ENDTAB
  0
ENDSEC
  0
SECTION
  2
BLOCKS
  0
BLOCK
  5
20
330
1F
100
AcDbEntity
  8
0
100
AcDbBlockBegin
  2
*MODEL_SPACE
 70
     0
 10
0.0
 20
0.0
 30
0.0
  3
*MODEL_SPACE
  1

  0
ENDBLK
  5
21
330
1F
100
AcDbEntity
  8
0
100
AcDbBlockEnd
  0
BLOCK
  5
1C
330
1B
100
AcDbEntity
 67
     1
  8
0
100
AcDbBlockBegin
  2
*PAPER_SPACE
  1

  0
ENDBLK
  5
1D
330
1B
100
AcDbEntity
 67
     1
  8
0
100
AcDbBlockEnd
  0
ENDSEC
  0
SECTION
  2
ENTITIES
  0
LWPOLYLINE
  5
100
100
AcDbEntity
  8
Layer_1
 62
7
100
AcDbPolyline
 90
7
 70
0
 10
0.415236
 20
-0.309207
 30
0.0
 10
0.092682
 20
-0.183562
 30
0.0
 10
0.092682
 20
-0.183562
 30
0.0
 10
0.092682
 20
-0.183562
 30
0.0
 10
0.092682
 20
-0.183562
 30
0.0
 10
0.092682
 20
-0.183562
 30
0.0
 10
0.092682
 20
-0.183562
 30
0.0
  0
LWPOLYLINE
  5
101
100
AcDbEntity
  8
Layer_1
 62
7
100
AcDbPolyline
 90
2
 70
0
 10
0.102390
 20
-0.116929
 30
0.0
 10
9.102392
 20
-0.116929
 30
0.0
  0
LWPOLYLINE
  5
102
100
AcDbEntity
  8
Layer_1
 62
7
100
AcDbPolyline
 90
2
 70
0
 10
3.044057
 20
-1.156382
 30
0.0
 10
12.044059
 20
-1.156382
 30
0.0
  0
LWPOLYLINE
  5
103
100
AcDbEntity
  8
Layer_1
 62
7
100
AcDbPolyline
 90
2
 70
0
 10
0.163503
 20
-2.073604
 30
0.0
 10
9.163504
 20
-2.073604
 30
0.0
  0
LWPOLYLINE
  5
104
100
AcDbEntity
  8
Layer_1
 62
7
100
AcDbPolyline
 90
2
 70
0
 10
2.949056
 20
-3.214713
 30
0.0
 10
11.949057
 20
-3.214713
 30
0.0
  0
LWPOLYLINE
  5
105
100
AcDbEntity
  8
Layer_1
 62
7
100
AcDbPolyline
 90
2
 70
0
 10
18.494031
 20
-0.375619
 30
0.0
 10
18.171477
 20
-0.249974
 30
0.0
  0
LWPOLYLINE
  5
106
100
AcDbEntity
  8
Layer_1
 62
7
100
AcDbPolyline
 90
4
 70
0
 10
0.042014
 20
-0.039741
 30
0.0
 10
0.042014
 20
-12.025098
 30
0.0
 10
12.027371
 20
-12.083546
 30
0.0
 10
11.968906
 20
-0.039741
 30
0.0
  0
LWPOLYLINE
  5
107
100
AcDbEntity
  8
Layer_1
 62
7
100
AcDbPolyline
 90
6
 70
0
 10
18.171477
 20
-0.249974
 30
0.0
 10
18.171477
 20
-0.249974
 30
0.0
 10
18.171477
 20
-0.249974
 30
0.0
 10
18.171477
 20
-0.249974
 30
0.0
 10
18.171477
 20
-0.249974
 30
0.0
 10
18.171477
 20
-0.249974
 30
0.0
  0
LWPOLYLINE
  5
108
100
AcDbEntity
  8
Layer_1
 62
7
100
AcDbPolyline
 90
2
 70
0
 10
18.181185
 20
-0.183341
 30
0.0
 10
27.181187
 20
-0.183341
 30
0.0
  0
LWPOLYLINE
  5
109
100
AcDbEntity
  8
Layer_1
 62
7
100
AcDbPolyline
 90
2
 70
0
 10
21.122852
 20
-1.222794
 30
0.0
 10
30.122854
 20
-1.222794
 30
0.0
  0
LWPOLYLINE
  5
10a
100
AcDbEntity
  8
Layer_1
 62
7
100
AcDbPolyline
 90
2
 70
0
 10
18.242297
 20
-2.140016
 30
0.0
 10
27.242299
 20
-2.140016
 30
0.0
  0
LWPOLYLINE
  5
10b
100
AcDbEntity
  8
Layer_1
 62
7
100
AcDbPolyline
 90
2
 70
0
 10
21.027851
 20
-3.281125
 30
0.0
 10
30.027852
 20
-3.281125
 30
0.0
  0
LWPOLYLINE
  5
10c
100
AcDbEntity
  8
Layer_1
 62
7
100
AcDbPolyline
 90
2
 70
0
 10
36.449333
 20
-0.367672
 30
0.0
 10
36.126778
 20
-0.242027
 30
0.0
  0
LWPOLYLINE
  5
10d
100
AcDbEntity
  8
Layer_1
 62
7
100
AcDbPolyline
 90
4
 70
0
 10
18.120809
 20
-0.106154
 30
0.0
 10
18.120809
 20
-12.091511
 30
0.0
 10
30.106166
 20
-12.149959
 30
0.0
 10
30.047701
 20
-0.106154
 30
0.0
  0
LWPOLYLINE
  5
10e
100
AcDbEntity
  8
Layer_1
 62
7
100
AcDbPolyline
 90
6
 70
0
 10
36.126778
 20
-0.242027
 30
0.0
 10
36.126778
 20
-0.242027
 30
0.0
 10
36.126778
 20
-0.242027
 30
0.0
 10
36.126778
 20
-0.242027
 30
0.0
 10
36.126778
 20
-0.242027
 30
0.0
 10
36.126778
 20
-0.242027
 30
0.0
  0
LWPOLYLINE
  5
10f
100
AcDbEntity
  8
Layer_1
 62
7
100
AcDbPolyline
 90
2
 70
0
 10
36.136486
 20
-0.175394
 30
0.0
 10
45.136488
 20
-0.175394
 30
0.0
  0
LWPOLYLINE
  5
110
100
AcDbEntity
  8
Layer_1
 62
7
100
AcDbPolyline
 90
2
 70
0
 10
39.078154
 20
-1.214847
 30
0.0
 10
48.078155
 20
-1.214847
 30
0.0
  0
LWPOLYLINE
  5
111
100
AcDbEntity
  8
Layer_1
 62
7
100
AcDbPolyline
 90
2
 70
0
 10
36.197599
 20
-2.132069
 30
0.0
 10
45.197601
 20
-2.132069
 30
0.0
  0
LWPOLYLINE
  5
112
100
AcDbEntity
  8
Layer_1
 62
7
100
AcDbPolyline
 90
2
 70
0
 10
38.983152
 20
-3.273178
 30
0.0
 10
47.983154
 20
-3.273178
 30
0.0
  0
LWPOLYLINE
  5
113
100
AcDbEntity
  8
Layer_1
 62
7
100
AcDbPolyline
 90
2
 70
0
 10
54.535802
 20
-0.333576
 30
0.0
 10
54.213247
 20
-0.207931
 30
0.0
  0
LWPOLYLINE
  5
114
100
AcDbEntity
  8
Layer_1
 62
7
100
AcDbPolyline
 90
4
 70
0
 10
36.076111
 20
-0.098206
 30
0.0
 10
36.076111
 20
-12.083563
 30
0.0
 10
48.061467
 20
-12.142011
 30
0.0
 10
48.003002
 20
-0.098206
 30
0.0
  0
LWPOLYLINE
  5
115
100
AcDbEntity
  8
Layer_1
 62
7
100
AcDbPolyline
 90
6
 70
0
 10
54.213247
 20
-0.207931
 30
0.0
 10
54.213247
 20
-0.207931
 30
0.0
 10
54.213247
 20
-0.207931
 30
0.0
 10
54.213247
 20
-0.207931
 30
0.0
 10
54.213247
 20
-0.207931
 30
0.0
 10
54.213247
 20
-0.207931
 30
0.0
  0
LWPOLYLINE
  5
116
100
AcDbEntity
  8
Layer_1
 62
7
100
AcDbPolyline
 90
2
 70
0
 10
54.222956
 20
-0.141298
 30
0.0
 10
63.222957
 20
-0.141298
 30
0.0
  0
LWPOLYLINE
  5
117
100
AcDbEntity
  8
Layer_1
 62
7
100
AcDbPolyline
 90
2
 70
0
 10
57.164623
 20
-1.180751
 30
0.0
 10
66.164625
 20
-1.180751
 30
0.0
  0
LWPOLYLINE
  5
118
100
AcDbEntity
  8
Layer_1
 62
7
100
AcDbPolyline
 90
2
 70
0
 10
54.284068
 20
-2.097973
 30
0.0
 10
63.284070
 20
-2.097973
 30
0.0
  0
LWPOLYLINE
  5
119
100
AcDbEntity
  8
Layer_1
 62
7
100
AcDbPolyline
 90
2
 70
0
 10
57.069621
 20
-3.239082
 30
0.0
 10
66.069623
 20
-3.239082
 30
0.0
  0
LWPOLYLINE
  5
11a
100
AcDbEntity
  8
Layer_1
 62
7
100
AcDbPolyline
 90
2
 70
0
 10
72.452967
 20
-0.299480
 30
0.0
 10
72.130412
 20
-0.173835
 30
0.0
  0
LWPOLYLINE
  5
11b
100
AcDbEntity
  8
Layer_1
 62
7
100
AcDbPolyline
 90
4
 70
0
 10
54.162580
 20
-0.064110
 30
0.0
 10
54.162580
 20
-12.049467
 30
0.0
 10
66.147937
 20
-12.107915
 30
0.0
 10
66.089472
 20
-0.064110
 30
0.0
  0
LWPOLYLINE
  5
11c
100
AcDbEntity
  8
Layer_1
 62
7
100
AcDbPolyline
 90
6
 70
0
 10
72.130412
 20
-0.173835
 30
0.0
 10
72.130412
 20
-0.173835
 30
0.0
 10
72.130412
 20
-0.173835
 30
0.0
 10
72.130412
 20
-0.173835
 30
0.0
 10
72.130412
 20
-0.173835
 30
0.0
 10
72.130412
 20
-0.173835
 30
0.0
  0
LWPOLYLINE
  5
11d
100
AcDbEntity
  8
Layer_1
 62
7
100
AcDbPolyline
 90
2
 70
0
 10
72.140120
 20
-0.107202
 30
0.0
 10
81.140122
 20
-0.107202
 30
0.0
  0
LWPOLYLINE
  5
11e
100
AcDbEntity
  8
Layer_1
 62
7
100
AcDbPolyline
 90
2
 70
0
 10
75.081788
 20
-1.146655
 30
0.0
 10
84.081789
 20
-1.146655
 30
0.0
  0
LWPOLYLINE
  5
11f
100
AcDbEntity
  8
Layer_1
 62
7
100
AcDbPolyline
 90
2
 70
0
 10
72.201233
 20
-2.063877
 30
0.0
 10
81.201235
 20
-2.063877
 30
0.0
  0
LWPOLYLINE
  5
120
100
AcDbEntity
  8
Layer_1
 62
7
100
AcDbPolyline
 90
2
 70
0
 10
74.986786
 20
-3.204986
 30
0.0
 10
83.986788
 20
-3.204986
 30
0.0
  0
LWPOLYLINE
  5
121
100
AcDbEntity
  8
Layer_1
 62
7
100
AcDbPolyline
 90
2
 70
0
 10
90.440784
 20
-0.281203
 30
0.0
 10
90.118229
 20
-0.155558
 30
0.0
  0
LWPOLYLINE
  5
122
100
AcDbEntity
  8
Layer_1
 62
7
100
AcDbPolyline
 90
4
 70
0
 10
72.079745
 20
-0.030014
 30
0.0
 10
72.079745
 20
-12.015371
 30
0.0
 10
84.065102
 20
-12.073819
 30
0.0
 10
84.006636
 20
-0.030014
 30
0.0
  0
LWPOLYLINE
  5
123
100
AcDbEntity
  8
Layer_1
 62
7
100
AcDbPolyline
 90
6
 70
0
 10
90.118229
 20
-0.155558
 30
0.0
 10
90.118229
 20
-0.155558
 30
0.0
 10
90.118229
 20
-0.155558
 30
0.0
 10
90.118229
 20
-0.155558
 30
0.0
 10
90.118229
 20
-0.155558
 30
0.0
 10
90.118229
 20
-0.155558
 30
0.0
  0
LWPOLYLINE
  5
124
100
AcDbEntity
  8
Layer_1
 62
7
100
AcDbPolyline
 90
2
 70
0
 10
90.127938
 20
-0.088925
 30
0.0
 10
99.127939
 20
-0.088925
 30
0.0
  0
LWPOLYLINE
  5
125
100
AcDbEntity
  8
Layer_1
 62
7
100
AcDbPolyline
 90
2
 70
0
 10
93.069605
 20
-1.128378
 30
0.0
 10
102.069606
 20
-1.128378
 30
0.0
  0
LWPOLYLINE
  5
126
100
AcDbEntity
  8
Layer_1
 62
7
100
AcDbPolyline
 90
2
 70
0
 10
90.189050
 20
-2.045600
 30
0.0
 10
99.189052
 20
-2.045600
 30
0.0
  0
LWPOLYLINE
  5
127
100
AcDbEntity
  8
Layer_1
 62
7
100
AcDbPolyline
 90
2
 70
0
 10
92.974603
 20
-3.186709
 30
0.0
 10
101.974605
 20
-3.186709
 30
0.0
  0
LWPOLYLINE
  5
128
100
AcDbEntity
  8
Layer_1
 62
7
100
AcDbPolyline
 90
2
 70
0
 10
108.323854
 20
-0.275111
 30
0.0
 10
108.001300
 20
-0.149465
 30
0.0
  0
LWPOLYLINE
  5
129
100
AcDbEntity
  8
Layer_1
 62
7
100
AcDbPolyline
 90
4
 70
0
 10
90.067562
 20
-0.011737
 30
0.0
 10
90.067562
 20
-11.997094
 30
0.0
 10
102.052919
 20
-12.055542
 30
0.0
 10
101.994454
 20
-0.011737
 30
0.0
  0
LWPOLYLINE
  5
12a
100
AcDbEntity
  8
Layer_1
 62
7
100
AcDbPolyline
 90
6
 70
0
 10
108.001300
 20
-0.149465
 30
0.0
 10
108.001300
 20
-0.149465
 30
0.0
 10
108.001300
 20
-0.149465
 30
0.0
 10
108.001300
 20
-0.149465
 30
0.0
 10
108.001300
 20
-0.149465
 30
0.0
 10
108.001300
 20
-0.149465
 30
0.0
  0
LWPOLYLINE
  5
12b
100
AcDbEntity
  8
Layer_1
 62
7
100
AcDbPolyline
 90
2
 70
0
 10
108.011008
 20
-0.082833
 30
0.0
 10
117.011010
 20
-0.082833
 30
0.0
  0
LWPOLYLINE
  5
12c
100
AcDbEntity
  8
Layer_1
 62
7
100
AcDbPolyline
 90
2
 70
0
 10
110.952675
 20
-1.122285
 30
0.0
 10
119.952677
 20
-1.122285
 30
0.0
  0
LWPOLYLINE
  5
12d
100
AcDbEntity
  8
Layer_1
 62
7
100
AcDbPolyline
 90
2
 70
0
 10
108.072120
 20
-2.039508
 30
0.0
 10
117.072122
 20
-2.039508
 30
0.0
  0
LWPOLYLINE
  5
12e
100
AcDbEntity
  8
Layer_1
 62
7
100
AcDbPolyline
 90
2
 70
0
 10
110.857673
 20
-3.180617
 30
0.0
 10
119.857675
 20
-3.180617
 30
0.0
  0
LWPOLYLINE
  5
12f
100
AcDbEntity
  8
Layer_1
 62
7
100
AcDbPolyline
 90
2
 70
0
 10
126.452969
 20
-0.351853
 30
0.0
 10
126.130414
 20
-0.226207
 30
0.0
  0
LWPOLYLINE
  5
130
100
AcDbEntity
  8
Layer_1
 62
7
100
AcDbPolyline
 90
4
 70
0
 10
107.950632
 20
-0.005645
 30
0.0
 10
107.950632
 20
-11.991002
 30
0.0
 10
119.935989
 20
-12.049450
 30
0.0
 10
119.877524
 20
-0.005645
 30
0.0
  0
LWPOLYLINE
  5
131
100
AcDbEntity
  8
Layer_1
 62
7
100
AcDbPolyline
 90
6
 70
0
 10
126.130414
 20
-0.226207
 30
0.0
 10
126.130414
 20
-0.226207
 30
0.0
 10
126.130414
 20
-0.226207
 30
0.0
 10
126.130414
 20
-0.226207
 30
0.0
 10
126.130414
 20
-0.226207
 30
0.0
 10
126.130414
 20
-0.226207
 30
0.0
  0
LWPOLYLINE
  5
132
100
AcDbEntity
  8
Layer_1
 62
7
100
AcDbPolyline
 90
2
 70
0
 10
126.140123
 20
-0.159575
 30
0.0
 10
135.140124
 20
-0.159575
 30
0.0
  0
LWPOLYLINE
  5
133
100
AcDbEntity
  8
Layer_1
 62
7
100
AcDbPolyline
 90
2
 70
0
 10
129.081790
 20
-1.199027
 30
0.0
 10
138.081791
 20
-1.199027
 30
0.0
  0
LWPOLYLINE
  5
134
100
AcDbEntity
  8
Layer_1
 62
7
100
AcDbPolyline
 90
2
 70
0
 10
126.201235
 20
-2.116250
 30
0.0
 10
135.201237
 20
-2.116250
 30
0.0
  0
LWPOLYLINE
  5
135
100
AcDbEntity
  8
Layer_1
 62
7
100
AcDbPolyline
 90
2
 70
0
 10
128.986788
 20
-3.257359
 30
0.0
 10
137.986790
 20
-3.257359
 30
0.0
  0
LWPOLYLINE
  5
136
100
AcDbEntity
  8
Layer_1
 62
7
100
AcDbPolyline
 90
2
 70
0
 10
144.446876
 20
-0.339668
 30
0.0
 10
144.124322
 20
-0.214023
 30
0.0
  0
LWPOLYLINE
  5
137
100
AcDbEntity
  8
Layer_1
 62
7
100
AcDbPolyline
 90
4
 70
0
 10
126.079747
 20
-0.082387
 30
0.0
 10
126.079747
 20
-12.067744
 30
0.0
 10
138.065104
 20
-12.126192
 30
0.0
 10
138.006638
 20
-0.082387
 30
0.0
  0
LWPOLYLINE
  5
138
100
AcDbEntity
  8
Layer_1
 62
7
100
AcDbPolyline
 90
6
 70
0
 10
144.124322
 20
-0.214023
 30
0.0
 10
144.124322
 20
-0.214023
 30
0.0
 10
144.124322
 20
-0.214023
 30
0.0
 10
144.124322
 20
-0.214023
 30
0.0
 10
144.124322
 20
-0.214023
 30
0.0
 10
144.124322
 20
-0.214023
 30
0.0
  0
LWPOLYLINE
  5
139
100
AcDbEntity
  8
Layer_1
 62
7
100
AcDbPolyline
 90
2
 70
0
 10
144.134030
 20
-0.147390
 30
0.0
 10
153.134032
 20
-0.147390
 30
0.0
  0
LWPOLYLINE
  5
13a
100
AcDbEntity
  8
Layer_1
 62
7
100
AcDbPolyline
 90
2
 70
0
 10
147.075697
 20
-1.186843
 30
0.0
 10
156.075699
 20
-1.186843
 30
0.0
  0
LWPOLYLINE
  5
13b
100
AcDbEntity
  8
Layer_1
 62
7
100
AcDbPolyline
 90
2
 70
0
 10
144.195142
 20
-2.104065
 30
0.0
 10
153.195144
 20
-2.104065
 30
0.0
  0
LWPOLYLINE
  5
13c
100
AcDbEntity
  8
Layer_1
 62
7
100
AcDbPolyline
 90
2
 70
0
 10
146.980696
 20
-3.245174
 30
0.0
 10
155.980697
 20
-3.245174
 30
0.0
  0
LWPOLYLINE
  5
13d
100
AcDbEntity
  8
Layer_1
 62
7
100
AcDbPolyline
 90
2
 70
0
 10
162.515307
 20
-0.336521
 30
0.0
 10
162.192753
 20
-0.210876
 30
0.0
  0
LWPOLYLINE
  5
13e
100
AcDbEntity
  8
Layer_1
 62
7
100
AcDbPolyline
 90
4
 70
0
 10
144.073654
 20
-0.070202
 30
0.0
 10
144.073654
 20
-12.055559
 30
0.0
 10
156.059011
 20
-12.114008
 30
0.0
 10
156.000546
 20
-0.070202
 30
0.0
  0
LWPOLYLINE
  5
13f
100
AcDbEntity
  8
Layer_1
 62
7
100
AcDbPolyline
 90
6
 70
0
 10
162.192753
 20
-0.210876
 30
0.0
 10
162.192753
 20
-0.210876
 30
0.0
 10
162.192753
 20
-0.210876
 30
0.0
 10
162.192753
 20
-0.210876
 30
0.0
 10
162.192753
 20
-0.210876
 30
0.0
 10
162.192753
 20
-0.210876
 30
0.0
  0
LWPOLYLINE
  5
140
100
AcDbEntity
  8
Layer_1
 62
7
100
AcDbPolyline
 90
2
 70
0
 10
162.202461
 20
-0.144243
 30
0.0
 10
171.202463
 20
-0.144243
 30
0.0
  0
LWPOLYLINE
  5
141
100
AcDbEntity
  8
Layer_1
 62
7
100
AcDbPolyline
 90
2
 70
0
 10
165.144128
 20
-1.183696
 30
0.0
 10
174.144130
 20
-1.183696
 30
0.0
  0
LWPOLYLINE
  5
142
100
AcDbEntity
  8
Layer_1
 62
7
100
AcDbPolyline
 90
2
 70
0
 10
162.263574
 20
-2.100918
 30
0.0
 10
171.263575
 20
-2.100918
 30
0.0
  0
LWPOLYLINE
  5
143
100
AcDbEntity
  8
Layer_1
 62
7
100
AcDbPolyline
 90
2
 70
0
 10
165.049127
 20
-3.242027
 30
0.0
 10
174.049128
 20
-3.242027
 30
0.0
  0
LWPOLYLINE
  5
144
100
AcDbEntity
  8
Layer_1
 62
7
100
AcDbPolyline
 90
2
 70
0
 10
180.476677
 20
-0.410830
 30
0.0
 10
180.154123
 20
-0.285184
 30
0.0
  0
LWPOLYLINE
  5
145
100
AcDbEntity
  8
Layer_1
 62
7
100
AcDbPolyline
 90
4
 70
0
 10
162.142085
 20
-0.067056
 30
0.0
 10
162.142085
 20
-12.052413
 30
0.0
 10
174.127442
 20
-12.110861
 30
0.0
 10
174.068977
 20
-0.067056
 30
0.0
  0
LWPOLYLINE
  5
146
100
AcDbEntity
  8
Layer_1
 62
7
100
AcDbPolyline
 90
6
 70
0
 10
180.154123
 20
-0.285184
 30
0.0
 10
180.154123
 20
-0.285184
 30
0.0
 10
180.154123
 20
-0.285184
 30
0.0
 10
180.154123
 20
-0.285184
 30
0.0
 10
180.154123
 20
-0.285184
 30
0.0
 10
180.154123
 20
-0.285184
 30
0.0
  0
LWPOLYLINE
  5
147
100
AcDbEntity
  8
Layer_1
 62
7
100
AcDbPolyline
 90
2
 70
0
 10
180.163831
 20
-0.218552
 30
0.0
 10
189.163833
 20
-0.218552
 30
0.0
  0
LWPOLYLINE
  5
148
100
AcDbEntity
  8
Layer_1
 62
7
100
AcDbPolyline
 90
2
 70
0
 10
183.105498
 20
-1.258004
 30
0.0
 10
192.105500
 20
-1.258004
 30
0.0
  0
LWPOLYLINE
  5
149
100
AcDbEntity
  8
Layer_1
 62
7
100
AcDbPolyline
 90
2
 70
0
 10
180.224944
 20
-2.175227
 30
0.0
 10
189.224945
 20
-2.175227
 30
0.0
  0
LWPOLYLINE
  5
14a
100
AcDbEntity
  8
Layer_1
 62
7
100
AcDbPolyline
 90
2
 70
0
 10
183.010497
 20
-3.316336
 30
0.0
 10
192.010498
 20
-3.316336
 30
0.0
  0
LWPOLYLINE
  5
14b
100
AcDbEntity
  8
Layer_1
 62
7
100
AcDbPolyline
 90
2
 70
0
 10
216.454756
 20
-0.274300
 30
0.0
 10
216.132201
 20
-0.148654
 30
0.0
  0
LWPOLYLINE
  5
14c
100
AcDbEntity
  8
Layer_1
 62
7
100
AcDbPolyline
 90
4
 70
0
 10
180.103455
 20
-0.141364
 30
0.0
 10
180.103455
 20
-12.126721
 30
0.0
 10
192.088812
 20
-12.185169
 30
0.0
 10
192.030347
 20
-0.141364
 30
0.0
  0
LWPOLYLINE
  5
14d
100
AcDbEntity
  8
Layer_1
 62
7
100
AcDbPolyline
 90
6
 70
0
 10
216.132201
 20
-0.148654
 30
0.0
 10
216.132201
 20
-0.148654
 30
0.0
 10
216.132201
 20
-0.148654
 30
0.0
 10
216.132201
 20
-0.148654
 30
0.0
 10
216.132201
 20
-0.148654
 30
0.0
 10
216.132201
 20
-0.148654
 30
0.0
  0
LWPOLYLINE
  5
14e
100
AcDbEntity
  8
Layer_1
 62
7
100
AcDbPolyline
 90
2
 70
0
 10
216.141910
 20
-0.082022
 30
0.0
 10
225.141911
 20
-0.082022
 30
0.0
  0
LWPOLYLINE
  5
14f
100
AcDbEntity
  8
Layer_1
 62
7
100
AcDbPolyline
 90
2
 70
0
 10
219.083577
 20
-1.121474
 30
0.0
 10
228.083578
 20
-1.121474
 30
0.0
  0
LWPOLYLINE
  5
150
100
AcDbEntity
  8
Layer_1
 62
7
100
AcDbPolyline
 90
2
 70
0
 10
216.203022
 20
-2.038696
 30
0.0
 10
225.203024
 20
-2.038696
 30
0.0
  0
LWPOLYLINE
  5
151
100
AcDbEntity
  8
Layer_1
 62
7
100
AcDbPolyline
 90
2
 70
0
 10
218.988575
 20
-3.179806
 30
0.0
 10
227.988577
 20
-3.179806
 30
0.0
  0
LWPOLYLINE
  5
152
100
AcDbEntity
  8
Layer_1
 62
7
100
AcDbPolyline
 90
2
 70
0
 10
198.514744
 20
-0.397898
 30
0.0
 10
198.192190
 20
-0.272253
 30
0.0
  0
LWPOLYLINE
  5
153
100
AcDbEntity
  8
Layer_1
 62
7
100
AcDbPolyline
 90
4
 70
0
 10
216.081534
 20
-0.004834
 30
0.0
 10
216.081534
 20
-11.990191
 30
0.0
 10
228.066891
 20
-12.048639
 30
0.0
 10
228.008426
 20
-0.004834
 30
0.0
  0
LWPOLYLINE
  5
154
100
AcDbEntity
  8
Layer_1
 62
7
100
AcDbPolyline
 90
6
 70
0
 10
198.192190
 20
-0.272253
 30
0.0
 10
198.192190
 20
-0.272253
 30
0.0
 10
198.192190
 20
-0.272253
 30
0.0
 10
198.192190
 20
-0.272253
 30
0.0
 10
198.192190
 20
-0.272253
 30
0.0
 10
198.192190
 20
-0.272253
 30
0.0
  0
LWPOLYLINE
  5
155
100
AcDbEntity
  8
Layer_1
 62
7
100
AcDbPolyline
 90
2
 70
0
 10
198.201898
 20
-0.205620
 30
0.0
 10
207.201900
 20
-0.205620
 30
0.0
  0
LWPOLYLINE
  5
156
100
AcDbEntity
  8
Layer_1
 62
7
100
AcDbPolyline
 90
2
 70
0
 10
201.143565
 20
-1.245073
 30
0.0
 10
210.143567
 20
-1.245073
 30
0.0
  0
LWPOLYLINE
  5
157
100
AcDbEntity
  8
Layer_1
 62
7
100
AcDbPolyline
 90
2
 70
0
 10
198.263010
 20
-2.162295
 30
0.0
 10
207.263012
 20
-2.162295
 30
0.0
  0
LWPOLYLINE
  5
158
100
AcDbEntity
  8
Layer_1
 62
7
100
AcDbPolyline
 90
2
 70
0
 10
201.048564
 20
-3.303404
 30
0.0
 10
210.048565
 20
-3.303404
 30
0.0
  0
SPLINE
  5
159
100
AcDbEntity
  8
Layer_1
 62
7
100
AcDbSpline
 70
8
 71
3
 72
8
 73
4
 74
0
 40
0
 40
0
 40
0
 40
0
 40
1
 40
1
 40
1
 40
1
 10
233.312897
 20
-0.400030
 30
0.0
 10
233.222828
 20
-0.370423
 30
0.0
 10
233.135805
 20
-0.327554
 30
0.0
 10
233.052472
 20
-0.274138
 30
0.0
  0
LWPOLYLINE
  5
15a
100
AcDbEntity
  8
Layer_1
 62
7
100
AcDbPolyline
 90
4
 70
0
 10
198.141522
 20
-0.128433
 30
0.0
 10
198.141522
 20
-12.113789
 30
0.0
 10
210.126879
 20
-12.172238
 30
0.0
 10
210.068414
 20
-0.128433
 30
0.0
  0
LWPOLYLINE
  5
15b
100
AcDbEntity
  8
Layer_1
 62
7
100
AcDbPolyline
 90
6
 70
1
 10
233.052472
 20
-0.274138
 30
0.0
 10
233.052472
 20
-0.274138
 30
0.0
 10
233.052472
 20
-0.274138
 30
0.0
 10
233.052472
 20
-0.274138
 30
0.0
 10
233.052472
 20
-0.274138
 30
0.0
 10
233.052472
 20
-0.274138
 30
0.0
  0
LWPOLYLINE
  5
15c
100
AcDbEntity
  8
Layer_1
 62
7
100
AcDbPolyline
 90
2
 70
0
 10
233.060310
 20
-0.207375
 30
0.0
 10
240.326778
 20
-0.207375
 30
0.0
  0
LWPOLYLINE
  5
15d
100
AcDbEntity
  8
Layer_1
 62
7
100
AcDbPolyline
 90
2
 70
0
 10
235.435369
 20
-1.248864
 30
0.0
 10
242.701837
 20
-1.248864
 30
0.0
  0
LWPOLYLINE
  5
15e
100
AcDbEntity
  8
Layer_1
 62
7
100
AcDbPolyline
 90
2
 70
0
 10
233.109651
 20
-2.167883
 30
0.0
 10
240.376119
 20
-2.167883
 30
0.0
  0
LWPOLYLINE
  5
15f
100
AcDbEntity
  8
Layer_1
 62
7
100
AcDbPolyline
 90
2
 70
0
 10
235.358666
 20
-3.311227
 30
0.0
 10
242.625134
 20
-3.311227
 30
0.0
  0
LWPOLYLINE
  5
160
100
AcDbEntity
  8
Layer_1
 62
7
100
AcDbPolyline
 90
4
 70
0
 10
233.011564
 20
-0.130036
 30
0.0
 10
233.011564
 20
-12.138871
 30
0.0
 10
242.688363
 20
-12.197434
 30
0.0
 10
242.641159
 20
-0.130036
 30
0.0
  0
LWPOLYLINE
  5
161
100
AcDbEntity
  8
Layer_1
 62
7
100
AcDbPolyline
 90
4
 70
0
 10
18.558840
 20
8.322819
 30
0.0
 10
18.968062
 20
8.372208
 30
0.0
 10
19.327895
 20
8.456875
 30
0.0
 10
19.426673
 20
8.732042
 30
0.0
  0
LWPOLYLINE
  5
162
100
AcDbEntity
  8
Layer_1
 62
7
100
AcDbPolyline
 90
6
 70
0
 10
20.837784
 20
8.322819
 30
0.0
 10
20.668451
 20
8.132319
 30
0.0
 10
18.354229
 20
8.132319
 30
0.0
 10
18.558840
 20
8.322819
 30
0.0
 10
20.837784
 20
8.322819
 30
0.0
 10
20.837784
 20
8.322819
 30
0.0
  0
LWPOLYLINE
  5
163
100
AcDbEntity
  8
Layer_1
 62
7
100
AcDbPolyline
 90
2
 70
0
 10
20.096951
 20
11.617764
 30
0.0
 10
19.306729
 20
11.321430
 30
0.0
  0
LWPOLYLINE
  5
164
100
AcDbEntity
  8
Layer_1
 62
7
100
AcDbPolyline
 90
4
 70
0
 10
19.426673
 20
8.732042
 30
0.0
 10
20.096951
 20
11.617764
 30
0.0
 10
19.426673
 20
8.732042
 30
0.0
 10
19.426673
 20
8.732042
 30
0.0
  0
LWPOLYLINE
  5
165
100
AcDbEntity
  8
Layer_1
 62
7
100
AcDbPolyline
 90
3
 70
0
 10
19.095062
 20
11.427264
 30
0.0
 10
20.753118
 20
12.238653
 30
0.0
 10
20.047562
 20
9.204764
 30
0.0
  0
LWPOLYLINE
  5
166
100
AcDbEntity
  8
Layer_1
 62
7
100
AcDbPolyline
 90
4
 70
0
 10
19.306729
 20
11.321430
 30
0.0
 10
19.095062
 20
11.427264
 30
0.0
 10
19.306729
 20
11.321430
 30
0.0
 10
19.306729
 20
11.321430
 30
0.0
  0
LWPOLYLINE
  5
167
100
AcDbEntity
  8
Layer_1
 62
7
100
AcDbPolyline
 90
6
 70
0
 10
19.927618
 20
8.619153
 30
0.0
 10
19.927618
 20
8.612097
 30
0.0
 10
19.973479
 20
8.481569
 30
0.0
 10
20.111062
 20
8.400430
 30
0.0
 10
20.416215
 20
8.342222
 30
0.0
 10
20.837784
 20
8.322819
 30
0.0
  0
LWPOLYLINE
  5
168
100
AcDbEntity
  8
Layer_1
 62
7
100
AcDbPolyline
 90
4
 70
0
 10
20.047562
 20
9.204764
 30
0.0
 10
19.927618
 20
8.619153
 30
0.0
 10
20.047562
 20
9.204764
 30
0.0
 10
20.047562
 20
9.204764
 30
0.0
  0
LWPOLYLINE
  5
169
100
AcDbEntity
  8
Layer_1
 62
7
100
AcDbPolyline
 90
4
 70
0
 10
20.837784
 20
8.322819
 30
0.0
 10
20.837784
 20
8.322819
 30
0.0
 10
20.837784
 20
8.322819
 30
0.0
 10
20.837784
 20
8.322819
 30
0.0
  0
SPLINE
  5
16a
100
AcDbEntity
  8
Layer_1
 62
7
100
AcDbSpline
 70
8
 71
3
 72
8
 73
4
 74
0
 40
0
 40
0
 40
0
 40
0
 40
1
 40
1
 40
1
 40
1
 10
4.608730
 20
-18.154572
 30
0.0
 10
4.479698
 20
-18.125066
 30
0.0
 10
4.355030
 20
-18.082343
 30
0.0
 10
4.235648
 20
-18.029109
 30
0.0
  0
LWPOLYLINE
  5
16b
100
AcDbEntity
  8
Layer_1
 62
7
100
AcDbPolyline
 90
2
 70
0
 10
24.519094
 20
-18.212560
 30
0.0
 10
24.196539
 20
-18.086914
 30
0.0
  0
LWPOLYLINE
  5
16c
100
AcDbEntity
  8
Layer_1
 62
7
100
AcDbPolyline
 90
6
 70
1
 10
4.235648
 20
-18.029109
 30
0.0
 10
4.235648
 20
-18.029109
 30
0.0
 10
4.235648
 20
-18.029109
 30
0.0
 10
4.235648
 20
-18.029109
 30
0.0
 10
4.235648
 20
-18.029109
 30
0.0
 10
4.235648
 20
-18.029109
 30
0.0
  0
LWPOLYLINE
  5
16d
100
AcDbEntity
  8
Layer_1
 62
7
100
AcDbPolyline
 90
2
 70
0
 10
4.246878
 20
-17.962573
 30
0.0
 10
14.656709
 20
-17.962573
 30
0.0
  0
LWPOLYLINE
  5
16e
100
AcDbEntity
  8
Layer_1
 62
7
100
AcDbPolyline
 90
2
 70
0
 10
7.649350
 20
-19.000515
 30
0.0
 10
18.059181
 20
-19.000515
 30
0.0
  0
LWPOLYLINE
  5
16f
100
AcDbEntity
  8
Layer_1
 62
7
100
AcDbPolyline
 90
2
 70
0
 10
4.317562
 20
-19.916405
 30
0.0
 10
14.727395
 20
-19.916405
 30
0.0
  0
LWPOLYLINE
  5
170
100
AcDbEntity
  8
Layer_1
 62
7
100
AcDbPolyline
 90
2
 70
0
 10
7.539466
 20
-21.055855
 30
0.0
 10
17.949299
 20
-21.055855
 30
0.0
  0
LWPOLYLINE
  5
171
100
AcDbEntity
  8
Layer_1
 62
7
100
AcDbPolyline
 90
4
 70
0
 10
4.177637
 20
-17.885470
 30
0.0
 10
4.177637
 20
-29.853436
 30
0.0
 10
18.039299
 20
-29.911771
 30
0.0
 10
17.971680
 20
-17.885470
 30
0.0
  0
LWPOLYLINE
  5
172
100
AcDbEntity
  8
Layer_1
 62
7
100
AcDbPolyline
 90
6
 70
0
 10
24.196539
 20
-18.086914
 30
0.0
 10
24.196539
 20
-18.086914
 30
0.0
 10
24.196539
 20
-18.086914
 30
0.0
 10
24.196539
 20
-18.086914
 30
0.0
 10
24.196539
 20
-18.086914
 30
0.0
 10
24.196539
 20
-18.086914
 30
0.0
  0
LWPOLYLINE
  5
173
100
AcDbEntity
  8
Layer_1
 62
7
100
AcDbPolyline
 90
2
 70
0
 10
24.206247
 20
-18.020282
 30
0.0
 10
33.206249
 20
-18.020282
 30
0.0
  0
LWPOLYLINE
  5
174
100
AcDbEntity
  8
Layer_1
 62
7
100
AcDbPolyline
 90
2
 70
0
 10
27.147915
 20
-19.059734
 30
0.0
 10
36.147916
 20
-19.059734
 30
0.0
  0
LWPOLYLINE
  5
175
100
AcDbEntity
  8
Layer_1
 62
7
100
AcDbPolyline
 90
2
 70
0
 10
24.267360
 20
-19.976957
 30
0.0
 10
33.267362
 20
-19.976957
 30
0.0
  0
LWPOLYLINE
  5
176
100
AcDbEntity
  8
Layer_1
 62
7
100
AcDbPolyline
 90
2
 70
0
 10
27.052913
 20
-21.118066
 30
0.0
 10
36.052915
 20
-21.118066
 30
0.0
  0
LWPOLYLINE
  5
177
100
AcDbEntity
  8
Layer_1
 62
7
100
AcDbPolyline
 90
2
 70
0
 10
42.474395
 20
-18.204612
 30
0.0
 10
42.151840
 20
-18.078967
 30
0.0
  0
LWPOLYLINE
  5
178
100
AcDbEntity
  8
Layer_1
 62
7
100
AcDbPolyline
 90
4
 70
0
 10
24.145872
 20
-17.943094
 30
0.0
 10
24.145872
 20
-29.928451
 30
0.0
 10
36.131229
 20
-29.986899
 30
0.0
 10
36.072763
 20
-17.943094
 30
0.0
  0
LWPOLYLINE
  5
179
100
AcDbEntity
  8
Layer_1
 62
7
100
AcDbPolyline
 90
6
 70
0
 10
42.151840
 20
-18.078967
 30
0.0
 10
42.151840
 20
-18.078967
 30
0.0
 10
42.151840
 20
-18.078967
 30
0.0
 10
42.151840
 20
-18.078967
 30
0.0
 10
42.151840
 20
-18.078967
 30
0.0
 10
42.151840
 20
-18.078967
 30
0.0
  0
LWPOLYLINE
  5
17a
100
AcDbEntity
  8
Layer_1
 62
7
100
AcDbPolyline
 90
2
 70
0
 10
42.161549
 20
-18.012334
 30
0.0
 10
51.161550
 20
-18.012334
 30
0.0
  0
LWPOLYLINE
  5
17b
100
AcDbEntity
  8
Layer_1
 62
7
100
AcDbPolyline
 90
2
 70
0
 10
45.103216
 20
-19.051787
 30
0.0
 10
54.103218
 20
-19.051787
 30
0.0
  0
LWPOLYLINE
  5
17c
100
AcDbEntity
  8
Layer_1
 62
7
100
AcDbPolyline
 90
2
 70
0
 10
42.222661
 20
-19.969009
 30
0.0
 10
51.222663
 20
-19.969009
 30
0.0
  0
LWPOLYLINE
  5
17d
100
AcDbEntity
  8
Layer_1
 62
7
100
AcDbPolyline
 90
2
 70
0
 10
45.008214
 20
-21.110118
 30
0.0
 10
54.008216
 20
-21.110118
 30
0.0
  0
LWPOLYLINE
  5
17e
100
AcDbEntity
  8
Layer_1
 62
7
100
AcDbPolyline
 90
2
 70
0
 10
60.560864
 20
-18.170516
 30
0.0
 10
60.238310
 20
-18.044871
 30
0.0
  0
LWPOLYLINE
  5
17f
100
AcDbEntity
  8
Layer_1
 62
7
100
AcDbPolyline
 90
4
 70
0
 10
42.101173
 20
-17.935147
 30
0.0
 10
42.101173
 20
-29.920504
 30
0.0
 10
54.086530
 20
-29.978952
 30
0.0
 10
54.028065
 20
-17.935147
 30
0.0
  0
LWPOLYLINE
  5
180
100
AcDbEntity
  8
Layer_1
 62
7
100
AcDbPolyline
 90
6
 70
0
 10
60.238310
 20
-18.044871
 30
0.0
 10
60.238310
 20
-18.044871
 30
0.0
 10
60.238310
 20
-18.044871
 30
0.0
 10
60.238310
 20
-18.044871
 30
0.0
 10
60.238310
 20
-18.044871
 30
0.0
 10
60.238310
 20
-18.044871
 30
0.0
  0
LWPOLYLINE
  5
181
100
AcDbEntity
  8
Layer_1
 62
7
100
AcDbPolyline
 90
2
 70
0
 10
60.248018
 20
-17.978238
 30
0.0
 10
69.248020
 20
-17.978238
 30
0.0
  0
LWPOLYLINE
  5
182
100
AcDbEntity
  8
Layer_1
 62
7
100
AcDbPolyline
 90
2
 70
0
 10
63.189685
 20
-19.017691
 30
0.0
 10
72.189687
 20
-19.017691
 30
0.0
  0
LWPOLYLINE
  5
183
100
AcDbEntity
  8
Layer_1
 62
7
100
AcDbPolyline
 90
2
 70
0
 10
60.309130
 20
-19.934913
 30
0.0
 10
69.309132
 20
-19.934913
 30
0.0
  0
LWPOLYLINE
  5
184
100
AcDbEntity
  8
Layer_1
 62
7
100
AcDbPolyline
 90
2
 70
0
 10
63.094683
 20
-21.076022
 30
0.0
 10
72.094685
 20
-21.076022
 30
0.0
  0
LWPOLYLINE
  5
185
100
AcDbEntity
  8
Layer_1
 62
7
100
AcDbPolyline
 90
2
 70
0
 10
78.478029
 20
-18.136420
 30
0.0
 10
78.155474
 20
-18.010775
 30
0.0
  0
LWPOLYLINE
  5
186
100
AcDbEntity
  8
Layer_1
 62
7
100
AcDbPolyline
 90
4
 70
0
 10
60.187642
 20
-17.901050
 30
0.0
 10
60.187642
 20
-29.886407
 30
0.0
 10
72.172999
 20
-29.944856
 30
0.0
 10
72.114534
 20
-17.901050
 30
0.0
  0
LWPOLYLINE
  5
187
100
AcDbEntity
  8
Layer_1
 62
7
100
AcDbPolyline
 90
6
 70
0
 10
78.155474
 20
-18.010775
 30
0.0
 10
78.155474
 20
-18.010775
 30
0.0
 10
78.155474
 20
-18.010775
 30
0.0
 10
78.155474
 20
-18.010775
 30
0.0
 10
78.155474
 20
-18.010775
 30
0.0
 10
78.155474
 20
-18.010775
 30
0.0
  0
LWPOLYLINE
  5
188
100
AcDbEntity
  8
Layer_1
 62
7
100
AcDbPolyline
 90
2
 70
0
 10
78.165183
 20
-17.944142
 30
0.0
 10
87.165185
 20
-17.944142
 30
0.0
  0
LWPOLYLINE
  5
189
100
AcDbEntity
  8
Layer_1
 62
7
100
AcDbPolyline
 90
2
 70
0
 10
81.106850
 20
-18.983595
 30
0.0
 10
90.106852
 20
-18.983595
 30
0.0
  0
LWPOLYLINE
  5
18a
100
AcDbEntity
  8
Layer_1
 62
7
100
AcDbPolyline
 90
2
 70
0
 10
78.226295
 20
-19.900817
 30
0.0
 10
87.226297
 20
-19.900817
 30
0.0
  0
LWPOLYLINE
  5
18b
100
AcDbEntity
  8
Layer_1
 62
7
100
AcDbPolyline
 90
2
 70
0
 10
81.011848
 20
-21.041926
 30
0.0
 10
90.011850
 20
-21.041926
 30
0.0
  0
LWPOLYLINE
  5
18c
100
AcDbEntity
  8
Layer_1
 62
7
100
AcDbPolyline
 90
2
 70
0
 10
96.465846
 20
-18.118143
 30
0.0
 10
96.143291
 20
-17.992498
 30
0.0
  0
LWPOLYLINE
  5
18d
100
AcDbEntity
  8
Layer_1
 62
7
100
AcDbPolyline
 90
4
 70
0
 10
78.104807
 20
-17.866954
 30
0.0
 10
78.104807
 20
-29.852311
 30
0.0
 10
90.090164
 20
-29.910759
 30
0.0
 10
90.031699
 20
-17.866954
 30
0.0
  0
LWPOLYLINE
  5
18e
100
AcDbEntity
  8
Layer_1
 62
7
100
AcDbPolyline
 90
6
 70
0
 10
96.143291
 20
-17.992498
 30
0.0
 10
96.143291
 20
-17.992498
 30
0.0
 10
96.143291
 20
-17.992498
 30
0.0
 10
96.143291
 20
-17.992498
 30
0.0
 10
96.143291
 20
-17.992498
 30
0.0
 10
96.143291
 20
-17.992498
 30
0.0
  0
LWPOLYLINE
  5
18f
100
AcDbEntity
  8
Layer_1
 62
7
100
AcDbPolyline
 90
2
 70
0
 10
96.153000
 20
-17.925865
 30
0.0
 10
105.153002
 20
-17.925865
 30
0.0
  0
LWPOLYLINE
  5
190
100
AcDbEntity
  8
Layer_1
 62
7
100
AcDbPolyline
 90
2
 70
0
 10
99.094667
 20
-18.965318
 30
0.0
 10
108.094669
 20
-18.965318
 30
0.0
  0
LWPOLYLINE
  5
191
100
AcDbEntity
  8
Layer_1
 62
7
100
AcDbPolyline
 90
2
 70
0
 10
96.214112
 20
-19.882540
 30
0.0
 10
105.214114
 20
-19.882540
 30
0.0
  0
LWPOLYLINE
  5
192
100
AcDbEntity
  8
Layer_1
 62
7
100
AcDbPolyline
 90
2
 70
0
 10
98.999665
 20
-21.023649
 30
0.0
 10
107.999667
 20
-21.023649
 30
0.0
  0
LWPOLYLINE
  5
193
100
AcDbEntity
  8
Layer_1
 62
7
100
AcDbPolyline
 90
2
 70
0
 10
114.348916
 20
-18.112051
 30
0.0
 10
114.026362
 20
-17.986406
 30
0.0
  0
LWPOLYLINE
  5
194
100
AcDbEntity
  8
Layer_1
 62
7
100
AcDbPolyline
 90
4
 70
0
 10
96.092624
 20
-17.848678
 30
0.0
 10
96.092624
 20
-29.834034
 30
0.0
 10
108.077981
 20
-29.892483
 30
0.0
 10
108.019516
 20
-17.848678
 30
0.0
  0
LWPOLYLINE
  5
195
100
AcDbEntity
  8
Layer_1
 62
7
100
AcDbPolyline
 90
6
 70
0
 10
114.026362
 20
-17.986406
 30
0.0
 10
114.026362
 20
-17.986406
 30
0.0
 10
114.026362
 20
-17.986406
 30
0.0
 10
114.026362
 20
-17.986406
 30
0.0
 10
114.026362
 20
-17.986406
 30
0.0
 10
114.026362
 20
-17.986406
 30
0.0
  0
LWPOLYLINE
  5
196
100
AcDbEntity
  8
Layer_1
 62
7
100
AcDbPolyline
 90
2
 70
0
 10
114.036070
 20
-17.919773
 30
0.0
 10
123.036072
 20
-17.919773
 30
0.0
  0
LWPOLYLINE
  5
197
100
AcDbEntity
  8
Layer_1
 62
7
100
AcDbPolyline
 90
2
 70
0
 10
116.977737
 20
-18.959226
 30
0.0
 10
125.977739
 20
-18.959226
 30
0.0
  0
LWPOLYLINE
  5
198
100
AcDbEntity
  8
Layer_1
 62
7
100
AcDbPolyline
 90
2
 70
0
 10
114.097183
 20
-19.876448
 30
0.0
 10
123.097184
 20
-19.876448
 30
0.0
  0
LWPOLYLINE
  5
199
100
AcDbEntity
  8
Layer_1
 62
7
100
AcDbPolyline
 90
2
 70
0
 10
116.882736
 20
-21.017557
 30
0.0
 10
125.882738
 20
-21.017557
 30
0.0
  0
LWPOLYLINE
  5
19a
100
AcDbEntity
  8
Layer_1
 62
7
100
AcDbPolyline
 90
2
 70
0
 10
132.478031
 20
-18.188793
 30
0.0
 10
132.155476
 20
-18.063148
 30
0.0
  0
LWPOLYLINE
  5
19b
100
AcDbEntity
  8
Layer_1
 62
7
100
AcDbPolyline
 90
4
 70
0
 10
113.975694
 20
-17.842585
 30
0.0
 10
113.975694
 20
-29.827942
 30
0.0
 10
125.961051
 20
-29.886390
 30
0.0
 10
125.902586
 20
-17.842585
 30
0.0
  0
LWPOLYLINE
  5
19c
100
AcDbEntity
  8
Layer_1
 62
7
100
AcDbPolyline
 90
6
 70
0
 10
132.155476
 20
-18.063148
 30
0.0
 10
132.155476
 20
-18.063148
 30
0.0
 10
132.155476
 20
-18.063148
 30
0.0
 10
132.155476
 20
-18.063148
 30
0.0
 10
132.155476
 20
-18.063148
 30
0.0
 10
132.155476
 20
-18.063148
 30
0.0
  0
LWPOLYLINE
  5
19d
100
AcDbEntity
  8
Layer_1
 62
7
100
AcDbPolyline
 90
2
 70
0
 10
132.165185
 20
-17.996515
 30
0.0
 10
141.165187
 20
-17.996515
 30
0.0
  0
LWPOLYLINE
  5
19e
100
AcDbEntity
  8
Layer_1
 62
7
100
AcDbPolyline
 90
2
 70
0
 10
135.106852
 20
-19.035968
 30
0.0
 10
144.106854
 20
-19.035968
 30
0.0
  0
LWPOLYLINE
  5
19f
100
AcDbEntity
  8
Layer_1
 62
7
100
AcDbPolyline
 90
2
 70
0
 10
132.226297
 20
-19.953190
 30
0.0
 10
141.226299
 20
-19.953190
 30
0.0
  0
LWPOLYLINE
  5
1a0
100
AcDbEntity
  8
Layer_1
 62
7
100
AcDbPolyline
 90
2
 70
0
 10
135.011850
 20
-21.094299
 30
0.0
 10
144.011852
 20
-21.094299
 30
0.0
  0
LWPOLYLINE
  5
1a1
100
AcDbEntity
  8
Layer_1
 62
7
100
AcDbPolyline
 90
2
 70
0
 10
150.471938
 20
-18.176609
 30
0.0
 10
150.149384
 20
-18.050963
 30
0.0
  0
LWPOLYLINE
  5
1a2
100
AcDbEntity
  8
Layer_1
 62
7
100
AcDbPolyline
 90
4
 70
0
 10
132.104809
 20
-17.919327
 30
0.0
 10
132.104809
 20
-29.904684
 30
0.0
 10
144.090166
 20
-29.963132
 30
0.0
 10
144.031701
 20
-17.919327
 30
0.0
  0
LWPOLYLINE
  5
1a3
100
AcDbEntity
  8
Layer_1
 62
7
100
AcDbPolyline
 90
6
 70
0
 10
150.149384
 20
-18.050963
 30
0.0
 10
150.149384
 20
-18.050963
 30
0.0
 10
150.149384
 20
-18.050963
 30
0.0
 10
150.149384
 20
-18.050963
 30
0.0
 10
150.149384
 20
-18.050963
 30
0.0
 10
150.149384
 20
-18.050963
 30
0.0
  0
LWPOLYLINE
  5
1a4
100
AcDbEntity
  8
Layer_1
 62
7
100
AcDbPolyline
 90
2
 70
0
 10
150.159092
 20
-17.984331
 30
0.0
 10
159.159094
 20
-17.984331
 30
0.0
  0
LWPOLYLINE
  5
1a5
100
AcDbEntity
  8
Layer_1
 62
7
100
AcDbPolyline
 90
2
 70
0
 10
153.100759
 20
-19.023783
 30
0.0
 10
162.100761
 20
-19.023783
 30
0.0
  0
LWPOLYLINE
  5
1a6
100
AcDbEntity
  8
Layer_1
 62
7
100
AcDbPolyline
 90
2
 70
0
 10
150.220205
 20
-19.941005
 30
0.0
 10
159.220206
 20
-19.941005
 30
0.0
  0
LWPOLYLINE
  5
1a7
100
AcDbEntity
  8
Layer_1
 62
7
100
AcDbPolyline
 90
2
 70
0
 10
153.005758
 20
-21.082115
 30
0.0
 10
162.005760
 20
-21.082115
 30
0.0
  0
LWPOLYLINE
  5
1a8
100
AcDbEntity
  8
Layer_1
 62
7
100
AcDbPolyline
 90
2
 70
0
 10
168.540370
 20
-18.173462
 30
0.0
 10
168.217815
 20
-18.047816
 30
0.0
  0
LWPOLYLINE
  5
1a9
100
AcDbEntity
  8
Layer_1
 62
7
100
AcDbPolyline
 90
4
 70
0
 10
150.098717
 20
-17.907143
 30
0.0
 10
150.098717
 20
-29.892500
 30
0.0
 10
162.084073
 20
-29.950948
 30
0.0
 10
162.025608
 20
-17.907143
 30
0.0
  0
LWPOLYLINE
  5
1aa
100
AcDbEntity
  8
Layer_1
 62
7
100
AcDbPolyline
 90
6
 70
0
 10
168.217815
 20
-18.047816
 30
0.0
 10
168.217815
 20
-18.047816
 30
0.0
 10
168.217815
 20
-18.047816
 30
0.0
 10
168.217815
 20
-18.047816
 30
0.0
 10
168.217815
 20
-18.047816
 30
0.0
 10
168.217815
 20
-18.047816
 30
0.0
  0
LWPOLYLINE
  5
1ab
100
AcDbEntity
  8
Layer_1
 62
7
100
AcDbPolyline
 90
2
 70
0
 10
168.227523
 20
-17.981184
 30
0.0
 10
177.227525
 20
-17.981184
 30
0.0
  0
LWPOLYLINE
  5
1ac
100
AcDbEntity
  8
Layer_1
 62
7
100
AcDbPolyline
 90
2
 70
0
 10
171.169191
 20
-19.020636
 30
0.0
 10
180.169192
 20
-19.020636
 30
0.0
  0
LWPOLYLINE
  5
1ad
100
AcDbEntity
  8
Layer_1
 62
7
100
AcDbPolyline
 90
2
 70
0
 10
168.288636
 20
-19.937859
 30
0.0
 10
177.288638
 20
-19.937859
 30
0.0
  0
LWPOLYLINE
  5
1ae
100
AcDbEntity
  8
Layer_1
 62
7
100
AcDbPolyline
 90
2
 70
0
 10
171.074189
 20
-21.078968
 30
0.0
 10
180.074191
 20
-21.078968
 30
0.0
  0
LWPOLYLINE
  5
1af
100
AcDbEntity
  8
Layer_1
 62
7
100
AcDbPolyline
 90
2
 70
0
 10
186.501740
 20
-18.247770
 30
0.0
 10
186.179185
 20
-18.122125
 30
0.0
  0
LWPOLYLINE
  5
1b0
100
AcDbEntity
  8
Layer_1
 62
7
100
AcDbPolyline
 90
4
 70
0
 10
168.167148
 20
-17.903996
 30
0.0
 10
168.167148
 20
-29.889353
 30
0.0
 10
180.152505
 20
-29.947801
 30
0.0
 10
180.094039
 20
-17.903996
 30
0.0
  0
LWPOLYLINE
  5
1b1
100
AcDbEntity
  8
Layer_1
 62
7
100
AcDbPolyline
 90
6
 70
0
 10
186.179185
 20
-18.122125
 30
0.0
 10
186.179185
 20
-18.122125
 30
0.0
 10
186.179185
 20
-18.122125
 30
0.0
 10
186.179185
 20
-18.122125
 30
0.0
 10
186.179185
 20
-18.122125
 30
0.0
 10
186.179185
 20
-18.122125
 30
0.0
  0
LWPOLYLINE
  5
1b2
100
AcDbEntity
  8
Layer_1
 62
7
100
AcDbPolyline
 90
2
 70
0
 10
186.188894
 20
-18.055492
 30
0.0
 10
195.188895
 20
-18.055492
 30
0.0
  0
LWPOLYLINE
  5
1b3
100
AcDbEntity
  8
Layer_1
 62
7
100
AcDbPolyline
 90
2
 70
0
 10
189.130561
 20
-19.094945
 30
0.0
 10
198.130562
 20
-19.094945
 30
0.0
  0
LWPOLYLINE
  5
1b4
100
AcDbEntity
  8
Layer_1
 62
7
100
AcDbPolyline
 90
2
 70
0
 10
186.250006
 20
-20.012167
 30
0.0
 10
195.250008
 20
-20.012167
 30
0.0
  0
LWPOLYLINE
  5
1b5
100
AcDbEntity
  8
Layer_1
 62
7
100
AcDbPolyline
 90
2
 70
0
 10
189.035559
 20
-21.153276
 30
0.0
 10
198.035561
 20
-21.153276
 30
0.0
  0
LWPOLYLINE
  5
1b6
100
AcDbEntity
  8
Layer_1
 62
7
100
AcDbPolyline
 90
4
 70
0
 10
186.128518
 20
-17.978304
 30
0.0
 10
186.128518
 20
-29.963661
 30
0.0
 10
198.113875
 20
-30.022109
 30
0.0
 10
198.055409
 20
-17.978304
 30
0.0
  0
LWPOLYLINE
  5
1b7
100
AcDbEntity
  8
Layer_1
 62
7
100
AcDbPolyline
 90
7
 70
0
 10
204.539807
 20
-18.234839
 30
0.0
 10
204.217252
 20
-18.109193
 30
0.0
 10
204.217252
 20
-18.109193
 30
0.0
 10
204.217252
 20
-18.109193
 30
0.0
 10
204.217252
 20
-18.109193
 30
0.0
 10
204.217252
 20
-18.109193
 30
0.0
 10
204.217252
 20
-18.109193
 30
0.0
  0
LWPOLYLINE
  5
1b8
100
AcDbEntity
  8
Layer_1
 62
7
100
AcDbPolyline
 90
2
 70
0
 10
204.226960
 20
-18.042561
 30
0.0
 10
213.226962
 20
-18.042561
 30
0.0
  0
LWPOLYLINE
  5
1b9
100
AcDbEntity
  8
Layer_1
 62
7
100
AcDbPolyline
 90
2
 70
0
 10
207.168628
 20
-19.082013
 30
0.0
 10
216.168629
 20
-19.082013
 30
0.0
  0
LWPOLYLINE
  5
1ba
100
AcDbEntity
  8
Layer_1
 62
7
100
AcDbPolyline
 90
2
 70
0
 10
204.288073
 20
-19.999235
 30
0.0
 10
213.288075
 20
-19.999235
 30
0.0
  0
LWPOLYLINE
  5
1bb
100
AcDbEntity
  8
Layer_1
 62
7
100
AcDbPolyline
 90
2
 70
0
 10
207.073626
 20
-21.140345
 30
0.0
 10
216.073628
 20
-21.140345
 30
0.0
  0
LWPOLYLINE
  5
1bc
100
AcDbEntity
  8
Layer_1
 62
7
100
AcDbPolyline
 90
4
 70
0
 10
204.166585
 20
-17.965373
 30
0.0
 10
204.166585
 20
-29.950730
 30
0.0
 10
216.151941
 20
-30.009178
 30
0.0
 10
216.093476
 20
-17.965373
 30
0.0
  0
LWPOLYLINE
  5
1bd
100
AcDbEntity
  8
Layer_1
 62
7
100
AcDbPolyline
 90
7
 70
0
 10
-2.761075
 20
17.680511
 30
0.0
 10
-3.083629
 20
17.806156
 30
0.0
 10
-3.083629
 20
17.806156
 30
0.0
 10
-3.083629
 20
17.806156
 30
0.0
 10
-3.083629
 20
17.806156
 30
0.0
 10
-3.083629
 20
17.806156
 30
0.0
 10
-3.083629
 20
17.806156
 30
0.0
  0
LWPOLYLINE
  5
1be
100
AcDbEntity
  8
Layer_1
 62
7
100
AcDbPolyline
 90
2
 70
0
 10
-3.073921
 20
17.872789
 30
0.0
 10
5.926081
 20
17.872789
 30
0.0
  0
LWPOLYLINE
  5
1bf
100
AcDbEntity
  8
Layer_1
 62
7
100
AcDbPolyline
 90
2
 70
0
 10
-0.132254
 20
16.833336
 30
0.0
 10
8.867748
 20
16.833336
 30
0.0
  0
LWPOLYLINE
  5
1c0
100
AcDbEntity
  8
Layer_1
 62
7
100
AcDbPolyline
 90
2
 70
0
 10
-3.012809
 20
15.916114
 30
0.0
 10
5.987193
 20
15.916114
 30
0.0
  0
LWPOLYLINE
  5
1c1
100
AcDbEntity
  8
Layer_1
 62
7
100
AcDbPolyline
 90
2
 70
0
 10
-0.227255
 20
14.775005
 30
0.0
 10
8.772746
 20
14.775005
 30
0.0
  0
LWPOLYLINE
  5
1c2
100
AcDbEntity
  8
Layer_1
 62
7
100
AcDbPolyline
 90
2
 70
0
 10
15.317720
 20
17.614099
 30
0.0
 10
14.995165
 20
17.739744
 30
0.0
  0
LWPOLYLINE
  5
1c3
100
AcDbEntity
  8
Layer_1
 62
7
100
AcDbPolyline
 90
4
 70
0
 10
-3.134297
 20
17.949977
 30
0.0
 10
-3.134297
 20
5.964620
 30
0.0
 10
8.851060
 20
5.906172
 30
0.0
 10
8.792595
 20
17.949977
 30
0.0
  0
LWPOLYLINE
  5
1c4
100
AcDbEntity
  8
Layer_1
 62
7
100
AcDbPolyline
 90
6
 70
0
 10
14.995165
 20
17.739744
 30
0.0
 10
14.995165
 20
17.739744
 30
0.0
 10
14.995165
 20
17.739744
 30
0.0
 10
14.995165
 20
17.739744
 30
0.0
 10
14.995165
 20
17.739744
 30
0.0
 10
14.995165
 20
17.739744
 30
0.0
  0
LWPOLYLINE
  5
1c5
100
AcDbEntity
  8
Layer_1
 62
7
100
AcDbPolyline
 90
2
 70
0
 10
15.004874
 20
17.806377
 30
0.0
 10
24.004876
 20
17.806377
 30
0.0
  0
LWPOLYLINE
  5
1c6
100
AcDbEntity
  8
Layer_1
 62
7
100
AcDbPolyline
 90
2
 70
0
 10
17.946541
 20
16.766924
 30
0.0
 10
26.946543
 20
16.766924
 30
0.0
  0
LWPOLYLINE
  5
1c7
100
AcDbEntity
  8
Layer_1
 62
7
100
AcDbPolyline
 90
2
 70
0
 10
15.065986
 20
15.849702
 30
0.0
 10
24.065988
 20
15.849702
 30
0.0
  0
LWPOLYLINE
  5
1c8
100
AcDbEntity
  8
Layer_1
 62
7
100
AcDbPolyline
 90
2
 70
0
 10
17.851539
 20
14.708593
 30
0.0
 10
26.851541
 20
14.708593
 30
0.0
  0
LWPOLYLINE
  5
1c9
100
AcDbEntity
  8
Layer_1
 62
7
100
AcDbPolyline
 90
2
 70
0
 10
33.273021
 20
17.622046
 30
0.0
 10
32.950467
 20
17.747691
 30
0.0
  0
LWPOLYLINE
  5
1ca
100
AcDbEntity
  8
Layer_1
 62
7
100
AcDbPolyline
 90
4
 70
0
 10
14.944498
 20
17.883564
 30
0.0
 10
14.944498
 20
5.898207
 30
0.0
 10
26.929855
 20
5.839759
 30
0.0
 10
26.871390
 20
17.883564
 30
0.0
  0
LWPOLYLINE
  5
1cb
100
AcDbEntity
  8
Layer_1
 62
7
100
AcDbPolyline
 90
6
 70
0
 10
32.950467
 20
17.747691
 30
0.0
 10
32.950467
 20
17.747691
 30
0.0
 10
32.950467
 20
17.747691
 30
0.0
 10
32.950467
 20
17.747691
 30
0.0
 10
32.950467
 20
17.747691
 30
0.0
 10
32.950467
 20
17.747691
 30
0.0
  0
LWPOLYLINE
  5
1cc
100
AcDbEntity
  8
Layer_1
 62
7
100
AcDbPolyline
 90
2
 70
0
 10
32.960175
 20
17.814324
 30
0.0
 10
41.960177
 20
17.814324
 30
0.0
  0
LWPOLYLINE
  5
1cd
100
AcDbEntity
  8
Layer_1
 62
7
100
AcDbPolyline
 90
2
 70
0
 10
35.901842
 20
16.774871
 30
0.0
 10
44.901844
 20
16.774871
 30
0.0
  0
LWPOLYLINE
  5
1ce
100
AcDbEntity
  8
Layer_1
 62
7
100
AcDbPolyline
 90
2
 70
0
 10
33.021288
 20
15.857649
 30
0.0
 10
42.021289
 20
15.857649
 30
0.0
  0
LWPOLYLINE
  5
1cf
100
AcDbEntity
  8
Layer_1
 62
7
100
AcDbPolyline
 90
2
 70
0
 10
35.806841
 20
14.716540
 30
0.0
 10
44.806842
 20
14.716540
 30
0.0
  0
LWPOLYLINE
  5
1d0
100
AcDbEntity
  8
Layer_1
 62
7
100
AcDbPolyline
 90
2
 70
0
 10
51.359491
 20
17.656142
 30
0.0
 10
51.036936
 20
17.781787
 30
0.0
  0
LWPOLYLINE
  5
1d1
100
AcDbEntity
  8
Layer_1
 62
7
100
AcDbPolyline
 90
4
 70
0
 10
32.899799
 20
17.891512
 30
0.0
 10
32.899799
 20
5.906155
 30
0.0
 10
44.885156
 20
5.847706
 30
0.0
 10
44.826691
 20
17.891512
 30
0.0
  0
LWPOLYLINE
  5
1d2
100
AcDbEntity
  8
Layer_1
 62
7
100
AcDbPolyline
 90
6
 70
0
 10
51.036936
 20
17.781787
 30
0.0
 10
51.036936
 20
17.781787
 30
0.0
 10
51.036936
 20
17.781787
 30
0.0
 10
51.036936
 20
17.781787
 30
0.0
 10
51.036936
 20
17.781787
 30
0.0
 10
51.036936
 20
17.781787
 30
0.0
  0
LWPOLYLINE
  5
1d3
100
AcDbEntity
  8
Layer_1
 62
7
100
AcDbPolyline
 90
2
 70
0
 10
51.046644
 20
17.848420
 30
0.0
 10
60.046646
 20
17.848420
 30
0.0
  0
LWPOLYLINE
  5
1d4
100
AcDbEntity
  8
Layer_1
 62
7
100
AcDbPolyline
 90
2
 70
0
 10
53.988312
 20
16.808967
 30
0.0
 10
62.988313
 20
16.808967
 30
0.0
  0
LWPOLYLINE
  5
1d5
100
AcDbEntity
  8
Layer_1
 62
7
100
AcDbPolyline
 90
2
 70
0
 10
51.107757
 20
15.891745
 30
0.0
 10
60.107759
 20
15.891745
 30
0.0
  0
LWPOLYLINE
  5
1d6
100
AcDbEntity
  8
Layer_1
 62
7
100
AcDbPolyline
 90
2
 70
0
 10
53.893310
 20
14.750636
 30
0.0
 10
62.893312
 20
14.750636
 30
0.0
  0
LWPOLYLINE
  5
1d7
100
AcDbEntity
  8
Layer_1
 62
7
100
AcDbPolyline
 90
2
 70
0
 10
69.276655
 20
17.690238
 30
0.0
 10
68.954101
 20
17.815883
 30
0.0
  0
LWPOLYLINE
  5
1d8
100
AcDbEntity
  8
Layer_1
 62
7
100
AcDbPolyline
 90
4
 70
0
 10
50.986269
 20
17.925608
 30
0.0
 10
50.986269
 20
5.940251
 30
0.0
 10
62.971626
 20
5.881803
 30
0.0
 10
62.913160
 20
17.925608
 30
0.0
  0
LWPOLYLINE
  5
1d9
100
AcDbEntity
  8
Layer_1
 62
7
100
AcDbPolyline
 90
6
 70
0
 10
68.954101
 20
17.815883
 30
0.0
 10
68.954101
 20
17.815883
 30
0.0
 10
68.954101
 20
17.815883
 30
0.0
 10
68.954101
 20
17.815883
 30
0.0
 10
68.954101
 20
17.815883
 30
0.0
 10
68.954101
 20
17.815883
 30
0.0
  0
LWPOLYLINE
  5
1da
100
AcDbEntity
  8
Layer_1
 62
7
100
AcDbPolyline
 90
2
 70
0
 10
68.963809
 20
17.882516
 30
0.0
 10
77.963811
 20
17.882516
 30
0.0
  0
LWPOLYLINE
  5
1db
100
AcDbEntity
  8
Layer_1
 62
7
100
AcDbPolyline
 90
2
 70
0
 10
71.905476
 20
16.843063
 30
0.0
 10
80.905478
 20
16.843063
 30
0.0
  0
LWPOLYLINE
  5
1dc
100
AcDbEntity
  8
Layer_1
 62
7
100
AcDbPolyline
 90
2
 70
0
 10
69.024922
 20
15.925841
 30
0.0
 10
78.024923
 20
15.925841
 30
0.0
  0
LWPOLYLINE
  5
1dd
100
AcDbEntity
  8
Layer_1
 62
7
100
AcDbPolyline
 90
2
 70
0
 10
71.810475
 20
14.784732
 30
0.0
 10
80.810476
 20
14.784732
 30
0.0
  0
LWPOLYLINE
  5
1de
100
AcDbEntity
  8
Layer_1
 62
7
100
AcDbPolyline
 90
2
 70
0
 10
87.264473
 20
17.708515
 30
0.0
 10
86.941918
 20
17.834160
 30
0.0
  0
LWPOLYLINE
  5
1df
100
AcDbEntity
  8
Layer_1
 62
7
100
AcDbPolyline
 90
4
 70
0
 10
68.903433
 20
17.959704
 30
0.0
 10
68.903433
 20
5.974347
 30
0.0
 10
80.888790
 20
5.915899
 30
0.0
 10
80.830325
 20
17.959704
 30
0.0
  0
LWPOLYLINE
  5
1e0
100
AcDbEntity
  8
Layer_1
 62
7
100
AcDbPolyline
 90
6
 70
0
 10
86.941918
 20
17.834160
 30
0.0
 10
86.941918
 20
17.834160
 30
0.0
 10
86.941918
 20
17.834160
 30
0.0
 10
86.941918
 20
17.834160
 30
0.0
 10
86.941918
 20
17.834160
 30
0.0
 10
86.941918
 20
17.834160
 30
0.0
  0
LWPOLYLINE
  5
1e1
100
AcDbEntity
  8
Layer_1
 62
7
100
AcDbPolyline
 90
2
 70
0
 10
86.951626
 20
17.900793
 30
0.0
 10
95.951628
 20
17.900793
 30
0.0
  0
LWPOLYLINE
  5
1e2
100
AcDbEntity
  8
Layer_1
 62
7
100
AcDbPolyline
 90
2
 70
0
 10
89.893294
 20
16.861340
 30
0.0
 10
98.893295
 20
16.861340
 30
0.0
  0
LWPOLYLINE
  5
1e3
100
AcDbEntity
  8
Layer_1
 62
7
100
AcDbPolyline
 90
2
 70
0
 10
87.012739
 20
15.944118
 30
0.0
 10
96.012741
 20
15.944118
 30
0.0
  0
LWPOLYLINE
  5
1e4
100
AcDbEntity
  8
Layer_1
 62
7
100
AcDbPolyline
 90
2
 70
0
 10
89.798292
 20
14.803009
 30
0.0
 10
98.798294
 20
14.803009
 30
0.0
  0
LWPOLYLINE
  5
1e5
100
AcDbEntity
  8
Layer_1
 62
7
100
AcDbPolyline
 90
2
 70
0
 10
105.147543
 20
17.714607
 30
0.0
 10
104.824988
 20
17.840252
 30
0.0
  0
LWPOLYLINE
  5
1e6
100
AcDbEntity
  8
Layer_1
 62
7
100
AcDbPolyline
 90
4
 70
0
 10
86.891251
 20
17.977981
 30
0.0
 10
86.891251
 20
5.992624
 30
0.0
 10
98.876607
 20
5.934176
 30
0.0
 10
98.818142
 20
17.977981
 30
0.0
  0
LWPOLYLINE
  5
1e7
100
AcDbEntity
  8
Layer_1
 62
7
100
AcDbPolyline
 90
6
 70
0
 10
104.824988
 20
17.840252
 30
0.0
 10
104.824988
 20
17.840252
 30
0.0
 10
104.824988
 20
17.840252
 30
0.0
 10
104.824988
 20
17.840252
 30
0.0
 10
104.824988
 20
17.840252
 30
0.0
 10
104.824988
 20
17.840252
 30
0.0
  0
LWPOLYLINE
  5
1e8
100
AcDbEntity
  8
Layer_1
 62
7
100
AcDbPolyline
 90
2
 70
0
 10
104.834697
 20
17.906885
 30
0.0
 10
113.834699
 20
17.906885
 30
0.0
  0
LWPOLYLINE
  5
1e9
100
AcDbEntity
  8
Layer_1
 62
7
100
AcDbPolyline
 90
2
 70
0
 10
107.776364
 20
16.867432
 30
0.0
 10
116.776366
 20
16.867432
 30
0.0
  0
LWPOLYLINE
  5
1ea
100
AcDbEntity
  8
Layer_1
 62
7
100
AcDbPolyline
 90
2
 70
0
 10
104.895809
 20
15.950210
 30
0.0
 10
113.895811
 20
15.950210
 30
0.0
  0
LWPOLYLINE
  5
1eb
100
AcDbEntity
  8
Layer_1
 62
7
100
AcDbPolyline
 90
2
 70
0
 10
107.681362
 20
14.809101
 30
0.0
 10
116.681364
 20
14.809101
 30
0.0
  0
LWPOLYLINE
  5
1ec
100
AcDbEntity
  8
Layer_1
 62
7
100
AcDbPolyline
 90
2
 70
0
 10
123.276657
 20
17.637865
 30
0.0
 10
122.954103
 20
17.763510
 30
0.0
  0
LWPOLYLINE
  5
1ed
100
AcDbEntity
  8
Layer_1
 62
7
100
AcDbPolyline
 90
4
 70
0
 10
104.774321
 20
17.984073
 30
0.0
 10
104.774321
 20
5.998716
 30
0.0
 10
116.759678
 20
5.940268
 30
0.0
 10
116.701213
 20
17.984073
 30
0.0
  0
LWPOLYLINE
  5
1ee
100
AcDbEntity
  8
Layer_1
 62
7
100
AcDbPolyline
 90
6
 70
0
 10
122.954103
 20
17.763510
 30
0.0
 10
122.954103
 20
17.763510
 30
0.0
 10
122.954103
 20
17.763510
 30
0.0
 10
122.954103
 20
17.763510
 30
0.0
 10
122.954103
 20
17.763510
 30
0.0
 10
122.954103
 20
17.763510
 30
0.0
  0
LWPOLYLINE
  5
1ef
100
AcDbEntity
  8
Layer_1
 62
7
100
AcDbPolyline
 90
2
 70
0
 10
122.963811
 20
17.830143
 30
0.0
 10
131.963813
 20
17.830143
 30
0.0
  0
LWPOLYLINE
  5
1f0
100
AcDbEntity
  8
Layer_1
 62
7
100
AcDbPolyline
 90
2
 70
0
 10
125.905478
 20
16.790690
 30
0.0
 10
134.905480
 20
16.790690
 30
0.0
  0
LWPOLYLINE
  5
1f1
100
AcDbEntity
  8
Layer_1
 62
7
100
AcDbPolyline
 90
2
 70
0
 10
123.024924
 20
15.873468
 30
0.0
 10
132.024925
 20
15.873468
 30
0.0
  0
LWPOLYLINE
  5
1f2
100
AcDbEntity
  8
Layer_1
 62
7
100
AcDbPolyline
 90
2
 70
0
 10
125.810477
 20
14.732359
 30
0.0
 10
134.810479
 20
14.732359
 30
0.0
  0
LWPOLYLINE
  5
1f3
100
AcDbEntity
  8
Layer_1
 62
7
100
AcDbPolyline
 90
2
 70
0
 10
141.270565
 20
17.650050
 30
0.0
 10
140.948010
 20
17.775695
 30
0.0
  0
LWPOLYLINE
  5
1f4
100
AcDbEntity
  8
Layer_1
 62
7
100
AcDbPolyline
 90
4
 70
0
 10
122.903436
 20
17.907331
 30
0.0
 10
122.903436
 20
5.921974
 30
0.0
 10
134.888792
 20
5.863526
 30
0.0
 10
134.830327
 20
17.907331
 30
0.0
  0
LWPOLYLINE
  5
1f5
100
AcDbEntity
  8
Layer_1
 62
7
100
AcDbPolyline
 90
6
 70
0
 10
140.948010
 20
17.775695
 30
0.0
 10
140.948010
 20
17.775695
 30
0.0
 10
140.948010
 20
17.775695
 30
0.0
 10
140.948010
 20
17.775695
 30
0.0
 10
140.948010
 20
17.775695
 30
0.0
 10
140.948010
 20
17.775695
 30
0.0
  0
LWPOLYLINE
  5
1f6
100
AcDbEntity
  8
Layer_1
 62
7
100
AcDbPolyline
 90
2
 70
0
 10
140.957719
 20
17.842328
 30
0.0
 10
149.957721
 20
17.842328
 30
0.0
  0
LWPOLYLINE
  5
1f7
100
AcDbEntity
  8
Layer_1
 62
7
100
AcDbPolyline
 90
2
 70
0
 10
143.899386
 20
16.802875
 30
0.0
 10
152.899388
 20
16.802875
 30
0.0
  0
LWPOLYLINE
  5
1f8
100
AcDbEntity
  8
Layer_1
 62
7
100
AcDbPolyline
 90
2
 70
0
 10
141.018831
 20
15.885653
 30
0.0
 10
150.018833
 20
15.885653
 30
0.0
  0
LWPOLYLINE
  5
1f9
100
AcDbEntity
  8
Layer_1
 62
7
100
AcDbPolyline
 90
2
 70
0
 10
143.804384
 20
14.744544
 30
0.0
 10
152.804386
 20
14.744544
 30
0.0
  0
LWPOLYLINE
  5
1fa
100
AcDbEntity
  8
Layer_1
 62
7
100
AcDbPolyline
 90
2
 70
0
 10
159.338996
 20
17.653196
 30
0.0
 10
159.016441
 20
17.778842
 30
0.0
  0
LWPOLYLINE
  5
1fb
100
AcDbEntity
  8
Layer_1
 62
7
100
AcDbPolyline
 90
4
 70
0
 10
140.897343
 20
17.919515
 30
0.0
 10
140.897343
 20
5.934159
 30
0.0
 10
152.882700
 20
5.875710
 30
0.0
 10
152.824235
 20
17.919515
 30
0.0
  0
LWPOLYLINE
  5
1fc
100
AcDbEntity
  8
Layer_1
 62
7
100
AcDbPolyline
 90
6
 70
0
 10
159.016441
 20
17.778842
 30
0.0
 10
159.016441
 20
17.778842
 30
0.0
 10
159.016441
 20
17.778842
 30
0.0
 10
159.016441
 20
17.778842
 30
0.0
 10
159.016441
 20
17.778842
 30
0.0
 10
159.016441
 20
17.778842
 30
0.0
  0
LWPOLYLINE
  5
1fd
100
AcDbEntity
  8
Layer_1
 62
7
100
AcDbPolyline
 90
2
 70
0
 10
159.026150
 20
17.845474
 30
0.0
 10
168.026152
 20
17.845474
 30
0.0
  0
LWPOLYLINE
  5
1fe
100
AcDbEntity
  8
Layer_1
 62
7
100
AcDbPolyline
 90
2
 70
0
 10
161.967817
 20
16.806022
 30
0.0
 10
170.967819
 20
16.806022
 30
0.0
  0
LWPOLYLINE
  5
1ff
100
AcDbEntity
  8
Layer_1
 62
7
100
AcDbPolyline
 90
2
 70
0
 10
159.087262
 20
15.888800
 30
0.0
 10
168.087264
 20
15.888800
 30
0.0
  0
LWPOLYLINE
  5
200
100
AcDbEntity
  8
Layer_1
 62
7
100
AcDbPolyline
 90
2
 70
0
 10
161.872815
 20
14.747690
 30
0.0
 10
170.872817
 20
14.747690
 30
0.0
  0
LWPOLYLINE
  5
201
100
AcDbEntity
  8
Layer_1
 62
7
100
AcDbPolyline
 90
2
 70
0
 10
177.300366
 20
17.578888
 30
0.0
 10
176.977812
 20
17.704533
 30
0.0
  0
LWPOLYLINE
  5
202
100
AcDbEntity
  8
Layer_1
 62
7
100
AcDbPolyline
 90
4
 70
0
 10
158.965774
 20
17.922662
 30
0.0
 10
158.965774
 20
5.937305
 30
0.0
 10
170.951131
 20
5.878857
 30
0.0
 10
170.892666
 20
17.922662
 30
0.0
  0
LWPOLYLINE
  5
203
100
AcDbEntity
  8
Layer_1
 62
7
100
AcDbPolyline
 90
6
 70
0
 10
176.977812
 20
17.704533
 30
0.0
 10
176.977812
 20
17.704533
 30
0.0
 10
176.977812
 20
17.704533
 30
0.0
 10
176.977812
 20
17.704533
 30
0.0
 10
176.977812
 20
17.704533
 30
0.0
 10
176.977812
 20
17.704533
 30
0.0
  0
LWPOLYLINE
  5
204
100
AcDbEntity
  8
Layer_1
 62
7
100
AcDbPolyline
 90
2
 70
0
 10
176.987520
 20
17.771166
 30
0.0
 10
185.987522
 20
17.771166
 30
0.0
  0
LWPOLYLINE
  5
205
100
AcDbEntity
  8
Layer_1
 62
7
100
AcDbPolyline
 90
2
 70
0
 10
179.929187
 20
16.731713
 30
0.0
 10
188.929189
 20
16.731713
 30
0.0
  0
LWPOLYLINE
  5
206
100
AcDbEntity
  8
Layer_1
 62
7
100
AcDbPolyline
 90
2
 70
0
 10
177.048632
 20
15.814491
 30
0.0
 10
186.048634
 20
15.814491
 30
0.0
  0
LWPOLYLINE
  5
207
100
AcDbEntity
  8
Layer_1
 62
7
100
AcDbPolyline
 90
2
 70
0
 10
179.834186
 20
14.673382
 30
0.0
 10
188.834187
 20
14.673382
 30
0.0
  0
LWPOLYLINE
  5
208
100
AcDbEntity
  8
Layer_1
 62
7
100
AcDbPolyline
 90
2
 70
0
 10
213.278445
 20
17.715418
 30
0.0
 10
212.955890
 20
17.841064
 30
0.0
  0
LWPOLYLINE
  5
209
100
AcDbEntity
  8
Layer_1
 62
7
100
AcDbPolyline
 90
4
 70
0
 10
176.927144
 20
17.848354
 30
0.0
 10
176.927144
 20
5.862997
 30
0.0
 10
188.912501
 20
5.804549
 30
0.0
 10
188.854036
 20
17.848354
 30
0.0
  0
LWPOLYLINE
  5
20a
100
AcDbEntity
  8
Layer_1
 62
7
100
AcDbPolyline
 90
6
 70
0
 10
212.955890
 20
17.841064
 30
0.0
 10
212.955890
 20
17.841064
 30
0.0
 10
212.955890
 20
17.841064
 30
0.0
 10
212.955890
 20
17.841064
 30
0.0
 10
212.955890
 20
17.841064
 30
0.0
 10
212.955890
 20
17.841064
 30
0.0
  0
LWPOLYLINE
  5
20b
100
AcDbEntity
  8
Layer_1
 62
7
100
AcDbPolyline
 90
2
 70
0
 10
212.965598
 20
17.907696
 30
0.0
 10
221.965600
 20
17.907696
 30
0.0
  0
LWPOLYLINE
  5
20c
100
AcDbEntity
  8
Layer_1
 62
7
100
AcDbPolyline
 90
2
 70
0
 10
215.907266
 20
16.868244
 30
0.0
 10
224.907267
 20
16.868244
 30
0.0
  0
LWPOLYLINE
  5
20d
100
AcDbEntity
  8
Layer_1
 62
7
100
AcDbPolyline
 90
2
 70
0
 10
213.026711
 20
15.951021
 30
0.0
 10
222.026713
 20
15.951021
 30
0.0
  0
LWPOLYLINE
  5
20e
100
AcDbEntity
  8
Layer_1
 62
7
100
AcDbPolyline
 90
2
 70
0
 10
215.812264
 20
14.809912
 30
0.0
 10
224.812266
 20
14.809912
 30
0.0
  0
LWPOLYLINE
  5
20f
100
AcDbEntity
  8
Layer_1
 62
7
100
AcDbPolyline
 90
2
 70
0
 10
195.338433
 20
17.591820
 30
0.0
 10
195.015878
 20
17.717465
 30
0.0
  0
LWPOLYLINE
  5
210
100
AcDbEntity
  8
Layer_1
 62
7
100
AcDbPolyline
 90
4
 70
0
 10
212.905223
 20
17.984884
 30
0.0
 10
212.905223
 20
5.999527
 30
0.0
 10
224.890579
 20
5.941079
 30
0.0
 10
224.832114
 20
17.984884
 30
0.0
  0
LWPOLYLINE
  5
211
100
AcDbEntity
  8
Layer_1
 62
7
100
AcDbPolyline
 90
6
 70
0
 10
195.015878
 20
17.717465
 30
0.0
 10
195.015878
 20
17.717465
 30
0.0
 10
195.015878
 20
17.717465
 30
0.0
 10
195.015878
 20
17.717465
 30
0.0
 10
195.015878
 20
17.717465
 30
0.0
 10
195.015878
 20
17.717465
 30
0.0
  0
LWPOLYLINE
  5
212
100
AcDbEntity
  8
Layer_1
 62
7
100
AcDbPolyline
 90
2
 70
0
 10
195.025587
 20
17.784098
 30
0.0
 10
204.025589
 20
17.784098
 30
0.0
  0
LWPOLYLINE
  5
213
100
AcDbEntity
  8
Layer_1
 62
7
100
AcDbPolyline
 90
2
 70
0
 10
197.967254
 20
16.744645
 30
0.0
 10
206.967256
 20
16.744645
 30
0.0
  0
LWPOLYLINE
  5
214
100
AcDbEntity
  8
Layer_1
 62
7
100
AcDbPolyline
 90
2
 70
0
 10
195.086699
 20
15.827423
 30
0.0
 10
204.086701
 20
15.827423
 30
0.0
  0
LWPOLYLINE
  5
215
100
AcDbEntity
  8
Layer_1
 62
7
100
AcDbPolyline
 90
2
 70
0
 10
197.872252
 20
14.686314
 30
0.0
 10
206.872254
 20
14.686314
 30
0.0
  0
LWPOLYLINE
  5
216
100
AcDbEntity
  8
Layer_1
 62
7
100
AcDbPolyline
 90
2
 70
0
 10
231.249297
 20
17.724675
 30
0.0
 10
230.926743
 20
17.850321
 30
0.0
  0
LWPOLYLINE
  5
217
100
AcDbEntity
  8
Layer_1
 62
7
100
AcDbPolyline
 90
4
 70
0
 10
194.965211
 20
17.861285
 30
0.0
 10
194.965211
 20
5.875929
 30
0.0
 10
206.950568
 20
5.817480
 30
0.0
 10
206.892103
 20
17.861285
 30
0.0
  0
LWPOLYLINE
  5
218
100
AcDbEntity
  8
Layer_1
 62
7
100
AcDbPolyline
 90
6
 70
0
 10
230.926743
 20
17.850321
 30
0.0
 10
230.926743
 20
17.850321
 30
0.0
 10
230.926743
 20
17.850321
 30
0.0
 10
230.926743
 20
17.850321
 30
0.0
 10
230.926743
 20
17.850321
 30
0.0
 10
230.926743
 20
17.850321
 30
0.0
  0
LWPOLYLINE
  5
219
100
AcDbEntity
  8
Layer_1
 62
7
100
AcDbPolyline
 90
2
 70
0
 10
230.936451
 20
17.916953
 30
0.0
 10
239.936453
 20
17.916953
 30
0.0
  0
LWPOLYLINE
  5
21a
100
AcDbEntity
  8
Layer_1
 62
7
100
AcDbPolyline
 90
2
 70
0
 10
233.878118
 20
16.877501
 30
0.0
 10
242.878120
 20
16.877501
 30
0.0
  0
LWPOLYLINE
  5
21b
100
AcDbEntity
  8
Layer_1
 62
7
100
AcDbPolyline
 90
2
 70
0
 10
230.997564
 20
15.960278
 30
0.0
 10
239.997565
 20
15.960278
 30
0.0
  0
LWPOLYLINE
  5
21c
100
AcDbEntity
  8
Layer_1
 62
7
100
AcDbPolyline
 90
2
 70
0
 10
233.783117
 20
14.819169
 30
0.0
 10
242.783118
 20
14.819169
 30
0.0
  0
LWPOLYLINE
  5
21d
100
AcDbEntity
  8
Layer_1
 62
7
100
AcDbPolyline
 90
4
 70
0
 10
230.729731
 20
18.140487
 30
0.0
 10
230.729731
 20
6.155127
 30
0.0
 10
242.715088
 20
6.096679
 30
0.0
 10
242.656622
 20
18.140487
 30
0.0
  0
SPLINE
  5
21e
100
AcDbEntity
  8
Layer_1
 62
7
100
AcDbSpline
 70
8
 71
3
 72
8
 73
4
 74
0
 40
0
 40
0
 40
0
 40
0
 40
1
 40
1
 40
1
 40
1
 10
5.213529
 20
-35.335422
 30
0.0
 10
5.013272
 20
-35.306067
 30
0.0
 10
4.819787
 20
-35.263562
 30
0.0
 10
4.634506
 20
-35.210599
 30
0.0
  0
LWPOLYLINE
  5
21f
100
AcDbEntity
  8
Layer_1
 62
7
100
AcDbPolyline
 90
2
 70
0
 10
32.590075
 20
-35.363953
 30
0.0
 10
32.267520
 20
-35.238308
 30
0.0
  0
LWPOLYLINE
  5
220
100
AcDbEntity
  8
Layer_1
 62
7
100
AcDbPolyline
 90
6
 70
1
 10
4.634506
 20
-35.210599
 30
0.0
 10
4.634506
 20
-35.210599
 30
0.0
 10
4.634506
 20
-35.210599
 30
0.0
 10
4.634506
 20
-35.210599
 30
0.0
 10
4.634506
 20
-35.210599
 30
0.0
 10
4.634506
 20
-35.210599
 30
0.0
  0
LWPOLYLINE
  5
221
100
AcDbEntity
  8
Layer_1
 62
7
100
AcDbPolyline
 90
2
 70
0
 10
4.651933
 20
-35.144402
 30
0.0
 10
20.807969
 20
-35.144402
 30
0.0
  0
LWPOLYLINE
  5
222
100
AcDbEntity
  8
Layer_1
 62
7
100
AcDbPolyline
 90
2
 70
0
 10
9.932564
 20
-36.177054
 30
0.0
 10
26.088600
 20
-36.177054
 30
0.0
  0
LWPOLYLINE
  5
223
100
AcDbEntity
  8
Layer_1
 62
7
100
AcDbPolyline
 90
2
 70
0
 10
4.761637
 20
-37.088276
 30
0.0
 10
20.917674
 20
-37.088276
 30
0.0
  0
LWPOLYLINE
  5
224
100
AcDbEntity
  8
Layer_1
 62
7
100
AcDbPolyline
 90
2
 70
0
 10
9.762025
 20
-38.221919
 30
0.0
 10
25.918062
 20
-38.221919
 30
0.0
  0
LWPOLYLINE
  5
225
100
AcDbEntity
  8
Layer_1
 62
7
100
AcDbPolyline
 90
4
 70
0
 10
4.543553
 20
-35.067719
 30
0.0
 10
4.543553
 20
-46.974665
 30
0.0
 10
26.058644
 20
-47.032731
 30
0.0
 10
25.953692
 20
-35.067719
 30
0.0
  0
LWPOLYLINE
  5
226
100
AcDbEntity
  8
Layer_1
 62
7
100
AcDbPolyline
 90
6
 70
0
 10
32.267520
 20
-35.238308
 30
0.0
 10
32.267520
 20
-35.238308
 30
0.0
 10
32.267520
 20
-35.238308
 30
0.0
 10
32.267520
 20
-35.238308
 30
0.0
 10
32.267520
 20
-35.238308
 30
0.0
 10
32.267520
 20
-35.238308
 30
0.0
  0
LWPOLYLINE
  5
227
100
AcDbEntity
  8
Layer_1
 62
7
100
AcDbPolyline
 90
2
 70
0
 10
32.277228
 20
-35.171675
 30
0.0
 10
41.277230
 20
-35.171675
 30
0.0
  0
LWPOLYLINE
  5
228
100
AcDbEntity
  8
Layer_1
 62
7
100
AcDbPolyline
 90
2
 70
0
 10
35.218895
 20
-36.211128
 30
0.0
 10
44.218897
 20
-36.211128
 30
0.0
  0
LWPOLYLINE
  5
229
100
AcDbEntity
  8
Layer_1
 62
7
100
AcDbPolyline
 90
2
 70
0
 10
32.338341
 20
-37.128350
 30
0.0
 10
41.338343
 20
-37.128350
 30
0.0
  0
LWPOLYLINE
  5
22a
100
AcDbEntity
  8
Layer_1
 62
7
100
AcDbPolyline
 90
2
 70
0
 10
35.123894
 20
-38.269459
 30
0.0
 10
44.123896
 20
-38.269459
 30
0.0
  0
LWPOLYLINE
  5
22b
100
AcDbEntity
  8
Layer_1
 62
7
100
AcDbPolyline
 90
2
 70
0
 10
50.545376
 20
-35.356006
 30
0.0
 10
50.222821
 20
-35.230360
 30
0.0
  0
LWPOLYLINE
  5
22c
100
AcDbEntity
  8
Layer_1
 62
7
100
AcDbPolyline
 90
4
 70
0
 10
32.216853
 20
-35.094487
 30
0.0
 10
32.216853
 20
-47.079844
 30
0.0
 10
44.202209
 20
-47.138292
 30
0.0
 10
44.143744
 20
-35.094487
 30
0.0
  0
LWPOLYLINE
  5
22d
100
AcDbEntity
  8
Layer_1
 62
7
100
AcDbPolyline
 90
6
 70
0
 10
50.222821
 20
-35.230360
 30
0.0
 10
50.222821
 20
-35.230360
 30
0.0
 10
50.222821
 20
-35.230360
 30
0.0
 10
50.222821
 20
-35.230360
 30
0.0
 10
50.222821
 20
-35.230360
 30
0.0
 10
50.222821
 20
-35.230360
 30
0.0
  0
LWPOLYLINE
  5
22e
100
AcDbEntity
  8
Layer_1
 62
7
100
AcDbPolyline
 90
2
 70
0
 10
50.232530
 20
-35.163728
 30
0.0
 10
59.232531
 20
-35.163728
 30
0.0
  0
LWPOLYLINE
  5
22f
100
AcDbEntity
  8
Layer_1
 62
7
100
AcDbPolyline
 90
2
 70
0
 10
53.174197
 20
-36.203180
 30
0.0
 10
62.174199
 20
-36.203180
 30
0.0
  0
LWPOLYLINE
  5
230
100
AcDbEntity
  8
Layer_1
 62
7
100
AcDbPolyline
 90
2
 70
0
 10
50.293642
 20
-37.120403
 30
0.0
 10
59.293644
 20
-37.120403
 30
0.0
  0
LWPOLYLINE
  5
231
100
AcDbEntity
  8
Layer_1
 62
7
100
AcDbPolyline
 90
2
 70
0
 10
53.079195
 20
-38.261512
 30
0.0
 10
62.079197
 20
-38.261512
 30
0.0
  0
LWPOLYLINE
  5
232
100
AcDbEntity
  8
Layer_1
 62
7
100
AcDbPolyline
 90
2
 70
0
 10
68.631845
 20
-35.321909
 30
0.0
 10
68.309290
 20
-35.196264
 30
0.0
  0
LWPOLYLINE
  5
233
100
AcDbEntity
  8
Layer_1
 62
7
100
AcDbPolyline
 90
4
 70
0
 10
50.172154
 20
-35.086540
 30
0.0
 10
50.172154
 20
-47.071897
 30
0.0
 10
62.157511
 20
-47.130345
 30
0.0
 10
62.099046
 20
-35.086540
 30
0.0
  0
LWPOLYLINE
  5
234
100
AcDbEntity
  8
Layer_1
 62
7
100
AcDbPolyline
 90
6
 70
0
 10
68.309290
 20
-35.196264
 30
0.0
 10
68.309290
 20
-35.196264
 30
0.0
 10
68.309290
 20
-35.196264
 30
0.0
 10
68.309290
 20
-35.196264
 30
0.0
 10
68.309290
 20
-35.196264
 30
0.0
 10
68.309290
 20
-35.196264
 30
0.0
  0
LWPOLYLINE
  5
235
100
AcDbEntity
  8
Layer_1
 62
7
100
AcDbPolyline
 90
2
 70
0
 10
68.318999
 20
-35.129631
 30
0.0
 10
77.319001
 20
-35.129631
 30
0.0
  0
LWPOLYLINE
  5
236
100
AcDbEntity
  8
Layer_1
 62
7
100
AcDbPolyline
 90
2
 70
0
 10
71.260666
 20
-36.169084
 30
0.0
 10
80.260668
 20
-36.169084
 30
0.0
  0
LWPOLYLINE
  5
237
100
AcDbEntity
  8
Layer_1
 62
7
100
AcDbPolyline
 90
2
 70
0
 10
68.380111
 20
-37.086306
 30
0.0
 10
77.380113
 20
-37.086306
 30
0.0
  0
LWPOLYLINE
  5
238
100
AcDbEntity
  8
Layer_1
 62
7
100
AcDbPolyline
 90
2
 70
0
 10
71.165664
 20
-38.227415
 30
0.0
 10
80.165666
 20
-38.227415
 30
0.0
  0
LWPOLYLINE
  5
239
100
AcDbEntity
  8
Layer_1
 62
7
100
AcDbPolyline
 90
2
 70
0
 10
86.549010
 20
-35.287813
 30
0.0
 10
86.226455
 20
-35.162168
 30
0.0
  0
LWPOLYLINE
  5
23a
100
AcDbEntity
  8
Layer_1
 62
7
100
AcDbPolyline
 90
4
 70
0
 10
68.258623
 20
-35.052444
 30
0.0
 10
68.258623
 20
-47.037801
 30
0.0
 10
80.243980
 20
-47.096249
 30
0.0
 10
80.185515
 20
-35.052444
 30
0.0
  0
LWPOLYLINE
  5
23b
100
AcDbEntity
  8
Layer_1
 62
7
100
AcDbPolyline
 90
6
 70
0
 10
86.226455
 20
-35.162168
 30
0.0
 10
86.226455
 20
-35.162168
 30
0.0
 10
86.226455
 20
-35.162168
 30
0.0
 10
86.226455
 20
-35.162168
 30
0.0
 10
86.226455
 20
-35.162168
 30
0.0
 10
86.226455
 20
-35.162168
 30
0.0
  0
LWPOLYLINE
  5
23c
100
AcDbEntity
  8
Layer_1
 62
7
100
AcDbPolyline
 90
2
 70
0
 10
86.236164
 20
-35.095535
 30
0.0
 10
95.236165
 20
-35.095535
 30
0.0
  0
LWPOLYLINE
  5
23d
100
AcDbEntity
  8
Layer_1
 62
7
100
AcDbPolyline
 90
2
 70
0
 10
89.177831
 20
-36.134988
 30
0.0
 10
98.177833
 20
-36.134988
 30
0.0
  0
LWPOLYLINE
  5
23e
100
AcDbEntity
  8
Layer_1
 62
7
100
AcDbPolyline
 90
2
 70
0
 10
86.297276
 20
-37.052210
 30
0.0
 10
95.297278
 20
-37.052210
 30
0.0
  0
LWPOLYLINE
  5
23f
100
AcDbEntity
  8
Layer_1
 62
7
100
AcDbPolyline
 90
2
 70
0
 10
89.082829
 20
-38.193319
 30
0.0
 10
98.082831
 20
-38.193319
 30
0.0
  0
LWPOLYLINE
  5
240
100
AcDbEntity
  8
Layer_1
 62
7
100
AcDbPolyline
 90
2
 70
0
 10
104.536827
 20
-35.269537
 30
0.0
 10
104.214272
 20
-35.143891
 30
0.0
  0
LWPOLYLINE
  5
241
100
AcDbEntity
  8
Layer_1
 62
7
100
AcDbPolyline
 90
4
 70
0
 10
86.175788
 20
-35.018348
 30
0.0
 10
86.175788
 20
-47.003704
 30
0.0
 10
98.161145
 20
-47.062153
 30
0.0
 10
98.102680
 20
-35.018348
 30
0.0
  0
LWPOLYLINE
  5
242
100
AcDbEntity
  8
Layer_1
 62
7
100
AcDbPolyline
 90
6
 70
0
 10
104.214272
 20
-35.143891
 30
0.0
 10
104.214272
 20
-35.143891
 30
0.0
 10
104.214272
 20
-35.143891
 30
0.0
 10
104.214272
 20
-35.143891
 30
0.0
 10
104.214272
 20
-35.143891
 30
0.0
 10
104.214272
 20
-35.143891
 30
0.0
  0
LWPOLYLINE
  5
243
100
AcDbEntity
  8
Layer_1
 62
7
100
AcDbPolyline
 90
2
 70
0
 10
104.223981
 20
-35.077259
 30
0.0
 10
113.223983
 20
-35.077259
 30
0.0
  0
LWPOLYLINE
  5
244
100
AcDbEntity
  8
Layer_1
 62
7
100
AcDbPolyline
 90
2
 70
0
 10
107.165648
 20
-36.116711
 30
0.0
 10
116.165650
 20
-36.116711
 30
0.0
  0
LWPOLYLINE
  5
245
100
AcDbEntity
  8
Layer_1
 62
7
100
AcDbPolyline
 90
2
 70
0
 10
104.285093
 20
-37.033933
 30
0.0
 10
113.285095
 20
-37.033933
 30
0.0
  0
LWPOLYLINE
  5
246
100
AcDbEntity
  8
Layer_1
 62
7
100
AcDbPolyline
 90
2
 70
0
 10
107.070646
 20
-38.175043
 30
0.0
 10
116.070648
 20
-38.175043
 30
0.0
  0
LWPOLYLINE
  5
247
100
AcDbEntity
  8
Layer_1
 62
7
100
AcDbPolyline
 90
2
 70
0
 10
122.419897
 20
-35.263444
 30
0.0
 10
122.097343
 20
-35.137799
 30
0.0
  0
LWPOLYLINE
  5
248
100
AcDbEntity
  8
Layer_1
 62
7
100
AcDbPolyline
 90
4
 70
0
 10
104.163605
 20
-35.000071
 30
0.0
 10
104.163605
 20
-46.985428
 30
0.0
 10
116.148962
 20
-47.043876
 30
0.0
 10
116.090497
 20
-35.000071
 30
0.0
  0
LWPOLYLINE
  5
249
100
AcDbEntity
  8
Layer_1
 62
7
100
AcDbPolyline
 90
6
 70
0
 10
122.097343
 20
-35.137799
 30
0.0
 10
122.097343
 20
-35.137799
 30
0.0
 10
122.097343
 20
-35.137799
 30
0.0
 10
122.097343
 20
-35.137799
 30
0.0
 10
122.097343
 20
-35.137799
 30
0.0
 10
122.097343
 20
-35.137799
 30
0.0
  0
LWPOLYLINE
  5
24a
100
AcDbEntity
  8
Layer_1
 62
7
100
AcDbPolyline
 90
2
 70
0
 10
122.107051
 20
-35.071166
 30
0.0
 10
131.107053
 20
-35.071166
 30
0.0
  0
LWPOLYLINE
  5
24b
100
AcDbEntity
  8
Layer_1
 62
7
100
AcDbPolyline
 90
2
 70
0
 10
125.048718
 20
-36.110619
 30
0.0
 10
134.048720
 20
-36.110619
 30
0.0
  0
LWPOLYLINE
  5
24c
100
AcDbEntity
  8
Layer_1
 62
7
100
AcDbPolyline
 90
2
 70
0
 10
122.168164
 20
-37.027841
 30
0.0
 10
131.168165
 20
-37.027841
 30
0.0
  0
LWPOLYLINE
  5
24d
100
AcDbEntity
  8
Layer_1
 62
7
100
AcDbPolyline
 90
2
 70
0
 10
124.953717
 20
-38.168950
 30
0.0
 10
133.953718
 20
-38.168950
 30
0.0
  0
LWPOLYLINE
  5
24e
100
AcDbEntity
  8
Layer_1
 62
7
100
AcDbPolyline
 90
2
 70
0
 10
140.549012
 20
-35.340186
 30
0.0
 10
140.226457
 20
-35.214541
 30
0.0
  0
LWPOLYLINE
  5
24f
100
AcDbEntity
  8
Layer_1
 62
7
100
AcDbPolyline
 90
4
 70
0
 10
122.046675
 20
-34.993979
 30
0.0
 10
122.046675
 20
-46.979335
 30
0.0
 10
134.032032
 20
-47.037784
 30
0.0
 10
133.973567
 20
-34.993979
 30
0.0
  0
LWPOLYLINE
  5
250
100
AcDbEntity
  8
Layer_1
 62
7
100
AcDbPolyline
 90
6
 70
0
 10
140.226457
 20
-35.214541
 30
0.0
 10
140.226457
 20
-35.214541
 30
0.0
 10
140.226457
 20
-35.214541
 30
0.0
 10
140.226457
 20
-35.214541
 30
0.0
 10
140.226457
 20
-35.214541
 30
0.0
 10
140.226457
 20
-35.214541
 30
0.0
  0
LWPOLYLINE
  5
251
100
AcDbEntity
  8
Layer_1
 62
7
100
AcDbPolyline
 90
2
 70
0
 10
140.236166
 20
-35.147908
 30
0.0
 10
149.236168
 20
-35.147908
 30
0.0
  0
LWPOLYLINE
  5
252
100
AcDbEntity
  8
Layer_1
 62
7
100
AcDbPolyline
 90
2
 70
0
 10
143.177833
 20
-36.187361
 30
0.0
 10
152.177835
 20
-36.187361
 30
0.0
  0
LWPOLYLINE
  5
253
100
AcDbEntity
  8
Layer_1
 62
7
100
AcDbPolyline
 90
2
 70
0
 10
140.297278
 20
-37.104583
 30
0.0
 10
149.297280
 20
-37.104583
 30
0.0
  0
LWPOLYLINE
  5
254
100
AcDbEntity
  8
Layer_1
 62
7
100
AcDbPolyline
 90
2
 70
0
 10
143.082831
 20
-38.245692
 30
0.0
 10
152.082833
 20
-38.245692
 30
0.0
  0
LWPOLYLINE
  5
255
100
AcDbEntity
  8
Layer_1
 62
7
100
AcDbPolyline
 90
2
 70
0
 10
158.542919
 20
-35.328002
 30
0.0
 10
158.220365
 20
-35.202356
 30
0.0
  0
LWPOLYLINE
  5
256
100
AcDbEntity
  8
Layer_1
 62
7
100
AcDbPolyline
 90
4
 70
0
 10
140.175790
 20
-35.070720
 30
0.0
 10
140.175790
 20
-47.056077
 30
0.0
 10
152.161147
 20
-47.114526
 30
0.0
 10
152.102682
 20
-35.070720
 30
0.0
  0
LWPOLYLINE
  5
257
100
AcDbEntity
  8
Layer_1
 62
7
100
AcDbPolyline
 90
6
 70
0
 10
158.220365
 20
-35.202356
 30
0.0
 10
158.220365
 20
-35.202356
 30
0.0
 10
158.220365
 20
-35.202356
 30
0.0
 10
158.220365
 20
-35.202356
 30
0.0
 10
158.220365
 20
-35.202356
 30
0.0
 10
158.220365
 20
-35.202356
 30
0.0
  0
LWPOLYLINE
  5
258
100
AcDbEntity
  8
Layer_1
 62
7
100
AcDbPolyline
 90
2
 70
0
 10
158.230073
 20
-35.135724
 30
0.0
 10
167.230075
 20
-35.135724
 30
0.0
  0
LWPOLYLINE
  5
259
100
AcDbEntity
  8
Layer_1
 62
7
100
AcDbPolyline
 90
2
 70
0
 10
161.171740
 20
-36.175176
 30
0.0
 10
170.171742
 20
-36.175176
 30
0.0
  0
LWPOLYLINE
  5
25a
100
AcDbEntity
  8
Layer_1
 62
7
100
AcDbPolyline
 90
2
 70
0
 10
158.291186
 20
-37.092399
 30
0.0
 10
167.291187
 20
-37.092399
 30
0.0
  0
LWPOLYLINE
  5
25b
100
AcDbEntity
  8
Layer_1
 62
7
100
AcDbPolyline
 90
2
 70
0
 10
161.076739
 20
-38.233508
 30
0.0
 10
170.076741
 20
-38.233508
 30
0.0
  0
LWPOLYLINE
  5
25c
100
AcDbEntity
  8
Layer_1
 62
7
100
AcDbPolyline
 90
2
 70
0
 10
176.611351
 20
-35.324855
 30
0.0
 10
176.288796
 20
-35.199210
 30
0.0
  0
LWPOLYLINE
  5
25d
100
AcDbEntity
  8
Layer_1
 62
7
100
AcDbPolyline
 90
4
 70
0
 10
158.169697
 20
-35.058536
 30
0.0
 10
158.169697
 20
-47.043893
 30
0.0
 10
170.155054
 20
-47.102341
 30
0.0
 10
170.096589
 20
-35.058536
 30
0.0
  0
LWPOLYLINE
  5
25e
100
AcDbEntity
  8
Layer_1
 62
7
100
AcDbPolyline
 90
6
 70
0
 10
176.288796
 20
-35.199210
 30
0.0
 10
176.288796
 20
-35.199210
 30
0.0
 10
176.288796
 20
-35.199210
 30
0.0
 10
176.288796
 20
-35.199210
 30
0.0
 10
176.288796
 20
-35.199210
 30
0.0
 10
176.288796
 20
-35.199210
 30
0.0
  0
LWPOLYLINE
  5
25f
100
AcDbEntity
  8
Layer_1
 62
7
100
AcDbPolyline
 90
2
 70
0
 10
176.298504
 20
-35.132577
 30
0.0
 10
185.298506
 20
-35.132577
 30
0.0
  0
LWPOLYLINE
  5
260
100
AcDbEntity
  8
Layer_1
 62
7
100
AcDbPolyline
 90
2
 70
0
 10
179.240172
 20
-36.172030
 30
0.0
 10
188.240173
 20
-36.172030
 30
0.0
  0
LWPOLYLINE
  5
261
100
AcDbEntity
  8
Layer_1
 62
7
100
AcDbPolyline
 90
2
 70
0
 10
176.359617
 20
-37.089252
 30
0.0
 10
185.359619
 20
-37.089252
 30
0.0
  0
LWPOLYLINE
  5
262
100
AcDbEntity
  8
Layer_1
 62
7
100
AcDbPolyline
 90
2
 70
0
 10
179.145170
 20
-38.230361
 30
0.0
 10
188.145172
 20
-38.230361
 30
0.0
  0
LWPOLYLINE
  5
263
100
AcDbEntity
  8
Layer_1
 62
7
100
AcDbPolyline
 90
2
 70
0
 10
194.572721
 20
-35.399163
 30
0.0
 10
194.250166
 20
-35.273518
 30
0.0
  0
LWPOLYLINE
  5
264
100
AcDbEntity
  8
Layer_1
 62
7
100
AcDbPolyline
 90
4
 70
0
 10
176.238129
 20
-35.055389
 30
0.0
 10
176.238129
 20
-47.040746
 30
0.0
 10
188.223485
 20
-47.099194
 30
0.0
 10
188.165020
 20
-35.055389
 30
0.0
  0
LWPOLYLINE
  5
265
100
AcDbEntity
  8
Layer_1
 62
7
100
AcDbPolyline
 90
6
 70
0
 10
194.250166
 20
-35.273518
 30
0.0
 10
194.250166
 20
-35.273518
 30
0.0
 10
194.250166
 20
-35.273518
 30
0.0
 10
194.250166
 20
-35.273518
 30
0.0
 10
194.250166
 20
-35.273518
 30
0.0
 10
194.250166
 20
-35.273518
 30
0.0
  0
LWPOLYLINE
  5
266
100
AcDbEntity
  8
Layer_1
 62
7
100
AcDbPolyline
 90
2
 70
0
 10
194.259875
 20
-35.206885
 30
0.0
 10
203.259876
 20
-35.206885
 30
0.0
  0
LWPOLYLINE
  5
267
100
AcDbEntity
  8
Layer_1
 62
7
100
AcDbPolyline
 90
2
 70
0
 10
197.201542
 20
-36.246338
 30
0.0
 10
206.201543
 20
-36.246338
 30
0.0
  0
LWPOLYLINE
  5
268
100
AcDbEntity
  8
Layer_1
 62
7
100
AcDbPolyline
 90
2
 70
0
 10
194.320987
 20
-37.163560
 30
0.0
 10
203.320989
 20
-37.163560
 30
0.0
  0
LWPOLYLINE
  5
269
100
AcDbEntity
  8
Layer_1
 62
7
100
AcDbPolyline
 90
2
 70
0
 10
197.106540
 20
-38.304669
 30
0.0
 10
206.106542
 20
-38.304669
 30
0.0
  0
LWPOLYLINE
  5
26a
100
AcDbEntity
  8
Layer_1
 62
7
100
AcDbPolyline
 90
4
 70
0
 10
194.199499
 20
-35.129697
 30
0.0
 10
194.199499
 20
-47.115054
 30
0.0
 10
206.184856
 20
-47.173503
 30
0.0
 10
206.126390
 20
-35.129697
 30
0.0
  0
LWPOLYLINE
  5
26b
100
AcDbEntity
  8
Layer_1
 62
7
100
AcDbPolyline
 90
7
 70
0
 10
212.610787
 20
-35.386232
 30
0.0
 10
212.288233
 20
-35.260586
 30
0.0
 10
212.288233
 20
-35.260586
 30
0.0
 10
212.288233
 20
-35.260586
 30
0.0
 10
212.288233
 20
-35.260586
 30
0.0
 10
212.288233
 20
-35.260586
 30
0.0
 10
212.288233
 20
-35.260586
 30
0.0
  0
LWPOLYLINE
  5
26c
100
AcDbEntity
  8
Layer_1
 62
7
100
AcDbPolyline
 90
2
 70
0
 10
212.297941
 20
-35.193954
 30
0.0
 10
221.297943
 20
-35.193954
 30
0.0
  0
LWPOLYLINE
  5
26d
100
AcDbEntity
  8
Layer_1
 62
7
100
AcDbPolyline
 90
2
 70
0
 10
215.239608
 20
-36.233406
 30
0.0
 10
224.239610
 20
-36.233406
 30
0.0
  0
LWPOLYLINE
  5
26e
100
AcDbEntity
  8
Layer_1
 62
7
100
AcDbPolyline
 90
2
 70
0
 10
212.359054
 20
-37.150629
 30
0.0
 10
221.359055
 20
-37.150629
 30
0.0
  0
LWPOLYLINE
  5
26f
100
AcDbEntity
  8
Layer_1
 62
7
100
AcDbPolyline
 90
2
 70
0
 10
215.144607
 20
-38.291738
 30
0.0
 10
224.144609
 20
-38.291738
 30
0.0
  0
LWPOLYLINE
  5
270
100
AcDbEntity
  8
Layer_1
 62
7
100
AcDbPolyline
 90
4
 70
0
 10
212.237566
 20
-35.116766
 30
0.0
 10
212.237566
 20
-47.102123
 30
0.0
 10
224.222922
 20
-47.160571
 30
0.0
 10
224.164457
 20
-35.116766
 30
0.0
  0
LWPOLYLINE
  5
271
100
AcDbEntity
  8
Layer_1
 62
7
100
AcDbPolyline
 90
48
 70
0
 10
26.020907
 20
-9.972236
 30
0.0
 10
25.642994
 20
-10.321045
 30
0.0
 10
25.264199
 20
-10.570195
 30
0.0
 10
24.884522
 20
-10.719684
 30
0.0
 10
24.503963
 20
-10.769514
 30
0.0
 10
24.216449
 20
-10.737764
 30
0.0
 10
23.918351
 20
-10.642514
 30
0.0
 10
23.617167
 20
-10.482000
 30
0.0
 10
23.263949
 20
-10.233292
 30
0.0
 10
22.401407
 20
-9.471292
 30
0.0
 10
21.992185
 20
-9.513625
 30
0.0
 10
21.701143
 20
-9.492238
 30
0.0
 10
21.448907
 20
-9.428077
 30
0.0
 10
21.235477
 20
-9.321141
 30
0.0
 10
21.060851
 20
-9.171431
 30
0.0
 10
20.925032
 20
-8.978946
 30
0.0
 10
20.828018
 20
-8.743688
 30
0.0
 10
20.769810
 20
-8.465654
 30
0.0
 10
20.750407
 20
-8.144847
 30
0.0
 10
20.778078
 20
-7.675873
 30
0.0
 10
20.861091
 20
-7.246146
 30
0.0
 10
20.999446
 20
-6.855665
 30
0.0
 10
21.193143
 20
-6.504430
 30
0.0
 10
21.442182
 20
-6.192443
 30
0.0
 10
21.746563
 20
-5.919701
 30
0.0
 10
22.106286
 20
-5.686206
 30
0.0
 10
22.521351
 20
-5.491958
 30
0.0
 10
23.022296
 20
-5.343792
 30
0.0
 10
23.523240
 20
-5.294403
 30
0.0
 10
23.881751
 20
-5.342910
 30
0.0
 10
24.174115
 20
-5.488431
 30
0.0
 10
24.400334
 20
-5.730966
 30
0.0
 10
24.560407
 20
-6.070514
 30
0.0
 10
24.613324
 20
-6.333333
 30
0.0
 10
24.630963
 20
-6.698458
 30
0.0
 10
24.568345
 20
-7.393871
 30
0.0
 10
24.380491
 20
-7.998444
 30
0.0
 10
24.067400
 20
-8.512177
 30
0.0
 10
23.629074
 20
-8.935070
 30
0.0
 10
22.951740
 20
-9.337236
 30
0.0
 10
23.580126
 20
-9.812604
 30
0.0
 10
24.124726
 20
-10.152153
 30
0.0
 10
24.585543
 20
-10.355882
 30
0.0
 10
24.962574
 20
-10.423792
 30
0.0
 10
25.226716
 20
-10.373962
 30
0.0
 10
25.433532
 20
-10.224473
 30
0.0
 10
25.583022
 20
-9.975323
 30
0.0
 10
25.675185
 20
-9.626514
 30
0.0
  0
LWPOLYLINE
  5
272
100
AcDbEntity
  8
Layer_1
 62
7
100
AcDbPolyline
 90
23
 70
0
 10
24.052407
 20
-6.896014
 30
0.0
 10
23.997727
 20
-6.391541
 30
0.0
 10
23.833685
 20
-5.992903
 30
0.0
 10
23.686841
 20
-5.810781
 30
0.0
 10
23.507365
 20
-5.680694
 30
0.0
 10
23.295258
 20
-5.602642
 30
0.0
 10
23.050518
 20
-5.576625
 30
0.0
 10
22.703032
 20
-5.622486
 30
0.0
 10
22.380240
 20
-5.760070
 30
0.0
 10
22.131532
 20
-5.935136
 30
0.0
 10
21.914574
 20
-6.149889
 30
0.0
 10
21.729365
 20
-6.404330
 30
0.0
 10
21.575907
 20
-6.698458
 30
0.0
 10
21.390699
 20
-7.284069
 30
0.0
 10
21.328963
 20
-7.926125
 30
0.0
 10
21.376588
 20
-8.398847
 30
0.0
 10
21.519463
 20
-8.801014
 30
0.0
 10
21.653077
 20
-9.001656
 30
0.0
 10
21.814032
 20
-9.144972
 30
0.0
 10
22.002327
 20
-9.230962
 30
0.0
 10
22.217963
 20
-9.259625
 30
0.0
 10
22.417282
 20
-9.213764
 30
0.0
 10
22.634240
 20
-9.076181
 30
0.0
  0
LWPOLYLINE
  5
273
100
AcDbEntity
  8
Layer_1
 62
7
100
AcDbPolyline
 90
5
 70
0
 10
25.675185
 20
-9.626514
 30
0.0
 10
26.020907
 20
-9.972236
 30
0.0
 10
26.020907
 20
-9.972236
 30
0.0
 10
25.675185
 20
-9.626514
 30
0.0
 10
25.675185
 20
-9.626514
 30
0.0
  0
LWPOLYLINE
  5
274
100
AcDbEntity
  8
Layer_1
 62
7
100
AcDbPolyline
 90
7
 70
0
 10
22.789463
 20
-9.210236
 30
0.0
 10
23.084032
 20
-9.065597
 30
0.0
 10
23.332740
 20
-8.885681
 30
0.0
 10
23.641421
 20
-8.504681
 30
0.0
 10
23.876018
 20
-7.968458
 30
0.0
 10
24.008310
 20
-7.432236
 30
0.0
 10
24.052407
 20
-6.896014
 30
0.0
  0
LWPOLYLINE
  5
275
100
AcDbEntity
  8
Layer_1
 62
7
100
AcDbPolyline
 90
4
 70
0
 10
22.634240
 20
-9.076181
 30
0.0
 10
22.789463
 20
-9.210236
 30
0.0
 10
22.634240
 20
-9.076181
 30
0.0
 10
22.634240
 20
-9.076181
 30
0.0
  0
LWPOLYLINE
  5
276
100
AcDbEntity
  8
Layer_1
 62
7
100
AcDbPolyline
 90
4
 70
0
 10
24.052407
 20
-6.896014
 30
0.0
 10
24.052407
 20
-6.896014
 30
0.0
 10
24.052407
 20
-6.896014
 30
0.0
 10
24.052407
 20
-6.896014
 30
0.0
  0
LWPOLYLINE
  5
277
100
AcDbEntity
  8
Layer_1
 62
7
100
AcDbPolyline
 90
7
 70
0
 10
30.861587
 20
-27.214829
 30
0.0
 10
29.845587
 20
-27.355940
 30
0.0
 10
29.640976
 20
-27.384162
 30
0.0
 10
29.519268
 20
-27.355940
 30
0.0
 10
29.478698
 20
-27.271273
 30
0.0
 10
29.478698
 20
-27.278329
 30
0.0
 10
29.485754
 20
-27.250106
 30
0.0
  0
LWPOLYLINE
  5
278
100
AcDbEntity
  8
Layer_1
 62
7
100
AcDbPolyline
 90
4
 70
0
 10
30.974476
 20
-27.045495
 30
0.0
 10
30.861587
 20
-27.214829
 30
0.0
 10
30.974476
 20
-27.045495
 30
0.0
 10
30.974476
 20
-27.045495
 30
0.0
  0
LWPOLYLINE
  5
279
100
AcDbEntity
  8
Layer_1
 62
7
100
AcDbPolyline
 90
8
 70
0
 10
29.492809
 20
-27.193662
 30
0.0
 10
29.648031
 20
-26.050662
 30
0.0
 10
28.399198
 20
-26.022440
 30
0.0
 10
27.750087
 20
-26.735051
 30
0.0
 10
27.333809
 20
-27.100176
 30
0.0
 10
27.002198
 20
-27.278329
 30
0.0
 10
26.663531
 20
-27.334773
 30
0.0
 10
26.289587
 20
-27.271273
 30
0.0
  0
LWPOLYLINE
  5
27a
100
AcDbEntity
  8
Layer_1
 62
7
100
AcDbPolyline
 90
4
 70
0
 10
29.485754
 20
-27.250106
 30
0.0
 10
29.492809
 20
-27.193662
 30
0.0
 10
29.485754
 20
-27.250106
 30
0.0
 10
29.485754
 20
-27.250106
 30
0.0
  0
LWPOLYLINE
  5
27b
100
AcDbEntity
  8
Layer_1
 62
7
100
AcDbPolyline
 90
7
 70
0
 10
26.557698
 20
-26.777384
 30
0.0
 10
26.868143
 20
-26.826773
 30
0.0
 10
27.099212
 20
-26.805606
 30
0.0
 10
27.298531
 20
-26.742106
 30
0.0
 10
27.532688
 20
-26.583797
 30
0.0
 10
27.832990
 20
-26.299370
 30
0.0
 10
28.632031
 20
-25.352162
 30
0.0
  0
LWPOLYLINE
  5
27c
100
AcDbEntity
  8
Layer_1
 62
7
100
AcDbPolyline
 90
4
 70
0
 10
26.289587
 20
-27.271273
 30
0.0
 10
26.557698
 20
-26.777384
 30
0.0
 10
26.289587
 20
-27.271273
 30
0.0
 10
26.289587
 20
-27.271273
 30
0.0
  0
LWPOLYLINE
  5
27d
100
AcDbEntity
  8
Layer_1
 62
7
100
AcDbPolyline
 90
9
 70
0
 10
29.852643
 20
-23.771718
 30
0.0
 10
29.379920
 20
-23.736440
 30
0.0
 10
28.836643
 20
-23.687051
 30
0.0
 10
28.478573
 20
-23.727179
 30
0.0
 10
28.222809
 20
-23.847565
 30
0.0
 10
28.069351
 20
-24.048207
 30
0.0
 10
28.018198
 20
-24.329106
 30
0.0
 10
28.055240
 20
-24.606037
 30
0.0
 10
28.166365
 20
-24.985273
 30
0.0
  0
LWPOLYLINE
  5
27e
100
AcDbEntity
  8
Layer_1
 62
7
100
AcDbPolyline
 90
4
 70
0
 10
28.632031
 20
-25.352162
 30
0.0
 10
29.852643
 20
-23.771718
 30
0.0
 10
28.632031
 20
-25.352162
 30
0.0
 10
28.632031
 20
-25.352162
 30
0.0
  0
LWPOLYLINE
  5
27f
100
AcDbEntity
  8
Layer_1
 62
7
100
AcDbPolyline
 90
12
 70
0
 10
27.644254
 20
-25.267495
 30
0.0
 10
27.545476
 20
-24.787718
 30
0.0
 10
27.577226
 20
-24.509023
 30
0.0
 10
27.672476
 20
-24.251495
 30
0.0
 10
27.917656
 20
-23.891662
 30
0.0
 10
28.258087
 20
-23.574162
 30
0.0
 10
28.674365
 20
-23.330745
 30
0.0
 10
29.076531
 20
-23.249606
 30
0.0
 10
29.718587
 20
-23.320162
 30
0.0
 10
30.120754
 20
-23.369551
 30
0.0
 10
30.288323
 20
-23.313107
 30
0.0
 10
30.494698
 20
-23.143773
 30
0.0
  0
LWPOLYLINE
  5
280
100
AcDbEntity
  8
Layer_1
 62
7
100
AcDbPolyline
 90
4
 70
0
 10
28.166365
 20
-24.985273
 30
0.0
 10
27.644254
 20
-25.267495
 30
0.0
 10
28.166365
 20
-24.985273
 30
0.0
 10
28.166365
 20
-24.985273
 30
0.0
  0
LWPOLYLINE
  5
281
100
AcDbEntity
  8
Layer_1
 62
7
100
AcDbPolyline
 90
9
 70
0
 10
30.593476
 20
-23.214329
 30
0.0
 10
30.353587
 20
-24.597218
 30
0.0
 10
30.141920
 20
-26.177662
 30
0.0
 10
30.092531
 20
-26.763273
 30
0.0
 10
30.113698
 20
-26.922023
 30
0.0
 10
30.177198
 20
-27.017273
 30
0.0
 10
30.288323
 20
-27.064898
 30
0.0
 10
30.452365
 20
-27.080773
 30
0.0
 10
30.974476
 20
-27.045495
 30
0.0
  0
LWPOLYLINE
  5
282
100
AcDbEntity
  8
Layer_1
 62
7
100
AcDbPolyline
 90
4
 70
0
 10
30.494698
 20
-23.143773
 30
0.0
 10
30.593476
 20
-23.214329
 30
0.0
 10
30.494698
 20
-23.143773
 30
0.0
 10
30.494698
 20
-23.143773
 30
0.0
  0
LWPOLYLINE
  5
283
100
AcDbEntity
  8
Layer_1
 62
7
100
AcDbPolyline
 90
4
 70
0
 10
30.974476
 20
-27.045495
 30
0.0
 10
30.974476
 20
-27.045495
 30
0.0
 10
30.974476
 20
-27.045495
 30
0.0
 10
30.974476
 20
-27.045495
 30
0.0
  0
LWPOLYLINE
  5
284
100
AcDbEntity
  8
Layer_1
 62
7
100
AcDbPolyline
 90
14
 70
0
 10
39.355254
 20
-43.176245
 30
0.0
 10
39.323504
 20
-43.416134
 30
0.0
 10
39.228254
 20
-43.613690
 30
0.0
 10
38.817268
 20
-44.149912
 30
0.0
 10
38.586198
 20
-44.389801
 30
0.0
 10
38.349837
 20
-44.500925
 30
0.0
 10
38.092309
 20
-44.537967
 30
0.0
 10
38.089223
 20
-44.535762
 30
0.0
 10
37.988240
 20
-44.529148
 30
0.0
 10
37.492587
 20
-44.502690
 30
0.0
 10
36.377809
 20
-44.432134
 30
0.0
 10
35.679309
 20
-44.389801
 30
0.0
 10
35.352990
 20
-44.435662
 30
0.0
 10
35.023143
 20
-44.573245
 30
0.0
  0
LWPOLYLINE
  5
285
100
AcDbEntity
  8
Layer_1
 62
7
100
AcDbPolyline
 90
7
 70
0
 10
29.979643
 20
-23.948106
 30
0.0
 10
28.617920
 20
-25.733162
 30
0.0
 10
29.690365
 20
-25.733162
 30
0.0
 10
29.979643
 20
-23.948106
 30
0.0
 10
29.979643
 20
-23.948106
 30
0.0
 10
29.979643
 20
-23.948106
 30
0.0
 10
29.979643
 20
-23.948106
 30
0.0
  0
LWPOLYLINE
  5
286
100
AcDbEntity
  8
Layer_1
 62
7
100
AcDbPolyline
 90
2
 70
0
 10
35.023143
 20
-44.354523
 30
0.0
 10
36.088532
 20
-43.331467
 30
0.0
  0
LWPOLYLINE
  5
287
100
AcDbEntity
  8
Layer_1
 62
7
100
AcDbPolyline
 90
4
 70
0
 10
35.023143
 20
-44.573245
 30
0.0
 10
35.023143
 20
-44.354523
 30
0.0
 10
35.023143
 20
-44.573245
 30
0.0
 10
35.023143
 20
-44.573245
 30
0.0
  0
LWPOLYLINE
  5
288
100
AcDbEntity
  8
Layer_1
 62
7
100
AcDbPolyline
 90
7
 70
0
 10
38.480365
 20
-40.939634
 30
0.0
 10
37.661921
 20
-41.010190
 30
0.0
 10
37.210365
 20
-40.989023
 30
0.0
 10
36.751754
 20
-40.946690
 30
0.0
 10
36.610643
 20
-40.967856
 30
0.0
 10
36.406032
 20
-41.209509
 30
0.0
 10
36.003865
 20
-41.863912
 30
0.0
  0
LWPOLYLINE
  5
289
100
AcDbEntity
  8
Layer_1
 62
7
100
AcDbPolyline
 90
4
 70
0
 10
36.088532
 20
-43.331467
 30
0.0
 10
38.480365
 20
-40.939634
 30
0.0
 10
36.088532
 20
-43.331467
 30
0.0
 10
36.088532
 20
-43.331467
 30
0.0
  0
LWPOLYLINE
  5
28a
100
AcDbEntity
  8
Layer_1
 62
7
100
AcDbPolyline
 90
8
 70
0
 10
36.349587
 20
-40.671523
 30
0.0
 10
36.469532
 20
-40.466912
 30
0.0
 10
36.695309
 20
-40.403412
 30
0.0
 10
37.189198
 20
-40.452801
 30
0.0
 10
37.937087
 20
-40.523356
 30
0.0
 10
38.501532
 20
-40.565690
 30
0.0
 10
38.864893
 20
-40.493371
 30
0.0
 10
39.207087
 20
-40.276412
 30
0.0
  0
LWPOLYLINE
  5
28b
100
AcDbEntity
  8
Layer_1
 62
7
100
AcDbPolyline
 90
5
 70
0
 10
36.003865
 20
-41.863912
 30
0.0
 10
35.883921
 20
-41.687523
 30
0.0
 10
36.349587
 20
-40.671523
 30
0.0
 10
36.003865
 20
-41.863912
 30
0.0
 10
36.003865
 20
-41.863912
 30
0.0
  0
LWPOLYLINE
  5
28c
100
AcDbEntity
  8
Layer_1
 62
7
100
AcDbPolyline
 90
10
 70
0
 10
35.799254
 20
-43.952356
 30
0.0
 10
36.159087
 20
-43.917078
 30
0.0
 10
37.196254
 20
-43.980578
 30
0.0
 10
38.233421
 20
-44.037023
 30
0.0
 10
38.532841
 20
-44.002186
 30
0.0
 10
38.746712
 20
-43.897676
 30
0.0
 10
38.875035
 20
-43.723492
 30
0.0
 10
38.917809
 20
-43.479634
 30
0.0
 10
38.859601
 20
-43.232689
 30
0.0
 10
38.684976
 20
-42.886967
 30
0.0
  0
LWPOLYLINE
  5
28d
100
AcDbEntity
  8
Layer_1
 62
7
100
AcDbPolyline
 90
5
 70
0
 10
39.207087
 20
-40.276412
 30
0.0
 10
39.207087
 20
-40.481023
 30
0.0
 10
35.799254
 20
-43.952356
 30
0.0
 10
39.207087
 20
-40.276412
 30
0.0
 10
39.207087
 20
-40.276412
 30
0.0
  0
LWPOLYLINE
  5
28e
100
AcDbEntity
  8
Layer_1
 62
7
100
AcDbPolyline
 90
3
 70
0
 10
39.214143
 20
-42.569467
 30
0.0
 10
39.319976
 20
-42.911662
 30
0.0
 10
39.355254
 20
-43.176245
 30
0.0
  0
LWPOLYLINE
  5
28f
100
AcDbEntity
  8
Layer_1
 62
7
100
AcDbPolyline
 90
4
 70
0
 10
38.684976
 20
-42.886967
 30
0.0
 10
39.214143
 20
-42.569467
 30
0.0
 10
38.684976
 20
-42.886967
 30
0.0
 10
38.684976
 20
-42.886967
 30
0.0
  0
LWPOLYLINE
  5
290
100
AcDbEntity
  8
Layer_1
 62
7
100
AcDbPolyline
 90
3
 70
0
 10
85.310802
 20
-22.003482
 30
0.0
 10
85.240247
 20
-22.201038
 30
0.0
 10
84.795747
 20
-22.525594
 30
0.0
  0
LWPOLYLINE
  5
291
100
AcDbEntity
  8
Layer_1
 62
7
100
AcDbPolyline
 90
4
 70
0
 10
39.355254
 20
-43.176245
 30
0.0
 10
39.355254
 20
-43.176245
 30
0.0
 10
39.355254
 20
-43.176245
 30
0.0
 10
39.355254
 20
-43.176245
 30
0.0
  0
LWPOLYLINE
  5
292
100
AcDbEntity
  8
Layer_1
 62
7
100
AcDbPolyline
 90
13
 70
0
 10
84.330080
 20
-24.310649
 30
0.0
 10
84.040802
 20
-24.515260
 30
0.0
 10
83.144747
 20
-24.599927
 30
0.0
 10
82.968358
 20
-25.354871
 30
0.0
 10
82.839594
 20
-25.749982
 30
0.0
 10
82.679080
 20
-26.060427
 30
0.0
 10
82.467413
 20
-26.312663
 30
0.0
 10
82.142858
 20
-26.603705
 30
0.0
 10
81.820066
 20
-26.838302
 30
0.0
 10
81.507858
 20
-27.005871
 30
0.0
 10
81.206233
 20
-27.106413
 30
0.0
 10
80.915191
 20
-27.139927
 30
0.0
 10
80.562413
 20
-27.118760
 30
0.0
  0
LWPOLYLINE
  5
293
100
AcDbEntity
  8
Layer_1
 62
7
100
AcDbPolyline
 90
6
 70
0
 10
84.795747
 20
-22.525594
 30
0.0
 10
83.666858
 20
-22.497371
 30
0.0
 10
83.215302
 20
-24.310649
 30
0.0
 10
84.330080
 20
-24.310649
 30
0.0
 10
84.795747
 20
-22.525594
 30
0.0
 10
84.795747
 20
-22.525594
 30
0.0
  0
LWPOLYLINE
  5
294
100
AcDbEntity
  8
Layer_1
 62
7
100
AcDbPolyline
 90
8
 70
0
 10
80.837580
 20
-26.660149
 30
0.0
 10
81.310302
 20
-26.674260
 30
0.0
 10
81.733636
 20
-26.631927
 30
0.0
 10
81.904292
 20
-26.542850
 30
0.0
 10
82.056427
 20
-26.381455
 30
0.0
 10
82.190042
 20
-26.147740
 30
0.0
 10
82.305136
 20
-25.841705
 30
0.0
 10
82.432136
 20
-25.390149
 30
0.0
  0
LWPOLYLINE
  5
295
100
AcDbEntity
  8
Layer_1
 62
7
100
AcDbPolyline
 90
4
 70
0
 10
80.562413
 20
-27.118760
 30
0.0
 10
80.837580
 20
-26.660149
 30
0.0
 10
80.562413
 20
-27.118760
 30
0.0
 10
80.562413
 20
-27.118760
 30
0.0
  0
LWPOLYLINE
  5
296
100
AcDbEntity
  8
Layer_1
 62
7
100
AcDbPolyline
 90
10
 70
0
 10
83.151802
 20
-22.497371
 30
0.0
 10
82.813136
 20
-22.476205
 30
0.0
 10
82.370399
 20
-22.544996
 30
0.0
 10
82.187396
 20
-22.630986
 30
0.0
 10
82.029969
 20
-22.751371
 30
0.0
 10
81.903410
 20
-22.899097
 30
0.0
 10
81.813011
 20
-23.074163
 30
0.0
 10
81.740691
 20
-23.506316
 30
0.0
 10
81.775969
 20
-23.790302
 30
0.0
 10
81.881802
 20
-24.204816
 30
0.0
  0
LWPOLYLINE
  5
297
100
AcDbEntity
  8
Layer_1
 62
7
100
AcDbPolyline
 90
5
 70
0
 10
81.289136
 20
-24.472927
 30
0.0
 10
81.220344
 20
-24.210108
 30
0.0
 10
81.197413
 20
-23.929649
 30
0.0
 10
81.239747
 20
-23.545121
 30
0.0
 10
81.366747
 20
-23.195871
 30
0.0
  0
LWPOLYLINE
  5
298
100
AcDbEntity
  8
Layer_1
 62
7
100
AcDbPolyline
 90
6
 70
0
 10
83.384636
 20
-22.243371
 30
0.0
 10
83.702136
 20
-22.243371
 30
0.0
 10
84.012580
 20
-22.250427
 30
0.0
 10
84.788691
 20
-22.188691
 30
0.0
 10
85.081497
 20
-22.111520
 30
0.0
 10
85.310802
 20
-22.003482
 30
0.0
  0
LWPOLYLINE
  5
299
100
AcDbEntity
  8
Layer_1
 62
7
100
AcDbPolyline
 90
4
 70
0
 10
81.881802
 20
-24.204816
 30
0.0
 10
81.289136
 20
-24.472927
 30
0.0
 10
81.881802
 20
-24.204816
 30
0.0
 10
81.881802
 20
-24.204816
 30
0.0
  0
LWPOLYLINE
  5
29a
100
AcDbEntity
  8
Layer_1
 62
7
100
AcDbPolyline
 90
4
 70
0
 10
85.310802
 20
-22.003482
 30
0.0
 10
85.310802
 20
-22.003482
 30
0.0
 10
85.310802
 20
-22.003482
 30
0.0
 10
85.310802
 20
-22.003482
 30
0.0
  0
LWPOLYLINE
  5
29b
100
AcDbEntity
  8
Layer_1
 62
7
100
AcDbPolyline
 90
7
 70
0
 10
221.689405
 20
-18.128543
 30
0.0
 10
221.118269
 20
-18.003490
 30
0.0
 10
221.118269
 20
-18.003490
 30
0.0
 10
221.118269
 20
-18.003490
 30
0.0
 10
221.118269
 20
-18.003490
 30
0.0
 10
221.118269
 20
-18.003490
 30
0.0
 10
221.118269
 20
-18.003490
 30
0.0
  0
LWPOLYLINE
  5
29c
100
AcDbEntity
  8
Layer_1
 62
7
100
AcDbPolyline
 90
2
 70
0
 10
221.135459
 20
-17.937168
 30
0.0
 10
237.071425
 20
-17.937168
 30
0.0
  0
LWPOLYLINE
  5
29d
100
AcDbEntity
  8
Layer_1
 62
7
100
AcDbPolyline
 90
2
 70
0
 10
226.344161
 20
-18.971767
 30
0.0
 10
242.280130
 20
-18.971767
 30
0.0
  0
LWPOLYLINE
  5
29e
100
AcDbEntity
  8
Layer_1
 62
7
100
AcDbPolyline
 90
2
 70
0
 10
221.243669
 20
-19.884699
 30
0.0
 10
237.179640
 20
-19.884699
 30
0.0
  0
LWPOLYLINE
  5
29f
100
AcDbEntity
  8
Layer_1
 62
7
100
AcDbPolyline
 90
2
 70
0
 10
226.175940
 20
-21.020474
 30
0.0
 10
242.111914
 20
-21.020474
 30
0.0
  0
LWPOLYLINE
  5
2a0
100
AcDbEntity
  8
Layer_1
 62
7
100
AcDbPolyline
 90
4
 70
0
 10
221.546804
 20
-17.714664
 30
0.0
 10
221.546804
 20
-29.643944
 30
0.0
 10
242.768831
 20
-29.702110
 30
0.0
 10
242.665309
 20
-17.714664
 30
0.0
  0
LWPOLYLINE
  5
2a1
100
AcDbEntity
  8
Layer_1
 62
7
100
AcDbPolyline
 90
14
 70
0
 10
149.411557
 20
-40.190955
 30
0.0
 10
148.974113
 20
-40.127455
 30
0.0
 10
148.861224
 20
-40.168024
 30
0.0
 10
148.762446
 20
-40.289733
 30
0.0
 10
148.561363
 20
-40.866524
 30
0.0
 10
148.226224
 20
-42.117122
 30
0.0
 10
147.924599
 20
-43.365955
 30
0.0
 10
147.824057
 20
-43.951566
 30
0.0
 10
147.846106
 20
-44.075038
 30
0.0
 10
147.912252
 20
-44.163232
 30
0.0
 10
148.022495
 20
-44.216149
 30
0.0
 10
148.176835
 20
-44.233788
 30
0.0
 10
148.452002
 20
-44.219677
 30
0.0
 10
148.734224
 20
-44.198510
 30
0.0
  0
LWPOLYLINE
  5
2a2
100
AcDbEntity
  8
Layer_1
 62
7
100
AcDbPolyline
 90
4
 70
0
 10
149.700835
 20
-39.795844
 30
0.0
 10
149.411557
 20
-40.190955
 30
0.0
 10
149.700835
 20
-39.795844
 30
0.0
 10
149.700835
 20
-39.795844
 30
0.0
  0
LWPOLYLINE
  5
2a3
100
AcDbEntity
  8
Layer_1
 62
7
100
AcDbPolyline
 90
7
 70
0
 10
148.586057
 20
-44.374899
 30
0.0
 10
148.099224
 20
-44.431344
 30
0.0
 10
147.400724
 20
-44.508955
 30
0.0
 10
147.259613
 20
-44.530122
 30
0.0
 10
147.153780
 20
-44.494844
 30
0.0
 10
147.118502
 20
-44.389010
 30
0.0
 10
147.160835
 20
-44.135010
 30
0.0
  0
LWPOLYLINE
  5
2a4
100
AcDbEntity
  8
Layer_1
 62
7
100
AcDbPolyline
 90
4
 70
0
 10
148.734224
 20
-44.198510
 30
0.0
 10
148.586057
 20
-44.374899
 30
0.0
 10
148.734224
 20
-44.198510
 30
0.0
 10
148.734224
 20
-44.198510
 30
0.0
  0
LWPOLYLINE
  5
2a5
100
AcDbEntity
  8
Layer_1
 62
7
100
AcDbPolyline
 90
4
 70
0
 10
147.548891
 20
-42.738010
 30
0.0
 10
147.951057
 20
-41.157566
 30
0.0
 10
146.659891
 20
-43.041399
 30
0.0
 10
146.067224
 20
-44.078566
 30
0.0
  0
LWPOLYLINE
  5
2a6
100
AcDbEntity
  8
Layer_1
 62
7
100
AcDbPolyline
 90
4
 70
0
 10
147.160835
 20
-44.135010
 30
0.0
 10
147.548891
 20
-42.738010
 30
0.0
 10
147.160835
 20
-44.135010
 30
0.0
 10
147.160835
 20
-44.135010
 30
0.0
  0
LWPOLYLINE
  5
2a7
100
AcDbEntity
  8
Layer_1
 62
7
100
AcDbPolyline
 90
10
 70
0
 10
145.721502
 20
-44.346677
 30
0.0
 10
145.453391
 20
-41.178733
 30
0.0
 10
145.086502
 20
-42.582788
 30
0.0
 10
144.903057
 20
-43.186038
 30
0.0
 10
144.733724
 20
-43.598788
 30
0.0
 10
144.410932
 20
-44.066219
 30
0.0
 10
144.219110
 20
-44.232465
 30
0.0
 10
144.007002
 20
-44.353733
 30
0.0
 10
143.608363
 20
-44.448983
 30
0.0
 10
142.991002
 20
-44.480733
 30
0.0
  0
LWPOLYLINE
  5
2a8
100
AcDbEntity
  8
Layer_1
 62
7
100
AcDbPolyline
 90
4
 70
0
 10
146.067224
 20
-44.078566
 30
0.0
 10
145.721502
 20
-44.346677
 30
0.0
 10
146.067224
 20
-44.078566
 30
0.0
 10
146.067224
 20
-44.078566
 30
0.0
  0
LWPOLYLINE
  5
2a9
100
AcDbEntity
  8
Layer_1
 62
7
100
AcDbPolyline
 90
16
 70
0
 10
143.315557
 20
-43.993899
 30
0.0
 10
143.728308
 20
-44.020358
 30
0.0
 10
143.837668
 20
-44.029177
 30
0.0
 10
144.024200
 20
-44.007129
 30
0.0
 10
144.188682
 20
-43.940983
 30
0.0
 10
144.331116
 20
-43.830740
 30
0.0
 10
144.451502
 20
-43.676399
 30
0.0
 10
144.790168
 20
-42.653344
 30
0.0
 10
145.269946
 20
-40.868288
 30
0.0
 10
144.761946
 20
-40.825955
 30
0.0
 10
144.342141
 20
-40.870493
 30
0.0
 10
144.042280
 20
-41.004108
 30
0.0
 10
143.862363
 20
-41.226799
 30
0.0
 10
143.802391
 20
-41.538566
 30
0.0
 10
143.858835
 20
-41.831371
 30
0.0
 10
144.028168
 20
-42.286455
 30
0.0
  0
LWPOLYLINE
  5
2aa
100
AcDbEntity
  8
Layer_1
 62
7
100
AcDbPolyline
 90
4
 70
0
 10
142.991002
 20
-44.480733
 30
0.0
 10
143.315557
 20
-43.993899
 30
0.0
 10
142.991002
 20
-44.480733
 30
0.0
 10
142.991002
 20
-44.480733
 30
0.0
  0
LWPOLYLINE
  5
2ab
100
AcDbEntity
  8
Layer_1
 62
7
100
AcDbPolyline
 90
11
 70
0
 10
143.491946
 20
-42.660399
 30
0.0
 10
143.370238
 20
-42.297038
 30
0.0
 10
143.329668
 20
-42.011288
 30
0.0
 10
143.354803
 20
-41.772722
 30
0.0
 10
143.430210
 20
-41.529747
 30
0.0
 10
143.731835
 20
-41.030566
 30
0.0
 10
144.155169
 20
-40.614288
 30
0.0
 10
144.377419
 20
-40.480233
 30
0.0
 10
144.606724
 20
-40.395566
 30
0.0
 10
145.023002
 20
-40.353233
 30
0.0
 10
145.594502
 20
-40.395566
 30
0.0
  0
LWPOLYLINE
  5
2ac
100
AcDbEntity
  8
Layer_1
 62
7
100
AcDbPolyline
 90
4
 70
0
 10
144.028168
 20
-42.286455
 30
0.0
 10
143.491946
 20
-42.660399
 30
0.0
 10
144.028168
 20
-42.286455
 30
0.0
 10
144.028168
 20
-42.286455
 30
0.0
  0
LWPOLYLINE
  5
2ad
100
AcDbEntity
  8
Layer_1
 62
7
100
AcDbPolyline
 90
4
 70
0
 10
145.813224
 20
-40.219177
 30
0.0
 10
146.003724
 20
-41.566788
 30
0.0
 10
146.180113
 20
-43.344788
 30
0.0
 10
147.555946
 20
-41.376288
 30
0.0
  0
LWPOLYLINE
  5
2ae
100
AcDbEntity
  8
Layer_1
 62
7
100
AcDbPolyline
 90
4
 70
0
 10
145.594502
 20
-40.395566
 30
0.0
 10
145.813224
 20
-40.219177
 30
0.0
 10
145.594502
 20
-40.395566
 30
0.0
 10
145.594502
 20
-40.395566
 30
0.0
  0
LWPOLYLINE
  5
2af
100
AcDbEntity
  8
Layer_1
 62
7
100
AcDbPolyline
 90
6
 70
0
 10
148.106280
 20
-40.607233
 30
0.0
 10
148.416724
 20
-40.226233
 30
0.0
 10
148.762446
 20
-39.993399
 30
0.0
 10
149.127571
 20
-39.813482
 30
0.0
 10
149.418613
 20
-39.753510
 30
0.0
 10
149.700835
 20
-39.795844
 30
0.0
  0
LWPOLYLINE
  5
2b0
100
AcDbEntity
  8
Layer_1
 62
7
100
AcDbPolyline
 90
4
 70
0
 10
147.555946
 20
-41.376288
 30
0.0
 10
148.106280
 20
-40.607233
 30
0.0
 10
147.555946
 20
-41.376288
 30
0.0
 10
147.555946
 20
-41.376288
 30
0.0
  0
LWPOLYLINE
  5
2b1
100
AcDbEntity
  8
Layer_1
 62
7
100
AcDbPolyline
 90
4
 70
0
 10
149.700835
 20
-39.795844
 30
0.0
 10
149.700835
 20
-39.795844
 30
0.0
 10
149.700835
 20
-39.795844
 30
0.0
 10
149.700835
 20
-39.795844
 30
0.0
  0
LWPOLYLINE
  5
2b2
100
AcDbEntity
  8
Layer_1
 62
7
100
AcDbPolyline
 90
4
 70
0
 10
91.904524
 20
10.333991
 30
0.0
 10
91.833968
 20
10.404547
 30
0.0
 10
91.904524
 20
10.333991
 30
0.0
 10
91.904524
 20
10.333991
 30
0.0
  0
SPLINE
  5
2b3
100
AcDbEntity
  8
Layer_1
 62
7
100
AcDbSpline
 70
8
 71
3
 72
8
 73
4
 74
0
 40
0
 40
0
 40
0
 40
0
 40
1
 40
1
 40
1
 40
1
 10
82.967492
 20
-53.425880
 30
0.0
 10
82.529724
 20
-53.396885
 30
0.0
 10
82.106762
 20
-53.354902
 30
0.0
 10
81.701733
 20
-53.302590
 30
0.0
  0
LWPOLYLINE
  5
2b4
100
AcDbEntity
  8
Layer_1
 62
7
100
AcDbPolyline
 90
4
 70
0
 10
92.572092
 20
13.145517
 30
0.0
 10
92.572092
 20
13.145517
 30
0.0
 10
92.572092
 20
13.145517
 30
0.0
 10
92.572092
 20
13.145517
 30
0.0
  0
LWPOLYLINE
  5
2b5
100
AcDbEntity
  8
Layer_1
 62
7
100
AcDbPolyline
 90
6
 70
1
 10
81.701733
 20
-53.302590
 30
0.0
 10
81.701733
 20
-53.302590
 30
0.0
 10
81.701733
 20
-53.302590
 30
0.0
 10
81.701733
 20
-53.302590
 30
0.0
 10
81.701733
 20
-53.302590
 30
0.0
 10
81.701733
 20
-53.302590
 30
0.0
  0
LWPOLYLINE
  5
2b6
100
AcDbEntity
  8
Layer_1
 62
7
100
AcDbPolyline
 90
2
 70
0
 10
81.739828
 20
-53.237206
 30
0.0
 10
117.057343
 20
-53.237206
 30
0.0
  0
LWPOLYLINE
  5
2b7
100
AcDbEntity
  8
Layer_1
 62
7
100
AcDbPolyline
 90
2
 70
0
 10
93.283426
 20
-54.257176
 30
0.0
 10
128.600937
 20
-54.257176
 30
0.0
  0
LWPOLYLINE
  5
2b8
100
AcDbEntity
  8
Layer_1
 62
7
100
AcDbPolyline
 90
2
 70
0
 10
81.979645
 20
-55.157207
 30
0.0
 10
117.297160
 20
-55.157207
 30
0.0
  0
LWPOLYLINE
  5
2b9
100
AcDbEntity
  8
Layer_1
 62
7
100
AcDbPolyline
 90
2
 70
0
 10
92.910622
 20
-56.276928
 30
0.0
 10
128.228137
 20
-56.276928
 30
0.0
  0
SPLINE
  5
2ba
100
AcDbEntity
  8
Layer_1
 62
7
100
AcDbSpline
 70
8
 71
3
 72
8
 73
4
 74
0
 40
0
 40
0
 40
0
 40
0
 40
1
 40
1
 40
1
 40
1
 10
230.505349
 20
-35.403938
 30
0.0
 10
230.388714
 20
-35.374410
 30
0.0
 10
230.276025
 20
-35.331648
 30
0.0
 10
230.168112
 20
-35.278372
 30
0.0
  0
LWPOLYLINE
  5
2bb
100
AcDbEntity
  8
Layer_1
 62
7
100
AcDbPolyline
 90
4
 70
0
 10
81.502907
 20
-53.161465
 30
0.0
 10
81.502907
 20
-64.922180
 30
0.0
 10
128.535453
 20
-64.979533
 30
0.0
 10
128.306024
 20
-53.161465
 30
0.0
  0
LWPOLYLINE
  5
2bc
100
AcDbEntity
  8
Layer_1
 62
7
100
AcDbPolyline
 90
6
 70
1
 10
230.168112
 20
-35.278372
 30
0.0
 10
230.168112
 20
-35.278372
 30
0.0
 10
230.168112
 20
-35.278372
 30
0.0
 10
230.168112
 20
-35.278372
 30
0.0
 10
230.168112
 20
-35.278372
 30
0.0
 10
230.168112
 20
-35.278372
 30
0.0
  0
LWPOLYLINE
  5
2bd
100
AcDbEntity
  8
Layer_1
 62
7
100
AcDbPolyline
 90
2
 70
0
 10
230.178262
 20
-35.211777
 30
0.0
 10
239.587931
 20
-35.211777
 30
0.0
  0
LWPOLYLINE
  5
2be
100
AcDbEntity
  8
Layer_1
 62
7
100
AcDbPolyline
 90
2
 70
0
 10
233.253831
 20
-36.250627
 30
0.0
 10
242.663502
 20
-36.250627
 30
0.0
  0
LWPOLYLINE
  5
2bf
100
AcDbEntity
  8
Layer_1
 62
7
100
AcDbPolyline
 90
2
 70
0
 10
230.242157
 20
-37.167312
 30
0.0
 10
239.651829
 20
-37.167312
 30
0.0
  0
LWPOLYLINE
  5
2c0
100
AcDbEntity
  8
Layer_1
 62
7
100
AcDbPolyline
 90
2
 70
0
 10
233.154502
 20
-38.307755
 30
0.0
 10
242.564176
 20
-38.307755
 30
0.0
  0
LWPOLYLINE
  5
2c1
100
AcDbEntity
  8
Layer_1
 62
7
100
AcDbPolyline
 90
4
 70
0
 10
230.421148
 20
-34.988358
 30
0.0
 10
230.421148
 20
-46.966666
 30
0.0
 10
242.952064
 20
-47.025071
 30
0.0
 10
242.890938
 20
-34.988358
 30
0.0
  0
LWPOLYLINE
  5
2c2
100
AcDbEntity
  8
Layer_1
 62
7
100
AcDbPolyline
 90
3
 70
0
 10
238.477778
 20
-22.577776
 30
0.0
 10
238.477778
 20
-26.811110
 30
0.0
 10
225.777778
 20
-26.811110
 30
0.0
  0
LWPOLYLINE
  5
2c3
100
AcDbEntity
  8
Layer_1
 62
7
100
AcDbPolyline
 90
2
 70
0
 10
239.888889
 20
9.877779
 30
0.0
 10
232.833333
 20
9.877779
 30
0.0
  0
LWPOLYLINE
  5
2c4
100
AcDbEntity
  8
Layer_1
 62
7
100
AcDbPolyline
 90
2
 70
0
 10
236.496801
 20
-45.243777
 30
0.0
 10
236.496801
 20
-40.672200
 30
0.0
  0
LWPOLYLINE
  5
2c5
100
AcDbEntity
  8
Layer_1
 62
7
100
AcDbPolyline
 90
2
 70
0
 10
15.245046
 20
-45.337785
 30
0.0
 10
15.245046
 20
-40.766208
 30
0.0
  0
LWPOLYLINE
  5
2c6
100
AcDbEntity
  8
Layer_1
 62
7
100
AcDbPolyline
 90
3
 70
0
 10
8.466667
 20
-26.811110
 30
0.0
 10
11.288889
 20
-22.577776
 30
0.0
 10
14.111111
 20
-26.811110
 30
0.0
  0
LWPOLYLINE
  5
2c7
100
AcDbEntity
  8
Layer_1
 62
7
100
AcDbPolyline
 90
2
 70
0
 10
3.415848
 20
-7.638541
 30
0.0
 10
7.987424
 20
-7.638541
 30
0.0
  0
LWPOLYLINE
  5
2c8
100
AcDbEntity
  8
Layer_1
 62
7
100
AcDbPolyline
 90
2
 70
0
 10
8.673629
 20
-5.437490
 30
0.0
 10
8.673629
 20
-9.670823
 30
0.0
  0
SPLINE
  5
2c9
100
AcDbEntity
  8
Layer_1
 62
7
100
AcDbSpline
 70
8
 71
3
 72
8
 73
4
 74
0
 40
0
 40
0
 40
0
 40
0
 40
1
 40
1
 40
1
 40
1
 10
92.402155
 20
11.344601
 30
0.0
 10
92.483000
 20
11.372165
 30
0.0
 10
92.563846
 20
11.392372
 30
0.0
 10
92.644691
 20
11.405222
 30
0.0
  0
SPLINE
  5
2ca
100
AcDbEntity
  8
Layer_1
 62
7
100
AcDbSpline
 70
8
 71
3
 72
8
 73
4
 74
0
 40
0
 40
0
 40
0
 40
0
 40
1
 40
1
 40
1
 40
1
 10
92.644691
 20
11.405222
 30
0.0
 10
92.725534
 20
11.419898
 30
0.0
 10
92.806379
 20
11.427236
 30
0.0
 10
92.887224
 20
11.427236
 30
0.0
  0
SPLINE
  5
2cb
100
AcDbEntity
  8
Layer_1
 62
7
100
AcDbSpline
 70
8
 71
3
 72
8
 73
4
 74
0
 40
0
 40
0
 40
0
 40
0
 40
1
 40
1
 40
1
 40
1
 10
92.887224
 20
11.427236
 30
0.0
 10
93.346571
 20
11.427236
 30
0.0
 10
93.710373
 20
11.301374
 30
0.0
 10
93.978631
 20
11.049650
 30
0.0
  0
SPLINE
  5
2cc
100
AcDbEntity
  8
Layer_1
 62
7
100
AcDbSpline
 70
8
 71
3
 72
8
 73
4
 74
0
 40
0
 40
0
 40
0
 40
0
 40
1
 40
1
 40
1
 40
1
 10
93.978631
 20
11.049650
 30
0.0
 10
94.246889
 20
10.797927
 30
0.0
 10
94.381018
 20
10.457087
 30
0.0
 10
94.381018
 20
10.027131
 30
0.0
  0
SPLINE
  5
2cd
100
AcDbEntity
  8
Layer_1
 62
7
100
AcDbSpline
 70
8
 71
3
 72
8
 73
4
 74
0
 40
0
 40
0
 40
0
 40
0
 40
1
 40
1
 40
1
 40
1
 10
94.381018
 20
10.027131
 30
0.0
 10
94.381018
 20
9.584324
 30
0.0
 10
94.243215
 20
9.239816
 30
0.0
 10
93.967608
 20
8.993605
 30
0.0
  0
SPLINE
  5
2ce
100
AcDbEntity
  8
Layer_1
 62
7
100
AcDbSpline
 70
8
 71
3
 72
8
 73
4
 74
0
 40
0
 40
0
 40
0
 40
0
 40
1
 40
1
 40
1
 40
1
 10
93.967608
 20
8.993605
 30
0.0
 10
93.691999
 20
8.749238
 30
0.0
 10
93.303392
 20
8.627055
 30
0.0
 10
92.801787
 20
8.627055
 30
0.0
  0
SPLINE
  5
2cf
100
AcDbEntity
  8
Layer_1
 62
7
100
AcDbSpline
 70
8
 71
3
 72
8
 73
4
 74
0
 40
0
 40
0
 40
0
 40
0
 40
1
 40
1
 40
1
 40
1
 10
92.801787
 20
8.627055
 30
0.0
 10
92.629073
 20
8.627055
 30
0.0
 10
92.452684
 20
8.641749
 30
0.0
 10
92.272620
 20
8.671138
 30
0.0
  0
SPLINE
  5
2d0
100
AcDbEntity
  8
Layer_1
 62
7
100
AcDbSpline
 70
8
 71
3
 72
8
 73
4
 74
0
 40
0
 40
0
 40
0
 40
0
 40
1
 40
1
 40
1
 40
1
 10
92.272620
 20
8.671138
 30
0.0
 10
92.094393
 20
8.700546
 30
0.0
 10
91.909736
 20
8.744647
 30
0.0
 10
91.718649
 20
8.803444
 30
0.0
  0
LWPOLYLINE
  5
2d1
100
AcDbEntity
  8
Layer_1
 62
7
100
AcDbPolyline
 90
5
 70
1
 10
91.892281
 20
12.821865
 30
0.0
 10
94.077849
 20
12.821865
 30
0.0
 10
94.077849
 20
12.353320
 30
0.0
 10
92.402155
 20
12.353320
 30
0.0
 10
92.402155
 20
11.344601
 30
0.0
  0
SPLINE
  5
2d2
100
AcDbEntity
  8
Layer_1
 62
7
100
AcDbSpline
 70
8
 71
3
 72
8
 73
4
 74
0
 40
0
 40
0
 40
0
 40
0
 40
1
 40
1
 40
1
 40
1
 10
91.718649
 20
9.362921
 30
0.0
 10
91.884013
 20
9.272892
 30
0.0
 10
92.054889
 20
9.205827
 30
0.0
 10
92.231278
 20
9.161725
 30
0.0
  0
SPLINE
  5
2d3
100
AcDbEntity
  8
Layer_1
 62
7
100
AcDbSpline
 70
8
 71
3
 72
8
 73
4
 74
0
 40
0
 40
0
 40
0
 40
0
 40
1
 40
1
 40
1
 40
1
 10
92.231278
 20
9.161725
 30
0.0
 10
92.407667
 20
9.117642
 30
0.0
 10
92.594161
 20
9.095600
 30
0.0
 10
92.790761
 20
9.095600
 30
0.0
  0
SPLINE
  5
2d4
100
AcDbEntity
  8
Layer_1
 62
7
100
AcDbSpline
 70
8
 71
3
 72
8
 73
4
 74
0
 40
0
 40
0
 40
0
 40
0
 40
1
 40
1
 40
1
 40
1
 10
92.790761
 20
9.095600
 30
0.0
 10
93.108629
 20
9.095600
 30
0.0
 10
93.360351
 20
9.179194
 30
0.0
 10
93.545925
 20
9.346383
 30
0.0
  0
SPLINE
  5
2d5
100
AcDbEntity
  8
Layer_1
 62
7
100
AcDbSpline
 70
8
 71
3
 72
8
 73
4
 74
0
 40
0
 40
0
 40
0
 40
0
 40
1
 40
1
 40
1
 40
1
 10
93.545925
 20
9.346383
 30
0.0
 10
93.731501
 20
9.513590
 30
0.0
 10
93.824290
 20
9.740506
 30
0.0
 10
93.824290
 20
10.027131
 30
0.0
  0
SPLINE
  5
2d6
100
AcDbEntity
  8
Layer_1
 62
7
100
AcDbSpline
 70
8
 71
3
 72
8
 73
4
 74
0
 40
0
 40
0
 40
0
 40
0
 40
1
 40
1
 40
1
 40
1
 10
93.824290
 20
10.027131
 30
0.0
 10
93.824290
 20
10.313775
 30
0.0
 10
93.731501
 20
10.540691
 30
0.0
 10
93.545925
 20
10.707879
 30
0.0
  0
SPLINE
  5
2d7
100
AcDbEntity
  8
Layer_1
 62
7
100
AcDbSpline
 70
8
 71
3
 72
8
 73
4
 74
0
 40
0
 40
0
 40
0
 40
0
 40
1
 40
1
 40
1
 40
1
 10
93.545925
 20
10.707879
 30
0.0
 10
93.360351
 20
10.875087
 30
0.0
 10
93.108629
 20
10.958690
 30
0.0
 10
92.790761
 20
10.958690
 30
0.0
  0
SPLINE
  5
2d8
100
AcDbEntity
  8
Layer_1
 62
7
100
AcDbSpline
 70
8
 71
3
 72
8
 73
4
 74
0
 40
0
 40
0
 40
0
 40
0
 40
1
 40
1
 40
1
 40
1
 10
92.790761
 20
10.958690
 30
0.0
 10
92.641934
 20
10.958690
 30
0.0
 10
92.493106
 20
10.942152
 30
0.0
 10
92.344277
 20
10.909076
 30
0.0
  0
SPLINE
  5
2d9
100
AcDbEntity
  8
Layer_1
 62
7
100
AcDbSpline
 70
8
 71
3
 72
8
 73
4
 74
0
 40
0
 40
0
 40
0
 40
0
 40
1
 40
1
 40
1
 40
1
 10
92.344277
 20
10.909076
 30
0.0
 10
92.197286
 20
10.876018
 30
0.0
 10
92.046621
 20
10.824578
 30
0.0
 10
91.892281
 20
10.754756
 30
0.0
  0
LWPOLYLINE
  5
2da
100
AcDbEntity
  8
Layer_1
 62
7
100
AcDbPolyline
 90
2
 70
1
 10
91.718649
 20
8.803444
 30
0.0
 10
91.718649
 20
9.362921
 30
0.0
  0
SPLINE
  5
2db
100
AcDbEntity
  8
Layer_1
 62
7
100
AcDbSpline
 70
8
 71
3
 72
8
 73
4
 74
0
 40
0
 40
0
 40
0
 40
0
 40
1
 40
1
 40
1
 40
1
 10
182.634774
 20
10.825453
 30
0.0
 10
182.634774
 20
10.739846
 30
0.0
 10
182.608434
 20
10.665762
 30
0.0
 10
182.555752
 20
10.603203
 30
0.0
  0
SPLINE
  5
2dc
100
AcDbEntity
  8
Layer_1
 62
7
100
AcDbSpline
 70
8
 71
3
 72
8
 73
4
 74
0
 40
0
 40
0
 40
0
 40
0
 40
1
 40
1
 40
1
 40
1
 10
182.555752
 20
10.603203
 30
0.0
 10
182.506363
 20
10.540644
 30
0.0
 10
182.440511
 20
10.509364
 30
0.0
 10
182.358197
 20
10.509364
 30
0.0
  0
SPLINE
  5
2dd
100
AcDbEntity
  8
Layer_1
 62
7
100
AcDbSpline
 70
8
 71
3
 72
8
 73
4
 74
0
 40
0
 40
0
 40
0
 40
0
 40
1
 40
1
 40
1
 40
1
 10
182.358197
 20
10.509364
 30
0.0
 10
182.272589
 20
10.509364
 30
0.0
 10
182.203445
 20
10.540644
 30
0.0
 10
182.150763
 20
10.603203
 30
0.0
  0
SPLINE
  5
2de
100
AcDbEntity
  8
Layer_1
 62
7
100
AcDbSpline
 70
8
 71
3
 72
8
 73
4
 74
0
 40
0
 40
0
 40
0
 40
0
 40
1
 40
1
 40
1
 40
1
 10
182.150763
 20
10.603203
 30
0.0
 10
182.098082
 20
10.665762
 30
0.0
 10
182.071741
 20
10.739846
 30
0.0
 10
182.071741
 20
10.825453
 30
0.0
  0
SPLINE
  5
2df
100
AcDbEntity
  8
Layer_1
 62
7
100
AcDbSpline
 70
8
 71
3
 72
8
 73
4
 74
0
 40
0
 40
0
 40
0
 40
0
 40
1
 40
1
 40
1
 40
1
 10
182.071741
 20
10.825453
 30
0.0
 10
182.071741
 20
10.911061
 30
0.0
 10
182.098082
 20
10.986790
 30
0.0
 10
182.150763
 20
11.052642
 30
0.0
  0
SPLINE
  5
2e0
100
AcDbEntity
  8
Layer_1
 62
7
100
AcDbSpline
 70
8
 71
3
 72
8
 73
4
 74
0
 40
0
 40
0
 40
0
 40
0
 40
1
 40
1
 40
1
 40
1
 10
182.150763
 20
11.052642
 30
0.0
 10
182.203445
 20
11.118494
 30
0.0
 10
182.272589
 20
11.151420
 30
0.0
 10
182.358197
 20
11.151420
 30
0.0
  0
SPLINE
  5
2e1
100
AcDbEntity
  8
Layer_1
 62
7
100
AcDbSpline
 70
8
 71
3
 72
8
 73
4
 74
0
 40
0
 40
0
 40
0
 40
0
 40
1
 40
1
 40
1
 40
1
 10
182.358197
 20
11.151420
 30
0.0
 10
182.440511
 20
11.151420
 30
0.0
 10
182.506363
 20
11.118494
 30
0.0
 10
182.555752
 20
11.052642
 30
0.0
  0
SPLINE
  5
2e2
100
AcDbEntity
  8
Layer_1
 62
7
100
AcDbSpline
 70
8
 71
3
 72
8
 73
4
 74
0
 40
0
 40
0
 40
0
 40
0
 40
1
 40
1
 40
1
 40
1
 10
182.555752
 20
11.052642
 30
0.0
 10
182.608434
 20
10.986790
 30
0.0
 10
182.634774
 20
10.911061
 30
0.0
 10
182.634774
 20
10.825453
 30
0.0
  0
LWPOLYLINE
  5
2e3
100
AcDbEntity
  8
Layer_1
 62
7
100
AcDbPolyline
 90
3
 70
1
 10
91.892281
 20
10.754756
 30
0.0
 10
91.892281
 20
12.821808
 30
0.0
 10
91.892281
 20
12.821865
 30
0.0
  0
SPLINE
  5
2e4
100
AcDbEntity
  8
Layer_1
 62
7
100
AcDbSpline
 70
8
 71
3
 72
8
 73
4
 74
0
 40
0
 40
0
 40
0
 40
0
 40
1
 40
1
 40
1
 40
1
 10
181.340785
 20
10.771125
 30
0.0
 10
181.340785
 20
11.284770
 30
0.0
 10
181.428039
 20
11.678235
 30
0.0
 10
181.602547
 20
11.951520
 30
0.0
  0
SPLINE
  5
2e5
100
AcDbEntity
  8
Layer_1
 62
7
100
AcDbSpline
 70
8
 71
3
 72
8
 73
4
 74
0
 40
0
 40
0
 40
0
 40
0
 40
1
 40
1
 40
1
 40
1
 10
181.602547
 20
11.951520
 30
0.0
 10
181.780347
 20
12.228098
 30
0.0
 10
182.028937
 20
12.366386
 30
0.0
 10
182.348319
 20
12.366386
 30
0.0
  0
SPLINE
  5
2e6
100
AcDbEntity
  8
Layer_1
 62
7
100
AcDbSpline
 70
8
 71
3
 72
8
 73
4
 74
0
 40
0
 40
0
 40
0
 40
0
 40
1
 40
1
 40
1
 40
1
 10
182.348319
 20
12.366386
 30
0.0
 10
182.670993
 20
12.366386
 30
0.0
 10
182.919584
 20
12.228098
 30
0.0
 10
183.094091
 20
11.951520
 30
0.0
  0
SPLINE
  5
2e7
100
AcDbEntity
  8
Layer_1
 62
7
100
AcDbSpline
 70
8
 71
3
 72
8
 73
4
 74
0
 40
0
 40
0
 40
0
 40
0
 40
1
 40
1
 40
1
 40
1
 10
183.094091
 20
11.951520
 30
0.0
 10
183.268598
 20
11.678235
 30
0.0
 10
183.355852
 20
11.284770
 30
0.0
 10
183.355852
 20
10.771125
 30
0.0
  0
SPLINE
  5
2e8
100
AcDbEntity
  8
Layer_1
 62
7
100
AcDbSpline
 70
8
 71
3
 72
8
 73
4
 74
0
 40
0
 40
0
 40
0
 40
0
 40
1
 40
1
 40
1
 40
1
 10
183.355852
 20
10.771125
 30
0.0
 10
183.355852
 20
10.257481
 30
0.0
 10
183.268598
 20
9.862370
 30
0.0
 10
183.094091
 20
9.585792
 30
0.0
  0
SPLINE
  5
2e9
100
AcDbEntity
  8
Layer_1
 62
7
100
AcDbSpline
 70
8
 71
3
 72
8
 73
4
 74
0
 40
0
 40
0
 40
0
 40
0
 40
1
 40
1
 40
1
 40
1
 10
183.094091
 20
9.585792
 30
0.0
 10
182.919584
 20
9.312507
 30
0.0
 10
182.670993
 20
9.175864
 30
0.0
 10
182.348319
 20
9.175864
 30
0.0
  0
SPLINE
  5
2ea
100
AcDbEntity
  8
Layer_1
 62
7
100
AcDbSpline
 70
8
 71
3
 72
8
 73
4
 74
0
 40
0
 40
0
 40
0
 40
0
 40
1
 40
1
 40
1
 40
1
 10
182.348319
 20
9.175864
 30
0.0
 10
182.028937
 20
9.175864
 30
0.0
 10
181.780347
 20
9.312507
 30
0.0
 10
181.602547
 20
9.585792
 30
0.0
  0
SPLINE
  5
2eb
100
AcDbEntity
  8
Layer_1
 62
7
100
AcDbSpline
 70
8
 71
3
 72
8
 73
4
 74
0
 40
0
 40
0
 40
0
 40
0
 40
1
 40
1
 40
1
 40
1
 10
181.602547
 20
9.585792
 30
0.0
 10
181.428039
 20
9.862370
 30
0.0
 10
181.340785
 20
10.257481
 30
0.0
 10
181.340785
 20
10.771125
 30
0.0
  0
LWPOLYLINE
  5
2ec
100
AcDbEntity
  8
Layer_1
 62
7
100
AcDbPolyline
 90
2
 70
1
 10
182.634774
 20
10.825453
 30
0.0
 10
182.634774
 20
10.825453
 30
0.0
  0
SPLINE
  5
2ed
100
AcDbEntity
  8
Layer_1
 62
7
100
AcDbSpline
 70
8
 71
3
 72
8
 73
4
 74
0
 40
0
 40
0
 40
0
 40
0
 40
1
 40
1
 40
1
 40
1
 10
182.940985
 20
10.771125
 30
0.0
 10
182.940985
 20
10.939048
 30
0.0
 10
182.931108
 20
11.097092
 30
0.0
 10
182.911352
 20
11.245259
 30
0.0
  0
SPLINE
  5
2ee
100
AcDbEntity
  8
Layer_1
 62
7
100
AcDbSpline
 70
8
 71
3
 72
8
 73
4
 74
0
 40
0
 40
0
 40
0
 40
0
 40
1
 40
1
 40
1
 40
1
 10
182.911352
 20
11.245259
 30
0.0
 10
182.891597
 20
11.396718
 30
0.0
 10
182.858671
 20
11.528422
 30
0.0
 10
182.812574
 20
11.640370
 30
0.0
  0
SPLINE
  5
2ef
100
AcDbEntity
  8
Layer_1
 62
7
100
AcDbSpline
 70
8
 71
3
 72
8
 73
4
 74
0
 40
0
 40
0
 40
0
 40
0
 40
1
 40
1
 40
1
 40
1
 10
182.812574
 20
11.640370
 30
0.0
 10
182.766478
 20
11.752318
 30
0.0
 10
182.705565
 20
11.841218
 30
0.0
 10
182.629835
 20
11.907070
 30
0.0
  0
SPLINE
  5
2f0
100
AcDbEntity
  8
Layer_1
 62
7
100
AcDbSpline
 70
8
 71
3
 72
8
 73
4
 74
0
 40
0
 40
0
 40
0
 40
0
 40
1
 40
1
 40
1
 40
1
 10
182.629835
 20
11.907070
 30
0.0
 10
182.554106
 20
11.972922
 30
0.0
 10
182.460267
 20
12.005848
 30
0.0
 10
182.348319
 20
12.005848
 30
0.0
  0
SPLINE
  5
2f1
100
AcDbEntity
  8
Layer_1
 62
7
100
AcDbSpline
 70
8
 71
3
 72
8
 73
4
 74
0
 40
0
 40
0
 40
0
 40
0
 40
1
 40
1
 40
1
 40
1
 10
182.348319
 20
12.005848
 30
0.0
 10
182.236371
 20
12.005848
 30
0.0
 10
182.142532
 20
11.972922
 30
0.0
 10
182.066802
 20
11.907070
 30
0.0
  0
SPLINE
  5
2f2
100
AcDbEntity
  8
Layer_1
 62
7
100
AcDbSpline
 70
8
 71
3
 72
8
 73
4
 74
0
 40
0
 40
0
 40
0
 40
0
 40
1
 40
1
 40
1
 40
1
 10
182.066802
 20
11.907070
 30
0.0
 10
181.991072
 20
11.841218
 30
0.0
 10
181.930159
 20
11.752318
 30
0.0
 10
181.884063
 20
11.640370
 30
0.0
  0
SPLINE
  5
2f3
100
AcDbEntity
  8
Layer_1
 62
7
100
AcDbSpline
 70
8
 71
3
 72
8
 73
4
 74
0
 40
0
 40
0
 40
0
 40
0
 40
1
 40
1
 40
1
 40
1
 10
181.884063
 20
11.640370
 30
0.0
 10
181.837967
 20
11.528422
 30
0.0
 10
181.805041
 20
11.396718
 30
0.0
 10
181.785285
 20
11.245259
 30
0.0
  0
SPLINE
  5
2f4
100
AcDbEntity
  8
Layer_1
 62
7
100
AcDbSpline
 70
8
 71
3
 72
8
 73
4
 74
0
 40
0
 40
0
 40
0
 40
0
 40
1
 40
1
 40
1
 40
1
 10
181.785285
 20
11.245259
 30
0.0
 10
181.765530
 20
11.097092
 30
0.0
 10
181.755652
 20
10.939048
 30
0.0
 10
181.755652
 20
10.771125
 30
0.0
  0
SPLINE
  5
2f5
100
AcDbEntity
  8
Layer_1
 62
7
100
AcDbSpline
 70
8
 71
3
 72
8
 73
4
 74
0
 40
0
 40
0
 40
0
 40
0
 40
1
 40
1
 40
1
 40
1
 10
181.755652
 20
10.771125
 30
0.0
 10
181.755652
 20
10.603203
 30
0.0
 10
181.765530
 20
10.443512
 30
0.0
 10
181.785285
 20
10.292053
 30
0.0
  0
SPLINE
  5
2f6
100
AcDbEntity
  8
Layer_1
 62
7
100
AcDbSpline
 70
8
 71
3
 72
8
 73
4
 74
0
 40
0
 40
0
 40
0
 40
0
 40
1
 40
1
 40
1
 40
1
 10
181.785285
 20
10.292053
 30
0.0
 10
181.805041
 20
10.143886
 30
0.0
 10
181.837967
 20
10.013829
 30
0.0
 10
181.884063
 20
9.901881
 30
0.0
  0
SPLINE
  5
2f7
100
AcDbEntity
  8
Layer_1
 62
7
100
AcDbSpline
 70
8
 71
3
 72
8
 73
4
 74
0
 40
0
 40
0
 40
0
 40
0
 40
1
 40
1
 40
1
 40
1
 10
181.884063
 20
9.901881
 30
0.0
 10
181.930159
 20
9.789933
 30
0.0
 10
181.991072
 20
9.701033
 30
0.0
 10
182.066802
 20
9.635181
 30
0.0
  0
SPLINE
  5
2f8
100
AcDbEntity
  8
Layer_1
 62
7
100
AcDbSpline
 70
8
 71
3
 72
8
 73
4
 74
0
 40
0
 40
0
 40
0
 40
0
 40
1
 40
1
 40
1
 40
1
 10
182.066802
 20
9.635181
 30
0.0
 10
182.142532
 20
9.569329
 30
0.0
 10
182.236371
 20
9.536403
 30
0.0
 10
182.348319
 20
9.536403
 30
0.0
  0
SPLINE
  5
2f9
100
AcDbEntity
  8
Layer_1
 62
7
100
AcDbSpline
 70
8
 71
3
 72
8
 73
4
 74
0
 40
0
 40
0
 40
0
 40
0
 40
1
 40
1
 40
1
 40
1
 10
182.348319
 20
9.536403
 30
0.0
 10
182.460267
 20
9.536403
 30
0.0
 10
182.554106
 20
9.569329
 30
0.0
 10
182.629835
 20
9.635181
 30
0.0
  0
SPLINE
  5
2fa
100
AcDbEntity
  8
Layer_1
 62
7
100
AcDbSpline
 70
8
 71
3
 72
8
 73
4
 74
0
 40
0
 40
0
 40
0
 40
0
 40
1
 40
1
 40
1
 40
1
 10
182.629835
 20
9.635181
 30
0.0
 10
182.705565
 20
9.701033
 30
0.0
 10
182.766478
 20
9.789933
 30
0.0
 10
182.812574
 20
9.901881
 30
0.0
  0
SPLINE
  5
2fb
100
AcDbEntity
  8
Layer_1
 62
7
100
AcDbSpline
 70
8
 71
3
 72
8
 73
4
 74
0
 40
0
 40
0
 40
0
 40
0
 40
1
 40
1
 40
1
 40
1
 10
182.812574
 20
9.901881
 30
0.0
 10
182.858671
 20
10.013829
 30
0.0
 10
182.891597
 20
10.143886
 30
0.0
 10
182.911352
 20
10.292053
 30
0.0
  0
SPLINE
  5
2fc
100
AcDbEntity
  8
Layer_1
 62
7
100
AcDbSpline
 70
8
 71
3
 72
8
 73
4
 74
0
 40
0
 40
0
 40
0
 40
0
 40
1
 40
1
 40
1
 40
1
 10
182.911352
 20
10.292053
 30
0.0
 10
182.931108
 20
10.443512
 30
0.0
 10
182.940985
 20
10.603203
 30
0.0
 10
182.940985
 20
10.771125
 30
0.0
  0
LWPOLYLINE
  5
2fd
100
AcDbEntity
  8
Layer_1
 62
7
100
AcDbPolyline
 90
2
 70
1
 10
181.340785
 20
10.771125
 30
0.0
 10
181.340785
 20
10.771125
 30
0.0
  0
LWPOLYLINE
  5
2fe
100
AcDbEntity
  8
Layer_1
 62
7
100
AcDbPolyline
 90
2
 70
1
 10
182.940985
 20
10.771125
 30
0.0
 10
182.940985
 20
10.771125
 30
0.0
  0
LWPOLYLINE
  5
2ff
100
AcDbEntity
  8
Layer_1
 62
6
100
AcDbPolyline
 90
5
 70
0
 10
-10.317339
 20
31.182944
 30
0.0
 10
252.050093
 20
31.182944
 30
0.0
 10
252.050093
 20
-69.602800
 30
0.0
 10
-10.317339
 20
-69.602800
 30
0.0
 10
-10.317339
 20
31.182944
 30
0.0
  0
LWPOLYLINE
  5
300
100
AcDbEntity
  8
Layer_1
 62
7
100
AcDbPolyline
 90
2
 70
0
 10
4.707415
 20
9.337719
 30
0.0
 10
1.125502
 20
11.940174
 30
0.0
  0
ENDSEC
  0
SECTION
  2
OBJECTS
  0
DICTIONARY
  5
C
330
0
100
AcDbDictionary
  3
ACAD_GROUP
350
D
  3
ACAD_MLINESTYLE
350
17
  0
DICTIONARY
  5
D
330
C
100
AcDbDictionary
  0
DICTIONARY
  5
1A
330
C
100
AcDbDictionary
  0
DICTIONARY
  5
17
330
C
100
AcDbDictionary
  3
STANDARD
350
18
  0
DICTIONARY
  5
19
330
C
100
AcDbDictionary
  0
ENDSEC
  0
EOF
