  0
SECTION
  2
HEADER
  9
$ACADVER
  1
AC1014
  9
$HANDSEED
  5
FFFF
  9
$MEASUREMENT
 70
     1
  0
ENDSEC
  0
SECTION
  2
TABLES
  0
TABLE
  2
VPORT
  5
8
330
0
100
AcDbSymbolTable
 70
     4
  0
VPORT
  5
2E
330
8
100
AcDbSymbolTableRecord
100
AcDbViewportTableRecord
  2
*ACTIVE
 70
     0
 10
0.0
 20
0.0
 11
1.0
 21
1.0
 12
210.0
 22
148.5
 13
0.0
 23
0.0
 14
10.0
 24
10.0
 15
10.0
 25
10.0
 16
0.0
 26
0.0
 36
1.0
 17
0.0
 27
0.0
 37
0.0
 40
341.0
 41
1.24
 42
50.0
 43
0.0
 44
0.0
 50
0.0
 51
0.0
 71
     0
 72
   100
 73
     1
 74
     3
 75
     0
 76
     0
 77
     0
 78
     0
  0
ENDTAB
  0
TABLE
  2
LTYPE
  5
5
330
0
100
AcDbSymbolTable
 70
     1
  0
LTYPE
  5
14
330
5
100
AcDbSymbolTableRecord
100
AcDbLinetypeTableRecord
  2
BYBLOCK
 70
     0
  3

 72
    65
 73
     0
 40
0.0
  0
LTYPE
  5
15
330
5
100
AcDbSymbolTableRecord
100
AcDbLinetypeTableRecord
  2
BYLAYER
 70
     0
  3

 72
    65
 73
     0
 40
0.0
  0
LTYPE
  5
16
330
5
100
AcDbSymbolTableRecord
100
AcDbLinetypeTableRecord
  2
CONTINUOUS
 70
     0
  3
Solid line
 72
    65
 73
     0
 40
0.0
  0
ENDTAB
  0
TABLE
  2
LAYER
  5
2
100
AcDbSymbolTable
 70
2
  0
LAYER
  5
50
100
AcDbSymbolTableRecord
100
AcDbLayerTableRecord
  2
0
 70
0
  6
CONTINUOUS
  0
LAYER
  5
51
100
AcDbSymbolTableRecord
100
AcDbLayerTableRecord
  2
Layer_1
 70
0
  6
CONTINUOUS
  0
ENDTAB
  0
TABLE
  2
STYLE
  5
3
330
0
100
AcDbSymbolTable
 70
     1
  0
STYLE
  5
11
330
3
100
AcDbSymbolTableRecord
100
AcDbTextStyleTableRecord
  2
STANDARD
 70
     0
 40
0.0
 41
1.0
 50
0.0
 71
     0
 42
2.5
  3
txt
  4

  0
ENDTAB
  0
TABLE
  2
VIEW
  5
6
330
0
100
AcDbSymbolTable
 70
     0
  0
ENDTAB
  0
TABLE
  2
UCS
  5
7
330
0
100
AcDbSymbolTable
 70
     0
  0
ENDTAB
  0
TABLE
  2
APPID
  5
9
330
0
100
AcDbSymbolTable
 70
     2
  0
APPID
  5
12
330
9
100
AcDbSymbolTableRecord
100
AcDbRegAppTableRecord
  2
ACAD
 70
     0
  0
ENDTAB
  0
TABLE
  2
DIMSTYLE
  5
A
330
0
100
AcDbSymbolTable
 70
     1
  0
DIMSTYLE
105
27
330
A
100
AcDbSymbolTableRecord
100
AcDbDimStyleTableRecord
  2
ISO-25
 70
     0
  3

  4

  5

  6

  7

 40
1.0
 41
2.5
 42
0.625
 43
3.75
 44
1.25
 45
0.0
 46
0.0
 47
0.0
 48
0.0
140
2.5
141
2.5
142
0.0
143
0.03937007874016
144
1.0
145
0.0
146
1.0
147
0.625
 71
     0
 72
     0
 73
     0
 74
     0
 75
     0
 76
     0
 77
     1
 78
     8
170
     0
171
     3
172
     1
173
     0
174
     0
175
     0
176
     0
177
     0
178
     0
270
     2
271
     2
272
     2
273
     2
274
     3
340
11
275
     0
280
     0
281
     0
282
     0
283
     0
284
     8
285
     0
286
     0
287
     3
288
     0
  0
ENDTAB
  0
TABLE
  2
BLOCK_RECORD
  5
1
330
0
100
AcDbSymbolTable
 70
     1
  0
BLOCK_RECORD
  5
1F
330
1
100
AcDbSymbolTableRecord
100
AcDbBlockTableRecord
  2
*MODEL_SPACE
  0
BLOCK_RECORD
  5
1B
330
1
100
AcDbSymbolTableRecord
100
AcDbBlockTableRecord
  2
*PAPER_SPACE
  0
ENDTAB
  0
ENDSEC
  0
SECTION
  2
BLOCKS
  0
BLOCK
  5
20
330
1F
100
AcDbEntity
  8
0
100
AcDbBlockBegin
  2
*MODEL_SPACE
 70
     0
 10
0.0
 20
0.0
 30
0.0
  3
*MODEL_SPACE
  1

  0
ENDBLK
  5
21
330
1F
100
AcDbEntity
  8
0
100
AcDbBlockEnd
  0
BLOCK
  5
1C
330
1B
100
AcDbEntity
 67
     1
  8
0
100
AcDbBlockBegin
  2
*PAPER_SPACE
  1

  0
ENDBLK
  5
1D
330
1B
100
AcDbEntity
 67
     1
  8
0
100
AcDbBlockEnd
  0
ENDSEC
  0
SECTION
  2
ENTITIES
  0
LWPOLYLINE
  5
100
100
AcDbEntity
  8
Layer_1
 62
7
100
AcDbPolyline
 90
7
 70
0
 10
0.415236
 20
-0.309207
 30
0.0
 10
0.092682
 20
-0.183562
 30
0.0
 10
0.092682
 20
-0.183562
 30
0.0
 10
0.092682
 20
-0.183562
 30
0.0
 10
0.092682
 20
-0.183562
 30
0.0
 10
0.092682
 20
-0.183562
 30
0.0
 10
0.092682
 20
-0.183562
 30
0.0
  0
LWPOLYLINE
  5
101
100
AcDbEntity
  8
Layer_1
 62
7
100
AcDbPolyline
 90
2
 70
0
 10
0.102390
 20
-0.116929
 30
0.0
 10
9.102392
 20
-0.116929
 30
0.0
  0
LWPOLYLINE
  5
102
100
AcDbEntity
  8
Layer_1
 62
7
100
AcDbPolyline
 90
2
 70
0
 10
3.044057
 20
-1.156382
 30
0.0
 10
12.044059
 20
-1.156382
 30
0.0
  0
LWPOLYLINE
  5
103
100
AcDbEntity
  8
Layer_1
 62
7
100
AcDbPolyline
 90
2
 70
0
 10
0.163503
 20
-2.073604
 30
0.0
 10
9.163504
 20
-2.073604
 30
0.0
  0
LWPOLYLINE
  5
104
100
AcDbEntity
  8
Layer_1
 62
7
100
AcDbPolyline
 90
2
 70
0
 10
2.949056
 20
-3.214713
 30
0.0
 10
11.949057
 20
-3.214713
 30
0.0
  0
LWPOLYLINE
  5
105
100
AcDbEntity
  8
Layer_1
 62
7
100
AcDbPolyline
 90
2
 70
0
 10
18.494031
 20
-0.375619
 30
0.0
 10
18.171477
 20
-0.249974
 30
0.0
  0
LWPOLYLINE
  5
106
100
AcDbEntity
  8
Layer_1
 62
7
100
AcDbPolyline
 90
4
 70
0
 10
0.042014
 20
-0.039741
 30
0.0
 10
0.042014
 20
-12.025098
 30
0.0
 10
12.027371
 20
-12.083546
 30
0.0
 10
11.968906
 20
-0.039741
 30
0.0
  0
LWPOLYLINE
  5
107
100
AcDbEntity
  8
Layer_1
 62
7
100
AcDbPolyline
 90
6
 70
0
 10
18.171477
 20
-0.249974
 30
0.0
 10
18.171477
 20
-0.249974
 30
0.0
 10
18.171477
 20
-0.249974
 30
0.0
 10
18.171477
 20
-0.249974
 30
0.0
 10
18.171477
 20
-0.249974
 30
0.0
 10
18.171477
 20
-0.249974
 30
0.0
  0
LWPOLYLINE
  5
108
100
AcDbEntity
  8
Layer_1
 62
7
100
AcDbPolyline
 90
2
 70
0
 10
18.181185
 20
-0.183341
 30
0.0
 10
27.181187
 20
-0.183341
 30
0.0
  0
LWPOLYLINE
  5
109
100
AcDbEntity
  8
Layer_1
 62
7
100
AcDbPolyline
 90
2
 70
0
 10
21.122852
 20
-1.222794
 30
0.0
 10
30.122854
 20
-1.222794
 30
0.0
  0
LWPOLYLINE
  5
10a
100
AcDbEntity
  8
Layer_1
 62
7
100
AcDbPolyline
 90
2
 70
0
 10
18.242297
 20
-2.140016
 30
0.0
 10
27.242299
 20
-2.140016
 30
0.0
  0
LWPOLYLINE
  5
10b
100
AcDbEntity
  8
Layer_1
 62
7
100
AcDbPolyline
 90
2
 70
0
 10
21.027851
 20
-3.281125
 30
0.0
 10
30.027852
 20
-3.281125
 30
0.0
  0
LWPOLYLINE
  5
10c
100
AcDbEntity
  8
Layer_1
 62
7
100
AcDbPolyline
 90
2
 70
0
 10
36.449333
 20
-0.367672
 30
0.0
 10
36.126778
 20
-0.242027
 30
0.0
  0
LWPOLYLINE
  5
10d
100
AcDbEntity
  8
Layer_1
 62
7
100
AcDbPolyline
 90
4
 70
0
 10
18.120809
 20
-0.106154
 30
0.0
 10
18.120809
 20
-12.091511
 30
0.0
 10
30.106166
 20
-12.149959
 30
0.0
 10
30.047701
 20
-0.106154
 30
0.0
  0
LWPOLYLINE
  5
10e
100
AcDbEntity
  8
Layer_1
 62
7
100
AcDbPolyline
 90
6
 70
0
 10
36.126778
 20
-0.242027
 30
0.0
 10
36.126778
 20
-0.242027
 30
0.0
 10
36.126778
 20
-0.242027
 30
0.0
 10
36.126778
 20
-0.242027
 30
0.0
 10
36.126778
 20
-0.242027
 30
0.0
 10
36.126778
 20
-0.242027
 30
0.0
  0
LWPOLYLINE
  5
10f
100
AcDbEntity
  8
Layer_1
 62
7
100
AcDbPolyline
 90
2
 70
0
 10
36.136486
 20
-0.175394
 30
0.0
 10
45.136488
 20
-0.175394
 30
0.0
  0
LWPOLYLINE
  5
110
100
AcDbEntity
  8
Layer_1
 62
7
100
AcDbPolyline
 90
2
 70
0
 10
39.078154
 20
-1.214847
 30
0.0
 10
48.078155
 20
-1.214847
 30
0.0
  0
LWPOLYLINE
  5
111
100
AcDbEntity
  8
Layer_1
 62
7
100
AcDbPolyline
 90
2
 70
0
 10
36.197599
 20
-2.132069
 30
0.0
 10
45.197601
 20
-2.132069
 30
0.0
  0
LWPOLYLINE
  5
112
100
AcDbEntity
  8
Layer_1
 62
7
100
AcDbPolyline
 90
2
 70
0
 10
38.983152
 20
-3.273178
 30
0.0
 10
47.983154
 20
-3.273178
 30
0.0
  0
LWPOLYLINE
  5
113
100
AcDbEntity
  8
Layer_1
 62
7
100
AcDbPolyline
 90
2
 70
0
 10
54.535802
 20
-0.333576
 30
0.0
 10
54.213247
 20
-0.207931
 30
0.0
  0
LWPOLYLINE
  5
114
100
AcDbEntity
  8
Layer_1
 62
7
100
AcDbPolyline
 90
4
 70
0
 10
36.076111
 20
-0.098206
 30
0.0
 10
36.076111
 20
-12.083563
 30
0.0
 10
48.061467
 20
-12.142011
 30
0.0
 10
48.003002
 20
-0.098206
 30
0.0
  0
LWPOLYLINE
  5
115
100
AcDbEntity
  8
Layer_1
 62
7
100
AcDbPolyline
 90
6
 70
0
 10
54.213247
 20
-0.207931
 30
0.0
 10
54.213247
 20
-0.207931
 30
0.0
 10
54.213247
 20
-0.207931
 30
0.0
 10
54.213247
 20
-0.207931
 30
0.0
 10
54.213247
 20
-0.207931
 30
0.0
 10
54.213247
 20
-0.207931
 30
0.0
  0
LWPOLYLINE
  5
116
100
AcDbEntity
  8
Layer_1
 62
7
100
AcDbPolyline
 90
2
 70
0
 10
54.222956
 20
-0.141298
 30
0.0
 10
63.222957
 20
-0.141298
 30
0.0
  0
LWPOLYLINE
  5
117
100
AcDbEntity
  8
Layer_1
 62
7
100
AcDbPolyline
 90
2
 70
0
 10
57.164623
 20
-1.180751
 30
0.0
 10
66.164625
 20
-1.180751
 30
0.0
  0
LWPOLYLINE
  5
118
100
AcDbEntity
  8
Layer_1
 62
7
100
AcDbPolyline
 90
2
 70
0
 10
54.284068
 20
-2.097973
 30
0.0
 10
63.284070
 20
-2.097973
 30
0.0
  0
LWPOLYLINE
  5
119
100
AcDbEntity
  8
Layer_1
 62
7
100
AcDbPolyline
 90
2
 70
0
 10
57.069621
 20
-3.239082
 30
0.0
 10
66.069623
 20
-3.239082
 30
0.0
  0
LWPOLYLINE
  5
11a
100
AcDbEntity
  8
Layer_1
 62
7
100
AcDbPolyline
 90
2
 70
0
 10
72.452967
 20
-0.299480
 30
0.0
 10
72.130412
 20
-0.173835
 30
0.0
  0
LWPOLYLINE
  5
11b
100
AcDbEntity
  8
Layer_1
 62
7
100
AcDbPolyline
 90
4
 70
0
 10
54.162580
 20
-0.064110
 30
0.0
 10
54.162580
 20
-12.049467
 30
0.0
 10
66.147937
 20
-12.107915
 30
0.0
 10
66.089472
 20
-0.064110
 30
0.0
  0
LWPOLYLINE
  5
11c
100
AcDbEntity
  8
Layer_1
 62
7
100
AcDbPolyline
 90
6
 70
0
 10
72.130412
 20
-0.173835
 30
0.0
 10
72.130412
 20
-0.173835
 30
0.0
 10
72.130412
 20
-0.173835
 30
0.0
 10
72.130412
 20
-0.173835
 30
0.0
 10
72.130412
 20
-0.173835
 30
0.0
 10
72.130412
 20
-0.173835
 30
0.0
  0
LWPOLYLINE
  5
11d
100
AcDbEntity
  8
Layer_1
 62
7
100
AcDbPolyline
 90
2
 70
0
 10
72.140120
 20
-0.107202
 30
0.0
 10
81.140122
 20
-0.107202
 30
0.0
  0
LWPOLYLINE
  5
11e
100
AcDbEntity
  8
Layer_1
 62
7
100
AcDbPolyline
 90
2
 70
0
 10
75.081788
 20
-1.146655
 30
0.0
 10
84.081789
 20
-1.146655
 30
0.0
  0
LWPOLYLINE
  5
11f
100
AcDbEntity
  8
Layer_1
 62
7
100
AcDbPolyline
 90
2
 70
0
 10
72.201233
 20
-2.063877
 30
0.0
 10
81.201235
 20
-2.063877
 30
0.0
  0
LWPOLYLINE
  5
120
100
AcDbEntity
  8
Layer_1
 62
7
100
AcDbPolyline
 90
2
 70
0
 10
74.986786
 20
-3.204986
 30
0.0
 10
83.986788
 20
-3.204986
 30
0.0
  0
LWPOLYLINE
  5
121
100
AcDbEntity
  8
Layer_1
 62
7
100
AcDbPolyline
 90
2
 70
0
 10
90.440784
 20
-0.281203
 30
0.0
 10
90.118229
 20
-0.155558
 30
0.0
  0
LWPOLYLINE
  5
122
100
AcDbEntity
  8
Layer_1
 62
7
100
AcDbPolyline
 90
4
 70
0
 10
72.079745
 20
-0.030014
 30
0.0
 10
72.079745
 20
-12.015371
 30
0.0
 10
84.065102
 20
-12.073819
 30
0.0
 10
84.006636
 20
-0.030014
 30
0.0
  0
LWPOLYLINE
  5
123
100
AcDbEntity
  8
Layer_1
 62
7
100
AcDbPolyline
 90
6
 70
0
 10
90.118229
 20
-0.155558
 30
0.0
 10
90.118229
 20
-0.155558
 30
0.0
 10
90.118229
 20
-0.155558
 30
0.0
 10
90.118229
 20
-0.155558
 30
0.0
 10
90.118229
 20
-0.155558
 30
0.0
 10
90.118229
 20
-0.155558
 30
0.0
  0
LWPOLYLINE
  5
124
100
AcDbEntity
  8
Layer_1
 62
7
100
AcDbPolyline
 90
2
 70
0
 10
90.127938
 20
-0.088925
 30
0.0
 10
99.127939
 20
-0.088925
 30
0.0
  0
LWPOLYLINE
  5
125
100
AcDbEntity
  8
Layer_1
 62
7
100
AcDbPolyline
 90
2
 70
0
 10
93.069605
 20
-1.128378
 30
0.0
 10
102.069606
 20
-1.128378
 30
0.0
  0
LWPOLYLINE
  5
126
100
AcDbEntity
  8
Layer_1
 62
7
100
AcDbPolyline
 90
2
 70
0
 10
90.189050
 20
-2.045600
 30
0.0
 10
99.189052
 20
-2.045600
 30
0.0
  0
LWPOLYLINE
  5
127
100
AcDbEntity
  8
Layer_1
 62
7
100
AcDbPolyline
 90
2
 70
0
 10
92.974603
 20
-3.186709
 30
0.0
 10
101.974605
 20
-3.186709
 30
0.0
  0
LWPOLYLINE
  5
128
100
AcDbEntity
  8
Layer_1
 62
7
100
AcDbPolyline
 90
2
 70
0
 10
108.323854
 20
-0.275111
 30
0.0
 10
108.001300
 20
-0.149465
 30
0.0
  0
LWPOLYLINE
  5
129
100
AcDbEntity
  8
Layer_1
 62
7
100
AcDbPolyline
 90
4
 70
0
 10
90.067562
 20
-0.011737
 30
0.0
 10
90.067562
 20
-11.997094
 30
0.0
 10
102.052919
 20
-12.055542
 30
0.0
 10
101.994454
 20
-0.011737
 30
0.0
  0
LWPOLYLINE
  5
12a
100
AcDbEntity
  8
Layer_1
 62
7
100
AcDbPolyline
 90
6
 70
0
 10
108.001300
 20
-0.149465
 30
0.0
 10
108.001300
 20
-0.149465
 30
0.0
 10
108.001300
 20
-0.149465
 30
0.0
 10
108.001300
 20
-0.149465
 30
0.0
 10
108.001300
 20
-0.149465
 30
0.0
 10
108.001300
 20
-0.149465
 30
0.0
  0
LWPOLYLINE
  5
12b
100
AcDbEntity
  8
Layer_1
 62
7
100
AcDbPolyline
 90
2
 70
0
 10
108.011008
 20
-0.082833
 30
0.0
 10
117.011010
 20
-0.082833
 30
0.0
  0
LWPOLYLINE
  5
12c
100
AcDbEntity
  8
Layer_1
 62
7
100
AcDbPolyline
 90
2
 70
0
 10
110.952675
 20
-1.122285
 30
0.0
 10
119.952677
 20
-1.122285
 30
0.0
  0
LWPOLYLINE
  5
12d
100
AcDbEntity
  8
Layer_1
 62
7
100
AcDbPolyline
 90
2
 70
0
 10
108.072120
 20
-2.039508
 30
0.0
 10
117.072122
 20
-2.039508
 30
0.0
  0
LWPOLYLINE
  5
12e
100
AcDbEntity
  8
Layer_1
 62
7
100
AcDbPolyline
 90
2
 70
0
 10
110.857673
 20
-3.180617
 30
0.0
 10
119.857675
 20
-3.180617
 30
0.0
  0
LWPOLYLINE
  5
12f
100
AcDbEntity
  8
Layer_1
 62
7
100
AcDbPolyline
 90
2
 70
0
 10
126.452969
 20
-0.351853
 30
0.0
 10
126.130414
 20
-0.226207
 30
0.0
  0
LWPOLYLINE
  5
130
100
AcDbEntity
  8
Layer_1
 62
7
100
AcDbPolyline
 90
4
 70
0
 10
107.950632
 20
-0.005645
 30
0.0
 10
107.950632
 20
-11.991002
 30
0.0
 10
119.935989
 20
-12.049450
 30
0.0
 10
119.877524
 20
-0.005645
 30
0.0
  0
LWPOLYLINE
  5
131
100
AcDbEntity
  8
Layer_1
 62
7
100
AcDbPolyline
 90
6
 70
0
 10
126.130414
 20
-0.226207
 30
0.0
 10
126.130414
 20
-0.226207
 30
0.0
 10
126.130414
 20
-0.226207
 30
0.0
 10
126.130414
 20
-0.226207
 30
0.0
 10
126.130414
 20
-0.226207
 30
0.0
 10
126.130414
 20
-0.226207
 30
0.0
  0
LWPOLYLINE
  5
132
100
AcDbEntity
  8
Layer_1
 62
7
100
AcDbPolyline
 90
2
 70
0
 10
126.140123
 20
-0.159575
 30
0.0
 10
135.140124
 20
-0.159575
 30
0.0
  0
LWPOLYLINE
  5
133
100
AcDbEntity
  8
Layer_1
 62
7
100
AcDbPolyline
 90
2
 70
0
 10
129.081790
 20
-1.199027
 30
0.0
 10
138.081791
 20
-1.199027
 30
0.0
  0
LWPOLYLINE
  5
134
100
AcDbEntity
  8
Layer_1
 62
7
100
AcDbPolyline
 90
2
 70
0
 10
126.201235
 20
-2.116250
 30
0.0
 10
135.201237
 20
-2.116250
 30
0.0
  0
LWPOLYLINE
  5
135
100
AcDbEntity
  8
Layer_1
 62
7
100
AcDbPolyline
 90
2
 70
0
 10
128.986788
 20
-3.257359
 30
0.0
 10
137.986790
 20
-3.257359
 30
0.0
  0
LWPOLYLINE
  5
136
100
AcDbEntity
  8
Layer_1
 62
7
100
AcDbPolyline
 90
2
 70
0
 10
144.446876
 20
-0.339668
 30
0.0
 10
144.124322
 20
-0.214023
 30
0.0
  0
LWPOLYLINE
  5
137
100
AcDbEntity
  8
Layer_1
 62
7
100
AcDbPolyline
 90
4
 70
0
 10
126.079747
 20
-0.082387
 30
0.0
 10
126.079747
 20
-12.067744
 30
0.0
 10
138.065104
 20
-12.126192
 30
0.0
 10
138.006638
 20
-0.082387
 30
0.0
  0
LWPOLYLINE
  5
138
100
AcDbEntity
  8
Layer_1
 62
7
100
AcDbPolyline
 90
6
 70
0
 10
144.124322
 20
-0.214023
 30
0.0
 10
144.124322
 20
-0.214023
 30
0.0
 10
144.124322
 20
-0.214023
 30
0.0
 10
144.124322
 20
-0.214023
 30
0.0
 10
144.124322
 20
-0.214023
 30
0.0
 10
144.124322
 20
-0.214023
 30
0.0
  0
LWPOLYLINE
  5
139
100
AcDbEntity
  8
Layer_1
 62
7
100
AcDbPolyline
 90
2
 70
0
 10
144.134030
 20
-0.147390
 30
0.0
 10
153.134032
 20
-0.147390
 30
0.0
  0
LWPOLYLINE
  5
13a
100
AcDbEntity
  8
Layer_1
 62
7
100
AcDbPolyline
 90
2
 70
0
 10
147.075697
 20
-1.186843
 30
0.0
 10
156.075699
 20
-1.186843
 30
0.0
  0
LWPOLYLINE
  5
13b
100
AcDbEntity
  8
Layer_1
 62
7
100
AcDbPolyline
 90
2
 70
0
 10
144.195142
 20
-2.104065
 30
0.0
 10
153.195144
 20
-2.104065
 30
0.0
  0
LWPOLYLINE
  5
13c
100
AcDbEntity
  8
Layer_1
 62
7
100
AcDbPolyline
 90
2
 70
0
 10
146.980696
 20
-3.245174
 30
0.0
 10
155.980697
 20
-3.245174
 30
0.0
  0
LWPOLYLINE
  5
13d
100
AcDbEntity
  8
Layer_1
 62
7
100
AcDbPolyline
 90
2
 70
0
 10
162.515307
 20
-0.336521
 30
0.0
 10
162.192753
 20
-0.210876
 30
0.0
  0
LWPOLYLINE
  5
13e
100
AcDbEntity
  8
Layer_1
 62
7
100
AcDbPolyline
 90
4
 70
0
 10
144.073654
 20
-0.070202
 30
0.0
 10
144.073654
 20
-12.055559
 30
0.0
 10
156.059011
 20
-12.114008
 30
0.0
 10
156.000546
 20
-0.070202
 30
0.0
  0
LWPOLYLINE
  5
13f
100
AcDbEntity
  8
Layer_1
 62
7
100
AcDbPolyline
 90
6
 70
0
 10
162.192753
 20
-0.210876
 30
0.0
 10
162.192753
 20
-0.210876
 30
0.0
 10
162.192753
 20
-0.210876
 30
0.0
 10
162.192753
 20
-0.210876
 30
0.0
 10
162.192753
 20
-0.210876
 30
0.0
 10
162.192753
 20
-0.210876
 30
0.0
  0
LWPOLYLINE
  5
140
100
AcDbEntity
  8
Layer_1
 62
7
100
AcDbPolyline
 90
2
 70
0
 10
162.202461
 20
-0.144243
 30
0.0
 10
171.202463
 20
-0.144243
 30
0.0
  0
LWPOLYLINE
  5
141
100
AcDbEntity
  8
Layer_1
 62
7
100
AcDbPolyline
 90
2
 70
0
 10
165.144128
 20
-1.183696
 30
0.0
 10
174.144130
 20
-1.183696
 30
0.0
  0
LWPOLYLINE
  5
142
100
AcDbEntity
  8
Layer_1
 62
7
100
AcDbPolyline
 90
2
 70
0
 10
162.263574
 20
-2.100918
 30
0.0
 10
171.263575
 20
-2.100918
 30
0.0
  0
LWPOLYLINE
  5
143
100
AcDbEntity
  8
Layer_1
 62
7
100
AcDbPolyline
 90
2
 70
0
 10
165.049127
 20
-3.242027
 30
0.0
 10
174.049128
 20
-3.242027
 30
0.0
  0
LWPOLYLINE
  5
144
100
AcDbEntity
  8
Layer_1
 62
7
100
AcDbPolyline
 90
2
 70
0
 10
180.476677
 20
-0.410830
 30
0.0
 10
180.154123
 20
-0.285184
 30
0.0
  0
LWPOLYLINE
  5
145
100
AcDbEntity
  8
Layer_1
 62
7
100
AcDbPolyline
 90
4
 70
0
 10
162.142085
 20
-0.067056
 30
0.0
 10
162.142085
 20
-12.052413
 30
0.0
 10
174.127442
 20
-12.110861
 30
0.0
 10
174.068977
 20
-0.067056
 30
0.0
  0
LWPOLYLINE
  5
146
100
AcDbEntity
  8
Layer_1
 62
7
100
AcDbPolyline
 90
6
 70
0
 10
180.154123
 20
-0.285184
 30
0.0
 10
180.154123
 20
-0.285184
 30
0.0
 10
180.154123
 20
-0.285184
 30
0.0
 10
180.154123
 20
-0.285184
 30
0.0
 10
180.154123
 20
-0.285184
 30
0.0
 10
180.154123
 20
-0.285184
 30
0.0
  0
LWPOLYLINE
  5
147
100
AcDbEntity
  8
Layer_1
 62
7
100
AcDbPolyline
 90
2
 70
0
 10
180.163831
 20
-0.218552
 30
0.0
 10
189.163833
 20
-0.218552
 30
0.0
  0
LWPOLYLINE
  5
148
100
AcDbEntity
  8
Layer_1
 62
7
100
AcDbPolyline
 90
2
 70
0
 10
183.105498
 20
-1.258004
 30
0.0
 10
192.105500
 20
-1.258004
 30
0.0
  0
LWPOLYLINE
  5
149
100
AcDbEntity
  8
Layer_1
 62
7
100
AcDbPolyline
 90
2
 70
0
 10
180.224944
 20
-2.175227
 30
0.0
 10
189.224945
 20
-2.175227
 30
0.0
  0
LWPOLYLINE
  5
14a
100
AcDbEntity
  8
Layer_1
 62
7
100
AcDbPolyline
 90
2
 70
0
 10
183.010497
 20
-3.316336
 30
0.0
 10
192.010498
 20
-3.316336
 30
0.0
  0
LWPOLYLINE
  5
14b
100
AcDbEntity
  8
Layer_1
 62
7
100
AcDbPolyline
 90
2
 70
0
 10
216.454756
 20
-0.274300
 30
0.0
 10
216.132201
 20
-0.148654
 30
0.0
  0
LWPOLYLINE
  5
14c
100
AcDbEntity
  8
Layer_1
 62
7
100
AcDbPolyline
 90
4
 70
0
 10
180.103455
 20
-0.141364
 30
0.0
 10
180.103455
 20
-12.126721
 30
0.0
 10
192.088812
 20
-12.185169
 30
0.0
 10
192.030347
 20
-0.141364
 30
0.0
  0
LWPOLYLINE
  5
14d
100
AcDbEntity
  8
Layer_1
 62
7
100
AcDbPolyline
 90
6
 70
0
 10
216.132201
 20
-0.148654
 30
0.0
 10
216.132201
 20
-0.148654
 30
0.0
 10
216.132201
 20
-0.148654
 30
0.0
 10
216.132201
 20
-0.148654
 30
0.0
 10
216.132201
 20
-0.148654
 30
0.0
 10
216.132201
 20
-0.148654
 30
0.0
  0
LWPOLYLINE
  5
14e
100
AcDbEntity
  8
Layer_1
 62
7
100
AcDbPolyline
 90
2
 70
0
 10
216.141910
 20
-0.082022
 30
0.0
 10
225.141911
 20
-0.082022
 30
0.0
  0
LWPOLYLINE
  5
14f
100
AcDbEntity
  8
Layer_1
 62
7
100
AcDbPolyline
 90
2
 70
0
 10
219.083577
 20
-1.121474
 30
0.0
 10
228.083578
 20
-1.121474
 30
0.0
  0
LWPOLYLINE
  5
150
100
AcDbEntity
  8
Layer_1
 62
7
100
AcDbPolyline
 90
2
 70
0
 10
216.203022
 20
-2.038696
 30
0.0
 10
225.203024
 20
-2.038696
 30
0.0
  0
LWPOLYLINE
  5
151
100
AcDbEntity
  8
Layer_1
 62
7
100
AcDbPolyline
 90
2
 70
0
 10
218.988575
 20
-3.179806
 30
0.0
 10
227.988577
 20
-3.179806
 30
0.0
  0
LWPOLYLINE
  5
152
100
AcDbEntity
  8
Layer_1
 62
7
100
AcDbPolyline
 90
2
 70
0
 10
198.514744
 20
-0.397898
 30
0.0
 10
198.192190
 20
-0.272253
 30
0.0
  0
LWPOLYLINE
  5
153
100
AcDbEntity
  8
Layer_1
 62
7
100
AcDbPolyline
 90
4
 70
0
 10
216.081534
 20
-0.004834
 30
0.0
 10
216.081534
 20
-11.990191
 30
0.0
 10
228.066891
 20
-12.048639
 30
0.0
 10
228.008426
 20
-0.004834
 30
0.0
  0
LWPOLYLINE
  5
154
100
AcDbEntity
  8
Layer_1
 62
7
100
AcDbPolyline
 90
6
 70
0
 10
198.192190
 20
-0.272253
 30
0.0
 10
198.192190
 20
-0.272253
 30
0.0
 10
198.192190
 20
-0.272253
 30
0.0
 10
198.192190
 20
-0.272253
 30
0.0
 10
198.192190
 20
-0.272253
 30
0.0
 10
198.192190
 20
-0.272253
 30
0.0
  0
LWPOLYLINE
  5
155
100
AcDbEntity
  8
Layer_1
 62
7
100
AcDbPolyline
 90
2
 70
0
 10
198.201898
 20
-0.205620
 30
0.0
 10
207.201900
 20
-0.205620
 30
0.0
  0
LWPOLYLINE
  5
156
100
AcDbEntity
  8
Layer_1
 62
7
100
AcDbPolyline
 90
2
 70
0
 10
201.143565
 20
-1.245073
 30
0.0
 10
210.143567
 20
-1.245073
 30
0.0
  0
LWPOLYLINE
  5
157
100
AcDbEntity
  8
Layer_1
 62
7
100
AcDbPolyline
 90
2
 70
0
 10
198.263010
 20
-2.162295
 30
0.0
 10
207.263012
 20
-2.162295
 30
0.0
  0
LWPOLYLINE
  5
158
100
AcDbEntity
  8
Layer_1
 62
7
100
AcDbPolyline
 90
2
 70
0
 10
201.048564
 20
-3.303404
 30
0.0
 10
210.048565
 20
-3.303404
 30
0.0
  0
LWPOLYLINE
  5
159
100
AcDbEntity
  8
Layer_1
 62
7
100
AcDbPolyline
 90
2
 70
0
 10
233.312897
 20
-0.400030
 30
0.0
 10
233.052472
 20
-0.274138
 30
0.0
  0
LWPOLYLINE
  5
15a
100
AcDbEntity
  8
Layer_1
 62
7
100
AcDbPolyline
 90
4
 70
0
 10
198.141522
 20
-0.128433
 30
0.0
 10
198.141522
 20
-12.113789
 30
0.0
 10
210.126879
 20
-12.172238
 30
0.0
 10
210.068414
 20
-0.128433
 30
0.0
  0
LWPOLYLINE
  5
15b
100
AcDbEntity
  8
Layer_1
 62
7
100
AcDbPolyline
 90
8
 70
0
 10
233.052472
 20
-0.274138
 30
0.0
 10
233.052472
 20
-0.274138
 30
0.0
 10
233.052472
 20
-0.274138
 30
0.0
 10
233.052472
 20
-0.274138
 30
0.0
 10
233.052472
 20
-0.274138
 30
0.0
 10
233.052472
 20
-0.274138
 30
0.0
 10
233.052472
 20
-0.274138
 30
0.0
 10
233.052472
 20
-0.274138
 30
0.0
  0
LWPOLYLINE
  5
15c
100
AcDbEntity
  8
Layer_1
 62
7
100
AcDbPolyline
 90
2
 70
0
 10
233.060310
 20
-0.207375
 30
0.0
 10
240.326778
 20
-0.207375
 30
0.0
  0
LWPOLYLINE
  5
15d
100
AcDbEntity
  8
Layer_1
 62
7
100
AcDbPolyline
 90
2
 70
0
 10
235.435369
 20
-1.248864
 30
0.0
 10
242.701837
 20
-1.248864
 30
0.0
  0
LWPOLYLINE
  5
15e
100
AcDbEntity
  8
Layer_1
 62
7
100
AcDbPolyline
 90
2
 70
0
 10
233.109651
 20
-2.167883
 30
0.0
 10
240.376119
 20
-2.167883
 30
0.0
  0
LWPOLYLINE
  5
15f
100
AcDbEntity
  8
Layer_1
 62
7
100
AcDbPolyline
 90
2
 70
0
 10
235.358666
 20
-3.311227
 30
0.0
 10
242.625134
 20
-3.311227
 30
0.0
  0
LWPOLYLINE
  5
160
100
AcDbEntity
  8
Layer_1
 62
7
100
AcDbPolyline
 90
4
 70
0
 10
233.011564
 20
-0.130036
 30
0.0
 10
233.011564
 20
-12.138871
 30
0.0
 10
242.688363
 20
-12.197434
 30
0.0
 10
242.641159
 20
-0.130036
 30
0.0
  0
LWPOLYLINE
  5
161
100
AcDbEntity
  8
Layer_1
 62
7
100
AcDbPolyline
 90
4
 70
0
 10
20.837784
 20
8.322819
 30
0.0
 10
20.837784
 20
8.322819
 30
0.0
 10
20.837784
 20
8.322819
 30
0.0
 10
20.837784
 20
8.322819
 30
0.0
  0
LWPOLYLINE
  5
162
100
AcDbEntity
  8
Layer_1
 62
7
100
AcDbPolyline
 90
2
 70
0
 10
4.608730
 20
-18.154572
 30
0.0
 10
4.235648
 20
-18.029109
 30
0.0
  0
LWPOLYLINE
  5
163
100
AcDbEntity
  8
Layer_1
 62
7
100
AcDbPolyline
 90
2
 70
0
 10
24.519094
 20
-18.212560
 30
0.0
 10
24.196539
 20
-18.086914
 30
0.0
  0
LWPOLYLINE
  5
164
100
AcDbEntity
  8
Layer_1
 62
7
100
AcDbPolyline
 90
8
 70
0
 10
4.235648
 20
-18.029109
 30
0.0
 10
4.235648
 20
-18.029109
 30
0.0
 10
4.235648
 20
-18.029109
 30
0.0
 10
4.235648
 20
-18.029109
 30
0.0
 10
4.235648
 20
-18.029109
 30
0.0
 10
4.235648
 20
-18.029109
 30
0.0
 10
4.235648
 20
-18.029109
 30
0.0
 10
4.235648
 20
-18.029109
 30
0.0
  0
LWPOLYLINE
  5
165
100
AcDbEntity
  8
Layer_1
 62
7
100
AcDbPolyline
 90
2
 70
0
 10
4.246878
 20
-17.962573
 30
0.0
 10
14.656709
 20
-17.962573
 30
0.0
  0
LWPOLYLINE
  5
166
100
AcDbEntity
  8
Layer_1
 62
7
100
AcDbPolyline
 90
2
 70
0
 10
7.649350
 20
-19.000515
 30
0.0
 10
18.059181
 20
-19.000515
 30
0.0
  0
LWPOLYLINE
  5
167
100
AcDbEntity
  8
Layer_1
 62
7
100
AcDbPolyline
 90
2
 70
0
 10
4.317562
 20
-19.916405
 30
0.0
 10
14.727395
 20
-19.916405
 30
0.0
  0
LWPOLYLINE
  5
168
100
AcDbEntity
  8
Layer_1
 62
7
100
AcDbPolyline
 90
2
 70
0
 10
7.539466
 20
-21.055855
 30
0.0
 10
17.949299
 20
-21.055855
 30
0.0
  0
LWPOLYLINE
  5
169
100
AcDbEntity
  8
Layer_1
 62
7
100
AcDbPolyline
 90
4
 70
0
 10
4.177637
 20
-17.885470
 30
0.0
 10
4.177637
 20
-29.853436
 30
0.0
 10
18.039299
 20
-29.911771
 30
0.0
 10
17.971680
 20
-17.885470
 30
0.0
  0
LWPOLYLINE
  5
16a
100
AcDbEntity
  8
Layer_1
 62
7
100
AcDbPolyline
 90
6
 70
0
 10
24.196539
 20
-18.086914
 30
0.0
 10
24.196539
 20
-18.086914
 30
0.0
 10
24.196539
 20
-18.086914
 30
0.0
 10
24.196539
 20
-18.086914
 30
0.0
 10
24.196539
 20
-18.086914
 30
0.0
 10
24.196539
 20
-18.086914
 30
0.0
  0
LWPOLYLINE
  5
16b
100
AcDbEntity
  8
Layer_1
 62
7
100
AcDbPolyline
 90
2
 70
0
 10
24.206247
 20
-18.020282
 30
0.0
 10
33.206249
 20
-18.020282
 30
0.0
  0
LWPOLYLINE
  5
16c
100
AcDbEntity
  8
Layer_1
 62
7
100
AcDbPolyline
 90
2
 70
0
 10
27.147915
 20
-19.059734
 30
0.0
 10
36.147916
 20
-19.059734
 30
0.0
  0
LWPOLYLINE
  5
16d
100
AcDbEntity
  8
Layer_1
 62
7
100
AcDbPolyline
 90
2
 70
0
 10
24.267360
 20
-19.976957
 30
0.0
 10
33.267362
 20
-19.976957
 30
0.0
  0
LWPOLYLINE
  5
16e
100
AcDbEntity
  8
Layer_1
 62
7
100
AcDbPolyline
 90
2
 70
0
 10
27.052913
 20
-21.118066
 30
0.0
 10
36.052915
 20
-21.118066
 30
0.0
  0
LWPOLYLINE
  5
16f
100
AcDbEntity
  8
Layer_1
 62
7
100
AcDbPolyline
 90
2
 70
0
 10
42.474395
 20
-18.204612
 30
0.0
 10
42.151840
 20
-18.078967
 30
0.0
  0
LWPOLYLINE
  5
170
100
AcDbEntity
  8
Layer_1
 62
7
100
AcDbPolyline
 90
4
 70
0
 10
24.145872
 20
-17.943094
 30
0.0
 10
24.145872
 20
-29.928451
 30
0.0
 10
36.131229
 20
-29.986899
 30
0.0
 10
36.072763
 20
-17.943094
 30
0.0
  0
LWPOLYLINE
  5
171
100
AcDbEntity
  8
Layer_1
 62
7
100
AcDbPolyline
 90
6
 70
0
 10
42.151840
 20
-18.078967
 30
0.0
 10
42.151840
 20
-18.078967
 30
0.0
 10
42.151840
 20
-18.078967
 30
0.0
 10
42.151840
 20
-18.078967
 30
0.0
 10
42.151840
 20
-18.078967
 30
0.0
 10
42.151840
 20
-18.078967
 30
0.0
  0
LWPOLYLINE
  5
172
100
AcDbEntity
  8
Layer_1
 62
7
100
AcDbPolyline
 90
2
 70
0
 10
42.161549
 20
-18.012334
 30
0.0
 10
51.161550
 20
-18.012334
 30
0.0
  0
LWPOLYLINE
  5
173
100
AcDbEntity
  8
Layer_1
 62
7
100
AcDbPolyline
 90
2
 70
0
 10
45.103216
 20
-19.051787
 30
0.0
 10
54.103218
 20
-19.051787
 30
0.0
  0
LWPOLYLINE
  5
174
100
AcDbEntity
  8
Layer_1
 62
7
100
AcDbPolyline
 90
2
 70
0
 10
42.222661
 20
-19.969009
 30
0.0
 10
51.222663
 20
-19.969009
 30
0.0
  0
LWPOLYLINE
  5
175
100
AcDbEntity
  8
Layer_1
 62
7
100
AcDbPolyline
 90
2
 70
0
 10
45.008214
 20
-21.110118
 30
0.0
 10
54.008216
 20
-21.110118
 30
0.0
  0
LWPOLYLINE
  5
176
100
AcDbEntity
  8
Layer_1
 62
7
100
AcDbPolyline
 90
2
 70
0
 10
60.560864
 20
-18.170516
 30
0.0
 10
60.238310
 20
-18.044871
 30
0.0
  0
LWPOLYLINE
  5
177
100
AcDbEntity
  8
Layer_1
 62
7
100
AcDbPolyline
 90
4
 70
0
 10
42.101173
 20
-17.935147
 30
0.0
 10
42.101173
 20
-29.920504
 30
0.0
 10
54.086530
 20
-29.978952
 30
0.0
 10
54.028065
 20
-17.935147
 30
0.0
  0
LWPOLYLINE
  5
178
100
AcDbEntity
  8
Layer_1
 62
7
100
AcDbPolyline
 90
6
 70
0
 10
60.238310
 20
-18.044871
 30
0.0
 10
60.238310
 20
-18.044871
 30
0.0
 10
60.238310
 20
-18.044871
 30
0.0
 10
60.238310
 20
-18.044871
 30
0.0
 10
60.238310
 20
-18.044871
 30
0.0
 10
60.238310
 20
-18.044871
 30
0.0
  0
LWPOLYLINE
  5
179
100
AcDbEntity
  8
Layer_1
 62
7
100
AcDbPolyline
 90
2
 70
0
 10
60.248018
 20
-17.978238
 30
0.0
 10
69.248020
 20
-17.978238
 30
0.0
  0
LWPOLYLINE
  5
17a
100
AcDbEntity
  8
Layer_1
 62
7
100
AcDbPolyline
 90
2
 70
0
 10
63.189685
 20
-19.017691
 30
0.0
 10
72.189687
 20
-19.017691
 30
0.0
  0
LWPOLYLINE
  5
17b
100
AcDbEntity
  8
Layer_1
 62
7
100
AcDbPolyline
 90
2
 70
0
 10
60.309130
 20
-19.934913
 30
0.0
 10
69.309132
 20
-19.934913
 30
0.0
  0
LWPOLYLINE
  5
17c
100
AcDbEntity
  8
Layer_1
 62
7
100
AcDbPolyline
 90
2
 70
0
 10
63.094683
 20
-21.076022
 30
0.0
 10
72.094685
 20
-21.076022
 30
0.0
  0
LWPOLYLINE
  5
17d
100
AcDbEntity
  8
Layer_1
 62
7
100
AcDbPolyline
 90
2
 70
0
 10
78.478029
 20
-18.136420
 30
0.0
 10
78.155474
 20
-18.010775
 30
0.0
  0
LWPOLYLINE
  5
17e
100
AcDbEntity
  8
Layer_1
 62
7
100
AcDbPolyline
 90
4
 70
0
 10
60.187642
 20
-17.901050
 30
0.0
 10
60.187642
 20
-29.886407
 30
0.0
 10
72.172999
 20
-29.944856
 30
0.0
 10
72.114534
 20
-17.901050
 30
0.0
  0
LWPOLYLINE
  5
17f
100
AcDbEntity
  8
Layer_1
 62
7
100
AcDbPolyline
 90
6
 70
0
 10
78.155474
 20
-18.010775
 30
0.0
 10
78.155474
 20
-18.010775
 30
0.0
 10
78.155474
 20
-18.010775
 30
0.0
 10
78.155474
 20
-18.010775
 30
0.0
 10
78.155474
 20
-18.010775
 30
0.0
 10
78.155474
 20
-18.010775
 30
0.0
  0
LWPOLYLINE
  5
180
100
AcDbEntity
  8
Layer_1
 62
7
100
AcDbPolyline
 90
2
 70
0
 10
78.165183
 20
-17.944142
 30
0.0
 10
87.165185
 20
-17.944142
 30
0.0
  0
LWPOLYLINE
  5
181
100
AcDbEntity
  8
Layer_1
 62
7
100
AcDbPolyline
 90
2
 70
0
 10
81.106850
 20
-18.983595
 30
0.0
 10
90.106852
 20
-18.983595
 30
0.0
  0
LWPOLYLINE
  5
182
100
AcDbEntity
  8
Layer_1
 62
7
100
AcDbPolyline
 90
2
 70
0
 10
78.226295
 20
-19.900817
 30
0.0
 10
87.226297
 20
-19.900817
 30
0.0
  0
LWPOLYLINE
  5
183
100
AcDbEntity
  8
Layer_1
 62
7
100
AcDbPolyline
 90
2
 70
0
 10
81.011848
 20
-21.041926
 30
0.0
 10
90.011850
 20
-21.041926
 30
0.0
  0
LWPOLYLINE
  5
184
100
AcDbEntity
  8
Layer_1
 62
7
100
AcDbPolyline
 90
2
 70
0
 10
96.465846
 20
-18.118143
 30
0.0
 10
96.143291
 20
-17.992498
 30
0.0
  0
LWPOLYLINE
  5
185
100
AcDbEntity
  8
Layer_1
 62
7
100
AcDbPolyline
 90
4
 70
0
 10
78.104807
 20
-17.866954
 30
0.0
 10
78.104807
 20
-29.852311
 30
0.0
 10
90.090164
 20
-29.910759
 30
0.0
 10
90.031699
 20
-17.866954
 30
0.0
  0
LWPOLYLINE
  5
186
100
AcDbEntity
  8
Layer_1
 62
7
100
AcDbPolyline
 90
6
 70
0
 10
96.143291
 20
-17.992498
 30
0.0
 10
96.143291
 20
-17.992498
 30
0.0
 10
96.143291
 20
-17.992498
 30
0.0
 10
96.143291
 20
-17.992498
 30
0.0
 10
96.143291
 20
-17.992498
 30
0.0
 10
96.143291
 20
-17.992498
 30
0.0
  0
LWPOLYLINE
  5
187
100
AcDbEntity
  8
Layer_1
 62
7
100
AcDbPolyline
 90
2
 70
0
 10
96.153000
 20
-17.925865
 30
0.0
 10
105.153002
 20
-17.925865
 30
0.0
  0
LWPOLYLINE
  5
188
100
AcDbEntity
  8
Layer_1
 62
7
100
AcDbPolyline
 90
2
 70
0
 10
99.094667
 20
-18.965318
 30
0.0
 10
108.094669
 20
-18.965318
 30
0.0
  0
LWPOLYLINE
  5
189
100
AcDbEntity
  8
Layer_1
 62
7
100
AcDbPolyline
 90
2
 70
0
 10
96.214112
 20
-19.882540
 30
0.0
 10
105.214114
 20
-19.882540
 30
0.0
  0
LWPOLYLINE
  5
18a
100
AcDbEntity
  8
Layer_1
 62
7
100
AcDbPolyline
 90
2
 70
0
 10
98.999665
 20
-21.023649
 30
0.0
 10
107.999667
 20
-21.023649
 30
0.0
  0
LWPOLYLINE
  5
18b
100
AcDbEntity
  8
Layer_1
 62
7
100
AcDbPolyline
 90
2
 70
0
 10
114.348916
 20
-18.112051
 30
0.0
 10
114.026362
 20
-17.986406
 30
0.0
  0
LWPOLYLINE
  5
18c
100
AcDbEntity
  8
Layer_1
 62
7
100
AcDbPolyline
 90
4
 70
0
 10
96.092624
 20
-17.848678
 30
0.0
 10
96.092624
 20
-29.834034
 30
0.0
 10
108.077981
 20
-29.892483
 30
0.0
 10
108.019516
 20
-17.848678
 30
0.0
  0
LWPOLYLINE
  5
18d
100
AcDbEntity
  8
Layer_1
 62
7
100
AcDbPolyline
 90
6
 70
0
 10
114.026362
 20
-17.986406
 30
0.0
 10
114.026362
 20
-17.986406
 30
0.0
 10
114.026362
 20
-17.986406
 30
0.0
 10
114.026362
 20
-17.986406
 30
0.0
 10
114.026362
 20
-17.986406
 30
0.0
 10
114.026362
 20
-17.986406
 30
0.0
  0
LWPOLYLINE
  5
18e
100
AcDbEntity
  8
Layer_1
 62
7
100
AcDbPolyline
 90
2
 70
0
 10
114.036070
 20
-17.919773
 30
0.0
 10
123.036072
 20
-17.919773
 30
0.0
  0
LWPOLYLINE
  5
18f
100
AcDbEntity
  8
Layer_1
 62
7
100
AcDbPolyline
 90
2
 70
0
 10
116.977737
 20
-18.959226
 30
0.0
 10
125.977739
 20
-18.959226
 30
0.0
  0
LWPOLYLINE
  5
190
100
AcDbEntity
  8
Layer_1
 62
7
100
AcDbPolyline
 90
2
 70
0
 10
114.097183
 20
-19.876448
 30
0.0
 10
123.097184
 20
-19.876448
 30
0.0
  0
LWPOLYLINE
  5
191
100
AcDbEntity
  8
Layer_1
 62
7
100
AcDbPolyline
 90
2
 70
0
 10
116.882736
 20
-21.017557
 30
0.0
 10
125.882738
 20
-21.017557
 30
0.0
  0
LWPOLYLINE
  5
192
100
AcDbEntity
  8
Layer_1
 62
7
100
AcDbPolyline
 90
2
 70
0
 10
132.478031
 20
-18.188793
 30
0.0
 10
132.155476
 20
-18.063148
 30
0.0
  0
LWPOLYLINE
  5
193
100
AcDbEntity
  8
Layer_1
 62
7
100
AcDbPolyline
 90
4
 70
0
 10
113.975694
 20
-17.842585
 30
0.0
 10
113.975694
 20
-29.827942
 30
0.0
 10
125.961051
 20
-29.886390
 30
0.0
 10
125.902586
 20
-17.842585
 30
0.0
  0
LWPOLYLINE
  5
194
100
AcDbEntity
  8
Layer_1
 62
7
100
AcDbPolyline
 90
6
 70
0
 10
132.155476
 20
-18.063148
 30
0.0
 10
132.155476
 20
-18.063148
 30
0.0
 10
132.155476
 20
-18.063148
 30
0.0
 10
132.155476
 20
-18.063148
 30
0.0
 10
132.155476
 20
-18.063148
 30
0.0
 10
132.155476
 20
-18.063148
 30
0.0
  0
LWPOLYLINE
  5
195
100
AcDbEntity
  8
Layer_1
 62
7
100
AcDbPolyline
 90
2
 70
0
 10
132.165185
 20
-17.996515
 30
0.0
 10
141.165187
 20
-17.996515
 30
0.0
  0
LWPOLYLINE
  5
196
100
AcDbEntity
  8
Layer_1
 62
7
100
AcDbPolyline
 90
2
 70
0
 10
135.106852
 20
-19.035968
 30
0.0
 10
144.106854
 20
-19.035968
 30
0.0
  0
LWPOLYLINE
  5
197
100
AcDbEntity
  8
Layer_1
 62
7
100
AcDbPolyline
 90
2
 70
0
 10
132.226297
 20
-19.953190
 30
0.0
 10
141.226299
 20
-19.953190
 30
0.0
  0
LWPOLYLINE
  5
198
100
AcDbEntity
  8
Layer_1
 62
7
100
AcDbPolyline
 90
2
 70
0
 10
135.011850
 20
-21.094299
 30
0.0
 10
144.011852
 20
-21.094299
 30
0.0
  0
LWPOLYLINE
  5
199
100
AcDbEntity
  8
Layer_1
 62
7
100
AcDbPolyline
 90
2
 70
0
 10
150.471938
 20
-18.176609
 30
0.0
 10
150.149384
 20
-18.050963
 30
0.0
  0
LWPOLYLINE
  5
19a
100
AcDbEntity
  8
Layer_1
 62
7
100
AcDbPolyline
 90
4
 70
0
 10
132.104809
 20
-17.919327
 30
0.0
 10
132.104809
 20
-29.904684
 30
0.0
 10
144.090166
 20
-29.963132
 30
0.0
 10
144.031701
 20
-17.919327
 30
0.0
  0
LWPOLYLINE
  5
19b
100
AcDbEntity
  8
Layer_1
 62
7
100
AcDbPolyline
 90
6
 70
0
 10
150.149384
 20
-18.050963
 30
0.0
 10
150.149384
 20
-18.050963
 30
0.0
 10
150.149384
 20
-18.050963
 30
0.0
 10
150.149384
 20
-18.050963
 30
0.0
 10
150.149384
 20
-18.050963
 30
0.0
 10
150.149384
 20
-18.050963
 30
0.0
  0
LWPOLYLINE
  5
19c
100
AcDbEntity
  8
Layer_1
 62
7
100
AcDbPolyline
 90
2
 70
0
 10
150.159092
 20
-17.984331
 30
0.0
 10
159.159094
 20
-17.984331
 30
0.0
  0
LWPOLYLINE
  5
19d
100
AcDbEntity
  8
Layer_1
 62
7
100
AcDbPolyline
 90
2
 70
0
 10
153.100759
 20
-19.023783
 30
0.0
 10
162.100761
 20
-19.023783
 30
0.0
  0
LWPOLYLINE
  5
19e
100
AcDbEntity
  8
Layer_1
 62
7
100
AcDbPolyline
 90
2
 70
0
 10
150.220205
 20
-19.941005
 30
0.0
 10
159.220206
 20
-19.941005
 30
0.0
  0
LWPOLYLINE
  5
19f
100
AcDbEntity
  8
Layer_1
 62
7
100
AcDbPolyline
 90
2
 70
0
 10
153.005758
 20
-21.082115
 30
0.0
 10
162.005760
 20
-21.082115
 30
0.0
  0
LWPOLYLINE
  5
1a0
100
AcDbEntity
  8
Layer_1
 62
7
100
AcDbPolyline
 90
2
 70
0
 10
168.540370
 20
-18.173462
 30
0.0
 10
168.217815
 20
-18.047816
 30
0.0
  0
LWPOLYLINE
  5
1a1
100
AcDbEntity
  8
Layer_1
 62
7
100
AcDbPolyline
 90
4
 70
0
 10
150.098717
 20
-17.907143
 30
0.0
 10
150.098717
 20
-29.892500
 30
0.0
 10
162.084073
 20
-29.950948
 30
0.0
 10
162.025608
 20
-17.907143
 30
0.0
  0
LWPOLYLINE
  5
1a2
100
AcDbEntity
  8
Layer_1
 62
7
100
AcDbPolyline
 90
6
 70
0
 10
168.217815
 20
-18.047816
 30
0.0
 10
168.217815
 20
-18.047816
 30
0.0
 10
168.217815
 20
-18.047816
 30
0.0
 10
168.217815
 20
-18.047816
 30
0.0
 10
168.217815
 20
-18.047816
 30
0.0
 10
168.217815
 20
-18.047816
 30
0.0
  0
LWPOLYLINE
  5
1a3
100
AcDbEntity
  8
Layer_1
 62
7
100
AcDbPolyline
 90
2
 70
0
 10
168.227523
 20
-17.981184
 30
0.0
 10
177.227525
 20
-17.981184
 30
0.0
  0
LWPOLYLINE
  5
1a4
100
AcDbEntity
  8
Layer_1
 62
7
100
AcDbPolyline
 90
2
 70
0
 10
171.169191
 20
-19.020636
 30
0.0
 10
180.169192
 20
-19.020636
 30
0.0
  0
LWPOLYLINE
  5
1a5
100
AcDbEntity
  8
Layer_1
 62
7
100
AcDbPolyline
 90
2
 70
0
 10
168.288636
 20
-19.937859
 30
0.0
 10
177.288638
 20
-19.937859
 30
0.0
  0
LWPOLYLINE
  5
1a6
100
AcDbEntity
  8
Layer_1
 62
7
100
AcDbPolyline
 90
2
 70
0
 10
171.074189
 20
-21.078968
 30
0.0
 10
180.074191
 20
-21.078968
 30
0.0
  0
LWPOLYLINE
  5
1a7
100
AcDbEntity
  8
Layer_1
 62
7
100
AcDbPolyline
 90
2
 70
0
 10
186.501740
 20
-18.247770
 30
0.0
 10
186.179185
 20
-18.122125
 30
0.0
  0
LWPOLYLINE
  5
1a8
100
AcDbEntity
  8
Layer_1
 62
7
100
AcDbPolyline
 90
4
 70
0
 10
168.167148
 20
-17.903996
 30
0.0
 10
168.167148
 20
-29.889353
 30
0.0
 10
180.152505
 20
-29.947801
 30
0.0
 10
180.094039
 20
-17.903996
 30
0.0
  0
LWPOLYLINE
  5
1a9
100
AcDbEntity
  8
Layer_1
 62
7
100
AcDbPolyline
 90
6
 70
0
 10
186.179185
 20
-18.122125
 30
0.0
 10
186.179185
 20
-18.122125
 30
0.0
 10
186.179185
 20
-18.122125
 30
0.0
 10
186.179185
 20
-18.122125
 30
0.0
 10
186.179185
 20
-18.122125
 30
0.0
 10
186.179185
 20
-18.122125
 30
0.0
  0
LWPOLYLINE
  5
1aa
100
AcDbEntity
  8
Layer_1
 62
7
100
AcDbPolyline
 90
2
 70
0
 10
186.188894
 20
-18.055492
 30
0.0
 10
195.188895
 20
-18.055492
 30
0.0
  0
LWPOLYLINE
  5
1ab
100
AcDbEntity
  8
Layer_1
 62
7
100
AcDbPolyline
 90
2
 70
0
 10
189.130561
 20
-19.094945
 30
0.0
 10
198.130562
 20
-19.094945
 30
0.0
  0
LWPOLYLINE
  5
1ac
100
AcDbEntity
  8
Layer_1
 62
7
100
AcDbPolyline
 90
2
 70
0
 10
186.250006
 20
-20.012167
 30
0.0
 10
195.250008
 20
-20.012167
 30
0.0
  0
LWPOLYLINE
  5
1ad
100
AcDbEntity
  8
Layer_1
 62
7
100
AcDbPolyline
 90
2
 70
0
 10
189.035559
 20
-21.153276
 30
0.0
 10
198.035561
 20
-21.153276
 30
0.0
  0
LWPOLYLINE
  5
1ae
100
AcDbEntity
  8
Layer_1
 62
7
100
AcDbPolyline
 90
4
 70
0
 10
186.128518
 20
-17.978304
 30
0.0
 10
186.128518
 20
-29.963661
 30
0.0
 10
198.113875
 20
-30.022109
 30
0.0
 10
198.055409
 20
-17.978304
 30
0.0
  0
LWPOLYLINE
  5
1af
100
AcDbEntity
  8
Layer_1
 62
7
100
AcDbPolyline
 90
7
 70
0
 10
204.539807
 20
-18.234839
 30
0.0
 10
204.217252
 20
-18.109193
 30
0.0
 10
204.217252
 20
-18.109193
 30
0.0
 10
204.217252
 20
-18.109193
 30
0.0
 10
204.217252
 20
-18.109193
 30
0.0
 10
204.217252
 20
-18.109193
 30
0.0
 10
204.217252
 20
-18.109193
 30
0.0
  0
LWPOLYLINE
  5
1b0
100
AcDbEntity
  8
Layer_1
 62
7
100
AcDbPolyline
 90
2
 70
0
 10
204.226960
 20
-18.042561
 30
0.0
 10
213.226962
 20
-18.042561
 30
0.0
  0
LWPOLYLINE
  5
1b1
100
AcDbEntity
  8
Layer_1
 62
7
100
AcDbPolyline
 90
2
 70
0
 10
207.168628
 20
-19.082013
 30
0.0
 10
216.168629
 20
-19.082013
 30
0.0
  0
LWPOLYLINE
  5
1b2
100
AcDbEntity
  8
Layer_1
 62
7
100
AcDbPolyline
 90
2
 70
0
 10
204.288073
 20
-19.999235
 30
0.0
 10
213.288075
 20
-19.999235
 30
0.0
  0
LWPOLYLINE
  5
1b3
100
AcDbEntity
  8
Layer_1
 62
7
100
AcDbPolyline
 90
2
 70
0
 10
207.073626
 20
-21.140345
 30
0.0
 10
216.073628
 20
-21.140345
 30
0.0
  0
LWPOLYLINE
  5
1b4
100
AcDbEntity
  8
Layer_1
 62
7
100
AcDbPolyline
 90
4
 70
0
 10
204.166585
 20
-17.965373
 30
0.0
 10
204.166585
 20
-29.950730
 30
0.0
 10
216.151941
 20
-30.009178
 30
0.0
 10
216.093476
 20
-17.965373
 30
0.0
  0
LWPOLYLINE
  5
1b5
100
AcDbEntity
  8
Layer_1
 62
7
100
AcDbPolyline
 90
7
 70
0
 10
-2.761075
 20
17.680511
 30
0.0
 10
-3.083629
 20
17.806156
 30
0.0
 10
-3.083629
 20
17.806156
 30
0.0
 10
-3.083629
 20
17.806156
 30
0.0
 10
-3.083629
 20
17.806156
 30
0.0
 10
-3.083629
 20
17.806156
 30
0.0
 10
-3.083629
 20
17.806156
 30
0.0
  0
LWPOLYLINE
  5
1b6
100
AcDbEntity
  8
Layer_1
 62
7
100
AcDbPolyline
 90
2
 70
0
 10
-3.073921
 20
17.872789
 30
0.0
 10
5.926081
 20
17.872789
 30
0.0
  0
LWPOLYLINE
  5
1b7
100
AcDbEntity
  8
Layer_1
 62
7
100
AcDbPolyline
 90
2
 70
0
 10
-0.132254
 20
16.833336
 30
0.0
 10
8.867748
 20
16.833336
 30
0.0
  0
LWPOLYLINE
  5
1b8
100
AcDbEntity
  8
Layer_1
 62
7
100
AcDbPolyline
 90
2
 70
0
 10
-3.012809
 20
15.916114
 30
0.0
 10
5.987193
 20
15.916114
 30
0.0
  0
LWPOLYLINE
  5
1b9
100
AcDbEntity
  8
Layer_1
 62
7
100
AcDbPolyline
 90
2
 70
0
 10
-0.227255
 20
14.775005
 30
0.0
 10
8.772746
 20
14.775005
 30
0.0
  0
LWPOLYLINE
  5
1ba
100
AcDbEntity
  8
Layer_1
 62
7
100
AcDbPolyline
 90
2
 70
0
 10
15.317720
 20
17.614099
 30
0.0
 10
14.995165
 20
17.739744
 30
0.0
  0
LWPOLYLINE
  5
1bb
100
AcDbEntity
  8
Layer_1
 62
7
100
AcDbPolyline
 90
4
 70
0
 10
-3.134297
 20
17.949977
 30
0.0
 10
-3.134297
 20
5.964620
 30
0.0
 10
8.851060
 20
5.906172
 30
0.0
 10
8.792595
 20
17.949977
 30
0.0
  0
LWPOLYLINE
  5
1bc
100
AcDbEntity
  8
Layer_1
 62
7
100
AcDbPolyline
 90
6
 70
0
 10
14.995165
 20
17.739744
 30
0.0
 10
14.995165
 20
17.739744
 30
0.0
 10
14.995165
 20
17.739744
 30
0.0
 10
14.995165
 20
17.739744
 30
0.0
 10
14.995165
 20
17.739744
 30
0.0
 10
14.995165
 20
17.739744
 30
0.0
  0
LWPOLYLINE
  5
1bd
100
AcDbEntity
  8
Layer_1
 62
7
100
AcDbPolyline
 90
2
 70
0
 10
15.004874
 20
17.806377
 30
0.0
 10
24.004876
 20
17.806377
 30
0.0
  0
LWPOLYLINE
  5
1be
100
AcDbEntity
  8
Layer_1
 62
7
100
AcDbPolyline
 90
2
 70
0
 10
17.946541
 20
16.766924
 30
0.0
 10
26.946543
 20
16.766924
 30
0.0
  0
LWPOLYLINE
  5
1bf
100
AcDbEntity
  8
Layer_1
 62
7
100
AcDbPolyline
 90
2
 70
0
 10
15.065986
 20
15.849702
 30
0.0
 10
24.065988
 20
15.849702
 30
0.0
  0
LWPOLYLINE
  5
1c0
100
AcDbEntity
  8
Layer_1
 62
7
100
AcDbPolyline
 90
2
 70
0
 10
17.851539
 20
14.708593
 30
0.0
 10
26.851541
 20
14.708593
 30
0.0
  0
LWPOLYLINE
  5
1c1
100
AcDbEntity
  8
Layer_1
 62
7
100
AcDbPolyline
 90
2
 70
0
 10
33.273021
 20
17.622046
 30
0.0
 10
32.950467
 20
17.747691
 30
0.0
  0
LWPOLYLINE
  5
1c2
100
AcDbEntity
  8
Layer_1
 62
7
100
AcDbPolyline
 90
4
 70
0
 10
14.944498
 20
17.883564
 30
0.0
 10
14.944498
 20
5.898207
 30
0.0
 10
26.929855
 20
5.839759
 30
0.0
 10
26.871390
 20
17.883564
 30
0.0
  0
LWPOLYLINE
  5
1c3
100
AcDbEntity
  8
Layer_1
 62
7
100
AcDbPolyline
 90
6
 70
0
 10
32.950467
 20
17.747691
 30
0.0
 10
32.950467
 20
17.747691
 30
0.0
 10
32.950467
 20
17.747691
 30
0.0
 10
32.950467
 20
17.747691
 30
0.0
 10
32.950467
 20
17.747691
 30
0.0
 10
32.950467
 20
17.747691
 30
0.0
  0
LWPOLYLINE
  5
1c4
100
AcDbEntity
  8
Layer_1
 62
7
100
AcDbPolyline
 90
2
 70
0
 10
32.960175
 20
17.814324
 30
0.0
 10
41.960177
 20
17.814324
 30
0.0
  0
LWPOLYLINE
  5
1c5
100
AcDbEntity
  8
Layer_1
 62
7
100
AcDbPolyline
 90
2
 70
0
 10
35.901842
 20
16.774871
 30
0.0
 10
44.901844
 20
16.774871
 30
0.0
  0
LWPOLYLINE
  5
1c6
100
AcDbEntity
  8
Layer_1
 62
7
100
AcDbPolyline
 90
2
 70
0
 10
33.021288
 20
15.857649
 30
0.0
 10
42.021289
 20
15.857649
 30
0.0
  0
LWPOLYLINE
  5
1c7
100
AcDbEntity
  8
Layer_1
 62
7
100
AcDbPolyline
 90
2
 70
0
 10
35.806841
 20
14.716540
 30
0.0
 10
44.806842
 20
14.716540
 30
0.0
  0
LWPOLYLINE
  5
1c8
100
AcDbEntity
  8
Layer_1
 62
7
100
AcDbPolyline
 90
2
 70
0
 10
51.359491
 20
17.656142
 30
0.0
 10
51.036936
 20
17.781787
 30
0.0
  0
LWPOLYLINE
  5
1c9
100
AcDbEntity
  8
Layer_1
 62
7
100
AcDbPolyline
 90
4
 70
0
 10
32.899799
 20
17.891512
 30
0.0
 10
32.899799
 20
5.906155
 30
0.0
 10
44.885156
 20
5.847706
 30
0.0
 10
44.826691
 20
17.891512
 30
0.0
  0
LWPOLYLINE
  5
1ca
100
AcDbEntity
  8
Layer_1
 62
7
100
AcDbPolyline
 90
6
 70
0
 10
51.036936
 20
17.781787
 30
0.0
 10
51.036936
 20
17.781787
 30
0.0
 10
51.036936
 20
17.781787
 30
0.0
 10
51.036936
 20
17.781787
 30
0.0
 10
51.036936
 20
17.781787
 30
0.0
 10
51.036936
 20
17.781787
 30
0.0
  0
LWPOLYLINE
  5
1cb
100
AcDbEntity
  8
Layer_1
 62
7
100
AcDbPolyline
 90
2
 70
0
 10
51.046644
 20
17.848420
 30
0.0
 10
60.046646
 20
17.848420
 30
0.0
  0
LWPOLYLINE
  5
1cc
100
AcDbEntity
  8
Layer_1
 62
7
100
AcDbPolyline
 90
2
 70
0
 10
53.988312
 20
16.808967
 30
0.0
 10
62.988313
 20
16.808967
 30
0.0
  0
LWPOLYLINE
  5
1cd
100
AcDbEntity
  8
Layer_1
 62
7
100
AcDbPolyline
 90
2
 70
0
 10
51.107757
 20
15.891745
 30
0.0
 10
60.107759
 20
15.891745
 30
0.0
  0
LWPOLYLINE
  5
1ce
100
AcDbEntity
  8
Layer_1
 62
7
100
AcDbPolyline
 90
2
 70
0
 10
53.893310
 20
14.750636
 30
0.0
 10
62.893312
 20
14.750636
 30
0.0
  0
LWPOLYLINE
  5
1cf
100
AcDbEntity
  8
Layer_1
 62
7
100
AcDbPolyline
 90
2
 70
0
 10
69.276655
 20
17.690238
 30
0.0
 10
68.954101
 20
17.815883
 30
0.0
  0
LWPOLYLINE
  5
1d0
100
AcDbEntity
  8
Layer_1
 62
7
100
AcDbPolyline
 90
4
 70
0
 10
50.986269
 20
17.925608
 30
0.0
 10
50.986269
 20
5.940251
 30
0.0
 10
62.971626
 20
5.881803
 30
0.0
 10
62.913160
 20
17.925608
 30
0.0
  0
LWPOLYLINE
  5
1d1
100
AcDbEntity
  8
Layer_1
 62
7
100
AcDbPolyline
 90
6
 70
0
 10
68.954101
 20
17.815883
 30
0.0
 10
68.954101
 20
17.815883
 30
0.0
 10
68.954101
 20
17.815883
 30
0.0
 10
68.954101
 20
17.815883
 30
0.0
 10
68.954101
 20
17.815883
 30
0.0
 10
68.954101
 20
17.815883
 30
0.0
  0
LWPOLYLINE
  5
1d2
100
AcDbEntity
  8
Layer_1
 62
7
100
AcDbPolyline
 90
2
 70
0
 10
68.963809
 20
17.882516
 30
0.0
 10
77.963811
 20
17.882516
 30
0.0
  0
LWPOLYLINE
  5
1d3
100
AcDbEntity
  8
Layer_1
 62
7
100
AcDbPolyline
 90
2
 70
0
 10
71.905476
 20
16.843063
 30
0.0
 10
80.905478
 20
16.843063
 30
0.0
  0
LWPOLYLINE
  5
1d4
100
AcDbEntity
  8
Layer_1
 62
7
100
AcDbPolyline
 90
2
 70
0
 10
69.024922
 20
15.925841
 30
0.0
 10
78.024923
 20
15.925841
 30
0.0
  0
LWPOLYLINE
  5
1d5
100
AcDbEntity
  8
Layer_1
 62
7
100
AcDbPolyline
 90
2
 70
0
 10
71.810475
 20
14.784732
 30
0.0
 10
80.810476
 20
14.784732
 30
0.0
  0
LWPOLYLINE
  5
1d6
100
AcDbEntity
  8
Layer_1
 62
7
100
AcDbPolyline
 90
2
 70
0
 10
87.264473
 20
17.708515
 30
0.0
 10
86.941918
 20
17.834160
 30
0.0
  0
LWPOLYLINE
  5
1d7
100
AcDbEntity
  8
Layer_1
 62
7
100
AcDbPolyline
 90
4
 70
0
 10
68.903433
 20
17.959704
 30
0.0
 10
68.903433
 20
5.974347
 30
0.0
 10
80.888790
 20
5.915899
 30
0.0
 10
80.830325
 20
17.959704
 30
0.0
  0
LWPOLYLINE
  5
1d8
100
AcDbEntity
  8
Layer_1
 62
7
100
AcDbPolyline
 90
6
 70
0
 10
86.941918
 20
17.834160
 30
0.0
 10
86.941918
 20
17.834160
 30
0.0
 10
86.941918
 20
17.834160
 30
0.0
 10
86.941918
 20
17.834160
 30
0.0
 10
86.941918
 20
17.834160
 30
0.0
 10
86.941918
 20
17.834160
 30
0.0
  0
LWPOLYLINE
  5
1d9
100
AcDbEntity
  8
Layer_1
 62
7
100
AcDbPolyline
 90
2
 70
0
 10
86.951626
 20
17.900793
 30
0.0
 10
95.951628
 20
17.900793
 30
0.0
  0
LWPOLYLINE
  5
1da
100
AcDbEntity
  8
Layer_1
 62
7
100
AcDbPolyline
 90
2
 70
0
 10
89.893294
 20
16.861340
 30
0.0
 10
98.893295
 20
16.861340
 30
0.0
  0
LWPOLYLINE
  5
1db
100
AcDbEntity
  8
Layer_1
 62
7
100
AcDbPolyline
 90
2
 70
0
 10
87.012739
 20
15.944118
 30
0.0
 10
96.012741
 20
15.944118
 30
0.0
  0
LWPOLYLINE
  5
1dc
100
AcDbEntity
  8
Layer_1
 62
7
100
AcDbPolyline
 90
2
 70
0
 10
89.798292
 20
14.803009
 30
0.0
 10
98.798294
 20
14.803009
 30
0.0
  0
LWPOLYLINE
  5
1dd
100
AcDbEntity
  8
Layer_1
 62
7
100
AcDbPolyline
 90
2
 70
0
 10
105.147543
 20
17.714607
 30
0.0
 10
104.824988
 20
17.840252
 30
0.0
  0
LWPOLYLINE
  5
1de
100
AcDbEntity
  8
Layer_1
 62
7
100
AcDbPolyline
 90
4
 70
0
 10
86.891251
 20
17.977981
 30
0.0
 10
86.891251
 20
5.992624
 30
0.0
 10
98.876607
 20
5.934176
 30
0.0
 10
98.818142
 20
17.977981
 30
0.0
  0
LWPOLYLINE
  5
1df
100
AcDbEntity
  8
Layer_1
 62
7
100
AcDbPolyline
 90
6
 70
0
 10
104.824988
 20
17.840252
 30
0.0
 10
104.824988
 20
17.840252
 30
0.0
 10
104.824988
 20
17.840252
 30
0.0
 10
104.824988
 20
17.840252
 30
0.0
 10
104.824988
 20
17.840252
 30
0.0
 10
104.824988
 20
17.840252
 30
0.0
  0
LWPOLYLINE
  5
1e0
100
AcDbEntity
  8
Layer_1
 62
7
100
AcDbPolyline
 90
2
 70
0
 10
104.834697
 20
17.906885
 30
0.0
 10
113.834699
 20
17.906885
 30
0.0
  0
LWPOLYLINE
  5
1e1
100
AcDbEntity
  8
Layer_1
 62
7
100
AcDbPolyline
 90
2
 70
0
 10
107.776364
 20
16.867432
 30
0.0
 10
116.776366
 20
16.867432
 30
0.0
  0
LWPOLYLINE
  5
1e2
100
AcDbEntity
  8
Layer_1
 62
7
100
AcDbPolyline
 90
2
 70
0
 10
104.895809
 20
15.950210
 30
0.0
 10
113.895811
 20
15.950210
 30
0.0
  0
LWPOLYLINE
  5
1e3
100
AcDbEntity
  8
Layer_1
 62
7
100
AcDbPolyline
 90
2
 70
0
 10
107.681362
 20
14.809101
 30
0.0
 10
116.681364
 20
14.809101
 30
0.0
  0
LWPOLYLINE
  5
1e4
100
AcDbEntity
  8
Layer_1
 62
7
100
AcDbPolyline
 90
2
 70
0
 10
123.276657
 20
17.637865
 30
0.0
 10
122.954103
 20
17.763510
 30
0.0
  0
LWPOLYLINE
  5
1e5
100
AcDbEntity
  8
Layer_1
 62
7
100
AcDbPolyline
 90
4
 70
0
 10
104.774321
 20
17.984073
 30
0.0
 10
104.774321
 20
5.998716
 30
0.0
 10
116.759678
 20
5.940268
 30
0.0
 10
116.701213
 20
17.984073
 30
0.0
  0
LWPOLYLINE
  5
1e6
100
AcDbEntity
  8
Layer_1
 62
7
100
AcDbPolyline
 90
6
 70
0
 10
122.954103
 20
17.763510
 30
0.0
 10
122.954103
 20
17.763510
 30
0.0
 10
122.954103
 20
17.763510
 30
0.0
 10
122.954103
 20
17.763510
 30
0.0
 10
122.954103
 20
17.763510
 30
0.0
 10
122.954103
 20
17.763510
 30
0.0
  0
LWPOLYLINE
  5
1e7
100
AcDbEntity
  8
Layer_1
 62
7
100
AcDbPolyline
 90
2
 70
0
 10
122.963811
 20
17.830143
 30
0.0
 10
131.963813
 20
17.830143
 30
0.0
  0
LWPOLYLINE
  5
1e8
100
AcDbEntity
  8
Layer_1
 62
7
100
AcDbPolyline
 90
2
 70
0
 10
125.905478
 20
16.790690
 30
0.0
 10
134.905480
 20
16.790690
 30
0.0
  0
LWPOLYLINE
  5
1e9
100
AcDbEntity
  8
Layer_1
 62
7
100
AcDbPolyline
 90
2
 70
0
 10
123.024924
 20
15.873468
 30
0.0
 10
132.024925
 20
15.873468
 30
0.0
  0
LWPOLYLINE
  5
1ea
100
AcDbEntity
  8
Layer_1
 62
7
100
AcDbPolyline
 90
2
 70
0
 10
125.810477
 20
14.732359
 30
0.0
 10
134.810479
 20
14.732359
 30
0.0
  0
LWPOLYLINE
  5
1eb
100
AcDbEntity
  8
Layer_1
 62
7
100
AcDbPolyline
 90
2
 70
0
 10
141.270565
 20
17.650050
 30
0.0
 10
140.948010
 20
17.775695
 30
0.0
  0
LWPOLYLINE
  5
1ec
100
AcDbEntity
  8
Layer_1
 62
7
100
AcDbPolyline
 90
4
 70
0
 10
122.903436
 20
17.907331
 30
0.0
 10
122.903436
 20
5.921974
 30
0.0
 10
134.888792
 20
5.863526
 30
0.0
 10
134.830327
 20
17.907331
 30
0.0
  0
LWPOLYLINE
  5
1ed
100
AcDbEntity
  8
Layer_1
 62
7
100
AcDbPolyline
 90
6
 70
0
 10
140.948010
 20
17.775695
 30
0.0
 10
140.948010
 20
17.775695
 30
0.0
 10
140.948010
 20
17.775695
 30
0.0
 10
140.948010
 20
17.775695
 30
0.0
 10
140.948010
 20
17.775695
 30
0.0
 10
140.948010
 20
17.775695
 30
0.0
  0
LWPOLYLINE
  5
1ee
100
AcDbEntity
  8
Layer_1
 62
7
100
AcDbPolyline
 90
2
 70
0
 10
140.957719
 20
17.842328
 30
0.0
 10
149.957721
 20
17.842328
 30
0.0
  0
LWPOLYLINE
  5
1ef
100
AcDbEntity
  8
Layer_1
 62
7
100
AcDbPolyline
 90
2
 70
0
 10
143.899386
 20
16.802875
 30
0.0
 10
152.899388
 20
16.802875
 30
0.0
  0
LWPOLYLINE
  5
1f0
100
AcDbEntity
  8
Layer_1
 62
7
100
AcDbPolyline
 90
2
 70
0
 10
141.018831
 20
15.885653
 30
0.0
 10
150.018833
 20
15.885653
 30
0.0
  0
LWPOLYLINE
  5
1f1
100
AcDbEntity
  8
Layer_1
 62
7
100
AcDbPolyline
 90
2
 70
0
 10
143.804384
 20
14.744544
 30
0.0
 10
152.804386
 20
14.744544
 30
0.0
  0
LWPOLYLINE
  5
1f2
100
AcDbEntity
  8
Layer_1
 62
7
100
AcDbPolyline
 90
2
 70
0
 10
159.338996
 20
17.653196
 30
0.0
 10
159.016441
 20
17.778842
 30
0.0
  0
LWPOLYLINE
  5
1f3
100
AcDbEntity
  8
Layer_1
 62
7
100
AcDbPolyline
 90
4
 70
0
 10
140.897343
 20
17.919515
 30
0.0
 10
140.897343
 20
5.934159
 30
0.0
 10
152.882700
 20
5.875710
 30
0.0
 10
152.824235
 20
17.919515
 30
0.0
  0
LWPOLYLINE
  5
1f4
100
AcDbEntity
  8
Layer_1
 62
7
100
AcDbPolyline
 90
6
 70
0
 10
159.016441
 20
17.778842
 30
0.0
 10
159.016441
 20
17.778842
 30
0.0
 10
159.016441
 20
17.778842
 30
0.0
 10
159.016441
 20
17.778842
 30
0.0
 10
159.016441
 20
17.778842
 30
0.0
 10
159.016441
 20
17.778842
 30
0.0
  0
LWPOLYLINE
  5
1f5
100
AcDbEntity
  8
Layer_1
 62
7
100
AcDbPolyline
 90
2
 70
0
 10
159.026150
 20
17.845474
 30
0.0
 10
168.026152
 20
17.845474
 30
0.0
  0
LWPOLYLINE
  5
1f6
100
AcDbEntity
  8
Layer_1
 62
7
100
AcDbPolyline
 90
2
 70
0
 10
161.967817
 20
16.806022
 30
0.0
 10
170.967819
 20
16.806022
 30
0.0
  0
LWPOLYLINE
  5
1f7
100
AcDbEntity
  8
Layer_1
 62
7
100
AcDbPolyline
 90
2
 70
0
 10
159.087262
 20
15.888800
 30
0.0
 10
168.087264
 20
15.888800
 30
0.0
  0
LWPOLYLINE
  5
1f8
100
AcDbEntity
  8
Layer_1
 62
7
100
AcDbPolyline
 90
2
 70
0
 10
161.872815
 20
14.747690
 30
0.0
 10
170.872817
 20
14.747690
 30
0.0
  0
LWPOLYLINE
  5
1f9
100
AcDbEntity
  8
Layer_1
 62
7
100
AcDbPolyline
 90
2
 70
0
 10
177.300366
 20
17.578888
 30
0.0
 10
176.977812
 20
17.704533
 30
0.0
  0
LWPOLYLINE
  5
1fa
100
AcDbEntity
  8
Layer_1
 62
7
100
AcDbPolyline
 90
4
 70
0
 10
158.965774
 20
17.922662
 30
0.0
 10
158.965774
 20
5.937305
 30
0.0
 10
170.951131
 20
5.878857
 30
0.0
 10
170.892666
 20
17.922662
 30
0.0
  0
LWPOLYLINE
  5
1fb
100
AcDbEntity
  8
Layer_1
 62
7
100
AcDbPolyline
 90
6
 70
0
 10
176.977812
 20
17.704533
 30
0.0
 10
176.977812
 20
17.704533
 30
0.0
 10
176.977812
 20
17.704533
 30
0.0
 10
176.977812
 20
17.704533
 30
0.0
 10
176.977812
 20
17.704533
 30
0.0
 10
176.977812
 20
17.704533
 30
0.0
  0
LWPOLYLINE
  5
1fc
100
AcDbEntity
  8
Layer_1
 62
7
100
AcDbPolyline
 90
2
 70
0
 10
176.987520
 20
17.771166
 30
0.0
 10
185.987522
 20
17.771166
 30
0.0
  0
LWPOLYLINE
  5
1fd
100
AcDbEntity
  8
Layer_1
 62
7
100
AcDbPolyline
 90
2
 70
0
 10
179.929187
 20
16.731713
 30
0.0
 10
188.929189
 20
16.731713
 30
0.0
  0
LWPOLYLINE
  5
1fe
100
AcDbEntity
  8
Layer_1
 62
7
100
AcDbPolyline
 90
2
 70
0
 10
177.048632
 20
15.814491
 30
0.0
 10
186.048634
 20
15.814491
 30
0.0
  0
LWPOLYLINE
  5
1ff
100
AcDbEntity
  8
Layer_1
 62
7
100
AcDbPolyline
 90
2
 70
0
 10
179.834186
 20
14.673382
 30
0.0
 10
188.834187
 20
14.673382
 30
0.0
  0
LWPOLYLINE
  5
200
100
AcDbEntity
  8
Layer_1
 62
7
100
AcDbPolyline
 90
2
 70
0
 10
213.278445
 20
17.715418
 30
0.0
 10
212.955890
 20
17.841064
 30
0.0
  0
LWPOLYLINE
  5
201
100
AcDbEntity
  8
Layer_1
 62
7
100
AcDbPolyline
 90
4
 70
0
 10
176.927144
 20
17.848354
 30
0.0
 10
176.927144
 20
5.862997
 30
0.0
 10
188.912501
 20
5.804549
 30
0.0
 10
188.854036
 20
17.848354
 30
0.0
  0
LWPOLYLINE
  5
202
100
AcDbEntity
  8
Layer_1
 62
7
100
AcDbPolyline
 90
6
 70
0
 10
212.955890
 20
17.841064
 30
0.0
 10
212.955890
 20
17.841064
 30
0.0
 10
212.955890
 20
17.841064
 30
0.0
 10
212.955890
 20
17.841064
 30
0.0
 10
212.955890
 20
17.841064
 30
0.0
 10
212.955890
 20
17.841064
 30
0.0
  0
LWPOLYLINE
  5
203
100
AcDbEntity
  8
Layer_1
 62
7
100
AcDbPolyline
 90
2
 70
0
 10
212.965598
 20
17.907696
 30
0.0
 10
221.965600
 20
17.907696
 30
0.0
  0
LWPOLYLINE
  5
204
100
AcDbEntity
  8
Layer_1
 62
7
100
AcDbPolyline
 90
2
 70
0
 10
215.907266
 20
16.868244
 30
0.0
 10
224.907267
 20
16.868244
 30
0.0
  0
LWPOLYLINE
  5
205
100
AcDbEntity
  8
Layer_1
 62
7
100
AcDbPolyline
 90
2
 70
0
 10
213.026711
 20
15.951021
 30
0.0
 10
222.026713
 20
15.951021
 30
0.0
  0
LWPOLYLINE
  5
206
100
AcDbEntity
  8
Layer_1
 62
7
100
AcDbPolyline
 90
2
 70
0
 10
215.812264
 20
14.809912
 30
0.0
 10
224.812266
 20
14.809912
 30
0.0
  0
LWPOLYLINE
  5
207
100
AcDbEntity
  8
Layer_1
 62
7
100
AcDbPolyline
 90
2
 70
0
 10
195.338433
 20
17.591820
 30
0.0
 10
195.015878
 20
17.717465
 30
0.0
  0
LWPOLYLINE
  5
208
100
AcDbEntity
  8
Layer_1
 62
7
100
AcDbPolyline
 90
4
 70
0
 10
212.905223
 20
17.984884
 30
0.0
 10
212.905223
 20
5.999527
 30
0.0
 10
224.890579
 20
5.941079
 30
0.0
 10
224.832114
 20
17.984884
 30
0.0
  0
LWPOLYLINE
  5
209
100
AcDbEntity
  8
Layer_1
 62
7
100
AcDbPolyline
 90
6
 70
0
 10
195.015878
 20
17.717465
 30
0.0
 10
195.015878
 20
17.717465
 30
0.0
 10
195.015878
 20
17.717465
 30
0.0
 10
195.015878
 20
17.717465
 30
0.0
 10
195.015878
 20
17.717465
 30
0.0
 10
195.015878
 20
17.717465
 30
0.0
  0
LWPOLYLINE
  5
20a
100
AcDbEntity
  8
Layer_1
 62
7
100
AcDbPolyline
 90
2
 70
0
 10
195.025587
 20
17.784098
 30
0.0
 10
204.025589
 20
17.784098
 30
0.0
  0
LWPOLYLINE
  5
20b
100
AcDbEntity
  8
Layer_1
 62
7
100
AcDbPolyline
 90
2
 70
0
 10
197.967254
 20
16.744645
 30
0.0
 10
206.967256
 20
16.744645
 30
0.0
  0
LWPOLYLINE
  5
20c
100
AcDbEntity
  8
Layer_1
 62
7
100
AcDbPolyline
 90
2
 70
0
 10
195.086699
 20
15.827423
 30
0.0
 10
204.086701
 20
15.827423
 30
0.0
  0
LWPOLYLINE
  5
20d
100
AcDbEntity
  8
Layer_1
 62
7
100
AcDbPolyline
 90
2
 70
0
 10
197.872252
 20
14.686314
 30
0.0
 10
206.872254
 20
14.686314
 30
0.0
  0
LWPOLYLINE
  5
20e
100
AcDbEntity
  8
Layer_1
 62
7
100
AcDbPolyline
 90
2
 70
0
 10
231.249297
 20
17.724675
 30
0.0
 10
230.926743
 20
17.850321
 30
0.0
  0
LWPOLYLINE
  5
20f
100
AcDbEntity
  8
Layer_1
 62
7
100
AcDbPolyline
 90
4
 70
0
 10
194.965211
 20
17.861285
 30
0.0
 10
194.965211
 20
5.875929
 30
0.0
 10
206.950568
 20
5.817480
 30
0.0
 10
206.892103
 20
17.861285
 30
0.0
  0
LWPOLYLINE
  5
210
100
AcDbEntity
  8
Layer_1
 62
7
100
AcDbPolyline
 90
6
 70
0
 10
230.926743
 20
17.850321
 30
0.0
 10
230.926743
 20
17.850321
 30
0.0
 10
230.926743
 20
17.850321
 30
0.0
 10
230.926743
 20
17.850321
 30
0.0
 10
230.926743
 20
17.850321
 30
0.0
 10
230.926743
 20
17.850321
 30
0.0
  0
LWPOLYLINE
  5
211
100
AcDbEntity
  8
Layer_1
 62
7
100
AcDbPolyline
 90
2
 70
0
 10
230.936451
 20
17.916953
 30
0.0
 10
239.936453
 20
17.916953
 30
0.0
  0
LWPOLYLINE
  5
212
100
AcDbEntity
  8
Layer_1
 62
7
100
AcDbPolyline
 90
2
 70
0
 10
233.878118
 20
16.877501
 30
0.0
 10
242.878120
 20
16.877501
 30
0.0
  0
LWPOLYLINE
  5
213
100
AcDbEntity
  8
Layer_1
 62
7
100
AcDbPolyline
 90
2
 70
0
 10
230.997564
 20
15.960278
 30
0.0
 10
239.997565
 20
15.960278
 30
0.0
  0
LWPOLYLINE
  5
214
100
AcDbEntity
  8
Layer_1
 62
7
100
AcDbPolyline
 90
2
 70
0
 10
233.783117
 20
14.819169
 30
0.0
 10
242.783118
 20
14.819169
 30
0.0
  0
LWPOLYLINE
  5
215
100
AcDbEntity
  8
Layer_1
 62
7
100
AcDbPolyline
 90
4
 70
0
 10
230.729731
 20
18.140487
 30
0.0
 10
230.729731
 20
6.155127
 30
0.0
 10
242.715088
 20
6.096679
 30
0.0
 10
242.656622
 20
18.140487
 30
0.0
  0
LWPOLYLINE
  5
216
100
AcDbEntity
  8
Layer_1
 62
7
100
AcDbPolyline
 90
2
 70
0
 10
5.213529
 20
-35.335422
 30
0.0
 10
4.634506
 20
-35.210599
 30
0.0
  0
LWPOLYLINE
  5
217
100
AcDbEntity
  8
Layer_1
 62
7
100
AcDbPolyline
 90
2
 70
0
 10
32.590075
 20
-35.363953
 30
0.0
 10
32.267520
 20
-35.238308
 30
0.0
  0
LWPOLYLINE
  5
218
100
AcDbEntity
  8
Layer_1
 62
7
100
AcDbPolyline
 90
8
 70
0
 10
4.634506
 20
-35.210599
 30
0.0
 10
4.634506
 20
-35.210599
 30
0.0
 10
4.634506
 20
-35.210599
 30
0.0
 10
4.634506
 20
-35.210599
 30
0.0
 10
4.634506
 20
-35.210599
 30
0.0
 10
4.634506
 20
-35.210599
 30
0.0
 10
4.634506
 20
-35.210599
 30
0.0
 10
4.634506
 20
-35.210599
 30
0.0
  0
LWPOLYLINE
  5
219
100
AcDbEntity
  8
Layer_1
 62
7
100
AcDbPolyline
 90
2
 70
0
 10
4.651933
 20
-35.144402
 30
0.0
 10
20.807969
 20
-35.144402
 30
0.0
  0
LWPOLYLINE
  5
21a
100
AcDbEntity
  8
Layer_1
 62
7
100
AcDbPolyline
 90
2
 70
0
 10
9.932564
 20
-36.177054
 30
0.0
 10
26.088600
 20
-36.177054
 30
0.0
  0
LWPOLYLINE
  5
21b
100
AcDbEntity
  8
Layer_1
 62
7
100
AcDbPolyline
 90
2
 70
0
 10
4.761637
 20
-37.088276
 30
0.0
 10
20.917674
 20
-37.088276
 30
0.0
  0
LWPOLYLINE
  5
21c
100
AcDbEntity
  8
Layer_1
 62
7
100
AcDbPolyline
 90
2
 70
0
 10
9.762025
 20
-38.221919
 30
0.0
 10
25.918062
 20
-38.221919
 30
0.0
  0
LWPOLYLINE
  5
21d
100
AcDbEntity
  8
Layer_1
 62
7
100
AcDbPolyline
 90
4
 70
0
 10
4.543553
 20
-35.067719
 30
0.0
 10
4.543553
 20
-46.974665
 30
0.0
 10
26.058644
 20
-47.032731
 30
0.0
 10
25.953692
 20
-35.067719
 30
0.0
  0
LWPOLYLINE
  5
21e
100
AcDbEntity
  8
Layer_1
 62
7
100
AcDbPolyline
 90
6
 70
0
 10
32.267520
 20
-35.238308
 30
0.0
 10
32.267520
 20
-35.238308
 30
0.0
 10
32.267520
 20
-35.238308
 30
0.0
 10
32.267520
 20
-35.238308
 30
0.0
 10
32.267520
 20
-35.238308
 30
0.0
 10
32.267520
 20
-35.238308
 30
0.0
  0
LWPOLYLINE
  5
21f
100
AcDbEntity
  8
Layer_1
 62
7
100
AcDbPolyline
 90
2
 70
0
 10
32.277228
 20
-35.171675
 30
0.0
 10
41.277230
 20
-35.171675
 30
0.0
  0
LWPOLYLINE
  5
220
100
AcDbEntity
  8
Layer_1
 62
7
100
AcDbPolyline
 90
2
 70
0
 10
35.218895
 20
-36.211128
 30
0.0
 10
44.218897
 20
-36.211128
 30
0.0
  0
LWPOLYLINE
  5
221
100
AcDbEntity
  8
Layer_1
 62
7
100
AcDbPolyline
 90
2
 70
0
 10
32.338341
 20
-37.128350
 30
0.0
 10
41.338343
 20
-37.128350
 30
0.0
  0
LWPOLYLINE
  5
222
100
AcDbEntity
  8
Layer_1
 62
7
100
AcDbPolyline
 90
2
 70
0
 10
35.123894
 20
-38.269459
 30
0.0
 10
44.123896
 20
-38.269459
 30
0.0
  0
LWPOLYLINE
  5
223
100
AcDbEntity
  8
Layer_1
 62
7
100
AcDbPolyline
 90
2
 70
0
 10
50.545376
 20
-35.356006
 30
0.0
 10
50.222821
 20
-35.230360
 30
0.0
  0
LWPOLYLINE
  5
224
100
AcDbEntity
  8
Layer_1
 62
7
100
AcDbPolyline
 90
4
 70
0
 10
32.216853
 20
-35.094487
 30
0.0
 10
32.216853
 20
-47.079844
 30
0.0
 10
44.202209
 20
-47.138292
 30
0.0
 10
44.143744
 20
-35.094487
 30
0.0
  0
LWPOLYLINE
  5
225
100
AcDbEntity
  8
Layer_1
 62
7
100
AcDbPolyline
 90
6
 70
0
 10
50.222821
 20
-35.230360
 30
0.0
 10
50.222821
 20
-35.230360
 30
0.0
 10
50.222821
 20
-35.230360
 30
0.0
 10
50.222821
 20
-35.230360
 30
0.0
 10
50.222821
 20
-35.230360
 30
0.0
 10
50.222821
 20
-35.230360
 30
0.0
  0
LWPOLYLINE
  5
226
100
AcDbEntity
  8
Layer_1
 62
7
100
AcDbPolyline
 90
2
 70
0
 10
50.232530
 20
-35.163728
 30
0.0
 10
59.232531
 20
-35.163728
 30
0.0
  0
LWPOLYLINE
  5
227
100
AcDbEntity
  8
Layer_1
 62
7
100
AcDbPolyline
 90
2
 70
0
 10
53.174197
 20
-36.203180
 30
0.0
 10
62.174199
 20
-36.203180
 30
0.0
  0
LWPOLYLINE
  5
228
100
AcDbEntity
  8
Layer_1
 62
7
100
AcDbPolyline
 90
2
 70
0
 10
50.293642
 20
-37.120403
 30
0.0
 10
59.293644
 20
-37.120403
 30
0.0
  0
LWPOLYLINE
  5
229
100
AcDbEntity
  8
Layer_1
 62
7
100
AcDbPolyline
 90
2
 70
0
 10
53.079195
 20
-38.261512
 30
0.0
 10
62.079197
 20
-38.261512
 30
0.0
  0
LWPOLYLINE
  5
22a
100
AcDbEntity
  8
Layer_1
 62
7
100
AcDbPolyline
 90
2
 70
0
 10
68.631845
 20
-35.321909
 30
0.0
 10
68.309290
 20
-35.196264
 30
0.0
  0
LWPOLYLINE
  5
22b
100
AcDbEntity
  8
Layer_1
 62
7
100
AcDbPolyline
 90
4
 70
0
 10
50.172154
 20
-35.086540
 30
0.0
 10
50.172154
 20
-47.071897
 30
0.0
 10
62.157511
 20
-47.130345
 30
0.0
 10
62.099046
 20
-35.086540
 30
0.0
  0
LWPOLYLINE
  5
22c
100
AcDbEntity
  8
Layer_1
 62
7
100
AcDbPolyline
 90
6
 70
0
 10
68.309290
 20
-35.196264
 30
0.0
 10
68.309290
 20
-35.196264
 30
0.0
 10
68.309290
 20
-35.196264
 30
0.0
 10
68.309290
 20
-35.196264
 30
0.0
 10
68.309290
 20
-35.196264
 30
0.0
 10
68.309290
 20
-35.196264
 30
0.0
  0
LWPOLYLINE
  5
22d
100
AcDbEntity
  8
Layer_1
 62
7
100
AcDbPolyline
 90
2
 70
0
 10
68.318999
 20
-35.129631
 30
0.0
 10
77.319001
 20
-35.129631
 30
0.0
  0
LWPOLYLINE
  5
22e
100
AcDbEntity
  8
Layer_1
 62
7
100
AcDbPolyline
 90
2
 70
0
 10
71.260666
 20
-36.169084
 30
0.0
 10
80.260668
 20
-36.169084
 30
0.0
  0
LWPOLYLINE
  5
22f
100
AcDbEntity
  8
Layer_1
 62
7
100
AcDbPolyline
 90
2
 70
0
 10
68.380111
 20
-37.086306
 30
0.0
 10
77.380113
 20
-37.086306
 30
0.0
  0
LWPOLYLINE
  5
230
100
AcDbEntity
  8
Layer_1
 62
7
100
AcDbPolyline
 90
2
 70
0
 10
71.165664
 20
-38.227415
 30
0.0
 10
80.165666
 20
-38.227415
 30
0.0
  0
LWPOLYLINE
  5
231
100
AcDbEntity
  8
Layer_1
 62
7
100
AcDbPolyline
 90
2
 70
0
 10
86.549010
 20
-35.287813
 30
0.0
 10
86.226455
 20
-35.162168
 30
0.0
  0
LWPOLYLINE
  5
232
100
AcDbEntity
  8
Layer_1
 62
7
100
AcDbPolyline
 90
4
 70
0
 10
68.258623
 20
-35.052444
 30
0.0
 10
68.258623
 20
-47.037801
 30
0.0
 10
80.243980
 20
-47.096249
 30
0.0
 10
80.185515
 20
-35.052444
 30
0.0
  0
LWPOLYLINE
  5
233
100
AcDbEntity
  8
Layer_1
 62
7
100
AcDbPolyline
 90
6
 70
0
 10
86.226455
 20
-35.162168
 30
0.0
 10
86.226455
 20
-35.162168
 30
0.0
 10
86.226455
 20
-35.162168
 30
0.0
 10
86.226455
 20
-35.162168
 30
0.0
 10
86.226455
 20
-35.162168
 30
0.0
 10
86.226455
 20
-35.162168
 30
0.0
  0
LWPOLYLINE
  5
234
100
AcDbEntity
  8
Layer_1
 62
7
100
AcDbPolyline
 90
2
 70
0
 10
86.236164
 20
-35.095535
 30
0.0
 10
95.236165
 20
-35.095535
 30
0.0
  0
LWPOLYLINE
  5
235
100
AcDbEntity
  8
Layer_1
 62
7
100
AcDbPolyline
 90
2
 70
0
 10
89.177831
 20
-36.134988
 30
0.0
 10
98.177833
 20
-36.134988
 30
0.0
  0
LWPOLYLINE
  5
236
100
AcDbEntity
  8
Layer_1
 62
7
100
AcDbPolyline
 90
2
 70
0
 10
86.297276
 20
-37.052210
 30
0.0
 10
95.297278
 20
-37.052210
 30
0.0
  0
LWPOLYLINE
  5
237
100
AcDbEntity
  8
Layer_1
 62
7
100
AcDbPolyline
 90
2
 70
0
 10
89.082829
 20
-38.193319
 30
0.0
 10
98.082831
 20
-38.193319
 30
0.0
  0
LWPOLYLINE
  5
238
100
AcDbEntity
  8
Layer_1
 62
7
100
AcDbPolyline
 90
2
 70
0
 10
104.536827
 20
-35.269537
 30
0.0
 10
104.214272
 20
-35.143891
 30
0.0
  0
LWPOLYLINE
  5
239
100
AcDbEntity
  8
Layer_1
 62
7
100
AcDbPolyline
 90
4
 70
0
 10
86.175788
 20
-35.018348
 30
0.0
 10
86.175788
 20
-47.003704
 30
0.0
 10
98.161145
 20
-47.062153
 30
0.0
 10
98.102680
 20
-35.018348
 30
0.0
  0
LWPOLYLINE
  5
23a
100
AcDbEntity
  8
Layer_1
 62
7
100
AcDbPolyline
 90
6
 70
0
 10
104.214272
 20
-35.143891
 30
0.0
 10
104.214272
 20
-35.143891
 30
0.0
 10
104.214272
 20
-35.143891
 30
0.0
 10
104.214272
 20
-35.143891
 30
0.0
 10
104.214272
 20
-35.143891
 30
0.0
 10
104.214272
 20
-35.143891
 30
0.0
  0
LWPOLYLINE
  5
23b
100
AcDbEntity
  8
Layer_1
 62
7
100
AcDbPolyline
 90
2
 70
0
 10
104.223981
 20
-35.077259
 30
0.0
 10
113.223983
 20
-35.077259
 30
0.0
  0
LWPOLYLINE
  5
23c
100
AcDbEntity
  8
Layer_1
 62
7
100
AcDbPolyline
 90
2
 70
0
 10
107.165648
 20
-36.116711
 30
0.0
 10
116.165650
 20
-36.116711
 30
0.0
  0
LWPOLYLINE
  5
23d
100
AcDbEntity
  8
Layer_1
 62
7
100
AcDbPolyline
 90
2
 70
0
 10
104.285093
 20
-37.033933
 30
0.0
 10
113.285095
 20
-37.033933
 30
0.0
  0
LWPOLYLINE
  5
23e
100
AcDbEntity
  8
Layer_1
 62
7
100
AcDbPolyline
 90
2
 70
0
 10
107.070646
 20
-38.175043
 30
0.0
 10
116.070648
 20
-38.175043
 30
0.0
  0
LWPOLYLINE
  5
23f
100
AcDbEntity
  8
Layer_1
 62
7
100
AcDbPolyline
 90
2
 70
0
 10
122.419897
 20
-35.263444
 30
0.0
 10
122.097343
 20
-35.137799
 30
0.0
  0
LWPOLYLINE
  5
240
100
AcDbEntity
  8
Layer_1
 62
7
100
AcDbPolyline
 90
4
 70
0
 10
104.163605
 20
-35.000071
 30
0.0
 10
104.163605
 20
-46.985428
 30
0.0
 10
116.148962
 20
-47.043876
 30
0.0
 10
116.090497
 20
-35.000071
 30
0.0
  0
LWPOLYLINE
  5
241
100
AcDbEntity
  8
Layer_1
 62
7
100
AcDbPolyline
 90
6
 70
0
 10
122.097343
 20
-35.137799
 30
0.0
 10
122.097343
 20
-35.137799
 30
0.0
 10
122.097343
 20
-35.137799
 30
0.0
 10
122.097343
 20
-35.137799
 30
0.0
 10
122.097343
 20
-35.137799
 30
0.0
 10
122.097343
 20
-35.137799
 30
0.0
  0
LWPOLYLINE
  5
242
100
AcDbEntity
  8
Layer_1
 62
7
100
AcDbPolyline
 90
2
 70
0
 10
122.107051
 20
-35.071166
 30
0.0
 10
131.107053
 20
-35.071166
 30
0.0
  0
LWPOLYLINE
  5
243
100
AcDbEntity
  8
Layer_1
 62
7
100
AcDbPolyline
 90
2
 70
0
 10
125.048718
 20
-36.110619
 30
0.0
 10
134.048720
 20
-36.110619
 30
0.0
  0
LWPOLYLINE
  5
244
100
AcDbEntity
  8
Layer_1
 62
7
100
AcDbPolyline
 90
2
 70
0
 10
122.168164
 20
-37.027841
 30
0.0
 10
131.168165
 20
-37.027841
 30
0.0
  0
LWPOLYLINE
  5
245
100
AcDbEntity
  8
Layer_1
 62
7
100
AcDbPolyline
 90
2
 70
0
 10
124.953717
 20
-38.168950
 30
0.0
 10
133.953718
 20
-38.168950
 30
0.0
  0
LWPOLYLINE
  5
246
100
AcDbEntity
  8
Layer_1
 62
7
100
AcDbPolyline
 90
2
 70
0
 10
140.549012
 20
-35.340186
 30
0.0
 10
140.226457
 20
-35.214541
 30
0.0
  0
LWPOLYLINE
  5
247
100
AcDbEntity
  8
Layer_1
 62
7
100
AcDbPolyline
 90
4
 70
0
 10
122.046675
 20
-34.993979
 30
0.0
 10
122.046675
 20
-46.979335
 30
0.0
 10
134.032032
 20
-47.037784
 30
0.0
 10
133.973567
 20
-34.993979
 30
0.0
  0
LWPOLYLINE
  5
248
100
AcDbEntity
  8
Layer_1
 62
7
100
AcDbPolyline
 90
6
 70
0
 10
140.226457
 20
-35.214541
 30
0.0
 10
140.226457
 20
-35.214541
 30
0.0
 10
140.226457
 20
-35.214541
 30
0.0
 10
140.226457
 20
-35.214541
 30
0.0
 10
140.226457
 20
-35.214541
 30
0.0
 10
140.226457
 20
-35.214541
 30
0.0
  0
LWPOLYLINE
  5
249
100
AcDbEntity
  8
Layer_1
 62
7
100
AcDbPolyline
 90
2
 70
0
 10
140.236166
 20
-35.147908
 30
0.0
 10
149.236168
 20
-35.147908
 30
0.0
  0
LWPOLYLINE
  5
24a
100
AcDbEntity
  8
Layer_1
 62
7
100
AcDbPolyline
 90
2
 70
0
 10
143.177833
 20
-36.187361
 30
0.0
 10
152.177835
 20
-36.187361
 30
0.0
  0
LWPOLYLINE
  5
24b
100
AcDbEntity
  8
Layer_1
 62
7
100
AcDbPolyline
 90
2
 70
0
 10
140.297278
 20
-37.104583
 30
0.0
 10
149.297280
 20
-37.104583
 30
0.0
  0
LWPOLYLINE
  5
24c
100
AcDbEntity
  8
Layer_1
 62
7
100
AcDbPolyline
 90
2
 70
0
 10
143.082831
 20
-38.245692
 30
0.0
 10
152.082833
 20
-38.245692
 30
0.0
  0
LWPOLYLINE
  5
24d
100
AcDbEntity
  8
Layer_1
 62
7
100
AcDbPolyline
 90
2
 70
0
 10
158.542919
 20
-35.328002
 30
0.0
 10
158.220365
 20
-35.202356
 30
0.0
  0
LWPOLYLINE
  5
24e
100
AcDbEntity
  8
Layer_1
 62
7
100
AcDbPolyline
 90
4
 70
0
 10
140.175790
 20
-35.070720
 30
0.0
 10
140.175790
 20
-47.056077
 30
0.0
 10
152.161147
 20
-47.114526
 30
0.0
 10
152.102682
 20
-35.070720
 30
0.0
  0
LWPOLYLINE
  5
24f
100
AcDbEntity
  8
Layer_1
 62
7
100
AcDbPolyline
 90
6
 70
0
 10
158.220365
 20
-35.202356
 30
0.0
 10
158.220365
 20
-35.202356
 30
0.0
 10
158.220365
 20
-35.202356
 30
0.0
 10
158.220365
 20
-35.202356
 30
0.0
 10
158.220365
 20
-35.202356
 30
0.0
 10
158.220365
 20
-35.202356
 30
0.0
  0
LWPOLYLINE
  5
250
100
AcDbEntity
  8
Layer_1
 62
7
100
AcDbPolyline
 90
2
 70
0
 10
158.230073
 20
-35.135724
 30
0.0
 10
167.230075
 20
-35.135724
 30
0.0
  0
LWPOLYLINE
  5
251
100
AcDbEntity
  8
Layer_1
 62
7
100
AcDbPolyline
 90
2
 70
0
 10
161.171740
 20
-36.175176
 30
0.0
 10
170.171742
 20
-36.175176
 30
0.0
  0
LWPOLYLINE
  5
252
100
AcDbEntity
  8
Layer_1
 62
7
100
AcDbPolyline
 90
2
 70
0
 10
158.291186
 20
-37.092399
 30
0.0
 10
167.291187
 20
-37.092399
 30
0.0
  0
LWPOLYLINE
  5
253
100
AcDbEntity
  8
Layer_1
 62
7
100
AcDbPolyline
 90
2
 70
0
 10
161.076739
 20
-38.233508
 30
0.0
 10
170.076741
 20
-38.233508
 30
0.0
  0
LWPOLYLINE
  5
254
100
AcDbEntity
  8
Layer_1
 62
7
100
AcDbPolyline
 90
2
 70
0
 10
176.611351
 20
-35.324855
 30
0.0
 10
176.288796
 20
-35.199210
 30
0.0
  0
LWPOLYLINE
  5
255
100
AcDbEntity
  8
Layer_1
 62
7
100
AcDbPolyline
 90
4
 70
0
 10
158.169697
 20
-35.058536
 30
0.0
 10
158.169697
 20
-47.043893
 30
0.0
 10
170.155054
 20
-47.102341
 30
0.0
 10
170.096589
 20
-35.058536
 30
0.0
  0
LWPOLYLINE
  5
256
100
AcDbEntity
  8
Layer_1
 62
7
100
AcDbPolyline
 90
6
 70
0
 10
176.288796
 20
-35.199210
 30
0.0
 10
176.288796
 20
-35.199210
 30
0.0
 10
176.288796
 20
-35.199210
 30
0.0
 10
176.288796
 20
-35.199210
 30
0.0
 10
176.288796
 20
-35.199210
 30
0.0
 10
176.288796
 20
-35.199210
 30
0.0
  0
LWPOLYLINE
  5
257
100
AcDbEntity
  8
Layer_1
 62
7
100
AcDbPolyline
 90
2
 70
0
 10
176.298504
 20
-35.132577
 30
0.0
 10
185.298506
 20
-35.132577
 30
0.0
  0
LWPOLYLINE
  5
258
100
AcDbEntity
  8
Layer_1
 62
7
100
AcDbPolyline
 90
2
 70
0
 10
179.240172
 20
-36.172030
 30
0.0
 10
188.240173
 20
-36.172030
 30
0.0
  0
LWPOLYLINE
  5
259
100
AcDbEntity
  8
Layer_1
 62
7
100
AcDbPolyline
 90
2
 70
0
 10
176.359617
 20
-37.089252
 30
0.0
 10
185.359619
 20
-37.089252
 30
0.0
  0
LWPOLYLINE
  5
25a
100
AcDbEntity
  8
Layer_1
 62
7
100
AcDbPolyline
 90
2
 70
0
 10
179.145170
 20
-38.230361
 30
0.0
 10
188.145172
 20
-38.230361
 30
0.0
  0
LWPOLYLINE
  5
25b
100
AcDbEntity
  8
Layer_1
 62
7
100
AcDbPolyline
 90
2
 70
0
 10
194.572721
 20
-35.399163
 30
0.0
 10
194.250166
 20
-35.273518
 30
0.0
  0
LWPOLYLINE
  5
25c
100
AcDbEntity
  8
Layer_1
 62
7
100
AcDbPolyline
 90
4
 70
0
 10
176.238129
 20
-35.055389
 30
0.0
 10
176.238129
 20
-47.040746
 30
0.0
 10
188.223485
 20
-47.099194
 30
0.0
 10
188.165020
 20
-35.055389
 30
0.0
  0
LWPOLYLINE
  5
25d
100
AcDbEntity
  8
Layer_1
 62
7
100
AcDbPolyline
 90
6
 70
0
 10
194.250166
 20
-35.273518
 30
0.0
 10
194.250166
 20
-35.273518
 30
0.0
 10
194.250166
 20
-35.273518
 30
0.0
 10
194.250166
 20
-35.273518
 30
0.0
 10
194.250166
 20
-35.273518
 30
0.0
 10
194.250166
 20
-35.273518
 30
0.0
  0
LWPOLYLINE
  5
25e
100
AcDbEntity
  8
Layer_1
 62
7
100
AcDbPolyline
 90
2
 70
0
 10
194.259875
 20
-35.206885
 30
0.0
 10
203.259876
 20
-35.206885
 30
0.0
  0
LWPOLYLINE
  5
25f
100
AcDbEntity
  8
Layer_1
 62
7
100
AcDbPolyline
 90
2
 70
0
 10
197.201542
 20
-36.246338
 30
0.0
 10
206.201543
 20
-36.246338
 30
0.0
  0
LWPOLYLINE
  5
260
100
AcDbEntity
  8
Layer_1
 62
7
100
AcDbPolyline
 90
2
 70
0
 10
194.320987
 20
-37.163560
 30
0.0
 10
203.320989
 20
-37.163560
 30
0.0
  0
LWPOLYLINE
  5
261
100
AcDbEntity
  8
Layer_1
 62
7
100
AcDbPolyline
 90
2
 70
0
 10
197.106540
 20
-38.304669
 30
0.0
 10
206.106542
 20
-38.304669
 30
0.0
  0
LWPOLYLINE
  5
262
100
AcDbEntity
  8
Layer_1
 62
7
100
AcDbPolyline
 90
4
 70
0
 10
194.199499
 20
-35.129697
 30
0.0
 10
194.199499
 20
-47.115054
 30
0.0
 10
206.184856
 20
-47.173503
 30
0.0
 10
206.126390
 20
-35.129697
 30
0.0
  0
LWPOLYLINE
  5
263
100
AcDbEntity
  8
Layer_1
 62
7
100
AcDbPolyline
 90
7
 70
0
 10
212.610787
 20
-35.386232
 30
0.0
 10
212.288233
 20
-35.260586
 30
0.0
 10
212.288233
 20
-35.260586
 30
0.0
 10
212.288233
 20
-35.260586
 30
0.0
 10
212.288233
 20
-35.260586
 30
0.0
 10
212.288233
 20
-35.260586
 30
0.0
 10
212.288233
 20
-35.260586
 30
0.0
  0
LWPOLYLINE
  5
264
100
AcDbEntity
  8
Layer_1
 62
7
100
AcDbPolyline
 90
2
 70
0
 10
212.297941
 20
-35.193954
 30
0.0
 10
221.297943
 20
-35.193954
 30
0.0
  0
LWPOLYLINE
  5
265
100
AcDbEntity
  8
Layer_1
 62
7
100
AcDbPolyline
 90
2
 70
0
 10
215.239608
 20
-36.233406
 30
0.0
 10
224.239610
 20
-36.233406
 30
0.0
  0
LWPOLYLINE
  5
266
100
AcDbEntity
  8
Layer_1
 62
7
100
AcDbPolyline
 90
2
 70
0
 10
212.359054
 20
-37.150629
 30
0.0
 10
221.359055
 20
-37.150629
 30
0.0
  0
LWPOLYLINE
  5
267
100
AcDbEntity
  8
Layer_1
 62
7
100
AcDbPolyline
 90
2
 70
0
 10
215.144607
 20
-38.291738
 30
0.0
 10
224.144609
 20
-38.291738
 30
0.0
  0
LWPOLYLINE
  5
268
100
AcDbEntity
  8
Layer_1
 62
7
100
AcDbPolyline
 90
4
 70
0
 10
212.237566
 20
-35.116766
 30
0.0
 10
212.237566
 20
-47.102123
 30
0.0
 10
224.222922
 20
-47.160571
 30
0.0
 10
224.164457
 20
-35.116766
 30
0.0
  0
LWPOLYLINE
  5
269
100
AcDbEntity
  8
Layer_1
 62
7
100
AcDbPolyline
 90
7
 70
0
 10
221.689405
 20
-18.128543
 30
0.0
 10
221.118269
 20
-18.003490
 30
0.0
 10
221.118269
 20
-18.003490
 30
0.0
 10
221.118269
 20
-18.003490
 30
0.0
 10
221.118269
 20
-18.003490
 30
0.0
 10
221.118269
 20
-18.003490
 30
0.0
 10
221.118269
 20
-18.003490
 30
0.0
  0
LWPOLYLINE
  5
26a
100
AcDbEntity
  8
Layer_1
 62
7
100
AcDbPolyline
 90
2
 70
0
 10
221.135459
 20
-17.937168
 30
0.0
 10
237.071425
 20
-17.937168
 30
0.0
  0
LWPOLYLINE
  5
26b
100
AcDbEntity
  8
Layer_1
 62
7
100
AcDbPolyline
 90
2
 70
0
 10
226.344161
 20
-18.971767
 30
0.0
 10
242.280130
 20
-18.971767
 30
0.0
  0
LWPOLYLINE
  5
26c
100
AcDbEntity
  8
Layer_1
 62
7
100
AcDbPolyline
 90
2
 70
0
 10
221.243669
 20
-19.884699
 30
0.0
 10
237.179640
 20
-19.884699
 30
0.0
  0
LWPOLYLINE
  5
26d
100
AcDbEntity
  8
Layer_1
 62
7
100
AcDbPolyline
 90
2
 70
0
 10
226.175940
 20
-21.020474
 30
0.0
 10
242.111914
 20
-21.020474
 30
0.0
  0
LWPOLYLINE
  5
26e
100
AcDbEntity
  8
Layer_1
 62
7
100
AcDbPolyline
 90
4
 70
0
 10
221.546804
 20
-17.714664
 30
0.0
 10
221.546804
 20
-29.643944
 30
0.0
 10
242.768831
 20
-29.702110
 30
0.0
 10
242.665309
 20
-17.714664
 30
0.0
  0
LWPOLYLINE
  5
26f
100
AcDbEntity
  8
Layer_1
 62
7
100
AcDbPolyline
 90
9
 70
0
 10
82.967492
 20
-53.425880
 30
0.0
 10
81.701733
 20
-53.302590
 30
0.0
 10
81.701733
 20
-53.302590
 30
0.0
 10
81.701733
 20
-53.302590
 30
0.0
 10
81.701733
 20
-53.302590
 30
0.0
 10
81.701733
 20
-53.302590
 30
0.0
 10
81.701733
 20
-53.302590
 30
0.0
 10
81.701733
 20
-53.302590
 30
0.0
 10
81.701733
 20
-53.302590
 30
0.0
  0
LWPOLYLINE
  5
270
100
AcDbEntity
  8
Layer_1
 62
7
100
AcDbPolyline
 90
2
 70
0
 10
81.739828
 20
-53.237206
 30
0.0
 10
117.057343
 20
-53.237206
 30
0.0
  0
LWPOLYLINE
  5
271
100
AcDbEntity
  8
Layer_1
 62
7
100
AcDbPolyline
 90
2
 70
0
 10
93.283426
 20
-54.257176
 30
0.0
 10
128.600937
 20
-54.257176
 30
0.0
  0
LWPOLYLINE
  5
272
100
AcDbEntity
  8
Layer_1
 62
7
100
AcDbPolyline
 90
2
 70
0
 10
81.979645
 20
-55.157207
 30
0.0
 10
117.297160
 20
-55.157207
 30
0.0
  0
LWPOLYLINE
  5
273
100
AcDbEntity
  8
Layer_1
 62
7
100
AcDbPolyline
 90
2
 70
0
 10
92.910622
 20
-56.276928
 30
0.0
 10
128.228137
 20
-56.276928
 30
0.0
  0
LWPOLYLINE
  5
274
100
AcDbEntity
  8
Layer_1
 62
7
100
AcDbPolyline
 90
2
 70
0
 10
230.505349
 20
-35.403938
 30
0.0
 10
230.168112
 20
-35.278372
 30
0.0
  0
LWPOLYLINE
  5
275
100
AcDbEntity
  8
Layer_1
 62
7
100
AcDbPolyline
 90
4
 70
0
 10
81.502907
 20
-53.161465
 30
0.0
 10
81.502907
 20
-64.922180
 30
0.0
 10
128.535453
 20
-64.979533
 30
0.0
 10
128.306024
 20
-53.161465
 30
0.0
  0
LWPOLYLINE
  5
276
100
AcDbEntity
  8
Layer_1
 62
7
100
AcDbPolyline
 90
8
 70
0
 10
230.168112
 20
-35.278372
 30
0.0
 10
230.168112
 20
-35.278372
 30
0.0
 10
230.168112
 20
-35.278372
 30
0.0
 10
230.168112
 20
-35.278372
 30
0.0
 10
230.168112
 20
-35.278372
 30
0.0
 10
230.168112
 20
-35.278372
 30
0.0
 10
230.168112
 20
-35.278372
 30
0.0
 10
230.168112
 20
-35.278372
 30
0.0
  0
LWPOLYLINE
  5
277
100
AcDbEntity
  8
Layer_1
 62
7
100
AcDbPolyline
 90
2
 70
0
 10
230.178262
 20
-35.211777
 30
0.0
 10
239.587931
 20
-35.211777
 30
0.0
  0
LWPOLYLINE
  5
278
100
AcDbEntity
  8
Layer_1
 62
7
100
AcDbPolyline
 90
2
 70
0
 10
233.253831
 20
-36.250627
 30
0.0
 10
242.663502
 20
-36.250627
 30
0.0
  0
LWPOLYLINE
  5
279
100
AcDbEntity
  8
Layer_1
 62
7
100
AcDbPolyline
 90
2
 70
0
 10
230.242157
 20
-37.167312
 30
0.0
 10
239.651829
 20
-37.167312
 30
0.0
  0
LWPOLYLINE
  5
27a
100
AcDbEntity
  8
Layer_1
 62
7
100
AcDbPolyline
 90
2
 70
0
 10
233.154502
 20
-38.307755
 30
0.0
 10
242.564176
 20
-38.307755
 30
0.0
  0
LWPOLYLINE
  5
27b
100
AcDbEntity
  8
Layer_1
 62
7
100
AcDbPolyline
 90
4
 70
0
 10
230.421148
 20
-34.988358
 30
0.0
 10
230.421148
 20
-46.966666
 30
0.0
 10
242.952064
 20
-47.025071
 30
0.0
 10
242.890938
 20
-34.988358
 30
0.0
  0
LWPOLYLINE
  5
27c
100
AcDbEntity
  8
Layer_1
 62
7
100
AcDbPolyline
 90
3
 70
0
 10
238.477778
 20
-22.577776
 30
0.0
 10
238.477778
 20
-26.811110
 30
0.0
 10
225.777778
 20
-26.811110
 30
0.0
  0
LWPOLYLINE
  5
27d
100
AcDbEntity
  8
Layer_1
 62
7
100
AcDbPolyline
 90
2
 70
0
 10
239.888889
 20
9.877779
 30
0.0
 10
232.833333
 20
9.877779
 30
0.0
  0
LWPOLYLINE
  5
27e
100
AcDbEntity
  8
Layer_1
 62
7
100
AcDbPolyline
 90
2
 70
0
 10
236.496801
 20
-45.243777
 30
0.0
 10
236.496801
 20
-40.672200
 30
0.0
  0
LWPOLYLINE
  5
27f
100
AcDbEntity
  8
Layer_1
 62
7
100
AcDbPolyline
 90
2
 70
0
 10
15.245046
 20
-45.337785
 30
0.0
 10
15.245046
 20
-40.766208
 30
0.0
  0
LWPOLYLINE
  5
280
100
AcDbEntity
  8
Layer_1
 62
7
100
AcDbPolyline
 90
3
 70
0
 10
8.466667
 20
-26.811110
 30
0.0
 10
11.288889
 20
-22.577776
 30
0.0
 10
14.111111
 20
-26.811110
 30
0.0
  0
LWPOLYLINE
  5
281
100
AcDbEntity
  8
Layer_1
 62
7
100
AcDbPolyline
 90
2
 70
0
 10
3.415848
 20
-7.638541
 30
0.0
 10
7.987424
 20
-7.638541
 30
0.0
  0
LWPOLYLINE
  5
282
100
AcDbEntity
  8
Layer_1
 62
7
100
AcDbPolyline
 90
2
 70
0
 10
8.673629
 20
-5.437490
 30
0.0
 10
8.673629
 20
-9.670823
 30
0.0
  0
LWPOLYLINE
  5
283
100
AcDbEntity
  8
Layer_1
 62
6
100
AcDbPolyline
 90
5
 70
0
 10
-10.317339
 20
31.182944
 30
0.0
 10
252.050093
 20
31.182944
 30
0.0
 10
252.050093
 20
-69.602800
 30
0.0
 10
-10.317339
 20
-69.602800
 30
0.0
 10
-10.317339
 20
31.182944
 30
0.0
  0
LWPOLYLINE
  5
284
100
AcDbEntity
  8
Layer_1
 62
7
100
AcDbPolyline
 90
2
 70
0
 10
4.707415
 20
9.337719
 30
0.0
 10
1.125502
 20
11.940174
 30
0.0
  0
LWPOLYLINE
  5
285
100
AcDbEntity
  8
Layer_1
 62
7
100
AcDbPolyline
 90
13
 70
1
 10
19.926770
 20
9.055948
 30
0.0
 10
20.836276
 20
9.055948
 30
0.0
 10
20.836276
 20
12.195134
 30
0.0
 10
19.846844
 20
11.996704
 30
0.0
 10
19.846844
 20
12.503800
 30
0.0
 10
20.830764
 20
12.702259
 30
0.0
 10
21.387491
 20
12.702259
 30
0.0
 10
21.387491
 20
9.055948
 30
0.0
 10
22.296996
 20
9.055948
 30
0.0
 10
22.296996
 20
8.587431
 30
0.0
 10
19.926770
 20
8.587431
 30
0.0
 10
19.926770
 20
9.055948
 30
0.0
 10
19.926770
 20
9.055948
 30
0.0
  0
LWPOLYLINE
  5
286
100
AcDbEntity
  8
Layer_1
 62
7
100
AcDbPolyline
 90
4
 70
0
 10
38.523297
 20
8.069610
 30
0.0
 10
38.523297
 20
8.069610
 30
0.0
 10
38.523297
 20
8.069610
 30
0.0
 10
38.523297
 20
8.069610
 30
0.0
  0
SPLINE
  5
287
100
AcDbEntity
  8
Layer_1
 62
7
100
AcDbSpline
 70
8
 71
3
 72
8
 73
4
 74
0
 40
0
 40
0
 40
0
 40
0
 40
1
 40
1
 40
1
 40
1
 10
37.325650
 20
8.954743
 30
0.0
 10
37.536950
 20
9.173409
 30
0.0
 10
37.824500
 20
9.466478
 30
0.0
 10
38.188302
 20
9.833950
 30
0.0
  0
SPLINE
  5
288
100
AcDbEntity
  8
Layer_1
 62
7
100
AcDbSpline
 70
8
 71
3
 72
8
 73
4
 74
0
 40
0
 40
0
 40
0
 40
0
 40
1
 40
1
 40
1
 40
1
 10
38.188302
 20
9.833950
 30
0.0
 10
38.553941
 20
10.203266
 30
0.0
 10
38.783615
 20
10.441208
 30
0.0
 10
38.877322
 20
10.547775
 30
0.0
  0
SPLINE
  5
289
100
AcDbEntity
  8
Layer_1
 62
7
100
AcDbSpline
 70
8
 71
3
 72
8
 73
4
 74
0
 40
0
 40
0
 40
0
 40
0
 40
1
 40
1
 40
1
 40
1
 10
38.877322
 20
10.547775
 30
0.0
 10
39.055547
 20
10.748040
 30
0.0
 10
39.179571
 20
10.917081
 30
0.0
 10
39.249392
 20
11.054900
 30
0.0
  0
SPLINE
  5
28a
100
AcDbEntity
  8
Layer_1
 62
7
100
AcDbSpline
 70
8
 71
3
 72
8
 73
4
 74
0
 40
0
 40
0
 40
0
 40
0
 40
1
 40
1
 40
1
 40
1
 10
39.249392
 20
11.054900
 30
0.0
 10
39.321050
 20
11.194525
 30
0.0
 10
39.356879
 20
11.331402
 30
0.0
 10
39.356879
 20
11.465533
 30
0.0
  0
SPLINE
  5
28b
100
AcDbEntity
  8
Layer_1
 62
7
100
AcDbSpline
 70
8
 71
3
 72
8
 73
4
 74
0
 40
0
 40
0
 40
0
 40
0
 40
1
 40
1
 40
1
 40
1
 10
39.356879
 20
11.465533
 30
0.0
 10
39.356879
 20
11.684180
 30
0.0
 10
39.279709
 20
11.862413
 30
0.0
 10
39.125367
 20
12.000231
 30
0.0
  0
SPLINE
  5
28c
100
AcDbEntity
  8
Layer_1
 62
7
100
AcDbSpline
 70
8
 71
3
 72
8
 73
4
 74
0
 40
0
 40
0
 40
0
 40
0
 40
1
 40
1
 40
1
 40
1
 10
39.125367
 20
12.000231
 30
0.0
 10
38.972865
 20
12.138031
 30
0.0
 10
38.773509
 20
12.206931
 30
0.0
 10
38.527299
 20
12.206931
 30
0.0
  0
SPLINE
  5
28d
100
AcDbEntity
  8
Layer_1
 62
7
100
AcDbSpline
 70
8
 71
3
 72
8
 73
4
 74
0
 40
0
 40
0
 40
0
 40
0
 40
1
 40
1
 40
1
 40
1
 10
38.527299
 20
12.206931
 30
0.0
 10
38.352748
 20
12.206931
 30
0.0
 10
38.168091
 20
12.176611
 30
0.0
 10
37.973327
 20
12.115971
 30
0.0
  0
SPLINE
  5
28e
100
AcDbEntity
  8
Layer_1
 62
7
100
AcDbSpline
 70
8
 71
3
 72
8
 73
4
 74
0
 40
0
 40
0
 40
0
 40
0
 40
1
 40
1
 40
1
 40
1
 10
37.973327
 20
12.115971
 30
0.0
 10
37.780402
 20
12.055349
 30
0.0
 10
37.573697
 20
11.963486
 30
0.0
 10
37.353212
 20
11.840381
 30
0.0
  0
LWPOLYLINE
  5
28f
100
AcDbEntity
  8
Layer_1
 62
7
100
AcDbPolyline
 90
5
 70
1
 10
37.995377
 20
8.954743
 30
0.0
 10
39.938410
 20
8.954743
 30
0.0
 10
39.938410
 20
8.486226
 30
0.0
 10
37.325650
 20
8.486226
 30
0.0
 10
37.325650
 20
8.954743
 30
0.0
  0
SPLINE
  5
290
100
AcDbEntity
  8
Layer_1
 62
7
100
AcDbSpline
 70
8
 71
3
 72
8
 73
4
 74
0
 40
0
 40
0
 40
0
 40
0
 40
1
 40
1
 40
1
 40
1
 10
37.353212
 20
12.402596
 30
0.0
 10
37.577371
 20
12.492643
 30
0.0
 10
37.786833
 20
12.560631
 30
0.0
 10
37.981596
 20
12.606558
 30
0.0
  0
SPLINE
  5
291
100
AcDbEntity
  8
Layer_1
 62
7
100
AcDbSpline
 70
8
 71
3
 72
8
 73
4
 74
0
 40
0
 40
0
 40
0
 40
0
 40
1
 40
1
 40
1
 40
1
 10
37.981596
 20
12.606558
 30
0.0
 10
38.176360
 20
12.652485
 30
0.0
 10
38.354586
 20
12.675448
 30
0.0
 10
38.516275
 20
12.675448
 30
0.0
  0
SPLINE
  5
292
100
AcDbEntity
  8
Layer_1
 62
7
100
AcDbSpline
 70
8
 71
3
 72
8
 73
4
 74
0
 40
0
 40
0
 40
0
 40
0
 40
1
 40
1
 40
1
 40
1
 10
38.516275
 20
12.675448
 30
0.0
 10
38.942549
 20
12.675448
 30
0.0
 10
39.282465
 20
12.568881
 30
0.0
 10
39.536023
 20
12.355747
 30
0.0
  0
SPLINE
  5
293
100
AcDbEntity
  8
Layer_1
 62
7
100
AcDbSpline
 70
8
 71
3
 72
8
 73
4
 74
0
 40
0
 40
0
 40
0
 40
0
 40
1
 40
1
 40
1
 40
1
 10
39.536023
 20
12.355747
 30
0.0
 10
39.789583
 20
12.142612
 30
0.0
 10
39.916362
 20
11.857822
 30
0.0
 10
39.916362
 20
11.501375
 30
0.0
  0
SPLINE
  5
294
100
AcDbEntity
  8
Layer_1
 62
7
100
AcDbSpline
 70
8
 71
3
 72
8
 73
4
 74
0
 40
0
 40
0
 40
0
 40
0
 40
1
 40
1
 40
1
 40
1
 10
39.916362
 20
11.501375
 30
0.0
 10
39.916362
 20
11.332324
 30
0.0
 10
39.884208
 20
11.171552
 30
0.0
 10
39.819899
 20
11.019058
 30
0.0
  0
SPLINE
  5
295
100
AcDbEntity
  8
Layer_1
 62
7
100
AcDbSpline
 70
8
 71
3
 72
8
 73
4
 74
0
 40
0
 40
0
 40
0
 40
0
 40
1
 40
1
 40
1
 40
1
 10
39.819899
 20
11.019058
 30
0.0
 10
39.757428
 20
10.868389
 30
0.0
 10
39.642592
 20
10.690165
 30
0.0
 10
39.475390
 20
10.484388
 30
0.0
  0
SPLINE
  5
296
100
AcDbEntity
  8
Layer_1
 62
7
100
AcDbSpline
 70
8
 71
3
 72
8
 73
4
 74
0
 40
0
 40
0
 40
0
 40
0
 40
1
 40
1
 40
1
 40
1
 10
39.475390
 20
10.484388
 30
0.0
 10
39.429456
 20
10.431104
 30
0.0
 10
39.283383
 20
10.276757
 30
0.0
 10
39.037173
 20
10.021346
 30
0.0
  0
SPLINE
  5
297
100
AcDbEntity
  8
Layer_1
 62
7
100
AcDbSpline
 70
8
 71
3
 72
8
 73
4
 74
0
 40
0
 40
0
 40
0
 40
0
 40
1
 40
1
 40
1
 40
1
 10
39.037173
 20
10.021346
 30
0.0
 10
38.790964
 20
9.767797
 30
0.0
 10
38.443699
 20
9.412263
 30
0.0
 10
37.995377
 20
8.954743
 30
0.0
  0
LWPOLYLINE
  5
298
100
AcDbEntity
  8
Layer_1
 62
7
100
AcDbPolyline
 90
2
 70
1
 10
37.353212
 20
11.840381
 30
0.0
 10
37.353212
 20
12.402596
 30
0.0
  0
LWPOLYLINE
  5
299
100
AcDbEntity
  8
Layer_1
 62
7
100
AcDbPolyline
 90
2
 70
1
 10
37.995377
 20
8.954743
 30
0.0
 10
37.995377
 20
8.954743
 30
0.0
  0
SPLINE
  5
29a
100
AcDbEntity
  8
Layer_1
 62
7
100
AcDbSpline
 70
8
 71
3
 72
8
 73
4
 74
0
 40
0
 40
0
 40
0
 40
0
 40
1
 40
1
 40
1
 40
1
 10
57.593323
 20
10.780834
 30
0.0
 10
57.859745
 20
10.723881
 30
0.0
 10
58.067369
 20
10.605376
 30
0.0
 10
58.216196
 20
10.425318
 30
0.0
  0
SPLINE
  5
29b
100
AcDbEntity
  8
Layer_1
 62
7
100
AcDbSpline
 70
8
 71
3
 72
8
 73
4
 74
0
 40
0
 40
0
 40
0
 40
0
 40
1
 40
1
 40
1
 40
1
 10
58.216196
 20
10.425318
 30
0.0
 10
58.366861
 20
10.245242
 30
0.0
 10
58.442194
 20
10.022917
 30
0.0
 10
58.442194
 20
9.758343
 30
0.0
  0
SPLINE
  5
29c
100
AcDbEntity
  8
Layer_1
 62
7
100
AcDbSpline
 70
8
 71
3
 72
8
 73
4
 74
0
 40
0
 40
0
 40
0
 40
0
 40
1
 40
1
 40
1
 40
1
 10
58.442194
 20
9.758343
 30
0.0
 10
58.442194
 20
9.352281
 30
0.0
 10
58.302553
 20
9.038093
 30
0.0
 10
58.023272
 20
8.815777
 30
0.0
  0
SPLINE
  5
29d
100
AcDbEntity
  8
Layer_1
 62
7
100
AcDbSpline
 70
8
 71
3
 72
8
 73
4
 74
0
 40
0
 40
0
 40
0
 40
0
 40
1
 40
1
 40
1
 40
1
 10
58.023272
 20
8.815777
 30
0.0
 10
57.743988
 20
8.593442
 30
0.0
 10
57.347113
 20
8.482275
 30
0.0
 10
56.832647
 20
8.482275
 30
0.0
  0
SPLINE
  5
29e
100
AcDbEntity
  8
Layer_1
 62
7
100
AcDbSpline
 70
8
 71
3
 72
8
 73
4
 74
0
 40
0
 40
0
 40
0
 40
0
 40
1
 40
1
 40
1
 40
1
 10
56.832647
 20
8.482275
 30
0.0
 10
56.659932
 20
8.482275
 30
0.0
 10
56.481706
 20
8.499735
 30
0.0
 10
56.297968
 20
8.534655
 30
0.0
  0
SPLINE
  5
29f
100
AcDbEntity
  8
Layer_1
 62
7
100
AcDbSpline
 70
8
 71
3
 72
8
 73
4
 74
0
 40
0
 40
0
 40
0
 40
0
 40
1
 40
1
 40
1
 40
1
 10
56.297968
 20
8.534655
 30
0.0
 10
56.116067
 20
8.567713
 30
0.0
 10
55.927734
 20
8.618240
 30
0.0
 10
55.732971
 20
8.686237
 30
0.0
  0
LWPOLYLINE
  5
2a0
100
AcDbEntity
  8
Layer_1
 62
7
100
AcDbPolyline
 90
4
 70
0
 10
56.914079
 20
8.297589
 30
0.0
 10
56.914079
 20
8.297589
 30
0.0
 10
56.914079
 20
8.297589
 30
0.0
 10
56.914079
 20
8.297589
 30
0.0
  0
SPLINE
  5
2a1
100
AcDbEntity
  8
Layer_1
 62
7
100
AcDbSpline
 70
8
 71
3
 72
8
 73
4
 74
0
 40
0
 40
0
 40
0
 40
0
 40
1
 40
1
 40
1
 40
1
 10
55.732971
 20
9.223673
 30
0.0
 10
55.887312
 20
9.133644
 30
0.0
 10
56.056352
 20
9.065656
 30
0.0
 10
56.240090
 20
9.019711
 30
0.0
  0
SPLINE
  5
2a2
100
AcDbEntity
  8
Layer_1
 62
7
100
AcDbSpline
 70
8
 71
3
 72
8
 73
4
 74
0
 40
0
 40
0
 40
0
 40
0
 40
1
 40
1
 40
1
 40
1
 10
56.240090
 20
9.019711
 30
0.0
 10
56.423828
 20
8.973784
 30
0.0
 10
56.615835
 20
8.950820
 30
0.0
 10
56.816111
 20
8.950820
 30
0.0
  0
SPLINE
  5
2a3
100
AcDbEntity
  8
Layer_1
 62
7
100
AcDbSpline
 70
8
 71
3
 72
8
 73
4
 74
0
 40
0
 40
0
 40
0
 40
0
 40
1
 40
1
 40
1
 40
1
 10
56.816111
 20
8.950820
 30
0.0
 10
57.165213
 20
8.950820
 30
0.0
 10
57.430714
 20
9.019720
 30
0.0
 10
57.612616
 20
9.157520
 30
0.0
  0
SPLINE
  5
2a4
100
AcDbEntity
  8
Layer_1
 62
7
100
AcDbSpline
 70
8
 71
3
 72
8
 73
4
 74
0
 40
0
 40
0
 40
0
 40
0
 40
1
 40
1
 40
1
 40
1
 10
57.612616
 20
9.157520
 30
0.0
 10
57.796354
 20
9.295319
 30
0.0
 10
57.888223
 20
9.495594
 30
0.0
 10
57.888223
 20
9.758343
 30
0.0
  0
SPLINE
  5
2a5
100
AcDbEntity
  8
Layer_1
 62
7
100
AcDbSpline
 70
8
 71
3
 72
8
 73
4
 74
0
 40
0
 40
0
 40
0
 40
0
 40
1
 40
1
 40
1
 40
1
 10
57.888223
 20
9.758343
 30
0.0
 10
57.888223
 20
10.000884
 30
0.0
 10
57.802785
 20
10.190133
 30
0.0
 10
57.631909
 20
10.326089
 30
0.0
  0
SPLINE
  5
2a6
100
AcDbEntity
  8
Layer_1
 62
7
100
AcDbSpline
 70
8
 71
3
 72
8
 73
4
 74
0
 40
0
 40
0
 40
0
 40
0
 40
1
 40
1
 40
1
 40
1
 10
57.631909
 20
10.326089
 30
0.0
 10
57.462869
 20
10.463889
 30
0.0
 10
57.226764
 20
10.532789
 30
0.0
 10
56.923596
 20
10.532789
 30
0.0
  0
LWPOLYLINE
  5
2a7
100
AcDbEntity
  8
Layer_1
 62
7
100
AcDbPolyline
 90
2
 70
1
 10
55.732971
 20
8.686237
 30
0.0
 10
55.732971
 20
9.223673
 30
0.0
  0
SPLINE
  5
2a8
100
AcDbEntity
  8
Layer_1
 62
7
100
AcDbSpline
 70
8
 71
3
 72
8
 73
4
 74
0
 40
0
 40
0
 40
0
 40
0
 40
1
 40
1
 40
1
 40
1
 10
56.945646
 20
10.990299
 30
0.0
 10
57.219416
 20
10.990299
 30
0.0
 10
57.428878
 20
11.044505
 30
0.0
 10
57.574030
 20
11.152916
 30
0.0
  0
SPLINE
  5
2a9
100
AcDbEntity
  8
Layer_1
 62
7
100
AcDbSpline
 70
8
 71
3
 72
8
 73
4
 74
0
 40
0
 40
0
 40
0
 40
0
 40
1
 40
1
 40
1
 40
1
 10
57.574030
 20
11.152916
 30
0.0
 10
57.719185
 20
11.263152
 30
0.0
 10
57.791762
 20
11.421168
 30
0.0
 10
57.791762
 20
11.626964
 30
0.0
  0
SPLINE
  5
2aa
100
AcDbEntity
  8
Layer_1
 62
7
100
AcDbSpline
 70
8
 71
3
 72
8
 73
4
 74
0
 40
0
 40
0
 40
0
 40
0
 40
1
 40
1
 40
1
 40
1
 10
57.791762
 20
11.626964
 30
0.0
 10
57.791762
 20
11.838255
 30
0.0
 10
57.716429
 20
11.999940
 30
0.0
 10
57.565764
 20
12.112020
 30
0.0
  0
SPLINE
  5
2ab
100
AcDbEntity
  8
Layer_1
 62
7
100
AcDbSpline
 70
8
 71
3
 72
8
 73
4
 74
0
 40
0
 40
0
 40
0
 40
0
 40
1
 40
1
 40
1
 40
1
 10
57.565764
 20
12.112020
 30
0.0
 10
57.416935
 20
12.225943
 30
0.0
 10
57.202879
 20
12.282905
 30
0.0
 10
56.923596
 20
12.282905
 30
0.0
  0
SPLINE
  5
2ac
100
AcDbEntity
  8
Layer_1
 62
7
100
AcDbSpline
 70
8
 71
3
 72
8
 73
4
 74
0
 40
0
 40
0
 40
0
 40
0
 40
1
 40
1
 40
1
 40
1
 10
56.923596
 20
12.282905
 30
0.0
 10
56.771094
 20
12.282905
 30
0.0
 10
56.607567
 20
12.266367
 30
0.0
 10
56.433014
 20
12.233290
 30
0.0
  0
SPLINE
  5
2ad
100
AcDbEntity
  8
Layer_1
 62
7
100
AcDbSpline
 70
8
 71
3
 72
8
 73
4
 74
0
 40
0
 40
0
 40
0
 40
0
 40
1
 40
1
 40
1
 40
1
 10
56.433014
 20
12.233290
 30
0.0
 10
56.258464
 20
12.200214
 30
0.0
 10
56.066458
 20
12.148774
 30
0.0
 10
55.856996
 20
12.078971
 30
0.0
  0
LWPOLYLINE
  5
2ae
100
AcDbEntity
  8
Layer_1
 62
7
100
AcDbPolyline
 90
4
 70
1
 10
56.923596
 20
10.532789
 30
0.0
 10
56.444041
 20
10.532789
 30
0.0
 10
56.444041
 20
10.990299
 30
0.0
 10
56.945646
 20
10.990299
 30
0.0
  0
SPLINE
  5
2af
100
AcDbEntity
  8
Layer_1
 62
7
100
AcDbSpline
 70
8
 71
3
 72
8
 73
4
 74
0
 40
0
 40
0
 40
0
 40
0
 40
1
 40
1
 40
1
 40
1
 10
55.856996
 20
12.575062
 30
0.0
 10
56.068294
 20
12.633858
 30
0.0
 10
56.265813
 20
12.677950
 30
0.0
 10
56.449553
 20
12.707339
 30
0.0
  0
SPLINE
  5
2b0
100
AcDbEntity
  8
Layer_1
 62
7
100
AcDbSpline
 70
8
 71
3
 72
8
 73
4
 74
0
 40
0
 40
0
 40
0
 40
0
 40
1
 40
1
 40
1
 40
1
 10
56.449553
 20
12.707339
 30
0.0
 10
56.635129
 20
12.736747
 30
0.0
 10
56.809680
 20
12.751450
 30
0.0
 10
56.973208
 20
12.751450
 30
0.0
  0
SPLINE
  5
2b1
100
AcDbEntity
  8
Layer_1
 62
7
100
AcDbSpline
 70
8
 71
3
 72
8
 73
4
 74
0
 40
0
 40
0
 40
0
 40
0
 40
1
 40
1
 40
1
 40
1
 10
56.973208
 20
12.751450
 30
0.0
 10
57.395805
 20
12.751450
 30
0.0
 10
57.730208
 20
12.654987
 30
0.0
 10
57.976417
 20
12.462060
 30
0.0
  0
SPLINE
  5
2b2
100
AcDbEntity
  8
Layer_1
 62
7
100
AcDbSpline
 70
8
 71
3
 72
8
 73
4
 74
0
 40
0
 40
0
 40
0
 40
0
 40
1
 40
1
 40
1
 40
1
 10
57.976417
 20
12.462060
 30
0.0
 10
58.222628
 20
12.270977
 30
0.0
 10
58.345733
 20
12.011906
 30
0.0
 10
58.345733
 20
11.684848
 30
0.0
  0
SPLINE
  5
2b3
100
AcDbEntity
  8
Layer_1
 62
7
100
AcDbSpline
 70
8
 71
3
 72
8
 73
4
 74
0
 40
0
 40
0
 40
0
 40
0
 40
1
 40
1
 40
1
 40
1
 10
58.345733
 20
11.684848
 30
0.0
 10
58.345733
 20
11.457001
 30
0.0
 10
58.280506
 20
11.264073
 30
0.0
 10
58.150052
 20
11.106067
 30
0.0
  0
SPLINE
  5
2b4
100
AcDbEntity
  8
Layer_1
 62
7
100
AcDbSpline
 70
8
 71
3
 72
8
 73
4
 74
0
 40
0
 40
0
 40
0
 40
0
 40
1
 40
1
 40
1
 40
1
 10
58.150052
 20
11.106067
 30
0.0
 10
58.019597
 20
10.949885
 30
0.0
 10
57.834021
 20
10.841474
 30
0.0
 10
57.593323
 20
10.780834
 30
0.0
  0
LWPOLYLINE
  5
2b5
100
AcDbEntity
  8
Layer_1
 62
7
100
AcDbPolyline
 90
2
 70
1
 10
55.856996
 20
12.078971
 30
0.0
 10
55.856996
 20
12.575062
 30
0.0
  0
LWPOLYLINE
  5
2b6
100
AcDbEntity
  8
Layer_1
 62
7
100
AcDbPolyline
 90
2
 70
1
 10
57.593323
 20
10.780834
 30
0.0
 10
57.593323
 20
10.780834
 30
0.0
  0
LWPOLYLINE
  5
2b7
100
AcDbEntity
  8
Layer_1
 62
7
100
AcDbPolyline
 90
4
 70
0
 10
73.328993
 20
10.273455
 30
0.0
 10
73.328993
 20
10.273455
 30
0.0
 10
73.328993
 20
10.273455
 30
0.0
 10
73.328993
 20
10.273455
 30
0.0
  0
LWPOLYLINE
  5
2b8
100
AcDbEntity
  8
Layer_1
 62
7
100
AcDbPolyline
 90
5
 70
1
 10
75.219044
 20
12.343950
 30
0.0
 10
73.813444
 20
10.147358
 30
0.0
 10
75.219044
 20
10.147358
 30
0.0
 10
75.219044
 20
12.343950
 30
0.0
 10
75.219044
 20
12.343950
 30
0.0
  0
LWPOLYLINE
  5
2b9
100
AcDbEntity
  8
Layer_1
 62
7
100
AcDbPolyline
 90
13
 70
1
 10
75.072971
 20
12.829033
 30
0.0
 10
75.773015
 20
12.829033
 30
0.0
 10
75.773015
 20
10.147358
 30
0.0
 10
76.360060
 20
10.147358
 30
0.0
 10
76.360060
 20
9.684344
 30
0.0
 10
75.773015
 20
9.684344
 30
0.0
 10
75.773015
 20
8.714205
 30
0.0
 10
75.219044
 20
8.714205
 30
0.0
 10
75.219044
 20
9.684344
 30
0.0
 10
73.361448
 20
9.684344
 30
0.0
 10
73.361448
 20
10.221780
 30
0.0
 10
75.072971
 20
12.829033
 30
0.0
 10
75.072971
 20
12.829033
 30
0.0
  0
LWPOLYLINE
  5
2ba
100
AcDbEntity
  8
Layer_1
 62
7
100
AcDbPolyline
 90
4
 70
0
 10
65.844318
 20
11.205098
 30
0.0
 10
65.844318
 20
11.205098
 30
0.0
 10
65.844318
 20
11.205098
 30
0.0
 10
65.844318
 20
11.205098
 30
0.0
  0
SPLINE
  5
2bb
100
AcDbEntity
  8
Layer_1
 62
7
100
AcDbSpline
 70
8
 71
3
 72
8
 73
4
 74
0
 40
0
 40
0
 40
0
 40
0
 40
1
 40
1
 40
1
 40
1
 10
92.710412
 20
11.371412
 30
0.0
 10
92.791257
 20
11.398976
 30
0.0
 10
92.872103
 20
11.419183
 30
0.0
 10
92.952948
 20
11.432033
 30
0.0
  0
SPLINE
  5
2bc
100
AcDbEntity
  8
Layer_1
 62
7
100
AcDbSpline
 70
8
 71
3
 72
8
 73
4
 74
0
 40
0
 40
0
 40
0
 40
0
 40
1
 40
1
 40
1
 40
1
 10
92.952948
 20
11.432033
 30
0.0
 10
93.033794
 20
11.446709
 30
0.0
 10
93.114638
 20
11.454047
 30
0.0
 10
93.195481
 20
11.454047
 30
0.0
  0
SPLINE
  5
2bd
100
AcDbEntity
  8
Layer_1
 62
7
100
AcDbSpline
 70
8
 71
3
 72
8
 73
4
 74
0
 40
0
 40
0
 40
0
 40
0
 40
1
 40
1
 40
1
 40
1
 10
93.195481
 20
11.454047
 30
0.0
 10
93.654828
 20
11.454047
 30
0.0
 10
94.018631
 20
11.328194
 30
0.0
 10
94.286888
 20
11.076490
 30
0.0
  0
SPLINE
  5
2be
100
AcDbEntity
  8
Layer_1
 62
7
100
AcDbSpline
 70
8
 71
3
 72
8
 73
4
 74
0
 40
0
 40
0
 40
0
 40
0
 40
1
 40
1
 40
1
 40
1
 10
94.286888
 20
11.076490
 30
0.0
 10
94.555146
 20
10.824766
 30
0.0
 10
94.689275
 20
10.483927
 30
0.0
 10
94.689275
 20
10.053970
 30
0.0
  0
SPLINE
  5
2bf
100
AcDbEntity
  8
Layer_1
 62
7
100
AcDbSpline
 70
8
 71
3
 72
8
 73
4
 74
0
 40
0
 40
0
 40
0
 40
0
 40
1
 40
1
 40
1
 40
1
 10
94.689275
 20
10.053970
 30
0.0
 10
94.689275
 20
9.611164
 30
0.0
 10
94.551472
 20
9.266655
 30
0.0
 10
94.275865
 20
9.020444
 30
0.0
  0
SPLINE
  5
2c0
100
AcDbEntity
  8
Layer_1
 62
7
100
AcDbSpline
 70
8
 71
3
 72
8
 73
4
 74
0
 40
0
 40
0
 40
0
 40
0
 40
1
 40
1
 40
1
 40
1
 10
94.275865
 20
9.020444
 30
0.0
 10
94.000258
 20
8.776078
 30
0.0
 10
93.611651
 20
8.653894
 30
0.0
 10
93.110044
 20
8.653894
 30
0.0
  0
SPLINE
  5
2c1
100
AcDbEntity
  8
Layer_1
 62
7
100
AcDbSpline
 70
8
 71
3
 72
8
 73
4
 74
0
 40
0
 40
0
 40
0
 40
0
 40
1
 40
1
 40
1
 40
1
 10
93.110044
 20
8.653894
 30
0.0
 10
92.937330
 20
8.653894
 30
0.0
 10
92.760941
 20
8.668589
 30
0.0
 10
92.580878
 20
8.697977
 30
0.0
  0
SPLINE
  5
2c2
100
AcDbEntity
  8
Layer_1
 62
7
100
AcDbSpline
 70
8
 71
3
 72
8
 73
4
 74
0
 40
0
 40
0
 40
0
 40
0
 40
1
 40
1
 40
1
 40
1
 10
92.580878
 20
8.697977
 30
0.0
 10
92.402651
 20
8.727385
 30
0.0
 10
92.217994
 20
8.771487
 30
0.0
 10
92.026907
 20
8.830283
 30
0.0
  0
LWPOLYLINE
  5
2c3
100
AcDbEntity
  8
Layer_1
 62
7
100
AcDbPolyline
 90
5
 70
1
 10
92.200538
 20
12.848676
 30
0.0
 10
94.386106
 20
12.848676
 30
0.0
 10
94.386106
 20
12.380131
 30
0.0
 10
92.710412
 20
12.380131
 30
0.0
 10
92.710412
 20
11.371412
 30
0.0
  0
SPLINE
  5
2c4
100
AcDbEntity
  8
Layer_1
 62
7
100
AcDbSpline
 70
8
 71
3
 72
8
 73
4
 74
0
 40
0
 40
0
 40
0
 40
0
 40
1
 40
1
 40
1
 40
1
 10
92.026907
 20
9.389760
 30
0.0
 10
92.192272
 20
9.299732
 30
0.0
 10
92.363149
 20
9.232666
 30
0.0
 10
92.539538
 20
9.188564
 30
0.0
  0
SPLINE
  5
2c5
100
AcDbEntity
  8
Layer_1
 62
7
100
AcDbSpline
 70
8
 71
3
 72
8
 73
4
 74
0
 40
0
 40
0
 40
0
 40
0
 40
1
 40
1
 40
1
 40
1
 10
92.539538
 20
9.188564
 30
0.0
 10
92.715927
 20
9.144462
 30
0.0
 10
92.902421
 20
9.122411
 30
0.0
 10
93.099021
 20
9.122411
 30
0.0
  0
SPLINE
  5
2c6
100
AcDbEntity
  8
Layer_1
 62
7
100
AcDbSpline
 70
8
 71
3
 72
8
 73
4
 74
0
 40
0
 40
0
 40
0
 40
0
 40
1
 40
1
 40
1
 40
1
 10
93.099021
 20
9.122411
 30
0.0
 10
93.416888
 20
9.122411
 30
0.0
 10
93.668609
 20
9.206015
 30
0.0
 10
93.854185
 20
9.373222
 30
0.0
  0
SPLINE
  5
2c7
100
AcDbEntity
  8
Layer_1
 62
7
100
AcDbSpline
 70
8
 71
3
 72
8
 73
4
 74
0
 40
0
 40
0
 40
0
 40
0
 40
1
 40
1
 40
1
 40
1
 10
93.854185
 20
9.373222
 30
0.0
 10
94.039761
 20
9.540429
 30
0.0
 10
94.132550
 20
9.767346
 30
0.0
 10
94.132550
 20
10.053970
 30
0.0
  0
SPLINE
  5
2c8
100
AcDbEntity
  8
Layer_1
 62
7
100
AcDbSpline
 70
8
 71
3
 72
8
 73
4
 74
0
 40
0
 40
0
 40
0
 40
0
 40
1
 40
1
 40
1
 40
1
 10
94.132550
 20
10.053970
 30
0.0
 10
94.132550
 20
10.340595
 30
0.0
 10
94.039761
 20
10.567511
 30
0.0
 10
93.854185
 20
10.734719
 30
0.0
  0
SPLINE
  5
2c9
100
AcDbEntity
  8
Layer_1
 62
7
100
AcDbSpline
 70
8
 71
3
 72
8
 73
4
 74
0
 40
0
 40
0
 40
0
 40
0
 40
1
 40
1
 40
1
 40
1
 10
93.854185
 20
10.734719
 30
0.0
 10
93.668609
 20
10.901926
 30
0.0
 10
93.416888
 20
10.985530
 30
0.0
 10
93.099021
 20
10.985530
 30
0.0
  0
SPLINE
  5
2ca
100
AcDbEntity
  8
Layer_1
 62
7
100
AcDbSpline
 70
8
 71
3
 72
8
 73
4
 74
0
 40
0
 40
0
 40
0
 40
0
 40
1
 40
1
 40
1
 40
1
 10
93.099021
 20
10.985530
 30
0.0
 10
92.950192
 20
10.985530
 30
0.0
 10
92.801364
 20
10.968991
 30
0.0
 10
92.652537
 20
10.935915
 30
0.0
  0
SPLINE
  5
2cb
100
AcDbEntity
  8
Layer_1
 62
7
100
AcDbSpline
 70
8
 71
3
 72
8
 73
4
 74
0
 40
0
 40
0
 40
0
 40
0
 40
1
 40
1
 40
1
 40
1
 10
92.652537
 20
10.935915
 30
0.0
 10
92.505546
 20
10.902838
 30
0.0
 10
92.354880
 20
10.851389
 30
0.0
 10
92.200538
 20
10.781568
 30
0.0
  0
LWPOLYLINE
  5
2cc
100
AcDbEntity
  8
Layer_1
 62
7
100
AcDbPolyline
 90
2
 70
1
 10
92.026907
 20
8.830283
 30
0.0
 10
92.026907
 20
9.389760
 30
0.0
  0
LWPOLYLINE
  5
2cd
100
AcDbEntity
  8
Layer_1
 62
7
100
AcDbPolyline
 90
3
 70
1
 10
92.200538
 20
10.781568
 30
0.0
 10
92.200538
 20
12.848648
 30
0.0
 10
92.200538
 20
12.848676
 30
0.0
  0
SPLINE
  5
2ce
100
AcDbEntity
  8
Layer_1
 62
7
100
AcDbSpline
 70
8
 71
3
 72
8
 73
4
 74
0
 40
0
 40
0
 40
0
 40
0
 40
1
 40
1
 40
1
 40
1
 10
111.198553
 20
10.917458
 30
0.0
 10
110.948669
 20
10.917458
 30
0.0
 10
110.750232
 20
10.832019
 30
0.0
 10
110.603242
 20
10.661143
 30
0.0
  0
SPLINE
  5
2cf
100
AcDbEntity
  8
Layer_1
 62
7
100
AcDbSpline
 70
8
 71
3
 72
8
 73
4
 74
0
 40
0
 40
0
 40
0
 40
0
 40
1
 40
1
 40
1
 40
1
 10
110.603242
 20
10.661143
 30
0.0
 10
110.458087
 20
10.490248
 30
0.0
 10
110.385510
 20
10.255976
 30
0.0
 10
110.385510
 20
9.958325
 30
0.0
  0
SPLINE
  5
2d0
100
AcDbEntity
  8
Layer_1
 62
7
100
AcDbSpline
 70
8
 71
3
 72
8
 73
4
 74
0
 40
0
 40
0
 40
0
 40
0
 40
1
 40
1
 40
1
 40
1
 10
110.385510
 20
9.958325
 30
0.0
 10
110.385510
 20
9.662519
 30
0.0
 10
110.458087
 20
9.428256
 30
0.0
 10
110.603242
 20
9.255536
 30
0.0
  0
SPLINE
  5
2d1
100
AcDbEntity
  8
Layer_1
 62
7
100
AcDbSpline
 70
8
 71
3
 72
8
 73
4
 74
0
 40
0
 40
0
 40
0
 40
0
 40
1
 40
1
 40
1
 40
1
 10
110.603242
 20
9.255536
 30
0.0
 10
110.750232
 20
9.084659
 30
0.0
 10
110.948669
 20
8.999221
 30
0.0
 10
111.198553
 20
8.999221
 30
0.0
  0
SPLINE
  5
2d2
100
AcDbEntity
  8
Layer_1
 62
7
100
AcDbSpline
 70
8
 71
3
 72
8
 73
4
 74
0
 40
0
 40
0
 40
0
 40
0
 40
1
 40
1
 40
1
 40
1
 10
111.198553
 20
8.999221
 30
0.0
 10
111.448438
 20
8.999221
 30
0.0
 10
111.645957
 20
9.084659
 30
0.0
 10
111.791109
 20
9.255536
 30
0.0
  0
SPLINE
  5
2d3
100
AcDbEntity
  8
Layer_1
 62
7
100
AcDbSpline
 70
8
 71
3
 72
8
 73
4
 74
0
 40
0
 40
0
 40
0
 40
0
 40
1
 40
1
 40
1
 40
1
 10
111.791109
 20
9.255536
 30
0.0
 10
111.938100
 20
9.428256
 30
0.0
 10
112.011595
 20
9.662519
 30
0.0
 10
112.011595
 20
9.958325
 30
0.0
  0
SPLINE
  5
2d4
100
AcDbEntity
  8
Layer_1
 62
7
100
AcDbSpline
 70
8
 71
3
 72
8
 73
4
 74
0
 40
0
 40
0
 40
0
 40
0
 40
1
 40
1
 40
1
 40
1
 10
112.011595
 20
9.958325
 30
0.0
 10
112.011595
 20
10.255976
 30
0.0
 10
111.938100
 20
10.490248
 30
0.0
 10
111.791109
 20
10.661143
 30
0.0
  0
SPLINE
  5
2d5
100
AcDbEntity
  8
Layer_1
 62
7
100
AcDbSpline
 70
8
 71
3
 72
8
 73
4
 74
0
 40
0
 40
0
 40
0
 40
0
 40
1
 40
1
 40
1
 40
1
 10
111.791109
 20
10.661143
 30
0.0
 10
111.645957
 20
10.832019
 30
0.0
 10
111.448438
 20
10.917458
 30
0.0
 10
111.198553
 20
10.917458
 30
0.0
  0
LWPOLYLINE
  5
2d6
100
AcDbEntity
  8
Layer_1
 62
7
100
AcDbPolyline
 90
4
 70
0
 10
58.509975
 20
27.220346
 30
0.0
 10
58.509975
 20
27.220346
 30
0.0
 10
58.509975
 20
27.220346
 30
0.0
 10
58.509975
 20
27.220346
 30
0.0
  0
LWPOLYLINE
  5
2d7
100
AcDbEntity
  8
Layer_1
 62
7
100
AcDbPolyline
 90
2
 70
1
 10
111.198553
 20
10.917458
 30
0.0
 10
111.198553
 20
10.917458
 30
0.0
  0
SPLINE
  5
2d8
100
AcDbEntity
  8
Layer_1
 62
7
100
AcDbSpline
 70
8
 71
3
 72
8
 73
4
 74
0
 40
0
 40
0
 40
0
 40
0
 40
1
 40
1
 40
1
 40
1
 10
112.303741
 20
12.154917
 30
0.0
 10
112.164099
 20
12.221070
 30
0.0
 10
112.022620
 20
12.271597
 30
0.0
 10
111.879304
 20
12.306499
 30
0.0
  0
SPLINE
  5
2d9
100
AcDbEntity
  8
Layer_1
 62
7
100
AcDbSpline
 70
8
 71
3
 72
8
 73
4
 74
0
 40
0
 40
0
 40
0
 40
0
 40
1
 40
1
 40
1
 40
1
 10
111.879304
 20
12.306499
 30
0.0
 10
111.737826
 20
12.341419
 30
0.0
 10
111.597266
 20
12.358879
 30
0.0
 10
111.457624
 20
12.358879
 30
0.0
  0
SPLINE
  5
2da
100
AcDbEntity
  8
Layer_1
 62
7
100
AcDbSpline
 70
8
 71
3
 72
8
 73
4
 74
0
 40
0
 40
0
 40
0
 40
0
 40
1
 40
1
 40
1
 40
1
 10
111.457624
 20
12.358879
 30
0.0
 10
111.090146
 20
12.358879
 30
0.0
 10
110.809027
 20
12.234852
 30
0.0
 10
110.614265
 20
11.986798
 30
0.0
  0
SPLINE
  5
2db
100
AcDbEntity
  8
Layer_1
 62
7
100
AcDbSpline
 70
8
 71
3
 72
8
 73
4
 74
0
 40
0
 40
0
 40
0
 40
0
 40
1
 40
1
 40
1
 40
1
 10
110.614265
 20
11.986798
 30
0.0
 10
110.421340
 20
11.738762
 30
0.0
 10
110.311097
 20
11.363933
 30
0.0
 10
110.283535
 20
10.862311
 30
0.0
  0
SPLINE
  5
2dc
100
AcDbEntity
  8
Layer_1
 62
7
100
AcDbSpline
 70
8
 71
3
 72
8
 73
4
 74
0
 40
0
 40
0
 40
0
 40
0
 40
1
 40
1
 40
1
 40
1
 10
110.283535
 20
10.862311
 30
0.0
 10
110.391940
 20
11.022181
 30
0.0
 10
110.527907
 20
11.144374
 30
0.0
 10
110.691436
 20
11.228890
 30
0.0
  0
SPLINE
  5
2dd
100
AcDbEntity
  8
Layer_1
 62
7
100
AcDbSpline
 70
8
 71
3
 72
8
 73
4
 74
0
 40
0
 40
0
 40
0
 40
0
 40
1
 40
1
 40
1
 40
1
 10
110.691436
 20
11.228890
 30
0.0
 10
110.854963
 20
11.315250
 30
0.0
 10
111.035027
 20
11.358430
 30
0.0
 10
111.231626
 20
11.358430
 30
0.0
  0
SPLINE
  5
2de
100
AcDbEntity
  8
Layer_1
 62
7
100
AcDbSpline
 70
8
 71
3
 72
8
 73
4
 74
0
 40
0
 40
0
 40
0
 40
0
 40
1
 40
1
 40
1
 40
1
 10
111.231626
 20
11.358430
 30
0.0
 10
111.645037
 20
11.358430
 30
0.0
 10
111.971172
 20
11.232568
 30
0.0
 10
112.210032
 20
10.980845
 30
0.0
  0
SPLINE
  5
2df
100
AcDbEntity
  8
Layer_1
 62
7
100
AcDbSpline
 70
8
 71
3
 72
8
 73
4
 74
0
 40
0
 40
0
 40
0
 40
0
 40
1
 40
1
 40
1
 40
1
 10
112.210032
 20
10.980845
 30
0.0
 10
112.450729
 20
10.730946
 30
0.0
 10
112.571078
 20
10.390107
 30
0.0
 10
112.571078
 20
9.958325
 30
0.0
  0
SPLINE
  5
2e0
100
AcDbEntity
  8
Layer_1
 62
7
100
AcDbSpline
 70
8
 71
3
 72
8
 73
4
 74
0
 40
0
 40
0
 40
0
 40
0
 40
1
 40
1
 40
1
 40
1
 10
112.571078
 20
9.958325
 30
0.0
 10
112.571078
 20
9.535726
 30
0.0
 10
112.446137
 20
9.196730
 30
0.0
 10
112.196253
 20
8.941338
 30
0.0
  0
SPLINE
  5
2e1
100
AcDbEntity
  8
Layer_1
 62
7
100
AcDbSpline
 70
8
 71
3
 72
8
 73
4
 74
0
 40
0
 40
0
 40
0
 40
0
 40
1
 40
1
 40
1
 40
1
 10
112.196253
 20
8.941338
 30
0.0
 10
111.946368
 20
8.685945
 30
0.0
 10
111.613801
 20
8.558249
 30
0.0
 10
111.198553
 20
8.558249
 30
0.0
  0
SPLINE
  5
2e2
100
AcDbEntity
  8
Layer_1
 62
7
100
AcDbSpline
 70
8
 71
3
 72
8
 73
4
 74
0
 40
0
 40
0
 40
0
 40
0
 40
1
 40
1
 40
1
 40
1
 10
111.198553
 20
8.558249
 30
0.0
 10
110.722670
 20
8.558249
 30
0.0
 10
110.358867
 20
8.740151
 30
0.0
 10
110.107146
 20
9.103954
 30
0.0
  0
SPLINE
  5
2e3
100
AcDbEntity
  8
Layer_1
 62
7
100
AcDbSpline
 70
8
 71
3
 72
8
 73
4
 74
0
 40
0
 40
0
 40
0
 40
0
 40
1
 40
1
 40
1
 40
1
 10
110.107146
 20
9.103954
 30
0.0
 10
109.855424
 20
9.469582
 30
0.0
 10
109.729564
 20
9.998749
 30
0.0
 10
109.729564
 20
10.691454
 30
0.0
  0
SPLINE
  5
2e4
100
AcDbEntity
  8
Layer_1
 62
7
100
AcDbSpline
 70
8
 71
3
 72
8
 73
4
 74
0
 40
0
 40
0
 40
0
 40
0
 40
1
 40
1
 40
1
 40
1
 10
109.729564
 20
10.691454
 30
0.0
 10
109.729564
 20
11.341882
 30
0.0
 10
109.883904
 20
11.860023
 30
0.0
 10
110.192586
 20
12.245878
 30
0.0
  0
SPLINE
  5
2e5
100
AcDbEntity
  8
Layer_1
 62
7
100
AcDbSpline
 70
8
 71
3
 72
8
 73
4
 74
0
 40
0
 40
0
 40
0
 40
0
 40
1
 40
1
 40
1
 40
1
 10
110.192586
 20
12.245878
 30
0.0
 10
110.501265
 20
12.633557
 30
0.0
 10
110.915595
 20
12.827396
 30
0.0
 10
111.435574
 20
12.827396
 30
0.0
  0
SPLINE
  5
2e6
100
AcDbEntity
  8
Layer_1
 62
7
100
AcDbSpline
 70
8
 71
3
 72
8
 73
4
 74
0
 40
0
 40
0
 40
0
 40
0
 40
1
 40
1
 40
1
 40
1
 10
111.435574
 20
12.827396
 30
0.0
 10
111.575216
 20
12.827396
 30
0.0
 10
111.715776
 20
12.813615
 30
0.0
 10
111.857254
 20
12.786051
 30
0.0
  0
SPLINE
  5
2e7
100
AcDbEntity
  8
Layer_1
 62
7
100
AcDbSpline
 70
8
 71
3
 72
8
 73
4
 74
0
 40
0
 40
0
 40
0
 40
0
 40
1
 40
1
 40
1
 40
1
 10
111.857254
 20
12.786051
 30
0.0
 10
112.000570
 20
12.758506
 30
0.0
 10
112.149399
 20
12.717170
 30
0.0
 10
112.303741
 20
12.662042
 30
0.0
  0
LWPOLYLINE
  5
2e8
100
AcDbEntity
  8
Layer_1
 62
7
100
AcDbPolyline
 90
2
 70
1
 10
112.303741
 20
12.662042
 30
0.0
 10
112.303741
 20
12.154917
 30
0.0
  0
LWPOLYLINE
  5
2e9
100
AcDbEntity
  8
Layer_1
 62
7
100
AcDbPolyline
 90
2
 70
1
 10
112.303741
 20
12.662042
 30
0.0
 10
112.303741
 20
12.662042
 30
0.0
  0
LWPOLYLINE
  5
2ea
100
AcDbEntity
  8
Layer_1
 62
7
100
AcDbPolyline
 90
4
 70
0
 10
69.529243
 20
19.468859
 30
0.0
 10
69.529243
 20
19.468859
 30
0.0
 10
69.529243
 20
19.468859
 30
0.0
 10
69.529243
 20
19.468859
 30
0.0
  0
LWPOLYLINE
  5
2eb
100
AcDbEntity
  8
Layer_1
 62
7
100
AcDbPolyline
 90
9
 70
1
 10
127.733281
 20
12.373019
 30
0.0
 10
130.379114
 20
12.373019
 30
0.0
 10
130.379114
 20
12.136008
 30
0.0
 10
128.885321
 20
8.258219
 30
0.0
 10
128.303788
 20
8.258219
 30
0.0
 10
129.709387
 20
11.904502
 30
0.0
 10
127.733281
 20
11.904502
 30
0.0
 10
127.733281
 20
12.373019
 30
0.0
 10
127.733281
 20
12.373019
 30
0.0
  0
SPLINE
  5
2ec
100
AcDbEntity
  8
Layer_1
 62
7
100
AcDbSpline
 70
8
 71
3
 72
8
 73
4
 74
0
 40
0
 40
0
 40
0
 40
0
 40
1
 40
1
 40
1
 40
1
 10
146.771301
 20
10.440248
 30
0.0
 10
146.506717
 20
10.440248
 30
0.0
 10
146.298174
 20
10.369504
 30
0.0
 10
146.145671
 20
10.228017
 30
0.0
  0
SPLINE
  5
2ed
100
AcDbEntity
  8
Layer_1
 62
7
100
AcDbSpline
 70
8
 71
3
 72
8
 73
4
 74
0
 40
0
 40
0
 40
0
 40
0
 40
1
 40
1
 40
1
 40
1
 10
146.145671
 20
10.228017
 30
0.0
 10
145.995005
 20
10.086548
 30
0.0
 10
145.919673
 20
9.891787
 30
0.0
 10
145.919673
 20
9.643732
 30
0.0
  0
SPLINE
  5
2ee
100
AcDbEntity
  8
Layer_1
 62
7
100
AcDbSpline
 70
8
 71
3
 72
8
 73
4
 74
0
 40
0
 40
0
 40
0
 40
0
 40
1
 40
1
 40
1
 40
1
 10
145.919673
 20
9.643732
 30
0.0
 10
145.919673
 20
9.395697
 30
0.0
 10
145.995005
 20
9.200935
 30
0.0
 10
146.145671
 20
9.059448
 30
0.0
  0
SPLINE
  5
2ef
100
AcDbEntity
  8
Layer_1
 62
7
100
AcDbSpline
 70
8
 71
3
 72
8
 73
4
 74
0
 40
0
 40
0
 40
0
 40
0
 40
1
 40
1
 40
1
 40
1
 10
146.145671
 20
9.059448
 30
0.0
 10
146.298174
 20
8.917979
 30
0.0
 10
146.506717
 20
8.847245
 30
0.0
 10
146.771301
 20
8.847245
 30
0.0
  0
SPLINE
  5
2f0
100
AcDbEntity
  8
Layer_1
 62
7
100
AcDbSpline
 70
8
 71
3
 72
8
 73
4
 74
0
 40
0
 40
0
 40
0
 40
0
 40
1
 40
1
 40
1
 40
1
 10
146.771301
 20
8.847245
 30
0.0
 10
147.035884
 20
8.847245
 30
0.0
 10
147.244427
 20
8.917979
 30
0.0
 10
147.396928
 20
9.059448
 30
0.0
  0
SPLINE
  5
2f1
100
AcDbEntity
  8
Layer_1
 62
7
100
AcDbSpline
 70
8
 71
3
 72
8
 73
4
 74
0
 40
0
 40
0
 40
0
 40
0
 40
1
 40
1
 40
1
 40
1
 10
147.396928
 20
9.059448
 30
0.0
 10
147.549432
 20
9.202760
 30
0.0
 10
147.625683
 20
9.397522
 30
0.0
 10
147.625683
 20
9.643732
 30
0.0
  0
SPLINE
  5
2f2
100
AcDbEntity
  8
Layer_1
 62
7
100
AcDbSpline
 70
8
 71
3
 72
8
 73
4
 74
0
 40
0
 40
0
 40
0
 40
0
 40
1
 40
1
 40
1
 40
1
 10
147.625683
 20
9.643732
 30
0.0
 10
147.625683
 20
9.891787
 30
0.0
 10
147.549432
 20
10.086548
 30
0.0
 10
147.396928
 20
10.228017
 30
0.0
  0
SPLINE
  5
2f3
100
AcDbEntity
  8
Layer_1
 62
7
100
AcDbSpline
 70
8
 71
3
 72
8
 73
4
 74
0
 40
0
 40
0
 40
0
 40
0
 40
1
 40
1
 40
1
 40
1
 10
147.396928
 20
10.228017
 30
0.0
 10
147.246263
 20
10.369504
 30
0.0
 10
147.037720
 20
10.440248
 30
0.0
 10
146.771301
 20
10.440248
 30
0.0
  0
LWPOLYLINE
  5
2f4
100
AcDbEntity
  8
Layer_1
 62
7
100
AcDbPolyline
 90
4
 70
0
 10
147.576077
 20
17.872965
 30
0.0
 10
147.576077
 20
17.872965
 30
0.0
 10
147.576077
 20
17.872965
 30
0.0
 10
147.576077
 20
17.872965
 30
0.0
  0
SPLINE
  5
2f5
100
AcDbEntity
  8
Layer_1
 62
7
100
AcDbSpline
 70
8
 71
3
 72
8
 73
4
 74
0
 40
0
 40
0
 40
0
 40
0
 40
1
 40
1
 40
1
 40
1
 10
146.214572
 20
10.677258
 30
0.0
 10
145.975713
 20
10.736055
 30
0.0
 10
145.789218
 20
10.847222
 30
0.0
 10
145.655089
 20
11.010760
 30
0.0
  0
SPLINE
  5
2f6
100
AcDbEntity
  8
Layer_1
 62
7
100
AcDbSpline
 70
8
 71
3
 72
8
 73
4
 74
0
 40
0
 40
0
 40
0
 40
0
 40
1
 40
1
 40
1
 40
1
 10
145.655089
 20
11.010760
 30
0.0
 10
145.522797
 20
11.174280
 30
0.0
 10
145.456650
 20
11.373632
 30
0.0
 10
145.456650
 20
11.608817
 30
0.0
  0
SPLINE
  5
2f7
100
AcDbEntity
  8
Layer_1
 62
7
100
AcDbSpline
 70
8
 71
3
 72
8
 73
4
 74
0
 40
0
 40
0
 40
0
 40
0
 40
1
 40
1
 40
1
 40
1
 10
145.456650
 20
11.608817
 30
0.0
 10
145.456650
 20
11.937719
 30
0.0
 10
145.573325
 20
12.197712
 30
0.0
 10
145.806674
 20
12.388795
 30
0.0
  0
SPLINE
  5
2f8
100
AcDbEntity
  8
Layer_1
 62
7
100
AcDbSpline
 70
8
 71
3
 72
8
 73
4
 74
0
 40
0
 40
0
 40
0
 40
0
 40
1
 40
1
 40
1
 40
1
 10
145.806674
 20
12.388795
 30
0.0
 10
146.041859
 20
12.579878
 30
0.0
 10
146.363401
 20
12.675420
 30
0.0
 10
146.771301
 20
12.675420
 30
0.0
  0
SPLINE
  5
2f9
100
AcDbEntity
  8
Layer_1
 62
7
100
AcDbSpline
 70
8
 71
3
 72
8
 73
4
 74
0
 40
0
 40
0
 40
0
 40
0
 40
1
 40
1
 40
1
 40
1
 10
146.771301
 20
12.675420
 30
0.0
 10
147.181037
 20
12.675420
 30
0.0
 10
147.502578
 20
12.579878
 30
0.0
 10
147.735925
 20
12.388795
 30
0.0
  0
SPLINE
  5
2fa
100
AcDbEntity
  8
Layer_1
 62
7
100
AcDbSpline
 70
8
 71
3
 72
8
 73
4
 74
0
 40
0
 40
0
 40
0
 40
0
 40
1
 40
1
 40
1
 40
1
 10
147.735925
 20
12.388795
 30
0.0
 10
147.969274
 20
12.197712
 30
0.0
 10
148.085948
 20
11.937719
 30
0.0
 10
148.085948
 20
11.608817
 30
0.0
  0
SPLINE
  5
2fb
100
AcDbEntity
  8
Layer_1
 62
7
100
AcDbSpline
 70
8
 71
3
 72
8
 73
4
 74
0
 40
0
 40
0
 40
0
 40
0
 40
1
 40
1
 40
1
 40
1
 10
148.085948
 20
11.608817
 30
0.0
 10
148.085948
 20
11.373632
 30
0.0
 10
148.018884
 20
11.174280
 30
0.0
 10
147.884755
 20
11.010760
 30
0.0
  0
SPLINE
  5
2fc
100
AcDbEntity
  8
Layer_1
 62
7
100
AcDbSpline
 70
8
 71
3
 72
8
 73
4
 74
0
 40
0
 40
0
 40
0
 40
0
 40
1
 40
1
 40
1
 40
1
 10
147.884755
 20
11.010760
 30
0.0
 10
147.752462
 20
10.847222
 30
0.0
 10
147.567805
 20
10.736055
 30
0.0
 10
147.330784
 20
10.677258
 30
0.0
  0
SPLINE
  5
2fd
100
AcDbEntity
  8
Layer_1
 62
7
100
AcDbSpline
 70
8
 71
3
 72
8
 73
4
 74
0
 40
0
 40
0
 40
0
 40
0
 40
1
 40
1
 40
1
 40
1
 10
147.330784
 20
10.677258
 30
0.0
 10
147.599042
 20
10.614793
 30
0.0
 10
147.807584
 20
10.492610
 30
0.0
 10
147.956411
 20
10.310708
 30
0.0
  0
SPLINE
  5
2fe
100
AcDbEntity
  8
Layer_1
 62
7
100
AcDbSpline
 70
8
 71
3
 72
8
 73
4
 74
0
 40
0
 40
0
 40
0
 40
0
 40
1
 40
1
 40
1
 40
1
 10
147.956411
 20
10.310708
 30
0.0
 10
148.107078
 20
10.128806
 30
0.0
 10
148.182412
 20
9.906481
 30
0.0
 10
148.182412
 20
9.643732
 30
0.0
  0
SPLINE
  5
2ff
100
AcDbEntity
  8
Layer_1
 62
7
100
AcDbSpline
 70
8
 71
3
 72
8
 73
4
 74
0
 40
0
 40
0
 40
0
 40
0
 40
1
 40
1
 40
1
 40
1
 10
148.182412
 20
9.643732
 30
0.0
 10
148.182412
 20
9.245027
 30
0.0
 10
148.060226
 20
8.939108
 30
0.0
 10
147.815853
 20
8.725974
 30
0.0
  0
SPLINE
  5
300
100
AcDbEntity
  8
Layer_1
 62
7
100
AcDbSpline
 70
8
 71
3
 72
8
 73
4
 74
0
 40
0
 40
0
 40
0
 40
0
 40
1
 40
1
 40
1
 40
1
 10
147.815853
 20
8.725974
 30
0.0
 10
147.573319
 20
8.512840
 30
0.0
 10
147.225135
 20
8.406272
 30
0.0
 10
146.771301
 20
8.406272
 30
0.0
  0
SPLINE
  5
301
100
AcDbEntity
  8
Layer_1
 62
7
100
AcDbSpline
 70
8
 71
3
 72
8
 73
4
 74
0
 40
0
 40
0
 40
0
 40
0
 40
1
 40
1
 40
1
 40
1
 10
146.771301
 20
8.406272
 30
0.0
 10
146.317467
 20
8.406272
 30
0.0
 10
145.968363
 20
8.512840
 30
0.0
 10
145.723991
 20
8.725974
 30
0.0
  0
SPLINE
  5
302
100
AcDbEntity
  8
Layer_1
 62
7
100
AcDbSpline
 70
8
 71
3
 72
8
 73
4
 74
0
 40
0
 40
0
 40
0
 40
0
 40
1
 40
1
 40
1
 40
1
 10
145.723991
 20
8.725974
 30
0.0
 10
145.481457
 20
8.939108
 30
0.0
 10
145.360190
 20
9.245027
 30
0.0
 10
145.360190
 20
9.643732
 30
0.0
  0
SPLINE
  5
303
100
AcDbEntity
  8
Layer_1
 62
7
100
AcDbSpline
 70
8
 71
3
 72
8
 73
4
 74
0
 40
0
 40
0
 40
0
 40
0
 40
1
 40
1
 40
1
 40
1
 10
145.360190
 20
9.643732
 30
0.0
 10
145.360190
 20
9.906481
 30
0.0
 10
145.435522
 20
10.128806
 30
0.0
 10
145.586188
 20
10.310708
 30
0.0
  0
SPLINE
  5
304
100
AcDbEntity
  8
Layer_1
 62
7
100
AcDbSpline
 70
8
 71
3
 72
8
 73
4
 74
0
 40
0
 40
0
 40
0
 40
0
 40
1
 40
1
 40
1
 40
1
 10
145.586188
 20
10.310708
 30
0.0
 10
145.736853
 20
10.492610
 30
0.0
 10
145.946314
 20
10.614793
 30
0.0
 10
146.214572
 20
10.677258
 30
0.0
  0
LWPOLYLINE
  5
305
100
AcDbEntity
  8
Layer_1
 62
7
100
AcDbPolyline
 90
2
 70
1
 10
146.771301
 20
10.440248
 30
0.0
 10
146.771301
 20
10.440248
 30
0.0
  0
SPLINE
  5
306
100
AcDbEntity
  8
Layer_1
 62
7
100
AcDbSpline
 70
8
 71
3
 72
8
 73
4
 74
0
 40
0
 40
0
 40
0
 40
0
 40
1
 40
1
 40
1
 40
1
 10
146.010622
 20
11.556465
 30
0.0
 10
146.010622
 20
11.343331
 30
0.0
 10
146.076768
 20
11.177046
 30
0.0
 10
146.209060
 20
11.057609
 30
0.0
  0
SPLINE
  5
307
100
AcDbEntity
  8
Layer_1
 62
7
100
AcDbSpline
 70
8
 71
3
 72
8
 73
4
 74
0
 40
0
 40
0
 40
0
 40
0
 40
1
 40
1
 40
1
 40
1
 10
146.209060
 20
11.057609
 30
0.0
 10
146.343189
 20
10.938173
 30
0.0
 10
146.530603
 20
10.878454
 30
0.0
 10
146.771301
 20
10.878454
 30
0.0
  0
SPLINE
  5
308
100
AcDbEntity
  8
Layer_1
 62
7
100
AcDbSpline
 70
8
 71
3
 72
8
 73
4
 74
0
 40
0
 40
0
 40
0
 40
0
 40
1
 40
1
 40
1
 40
1
 10
146.771301
 20
10.878454
 30
0.0
 10
147.010160
 20
10.878454
 30
0.0
 10
147.196655
 20
10.938173
 30
0.0
 10
147.330784
 20
11.057609
 30
0.0
  0
SPLINE
  5
309
100
AcDbEntity
  8
Layer_1
 62
7
100
AcDbSpline
 70
8
 71
3
 72
8
 73
4
 74
0
 40
0
 40
0
 40
0
 40
0
 40
1
 40
1
 40
1
 40
1
 10
147.330784
 20
11.057609
 30
0.0
 10
147.466749
 20
11.177046
 30
0.0
 10
147.534732
 20
11.343331
 30
0.0
 10
147.534732
 20
11.556465
 30
0.0
  0
SPLINE
  5
30a
100
AcDbEntity
  8
Layer_1
 62
7
100
AcDbSpline
 70
8
 71
3
 72
8
 73
4
 74
0
 40
0
 40
0
 40
0
 40
0
 40
1
 40
1
 40
1
 40
1
 10
147.534732
 20
11.556465
 30
0.0
 10
147.534732
 20
11.769599
 30
0.0
 10
147.466749
 20
11.935885
 30
0.0
 10
147.330784
 20
12.055321
 30
0.0
  0
SPLINE
  5
30b
100
AcDbEntity
  8
Layer_1
 62
7
100
AcDbSpline
 70
8
 71
3
 72
8
 73
4
 74
0
 40
0
 40
0
 40
0
 40
0
 40
1
 40
1
 40
1
 40
1
 10
147.330784
 20
12.055321
 30
0.0
 10
147.196655
 20
12.174739
 30
0.0
 10
147.010160
 20
12.234448
 30
0.0
 10
146.771301
 20
12.234448
 30
0.0
  0
SPLINE
  5
30c
100
AcDbEntity
  8
Layer_1
 62
7
100
AcDbSpline
 70
8
 71
3
 72
8
 73
4
 74
0
 40
0
 40
0
 40
0
 40
0
 40
1
 40
1
 40
1
 40
1
 10
146.771301
 20
12.234448
 30
0.0
 10
146.530603
 20
12.234448
 30
0.0
 10
146.343189
 20
12.174739
 30
0.0
 10
146.209060
 20
12.055321
 30
0.0
  0
SPLINE
  5
30d
100
AcDbEntity
  8
Layer_1
 62
7
100
AcDbSpline
 70
8
 71
3
 72
8
 73
4
 74
0
 40
0
 40
0
 40
0
 40
0
 40
1
 40
1
 40
1
 40
1
 10
146.209060
 20
12.055321
 30
0.0
 10
146.076768
 20
11.935885
 30
0.0
 10
146.010622
 20
11.769599
 30
0.0
 10
146.010622
 20
11.556465
 30
0.0
  0
LWPOLYLINE
  5
30e
100
AcDbEntity
  8
Layer_1
 62
7
100
AcDbPolyline
 90
2
 70
1
 10
146.214572
 20
10.677258
 30
0.0
 10
146.214572
 20
10.677258
 30
0.0
  0
LWPOLYLINE
  5
30f
100
AcDbEntity
  8
Layer_1
 62
7
100
AcDbPolyline
 90
2
 70
1
 10
146.010622
 20
11.556465
 30
0.0
 10
146.010622
 20
11.556465
 30
0.0
  0
LWPOLYLINE
  5
310
100
AcDbEntity
  8
Layer_1
 62
7
100
AcDbPolyline
 90
4
 70
0
 10
152.819729
 20
22.052688
 30
0.0
 10
152.819729
 20
22.052688
 30
0.0
 10
152.819729
 20
22.052688
 30
0.0
 10
152.819729
 20
22.052688
 30
0.0
  0
LWPOLYLINE
  5
311
100
AcDbEntity
  8
Layer_1
 62
7
100
AcDbPolyline
 90
6
 70
1
 10
200.349028
 20
10.714342
 30
0.0
 10
201.834552
 20
10.714342
 30
0.0
 10
201.834552
 20
10.262335
 30
0.0
 10
200.349028
 20
10.262335
 30
0.0
 10
200.349028
 20
10.714342
 30
0.0
 10
200.349028
 20
10.714342
 30
0.0
  0
LWPOLYLINE
  5
312
100
AcDbEntity
  8
Layer_1
 62
7
100
AcDbPolyline
 90
4
 70
0
 10
142.256428
 20
18.176944
 30
0.0
 10
142.256428
 20
18.176944
 30
0.0
 10
142.256428
 20
18.176944
 30
0.0
 10
142.256428
 20
18.176944
 30
0.0
  0
SPLINE
  5
313
100
AcDbEntity
  8
Layer_1
 62
7
100
AcDbSpline
 70
8
 71
3
 72
8
 73
4
 74
0
 40
0
 40
0
 40
0
 40
0
 40
1
 40
1
 40
1
 40
1
 10
164.443952
 20
9.230756
 30
0.0
 10
164.583592
 20
9.164622
 30
0.0
 10
164.725070
 20
9.114095
 30
0.0
 10
164.868386
 20
9.079175
 30
0.0
  0
SPLINE
  5
314
100
AcDbEntity
  8
Layer_1
 62
7
100
AcDbSpline
 70
8
 71
3
 72
8
 73
4
 74
0
 40
0
 40
0
 40
0
 40
0
 40
1
 40
1
 40
1
 40
1
 10
164.868386
 20
9.079175
 30
0.0
 10
165.011702
 20
9.044273
 30
0.0
 10
165.152262
 20
9.026823
 30
0.0
 10
165.290065
 20
9.026823
 30
0.0
  0
SPLINE
  5
315
100
AcDbEntity
  8
Layer_1
 62
7
100
AcDbSpline
 70
8
 71
3
 72
8
 73
4
 74
0
 40
0
 40
0
 40
0
 40
0
 40
1
 40
1
 40
1
 40
1
 10
165.290065
 20
9.026823
 30
0.0
 10
165.657543
 20
9.026823
 30
0.0
 10
165.937745
 20
9.149928
 30
0.0
 10
166.130670
 20
9.396139
 30
0.0
  0
SPLINE
  5
316
100
AcDbEntity
  8
Layer_1
 62
7
100
AcDbSpline
 70
8
 71
3
 72
8
 73
4
 74
0
 40
0
 40
0
 40
0
 40
0
 40
1
 40
1
 40
1
 40
1
 10
166.130670
 20
9.396139
 30
0.0
 10
166.325431
 20
9.644174
 30
0.0
 10
166.436593
 20
10.019916
 30
0.0
 10
166.464155
 20
10.523362
 30
0.0
  0
SPLINE
  5
317
100
AcDbEntity
  8
Layer_1
 62
7
100
AcDbSpline
 70
8
 71
3
 72
8
 73
4
 74
0
 40
0
 40
0
 40
0
 40
0
 40
1
 40
1
 40
1
 40
1
 10
166.464155
 20
10.523362
 30
0.0
 10
166.357586
 20
10.365337
 30
0.0
 10
166.222538
 20
10.244066
 30
0.0
 10
166.059011
 20
10.159550
 30
0.0
  0
SPLINE
  5
318
100
AcDbEntity
  8
Layer_1
 62
7
100
AcDbSpline
 70
8
 71
3
 72
8
 73
4
 74
0
 40
0
 40
0
 40
0
 40
0
 40
1
 40
1
 40
1
 40
1
 10
166.059011
 20
10.159550
 30
0.0
 10
165.895484
 20
10.075034
 30
0.0
 10
165.714501
 20
10.032776
 30
0.0
 10
165.516063
 20
10.032776
 30
0.0
  0
SPLINE
  5
319
100
AcDbEntity
  8
Layer_1
 62
7
100
AcDbSpline
 70
8
 71
3
 72
8
 73
4
 74
0
 40
0
 40
0
 40
0
 40
0
 40
1
 40
1
 40
1
 40
1
 10
165.516063
 20
10.032776
 30
0.0
 10
165.104489
 20
10.032776
 30
0.0
 10
164.778354
 20
10.156803
 30
0.0
 10
164.537658
 20
10.404857
 30
0.0
  0
SPLINE
  5
31a
100
AcDbEntity
  8
Layer_1
 62
7
100
AcDbSpline
 70
8
 71
3
 72
8
 73
4
 74
0
 40
0
 40
0
 40
0
 40
0
 40
1
 40
1
 40
1
 40
1
 10
164.537658
 20
10.404857
 30
0.0
 10
164.298798
 20
10.654737
 30
0.0
 10
164.179369
 20
10.995567
 30
0.0
 10
164.179369
 20
11.427348
 30
0.0
  0
SPLINE
  5
31b
100
AcDbEntity
  8
Layer_1
 62
7
100
AcDbSpline
 70
8
 71
3
 72
8
 73
4
 74
0
 40
0
 40
0
 40
0
 40
0
 40
1
 40
1
 40
1
 40
1
 10
164.179369
 20
11.427348
 30
0.0
 10
164.179369
 20
11.849948
 30
0.0
 10
164.304310
 20
12.188944
 30
0.0
 10
164.554194
 20
12.444336
 30
0.0
  0
SPLINE
  5
31c
100
AcDbEntity
  8
Layer_1
 62
7
100
AcDbSpline
 70
8
 71
3
 72
8
 73
4
 74
0
 40
0
 40
0
 40
0
 40
0
 40
1
 40
1
 40
1
 40
1
 10
164.554194
 20
12.444336
 30
0.0
 10
164.804079
 20
12.699747
 30
0.0
 10
165.136646
 20
12.827453
 30
0.0
 10
165.551894
 20
12.827453
 30
0.0
  0
SPLINE
  5
31d
100
AcDbEntity
  8
Layer_1
 62
7
100
AcDbSpline
 70
8
 71
3
 72
8
 73
4
 74
0
 40
0
 40
0
 40
0
 40
0
 40
1
 40
1
 40
1
 40
1
 10
165.551894
 20
12.827453
 30
0.0
 10
166.027775
 20
12.827453
 30
0.0
 10
166.390659
 20
12.644629
 30
0.0
 10
166.640544
 20
12.278982
 30
0.0
  0
SPLINE
  5
31e
100
AcDbEntity
  8
Layer_1
 62
7
100
AcDbSpline
 70
8
 71
3
 72
8
 73
4
 74
0
 40
0
 40
0
 40
0
 40
0
 40
1
 40
1
 40
1
 40
1
 10
166.640544
 20
12.278982
 30
0.0
 10
166.892265
 20
11.915179
 30
0.0
 10
167.018126
 20
11.386012
 30
0.0
 10
167.018126
 20
10.691482
 30
0.0
  0
SPLINE
  5
31f
100
AcDbEntity
  8
Layer_1
 62
7
100
AcDbSpline
 70
8
 71
3
 72
8
 73
4
 74
0
 40
0
 40
0
 40
0
 40
0
 40
1
 40
1
 40
1
 40
1
 10
167.018126
 20
10.691482
 30
0.0
 10
167.018126
 20
10.042879
 30
0.0
 10
166.863785
 20
9.524738
 30
0.0
 10
166.555104
 20
9.137059
 30
0.0
  0
SPLINE
  5
320
100
AcDbEntity
  8
Layer_1
 62
7
100
AcDbSpline
 70
8
 71
3
 72
8
 73
4
 74
0
 40
0
 40
0
 40
0
 40
0
 40
1
 40
1
 40
1
 40
1
 10
166.555104
 20
9.137059
 30
0.0
 10
166.248261
 20
8.751204
 30
0.0
 10
165.834849
 20
8.558277
 30
0.0
 10
165.314870
 20
8.558277
 30
0.0
  0
SPLINE
  5
321
100
AcDbEntity
  8
Layer_1
 62
7
100
AcDbSpline
 70
8
 71
3
 72
8
 73
4
 74
0
 40
0
 40
0
 40
0
 40
0
 40
1
 40
1
 40
1
 40
1
 10
165.314870
 20
8.558277
 30
0.0
 10
165.175230
 20
8.558277
 30
0.0
 10
165.033752
 20
8.572059
 30
0.0
 10
164.890436
 20
8.599623
 30
0.0
  0
SPLINE
  5
322
100
AcDbEntity
  8
Layer_1
 62
7
100
AcDbSpline
 70
8
 71
3
 72
8
 73
4
 74
0
 40
0
 40
0
 40
0
 40
0
 40
1
 40
1
 40
1
 40
1
 10
164.890436
 20
8.599623
 30
0.0
 10
164.747120
 20
8.627187
 30
0.0
 10
164.598292
 20
8.668523
 30
0.0
 10
164.443952
 20
8.723631
 30
0.0
  0
LWPOLYLINE
  5
323
100
AcDbEntity
  8
Layer_1
 62
7
100
AcDbPolyline
 90
2
 70
1
 10
164.443952
 20
8.723631
 30
0.0
 10
164.443952
 20
9.230756
 30
0.0
  0
SPLINE
  5
324
100
AcDbEntity
  8
Layer_1
 62
7
100
AcDbSpline
 70
8
 71
3
 72
8
 73
4
 74
0
 40
0
 40
0
 40
0
 40
0
 40
1
 40
1
 40
1
 40
1
 10
165.551894
 20
10.468244
 30
0.0
 10
165.801778
 20
10.468244
 30
0.0
 10
165.999296
 20
10.553683
 30
0.0
 10
166.144451
 20
10.724559
 30
0.0
  0
SPLINE
  5
325
100
AcDbEntity
  8
Layer_1
 62
7
100
AcDbSpline
 70
8
 71
3
 72
8
 73
4
 74
0
 40
0
 40
0
 40
0
 40
0
 40
1
 40
1
 40
1
 40
1
 10
166.144451
 20
10.724559
 30
0.0
 10
166.291442
 20
10.895435
 30
0.0
 10
166.364937
 20
11.129698
 30
0.0
 10
166.364937
 20
11.427348
 30
0.0
  0
SPLINE
  5
326
100
AcDbEntity
  8
Layer_1
 62
7
100
AcDbSpline
 70
8
 71
3
 72
8
 73
4
 74
0
 40
0
 40
0
 40
0
 40
0
 40
1
 40
1
 40
1
 40
1
 10
166.364937
 20
11.427348
 30
0.0
 10
166.364937
 20
11.723174
 30
0.0
 10
166.291442
 20
11.956525
 30
0.0
 10
166.144451
 20
12.127401
 30
0.0
  0
SPLINE
  5
327
100
AcDbEntity
  8
Layer_1
 62
7
100
AcDbSpline
 70
8
 71
3
 72
8
 73
4
 74
0
 40
0
 40
0
 40
0
 40
0
 40
1
 40
1
 40
1
 40
1
 10
166.144451
 20
12.127401
 30
0.0
 10
165.999296
 20
12.300121
 30
0.0
 10
165.801778
 20
12.386481
 30
0.0
 10
165.551894
 20
12.386481
 30
0.0
  0
SPLINE
  5
328
100
AcDbEntity
  8
Layer_1
 62
7
100
AcDbSpline
 70
8
 71
3
 72
8
 73
4
 74
0
 40
0
 40
0
 40
0
 40
0
 40
1
 40
1
 40
1
 40
1
 10
165.551894
 20
12.386481
 30
0.0
 10
165.302009
 20
12.386481
 30
0.0
 10
165.103571
 20
12.300121
 30
0.0
 10
164.956580
 20
12.127401
 30
0.0
  0
SPLINE
  5
329
100
AcDbEntity
  8
Layer_1
 62
7
100
AcDbSpline
 70
8
 71
3
 72
8
 73
4
 74
0
 40
0
 40
0
 40
0
 40
0
 40
1
 40
1
 40
1
 40
1
 10
164.956580
 20
12.127401
 30
0.0
 10
164.811428
 20
11.956525
 30
0.0
 10
164.738852
 20
11.723174
 30
0.0
 10
164.738852
 20
11.427348
 30
0.0
  0
SPLINE
  5
32a
100
AcDbEntity
  8
Layer_1
 62
7
100
AcDbSpline
 70
8
 71
3
 72
8
 73
4
 74
0
 40
0
 40
0
 40
0
 40
0
 40
1
 40
1
 40
1
 40
1
 10
164.738852
 20
11.427348
 30
0.0
 10
164.738852
 20
11.129698
 30
0.0
 10
164.811428
 20
10.895435
 30
0.0
 10
164.956580
 20
10.724559
 30
0.0
  0
SPLINE
  5
32b
100
AcDbEntity
  8
Layer_1
 62
7
100
AcDbSpline
 70
8
 71
3
 72
8
 73
4
 74
0
 40
0
 40
0
 40
0
 40
0
 40
1
 40
1
 40
1
 40
1
 10
164.956580
 20
10.724559
 30
0.0
 10
165.103571
 20
10.553683
 30
0.0
 10
165.302009
 20
10.468244
 30
0.0
 10
165.551894
 20
10.468244
 30
0.0
  0
LWPOLYLINE
  5
32c
100
AcDbEntity
  8
Layer_1
 62
7
100
AcDbPolyline
 90
2
 70
1
 10
164.443952
 20
8.723631
 30
0.0
 10
164.443952
 20
8.723631
 30
0.0
  0
LWPOLYLINE
  5
32d
100
AcDbEntity
  8
Layer_1
 62
7
100
AcDbPolyline
 90
2
 70
1
 10
165.551894
 20
10.468244
 30
0.0
 10
165.551894
 20
10.468244
 30
0.0
  0
SPLINE
  5
32e
100
AcDbEntity
  8
Layer_1
 62
7
100
AcDbSpline
 70
8
 71
3
 72
8
 73
4
 74
0
 40
0
 40
0
 40
0
 40
0
 40
1
 40
1
 40
1
 40
1
 10
183.172885
 20
12.310478
 30
0.0
 10
182.886252
 20
12.310478
 30
0.0
 10
182.670360
 20
12.169000
 30
0.0
 10
182.525207
 20
11.886044
 30
0.0
  0
SPLINE
  5
32f
100
AcDbEntity
  8
Layer_1
 62
7
100
AcDbSpline
 70
8
 71
3
 72
8
 73
4
 74
0
 40
0
 40
0
 40
0
 40
0
 40
1
 40
1
 40
1
 40
1
 10
182.525207
 20
11.886044
 30
0.0
 10
182.381891
 20
11.604913
 30
0.0
 10
182.310233
 20
11.181392
 30
0.0
 10
182.310233
 20
10.615480
 30
0.0
  0
SPLINE
  5
330
100
AcDbEntity
  8
Layer_1
 62
7
100
AcDbSpline
 70
8
 71
3
 72
8
 73
4
 74
0
 40
0
 40
0
 40
0
 40
0
 40
1
 40
1
 40
1
 40
1
 10
182.310233
 20
10.615480
 30
0.0
 10
182.310233
 20
10.051412
 30
0.0
 10
182.381891
 20
9.627900
 30
0.0
 10
182.525207
 20
9.344944
 30
0.0
  0
SPLINE
  5
331
100
AcDbEntity
  8
Layer_1
 62
7
100
AcDbSpline
 70
8
 71
3
 72
8
 73
4
 74
0
 40
0
 40
0
 40
0
 40
0
 40
1
 40
1
 40
1
 40
1
 10
182.525207
 20
9.344944
 30
0.0
 10
182.670360
 20
9.063813
 30
0.0
 10
182.886252
 20
8.923247
 30
0.0
 10
183.172885
 20
8.923247
 30
0.0
  0
SPLINE
  5
332
100
AcDbEntity
  8
Layer_1
 62
7
100
AcDbSpline
 70
8
 71
3
 72
8
 73
4
 74
0
 40
0
 40
0
 40
0
 40
0
 40
1
 40
1
 40
1
 40
1
 10
183.172885
 20
8.923247
 30
0.0
 10
183.461353
 20
8.923247
 30
0.0
 10
183.677246
 20
9.063813
 30
0.0
 10
183.820562
 20
9.344944
 30
0.0
  0
SPLINE
  5
333
100
AcDbEntity
  8
Layer_1
 62
7
100
AcDbSpline
 70
8
 71
3
 72
8
 73
4
 74
0
 40
0
 40
0
 40
0
 40
0
 40
1
 40
1
 40
1
 40
1
 10
183.820562
 20
9.344944
 30
0.0
 10
183.965716
 20
9.627900
 30
0.0
 10
184.038294
 20
10.051412
 30
0.0
 10
184.038294
 20
10.615480
 30
0.0
  0
SPLINE
  5
334
100
AcDbEntity
  8
Layer_1
 62
7
100
AcDbSpline
 70
8
 71
3
 72
8
 73
4
 74
0
 40
0
 40
0
 40
0
 40
0
 40
1
 40
1
 40
1
 40
1
 10
184.038294
 20
10.615480
 30
0.0
 10
184.038294
 20
11.181392
 30
0.0
 10
183.965716
 20
11.604913
 30
0.0
 10
183.820562
 20
11.886044
 30
0.0
  0
SPLINE
  5
335
100
AcDbEntity
  8
Layer_1
 62
7
100
AcDbSpline
 70
8
 71
3
 72
8
 73
4
 74
0
 40
0
 40
0
 40
0
 40
0
 40
1
 40
1
 40
1
 40
1
 10
183.820562
 20
11.886044
 30
0.0
 10
183.677246
 20
12.169000
 30
0.0
 10
183.461353
 20
12.310478
 30
0.0
 10
183.172885
 20
12.310478
 30
0.0
  0
LWPOLYLINE
  5
336
100
AcDbEntity
  8
Layer_1
 62
7
100
AcDbPolyline
 90
4
 70
0
 10
139.140636
 20
18.176944
 30
0.0
 10
139.140636
 20
18.176944
 30
0.0
 10
139.140636
 20
18.176944
 30
0.0
 10
139.140636
 20
18.176944
 30
0.0
  0
SPLINE
  5
337
100
AcDbEntity
  8
Layer_1
 62
7
100
AcDbSpline
 70
8
 71
3
 72
8
 73
4
 74
0
 40
0
 40
0
 40
0
 40
0
 40
1
 40
1
 40
1
 40
1
 10
183.172885
 20
12.751450
 30
0.0
 10
183.634068
 20
12.751450
 30
0.0
 10
183.985927
 20
12.568627
 30
0.0
 10
184.228463
 20
12.202980
 30
0.0
  0
SPLINE
  5
338
100
AcDbEntity
  8
Layer_1
 62
7
100
AcDbSpline
 70
8
 71
3
 72
8
 73
4
 74
0
 40
0
 40
0
 40
0
 40
0
 40
1
 40
1
 40
1
 40
1
 10
184.228463
 20
12.202980
 30
0.0
 10
184.472834
 20
11.839177
 30
0.0
 10
184.595019
 20
11.310010
 30
0.0
 10
184.595019
 20
10.615480
 30
0.0
  0
SPLINE
  5
339
100
AcDbEntity
  8
Layer_1
 62
7
100
AcDbSpline
 70
8
 71
3
 72
8
 73
4
 74
0
 40
0
 40
0
 40
0
 40
0
 40
1
 40
1
 40
1
 40
1
 10
184.595019
 20
10.615480
 30
0.0
 10
184.595019
 20
9.922794
 30
0.0
 10
184.472834
 20
9.393627
 30
0.0
 10
184.228463
 20
9.027980
 30
0.0
  0
SPLINE
  5
33a
100
AcDbEntity
  8
Layer_1
 62
7
100
AcDbSpline
 70
8
 71
3
 72
8
 73
4
 74
0
 40
0
 40
0
 40
0
 40
0
 40
1
 40
1
 40
1
 40
1
 10
184.228463
 20
9.027980
 30
0.0
 10
183.985927
 20
8.664177
 30
0.0
 10
183.634068
 20
8.482275
 30
0.0
 10
183.172885
 20
8.482275
 30
0.0
  0
SPLINE
  5
33b
100
AcDbEntity
  8
Layer_1
 62
7
100
AcDbSpline
 70
8
 71
3
 72
8
 73
4
 74
0
 40
0
 40
0
 40
0
 40
0
 40
1
 40
1
 40
1
 40
1
 10
183.172885
 20
8.482275
 30
0.0
 10
182.711701
 20
8.482275
 30
0.0
 10
182.358924
 20
8.664177
 30
0.0
 10
182.114551
 20
9.027980
 30
0.0
  0
SPLINE
  5
33c
100
AcDbEntity
  8
Layer_1
 62
7
100
AcDbSpline
 70
8
 71
3
 72
8
 73
4
 74
0
 40
0
 40
0
 40
0
 40
0
 40
1
 40
1
 40
1
 40
1
 10
182.114551
 20
9.027980
 30
0.0
 10
181.872017
 20
9.393627
 30
0.0
 10
181.750750
 20
9.922794
 30
0.0
 10
181.750750
 20
10.615480
 30
0.0
  0
SPLINE
  5
33d
100
AcDbEntity
  8
Layer_1
 62
7
100
AcDbSpline
 70
8
 71
3
 72
8
 73
4
 74
0
 40
0
 40
0
 40
0
 40
0
 40
1
 40
1
 40
1
 40
1
 10
181.750750
 20
10.615480
 30
0.0
 10
181.750750
 20
11.310010
 30
0.0
 10
181.872017
 20
11.839177
 30
0.0
 10
182.114551
 20
12.202980
 30
0.0
  0
SPLINE
  5
33e
100
AcDbEntity
  8
Layer_1
 62
7
100
AcDbSpline
 70
8
 71
3
 72
8
 73
4
 74
0
 40
0
 40
0
 40
0
 40
0
 40
1
 40
1
 40
1
 40
1
 10
182.114551
 20
12.202980
 30
0.0
 10
182.358924
 20
12.568627
 30
0.0
 10
182.711701
 20
12.751450
 30
0.0
 10
183.172885
 20
12.751450
 30
0.0
  0
LWPOLYLINE
  5
33f
100
AcDbEntity
  8
Layer_1
 62
7
100
AcDbPolyline
 90
2
 70
1
 10
183.172885
 20
12.310478
 30
0.0
 10
183.172885
 20
12.310478
 30
0.0
  0
LWPOLYLINE
  5
340
100
AcDbEntity
  8
Layer_1
 62
7
100
AcDbPolyline
 90
2
 70
1
 10
183.172885
 20
12.751450
 30
0.0
 10
183.172885
 20
12.751450
 30
0.0
  0
LWPOLYLINE
  5
341
100
AcDbEntity
  8
Layer_1
 62
7
100
AcDbPolyline
 90
4
 70
0
 10
132.833051
 20
22.736642
 30
0.0
 10
132.833051
 20
22.736642
 30
0.0
 10
132.833051
 20
22.736642
 30
0.0
 10
132.833051
 20
22.736642
 30
0.0
  0
LWPOLYLINE
  5
342
100
AcDbEntity
  8
Layer_1
 62
7
100
AcDbPolyline
 90
6
 70
1
 10
217.694377
 20
11.429324
 30
0.0
 10
221.227667
 20
11.429324
 30
0.0
 10
221.227667
 20
10.966310
 30
0.0
 10
217.694377
 20
10.966310
 30
0.0
 10
217.694377
 20
11.429324
 30
0.0
 10
217.694377
 20
11.429324
 30
0.0
  0
LWPOLYLINE
  5
343
100
AcDbEntity
  8
Layer_1
 62
7
100
AcDbPolyline
 90
6
 70
1
 10
217.694377
 20
10.304866
 30
0.0
 10
221.227667
 20
10.304866
 30
0.0
 10
221.227667
 20
9.836321
 30
0.0
 10
217.694377
 20
9.836321
 30
0.0
 10
217.694377
 20
10.304866
 30
0.0
 10
217.694377
 20
10.304866
 30
0.0
  0
ENDSEC
  0
SECTION
  2
OBJECTS
  0
DICTIONARY
  5
C
330
0
100
AcDbDictionary
  3
ACAD_GROUP
350
D
  3
ACAD_MLINESTYLE
350
17
  0
DICTIONARY
  5
D
330
C
100
AcDbDictionary
  0
DICTIONARY
  5
1A
330
C
100
AcDbDictionary
  0
DICTIONARY
  5
17
330
C
100
AcDbDictionary
  3
STANDARD
350
18
  0
DICTIONARY
  5
19
330
C
100
AcDbDictionary
  0
ENDSEC
  0
EOF
